G04 #@! TF.GenerationSoftware,KiCad,Pcbnew,(6.0.1-0)*
G04 #@! TF.CreationDate,2022-03-11T23:22:37+01:00*
G04 #@! TF.ProjectId,LidPCB,4c696450-4342-42e6-9b69-6361645f7063,rev?*
G04 #@! TF.SameCoordinates,Original*
G04 #@! TF.FileFunction,Legend,Top*
G04 #@! TF.FilePolarity,Positive*
%FSLAX46Y46*%
G04 Gerber Fmt 4.6, Leading zero omitted, Abs format (unit mm)*
G04 Created by KiCad (PCBNEW (6.0.1-0)) date 2022-03-11 23:22:37*
%MOMM*%
%LPD*%
G01*
G04 APERTURE LIST*
G04 Aperture macros list*
%AMRoundRect*
0 Rectangle with rounded corners*
0 $1 Rounding radius*
0 $2 $3 $4 $5 $6 $7 $8 $9 X,Y pos of 4 corners*
0 Add a 4 corners polygon primitive as box body*
4,1,4,$2,$3,$4,$5,$6,$7,$8,$9,$2,$3,0*
0 Add four circle primitives for the rounded corners*
1,1,$1+$1,$2,$3*
1,1,$1+$1,$4,$5*
1,1,$1+$1,$6,$7*
1,1,$1+$1,$8,$9*
0 Add four rect primitives between the rounded corners*
20,1,$1+$1,$2,$3,$4,$5,0*
20,1,$1+$1,$4,$5,$6,$7,0*
20,1,$1+$1,$6,$7,$8,$9,0*
20,1,$1+$1,$8,$9,$2,$3,0*%
G04 Aperture macros list end*
%ADD10C,0.150000*%
%ADD11C,0.310000*%
%ADD12C,0.200000*%
%ADD13C,0.096520*%
%ADD14C,0.120000*%
%ADD15C,0.050000*%
%ADD16C,0.127000*%
%ADD17C,2.000000*%
%ADD18R,1.000000X1.000000*%
%ADD19RoundRect,0.250000X0.450000X-0.325000X0.450000X0.325000X-0.450000X0.325000X-0.450000X-0.325000X0*%
%ADD20RoundRect,0.250000X-0.450000X0.325000X-0.450000X-0.325000X0.450000X-0.325000X0.450000X0.325000X0*%
%ADD21RoundRect,0.237500X-0.237500X0.287500X-0.237500X-0.287500X0.237500X-0.287500X0.237500X0.287500X0*%
%ADD22R,1.000000X1.200000*%
%ADD23R,1.000000X1.250000*%
%ADD24RoundRect,0.237500X0.237500X-0.287500X0.237500X0.287500X-0.237500X0.287500X-0.237500X-0.287500X0*%
%ADD25R,0.900000X0.800000*%
%ADD26RoundRect,0.101600X0.950000X0.300000X-0.950000X0.300000X-0.950000X-0.300000X0.950000X-0.300000X0*%
%ADD27RoundRect,0.101600X1.400000X-1.050000X1.400000X1.050000X-1.400000X1.050000X-1.400000X-1.050000X0*%
%ADD28R,0.650000X1.560000*%
%ADD29RoundRect,0.237500X-0.287500X-0.237500X0.287500X-0.237500X0.287500X0.237500X-0.287500X0.237500X0*%
%ADD30R,0.350000X2.500000*%
%ADD31R,0.558800X2.126800*%
%ADD32C,3.300000*%
G04 APERTURE END LIST*
D10*
X159426190Y-82804761D02*
X159569047Y-82852380D01*
X159807142Y-82852380D01*
X159902380Y-82804761D01*
X159950000Y-82757142D01*
X159997619Y-82661904D01*
X159997619Y-82566666D01*
X159950000Y-82471428D01*
X159902380Y-82423809D01*
X159807142Y-82376190D01*
X159616666Y-82328571D01*
X159521428Y-82280952D01*
X159473809Y-82233333D01*
X159426190Y-82138095D01*
X159426190Y-82042857D01*
X159473809Y-81947619D01*
X159521428Y-81900000D01*
X159616666Y-81852380D01*
X159854761Y-81852380D01*
X159997619Y-81900000D01*
X160426190Y-82757142D02*
X160473809Y-82804761D01*
X160426190Y-82852380D01*
X160378571Y-82804761D01*
X160426190Y-82757142D01*
X160426190Y-82852380D01*
X160807142Y-81852380D02*
X161473809Y-81852380D01*
X160807142Y-82852380D01*
X161473809Y-82852380D01*
X161854761Y-82852380D02*
X161854761Y-82185714D01*
X161854761Y-81852380D02*
X161807142Y-81900000D01*
X161854761Y-81947619D01*
X161902380Y-81900000D01*
X161854761Y-81852380D01*
X161854761Y-81947619D01*
X162283333Y-82804761D02*
X162378571Y-82852380D01*
X162569047Y-82852380D01*
X162664285Y-82804761D01*
X162711904Y-82709523D01*
X162711904Y-82661904D01*
X162664285Y-82566666D01*
X162569047Y-82519047D01*
X162426190Y-82519047D01*
X162330952Y-82471428D01*
X162283333Y-82376190D01*
X162283333Y-82328571D01*
X162330952Y-82233333D01*
X162426190Y-82185714D01*
X162569047Y-82185714D01*
X162664285Y-82233333D01*
X163569047Y-82804761D02*
X163473809Y-82852380D01*
X163283333Y-82852380D01*
X163188095Y-82804761D01*
X163140476Y-82757142D01*
X163092857Y-82661904D01*
X163092857Y-82376190D01*
X163140476Y-82280952D01*
X163188095Y-82233333D01*
X163283333Y-82185714D01*
X163473809Y-82185714D01*
X163569047Y-82233333D01*
X163997619Y-82852380D02*
X163997619Y-81852380D01*
X164426190Y-82852380D02*
X164426190Y-82328571D01*
X164378571Y-82233333D01*
X164283333Y-82185714D01*
X164140476Y-82185714D01*
X164045238Y-82233333D01*
X163997619Y-82280952D01*
D11*
X128155000Y-101000000D02*
G75*
G03*
X128155000Y-101000000I-155000J0D01*
G01*
D12*
X149650000Y-102500000D02*
G75*
G03*
X149650000Y-102500000I-100000J0D01*
G01*
X132150000Y-102500000D02*
G75*
G03*
X132150000Y-102500000I-100000J0D01*
G01*
D10*
X143718095Y-86361428D02*
X144480000Y-86361428D01*
X144099047Y-86742380D02*
X144099047Y-85980476D01*
X145480000Y-86742380D02*
X144908571Y-86742380D01*
X145194285Y-86742380D02*
X145194285Y-85742380D01*
X145099047Y-85885238D01*
X145003809Y-85980476D01*
X144908571Y-86028095D01*
X146384761Y-85742380D02*
X145908571Y-85742380D01*
X145860952Y-86218571D01*
X145908571Y-86170952D01*
X146003809Y-86123333D01*
X146241904Y-86123333D01*
X146337142Y-86170952D01*
X146384761Y-86218571D01*
X146432380Y-86313809D01*
X146432380Y-86551904D01*
X146384761Y-86647142D01*
X146337142Y-86694761D01*
X146241904Y-86742380D01*
X146003809Y-86742380D01*
X145908571Y-86694761D01*
X145860952Y-86647142D01*
X146718095Y-85742380D02*
X147051428Y-86742380D01*
X147384761Y-85742380D01*
X119063095Y-70525000D02*
X118967857Y-70477380D01*
X118825000Y-70477380D01*
X118682142Y-70525000D01*
X118586904Y-70620238D01*
X118539285Y-70715476D01*
X118491666Y-70905952D01*
X118491666Y-71048809D01*
X118539285Y-71239285D01*
X118586904Y-71334523D01*
X118682142Y-71429761D01*
X118825000Y-71477380D01*
X118920238Y-71477380D01*
X119063095Y-71429761D01*
X119110714Y-71382142D01*
X119110714Y-71048809D01*
X118920238Y-71048809D01*
X119539285Y-71477380D02*
X119539285Y-70477380D01*
X120110714Y-71477380D01*
X120110714Y-70477380D01*
X120586904Y-71477380D02*
X120586904Y-70477380D01*
X120825000Y-70477380D01*
X120967857Y-70525000D01*
X121063095Y-70620238D01*
X121110714Y-70715476D01*
X121158333Y-70905952D01*
X121158333Y-71048809D01*
X121110714Y-71239285D01*
X121063095Y-71334523D01*
X120967857Y-71429761D01*
X120825000Y-71477380D01*
X120586904Y-71477380D01*
X124359523Y-70502380D02*
X123883333Y-70502380D01*
X123835714Y-70978571D01*
X123883333Y-70930952D01*
X123978571Y-70883333D01*
X124216666Y-70883333D01*
X124311904Y-70930952D01*
X124359523Y-70978571D01*
X124407142Y-71073809D01*
X124407142Y-71311904D01*
X124359523Y-71407142D01*
X124311904Y-71454761D01*
X124216666Y-71502380D01*
X123978571Y-71502380D01*
X123883333Y-71454761D01*
X123835714Y-71407142D01*
X124692857Y-70502380D02*
X125026190Y-71502380D01*
X125359523Y-70502380D01*
X130433333Y-80757142D02*
X130385714Y-80804761D01*
X130242857Y-80852380D01*
X130147619Y-80852380D01*
X130004761Y-80804761D01*
X129909523Y-80709523D01*
X129861904Y-80614285D01*
X129814285Y-80423809D01*
X129814285Y-80280952D01*
X129861904Y-80090476D01*
X129909523Y-79995238D01*
X130004761Y-79900000D01*
X130147619Y-79852380D01*
X130242857Y-79852380D01*
X130385714Y-79900000D01*
X130433333Y-79947619D01*
X131385714Y-80852380D02*
X130814285Y-80852380D01*
X131100000Y-80852380D02*
X131100000Y-79852380D01*
X131004761Y-79995238D01*
X130909523Y-80090476D01*
X130814285Y-80138095D01*
X138833333Y-90882142D02*
X138785714Y-90929761D01*
X138642857Y-90977380D01*
X138547619Y-90977380D01*
X138404761Y-90929761D01*
X138309523Y-90834523D01*
X138261904Y-90739285D01*
X138214285Y-90548809D01*
X138214285Y-90405952D01*
X138261904Y-90215476D01*
X138309523Y-90120238D01*
X138404761Y-90025000D01*
X138547619Y-89977380D01*
X138642857Y-89977380D01*
X138785714Y-90025000D01*
X138833333Y-90072619D01*
X139214285Y-90072619D02*
X139261904Y-90025000D01*
X139357142Y-89977380D01*
X139595238Y-89977380D01*
X139690476Y-90025000D01*
X139738095Y-90072619D01*
X139785714Y-90167857D01*
X139785714Y-90263095D01*
X139738095Y-90405952D01*
X139166666Y-90977380D01*
X139785714Y-90977380D01*
X150333333Y-90857142D02*
X150285714Y-90904761D01*
X150142857Y-90952380D01*
X150047619Y-90952380D01*
X149904761Y-90904761D01*
X149809523Y-90809523D01*
X149761904Y-90714285D01*
X149714285Y-90523809D01*
X149714285Y-90380952D01*
X149761904Y-90190476D01*
X149809523Y-90095238D01*
X149904761Y-90000000D01*
X150047619Y-89952380D01*
X150142857Y-89952380D01*
X150285714Y-90000000D01*
X150333333Y-90047619D01*
X150666666Y-89952380D02*
X151285714Y-89952380D01*
X150952380Y-90333333D01*
X151095238Y-90333333D01*
X151190476Y-90380952D01*
X151238095Y-90428571D01*
X151285714Y-90523809D01*
X151285714Y-90761904D01*
X151238095Y-90857142D01*
X151190476Y-90904761D01*
X151095238Y-90952380D01*
X150809523Y-90952380D01*
X150714285Y-90904761D01*
X150666666Y-90857142D01*
X146333333Y-90882142D02*
X146285714Y-90929761D01*
X146142857Y-90977380D01*
X146047619Y-90977380D01*
X145904761Y-90929761D01*
X145809523Y-90834523D01*
X145761904Y-90739285D01*
X145714285Y-90548809D01*
X145714285Y-90405952D01*
X145761904Y-90215476D01*
X145809523Y-90120238D01*
X145904761Y-90025000D01*
X146047619Y-89977380D01*
X146142857Y-89977380D01*
X146285714Y-90025000D01*
X146333333Y-90072619D01*
X146666666Y-89977380D02*
X147333333Y-89977380D01*
X146904761Y-90977380D01*
X146697380Y-80571666D02*
X146697380Y-81047857D01*
X145697380Y-81047857D01*
X146697380Y-79714523D02*
X146697380Y-80285952D01*
X146697380Y-80000238D02*
X145697380Y-80000238D01*
X145840238Y-80095476D01*
X145935476Y-80190714D01*
X145983095Y-80285952D01*
X130833333Y-91327380D02*
X130500000Y-90851190D01*
X130261904Y-91327380D02*
X130261904Y-90327380D01*
X130642857Y-90327380D01*
X130738095Y-90375000D01*
X130785714Y-90422619D01*
X130833333Y-90517857D01*
X130833333Y-90660714D01*
X130785714Y-90755952D01*
X130738095Y-90803571D01*
X130642857Y-90851190D01*
X130261904Y-90851190D01*
X131214285Y-90422619D02*
X131261904Y-90375000D01*
X131357142Y-90327380D01*
X131595238Y-90327380D01*
X131690476Y-90375000D01*
X131738095Y-90422619D01*
X131785714Y-90517857D01*
X131785714Y-90613095D01*
X131738095Y-90755952D01*
X131166666Y-91327380D01*
X131785714Y-91327380D01*
X132833333Y-91327380D02*
X132500000Y-90851190D01*
X132261904Y-91327380D02*
X132261904Y-90327380D01*
X132642857Y-90327380D01*
X132738095Y-90375000D01*
X132785714Y-90422619D01*
X132833333Y-90517857D01*
X132833333Y-90660714D01*
X132785714Y-90755952D01*
X132738095Y-90803571D01*
X132642857Y-90851190D01*
X132261904Y-90851190D01*
X133166666Y-90327380D02*
X133785714Y-90327380D01*
X133452380Y-90708333D01*
X133595238Y-90708333D01*
X133690476Y-90755952D01*
X133738095Y-90803571D01*
X133785714Y-90898809D01*
X133785714Y-91136904D01*
X133738095Y-91232142D01*
X133690476Y-91279761D01*
X133595238Y-91327380D01*
X133309523Y-91327380D01*
X133214285Y-91279761D01*
X133166666Y-91232142D01*
X134833333Y-91327380D02*
X134500000Y-90851190D01*
X134261904Y-91327380D02*
X134261904Y-90327380D01*
X134642857Y-90327380D01*
X134738095Y-90375000D01*
X134785714Y-90422619D01*
X134833333Y-90517857D01*
X134833333Y-90660714D01*
X134785714Y-90755952D01*
X134738095Y-90803571D01*
X134642857Y-90851190D01*
X134261904Y-90851190D01*
X135690476Y-90660714D02*
X135690476Y-91327380D01*
X135452380Y-90279761D02*
X135214285Y-90994047D01*
X135833333Y-90994047D01*
X141333333Y-90977380D02*
X141000000Y-90501190D01*
X140761904Y-90977380D02*
X140761904Y-89977380D01*
X141142857Y-89977380D01*
X141238095Y-90025000D01*
X141285714Y-90072619D01*
X141333333Y-90167857D01*
X141333333Y-90310714D01*
X141285714Y-90405952D01*
X141238095Y-90453571D01*
X141142857Y-90501190D01*
X140761904Y-90501190D01*
X142238095Y-89977380D02*
X141761904Y-89977380D01*
X141714285Y-90453571D01*
X141761904Y-90405952D01*
X141857142Y-90358333D01*
X142095238Y-90358333D01*
X142190476Y-90405952D01*
X142238095Y-90453571D01*
X142285714Y-90548809D01*
X142285714Y-90786904D01*
X142238095Y-90882142D01*
X142190476Y-90929761D01*
X142095238Y-90977380D01*
X141857142Y-90977380D01*
X141761904Y-90929761D01*
X141714285Y-90882142D01*
X141583333Y-75452380D02*
X141250000Y-74976190D01*
X141011904Y-75452380D02*
X141011904Y-74452380D01*
X141392857Y-74452380D01*
X141488095Y-74500000D01*
X141535714Y-74547619D01*
X141583333Y-74642857D01*
X141583333Y-74785714D01*
X141535714Y-74880952D01*
X141488095Y-74928571D01*
X141392857Y-74976190D01*
X141011904Y-74976190D01*
X141916666Y-74452380D02*
X142583333Y-74452380D01*
X142154761Y-75452380D01*
X126588095Y-79852380D02*
X126588095Y-80661904D01*
X126635714Y-80757142D01*
X126683333Y-80804761D01*
X126778571Y-80852380D01*
X126969047Y-80852380D01*
X127064285Y-80804761D01*
X127111904Y-80757142D01*
X127159523Y-80661904D01*
X127159523Y-79852380D01*
X128159523Y-80852380D02*
X127588095Y-80852380D01*
X127873809Y-80852380D02*
X127873809Y-79852380D01*
X127778571Y-79995238D01*
X127683333Y-80090476D01*
X127588095Y-80138095D01*
D13*
X117311047Y-97474047D02*
X118172833Y-97474047D01*
X118345190Y-97531499D01*
X118460095Y-97646404D01*
X118517547Y-97818761D01*
X118517547Y-97933666D01*
X118517547Y-96267547D02*
X118517547Y-96956976D01*
X118517547Y-96612261D02*
X117311047Y-96612261D01*
X117483404Y-96727166D01*
X117598309Y-96842071D01*
X117655761Y-96956976D01*
D10*
X129333333Y-98452380D02*
X129000000Y-97976190D01*
X128761904Y-98452380D02*
X128761904Y-97452380D01*
X129142857Y-97452380D01*
X129238095Y-97500000D01*
X129285714Y-97547619D01*
X129333333Y-97642857D01*
X129333333Y-97785714D01*
X129285714Y-97880952D01*
X129238095Y-97928571D01*
X129142857Y-97976190D01*
X128761904Y-97976190D01*
X129809523Y-98452380D02*
X130000000Y-98452380D01*
X130095238Y-98404761D01*
X130142857Y-98357142D01*
X130238095Y-98214285D01*
X130285714Y-98023809D01*
X130285714Y-97642857D01*
X130238095Y-97547619D01*
X130190476Y-97500000D01*
X130095238Y-97452380D01*
X129904761Y-97452380D01*
X129809523Y-97500000D01*
X129761904Y-97547619D01*
X129714285Y-97642857D01*
X129714285Y-97880952D01*
X129761904Y-97976190D01*
X129809523Y-98023809D01*
X129904761Y-98071428D01*
X130095238Y-98071428D01*
X130190476Y-98023809D01*
X130238095Y-97976190D01*
X130285714Y-97880952D01*
X138988095Y-83202380D02*
X138988095Y-84011904D01*
X139035714Y-84107142D01*
X139083333Y-84154761D01*
X139178571Y-84202380D01*
X139369047Y-84202380D01*
X139464285Y-84154761D01*
X139511904Y-84107142D01*
X139559523Y-84011904D01*
X139559523Y-83202380D01*
X139988095Y-83297619D02*
X140035714Y-83250000D01*
X140130952Y-83202380D01*
X140369047Y-83202380D01*
X140464285Y-83250000D01*
X140511904Y-83297619D01*
X140559523Y-83392857D01*
X140559523Y-83488095D01*
X140511904Y-83630952D01*
X139940476Y-84202380D01*
X140559523Y-84202380D01*
X133733333Y-77252380D02*
X133400000Y-76776190D01*
X133161904Y-77252380D02*
X133161904Y-76252380D01*
X133542857Y-76252380D01*
X133638095Y-76300000D01*
X133685714Y-76347619D01*
X133733333Y-76442857D01*
X133733333Y-76585714D01*
X133685714Y-76680952D01*
X133638095Y-76728571D01*
X133542857Y-76776190D01*
X133161904Y-76776190D01*
X134590476Y-76252380D02*
X134400000Y-76252380D01*
X134304761Y-76300000D01*
X134257142Y-76347619D01*
X134161904Y-76490476D01*
X134114285Y-76680952D01*
X134114285Y-77061904D01*
X134161904Y-77157142D01*
X134209523Y-77204761D01*
X134304761Y-77252380D01*
X134495238Y-77252380D01*
X134590476Y-77204761D01*
X134638095Y-77157142D01*
X134685714Y-77061904D01*
X134685714Y-76823809D01*
X134638095Y-76728571D01*
X134590476Y-76680952D01*
X134495238Y-76633333D01*
X134304761Y-76633333D01*
X134209523Y-76680952D01*
X134161904Y-76728571D01*
X134114285Y-76823809D01*
X134833333Y-82757142D02*
X134785714Y-82804761D01*
X134642857Y-82852380D01*
X134547619Y-82852380D01*
X134404761Y-82804761D01*
X134309523Y-82709523D01*
X134261904Y-82614285D01*
X134214285Y-82423809D01*
X134214285Y-82280952D01*
X134261904Y-82090476D01*
X134309523Y-81995238D01*
X134404761Y-81900000D01*
X134547619Y-81852380D01*
X134642857Y-81852380D01*
X134785714Y-81900000D01*
X134833333Y-81947619D01*
X135738095Y-81852380D02*
X135261904Y-81852380D01*
X135214285Y-82328571D01*
X135261904Y-82280952D01*
X135357142Y-82233333D01*
X135595238Y-82233333D01*
X135690476Y-82280952D01*
X135738095Y-82328571D01*
X135785714Y-82423809D01*
X135785714Y-82661904D01*
X135738095Y-82757142D01*
X135690476Y-82804761D01*
X135595238Y-82852380D01*
X135357142Y-82852380D01*
X135261904Y-82804761D01*
X135214285Y-82757142D01*
X137533333Y-71557142D02*
X137485714Y-71604761D01*
X137342857Y-71652380D01*
X137247619Y-71652380D01*
X137104761Y-71604761D01*
X137009523Y-71509523D01*
X136961904Y-71414285D01*
X136914285Y-71223809D01*
X136914285Y-71080952D01*
X136961904Y-70890476D01*
X137009523Y-70795238D01*
X137104761Y-70700000D01*
X137247619Y-70652380D01*
X137342857Y-70652380D01*
X137485714Y-70700000D01*
X137533333Y-70747619D01*
X138104761Y-71080952D02*
X138009523Y-71033333D01*
X137961904Y-70985714D01*
X137914285Y-70890476D01*
X137914285Y-70842857D01*
X137961904Y-70747619D01*
X138009523Y-70700000D01*
X138104761Y-70652380D01*
X138295238Y-70652380D01*
X138390476Y-70700000D01*
X138438095Y-70747619D01*
X138485714Y-70842857D01*
X138485714Y-70890476D01*
X138438095Y-70985714D01*
X138390476Y-71033333D01*
X138295238Y-71080952D01*
X138104761Y-71080952D01*
X138009523Y-71128571D01*
X137961904Y-71176190D01*
X137914285Y-71271428D01*
X137914285Y-71461904D01*
X137961904Y-71557142D01*
X138009523Y-71604761D01*
X138104761Y-71652380D01*
X138295238Y-71652380D01*
X138390476Y-71604761D01*
X138438095Y-71557142D01*
X138485714Y-71461904D01*
X138485714Y-71271428D01*
X138438095Y-71176190D01*
X138390476Y-71128571D01*
X138295238Y-71080952D01*
X134602380Y-74066666D02*
X134126190Y-74400000D01*
X134602380Y-74638095D02*
X133602380Y-74638095D01*
X133602380Y-74257142D01*
X133650000Y-74161904D01*
X133697619Y-74114285D01*
X133792857Y-74066666D01*
X133935714Y-74066666D01*
X134030952Y-74114285D01*
X134078571Y-74161904D01*
X134126190Y-74257142D01*
X134126190Y-74638095D01*
X134030952Y-73495238D02*
X133983333Y-73590476D01*
X133935714Y-73638095D01*
X133840476Y-73685714D01*
X133792857Y-73685714D01*
X133697619Y-73638095D01*
X133650000Y-73590476D01*
X133602380Y-73495238D01*
X133602380Y-73304761D01*
X133650000Y-73209523D01*
X133697619Y-73161904D01*
X133792857Y-73114285D01*
X133840476Y-73114285D01*
X133935714Y-73161904D01*
X133983333Y-73209523D01*
X134030952Y-73304761D01*
X134030952Y-73495238D01*
X134078571Y-73590476D01*
X134126190Y-73638095D01*
X134221428Y-73685714D01*
X134411904Y-73685714D01*
X134507142Y-73638095D01*
X134554761Y-73590476D01*
X134602380Y-73495238D01*
X134602380Y-73304761D01*
X134554761Y-73209523D01*
X134507142Y-73161904D01*
X134411904Y-73114285D01*
X134221428Y-73114285D01*
X134126190Y-73161904D01*
X134078571Y-73209523D01*
X134030952Y-73304761D01*
X148333333Y-90857142D02*
X148285714Y-90904761D01*
X148142857Y-90952380D01*
X148047619Y-90952380D01*
X147904761Y-90904761D01*
X147809523Y-90809523D01*
X147761904Y-90714285D01*
X147714285Y-90523809D01*
X147714285Y-90380952D01*
X147761904Y-90190476D01*
X147809523Y-90095238D01*
X147904761Y-90000000D01*
X148047619Y-89952380D01*
X148142857Y-89952380D01*
X148285714Y-90000000D01*
X148333333Y-90047619D01*
X149190476Y-90285714D02*
X149190476Y-90952380D01*
X148952380Y-89904761D02*
X148714285Y-90619047D01*
X149333333Y-90619047D01*
X136833333Y-91327380D02*
X136500000Y-90851190D01*
X136261904Y-91327380D02*
X136261904Y-90327380D01*
X136642857Y-90327380D01*
X136738095Y-90375000D01*
X136785714Y-90422619D01*
X136833333Y-90517857D01*
X136833333Y-90660714D01*
X136785714Y-90755952D01*
X136738095Y-90803571D01*
X136642857Y-90851190D01*
X136261904Y-90851190D01*
X137785714Y-91327380D02*
X137214285Y-91327380D01*
X137500000Y-91327380D02*
X137500000Y-90327380D01*
X137404761Y-90470238D01*
X137309523Y-90565476D01*
X137214285Y-90613095D01*
X120988095Y-99202380D02*
X120988095Y-100011904D01*
X121035714Y-100107142D01*
X121083333Y-100154761D01*
X121178571Y-100202380D01*
X121369047Y-100202380D01*
X121464285Y-100154761D01*
X121511904Y-100107142D01*
X121559523Y-100011904D01*
X121559523Y-99202380D01*
X122464285Y-99535714D02*
X122464285Y-100202380D01*
X122226190Y-99154761D02*
X121988095Y-99869047D01*
X122607142Y-99869047D01*
X143833333Y-90857142D02*
X143785714Y-90904761D01*
X143642857Y-90952380D01*
X143547619Y-90952380D01*
X143404761Y-90904761D01*
X143309523Y-90809523D01*
X143261904Y-90714285D01*
X143214285Y-90523809D01*
X143214285Y-90380952D01*
X143261904Y-90190476D01*
X143309523Y-90095238D01*
X143404761Y-90000000D01*
X143547619Y-89952380D01*
X143642857Y-89952380D01*
X143785714Y-90000000D01*
X143833333Y-90047619D01*
X144690476Y-89952380D02*
X144500000Y-89952380D01*
X144404761Y-90000000D01*
X144357142Y-90047619D01*
X144261904Y-90190476D01*
X144214285Y-90380952D01*
X144214285Y-90761904D01*
X144261904Y-90857142D01*
X144309523Y-90904761D01*
X144404761Y-90952380D01*
X144595238Y-90952380D01*
X144690476Y-90904761D01*
X144738095Y-90857142D01*
X144785714Y-90761904D01*
X144785714Y-90523809D01*
X144738095Y-90428571D01*
X144690476Y-90380952D01*
X144595238Y-90333333D01*
X144404761Y-90333333D01*
X144309523Y-90380952D01*
X144261904Y-90428571D01*
X144214285Y-90523809D01*
D14*
X143120000Y-87140000D02*
G75*
G03*
X143120000Y-87140000I-1200000J0D01*
G01*
X121025000Y-73375000D02*
G75*
G03*
X121025000Y-73375000I-1200000J0D01*
G01*
X125750000Y-73400000D02*
G75*
G03*
X125750000Y-73400000I-1200000J0D01*
G01*
D15*
X162275000Y-80050000D02*
X163275000Y-80050000D01*
X163275000Y-80050000D02*
X163275000Y-81050000D01*
X163275000Y-81050000D02*
X162275000Y-81050000D01*
X162275000Y-81050000D02*
X162275000Y-80050000D01*
X159275000Y-75550000D02*
X160275000Y-75550000D01*
X160275000Y-75550000D02*
X160275000Y-76550000D01*
X160275000Y-76550000D02*
X159275000Y-76550000D01*
X159275000Y-76550000D02*
X159275000Y-75550000D01*
X159275000Y-72550000D02*
X160275000Y-72550000D01*
X160275000Y-72550000D02*
X160275000Y-73550000D01*
X160275000Y-73550000D02*
X159275000Y-73550000D01*
X159275000Y-73550000D02*
X159275000Y-72550000D01*
X163775000Y-74050000D02*
X164775000Y-74050000D01*
X164775000Y-74050000D02*
X164775000Y-75050000D01*
X164775000Y-75050000D02*
X163775000Y-75050000D01*
X163775000Y-75050000D02*
X163775000Y-74050000D01*
X159275000Y-78550000D02*
X160275000Y-78550000D01*
X160275000Y-78550000D02*
X160275000Y-79550000D01*
X160275000Y-79550000D02*
X159275000Y-79550000D01*
X159275000Y-79550000D02*
X159275000Y-78550000D01*
X160775000Y-78550000D02*
X161775000Y-78550000D01*
X161775000Y-78550000D02*
X161775000Y-79550000D01*
X161775000Y-79550000D02*
X160775000Y-79550000D01*
X160775000Y-79550000D02*
X160775000Y-78550000D01*
X165275000Y-80050000D02*
X166275000Y-80050000D01*
X166275000Y-80050000D02*
X166275000Y-81050000D01*
X166275000Y-81050000D02*
X165275000Y-81050000D01*
X165275000Y-81050000D02*
X165275000Y-80050000D01*
X163775000Y-77050000D02*
X164775000Y-77050000D01*
X164775000Y-77050000D02*
X164775000Y-78050000D01*
X164775000Y-78050000D02*
X163775000Y-78050000D01*
X163775000Y-78050000D02*
X163775000Y-77050000D01*
X157775000Y-72550000D02*
X158775000Y-72550000D01*
X158775000Y-72550000D02*
X158775000Y-73550000D01*
X158775000Y-73550000D02*
X157775000Y-73550000D01*
X157775000Y-73550000D02*
X157775000Y-72550000D01*
X162275000Y-77050000D02*
X163275000Y-77050000D01*
X163275000Y-77050000D02*
X163275000Y-78050000D01*
X163275000Y-78050000D02*
X162275000Y-78050000D01*
X162275000Y-78050000D02*
X162275000Y-77050000D01*
X163775000Y-80050000D02*
X164775000Y-80050000D01*
X164775000Y-80050000D02*
X164775000Y-81050000D01*
X164775000Y-81050000D02*
X163775000Y-81050000D01*
X163775000Y-81050000D02*
X163775000Y-80050000D01*
X160775000Y-75550000D02*
X161775000Y-75550000D01*
X161775000Y-75550000D02*
X161775000Y-76550000D01*
X161775000Y-76550000D02*
X160775000Y-76550000D01*
X160775000Y-76550000D02*
X160775000Y-75550000D01*
X156275000Y-80050000D02*
X157275000Y-80050000D01*
X157275000Y-80050000D02*
X157275000Y-81050000D01*
X157275000Y-81050000D02*
X156275000Y-81050000D01*
X156275000Y-81050000D02*
X156275000Y-80050000D01*
X165275000Y-74050000D02*
X166275000Y-74050000D01*
X166275000Y-74050000D02*
X166275000Y-75050000D01*
X166275000Y-75050000D02*
X165275000Y-75050000D01*
X165275000Y-75050000D02*
X165275000Y-74050000D01*
X160775000Y-72550000D02*
X161775000Y-72550000D01*
X161775000Y-72550000D02*
X161775000Y-73550000D01*
X161775000Y-73550000D02*
X160775000Y-73550000D01*
X160775000Y-73550000D02*
X160775000Y-72550000D01*
D14*
X129890000Y-78161252D02*
X129890000Y-77638748D01*
X131310000Y-78161252D02*
X131310000Y-77638748D01*
X138290000Y-93013748D02*
X138290000Y-93536252D01*
X139710000Y-93013748D02*
X139710000Y-93536252D01*
X151010000Y-92953733D02*
X151010000Y-93296267D01*
X149990000Y-92953733D02*
X149990000Y-93296267D01*
X145790000Y-93536252D02*
X145790000Y-93013748D01*
X147210000Y-93536252D02*
X147210000Y-93013748D01*
D16*
X144700000Y-79350000D02*
X144700000Y-81350000D01*
X143100000Y-81350000D02*
X143100000Y-79350000D01*
D14*
X130490000Y-93203733D02*
X130490000Y-93546267D01*
X131510000Y-93203733D02*
X131510000Y-93546267D01*
X133510000Y-93203733D02*
X133510000Y-93546267D01*
X132490000Y-93203733D02*
X132490000Y-93546267D01*
X135510000Y-93203733D02*
X135510000Y-93546267D01*
X134490000Y-93203733D02*
X134490000Y-93546267D01*
X140790000Y-93536252D02*
X140790000Y-93013748D01*
X142210000Y-93536252D02*
X142210000Y-93013748D01*
X140010000Y-75971267D02*
X140010000Y-75628733D01*
X138990000Y-75971267D02*
X138990000Y-75628733D01*
X126590000Y-79480000D02*
X126590000Y-78550000D01*
X126590000Y-76320000D02*
X128050000Y-76320000D01*
X126590000Y-79480000D02*
X128750000Y-79480000D01*
X126590000Y-76320000D02*
X126590000Y-77250000D01*
D12*
X117750000Y-83400000D02*
X117750000Y-82200000D01*
X122750000Y-93500000D02*
X122750000Y-81500000D01*
X122750000Y-81500000D02*
X120850000Y-81500000D01*
X120850000Y-93500000D02*
X122750000Y-93500000D01*
X117750000Y-92800000D02*
X117750000Y-91600000D01*
X117350000Y-91800000D02*
G75*
G03*
X117350000Y-91800000I-100000J0D01*
G01*
D14*
X130010000Y-100546267D02*
X130010000Y-100203733D01*
X128990000Y-100546267D02*
X128990000Y-100203733D01*
X138790000Y-79450000D02*
X138790000Y-82400000D01*
X136528733Y-76190000D02*
X136871267Y-76190000D01*
X136528733Y-77210000D02*
X136871267Y-77210000D01*
X136540000Y-81011252D02*
X136540000Y-80488748D01*
X137960000Y-81011252D02*
X137960000Y-80488748D01*
X137090000Y-73728733D02*
X137090000Y-74071267D01*
X138110000Y-73728733D02*
X138110000Y-74071267D01*
X135090000Y-74161252D02*
X135090000Y-73638748D01*
X136510000Y-74161252D02*
X136510000Y-73638748D01*
X149260000Y-92953733D02*
X149260000Y-93296267D01*
X148240000Y-92953733D02*
X148240000Y-93296267D01*
X137510000Y-93203733D02*
X137510000Y-93546267D01*
X136490000Y-93203733D02*
X136490000Y-93546267D01*
X128000000Y-101500000D02*
G75*
G03*
X128000000Y-102500000I0J-500000D01*
G01*
X143290000Y-93536252D02*
X143290000Y-93013748D01*
X144710000Y-93536252D02*
X144710000Y-93013748D01*
%LPC*%
D17*
X141920000Y-87140000D03*
X119825000Y-73375000D03*
X124550000Y-73400000D03*
D18*
X156775000Y-73050000D03*
X162775000Y-73050000D03*
X164275000Y-73050000D03*
X165775000Y-73050000D03*
X156775000Y-74550000D03*
X158275000Y-74550000D03*
X159775000Y-74550000D03*
X161275000Y-74550000D03*
X162775000Y-74550000D03*
X156775000Y-76050000D03*
X158275000Y-76050000D03*
X162775000Y-76050000D03*
X164275000Y-76050000D03*
X165775000Y-76050000D03*
X156775000Y-77550000D03*
X158275000Y-77550000D03*
X159775000Y-77550000D03*
X161275000Y-77550000D03*
X165775000Y-77550000D03*
X156775000Y-79050000D03*
X158275000Y-79050000D03*
X162775000Y-79050000D03*
X164275000Y-79050000D03*
X165775000Y-79050000D03*
X158275000Y-80550000D03*
X159775000Y-80550000D03*
X161275000Y-80550000D03*
D19*
X130600000Y-78925000D03*
X130600000Y-76875000D03*
D20*
X139000000Y-92250000D03*
X139000000Y-94300000D03*
D21*
X150500000Y-92250000D03*
X150500000Y-94000000D03*
D19*
X146500000Y-94300000D03*
X146500000Y-92250000D03*
D22*
X143900000Y-79350000D03*
D23*
X143900000Y-81375000D03*
D21*
X131000000Y-92500000D03*
X131000000Y-94250000D03*
X133000000Y-92500000D03*
X133000000Y-94250000D03*
X135000000Y-92500000D03*
X135000000Y-94250000D03*
D19*
X141500000Y-94300000D03*
X141500000Y-92250000D03*
D24*
X139500000Y-76675000D03*
X139500000Y-74925000D03*
D25*
X128350000Y-78850000D03*
X128350000Y-76950000D03*
X126350000Y-77900000D03*
D26*
X116800000Y-91000000D03*
X116800000Y-90000000D03*
X116800000Y-89000000D03*
X116800000Y-88000000D03*
X116800000Y-87000000D03*
X116800000Y-86000000D03*
X116800000Y-85000000D03*
X116800000Y-84000000D03*
D27*
X119150000Y-94150000D03*
X119150000Y-80850000D03*
D24*
X129500000Y-101250000D03*
X129500000Y-99500000D03*
D28*
X139450000Y-81700000D03*
X140400000Y-81700000D03*
X141350000Y-81700000D03*
X141350000Y-79000000D03*
X140400000Y-79000000D03*
X139450000Y-79000000D03*
D29*
X135825000Y-76700000D03*
X137575000Y-76700000D03*
D19*
X137250000Y-81775000D03*
X137250000Y-79725000D03*
D21*
X137600000Y-73025000D03*
X137600000Y-74775000D03*
D19*
X135800000Y-74925000D03*
X135800000Y-72875000D03*
D30*
X148650000Y-99450000D03*
X148000000Y-99450000D03*
X147350000Y-99450000D03*
X146700000Y-99450000D03*
X146050000Y-99450000D03*
X145400000Y-99450000D03*
X144750000Y-99450000D03*
X144100000Y-99450000D03*
X143450000Y-99450000D03*
X142800000Y-99450000D03*
X142150000Y-99450000D03*
X141500000Y-99450000D03*
X140850000Y-99450000D03*
X140200000Y-99450000D03*
X139550000Y-99450000D03*
X138900000Y-99450000D03*
X138250000Y-99450000D03*
X137600000Y-99450000D03*
X136950000Y-99450000D03*
X136300000Y-99450000D03*
X135650000Y-99450000D03*
X135000000Y-99450000D03*
X134350000Y-99450000D03*
X133700000Y-99450000D03*
X133050000Y-99450000D03*
D21*
X148750000Y-92250000D03*
X148750000Y-94000000D03*
X137000000Y-92500000D03*
X137000000Y-94250000D03*
D31*
X127405000Y-99463400D03*
X126135000Y-99450000D03*
X124865000Y-99450000D03*
X123595000Y-99450000D03*
X123595000Y-104550000D03*
X124865000Y-104550000D03*
X126135000Y-104550000D03*
X127405000Y-104550000D03*
D32*
X121570000Y-65050000D03*
X140870000Y-117350000D03*
X160360000Y-65040000D03*
D19*
X144000000Y-94300000D03*
X144000000Y-92250000D03*
M02*
