G04 #@! TF.GenerationSoftware,KiCad,Pcbnew,(5.1.5)-3*
G04 #@! TF.CreationDate,2021-12-13T18:27:46+01:00*
G04 #@! TF.ProjectId,LidPCB,4c696450-4342-42e6-9b69-6361645f7063,rev?*
G04 #@! TF.SameCoordinates,Original*
G04 #@! TF.FileFunction,Legend,Top*
G04 #@! TF.FilePolarity,Positive*
%FSLAX46Y46*%
G04 Gerber Fmt 4.6, Leading zero omitted, Abs format (unit mm)*
G04 Created by KiCad (PCBNEW (5.1.5)-3) date 2021-12-13 18:27:46*
%MOMM*%
%LPD*%
G04 APERTURE LIST*
%ADD10C,0.120000*%
%ADD11C,1.000000*%
%ADD12C,0.200000*%
%ADD13C,0.127000*%
%ADD14C,0.150000*%
%ADD15C,0.096520*%
%ADD16C,0.300000*%
%ADD17C,2.200000*%
%ADD18R,2.103200X0.803200*%
%ADD19R,3.003200X2.303200*%
%ADD20C,0.100000*%
%ADD21R,0.558800X1.981200*%
%ADD22R,0.350000X2.500000*%
%ADD23R,0.650000X1.560000*%
%ADD24R,0.900000X0.800000*%
%ADD25R,1.000000X0.900000*%
G04 APERTURE END LIST*
D10*
X138600000Y-82900000D02*
X142200000Y-82900000D01*
D11*
X149750000Y-97000000D02*
G75*
G03X149750000Y-97000000I-100000J0D01*
G01*
X132250000Y-97000000D02*
G75*
G03X132250000Y-97000000I-100000J0D01*
G01*
D10*
X132702268Y-97000000D02*
G75*
G03X132702268Y-97000000I-552268J0D01*
G01*
X150202268Y-97000000D02*
G75*
G03X150202268Y-97000000I-552268J0D01*
G01*
D12*
X121900000Y-83200000D02*
G75*
G03X121900000Y-83200000I-100000J0D01*
G01*
X121300000Y-91600000D02*
X121300000Y-92800000D01*
X121300000Y-82200000D02*
X121300000Y-83400000D01*
X116300000Y-93500000D02*
X118200000Y-93500000D01*
X116300000Y-81500000D02*
X116300000Y-93500000D01*
X118200000Y-81500000D02*
X116300000Y-81500000D01*
D10*
X136510000Y-74161252D02*
X136510000Y-73638748D01*
X135090000Y-74161252D02*
X135090000Y-73638748D01*
X128000000Y-102500000D02*
G75*
G02X128000000Y-101500000I0J500000D01*
G01*
X142210000Y-93536252D02*
X142210000Y-93013748D01*
X140790000Y-93536252D02*
X140790000Y-93013748D01*
X130010000Y-100546267D02*
X130010000Y-100203733D01*
X128990000Y-100546267D02*
X128990000Y-100203733D01*
X138790000Y-79450000D02*
X138790000Y-82400000D01*
X142010000Y-81250000D02*
X142010000Y-79450000D01*
X126590000Y-76320000D02*
X128050000Y-76320000D01*
X126590000Y-79480000D02*
X128750000Y-79480000D01*
X126590000Y-79480000D02*
X126590000Y-78550000D01*
X126590000Y-76320000D02*
X126590000Y-77250000D01*
X140010000Y-75971267D02*
X140010000Y-75628733D01*
X138990000Y-75971267D02*
X138990000Y-75628733D01*
X136528733Y-77210000D02*
X136871267Y-77210000D01*
X136528733Y-76190000D02*
X136871267Y-76190000D01*
X134490000Y-93203733D02*
X134490000Y-93546267D01*
X135510000Y-93203733D02*
X135510000Y-93546267D01*
X132490000Y-93203733D02*
X132490000Y-93546267D01*
X133510000Y-93203733D02*
X133510000Y-93546267D01*
X130490000Y-93203733D02*
X130490000Y-93546267D01*
X131510000Y-93203733D02*
X131510000Y-93546267D01*
X136490000Y-93203733D02*
X136490000Y-93546267D01*
X137510000Y-93203733D02*
X137510000Y-93546267D01*
D13*
X144700000Y-79350000D02*
X144700000Y-81350000D01*
X143100000Y-81350000D02*
X143100000Y-79350000D01*
D10*
X137090000Y-73728733D02*
X137090000Y-74071267D01*
X138110000Y-73728733D02*
X138110000Y-74071267D01*
X147210000Y-93536252D02*
X147210000Y-93013748D01*
X145790000Y-93536252D02*
X145790000Y-93013748D01*
X144710000Y-93536252D02*
X144710000Y-93013748D01*
X143290000Y-93536252D02*
X143290000Y-93013748D01*
X137960000Y-81011252D02*
X137960000Y-80488748D01*
X136540000Y-81011252D02*
X136540000Y-80488748D01*
X148240000Y-92953733D02*
X148240000Y-93296267D01*
X149260000Y-92953733D02*
X149260000Y-93296267D01*
X149990000Y-92953733D02*
X149990000Y-93296267D01*
X151010000Y-92953733D02*
X151010000Y-93296267D01*
X138290000Y-93013748D02*
X138290000Y-93536252D01*
X139710000Y-93013748D02*
X139710000Y-93536252D01*
X131310000Y-78161252D02*
X131310000Y-77638748D01*
X129890000Y-78161252D02*
X129890000Y-77638748D01*
D14*
X139536666Y-114602380D02*
X139203333Y-114126190D01*
X138965238Y-114602380D02*
X138965238Y-113602380D01*
X139346190Y-113602380D01*
X139441428Y-113650000D01*
X139489047Y-113697619D01*
X139536666Y-113792857D01*
X139536666Y-113935714D01*
X139489047Y-114030952D01*
X139441428Y-114078571D01*
X139346190Y-114126190D01*
X138965238Y-114126190D01*
X139965238Y-114078571D02*
X140298571Y-114078571D01*
X140441428Y-114602380D02*
X139965238Y-114602380D01*
X139965238Y-113602380D01*
X140441428Y-113602380D01*
X141203333Y-114078571D02*
X140870000Y-114078571D01*
X140870000Y-114602380D02*
X140870000Y-113602380D01*
X141346190Y-113602380D01*
X141870000Y-113602380D02*
X141870000Y-113840476D01*
X141631904Y-113745238D02*
X141870000Y-113840476D01*
X142108095Y-113745238D01*
X141727142Y-114030952D02*
X141870000Y-113840476D01*
X142012857Y-114030952D01*
X142631904Y-113602380D02*
X142631904Y-113840476D01*
X142393809Y-113745238D02*
X142631904Y-113840476D01*
X142870000Y-113745238D01*
X142489047Y-114030952D02*
X142631904Y-113840476D01*
X142774761Y-114030952D01*
X120236666Y-62302380D02*
X119903333Y-61826190D01*
X119665238Y-62302380D02*
X119665238Y-61302380D01*
X120046190Y-61302380D01*
X120141428Y-61350000D01*
X120189047Y-61397619D01*
X120236666Y-61492857D01*
X120236666Y-61635714D01*
X120189047Y-61730952D01*
X120141428Y-61778571D01*
X120046190Y-61826190D01*
X119665238Y-61826190D01*
X120665238Y-61778571D02*
X120998571Y-61778571D01*
X121141428Y-62302380D02*
X120665238Y-62302380D01*
X120665238Y-61302380D01*
X121141428Y-61302380D01*
X121903333Y-61778571D02*
X121570000Y-61778571D01*
X121570000Y-62302380D02*
X121570000Y-61302380D01*
X122046190Y-61302380D01*
X122570000Y-61302380D02*
X122570000Y-61540476D01*
X122331904Y-61445238D02*
X122570000Y-61540476D01*
X122808095Y-61445238D01*
X122427142Y-61730952D02*
X122570000Y-61540476D01*
X122712857Y-61730952D01*
X123331904Y-61302380D02*
X123331904Y-61540476D01*
X123093809Y-61445238D02*
X123331904Y-61540476D01*
X123570000Y-61445238D01*
X123189047Y-61730952D02*
X123331904Y-61540476D01*
X123474761Y-61730952D01*
X159026666Y-62292380D02*
X158693333Y-61816190D01*
X158455238Y-62292380D02*
X158455238Y-61292380D01*
X158836190Y-61292380D01*
X158931428Y-61340000D01*
X158979047Y-61387619D01*
X159026666Y-61482857D01*
X159026666Y-61625714D01*
X158979047Y-61720952D01*
X158931428Y-61768571D01*
X158836190Y-61816190D01*
X158455238Y-61816190D01*
X159455238Y-61768571D02*
X159788571Y-61768571D01*
X159931428Y-62292380D02*
X159455238Y-62292380D01*
X159455238Y-61292380D01*
X159931428Y-61292380D01*
X160693333Y-61768571D02*
X160360000Y-61768571D01*
X160360000Y-62292380D02*
X160360000Y-61292380D01*
X160836190Y-61292380D01*
X161360000Y-61292380D02*
X161360000Y-61530476D01*
X161121904Y-61435238D02*
X161360000Y-61530476D01*
X161598095Y-61435238D01*
X161217142Y-61720952D02*
X161360000Y-61530476D01*
X161502857Y-61720952D01*
X162121904Y-61292380D02*
X162121904Y-61530476D01*
X161883809Y-61435238D02*
X162121904Y-61530476D01*
X162360000Y-61435238D01*
X161979047Y-61720952D02*
X162121904Y-61530476D01*
X162264761Y-61720952D01*
D15*
X119736047Y-80099047D02*
X120597833Y-80099047D01*
X120770190Y-80156499D01*
X120885095Y-80271404D01*
X120942547Y-80443761D01*
X120942547Y-80558666D01*
X120942547Y-78892547D02*
X120942547Y-79581976D01*
X120942547Y-79237261D02*
X119736047Y-79237261D01*
X119908404Y-79352166D01*
X120023309Y-79467071D01*
X120080761Y-79581976D01*
D14*
X134602380Y-74066666D02*
X134126190Y-74400000D01*
X134602380Y-74638095D02*
X133602380Y-74638095D01*
X133602380Y-74257142D01*
X133650000Y-74161904D01*
X133697619Y-74114285D01*
X133792857Y-74066666D01*
X133935714Y-74066666D01*
X134030952Y-74114285D01*
X134078571Y-74161904D01*
X134126190Y-74257142D01*
X134126190Y-74638095D01*
X134030952Y-73495238D02*
X133983333Y-73590476D01*
X133935714Y-73638095D01*
X133840476Y-73685714D01*
X133792857Y-73685714D01*
X133697619Y-73638095D01*
X133650000Y-73590476D01*
X133602380Y-73495238D01*
X133602380Y-73304761D01*
X133650000Y-73209523D01*
X133697619Y-73161904D01*
X133792857Y-73114285D01*
X133840476Y-73114285D01*
X133935714Y-73161904D01*
X133983333Y-73209523D01*
X134030952Y-73304761D01*
X134030952Y-73495238D01*
X134078571Y-73590476D01*
X134126190Y-73638095D01*
X134221428Y-73685714D01*
X134411904Y-73685714D01*
X134507142Y-73638095D01*
X134554761Y-73590476D01*
X134602380Y-73495238D01*
X134602380Y-73304761D01*
X134554761Y-73209523D01*
X134507142Y-73161904D01*
X134411904Y-73114285D01*
X134221428Y-73114285D01*
X134126190Y-73161904D01*
X134078571Y-73209523D01*
X134030952Y-73304761D01*
X124952380Y-102761904D02*
X125761904Y-102761904D01*
X125857142Y-102714285D01*
X125904761Y-102666666D01*
X125952380Y-102571428D01*
X125952380Y-102380952D01*
X125904761Y-102285714D01*
X125857142Y-102238095D01*
X125761904Y-102190476D01*
X124952380Y-102190476D01*
X125285714Y-101285714D02*
X125952380Y-101285714D01*
X124904761Y-101523809D02*
X125619047Y-101761904D01*
X125619047Y-101142857D01*
X141333333Y-90977380D02*
X141000000Y-90501190D01*
X140761904Y-90977380D02*
X140761904Y-89977380D01*
X141142857Y-89977380D01*
X141238095Y-90025000D01*
X141285714Y-90072619D01*
X141333333Y-90167857D01*
X141333333Y-90310714D01*
X141285714Y-90405952D01*
X141238095Y-90453571D01*
X141142857Y-90501190D01*
X140761904Y-90501190D01*
X142238095Y-89977380D02*
X141761904Y-89977380D01*
X141714285Y-90453571D01*
X141761904Y-90405952D01*
X141857142Y-90358333D01*
X142095238Y-90358333D01*
X142190476Y-90405952D01*
X142238095Y-90453571D01*
X142285714Y-90548809D01*
X142285714Y-90786904D01*
X142238095Y-90882142D01*
X142190476Y-90929761D01*
X142095238Y-90977380D01*
X141857142Y-90977380D01*
X141761904Y-90929761D01*
X141714285Y-90882142D01*
D16*
X131190476Y-73309523D02*
X131190476Y-69309523D01*
X132142857Y-69309523D01*
X132714285Y-69500000D01*
X133095238Y-69880952D01*
X133285714Y-70261904D01*
X133476190Y-71023809D01*
X133476190Y-71595238D01*
X133285714Y-72357142D01*
X133095238Y-72738095D01*
X132714285Y-73119047D01*
X132142857Y-73309523D01*
X131190476Y-73309523D01*
X135190476Y-73309523D02*
X135190476Y-70642857D01*
X135190476Y-69309523D02*
X135000000Y-69500000D01*
X135190476Y-69690476D01*
X135380952Y-69500000D01*
X135190476Y-69309523D01*
X135190476Y-69690476D01*
X136904761Y-73119047D02*
X137285714Y-73309523D01*
X138047619Y-73309523D01*
X138428571Y-73119047D01*
X138619047Y-72738095D01*
X138619047Y-72547619D01*
X138428571Y-72166666D01*
X138047619Y-71976190D01*
X137476190Y-71976190D01*
X137095238Y-71785714D01*
X136904761Y-71404761D01*
X136904761Y-71214285D01*
X137095238Y-70833333D01*
X137476190Y-70642857D01*
X138047619Y-70642857D01*
X138428571Y-70833333D01*
X140333333Y-70642857D02*
X140333333Y-74642857D01*
X140333333Y-70833333D02*
X140714285Y-70642857D01*
X141476190Y-70642857D01*
X141857142Y-70833333D01*
X142047619Y-71023809D01*
X142238095Y-71404761D01*
X142238095Y-72547619D01*
X142047619Y-72928571D01*
X141857142Y-73119047D01*
X141476190Y-73309523D01*
X140714285Y-73309523D01*
X140333333Y-73119047D01*
X144523809Y-73309523D02*
X144142857Y-73119047D01*
X143952380Y-72738095D01*
X143952380Y-69309523D01*
X147761904Y-73309523D02*
X147761904Y-71214285D01*
X147571428Y-70833333D01*
X147190476Y-70642857D01*
X146428571Y-70642857D01*
X146047619Y-70833333D01*
X147761904Y-73119047D02*
X147380952Y-73309523D01*
X146428571Y-73309523D01*
X146047619Y-73119047D01*
X145857142Y-72738095D01*
X145857142Y-72357142D01*
X146047619Y-71976190D01*
X146428571Y-71785714D01*
X147380952Y-71785714D01*
X147761904Y-71595238D01*
X149285714Y-70642857D02*
X150238095Y-73309523D01*
X151190476Y-70642857D02*
X150238095Y-73309523D01*
X149857142Y-74261904D01*
X149666666Y-74452380D01*
X149285714Y-74642857D01*
D14*
X131083333Y-100952380D02*
X130750000Y-100476190D01*
X130511904Y-100952380D02*
X130511904Y-99952380D01*
X130892857Y-99952380D01*
X130988095Y-100000000D01*
X131035714Y-100047619D01*
X131083333Y-100142857D01*
X131083333Y-100285714D01*
X131035714Y-100380952D01*
X130988095Y-100428571D01*
X130892857Y-100476190D01*
X130511904Y-100476190D01*
X131559523Y-100952380D02*
X131750000Y-100952380D01*
X131845238Y-100904761D01*
X131892857Y-100857142D01*
X131988095Y-100714285D01*
X132035714Y-100523809D01*
X132035714Y-100142857D01*
X131988095Y-100047619D01*
X131940476Y-100000000D01*
X131845238Y-99952380D01*
X131654761Y-99952380D01*
X131559523Y-100000000D01*
X131511904Y-100047619D01*
X131464285Y-100142857D01*
X131464285Y-100380952D01*
X131511904Y-100476190D01*
X131559523Y-100523809D01*
X131654761Y-100571428D01*
X131845238Y-100571428D01*
X131940476Y-100523809D01*
X131988095Y-100476190D01*
X132035714Y-100380952D01*
X142452380Y-88011904D02*
X143261904Y-88011904D01*
X143357142Y-87964285D01*
X143404761Y-87916666D01*
X143452380Y-87821428D01*
X143452380Y-87630952D01*
X143404761Y-87535714D01*
X143357142Y-87488095D01*
X143261904Y-87440476D01*
X142452380Y-87440476D01*
X142547619Y-87011904D02*
X142500000Y-86964285D01*
X142452380Y-86869047D01*
X142452380Y-86630952D01*
X142500000Y-86535714D01*
X142547619Y-86488095D01*
X142642857Y-86440476D01*
X142738095Y-86440476D01*
X142880952Y-86488095D01*
X143452380Y-87059523D01*
X143452380Y-86440476D01*
X126588095Y-79852380D02*
X126588095Y-80661904D01*
X126635714Y-80757142D01*
X126683333Y-80804761D01*
X126778571Y-80852380D01*
X126969047Y-80852380D01*
X127064285Y-80804761D01*
X127111904Y-80757142D01*
X127159523Y-80661904D01*
X127159523Y-79852380D01*
X128159523Y-80852380D02*
X127588095Y-80852380D01*
X127873809Y-80852380D02*
X127873809Y-79852380D01*
X127778571Y-79995238D01*
X127683333Y-80090476D01*
X127588095Y-80138095D01*
X141333333Y-75852380D02*
X141000000Y-75376190D01*
X140761904Y-75852380D02*
X140761904Y-74852380D01*
X141142857Y-74852380D01*
X141238095Y-74900000D01*
X141285714Y-74947619D01*
X141333333Y-75042857D01*
X141333333Y-75185714D01*
X141285714Y-75280952D01*
X141238095Y-75328571D01*
X141142857Y-75376190D01*
X140761904Y-75376190D01*
X141666666Y-74852380D02*
X142333333Y-74852380D01*
X141904761Y-75852380D01*
X133733333Y-77252380D02*
X133400000Y-76776190D01*
X133161904Y-77252380D02*
X133161904Y-76252380D01*
X133542857Y-76252380D01*
X133638095Y-76300000D01*
X133685714Y-76347619D01*
X133733333Y-76442857D01*
X133733333Y-76585714D01*
X133685714Y-76680952D01*
X133638095Y-76728571D01*
X133542857Y-76776190D01*
X133161904Y-76776190D01*
X134590476Y-76252380D02*
X134400000Y-76252380D01*
X134304761Y-76300000D01*
X134257142Y-76347619D01*
X134161904Y-76490476D01*
X134114285Y-76680952D01*
X134114285Y-77061904D01*
X134161904Y-77157142D01*
X134209523Y-77204761D01*
X134304761Y-77252380D01*
X134495238Y-77252380D01*
X134590476Y-77204761D01*
X134638095Y-77157142D01*
X134685714Y-77061904D01*
X134685714Y-76823809D01*
X134638095Y-76728571D01*
X134590476Y-76680952D01*
X134495238Y-76633333D01*
X134304761Y-76633333D01*
X134209523Y-76680952D01*
X134161904Y-76728571D01*
X134114285Y-76823809D01*
X135083333Y-91327380D02*
X134750000Y-90851190D01*
X134511904Y-91327380D02*
X134511904Y-90327380D01*
X134892857Y-90327380D01*
X134988095Y-90375000D01*
X135035714Y-90422619D01*
X135083333Y-90517857D01*
X135083333Y-90660714D01*
X135035714Y-90755952D01*
X134988095Y-90803571D01*
X134892857Y-90851190D01*
X134511904Y-90851190D01*
X135940476Y-90660714D02*
X135940476Y-91327380D01*
X135702380Y-90279761D02*
X135464285Y-90994047D01*
X136083333Y-90994047D01*
X132833333Y-91327380D02*
X132500000Y-90851190D01*
X132261904Y-91327380D02*
X132261904Y-90327380D01*
X132642857Y-90327380D01*
X132738095Y-90375000D01*
X132785714Y-90422619D01*
X132833333Y-90517857D01*
X132833333Y-90660714D01*
X132785714Y-90755952D01*
X132738095Y-90803571D01*
X132642857Y-90851190D01*
X132261904Y-90851190D01*
X133166666Y-90327380D02*
X133785714Y-90327380D01*
X133452380Y-90708333D01*
X133595238Y-90708333D01*
X133690476Y-90755952D01*
X133738095Y-90803571D01*
X133785714Y-90898809D01*
X133785714Y-91136904D01*
X133738095Y-91232142D01*
X133690476Y-91279761D01*
X133595238Y-91327380D01*
X133309523Y-91327380D01*
X133214285Y-91279761D01*
X133166666Y-91232142D01*
X130833333Y-91327380D02*
X130500000Y-90851190D01*
X130261904Y-91327380D02*
X130261904Y-90327380D01*
X130642857Y-90327380D01*
X130738095Y-90375000D01*
X130785714Y-90422619D01*
X130833333Y-90517857D01*
X130833333Y-90660714D01*
X130785714Y-90755952D01*
X130738095Y-90803571D01*
X130642857Y-90851190D01*
X130261904Y-90851190D01*
X131214285Y-90422619D02*
X131261904Y-90375000D01*
X131357142Y-90327380D01*
X131595238Y-90327380D01*
X131690476Y-90375000D01*
X131738095Y-90422619D01*
X131785714Y-90517857D01*
X131785714Y-90613095D01*
X131738095Y-90755952D01*
X131166666Y-91327380D01*
X131785714Y-91327380D01*
X136833333Y-91327380D02*
X136500000Y-90851190D01*
X136261904Y-91327380D02*
X136261904Y-90327380D01*
X136642857Y-90327380D01*
X136738095Y-90375000D01*
X136785714Y-90422619D01*
X136833333Y-90517857D01*
X136833333Y-90660714D01*
X136785714Y-90755952D01*
X136738095Y-90803571D01*
X136642857Y-90851190D01*
X136261904Y-90851190D01*
X137785714Y-91327380D02*
X137214285Y-91327380D01*
X137500000Y-91327380D02*
X137500000Y-90327380D01*
X137404761Y-90470238D01*
X137309523Y-90565476D01*
X137214285Y-90613095D01*
X146697380Y-80571666D02*
X146697380Y-81047857D01*
X145697380Y-81047857D01*
X146697380Y-79714523D02*
X146697380Y-80285952D01*
X146697380Y-80000238D02*
X145697380Y-80000238D01*
X145840238Y-80095476D01*
X145935476Y-80190714D01*
X145983095Y-80285952D01*
X137533333Y-71557142D02*
X137485714Y-71604761D01*
X137342857Y-71652380D01*
X137247619Y-71652380D01*
X137104761Y-71604761D01*
X137009523Y-71509523D01*
X136961904Y-71414285D01*
X136914285Y-71223809D01*
X136914285Y-71080952D01*
X136961904Y-70890476D01*
X137009523Y-70795238D01*
X137104761Y-70700000D01*
X137247619Y-70652380D01*
X137342857Y-70652380D01*
X137485714Y-70700000D01*
X137533333Y-70747619D01*
X138104761Y-71080952D02*
X138009523Y-71033333D01*
X137961904Y-70985714D01*
X137914285Y-70890476D01*
X137914285Y-70842857D01*
X137961904Y-70747619D01*
X138009523Y-70700000D01*
X138104761Y-70652380D01*
X138295238Y-70652380D01*
X138390476Y-70700000D01*
X138438095Y-70747619D01*
X138485714Y-70842857D01*
X138485714Y-70890476D01*
X138438095Y-70985714D01*
X138390476Y-71033333D01*
X138295238Y-71080952D01*
X138104761Y-71080952D01*
X138009523Y-71128571D01*
X137961904Y-71176190D01*
X137914285Y-71271428D01*
X137914285Y-71461904D01*
X137961904Y-71557142D01*
X138009523Y-71604761D01*
X138104761Y-71652380D01*
X138295238Y-71652380D01*
X138390476Y-71604761D01*
X138438095Y-71557142D01*
X138485714Y-71461904D01*
X138485714Y-71271428D01*
X138438095Y-71176190D01*
X138390476Y-71128571D01*
X138295238Y-71080952D01*
X146333333Y-90882142D02*
X146285714Y-90929761D01*
X146142857Y-90977380D01*
X146047619Y-90977380D01*
X145904761Y-90929761D01*
X145809523Y-90834523D01*
X145761904Y-90739285D01*
X145714285Y-90548809D01*
X145714285Y-90405952D01*
X145761904Y-90215476D01*
X145809523Y-90120238D01*
X145904761Y-90025000D01*
X146047619Y-89977380D01*
X146142857Y-89977380D01*
X146285714Y-90025000D01*
X146333333Y-90072619D01*
X146666666Y-89977380D02*
X147333333Y-89977380D01*
X146904761Y-90977380D01*
X143833333Y-90857142D02*
X143785714Y-90904761D01*
X143642857Y-90952380D01*
X143547619Y-90952380D01*
X143404761Y-90904761D01*
X143309523Y-90809523D01*
X143261904Y-90714285D01*
X143214285Y-90523809D01*
X143214285Y-90380952D01*
X143261904Y-90190476D01*
X143309523Y-90095238D01*
X143404761Y-90000000D01*
X143547619Y-89952380D01*
X143642857Y-89952380D01*
X143785714Y-90000000D01*
X143833333Y-90047619D01*
X144690476Y-89952380D02*
X144500000Y-89952380D01*
X144404761Y-90000000D01*
X144357142Y-90047619D01*
X144261904Y-90190476D01*
X144214285Y-90380952D01*
X144214285Y-90761904D01*
X144261904Y-90857142D01*
X144309523Y-90904761D01*
X144404761Y-90952380D01*
X144595238Y-90952380D01*
X144690476Y-90904761D01*
X144738095Y-90857142D01*
X144785714Y-90761904D01*
X144785714Y-90523809D01*
X144738095Y-90428571D01*
X144690476Y-90380952D01*
X144595238Y-90333333D01*
X144404761Y-90333333D01*
X144309523Y-90380952D01*
X144261904Y-90428571D01*
X144214285Y-90523809D01*
X139183333Y-81307142D02*
X139135714Y-81354761D01*
X138992857Y-81402380D01*
X138897619Y-81402380D01*
X138754761Y-81354761D01*
X138659523Y-81259523D01*
X138611904Y-81164285D01*
X138564285Y-80973809D01*
X138564285Y-80830952D01*
X138611904Y-80640476D01*
X138659523Y-80545238D01*
X138754761Y-80450000D01*
X138897619Y-80402380D01*
X138992857Y-80402380D01*
X139135714Y-80450000D01*
X139183333Y-80497619D01*
X140088095Y-80402380D02*
X139611904Y-80402380D01*
X139564285Y-80878571D01*
X139611904Y-80830952D01*
X139707142Y-80783333D01*
X139945238Y-80783333D01*
X140040476Y-80830952D01*
X140088095Y-80878571D01*
X140135714Y-80973809D01*
X140135714Y-81211904D01*
X140088095Y-81307142D01*
X140040476Y-81354761D01*
X139945238Y-81402380D01*
X139707142Y-81402380D01*
X139611904Y-81354761D01*
X139564285Y-81307142D01*
X148583333Y-90982142D02*
X148535714Y-91029761D01*
X148392857Y-91077380D01*
X148297619Y-91077380D01*
X148154761Y-91029761D01*
X148059523Y-90934523D01*
X148011904Y-90839285D01*
X147964285Y-90648809D01*
X147964285Y-90505952D01*
X148011904Y-90315476D01*
X148059523Y-90220238D01*
X148154761Y-90125000D01*
X148297619Y-90077380D01*
X148392857Y-90077380D01*
X148535714Y-90125000D01*
X148583333Y-90172619D01*
X149440476Y-90410714D02*
X149440476Y-91077380D01*
X149202380Y-90029761D02*
X148964285Y-90744047D01*
X149583333Y-90744047D01*
X150333333Y-90857142D02*
X150285714Y-90904761D01*
X150142857Y-90952380D01*
X150047619Y-90952380D01*
X149904761Y-90904761D01*
X149809523Y-90809523D01*
X149761904Y-90714285D01*
X149714285Y-90523809D01*
X149714285Y-90380952D01*
X149761904Y-90190476D01*
X149809523Y-90095238D01*
X149904761Y-90000000D01*
X150047619Y-89952380D01*
X150142857Y-89952380D01*
X150285714Y-90000000D01*
X150333333Y-90047619D01*
X150666666Y-89952380D02*
X151285714Y-89952380D01*
X150952380Y-90333333D01*
X151095238Y-90333333D01*
X151190476Y-90380952D01*
X151238095Y-90428571D01*
X151285714Y-90523809D01*
X151285714Y-90761904D01*
X151238095Y-90857142D01*
X151190476Y-90904761D01*
X151095238Y-90952380D01*
X150809523Y-90952380D01*
X150714285Y-90904761D01*
X150666666Y-90857142D01*
X138833333Y-90882142D02*
X138785714Y-90929761D01*
X138642857Y-90977380D01*
X138547619Y-90977380D01*
X138404761Y-90929761D01*
X138309523Y-90834523D01*
X138261904Y-90739285D01*
X138214285Y-90548809D01*
X138214285Y-90405952D01*
X138261904Y-90215476D01*
X138309523Y-90120238D01*
X138404761Y-90025000D01*
X138547619Y-89977380D01*
X138642857Y-89977380D01*
X138785714Y-90025000D01*
X138833333Y-90072619D01*
X139214285Y-90072619D02*
X139261904Y-90025000D01*
X139357142Y-89977380D01*
X139595238Y-89977380D01*
X139690476Y-90025000D01*
X139738095Y-90072619D01*
X139785714Y-90167857D01*
X139785714Y-90263095D01*
X139738095Y-90405952D01*
X139166666Y-90977380D01*
X139785714Y-90977380D01*
X130433333Y-80757142D02*
X130385714Y-80804761D01*
X130242857Y-80852380D01*
X130147619Y-80852380D01*
X130004761Y-80804761D01*
X129909523Y-80709523D01*
X129861904Y-80614285D01*
X129814285Y-80423809D01*
X129814285Y-80280952D01*
X129861904Y-80090476D01*
X129909523Y-79995238D01*
X130004761Y-79900000D01*
X130147619Y-79852380D01*
X130242857Y-79852380D01*
X130385714Y-79900000D01*
X130433333Y-79947619D01*
X131385714Y-80852380D02*
X130814285Y-80852380D01*
X131100000Y-80852380D02*
X131100000Y-79852380D01*
X131004761Y-79995238D01*
X130909523Y-80090476D01*
X130814285Y-80138095D01*
%LPC*%
D17*
X140870000Y-117350000D03*
X121570000Y-65050000D03*
X160360000Y-65040000D03*
D18*
X122250000Y-91000000D03*
X122250000Y-90000000D03*
X122250000Y-89000000D03*
X122250000Y-88000000D03*
D19*
X119900000Y-94150000D03*
X119900000Y-80850000D03*
D18*
X122250000Y-87000000D03*
X122250000Y-86000000D03*
X122250000Y-85000000D03*
X122250000Y-84000000D03*
D20*
G36*
X136274505Y-72301204D02*
G01*
X136298773Y-72304804D01*
X136322572Y-72310765D01*
X136345671Y-72319030D01*
X136367850Y-72329520D01*
X136388893Y-72342132D01*
X136408599Y-72356747D01*
X136426777Y-72373223D01*
X136443253Y-72391401D01*
X136457868Y-72411107D01*
X136470480Y-72432150D01*
X136480970Y-72454329D01*
X136489235Y-72477428D01*
X136495196Y-72501227D01*
X136498796Y-72525495D01*
X136500000Y-72549999D01*
X136500000Y-73200001D01*
X136498796Y-73224505D01*
X136495196Y-73248773D01*
X136489235Y-73272572D01*
X136480970Y-73295671D01*
X136470480Y-73317850D01*
X136457868Y-73338893D01*
X136443253Y-73358599D01*
X136426777Y-73376777D01*
X136408599Y-73393253D01*
X136388893Y-73407868D01*
X136367850Y-73420480D01*
X136345671Y-73430970D01*
X136322572Y-73439235D01*
X136298773Y-73445196D01*
X136274505Y-73448796D01*
X136250001Y-73450000D01*
X135349999Y-73450000D01*
X135325495Y-73448796D01*
X135301227Y-73445196D01*
X135277428Y-73439235D01*
X135254329Y-73430970D01*
X135232150Y-73420480D01*
X135211107Y-73407868D01*
X135191401Y-73393253D01*
X135173223Y-73376777D01*
X135156747Y-73358599D01*
X135142132Y-73338893D01*
X135129520Y-73317850D01*
X135119030Y-73295671D01*
X135110765Y-73272572D01*
X135104804Y-73248773D01*
X135101204Y-73224505D01*
X135100000Y-73200001D01*
X135100000Y-72549999D01*
X135101204Y-72525495D01*
X135104804Y-72501227D01*
X135110765Y-72477428D01*
X135119030Y-72454329D01*
X135129520Y-72432150D01*
X135142132Y-72411107D01*
X135156747Y-72391401D01*
X135173223Y-72373223D01*
X135191401Y-72356747D01*
X135211107Y-72342132D01*
X135232150Y-72329520D01*
X135254329Y-72319030D01*
X135277428Y-72310765D01*
X135301227Y-72304804D01*
X135325495Y-72301204D01*
X135349999Y-72300000D01*
X136250001Y-72300000D01*
X136274505Y-72301204D01*
G37*
G36*
X136274505Y-74351204D02*
G01*
X136298773Y-74354804D01*
X136322572Y-74360765D01*
X136345671Y-74369030D01*
X136367850Y-74379520D01*
X136388893Y-74392132D01*
X136408599Y-74406747D01*
X136426777Y-74423223D01*
X136443253Y-74441401D01*
X136457868Y-74461107D01*
X136470480Y-74482150D01*
X136480970Y-74504329D01*
X136489235Y-74527428D01*
X136495196Y-74551227D01*
X136498796Y-74575495D01*
X136500000Y-74599999D01*
X136500000Y-75250001D01*
X136498796Y-75274505D01*
X136495196Y-75298773D01*
X136489235Y-75322572D01*
X136480970Y-75345671D01*
X136470480Y-75367850D01*
X136457868Y-75388893D01*
X136443253Y-75408599D01*
X136426777Y-75426777D01*
X136408599Y-75443253D01*
X136388893Y-75457868D01*
X136367850Y-75470480D01*
X136345671Y-75480970D01*
X136322572Y-75489235D01*
X136298773Y-75495196D01*
X136274505Y-75498796D01*
X136250001Y-75500000D01*
X135349999Y-75500000D01*
X135325495Y-75498796D01*
X135301227Y-75495196D01*
X135277428Y-75489235D01*
X135254329Y-75480970D01*
X135232150Y-75470480D01*
X135211107Y-75457868D01*
X135191401Y-75443253D01*
X135173223Y-75426777D01*
X135156747Y-75408599D01*
X135142132Y-75388893D01*
X135129520Y-75367850D01*
X135119030Y-75345671D01*
X135110765Y-75322572D01*
X135104804Y-75298773D01*
X135101204Y-75274505D01*
X135100000Y-75250001D01*
X135100000Y-74599999D01*
X135101204Y-74575495D01*
X135104804Y-74551227D01*
X135110765Y-74527428D01*
X135119030Y-74504329D01*
X135129520Y-74482150D01*
X135142132Y-74461107D01*
X135156747Y-74441401D01*
X135173223Y-74423223D01*
X135191401Y-74406747D01*
X135211107Y-74392132D01*
X135232150Y-74379520D01*
X135254329Y-74369030D01*
X135277428Y-74360765D01*
X135301227Y-74354804D01*
X135325495Y-74351204D01*
X135349999Y-74350000D01*
X136250001Y-74350000D01*
X136274505Y-74351204D01*
G37*
D21*
X127405000Y-104463800D03*
X126135000Y-104463800D03*
X124865000Y-104463800D03*
X123595000Y-104463800D03*
X123595000Y-99536200D03*
X124865000Y-99536200D03*
X126135000Y-99536200D03*
X127405000Y-99536200D03*
D20*
G36*
X141974505Y-91676204D02*
G01*
X141998773Y-91679804D01*
X142022572Y-91685765D01*
X142045671Y-91694030D01*
X142067850Y-91704520D01*
X142088893Y-91717132D01*
X142108599Y-91731747D01*
X142126777Y-91748223D01*
X142143253Y-91766401D01*
X142157868Y-91786107D01*
X142170480Y-91807150D01*
X142180970Y-91829329D01*
X142189235Y-91852428D01*
X142195196Y-91876227D01*
X142198796Y-91900495D01*
X142200000Y-91924999D01*
X142200000Y-92575001D01*
X142198796Y-92599505D01*
X142195196Y-92623773D01*
X142189235Y-92647572D01*
X142180970Y-92670671D01*
X142170480Y-92692850D01*
X142157868Y-92713893D01*
X142143253Y-92733599D01*
X142126777Y-92751777D01*
X142108599Y-92768253D01*
X142088893Y-92782868D01*
X142067850Y-92795480D01*
X142045671Y-92805970D01*
X142022572Y-92814235D01*
X141998773Y-92820196D01*
X141974505Y-92823796D01*
X141950001Y-92825000D01*
X141049999Y-92825000D01*
X141025495Y-92823796D01*
X141001227Y-92820196D01*
X140977428Y-92814235D01*
X140954329Y-92805970D01*
X140932150Y-92795480D01*
X140911107Y-92782868D01*
X140891401Y-92768253D01*
X140873223Y-92751777D01*
X140856747Y-92733599D01*
X140842132Y-92713893D01*
X140829520Y-92692850D01*
X140819030Y-92670671D01*
X140810765Y-92647572D01*
X140804804Y-92623773D01*
X140801204Y-92599505D01*
X140800000Y-92575001D01*
X140800000Y-91924999D01*
X140801204Y-91900495D01*
X140804804Y-91876227D01*
X140810765Y-91852428D01*
X140819030Y-91829329D01*
X140829520Y-91807150D01*
X140842132Y-91786107D01*
X140856747Y-91766401D01*
X140873223Y-91748223D01*
X140891401Y-91731747D01*
X140911107Y-91717132D01*
X140932150Y-91704520D01*
X140954329Y-91694030D01*
X140977428Y-91685765D01*
X141001227Y-91679804D01*
X141025495Y-91676204D01*
X141049999Y-91675000D01*
X141950001Y-91675000D01*
X141974505Y-91676204D01*
G37*
G36*
X141974505Y-93726204D02*
G01*
X141998773Y-93729804D01*
X142022572Y-93735765D01*
X142045671Y-93744030D01*
X142067850Y-93754520D01*
X142088893Y-93767132D01*
X142108599Y-93781747D01*
X142126777Y-93798223D01*
X142143253Y-93816401D01*
X142157868Y-93836107D01*
X142170480Y-93857150D01*
X142180970Y-93879329D01*
X142189235Y-93902428D01*
X142195196Y-93926227D01*
X142198796Y-93950495D01*
X142200000Y-93974999D01*
X142200000Y-94625001D01*
X142198796Y-94649505D01*
X142195196Y-94673773D01*
X142189235Y-94697572D01*
X142180970Y-94720671D01*
X142170480Y-94742850D01*
X142157868Y-94763893D01*
X142143253Y-94783599D01*
X142126777Y-94801777D01*
X142108599Y-94818253D01*
X142088893Y-94832868D01*
X142067850Y-94845480D01*
X142045671Y-94855970D01*
X142022572Y-94864235D01*
X141998773Y-94870196D01*
X141974505Y-94873796D01*
X141950001Y-94875000D01*
X141049999Y-94875000D01*
X141025495Y-94873796D01*
X141001227Y-94870196D01*
X140977428Y-94864235D01*
X140954329Y-94855970D01*
X140932150Y-94845480D01*
X140911107Y-94832868D01*
X140891401Y-94818253D01*
X140873223Y-94801777D01*
X140856747Y-94783599D01*
X140842132Y-94763893D01*
X140829520Y-94742850D01*
X140819030Y-94720671D01*
X140810765Y-94697572D01*
X140804804Y-94673773D01*
X140801204Y-94649505D01*
X140800000Y-94625001D01*
X140800000Y-93974999D01*
X140801204Y-93950495D01*
X140804804Y-93926227D01*
X140810765Y-93902428D01*
X140819030Y-93879329D01*
X140829520Y-93857150D01*
X140842132Y-93836107D01*
X140856747Y-93816401D01*
X140873223Y-93798223D01*
X140891401Y-93781747D01*
X140911107Y-93767132D01*
X140932150Y-93754520D01*
X140954329Y-93744030D01*
X140977428Y-93735765D01*
X141001227Y-93729804D01*
X141025495Y-93726204D01*
X141049999Y-93725000D01*
X141950001Y-93725000D01*
X141974505Y-93726204D01*
G37*
D22*
X133050000Y-99450000D03*
X133700000Y-99450000D03*
X134350000Y-99450000D03*
X135000000Y-99450000D03*
X135650000Y-99450000D03*
X136300000Y-99450000D03*
X136950000Y-99450000D03*
X137600000Y-99450000D03*
X138250000Y-99450000D03*
X138900000Y-99450000D03*
X139550000Y-99450000D03*
X140200000Y-99450000D03*
X140850000Y-99450000D03*
X141500000Y-99450000D03*
X142150000Y-99450000D03*
X142800000Y-99450000D03*
X143450000Y-99450000D03*
X144100000Y-99450000D03*
X144750000Y-99450000D03*
X145400000Y-99450000D03*
X146050000Y-99450000D03*
X146700000Y-99450000D03*
X147350000Y-99450000D03*
X148000000Y-99450000D03*
X148650000Y-99450000D03*
D20*
G36*
X129760779Y-98976144D02*
G01*
X129783834Y-98979563D01*
X129806443Y-98985227D01*
X129828387Y-98993079D01*
X129849457Y-99003044D01*
X129869448Y-99015026D01*
X129888168Y-99028910D01*
X129905438Y-99044562D01*
X129921090Y-99061832D01*
X129934974Y-99080552D01*
X129946956Y-99100543D01*
X129956921Y-99121613D01*
X129964773Y-99143557D01*
X129970437Y-99166166D01*
X129973856Y-99189221D01*
X129975000Y-99212500D01*
X129975000Y-99787500D01*
X129973856Y-99810779D01*
X129970437Y-99833834D01*
X129964773Y-99856443D01*
X129956921Y-99878387D01*
X129946956Y-99899457D01*
X129934974Y-99919448D01*
X129921090Y-99938168D01*
X129905438Y-99955438D01*
X129888168Y-99971090D01*
X129869448Y-99984974D01*
X129849457Y-99996956D01*
X129828387Y-100006921D01*
X129806443Y-100014773D01*
X129783834Y-100020437D01*
X129760779Y-100023856D01*
X129737500Y-100025000D01*
X129262500Y-100025000D01*
X129239221Y-100023856D01*
X129216166Y-100020437D01*
X129193557Y-100014773D01*
X129171613Y-100006921D01*
X129150543Y-99996956D01*
X129130552Y-99984974D01*
X129111832Y-99971090D01*
X129094562Y-99955438D01*
X129078910Y-99938168D01*
X129065026Y-99919448D01*
X129053044Y-99899457D01*
X129043079Y-99878387D01*
X129035227Y-99856443D01*
X129029563Y-99833834D01*
X129026144Y-99810779D01*
X129025000Y-99787500D01*
X129025000Y-99212500D01*
X129026144Y-99189221D01*
X129029563Y-99166166D01*
X129035227Y-99143557D01*
X129043079Y-99121613D01*
X129053044Y-99100543D01*
X129065026Y-99080552D01*
X129078910Y-99061832D01*
X129094562Y-99044562D01*
X129111832Y-99028910D01*
X129130552Y-99015026D01*
X129150543Y-99003044D01*
X129171613Y-98993079D01*
X129193557Y-98985227D01*
X129216166Y-98979563D01*
X129239221Y-98976144D01*
X129262500Y-98975000D01*
X129737500Y-98975000D01*
X129760779Y-98976144D01*
G37*
G36*
X129760779Y-100726144D02*
G01*
X129783834Y-100729563D01*
X129806443Y-100735227D01*
X129828387Y-100743079D01*
X129849457Y-100753044D01*
X129869448Y-100765026D01*
X129888168Y-100778910D01*
X129905438Y-100794562D01*
X129921090Y-100811832D01*
X129934974Y-100830552D01*
X129946956Y-100850543D01*
X129956921Y-100871613D01*
X129964773Y-100893557D01*
X129970437Y-100916166D01*
X129973856Y-100939221D01*
X129975000Y-100962500D01*
X129975000Y-101537500D01*
X129973856Y-101560779D01*
X129970437Y-101583834D01*
X129964773Y-101606443D01*
X129956921Y-101628387D01*
X129946956Y-101649457D01*
X129934974Y-101669448D01*
X129921090Y-101688168D01*
X129905438Y-101705438D01*
X129888168Y-101721090D01*
X129869448Y-101734974D01*
X129849457Y-101746956D01*
X129828387Y-101756921D01*
X129806443Y-101764773D01*
X129783834Y-101770437D01*
X129760779Y-101773856D01*
X129737500Y-101775000D01*
X129262500Y-101775000D01*
X129239221Y-101773856D01*
X129216166Y-101770437D01*
X129193557Y-101764773D01*
X129171613Y-101756921D01*
X129150543Y-101746956D01*
X129130552Y-101734974D01*
X129111832Y-101721090D01*
X129094562Y-101705438D01*
X129078910Y-101688168D01*
X129065026Y-101669448D01*
X129053044Y-101649457D01*
X129043079Y-101628387D01*
X129035227Y-101606443D01*
X129029563Y-101583834D01*
X129026144Y-101560779D01*
X129025000Y-101537500D01*
X129025000Y-100962500D01*
X129026144Y-100939221D01*
X129029563Y-100916166D01*
X129035227Y-100893557D01*
X129043079Y-100871613D01*
X129053044Y-100850543D01*
X129065026Y-100830552D01*
X129078910Y-100811832D01*
X129094562Y-100794562D01*
X129111832Y-100778910D01*
X129130552Y-100765026D01*
X129150543Y-100753044D01*
X129171613Y-100743079D01*
X129193557Y-100735227D01*
X129216166Y-100729563D01*
X129239221Y-100726144D01*
X129262500Y-100725000D01*
X129737500Y-100725000D01*
X129760779Y-100726144D01*
G37*
D23*
X140400000Y-79000000D03*
X139450000Y-79000000D03*
X141350000Y-79000000D03*
X141350000Y-81700000D03*
X140400000Y-81700000D03*
X139450000Y-81700000D03*
D24*
X126350000Y-77900000D03*
X128350000Y-76950000D03*
X128350000Y-78850000D03*
D20*
G36*
X139760779Y-74401144D02*
G01*
X139783834Y-74404563D01*
X139806443Y-74410227D01*
X139828387Y-74418079D01*
X139849457Y-74428044D01*
X139869448Y-74440026D01*
X139888168Y-74453910D01*
X139905438Y-74469562D01*
X139921090Y-74486832D01*
X139934974Y-74505552D01*
X139946956Y-74525543D01*
X139956921Y-74546613D01*
X139964773Y-74568557D01*
X139970437Y-74591166D01*
X139973856Y-74614221D01*
X139975000Y-74637500D01*
X139975000Y-75212500D01*
X139973856Y-75235779D01*
X139970437Y-75258834D01*
X139964773Y-75281443D01*
X139956921Y-75303387D01*
X139946956Y-75324457D01*
X139934974Y-75344448D01*
X139921090Y-75363168D01*
X139905438Y-75380438D01*
X139888168Y-75396090D01*
X139869448Y-75409974D01*
X139849457Y-75421956D01*
X139828387Y-75431921D01*
X139806443Y-75439773D01*
X139783834Y-75445437D01*
X139760779Y-75448856D01*
X139737500Y-75450000D01*
X139262500Y-75450000D01*
X139239221Y-75448856D01*
X139216166Y-75445437D01*
X139193557Y-75439773D01*
X139171613Y-75431921D01*
X139150543Y-75421956D01*
X139130552Y-75409974D01*
X139111832Y-75396090D01*
X139094562Y-75380438D01*
X139078910Y-75363168D01*
X139065026Y-75344448D01*
X139053044Y-75324457D01*
X139043079Y-75303387D01*
X139035227Y-75281443D01*
X139029563Y-75258834D01*
X139026144Y-75235779D01*
X139025000Y-75212500D01*
X139025000Y-74637500D01*
X139026144Y-74614221D01*
X139029563Y-74591166D01*
X139035227Y-74568557D01*
X139043079Y-74546613D01*
X139053044Y-74525543D01*
X139065026Y-74505552D01*
X139078910Y-74486832D01*
X139094562Y-74469562D01*
X139111832Y-74453910D01*
X139130552Y-74440026D01*
X139150543Y-74428044D01*
X139171613Y-74418079D01*
X139193557Y-74410227D01*
X139216166Y-74404563D01*
X139239221Y-74401144D01*
X139262500Y-74400000D01*
X139737500Y-74400000D01*
X139760779Y-74401144D01*
G37*
G36*
X139760779Y-76151144D02*
G01*
X139783834Y-76154563D01*
X139806443Y-76160227D01*
X139828387Y-76168079D01*
X139849457Y-76178044D01*
X139869448Y-76190026D01*
X139888168Y-76203910D01*
X139905438Y-76219562D01*
X139921090Y-76236832D01*
X139934974Y-76255552D01*
X139946956Y-76275543D01*
X139956921Y-76296613D01*
X139964773Y-76318557D01*
X139970437Y-76341166D01*
X139973856Y-76364221D01*
X139975000Y-76387500D01*
X139975000Y-76962500D01*
X139973856Y-76985779D01*
X139970437Y-77008834D01*
X139964773Y-77031443D01*
X139956921Y-77053387D01*
X139946956Y-77074457D01*
X139934974Y-77094448D01*
X139921090Y-77113168D01*
X139905438Y-77130438D01*
X139888168Y-77146090D01*
X139869448Y-77159974D01*
X139849457Y-77171956D01*
X139828387Y-77181921D01*
X139806443Y-77189773D01*
X139783834Y-77195437D01*
X139760779Y-77198856D01*
X139737500Y-77200000D01*
X139262500Y-77200000D01*
X139239221Y-77198856D01*
X139216166Y-77195437D01*
X139193557Y-77189773D01*
X139171613Y-77181921D01*
X139150543Y-77171956D01*
X139130552Y-77159974D01*
X139111832Y-77146090D01*
X139094562Y-77130438D01*
X139078910Y-77113168D01*
X139065026Y-77094448D01*
X139053044Y-77074457D01*
X139043079Y-77053387D01*
X139035227Y-77031443D01*
X139029563Y-77008834D01*
X139026144Y-76985779D01*
X139025000Y-76962500D01*
X139025000Y-76387500D01*
X139026144Y-76364221D01*
X139029563Y-76341166D01*
X139035227Y-76318557D01*
X139043079Y-76296613D01*
X139053044Y-76275543D01*
X139065026Y-76255552D01*
X139078910Y-76236832D01*
X139094562Y-76219562D01*
X139111832Y-76203910D01*
X139130552Y-76190026D01*
X139150543Y-76178044D01*
X139171613Y-76168079D01*
X139193557Y-76160227D01*
X139216166Y-76154563D01*
X139239221Y-76151144D01*
X139262500Y-76150000D01*
X139737500Y-76150000D01*
X139760779Y-76151144D01*
G37*
G36*
X137885779Y-76226144D02*
G01*
X137908834Y-76229563D01*
X137931443Y-76235227D01*
X137953387Y-76243079D01*
X137974457Y-76253044D01*
X137994448Y-76265026D01*
X138013168Y-76278910D01*
X138030438Y-76294562D01*
X138046090Y-76311832D01*
X138059974Y-76330552D01*
X138071956Y-76350543D01*
X138081921Y-76371613D01*
X138089773Y-76393557D01*
X138095437Y-76416166D01*
X138098856Y-76439221D01*
X138100000Y-76462500D01*
X138100000Y-76937500D01*
X138098856Y-76960779D01*
X138095437Y-76983834D01*
X138089773Y-77006443D01*
X138081921Y-77028387D01*
X138071956Y-77049457D01*
X138059974Y-77069448D01*
X138046090Y-77088168D01*
X138030438Y-77105438D01*
X138013168Y-77121090D01*
X137994448Y-77134974D01*
X137974457Y-77146956D01*
X137953387Y-77156921D01*
X137931443Y-77164773D01*
X137908834Y-77170437D01*
X137885779Y-77173856D01*
X137862500Y-77175000D01*
X137287500Y-77175000D01*
X137264221Y-77173856D01*
X137241166Y-77170437D01*
X137218557Y-77164773D01*
X137196613Y-77156921D01*
X137175543Y-77146956D01*
X137155552Y-77134974D01*
X137136832Y-77121090D01*
X137119562Y-77105438D01*
X137103910Y-77088168D01*
X137090026Y-77069448D01*
X137078044Y-77049457D01*
X137068079Y-77028387D01*
X137060227Y-77006443D01*
X137054563Y-76983834D01*
X137051144Y-76960779D01*
X137050000Y-76937500D01*
X137050000Y-76462500D01*
X137051144Y-76439221D01*
X137054563Y-76416166D01*
X137060227Y-76393557D01*
X137068079Y-76371613D01*
X137078044Y-76350543D01*
X137090026Y-76330552D01*
X137103910Y-76311832D01*
X137119562Y-76294562D01*
X137136832Y-76278910D01*
X137155552Y-76265026D01*
X137175543Y-76253044D01*
X137196613Y-76243079D01*
X137218557Y-76235227D01*
X137241166Y-76229563D01*
X137264221Y-76226144D01*
X137287500Y-76225000D01*
X137862500Y-76225000D01*
X137885779Y-76226144D01*
G37*
G36*
X136135779Y-76226144D02*
G01*
X136158834Y-76229563D01*
X136181443Y-76235227D01*
X136203387Y-76243079D01*
X136224457Y-76253044D01*
X136244448Y-76265026D01*
X136263168Y-76278910D01*
X136280438Y-76294562D01*
X136296090Y-76311832D01*
X136309974Y-76330552D01*
X136321956Y-76350543D01*
X136331921Y-76371613D01*
X136339773Y-76393557D01*
X136345437Y-76416166D01*
X136348856Y-76439221D01*
X136350000Y-76462500D01*
X136350000Y-76937500D01*
X136348856Y-76960779D01*
X136345437Y-76983834D01*
X136339773Y-77006443D01*
X136331921Y-77028387D01*
X136321956Y-77049457D01*
X136309974Y-77069448D01*
X136296090Y-77088168D01*
X136280438Y-77105438D01*
X136263168Y-77121090D01*
X136244448Y-77134974D01*
X136224457Y-77146956D01*
X136203387Y-77156921D01*
X136181443Y-77164773D01*
X136158834Y-77170437D01*
X136135779Y-77173856D01*
X136112500Y-77175000D01*
X135537500Y-77175000D01*
X135514221Y-77173856D01*
X135491166Y-77170437D01*
X135468557Y-77164773D01*
X135446613Y-77156921D01*
X135425543Y-77146956D01*
X135405552Y-77134974D01*
X135386832Y-77121090D01*
X135369562Y-77105438D01*
X135353910Y-77088168D01*
X135340026Y-77069448D01*
X135328044Y-77049457D01*
X135318079Y-77028387D01*
X135310227Y-77006443D01*
X135304563Y-76983834D01*
X135301144Y-76960779D01*
X135300000Y-76937500D01*
X135300000Y-76462500D01*
X135301144Y-76439221D01*
X135304563Y-76416166D01*
X135310227Y-76393557D01*
X135318079Y-76371613D01*
X135328044Y-76350543D01*
X135340026Y-76330552D01*
X135353910Y-76311832D01*
X135369562Y-76294562D01*
X135386832Y-76278910D01*
X135405552Y-76265026D01*
X135425543Y-76253044D01*
X135446613Y-76243079D01*
X135468557Y-76235227D01*
X135491166Y-76229563D01*
X135514221Y-76226144D01*
X135537500Y-76225000D01*
X136112500Y-76225000D01*
X136135779Y-76226144D01*
G37*
G36*
X135260779Y-93726144D02*
G01*
X135283834Y-93729563D01*
X135306443Y-93735227D01*
X135328387Y-93743079D01*
X135349457Y-93753044D01*
X135369448Y-93765026D01*
X135388168Y-93778910D01*
X135405438Y-93794562D01*
X135421090Y-93811832D01*
X135434974Y-93830552D01*
X135446956Y-93850543D01*
X135456921Y-93871613D01*
X135464773Y-93893557D01*
X135470437Y-93916166D01*
X135473856Y-93939221D01*
X135475000Y-93962500D01*
X135475000Y-94537500D01*
X135473856Y-94560779D01*
X135470437Y-94583834D01*
X135464773Y-94606443D01*
X135456921Y-94628387D01*
X135446956Y-94649457D01*
X135434974Y-94669448D01*
X135421090Y-94688168D01*
X135405438Y-94705438D01*
X135388168Y-94721090D01*
X135369448Y-94734974D01*
X135349457Y-94746956D01*
X135328387Y-94756921D01*
X135306443Y-94764773D01*
X135283834Y-94770437D01*
X135260779Y-94773856D01*
X135237500Y-94775000D01*
X134762500Y-94775000D01*
X134739221Y-94773856D01*
X134716166Y-94770437D01*
X134693557Y-94764773D01*
X134671613Y-94756921D01*
X134650543Y-94746956D01*
X134630552Y-94734974D01*
X134611832Y-94721090D01*
X134594562Y-94705438D01*
X134578910Y-94688168D01*
X134565026Y-94669448D01*
X134553044Y-94649457D01*
X134543079Y-94628387D01*
X134535227Y-94606443D01*
X134529563Y-94583834D01*
X134526144Y-94560779D01*
X134525000Y-94537500D01*
X134525000Y-93962500D01*
X134526144Y-93939221D01*
X134529563Y-93916166D01*
X134535227Y-93893557D01*
X134543079Y-93871613D01*
X134553044Y-93850543D01*
X134565026Y-93830552D01*
X134578910Y-93811832D01*
X134594562Y-93794562D01*
X134611832Y-93778910D01*
X134630552Y-93765026D01*
X134650543Y-93753044D01*
X134671613Y-93743079D01*
X134693557Y-93735227D01*
X134716166Y-93729563D01*
X134739221Y-93726144D01*
X134762500Y-93725000D01*
X135237500Y-93725000D01*
X135260779Y-93726144D01*
G37*
G36*
X135260779Y-91976144D02*
G01*
X135283834Y-91979563D01*
X135306443Y-91985227D01*
X135328387Y-91993079D01*
X135349457Y-92003044D01*
X135369448Y-92015026D01*
X135388168Y-92028910D01*
X135405438Y-92044562D01*
X135421090Y-92061832D01*
X135434974Y-92080552D01*
X135446956Y-92100543D01*
X135456921Y-92121613D01*
X135464773Y-92143557D01*
X135470437Y-92166166D01*
X135473856Y-92189221D01*
X135475000Y-92212500D01*
X135475000Y-92787500D01*
X135473856Y-92810779D01*
X135470437Y-92833834D01*
X135464773Y-92856443D01*
X135456921Y-92878387D01*
X135446956Y-92899457D01*
X135434974Y-92919448D01*
X135421090Y-92938168D01*
X135405438Y-92955438D01*
X135388168Y-92971090D01*
X135369448Y-92984974D01*
X135349457Y-92996956D01*
X135328387Y-93006921D01*
X135306443Y-93014773D01*
X135283834Y-93020437D01*
X135260779Y-93023856D01*
X135237500Y-93025000D01*
X134762500Y-93025000D01*
X134739221Y-93023856D01*
X134716166Y-93020437D01*
X134693557Y-93014773D01*
X134671613Y-93006921D01*
X134650543Y-92996956D01*
X134630552Y-92984974D01*
X134611832Y-92971090D01*
X134594562Y-92955438D01*
X134578910Y-92938168D01*
X134565026Y-92919448D01*
X134553044Y-92899457D01*
X134543079Y-92878387D01*
X134535227Y-92856443D01*
X134529563Y-92833834D01*
X134526144Y-92810779D01*
X134525000Y-92787500D01*
X134525000Y-92212500D01*
X134526144Y-92189221D01*
X134529563Y-92166166D01*
X134535227Y-92143557D01*
X134543079Y-92121613D01*
X134553044Y-92100543D01*
X134565026Y-92080552D01*
X134578910Y-92061832D01*
X134594562Y-92044562D01*
X134611832Y-92028910D01*
X134630552Y-92015026D01*
X134650543Y-92003044D01*
X134671613Y-91993079D01*
X134693557Y-91985227D01*
X134716166Y-91979563D01*
X134739221Y-91976144D01*
X134762500Y-91975000D01*
X135237500Y-91975000D01*
X135260779Y-91976144D01*
G37*
G36*
X133260779Y-93726144D02*
G01*
X133283834Y-93729563D01*
X133306443Y-93735227D01*
X133328387Y-93743079D01*
X133349457Y-93753044D01*
X133369448Y-93765026D01*
X133388168Y-93778910D01*
X133405438Y-93794562D01*
X133421090Y-93811832D01*
X133434974Y-93830552D01*
X133446956Y-93850543D01*
X133456921Y-93871613D01*
X133464773Y-93893557D01*
X133470437Y-93916166D01*
X133473856Y-93939221D01*
X133475000Y-93962500D01*
X133475000Y-94537500D01*
X133473856Y-94560779D01*
X133470437Y-94583834D01*
X133464773Y-94606443D01*
X133456921Y-94628387D01*
X133446956Y-94649457D01*
X133434974Y-94669448D01*
X133421090Y-94688168D01*
X133405438Y-94705438D01*
X133388168Y-94721090D01*
X133369448Y-94734974D01*
X133349457Y-94746956D01*
X133328387Y-94756921D01*
X133306443Y-94764773D01*
X133283834Y-94770437D01*
X133260779Y-94773856D01*
X133237500Y-94775000D01*
X132762500Y-94775000D01*
X132739221Y-94773856D01*
X132716166Y-94770437D01*
X132693557Y-94764773D01*
X132671613Y-94756921D01*
X132650543Y-94746956D01*
X132630552Y-94734974D01*
X132611832Y-94721090D01*
X132594562Y-94705438D01*
X132578910Y-94688168D01*
X132565026Y-94669448D01*
X132553044Y-94649457D01*
X132543079Y-94628387D01*
X132535227Y-94606443D01*
X132529563Y-94583834D01*
X132526144Y-94560779D01*
X132525000Y-94537500D01*
X132525000Y-93962500D01*
X132526144Y-93939221D01*
X132529563Y-93916166D01*
X132535227Y-93893557D01*
X132543079Y-93871613D01*
X132553044Y-93850543D01*
X132565026Y-93830552D01*
X132578910Y-93811832D01*
X132594562Y-93794562D01*
X132611832Y-93778910D01*
X132630552Y-93765026D01*
X132650543Y-93753044D01*
X132671613Y-93743079D01*
X132693557Y-93735227D01*
X132716166Y-93729563D01*
X132739221Y-93726144D01*
X132762500Y-93725000D01*
X133237500Y-93725000D01*
X133260779Y-93726144D01*
G37*
G36*
X133260779Y-91976144D02*
G01*
X133283834Y-91979563D01*
X133306443Y-91985227D01*
X133328387Y-91993079D01*
X133349457Y-92003044D01*
X133369448Y-92015026D01*
X133388168Y-92028910D01*
X133405438Y-92044562D01*
X133421090Y-92061832D01*
X133434974Y-92080552D01*
X133446956Y-92100543D01*
X133456921Y-92121613D01*
X133464773Y-92143557D01*
X133470437Y-92166166D01*
X133473856Y-92189221D01*
X133475000Y-92212500D01*
X133475000Y-92787500D01*
X133473856Y-92810779D01*
X133470437Y-92833834D01*
X133464773Y-92856443D01*
X133456921Y-92878387D01*
X133446956Y-92899457D01*
X133434974Y-92919448D01*
X133421090Y-92938168D01*
X133405438Y-92955438D01*
X133388168Y-92971090D01*
X133369448Y-92984974D01*
X133349457Y-92996956D01*
X133328387Y-93006921D01*
X133306443Y-93014773D01*
X133283834Y-93020437D01*
X133260779Y-93023856D01*
X133237500Y-93025000D01*
X132762500Y-93025000D01*
X132739221Y-93023856D01*
X132716166Y-93020437D01*
X132693557Y-93014773D01*
X132671613Y-93006921D01*
X132650543Y-92996956D01*
X132630552Y-92984974D01*
X132611832Y-92971090D01*
X132594562Y-92955438D01*
X132578910Y-92938168D01*
X132565026Y-92919448D01*
X132553044Y-92899457D01*
X132543079Y-92878387D01*
X132535227Y-92856443D01*
X132529563Y-92833834D01*
X132526144Y-92810779D01*
X132525000Y-92787500D01*
X132525000Y-92212500D01*
X132526144Y-92189221D01*
X132529563Y-92166166D01*
X132535227Y-92143557D01*
X132543079Y-92121613D01*
X132553044Y-92100543D01*
X132565026Y-92080552D01*
X132578910Y-92061832D01*
X132594562Y-92044562D01*
X132611832Y-92028910D01*
X132630552Y-92015026D01*
X132650543Y-92003044D01*
X132671613Y-91993079D01*
X132693557Y-91985227D01*
X132716166Y-91979563D01*
X132739221Y-91976144D01*
X132762500Y-91975000D01*
X133237500Y-91975000D01*
X133260779Y-91976144D01*
G37*
G36*
X131260779Y-93726144D02*
G01*
X131283834Y-93729563D01*
X131306443Y-93735227D01*
X131328387Y-93743079D01*
X131349457Y-93753044D01*
X131369448Y-93765026D01*
X131388168Y-93778910D01*
X131405438Y-93794562D01*
X131421090Y-93811832D01*
X131434974Y-93830552D01*
X131446956Y-93850543D01*
X131456921Y-93871613D01*
X131464773Y-93893557D01*
X131470437Y-93916166D01*
X131473856Y-93939221D01*
X131475000Y-93962500D01*
X131475000Y-94537500D01*
X131473856Y-94560779D01*
X131470437Y-94583834D01*
X131464773Y-94606443D01*
X131456921Y-94628387D01*
X131446956Y-94649457D01*
X131434974Y-94669448D01*
X131421090Y-94688168D01*
X131405438Y-94705438D01*
X131388168Y-94721090D01*
X131369448Y-94734974D01*
X131349457Y-94746956D01*
X131328387Y-94756921D01*
X131306443Y-94764773D01*
X131283834Y-94770437D01*
X131260779Y-94773856D01*
X131237500Y-94775000D01*
X130762500Y-94775000D01*
X130739221Y-94773856D01*
X130716166Y-94770437D01*
X130693557Y-94764773D01*
X130671613Y-94756921D01*
X130650543Y-94746956D01*
X130630552Y-94734974D01*
X130611832Y-94721090D01*
X130594562Y-94705438D01*
X130578910Y-94688168D01*
X130565026Y-94669448D01*
X130553044Y-94649457D01*
X130543079Y-94628387D01*
X130535227Y-94606443D01*
X130529563Y-94583834D01*
X130526144Y-94560779D01*
X130525000Y-94537500D01*
X130525000Y-93962500D01*
X130526144Y-93939221D01*
X130529563Y-93916166D01*
X130535227Y-93893557D01*
X130543079Y-93871613D01*
X130553044Y-93850543D01*
X130565026Y-93830552D01*
X130578910Y-93811832D01*
X130594562Y-93794562D01*
X130611832Y-93778910D01*
X130630552Y-93765026D01*
X130650543Y-93753044D01*
X130671613Y-93743079D01*
X130693557Y-93735227D01*
X130716166Y-93729563D01*
X130739221Y-93726144D01*
X130762500Y-93725000D01*
X131237500Y-93725000D01*
X131260779Y-93726144D01*
G37*
G36*
X131260779Y-91976144D02*
G01*
X131283834Y-91979563D01*
X131306443Y-91985227D01*
X131328387Y-91993079D01*
X131349457Y-92003044D01*
X131369448Y-92015026D01*
X131388168Y-92028910D01*
X131405438Y-92044562D01*
X131421090Y-92061832D01*
X131434974Y-92080552D01*
X131446956Y-92100543D01*
X131456921Y-92121613D01*
X131464773Y-92143557D01*
X131470437Y-92166166D01*
X131473856Y-92189221D01*
X131475000Y-92212500D01*
X131475000Y-92787500D01*
X131473856Y-92810779D01*
X131470437Y-92833834D01*
X131464773Y-92856443D01*
X131456921Y-92878387D01*
X131446956Y-92899457D01*
X131434974Y-92919448D01*
X131421090Y-92938168D01*
X131405438Y-92955438D01*
X131388168Y-92971090D01*
X131369448Y-92984974D01*
X131349457Y-92996956D01*
X131328387Y-93006921D01*
X131306443Y-93014773D01*
X131283834Y-93020437D01*
X131260779Y-93023856D01*
X131237500Y-93025000D01*
X130762500Y-93025000D01*
X130739221Y-93023856D01*
X130716166Y-93020437D01*
X130693557Y-93014773D01*
X130671613Y-93006921D01*
X130650543Y-92996956D01*
X130630552Y-92984974D01*
X130611832Y-92971090D01*
X130594562Y-92955438D01*
X130578910Y-92938168D01*
X130565026Y-92919448D01*
X130553044Y-92899457D01*
X130543079Y-92878387D01*
X130535227Y-92856443D01*
X130529563Y-92833834D01*
X130526144Y-92810779D01*
X130525000Y-92787500D01*
X130525000Y-92212500D01*
X130526144Y-92189221D01*
X130529563Y-92166166D01*
X130535227Y-92143557D01*
X130543079Y-92121613D01*
X130553044Y-92100543D01*
X130565026Y-92080552D01*
X130578910Y-92061832D01*
X130594562Y-92044562D01*
X130611832Y-92028910D01*
X130630552Y-92015026D01*
X130650543Y-92003044D01*
X130671613Y-91993079D01*
X130693557Y-91985227D01*
X130716166Y-91979563D01*
X130739221Y-91976144D01*
X130762500Y-91975000D01*
X131237500Y-91975000D01*
X131260779Y-91976144D01*
G37*
G36*
X137260779Y-93726144D02*
G01*
X137283834Y-93729563D01*
X137306443Y-93735227D01*
X137328387Y-93743079D01*
X137349457Y-93753044D01*
X137369448Y-93765026D01*
X137388168Y-93778910D01*
X137405438Y-93794562D01*
X137421090Y-93811832D01*
X137434974Y-93830552D01*
X137446956Y-93850543D01*
X137456921Y-93871613D01*
X137464773Y-93893557D01*
X137470437Y-93916166D01*
X137473856Y-93939221D01*
X137475000Y-93962500D01*
X137475000Y-94537500D01*
X137473856Y-94560779D01*
X137470437Y-94583834D01*
X137464773Y-94606443D01*
X137456921Y-94628387D01*
X137446956Y-94649457D01*
X137434974Y-94669448D01*
X137421090Y-94688168D01*
X137405438Y-94705438D01*
X137388168Y-94721090D01*
X137369448Y-94734974D01*
X137349457Y-94746956D01*
X137328387Y-94756921D01*
X137306443Y-94764773D01*
X137283834Y-94770437D01*
X137260779Y-94773856D01*
X137237500Y-94775000D01*
X136762500Y-94775000D01*
X136739221Y-94773856D01*
X136716166Y-94770437D01*
X136693557Y-94764773D01*
X136671613Y-94756921D01*
X136650543Y-94746956D01*
X136630552Y-94734974D01*
X136611832Y-94721090D01*
X136594562Y-94705438D01*
X136578910Y-94688168D01*
X136565026Y-94669448D01*
X136553044Y-94649457D01*
X136543079Y-94628387D01*
X136535227Y-94606443D01*
X136529563Y-94583834D01*
X136526144Y-94560779D01*
X136525000Y-94537500D01*
X136525000Y-93962500D01*
X136526144Y-93939221D01*
X136529563Y-93916166D01*
X136535227Y-93893557D01*
X136543079Y-93871613D01*
X136553044Y-93850543D01*
X136565026Y-93830552D01*
X136578910Y-93811832D01*
X136594562Y-93794562D01*
X136611832Y-93778910D01*
X136630552Y-93765026D01*
X136650543Y-93753044D01*
X136671613Y-93743079D01*
X136693557Y-93735227D01*
X136716166Y-93729563D01*
X136739221Y-93726144D01*
X136762500Y-93725000D01*
X137237500Y-93725000D01*
X137260779Y-93726144D01*
G37*
G36*
X137260779Y-91976144D02*
G01*
X137283834Y-91979563D01*
X137306443Y-91985227D01*
X137328387Y-91993079D01*
X137349457Y-92003044D01*
X137369448Y-92015026D01*
X137388168Y-92028910D01*
X137405438Y-92044562D01*
X137421090Y-92061832D01*
X137434974Y-92080552D01*
X137446956Y-92100543D01*
X137456921Y-92121613D01*
X137464773Y-92143557D01*
X137470437Y-92166166D01*
X137473856Y-92189221D01*
X137475000Y-92212500D01*
X137475000Y-92787500D01*
X137473856Y-92810779D01*
X137470437Y-92833834D01*
X137464773Y-92856443D01*
X137456921Y-92878387D01*
X137446956Y-92899457D01*
X137434974Y-92919448D01*
X137421090Y-92938168D01*
X137405438Y-92955438D01*
X137388168Y-92971090D01*
X137369448Y-92984974D01*
X137349457Y-92996956D01*
X137328387Y-93006921D01*
X137306443Y-93014773D01*
X137283834Y-93020437D01*
X137260779Y-93023856D01*
X137237500Y-93025000D01*
X136762500Y-93025000D01*
X136739221Y-93023856D01*
X136716166Y-93020437D01*
X136693557Y-93014773D01*
X136671613Y-93006921D01*
X136650543Y-92996956D01*
X136630552Y-92984974D01*
X136611832Y-92971090D01*
X136594562Y-92955438D01*
X136578910Y-92938168D01*
X136565026Y-92919448D01*
X136553044Y-92899457D01*
X136543079Y-92878387D01*
X136535227Y-92856443D01*
X136529563Y-92833834D01*
X136526144Y-92810779D01*
X136525000Y-92787500D01*
X136525000Y-92212500D01*
X136526144Y-92189221D01*
X136529563Y-92166166D01*
X136535227Y-92143557D01*
X136543079Y-92121613D01*
X136553044Y-92100543D01*
X136565026Y-92080552D01*
X136578910Y-92061832D01*
X136594562Y-92044562D01*
X136611832Y-92028910D01*
X136630552Y-92015026D01*
X136650543Y-92003044D01*
X136671613Y-91993079D01*
X136693557Y-91985227D01*
X136716166Y-91979563D01*
X136739221Y-91976144D01*
X136762500Y-91975000D01*
X137237500Y-91975000D01*
X137260779Y-91976144D01*
G37*
D25*
X143900000Y-79500000D03*
X143900000Y-81200000D03*
D20*
G36*
X137860779Y-74251144D02*
G01*
X137883834Y-74254563D01*
X137906443Y-74260227D01*
X137928387Y-74268079D01*
X137949457Y-74278044D01*
X137969448Y-74290026D01*
X137988168Y-74303910D01*
X138005438Y-74319562D01*
X138021090Y-74336832D01*
X138034974Y-74355552D01*
X138046956Y-74375543D01*
X138056921Y-74396613D01*
X138064773Y-74418557D01*
X138070437Y-74441166D01*
X138073856Y-74464221D01*
X138075000Y-74487500D01*
X138075000Y-75062500D01*
X138073856Y-75085779D01*
X138070437Y-75108834D01*
X138064773Y-75131443D01*
X138056921Y-75153387D01*
X138046956Y-75174457D01*
X138034974Y-75194448D01*
X138021090Y-75213168D01*
X138005438Y-75230438D01*
X137988168Y-75246090D01*
X137969448Y-75259974D01*
X137949457Y-75271956D01*
X137928387Y-75281921D01*
X137906443Y-75289773D01*
X137883834Y-75295437D01*
X137860779Y-75298856D01*
X137837500Y-75300000D01*
X137362500Y-75300000D01*
X137339221Y-75298856D01*
X137316166Y-75295437D01*
X137293557Y-75289773D01*
X137271613Y-75281921D01*
X137250543Y-75271956D01*
X137230552Y-75259974D01*
X137211832Y-75246090D01*
X137194562Y-75230438D01*
X137178910Y-75213168D01*
X137165026Y-75194448D01*
X137153044Y-75174457D01*
X137143079Y-75153387D01*
X137135227Y-75131443D01*
X137129563Y-75108834D01*
X137126144Y-75085779D01*
X137125000Y-75062500D01*
X137125000Y-74487500D01*
X137126144Y-74464221D01*
X137129563Y-74441166D01*
X137135227Y-74418557D01*
X137143079Y-74396613D01*
X137153044Y-74375543D01*
X137165026Y-74355552D01*
X137178910Y-74336832D01*
X137194562Y-74319562D01*
X137211832Y-74303910D01*
X137230552Y-74290026D01*
X137250543Y-74278044D01*
X137271613Y-74268079D01*
X137293557Y-74260227D01*
X137316166Y-74254563D01*
X137339221Y-74251144D01*
X137362500Y-74250000D01*
X137837500Y-74250000D01*
X137860779Y-74251144D01*
G37*
G36*
X137860779Y-72501144D02*
G01*
X137883834Y-72504563D01*
X137906443Y-72510227D01*
X137928387Y-72518079D01*
X137949457Y-72528044D01*
X137969448Y-72540026D01*
X137988168Y-72553910D01*
X138005438Y-72569562D01*
X138021090Y-72586832D01*
X138034974Y-72605552D01*
X138046956Y-72625543D01*
X138056921Y-72646613D01*
X138064773Y-72668557D01*
X138070437Y-72691166D01*
X138073856Y-72714221D01*
X138075000Y-72737500D01*
X138075000Y-73312500D01*
X138073856Y-73335779D01*
X138070437Y-73358834D01*
X138064773Y-73381443D01*
X138056921Y-73403387D01*
X138046956Y-73424457D01*
X138034974Y-73444448D01*
X138021090Y-73463168D01*
X138005438Y-73480438D01*
X137988168Y-73496090D01*
X137969448Y-73509974D01*
X137949457Y-73521956D01*
X137928387Y-73531921D01*
X137906443Y-73539773D01*
X137883834Y-73545437D01*
X137860779Y-73548856D01*
X137837500Y-73550000D01*
X137362500Y-73550000D01*
X137339221Y-73548856D01*
X137316166Y-73545437D01*
X137293557Y-73539773D01*
X137271613Y-73531921D01*
X137250543Y-73521956D01*
X137230552Y-73509974D01*
X137211832Y-73496090D01*
X137194562Y-73480438D01*
X137178910Y-73463168D01*
X137165026Y-73444448D01*
X137153044Y-73424457D01*
X137143079Y-73403387D01*
X137135227Y-73381443D01*
X137129563Y-73358834D01*
X137126144Y-73335779D01*
X137125000Y-73312500D01*
X137125000Y-72737500D01*
X137126144Y-72714221D01*
X137129563Y-72691166D01*
X137135227Y-72668557D01*
X137143079Y-72646613D01*
X137153044Y-72625543D01*
X137165026Y-72605552D01*
X137178910Y-72586832D01*
X137194562Y-72569562D01*
X137211832Y-72553910D01*
X137230552Y-72540026D01*
X137250543Y-72528044D01*
X137271613Y-72518079D01*
X137293557Y-72510227D01*
X137316166Y-72504563D01*
X137339221Y-72501144D01*
X137362500Y-72500000D01*
X137837500Y-72500000D01*
X137860779Y-72501144D01*
G37*
G36*
X146974505Y-91676204D02*
G01*
X146998773Y-91679804D01*
X147022572Y-91685765D01*
X147045671Y-91694030D01*
X147067850Y-91704520D01*
X147088893Y-91717132D01*
X147108599Y-91731747D01*
X147126777Y-91748223D01*
X147143253Y-91766401D01*
X147157868Y-91786107D01*
X147170480Y-91807150D01*
X147180970Y-91829329D01*
X147189235Y-91852428D01*
X147195196Y-91876227D01*
X147198796Y-91900495D01*
X147200000Y-91924999D01*
X147200000Y-92575001D01*
X147198796Y-92599505D01*
X147195196Y-92623773D01*
X147189235Y-92647572D01*
X147180970Y-92670671D01*
X147170480Y-92692850D01*
X147157868Y-92713893D01*
X147143253Y-92733599D01*
X147126777Y-92751777D01*
X147108599Y-92768253D01*
X147088893Y-92782868D01*
X147067850Y-92795480D01*
X147045671Y-92805970D01*
X147022572Y-92814235D01*
X146998773Y-92820196D01*
X146974505Y-92823796D01*
X146950001Y-92825000D01*
X146049999Y-92825000D01*
X146025495Y-92823796D01*
X146001227Y-92820196D01*
X145977428Y-92814235D01*
X145954329Y-92805970D01*
X145932150Y-92795480D01*
X145911107Y-92782868D01*
X145891401Y-92768253D01*
X145873223Y-92751777D01*
X145856747Y-92733599D01*
X145842132Y-92713893D01*
X145829520Y-92692850D01*
X145819030Y-92670671D01*
X145810765Y-92647572D01*
X145804804Y-92623773D01*
X145801204Y-92599505D01*
X145800000Y-92575001D01*
X145800000Y-91924999D01*
X145801204Y-91900495D01*
X145804804Y-91876227D01*
X145810765Y-91852428D01*
X145819030Y-91829329D01*
X145829520Y-91807150D01*
X145842132Y-91786107D01*
X145856747Y-91766401D01*
X145873223Y-91748223D01*
X145891401Y-91731747D01*
X145911107Y-91717132D01*
X145932150Y-91704520D01*
X145954329Y-91694030D01*
X145977428Y-91685765D01*
X146001227Y-91679804D01*
X146025495Y-91676204D01*
X146049999Y-91675000D01*
X146950001Y-91675000D01*
X146974505Y-91676204D01*
G37*
G36*
X146974505Y-93726204D02*
G01*
X146998773Y-93729804D01*
X147022572Y-93735765D01*
X147045671Y-93744030D01*
X147067850Y-93754520D01*
X147088893Y-93767132D01*
X147108599Y-93781747D01*
X147126777Y-93798223D01*
X147143253Y-93816401D01*
X147157868Y-93836107D01*
X147170480Y-93857150D01*
X147180970Y-93879329D01*
X147189235Y-93902428D01*
X147195196Y-93926227D01*
X147198796Y-93950495D01*
X147200000Y-93974999D01*
X147200000Y-94625001D01*
X147198796Y-94649505D01*
X147195196Y-94673773D01*
X147189235Y-94697572D01*
X147180970Y-94720671D01*
X147170480Y-94742850D01*
X147157868Y-94763893D01*
X147143253Y-94783599D01*
X147126777Y-94801777D01*
X147108599Y-94818253D01*
X147088893Y-94832868D01*
X147067850Y-94845480D01*
X147045671Y-94855970D01*
X147022572Y-94864235D01*
X146998773Y-94870196D01*
X146974505Y-94873796D01*
X146950001Y-94875000D01*
X146049999Y-94875000D01*
X146025495Y-94873796D01*
X146001227Y-94870196D01*
X145977428Y-94864235D01*
X145954329Y-94855970D01*
X145932150Y-94845480D01*
X145911107Y-94832868D01*
X145891401Y-94818253D01*
X145873223Y-94801777D01*
X145856747Y-94783599D01*
X145842132Y-94763893D01*
X145829520Y-94742850D01*
X145819030Y-94720671D01*
X145810765Y-94697572D01*
X145804804Y-94673773D01*
X145801204Y-94649505D01*
X145800000Y-94625001D01*
X145800000Y-93974999D01*
X145801204Y-93950495D01*
X145804804Y-93926227D01*
X145810765Y-93902428D01*
X145819030Y-93879329D01*
X145829520Y-93857150D01*
X145842132Y-93836107D01*
X145856747Y-93816401D01*
X145873223Y-93798223D01*
X145891401Y-93781747D01*
X145911107Y-93767132D01*
X145932150Y-93754520D01*
X145954329Y-93744030D01*
X145977428Y-93735765D01*
X146001227Y-93729804D01*
X146025495Y-93726204D01*
X146049999Y-93725000D01*
X146950001Y-93725000D01*
X146974505Y-93726204D01*
G37*
G36*
X144474505Y-91676204D02*
G01*
X144498773Y-91679804D01*
X144522572Y-91685765D01*
X144545671Y-91694030D01*
X144567850Y-91704520D01*
X144588893Y-91717132D01*
X144608599Y-91731747D01*
X144626777Y-91748223D01*
X144643253Y-91766401D01*
X144657868Y-91786107D01*
X144670480Y-91807150D01*
X144680970Y-91829329D01*
X144689235Y-91852428D01*
X144695196Y-91876227D01*
X144698796Y-91900495D01*
X144700000Y-91924999D01*
X144700000Y-92575001D01*
X144698796Y-92599505D01*
X144695196Y-92623773D01*
X144689235Y-92647572D01*
X144680970Y-92670671D01*
X144670480Y-92692850D01*
X144657868Y-92713893D01*
X144643253Y-92733599D01*
X144626777Y-92751777D01*
X144608599Y-92768253D01*
X144588893Y-92782868D01*
X144567850Y-92795480D01*
X144545671Y-92805970D01*
X144522572Y-92814235D01*
X144498773Y-92820196D01*
X144474505Y-92823796D01*
X144450001Y-92825000D01*
X143549999Y-92825000D01*
X143525495Y-92823796D01*
X143501227Y-92820196D01*
X143477428Y-92814235D01*
X143454329Y-92805970D01*
X143432150Y-92795480D01*
X143411107Y-92782868D01*
X143391401Y-92768253D01*
X143373223Y-92751777D01*
X143356747Y-92733599D01*
X143342132Y-92713893D01*
X143329520Y-92692850D01*
X143319030Y-92670671D01*
X143310765Y-92647572D01*
X143304804Y-92623773D01*
X143301204Y-92599505D01*
X143300000Y-92575001D01*
X143300000Y-91924999D01*
X143301204Y-91900495D01*
X143304804Y-91876227D01*
X143310765Y-91852428D01*
X143319030Y-91829329D01*
X143329520Y-91807150D01*
X143342132Y-91786107D01*
X143356747Y-91766401D01*
X143373223Y-91748223D01*
X143391401Y-91731747D01*
X143411107Y-91717132D01*
X143432150Y-91704520D01*
X143454329Y-91694030D01*
X143477428Y-91685765D01*
X143501227Y-91679804D01*
X143525495Y-91676204D01*
X143549999Y-91675000D01*
X144450001Y-91675000D01*
X144474505Y-91676204D01*
G37*
G36*
X144474505Y-93726204D02*
G01*
X144498773Y-93729804D01*
X144522572Y-93735765D01*
X144545671Y-93744030D01*
X144567850Y-93754520D01*
X144588893Y-93767132D01*
X144608599Y-93781747D01*
X144626777Y-93798223D01*
X144643253Y-93816401D01*
X144657868Y-93836107D01*
X144670480Y-93857150D01*
X144680970Y-93879329D01*
X144689235Y-93902428D01*
X144695196Y-93926227D01*
X144698796Y-93950495D01*
X144700000Y-93974999D01*
X144700000Y-94625001D01*
X144698796Y-94649505D01*
X144695196Y-94673773D01*
X144689235Y-94697572D01*
X144680970Y-94720671D01*
X144670480Y-94742850D01*
X144657868Y-94763893D01*
X144643253Y-94783599D01*
X144626777Y-94801777D01*
X144608599Y-94818253D01*
X144588893Y-94832868D01*
X144567850Y-94845480D01*
X144545671Y-94855970D01*
X144522572Y-94864235D01*
X144498773Y-94870196D01*
X144474505Y-94873796D01*
X144450001Y-94875000D01*
X143549999Y-94875000D01*
X143525495Y-94873796D01*
X143501227Y-94870196D01*
X143477428Y-94864235D01*
X143454329Y-94855970D01*
X143432150Y-94845480D01*
X143411107Y-94832868D01*
X143391401Y-94818253D01*
X143373223Y-94801777D01*
X143356747Y-94783599D01*
X143342132Y-94763893D01*
X143329520Y-94742850D01*
X143319030Y-94720671D01*
X143310765Y-94697572D01*
X143304804Y-94673773D01*
X143301204Y-94649505D01*
X143300000Y-94625001D01*
X143300000Y-93974999D01*
X143301204Y-93950495D01*
X143304804Y-93926227D01*
X143310765Y-93902428D01*
X143319030Y-93879329D01*
X143329520Y-93857150D01*
X143342132Y-93836107D01*
X143356747Y-93816401D01*
X143373223Y-93798223D01*
X143391401Y-93781747D01*
X143411107Y-93767132D01*
X143432150Y-93754520D01*
X143454329Y-93744030D01*
X143477428Y-93735765D01*
X143501227Y-93729804D01*
X143525495Y-93726204D01*
X143549999Y-93725000D01*
X144450001Y-93725000D01*
X144474505Y-93726204D01*
G37*
G36*
X137724505Y-79151204D02*
G01*
X137748773Y-79154804D01*
X137772572Y-79160765D01*
X137795671Y-79169030D01*
X137817850Y-79179520D01*
X137838893Y-79192132D01*
X137858599Y-79206747D01*
X137876777Y-79223223D01*
X137893253Y-79241401D01*
X137907868Y-79261107D01*
X137920480Y-79282150D01*
X137930970Y-79304329D01*
X137939235Y-79327428D01*
X137945196Y-79351227D01*
X137948796Y-79375495D01*
X137950000Y-79399999D01*
X137950000Y-80050001D01*
X137948796Y-80074505D01*
X137945196Y-80098773D01*
X137939235Y-80122572D01*
X137930970Y-80145671D01*
X137920480Y-80167850D01*
X137907868Y-80188893D01*
X137893253Y-80208599D01*
X137876777Y-80226777D01*
X137858599Y-80243253D01*
X137838893Y-80257868D01*
X137817850Y-80270480D01*
X137795671Y-80280970D01*
X137772572Y-80289235D01*
X137748773Y-80295196D01*
X137724505Y-80298796D01*
X137700001Y-80300000D01*
X136799999Y-80300000D01*
X136775495Y-80298796D01*
X136751227Y-80295196D01*
X136727428Y-80289235D01*
X136704329Y-80280970D01*
X136682150Y-80270480D01*
X136661107Y-80257868D01*
X136641401Y-80243253D01*
X136623223Y-80226777D01*
X136606747Y-80208599D01*
X136592132Y-80188893D01*
X136579520Y-80167850D01*
X136569030Y-80145671D01*
X136560765Y-80122572D01*
X136554804Y-80098773D01*
X136551204Y-80074505D01*
X136550000Y-80050001D01*
X136550000Y-79399999D01*
X136551204Y-79375495D01*
X136554804Y-79351227D01*
X136560765Y-79327428D01*
X136569030Y-79304329D01*
X136579520Y-79282150D01*
X136592132Y-79261107D01*
X136606747Y-79241401D01*
X136623223Y-79223223D01*
X136641401Y-79206747D01*
X136661107Y-79192132D01*
X136682150Y-79179520D01*
X136704329Y-79169030D01*
X136727428Y-79160765D01*
X136751227Y-79154804D01*
X136775495Y-79151204D01*
X136799999Y-79150000D01*
X137700001Y-79150000D01*
X137724505Y-79151204D01*
G37*
G36*
X137724505Y-81201204D02*
G01*
X137748773Y-81204804D01*
X137772572Y-81210765D01*
X137795671Y-81219030D01*
X137817850Y-81229520D01*
X137838893Y-81242132D01*
X137858599Y-81256747D01*
X137876777Y-81273223D01*
X137893253Y-81291401D01*
X137907868Y-81311107D01*
X137920480Y-81332150D01*
X137930970Y-81354329D01*
X137939235Y-81377428D01*
X137945196Y-81401227D01*
X137948796Y-81425495D01*
X137950000Y-81449999D01*
X137950000Y-82100001D01*
X137948796Y-82124505D01*
X137945196Y-82148773D01*
X137939235Y-82172572D01*
X137930970Y-82195671D01*
X137920480Y-82217850D01*
X137907868Y-82238893D01*
X137893253Y-82258599D01*
X137876777Y-82276777D01*
X137858599Y-82293253D01*
X137838893Y-82307868D01*
X137817850Y-82320480D01*
X137795671Y-82330970D01*
X137772572Y-82339235D01*
X137748773Y-82345196D01*
X137724505Y-82348796D01*
X137700001Y-82350000D01*
X136799999Y-82350000D01*
X136775495Y-82348796D01*
X136751227Y-82345196D01*
X136727428Y-82339235D01*
X136704329Y-82330970D01*
X136682150Y-82320480D01*
X136661107Y-82307868D01*
X136641401Y-82293253D01*
X136623223Y-82276777D01*
X136606747Y-82258599D01*
X136592132Y-82238893D01*
X136579520Y-82217850D01*
X136569030Y-82195671D01*
X136560765Y-82172572D01*
X136554804Y-82148773D01*
X136551204Y-82124505D01*
X136550000Y-82100001D01*
X136550000Y-81449999D01*
X136551204Y-81425495D01*
X136554804Y-81401227D01*
X136560765Y-81377428D01*
X136569030Y-81354329D01*
X136579520Y-81332150D01*
X136592132Y-81311107D01*
X136606747Y-81291401D01*
X136623223Y-81273223D01*
X136641401Y-81256747D01*
X136661107Y-81242132D01*
X136682150Y-81229520D01*
X136704329Y-81219030D01*
X136727428Y-81210765D01*
X136751227Y-81204804D01*
X136775495Y-81201204D01*
X136799999Y-81200000D01*
X137700001Y-81200000D01*
X137724505Y-81201204D01*
G37*
G36*
X149010779Y-93476144D02*
G01*
X149033834Y-93479563D01*
X149056443Y-93485227D01*
X149078387Y-93493079D01*
X149099457Y-93503044D01*
X149119448Y-93515026D01*
X149138168Y-93528910D01*
X149155438Y-93544562D01*
X149171090Y-93561832D01*
X149184974Y-93580552D01*
X149196956Y-93600543D01*
X149206921Y-93621613D01*
X149214773Y-93643557D01*
X149220437Y-93666166D01*
X149223856Y-93689221D01*
X149225000Y-93712500D01*
X149225000Y-94287500D01*
X149223856Y-94310779D01*
X149220437Y-94333834D01*
X149214773Y-94356443D01*
X149206921Y-94378387D01*
X149196956Y-94399457D01*
X149184974Y-94419448D01*
X149171090Y-94438168D01*
X149155438Y-94455438D01*
X149138168Y-94471090D01*
X149119448Y-94484974D01*
X149099457Y-94496956D01*
X149078387Y-94506921D01*
X149056443Y-94514773D01*
X149033834Y-94520437D01*
X149010779Y-94523856D01*
X148987500Y-94525000D01*
X148512500Y-94525000D01*
X148489221Y-94523856D01*
X148466166Y-94520437D01*
X148443557Y-94514773D01*
X148421613Y-94506921D01*
X148400543Y-94496956D01*
X148380552Y-94484974D01*
X148361832Y-94471090D01*
X148344562Y-94455438D01*
X148328910Y-94438168D01*
X148315026Y-94419448D01*
X148303044Y-94399457D01*
X148293079Y-94378387D01*
X148285227Y-94356443D01*
X148279563Y-94333834D01*
X148276144Y-94310779D01*
X148275000Y-94287500D01*
X148275000Y-93712500D01*
X148276144Y-93689221D01*
X148279563Y-93666166D01*
X148285227Y-93643557D01*
X148293079Y-93621613D01*
X148303044Y-93600543D01*
X148315026Y-93580552D01*
X148328910Y-93561832D01*
X148344562Y-93544562D01*
X148361832Y-93528910D01*
X148380552Y-93515026D01*
X148400543Y-93503044D01*
X148421613Y-93493079D01*
X148443557Y-93485227D01*
X148466166Y-93479563D01*
X148489221Y-93476144D01*
X148512500Y-93475000D01*
X148987500Y-93475000D01*
X149010779Y-93476144D01*
G37*
G36*
X149010779Y-91726144D02*
G01*
X149033834Y-91729563D01*
X149056443Y-91735227D01*
X149078387Y-91743079D01*
X149099457Y-91753044D01*
X149119448Y-91765026D01*
X149138168Y-91778910D01*
X149155438Y-91794562D01*
X149171090Y-91811832D01*
X149184974Y-91830552D01*
X149196956Y-91850543D01*
X149206921Y-91871613D01*
X149214773Y-91893557D01*
X149220437Y-91916166D01*
X149223856Y-91939221D01*
X149225000Y-91962500D01*
X149225000Y-92537500D01*
X149223856Y-92560779D01*
X149220437Y-92583834D01*
X149214773Y-92606443D01*
X149206921Y-92628387D01*
X149196956Y-92649457D01*
X149184974Y-92669448D01*
X149171090Y-92688168D01*
X149155438Y-92705438D01*
X149138168Y-92721090D01*
X149119448Y-92734974D01*
X149099457Y-92746956D01*
X149078387Y-92756921D01*
X149056443Y-92764773D01*
X149033834Y-92770437D01*
X149010779Y-92773856D01*
X148987500Y-92775000D01*
X148512500Y-92775000D01*
X148489221Y-92773856D01*
X148466166Y-92770437D01*
X148443557Y-92764773D01*
X148421613Y-92756921D01*
X148400543Y-92746956D01*
X148380552Y-92734974D01*
X148361832Y-92721090D01*
X148344562Y-92705438D01*
X148328910Y-92688168D01*
X148315026Y-92669448D01*
X148303044Y-92649457D01*
X148293079Y-92628387D01*
X148285227Y-92606443D01*
X148279563Y-92583834D01*
X148276144Y-92560779D01*
X148275000Y-92537500D01*
X148275000Y-91962500D01*
X148276144Y-91939221D01*
X148279563Y-91916166D01*
X148285227Y-91893557D01*
X148293079Y-91871613D01*
X148303044Y-91850543D01*
X148315026Y-91830552D01*
X148328910Y-91811832D01*
X148344562Y-91794562D01*
X148361832Y-91778910D01*
X148380552Y-91765026D01*
X148400543Y-91753044D01*
X148421613Y-91743079D01*
X148443557Y-91735227D01*
X148466166Y-91729563D01*
X148489221Y-91726144D01*
X148512500Y-91725000D01*
X148987500Y-91725000D01*
X149010779Y-91726144D01*
G37*
G36*
X150760779Y-93476144D02*
G01*
X150783834Y-93479563D01*
X150806443Y-93485227D01*
X150828387Y-93493079D01*
X150849457Y-93503044D01*
X150869448Y-93515026D01*
X150888168Y-93528910D01*
X150905438Y-93544562D01*
X150921090Y-93561832D01*
X150934974Y-93580552D01*
X150946956Y-93600543D01*
X150956921Y-93621613D01*
X150964773Y-93643557D01*
X150970437Y-93666166D01*
X150973856Y-93689221D01*
X150975000Y-93712500D01*
X150975000Y-94287500D01*
X150973856Y-94310779D01*
X150970437Y-94333834D01*
X150964773Y-94356443D01*
X150956921Y-94378387D01*
X150946956Y-94399457D01*
X150934974Y-94419448D01*
X150921090Y-94438168D01*
X150905438Y-94455438D01*
X150888168Y-94471090D01*
X150869448Y-94484974D01*
X150849457Y-94496956D01*
X150828387Y-94506921D01*
X150806443Y-94514773D01*
X150783834Y-94520437D01*
X150760779Y-94523856D01*
X150737500Y-94525000D01*
X150262500Y-94525000D01*
X150239221Y-94523856D01*
X150216166Y-94520437D01*
X150193557Y-94514773D01*
X150171613Y-94506921D01*
X150150543Y-94496956D01*
X150130552Y-94484974D01*
X150111832Y-94471090D01*
X150094562Y-94455438D01*
X150078910Y-94438168D01*
X150065026Y-94419448D01*
X150053044Y-94399457D01*
X150043079Y-94378387D01*
X150035227Y-94356443D01*
X150029563Y-94333834D01*
X150026144Y-94310779D01*
X150025000Y-94287500D01*
X150025000Y-93712500D01*
X150026144Y-93689221D01*
X150029563Y-93666166D01*
X150035227Y-93643557D01*
X150043079Y-93621613D01*
X150053044Y-93600543D01*
X150065026Y-93580552D01*
X150078910Y-93561832D01*
X150094562Y-93544562D01*
X150111832Y-93528910D01*
X150130552Y-93515026D01*
X150150543Y-93503044D01*
X150171613Y-93493079D01*
X150193557Y-93485227D01*
X150216166Y-93479563D01*
X150239221Y-93476144D01*
X150262500Y-93475000D01*
X150737500Y-93475000D01*
X150760779Y-93476144D01*
G37*
G36*
X150760779Y-91726144D02*
G01*
X150783834Y-91729563D01*
X150806443Y-91735227D01*
X150828387Y-91743079D01*
X150849457Y-91753044D01*
X150869448Y-91765026D01*
X150888168Y-91778910D01*
X150905438Y-91794562D01*
X150921090Y-91811832D01*
X150934974Y-91830552D01*
X150946956Y-91850543D01*
X150956921Y-91871613D01*
X150964773Y-91893557D01*
X150970437Y-91916166D01*
X150973856Y-91939221D01*
X150975000Y-91962500D01*
X150975000Y-92537500D01*
X150973856Y-92560779D01*
X150970437Y-92583834D01*
X150964773Y-92606443D01*
X150956921Y-92628387D01*
X150946956Y-92649457D01*
X150934974Y-92669448D01*
X150921090Y-92688168D01*
X150905438Y-92705438D01*
X150888168Y-92721090D01*
X150869448Y-92734974D01*
X150849457Y-92746956D01*
X150828387Y-92756921D01*
X150806443Y-92764773D01*
X150783834Y-92770437D01*
X150760779Y-92773856D01*
X150737500Y-92775000D01*
X150262500Y-92775000D01*
X150239221Y-92773856D01*
X150216166Y-92770437D01*
X150193557Y-92764773D01*
X150171613Y-92756921D01*
X150150543Y-92746956D01*
X150130552Y-92734974D01*
X150111832Y-92721090D01*
X150094562Y-92705438D01*
X150078910Y-92688168D01*
X150065026Y-92669448D01*
X150053044Y-92649457D01*
X150043079Y-92628387D01*
X150035227Y-92606443D01*
X150029563Y-92583834D01*
X150026144Y-92560779D01*
X150025000Y-92537500D01*
X150025000Y-91962500D01*
X150026144Y-91939221D01*
X150029563Y-91916166D01*
X150035227Y-91893557D01*
X150043079Y-91871613D01*
X150053044Y-91850543D01*
X150065026Y-91830552D01*
X150078910Y-91811832D01*
X150094562Y-91794562D01*
X150111832Y-91778910D01*
X150130552Y-91765026D01*
X150150543Y-91753044D01*
X150171613Y-91743079D01*
X150193557Y-91735227D01*
X150216166Y-91729563D01*
X150239221Y-91726144D01*
X150262500Y-91725000D01*
X150737500Y-91725000D01*
X150760779Y-91726144D01*
G37*
G36*
X139474505Y-93726204D02*
G01*
X139498773Y-93729804D01*
X139522572Y-93735765D01*
X139545671Y-93744030D01*
X139567850Y-93754520D01*
X139588893Y-93767132D01*
X139608599Y-93781747D01*
X139626777Y-93798223D01*
X139643253Y-93816401D01*
X139657868Y-93836107D01*
X139670480Y-93857150D01*
X139680970Y-93879329D01*
X139689235Y-93902428D01*
X139695196Y-93926227D01*
X139698796Y-93950495D01*
X139700000Y-93974999D01*
X139700000Y-94625001D01*
X139698796Y-94649505D01*
X139695196Y-94673773D01*
X139689235Y-94697572D01*
X139680970Y-94720671D01*
X139670480Y-94742850D01*
X139657868Y-94763893D01*
X139643253Y-94783599D01*
X139626777Y-94801777D01*
X139608599Y-94818253D01*
X139588893Y-94832868D01*
X139567850Y-94845480D01*
X139545671Y-94855970D01*
X139522572Y-94864235D01*
X139498773Y-94870196D01*
X139474505Y-94873796D01*
X139450001Y-94875000D01*
X138549999Y-94875000D01*
X138525495Y-94873796D01*
X138501227Y-94870196D01*
X138477428Y-94864235D01*
X138454329Y-94855970D01*
X138432150Y-94845480D01*
X138411107Y-94832868D01*
X138391401Y-94818253D01*
X138373223Y-94801777D01*
X138356747Y-94783599D01*
X138342132Y-94763893D01*
X138329520Y-94742850D01*
X138319030Y-94720671D01*
X138310765Y-94697572D01*
X138304804Y-94673773D01*
X138301204Y-94649505D01*
X138300000Y-94625001D01*
X138300000Y-93974999D01*
X138301204Y-93950495D01*
X138304804Y-93926227D01*
X138310765Y-93902428D01*
X138319030Y-93879329D01*
X138329520Y-93857150D01*
X138342132Y-93836107D01*
X138356747Y-93816401D01*
X138373223Y-93798223D01*
X138391401Y-93781747D01*
X138411107Y-93767132D01*
X138432150Y-93754520D01*
X138454329Y-93744030D01*
X138477428Y-93735765D01*
X138501227Y-93729804D01*
X138525495Y-93726204D01*
X138549999Y-93725000D01*
X139450001Y-93725000D01*
X139474505Y-93726204D01*
G37*
G36*
X139474505Y-91676204D02*
G01*
X139498773Y-91679804D01*
X139522572Y-91685765D01*
X139545671Y-91694030D01*
X139567850Y-91704520D01*
X139588893Y-91717132D01*
X139608599Y-91731747D01*
X139626777Y-91748223D01*
X139643253Y-91766401D01*
X139657868Y-91786107D01*
X139670480Y-91807150D01*
X139680970Y-91829329D01*
X139689235Y-91852428D01*
X139695196Y-91876227D01*
X139698796Y-91900495D01*
X139700000Y-91924999D01*
X139700000Y-92575001D01*
X139698796Y-92599505D01*
X139695196Y-92623773D01*
X139689235Y-92647572D01*
X139680970Y-92670671D01*
X139670480Y-92692850D01*
X139657868Y-92713893D01*
X139643253Y-92733599D01*
X139626777Y-92751777D01*
X139608599Y-92768253D01*
X139588893Y-92782868D01*
X139567850Y-92795480D01*
X139545671Y-92805970D01*
X139522572Y-92814235D01*
X139498773Y-92820196D01*
X139474505Y-92823796D01*
X139450001Y-92825000D01*
X138549999Y-92825000D01*
X138525495Y-92823796D01*
X138501227Y-92820196D01*
X138477428Y-92814235D01*
X138454329Y-92805970D01*
X138432150Y-92795480D01*
X138411107Y-92782868D01*
X138391401Y-92768253D01*
X138373223Y-92751777D01*
X138356747Y-92733599D01*
X138342132Y-92713893D01*
X138329520Y-92692850D01*
X138319030Y-92670671D01*
X138310765Y-92647572D01*
X138304804Y-92623773D01*
X138301204Y-92599505D01*
X138300000Y-92575001D01*
X138300000Y-91924999D01*
X138301204Y-91900495D01*
X138304804Y-91876227D01*
X138310765Y-91852428D01*
X138319030Y-91829329D01*
X138329520Y-91807150D01*
X138342132Y-91786107D01*
X138356747Y-91766401D01*
X138373223Y-91748223D01*
X138391401Y-91731747D01*
X138411107Y-91717132D01*
X138432150Y-91704520D01*
X138454329Y-91694030D01*
X138477428Y-91685765D01*
X138501227Y-91679804D01*
X138525495Y-91676204D01*
X138549999Y-91675000D01*
X139450001Y-91675000D01*
X139474505Y-91676204D01*
G37*
G36*
X131074505Y-76301204D02*
G01*
X131098773Y-76304804D01*
X131122572Y-76310765D01*
X131145671Y-76319030D01*
X131167850Y-76329520D01*
X131188893Y-76342132D01*
X131208599Y-76356747D01*
X131226777Y-76373223D01*
X131243253Y-76391401D01*
X131257868Y-76411107D01*
X131270480Y-76432150D01*
X131280970Y-76454329D01*
X131289235Y-76477428D01*
X131295196Y-76501227D01*
X131298796Y-76525495D01*
X131300000Y-76549999D01*
X131300000Y-77200001D01*
X131298796Y-77224505D01*
X131295196Y-77248773D01*
X131289235Y-77272572D01*
X131280970Y-77295671D01*
X131270480Y-77317850D01*
X131257868Y-77338893D01*
X131243253Y-77358599D01*
X131226777Y-77376777D01*
X131208599Y-77393253D01*
X131188893Y-77407868D01*
X131167850Y-77420480D01*
X131145671Y-77430970D01*
X131122572Y-77439235D01*
X131098773Y-77445196D01*
X131074505Y-77448796D01*
X131050001Y-77450000D01*
X130149999Y-77450000D01*
X130125495Y-77448796D01*
X130101227Y-77445196D01*
X130077428Y-77439235D01*
X130054329Y-77430970D01*
X130032150Y-77420480D01*
X130011107Y-77407868D01*
X129991401Y-77393253D01*
X129973223Y-77376777D01*
X129956747Y-77358599D01*
X129942132Y-77338893D01*
X129929520Y-77317850D01*
X129919030Y-77295671D01*
X129910765Y-77272572D01*
X129904804Y-77248773D01*
X129901204Y-77224505D01*
X129900000Y-77200001D01*
X129900000Y-76549999D01*
X129901204Y-76525495D01*
X129904804Y-76501227D01*
X129910765Y-76477428D01*
X129919030Y-76454329D01*
X129929520Y-76432150D01*
X129942132Y-76411107D01*
X129956747Y-76391401D01*
X129973223Y-76373223D01*
X129991401Y-76356747D01*
X130011107Y-76342132D01*
X130032150Y-76329520D01*
X130054329Y-76319030D01*
X130077428Y-76310765D01*
X130101227Y-76304804D01*
X130125495Y-76301204D01*
X130149999Y-76300000D01*
X131050001Y-76300000D01*
X131074505Y-76301204D01*
G37*
G36*
X131074505Y-78351204D02*
G01*
X131098773Y-78354804D01*
X131122572Y-78360765D01*
X131145671Y-78369030D01*
X131167850Y-78379520D01*
X131188893Y-78392132D01*
X131208599Y-78406747D01*
X131226777Y-78423223D01*
X131243253Y-78441401D01*
X131257868Y-78461107D01*
X131270480Y-78482150D01*
X131280970Y-78504329D01*
X131289235Y-78527428D01*
X131295196Y-78551227D01*
X131298796Y-78575495D01*
X131300000Y-78599999D01*
X131300000Y-79250001D01*
X131298796Y-79274505D01*
X131295196Y-79298773D01*
X131289235Y-79322572D01*
X131280970Y-79345671D01*
X131270480Y-79367850D01*
X131257868Y-79388893D01*
X131243253Y-79408599D01*
X131226777Y-79426777D01*
X131208599Y-79443253D01*
X131188893Y-79457868D01*
X131167850Y-79470480D01*
X131145671Y-79480970D01*
X131122572Y-79489235D01*
X131098773Y-79495196D01*
X131074505Y-79498796D01*
X131050001Y-79500000D01*
X130149999Y-79500000D01*
X130125495Y-79498796D01*
X130101227Y-79495196D01*
X130077428Y-79489235D01*
X130054329Y-79480970D01*
X130032150Y-79470480D01*
X130011107Y-79457868D01*
X129991401Y-79443253D01*
X129973223Y-79426777D01*
X129956747Y-79408599D01*
X129942132Y-79388893D01*
X129929520Y-79367850D01*
X129919030Y-79345671D01*
X129910765Y-79322572D01*
X129904804Y-79298773D01*
X129901204Y-79274505D01*
X129900000Y-79250001D01*
X129900000Y-78599999D01*
X129901204Y-78575495D01*
X129904804Y-78551227D01*
X129910765Y-78527428D01*
X129919030Y-78504329D01*
X129929520Y-78482150D01*
X129942132Y-78461107D01*
X129956747Y-78441401D01*
X129973223Y-78423223D01*
X129991401Y-78406747D01*
X130011107Y-78392132D01*
X130032150Y-78379520D01*
X130054329Y-78369030D01*
X130077428Y-78360765D01*
X130101227Y-78354804D01*
X130125495Y-78351204D01*
X130149999Y-78350000D01*
X131050001Y-78350000D01*
X131074505Y-78351204D01*
G37*
M02*
