M48
; DRILL file {KiCad (6.0.1-0)} date 2022 March 11, Friday 23:22:43
; FORMAT={-:-/ absolute / metric / decimal}
; #@! TF.CreationDate,2022-03-11T23:22:43+01:00
; #@! TF.GenerationSoftware,Kicad,Pcbnew,(6.0.1-0)
; #@! TF.FileFunction,Plated,1,2,PTH
FMAT,2
METRIC
; #@! TA.AperFunction,Plated,PTH,ViaDrill
T1C0.400
%
G90
G05
T1
X116.95Y-74.3
X121.5Y-101.25
X124.0Y-92.0
X124.75Y-87.0
X124.75Y-88.0
X126.0Y-94.0
X127.5Y-97.5
X127.75Y-108.25
X129.5Y-92.5
X129.5Y-94.25
X130.5Y-111.25
X131.0Y-101.0
X132.25Y-79.5
X133.75Y-97.25
X135.0Y-89.75
X136.0Y-78.25
X137.25Y-78.25
X137.25Y-83.5
X138.502Y-95.741
X139.5Y-73.5
X139.8Y-97.4
X141.8Y-84.13
X144.5Y-97.25
X148.75Y-109.0
X150.5Y-89.0
X150.75Y-95.75
T0
M30
