M48
; DRILL file {KiCad (5.1.5)-3} date 12/13/21 18:27:52
; FORMAT={-:-/ absolute / metric / decimal}
; #@! TF.CreationDate,2021-12-13T18:27:52+01:00
; #@! TF.GenerationSoftware,Kicad,Pcbnew,(5.1.5)-3
FMAT,2
METRIC
T1C0.400
T2C2.200
%
G90
G05
T1
X121.5Y-101.25
X124.0Y-92.0
X124.75Y-87.0
X124.75Y-88.0
X126.0Y-94.0
X127.5Y-97.5
X127.75Y-108.25
X129.5Y-92.5
X129.5Y-94.25
X130.5Y-111.25
X131.0Y-101.0
X132.25Y-79.5
X133.75Y-97.25
X135.0Y-89.75
X136.0Y-78.25
X137.25Y-78.25
X137.25Y-83.5
X138.502Y-95.741
X139.5Y-73.5
X139.8Y-97.4
X141.8Y-84.13
X144.5Y-97.25
X148.75Y-109.0
X150.5Y-89.0
X150.75Y-95.75
T2
X140.87Y-117.35
X121.57Y-65.05
X160.36Y-65.04
T0
M30
