G04 #@! TF.GenerationSoftware,KiCad,Pcbnew,(6.0.1-0)*
G04 #@! TF.CreationDate,2022-03-11T23:22:37+01:00*
G04 #@! TF.ProjectId,LidPCB,4c696450-4342-42e6-9b69-6361645f7063,rev?*
G04 #@! TF.SameCoordinates,Original*
G04 #@! TF.FileFunction,Copper,L2,Bot*
G04 #@! TF.FilePolarity,Positive*
%FSLAX46Y46*%
G04 Gerber Fmt 4.6, Leading zero omitted, Abs format (unit mm)*
G04 Created by KiCad (PCBNEW (6.0.1-0)) date 2022-03-11 23:22:37*
%MOMM*%
%LPD*%
G01*
G04 APERTURE LIST*
G04 #@! TA.AperFunction,ViaPad*
%ADD10C,0.800000*%
G04 #@! TD*
G04 #@! TA.AperFunction,Conductor*
%ADD11C,0.250000*%
G04 #@! TD*
G04 APERTURE END LIST*
D10*
X116950000Y-74300000D03*
X135000000Y-89750000D03*
X129500000Y-92500000D03*
X137250000Y-83500000D03*
X131000000Y-101000000D03*
X139800000Y-97400000D03*
X144500000Y-97250000D03*
X150750000Y-95750000D03*
X121500000Y-101250000D03*
X133750000Y-97250000D03*
X132250000Y-79500000D03*
X139500000Y-73500000D03*
X137250000Y-78250000D03*
X150500000Y-89000000D03*
X136000000Y-78250000D03*
X141800000Y-84130000D03*
X138501907Y-95741100D03*
X124750000Y-88000000D03*
X129500000Y-94250000D03*
X124000000Y-92000000D03*
X126000000Y-94000000D03*
X127500000Y-97500000D03*
X124750000Y-87000000D03*
X148750000Y-109000000D03*
X127750000Y-108250000D03*
X130500000Y-111250000D03*
D11*
X137250000Y-87500000D02*
X135000000Y-89750000D01*
X131000000Y-94000000D02*
X131000000Y-101000000D01*
X129500000Y-92500000D02*
X131000000Y-94000000D01*
X137250000Y-83500000D02*
X137250000Y-87500000D01*
X141800000Y-84050000D02*
X141800000Y-84130000D01*
X136000000Y-78250000D02*
X141800000Y-84050000D01*
X138101908Y-95341101D02*
X135841101Y-95341101D01*
X128500000Y-88000000D02*
X135841101Y-95341101D01*
X138501907Y-95741100D02*
X138101908Y-95341101D01*
X128500000Y-88000000D02*
X124750000Y-88000000D01*
X126250000Y-94250000D02*
X126000000Y-94000000D01*
X129500000Y-94250000D02*
X126250000Y-94250000D01*
X124000000Y-92000000D02*
X126000000Y-94000000D01*
X124750000Y-87000000D02*
X124000000Y-87000000D01*
X124000000Y-87000000D02*
X123750000Y-87000000D01*
X123000000Y-93000000D02*
X127500000Y-97500000D01*
X123000000Y-87750000D02*
X123000000Y-92073002D01*
X123750000Y-87000000D02*
X123000000Y-87750000D01*
X123000000Y-92073002D02*
X123000000Y-93000000D01*
G04 #@! TA.AperFunction,Conductor*
G36*
X167942121Y-68020002D02*
G01*
X167988614Y-68073658D01*
X168000000Y-68126000D01*
X168000000Y-101874000D01*
X167979998Y-101942121D01*
X167926342Y-101988614D01*
X167874000Y-102000000D01*
X131557038Y-102000000D01*
X131488917Y-101979998D01*
X131442424Y-101926342D01*
X131432320Y-101856068D01*
X131461814Y-101791488D01*
X131482977Y-101772064D01*
X131605909Y-101682749D01*
X131605911Y-101682747D01*
X131611253Y-101678866D01*
X131739040Y-101536944D01*
X131834527Y-101371556D01*
X131893542Y-101189928D01*
X131913504Y-101000000D01*
X131893542Y-100810072D01*
X131834527Y-100628444D01*
X131739040Y-100463056D01*
X131665863Y-100381785D01*
X131635147Y-100317779D01*
X131633500Y-100297476D01*
X131633500Y-94078763D01*
X131634027Y-94067579D01*
X131635701Y-94060091D01*
X131633562Y-93992032D01*
X131633500Y-93988075D01*
X131633500Y-93960144D01*
X131632994Y-93956138D01*
X131632061Y-93944292D01*
X131630922Y-93908037D01*
X131630673Y-93900110D01*
X131625022Y-93880658D01*
X131621014Y-93861306D01*
X131619467Y-93849063D01*
X131618474Y-93841203D01*
X131615556Y-93833832D01*
X131602200Y-93800097D01*
X131598355Y-93788870D01*
X131597721Y-93786687D01*
X131586018Y-93746407D01*
X131581984Y-93739585D01*
X131581981Y-93739579D01*
X131575706Y-93728968D01*
X131567010Y-93711218D01*
X131562472Y-93699756D01*
X131562469Y-93699751D01*
X131559552Y-93692383D01*
X131533573Y-93656625D01*
X131527057Y-93646707D01*
X131508575Y-93615457D01*
X131504542Y-93608637D01*
X131490218Y-93594313D01*
X131477376Y-93579278D01*
X131465472Y-93562893D01*
X131431406Y-93534711D01*
X131422627Y-93526722D01*
X130447122Y-92551217D01*
X130413096Y-92488905D01*
X130410907Y-92475292D01*
X130394232Y-92316635D01*
X130394232Y-92316633D01*
X130393542Y-92310072D01*
X130334527Y-92128444D01*
X130239040Y-91963056D01*
X130111253Y-91821134D01*
X129956752Y-91708882D01*
X129950724Y-91706198D01*
X129950722Y-91706197D01*
X129788319Y-91633891D01*
X129788318Y-91633891D01*
X129782288Y-91631206D01*
X129688887Y-91611353D01*
X129601944Y-91592872D01*
X129601939Y-91592872D01*
X129595487Y-91591500D01*
X129404513Y-91591500D01*
X129398061Y-91592872D01*
X129398056Y-91592872D01*
X129311113Y-91611353D01*
X129217712Y-91631206D01*
X129211682Y-91633891D01*
X129211681Y-91633891D01*
X129049278Y-91706197D01*
X129049276Y-91706198D01*
X129043248Y-91708882D01*
X128888747Y-91821134D01*
X128760960Y-91963056D01*
X128665473Y-92128444D01*
X128606458Y-92310072D01*
X128586496Y-92500000D01*
X128606458Y-92689928D01*
X128665473Y-92871556D01*
X128760960Y-93036944D01*
X128765378Y-93041851D01*
X128765379Y-93041852D01*
X128811318Y-93092872D01*
X128888747Y-93178866D01*
X128894089Y-93182747D01*
X128894091Y-93182749D01*
X129018399Y-93273064D01*
X129061753Y-93329286D01*
X129067828Y-93400023D01*
X129034696Y-93462814D01*
X129018400Y-93476936D01*
X128888747Y-93571134D01*
X128884332Y-93576037D01*
X128879420Y-93580460D01*
X128878295Y-93579211D01*
X128824986Y-93612051D01*
X128791800Y-93616500D01*
X126900377Y-93616500D01*
X126832256Y-93596498D01*
X126791258Y-93553500D01*
X126775798Y-93526722D01*
X126739040Y-93463056D01*
X126720224Y-93442158D01*
X126615675Y-93326045D01*
X126615674Y-93326044D01*
X126611253Y-93321134D01*
X126456752Y-93208882D01*
X126450724Y-93206198D01*
X126450722Y-93206197D01*
X126288319Y-93133891D01*
X126288318Y-93133891D01*
X126282288Y-93131206D01*
X126170747Y-93107497D01*
X126101944Y-93092872D01*
X126101939Y-93092872D01*
X126095487Y-93091500D01*
X126039594Y-93091500D01*
X125971473Y-93071498D01*
X125950499Y-93054595D01*
X124947122Y-92051217D01*
X124913096Y-91988905D01*
X124910907Y-91975292D01*
X124894232Y-91816635D01*
X124894232Y-91816633D01*
X124893542Y-91810072D01*
X124834527Y-91628444D01*
X124813990Y-91592872D01*
X124742341Y-91468774D01*
X124739040Y-91463056D01*
X124611253Y-91321134D01*
X124456752Y-91208882D01*
X124450724Y-91206198D01*
X124450722Y-91206197D01*
X124288319Y-91133891D01*
X124288318Y-91133891D01*
X124282288Y-91131206D01*
X124188888Y-91111353D01*
X124101944Y-91092872D01*
X124101939Y-91092872D01*
X124095487Y-91091500D01*
X123904513Y-91091500D01*
X123898061Y-91092872D01*
X123898056Y-91092872D01*
X123785697Y-91116755D01*
X123714906Y-91111353D01*
X123658273Y-91068536D01*
X123633780Y-91001898D01*
X123633500Y-90993508D01*
X123633500Y-88299265D01*
X123653502Y-88231144D01*
X123707158Y-88184651D01*
X123777432Y-88174547D01*
X123842012Y-88204041D01*
X123879333Y-88260329D01*
X123915473Y-88371556D01*
X124010960Y-88536944D01*
X124138747Y-88678866D01*
X124293248Y-88791118D01*
X124299276Y-88793802D01*
X124299278Y-88793803D01*
X124399942Y-88838621D01*
X124467712Y-88868794D01*
X124561112Y-88888647D01*
X124648056Y-88907128D01*
X124648061Y-88907128D01*
X124654513Y-88908500D01*
X124845487Y-88908500D01*
X124851939Y-88907128D01*
X124851944Y-88907128D01*
X124938888Y-88888647D01*
X125032288Y-88868794D01*
X125100058Y-88838621D01*
X125200722Y-88793803D01*
X125200724Y-88793802D01*
X125206752Y-88791118D01*
X125361253Y-88678866D01*
X125365668Y-88673963D01*
X125370580Y-88669540D01*
X125371705Y-88670789D01*
X125425014Y-88637949D01*
X125458200Y-88633500D01*
X128185406Y-88633500D01*
X128253527Y-88653502D01*
X128274501Y-88670405D01*
X135337444Y-95733348D01*
X135344988Y-95741638D01*
X135349101Y-95748119D01*
X135354878Y-95753544D01*
X135398768Y-95794759D01*
X135401610Y-95797514D01*
X135421332Y-95817236D01*
X135424456Y-95819659D01*
X135424460Y-95819663D01*
X135424525Y-95819713D01*
X135433546Y-95827418D01*
X135465780Y-95857687D01*
X135472728Y-95861506D01*
X135472730Y-95861508D01*
X135483533Y-95867447D01*
X135500060Y-95878303D01*
X135509799Y-95885858D01*
X135509801Y-95885859D01*
X135516061Y-95890715D01*
X135556641Y-95908275D01*
X135567289Y-95913492D01*
X135606041Y-95934796D01*
X135613717Y-95936767D01*
X135613720Y-95936768D01*
X135625663Y-95939834D01*
X135644368Y-95946238D01*
X135662956Y-95954282D01*
X135670779Y-95955521D01*
X135670789Y-95955524D01*
X135706625Y-95961200D01*
X135718245Y-95963606D01*
X135753390Y-95972629D01*
X135761071Y-95974601D01*
X135781325Y-95974601D01*
X135801035Y-95976152D01*
X135821044Y-95979321D01*
X135828936Y-95978575D01*
X135865062Y-95975160D01*
X135876920Y-95974601D01*
X137530979Y-95974601D01*
X137599100Y-95994603D01*
X137645593Y-96048259D01*
X137650812Y-96061664D01*
X137667380Y-96112656D01*
X137762867Y-96278044D01*
X137890654Y-96419966D01*
X138045155Y-96532218D01*
X138051183Y-96534902D01*
X138051185Y-96534903D01*
X138213588Y-96607209D01*
X138219619Y-96609894D01*
X138313020Y-96629747D01*
X138399963Y-96648228D01*
X138399968Y-96648228D01*
X138406420Y-96649600D01*
X138597394Y-96649600D01*
X138603846Y-96648228D01*
X138603851Y-96648228D01*
X138690794Y-96629747D01*
X138784195Y-96609894D01*
X138790226Y-96607209D01*
X138952629Y-96534903D01*
X138952631Y-96534902D01*
X138958659Y-96532218D01*
X139113160Y-96419966D01*
X139240947Y-96278044D01*
X139336434Y-96112656D01*
X139395449Y-95931028D01*
X139399356Y-95893860D01*
X139414721Y-95747665D01*
X139415411Y-95741100D01*
X139395449Y-95551172D01*
X139336434Y-95369544D01*
X139240947Y-95204156D01*
X139113160Y-95062234D01*
X138958659Y-94949982D01*
X138952631Y-94947298D01*
X138952629Y-94947297D01*
X138790226Y-94874991D01*
X138790225Y-94874991D01*
X138784195Y-94872306D01*
X138689021Y-94852076D01*
X138603851Y-94833972D01*
X138603846Y-94833972D01*
X138597394Y-94832600D01*
X138524288Y-94832600D01*
X138463577Y-94817009D01*
X138459467Y-94814749D01*
X138442955Y-94803902D01*
X138442491Y-94803542D01*
X138426949Y-94791487D01*
X138419680Y-94788342D01*
X138419676Y-94788339D01*
X138386371Y-94773927D01*
X138375721Y-94768710D01*
X138336968Y-94747406D01*
X138317345Y-94742368D01*
X138298642Y-94735964D01*
X138287328Y-94731068D01*
X138287327Y-94731068D01*
X138280053Y-94727920D01*
X138272230Y-94726681D01*
X138272220Y-94726678D01*
X138236384Y-94721002D01*
X138224764Y-94718596D01*
X138189619Y-94709573D01*
X138189618Y-94709573D01*
X138181938Y-94707601D01*
X138161684Y-94707601D01*
X138141973Y-94706050D01*
X138129794Y-94704121D01*
X138121965Y-94702881D01*
X138114073Y-94703627D01*
X138077947Y-94707042D01*
X138066089Y-94707601D01*
X136155695Y-94707601D01*
X136087574Y-94687599D01*
X136066600Y-94670696D01*
X131145905Y-89750000D01*
X134086496Y-89750000D01*
X134106458Y-89939928D01*
X134165473Y-90121556D01*
X134260960Y-90286944D01*
X134388747Y-90428866D01*
X134543248Y-90541118D01*
X134549276Y-90543802D01*
X134549278Y-90543803D01*
X134711681Y-90616109D01*
X134717712Y-90618794D01*
X134811113Y-90638647D01*
X134898056Y-90657128D01*
X134898061Y-90657128D01*
X134904513Y-90658500D01*
X135095487Y-90658500D01*
X135101939Y-90657128D01*
X135101944Y-90657128D01*
X135188887Y-90638647D01*
X135282288Y-90618794D01*
X135288319Y-90616109D01*
X135450722Y-90543803D01*
X135450724Y-90543802D01*
X135456752Y-90541118D01*
X135611253Y-90428866D01*
X135739040Y-90286944D01*
X135834527Y-90121556D01*
X135893542Y-89939928D01*
X135910907Y-89774706D01*
X135937920Y-89709050D01*
X135947122Y-89698782D01*
X137642247Y-88003657D01*
X137650537Y-87996113D01*
X137657018Y-87992000D01*
X137703659Y-87942332D01*
X137706413Y-87939491D01*
X137726135Y-87919769D01*
X137728612Y-87916576D01*
X137736317Y-87907555D01*
X137761159Y-87881100D01*
X137766586Y-87875321D01*
X137770407Y-87868371D01*
X137776346Y-87857568D01*
X137787202Y-87841041D01*
X137794757Y-87831302D01*
X137794758Y-87831300D01*
X137799614Y-87825040D01*
X137817174Y-87784460D01*
X137822391Y-87773812D01*
X137839875Y-87742009D01*
X137839876Y-87742007D01*
X137843695Y-87735060D01*
X137848733Y-87715437D01*
X137855137Y-87696734D01*
X137860033Y-87685420D01*
X137860033Y-87685419D01*
X137863181Y-87678145D01*
X137864420Y-87670322D01*
X137864423Y-87670312D01*
X137870099Y-87634476D01*
X137872505Y-87622856D01*
X137881528Y-87587711D01*
X137881528Y-87587710D01*
X137883500Y-87580030D01*
X137883500Y-87559776D01*
X137885051Y-87540065D01*
X137886980Y-87527886D01*
X137888220Y-87520057D01*
X137884059Y-87476038D01*
X137883500Y-87464181D01*
X137883500Y-84202524D01*
X137903502Y-84134403D01*
X137915858Y-84118221D01*
X137989040Y-84036944D01*
X138084527Y-83871556D01*
X138143542Y-83689928D01*
X138163504Y-83500000D01*
X138143542Y-83310072D01*
X138084527Y-83128444D01*
X137989040Y-82963056D01*
X137861253Y-82821134D01*
X137706752Y-82708882D01*
X137700724Y-82706198D01*
X137700722Y-82706197D01*
X137538319Y-82633891D01*
X137538318Y-82633891D01*
X137532288Y-82631206D01*
X137438887Y-82611353D01*
X137351944Y-82592872D01*
X137351939Y-82592872D01*
X137345487Y-82591500D01*
X137154513Y-82591500D01*
X137148061Y-82592872D01*
X137148056Y-82592872D01*
X137061113Y-82611353D01*
X136967712Y-82631206D01*
X136961682Y-82633891D01*
X136961681Y-82633891D01*
X136799278Y-82706197D01*
X136799276Y-82706198D01*
X136793248Y-82708882D01*
X136638747Y-82821134D01*
X136510960Y-82963056D01*
X136415473Y-83128444D01*
X136356458Y-83310072D01*
X136336496Y-83500000D01*
X136356458Y-83689928D01*
X136415473Y-83871556D01*
X136510960Y-84036944D01*
X136584137Y-84118215D01*
X136614853Y-84182221D01*
X136616500Y-84202524D01*
X136616500Y-87185406D01*
X136596498Y-87253527D01*
X136579595Y-87274501D01*
X135049500Y-88804595D01*
X134987188Y-88838621D01*
X134960405Y-88841500D01*
X134904513Y-88841500D01*
X134898061Y-88842872D01*
X134898056Y-88842872D01*
X134811113Y-88861353D01*
X134717712Y-88881206D01*
X134711682Y-88883891D01*
X134711681Y-88883891D01*
X134549278Y-88956197D01*
X134549276Y-88956198D01*
X134543248Y-88958882D01*
X134388747Y-89071134D01*
X134260960Y-89213056D01*
X134165473Y-89378444D01*
X134106458Y-89560072D01*
X134086496Y-89750000D01*
X131145905Y-89750000D01*
X129003652Y-87607747D01*
X128996112Y-87599461D01*
X128992000Y-87592982D01*
X128942348Y-87546356D01*
X128939507Y-87543602D01*
X128919770Y-87523865D01*
X128916573Y-87521385D01*
X128907551Y-87513680D01*
X128905938Y-87512165D01*
X128875321Y-87483414D01*
X128868375Y-87479595D01*
X128868372Y-87479593D01*
X128857566Y-87473652D01*
X128841047Y-87462801D01*
X128840583Y-87462441D01*
X128825041Y-87450386D01*
X128817772Y-87447241D01*
X128817768Y-87447238D01*
X128784463Y-87432826D01*
X128773813Y-87427609D01*
X128735060Y-87406305D01*
X128715437Y-87401267D01*
X128696734Y-87394863D01*
X128685420Y-87389967D01*
X128685419Y-87389967D01*
X128678145Y-87386819D01*
X128670322Y-87385580D01*
X128670312Y-87385577D01*
X128634476Y-87379901D01*
X128622856Y-87377495D01*
X128587711Y-87368472D01*
X128587710Y-87368472D01*
X128580030Y-87366500D01*
X128559776Y-87366500D01*
X128540065Y-87364949D01*
X128527886Y-87363020D01*
X128520057Y-87361780D01*
X128512165Y-87362526D01*
X128476039Y-87365941D01*
X128464181Y-87366500D01*
X125759594Y-87366500D01*
X125691473Y-87346498D01*
X125644980Y-87292842D01*
X125634876Y-87222568D01*
X125639762Y-87201562D01*
X125641502Y-87196208D01*
X125641503Y-87196203D01*
X125643542Y-87189928D01*
X125663504Y-87000000D01*
X125643542Y-86810072D01*
X125584527Y-86628444D01*
X125489040Y-86463056D01*
X125472881Y-86445109D01*
X125365675Y-86326045D01*
X125365674Y-86326044D01*
X125361253Y-86321134D01*
X125206752Y-86208882D01*
X125200724Y-86206198D01*
X125200722Y-86206197D01*
X125038319Y-86133891D01*
X125038318Y-86133891D01*
X125032288Y-86131206D01*
X124938888Y-86111353D01*
X124851944Y-86092872D01*
X124851939Y-86092872D01*
X124845487Y-86091500D01*
X124654513Y-86091500D01*
X124648061Y-86092872D01*
X124648056Y-86092872D01*
X124561112Y-86111353D01*
X124467712Y-86131206D01*
X124461682Y-86133891D01*
X124461681Y-86133891D01*
X124299278Y-86206197D01*
X124299276Y-86206198D01*
X124293248Y-86208882D01*
X124138747Y-86321134D01*
X124134332Y-86326037D01*
X124129420Y-86330460D01*
X124128295Y-86329211D01*
X124074986Y-86362051D01*
X124041800Y-86366500D01*
X123828767Y-86366500D01*
X123817584Y-86365973D01*
X123810091Y-86364298D01*
X123802165Y-86364547D01*
X123802164Y-86364547D01*
X123742014Y-86366438D01*
X123738055Y-86366500D01*
X123710144Y-86366500D01*
X123706210Y-86366997D01*
X123706209Y-86366997D01*
X123706144Y-86367005D01*
X123694307Y-86367938D01*
X123662490Y-86368938D01*
X123658029Y-86369078D01*
X123650110Y-86369327D01*
X123632454Y-86374456D01*
X123630658Y-86374978D01*
X123611306Y-86378986D01*
X123604235Y-86379880D01*
X123591203Y-86381526D01*
X123583834Y-86384443D01*
X123583832Y-86384444D01*
X123550097Y-86397800D01*
X123538869Y-86401645D01*
X123496407Y-86413982D01*
X123489585Y-86418016D01*
X123489579Y-86418019D01*
X123478968Y-86424294D01*
X123461218Y-86432990D01*
X123449756Y-86437528D01*
X123449751Y-86437531D01*
X123442383Y-86440448D01*
X123435968Y-86445109D01*
X123406625Y-86466427D01*
X123396707Y-86472943D01*
X123378019Y-86483995D01*
X123358637Y-86495458D01*
X123344313Y-86509782D01*
X123329281Y-86522621D01*
X123312893Y-86534528D01*
X123284712Y-86568593D01*
X123276722Y-86577373D01*
X122607747Y-87246348D01*
X122599461Y-87253888D01*
X122592982Y-87258000D01*
X122587557Y-87263777D01*
X122546357Y-87307651D01*
X122543602Y-87310493D01*
X122523865Y-87330230D01*
X122521385Y-87333427D01*
X122513682Y-87342447D01*
X122483414Y-87374679D01*
X122479595Y-87381625D01*
X122479593Y-87381628D01*
X122473652Y-87392434D01*
X122462801Y-87408953D01*
X122450386Y-87424959D01*
X122447241Y-87432228D01*
X122447238Y-87432232D01*
X122432826Y-87465537D01*
X122427609Y-87476187D01*
X122406305Y-87514940D01*
X122404334Y-87522615D01*
X122404334Y-87522616D01*
X122401267Y-87534562D01*
X122394863Y-87553266D01*
X122386819Y-87571855D01*
X122385580Y-87579678D01*
X122385577Y-87579688D01*
X122379901Y-87615524D01*
X122377495Y-87627144D01*
X122375613Y-87634476D01*
X122366500Y-87669970D01*
X122366500Y-87690224D01*
X122364949Y-87709934D01*
X122361780Y-87729943D01*
X122362526Y-87737835D01*
X122365941Y-87773961D01*
X122366500Y-87785819D01*
X122366500Y-92921233D01*
X122365973Y-92932416D01*
X122364298Y-92939909D01*
X122364547Y-92947835D01*
X122364547Y-92947836D01*
X122366438Y-93007986D01*
X122366500Y-93011945D01*
X122366500Y-93039856D01*
X122366997Y-93043790D01*
X122366997Y-93043791D01*
X122367005Y-93043856D01*
X122367938Y-93055693D01*
X122369327Y-93099889D01*
X122374978Y-93119339D01*
X122378987Y-93138700D01*
X122381526Y-93158797D01*
X122384445Y-93166168D01*
X122384445Y-93166170D01*
X122397804Y-93199912D01*
X122401649Y-93211142D01*
X122413982Y-93253593D01*
X122418015Y-93260412D01*
X122418017Y-93260417D01*
X122424293Y-93271028D01*
X122432988Y-93288776D01*
X122440448Y-93307617D01*
X122445110Y-93314033D01*
X122445110Y-93314034D01*
X122466436Y-93343387D01*
X122472952Y-93353307D01*
X122489452Y-93381206D01*
X122495458Y-93391362D01*
X122509779Y-93405683D01*
X122522619Y-93420716D01*
X122534528Y-93437107D01*
X122565602Y-93462814D01*
X122568605Y-93465298D01*
X122577384Y-93473288D01*
X126552878Y-97448783D01*
X126586904Y-97511095D01*
X126589093Y-97524706D01*
X126606458Y-97689928D01*
X126665473Y-97871556D01*
X126760960Y-98036944D01*
X126888747Y-98178866D01*
X127043248Y-98291118D01*
X127049276Y-98293802D01*
X127049278Y-98293803D01*
X127211681Y-98366109D01*
X127217712Y-98368794D01*
X127311113Y-98388647D01*
X127398056Y-98407128D01*
X127398061Y-98407128D01*
X127404513Y-98408500D01*
X127595487Y-98408500D01*
X127601939Y-98407128D01*
X127601944Y-98407128D01*
X127688887Y-98388647D01*
X127782288Y-98368794D01*
X127788319Y-98366109D01*
X127950722Y-98293803D01*
X127950724Y-98293802D01*
X127956752Y-98291118D01*
X128111253Y-98178866D01*
X128239040Y-98036944D01*
X128334527Y-97871556D01*
X128393542Y-97689928D01*
X128413504Y-97500000D01*
X128393542Y-97310072D01*
X128334527Y-97128444D01*
X128239040Y-96963056D01*
X128111253Y-96821134D01*
X127956752Y-96708882D01*
X127950724Y-96706198D01*
X127950722Y-96706197D01*
X127788319Y-96633891D01*
X127788318Y-96633891D01*
X127782288Y-96631206D01*
X127688478Y-96611266D01*
X127601944Y-96592872D01*
X127601939Y-96592872D01*
X127595487Y-96591500D01*
X127539594Y-96591500D01*
X127471473Y-96571498D01*
X127450499Y-96554595D01*
X126635500Y-95739596D01*
X126018252Y-95122347D01*
X125984227Y-95060037D01*
X125989292Y-94989222D01*
X126031839Y-94932386D01*
X126092757Y-94908500D01*
X126095487Y-94908500D01*
X126185093Y-94889454D01*
X126215246Y-94886763D01*
X126222112Y-94886979D01*
X126229943Y-94888219D01*
X126237835Y-94887473D01*
X126273954Y-94884059D01*
X126285811Y-94883500D01*
X128791800Y-94883500D01*
X128859921Y-94903502D01*
X128879147Y-94919843D01*
X128879420Y-94919540D01*
X128884332Y-94923963D01*
X128888747Y-94928866D01*
X128910329Y-94944546D01*
X128971820Y-94989222D01*
X129043248Y-95041118D01*
X129049276Y-95043802D01*
X129049278Y-95043803D01*
X129211681Y-95116109D01*
X129217712Y-95118794D01*
X129311112Y-95138647D01*
X129398056Y-95157128D01*
X129398061Y-95157128D01*
X129404513Y-95158500D01*
X129595487Y-95158500D01*
X129601939Y-95157128D01*
X129601944Y-95157128D01*
X129688888Y-95138647D01*
X129782288Y-95118794D01*
X129788319Y-95116109D01*
X129950722Y-95043803D01*
X129950724Y-95043802D01*
X129956752Y-95041118D01*
X130111253Y-94928866D01*
X130146864Y-94889316D01*
X130207310Y-94852076D01*
X130278294Y-94853428D01*
X130337278Y-94892941D01*
X130365536Y-94958072D01*
X130366500Y-94973626D01*
X130366500Y-100297476D01*
X130346498Y-100365597D01*
X130334142Y-100381779D01*
X130260960Y-100463056D01*
X130165473Y-100628444D01*
X130106458Y-100810072D01*
X130086496Y-101000000D01*
X130106458Y-101189928D01*
X130165473Y-101371556D01*
X130260960Y-101536944D01*
X130388747Y-101678866D01*
X130394089Y-101682747D01*
X130394091Y-101682749D01*
X130517023Y-101772064D01*
X130560377Y-101828286D01*
X130566452Y-101899022D01*
X130533321Y-101961814D01*
X130471501Y-101996726D01*
X130442962Y-102000000D01*
X114126000Y-102000000D01*
X114057879Y-101979998D01*
X114011386Y-101926342D01*
X114000000Y-101874000D01*
X114000000Y-78250000D01*
X135086496Y-78250000D01*
X135106458Y-78439928D01*
X135165473Y-78621556D01*
X135260960Y-78786944D01*
X135388747Y-78928866D01*
X135543248Y-79041118D01*
X135549276Y-79043802D01*
X135549278Y-79043803D01*
X135711681Y-79116109D01*
X135717712Y-79118794D01*
X135811113Y-79138647D01*
X135898056Y-79157128D01*
X135898061Y-79157128D01*
X135904513Y-79158500D01*
X135960406Y-79158500D01*
X136028527Y-79178502D01*
X136049501Y-79195405D01*
X140853281Y-83999185D01*
X140887307Y-84061497D01*
X140889496Y-84101447D01*
X140887186Y-84123431D01*
X140886496Y-84130000D01*
X140906458Y-84319928D01*
X140965473Y-84501556D01*
X141060960Y-84666944D01*
X141188747Y-84808866D01*
X141343248Y-84921118D01*
X141349276Y-84923802D01*
X141349278Y-84923803D01*
X141511681Y-84996109D01*
X141517712Y-84998794D01*
X141611112Y-85018647D01*
X141698056Y-85037128D01*
X141698061Y-85037128D01*
X141704513Y-85038500D01*
X141895487Y-85038500D01*
X141901939Y-85037128D01*
X141901944Y-85037128D01*
X141988887Y-85018647D01*
X142082288Y-84998794D01*
X142088319Y-84996109D01*
X142250722Y-84923803D01*
X142250724Y-84923802D01*
X142256752Y-84921118D01*
X142411253Y-84808866D01*
X142539040Y-84666944D01*
X142634527Y-84501556D01*
X142693542Y-84319928D01*
X142713504Y-84130000D01*
X142693542Y-83940072D01*
X142634527Y-83758444D01*
X142539040Y-83593056D01*
X142411253Y-83451134D01*
X142256752Y-83338882D01*
X142250724Y-83336198D01*
X142250722Y-83336197D01*
X142088319Y-83263891D01*
X142088318Y-83263891D01*
X142082288Y-83261206D01*
X141896329Y-83221679D01*
X141833431Y-83187527D01*
X136947122Y-78301217D01*
X136913096Y-78238905D01*
X136910907Y-78225292D01*
X136894232Y-78066635D01*
X136894232Y-78066633D01*
X136893542Y-78060072D01*
X136834527Y-77878444D01*
X136739040Y-77713056D01*
X136611253Y-77571134D01*
X136456752Y-77458882D01*
X136450724Y-77456198D01*
X136450722Y-77456197D01*
X136288319Y-77383891D01*
X136288318Y-77383891D01*
X136282288Y-77381206D01*
X136188887Y-77361353D01*
X136101944Y-77342872D01*
X136101939Y-77342872D01*
X136095487Y-77341500D01*
X135904513Y-77341500D01*
X135898061Y-77342872D01*
X135898056Y-77342872D01*
X135811113Y-77361353D01*
X135717712Y-77381206D01*
X135711682Y-77383891D01*
X135711681Y-77383891D01*
X135549278Y-77456197D01*
X135549276Y-77456198D01*
X135543248Y-77458882D01*
X135388747Y-77571134D01*
X135260960Y-77713056D01*
X135165473Y-77878444D01*
X135106458Y-78060072D01*
X135086496Y-78250000D01*
X114000000Y-78250000D01*
X114000000Y-68126000D01*
X114020002Y-68057879D01*
X114073658Y-68011386D01*
X114126000Y-68000000D01*
X167874000Y-68000000D01*
X167942121Y-68020002D01*
G37*
G04 #@! TD.AperFunction*
G04 #@! TA.AperFunction,Conductor*
G36*
X151665047Y-106503762D02*
G01*
X152028828Y-106594707D01*
X152068160Y-106612107D01*
X152332042Y-106788028D01*
X152362948Y-106817264D01*
X152425000Y-106900000D01*
X152634733Y-107179645D01*
X152656171Y-107224685D01*
X152746238Y-107584951D01*
X152750000Y-107615511D01*
X152750000Y-113884489D01*
X152746238Y-113915049D01*
X152655293Y-114278828D01*
X152637893Y-114318160D01*
X152463978Y-114579032D01*
X152429032Y-114613978D01*
X152156531Y-114795646D01*
X152142988Y-114803506D01*
X151776604Y-114986698D01*
X151720255Y-115000000D01*
X145370447Y-115000000D01*
X145330602Y-114993534D01*
X145058496Y-114902832D01*
X145041992Y-114895996D01*
X144679928Y-114714964D01*
X144631439Y-114672158D01*
X144454354Y-114406531D01*
X144446494Y-114392988D01*
X144263302Y-114026604D01*
X144250000Y-113970255D01*
X144250000Y-107712476D01*
X144252447Y-107687765D01*
X144345112Y-107224441D01*
X144363827Y-107179260D01*
X144536022Y-106920968D01*
X144570968Y-106886022D01*
X144843469Y-106704354D01*
X144857012Y-106696494D01*
X145041992Y-106604004D01*
X145058496Y-106597168D01*
X145330602Y-106506466D01*
X145370447Y-106500000D01*
X151634489Y-106500000D01*
X151665047Y-106503762D01*
G37*
G04 #@! TD.AperFunction*
G04 #@! TA.AperFunction,Conductor*
G36*
X136165047Y-106503762D02*
G01*
X136528828Y-106594707D01*
X136568160Y-106612107D01*
X136832042Y-106788028D01*
X136862948Y-106817264D01*
X136925000Y-106900000D01*
X137134733Y-107179645D01*
X137156171Y-107224685D01*
X137246238Y-107584951D01*
X137250000Y-107615511D01*
X137250000Y-113884489D01*
X137246238Y-113915049D01*
X137155293Y-114278828D01*
X137137893Y-114318160D01*
X136963978Y-114579032D01*
X136929032Y-114613978D01*
X136656531Y-114795646D01*
X136642988Y-114803506D01*
X136276604Y-114986698D01*
X136220255Y-115000000D01*
X129870447Y-115000000D01*
X129830602Y-114993534D01*
X129558496Y-114902832D01*
X129541992Y-114895996D01*
X129179926Y-114714963D01*
X129131440Y-114672159D01*
X128954354Y-114406531D01*
X128946494Y-114392988D01*
X128763302Y-114026604D01*
X128750000Y-113970255D01*
X128750000Y-107712476D01*
X128752447Y-107687765D01*
X128845112Y-107224441D01*
X128863827Y-107179260D01*
X129036022Y-106920968D01*
X129070968Y-106886022D01*
X129343469Y-106704354D01*
X129357012Y-106696494D01*
X129541992Y-106604004D01*
X129558496Y-106597168D01*
X129830602Y-106506466D01*
X129870447Y-106500000D01*
X136134489Y-106500000D01*
X136165047Y-106503762D01*
G37*
G04 #@! TD.AperFunction*
M02*
