M48
; DRILL file {KiCad (6.0.1-0)} date 2022 March 11, Friday 23:14:00
; FORMAT={-:-/ absolute / metric / decimal}
; #@! TF.CreationDate,2022-03-11T23:14:00+01:00
; #@! TF.GenerationSoftware,Kicad,Pcbnew,(6.0.1-0)
; #@! TF.FileFunction,Plated,1,2,PTH
FMAT,2
METRIC
; #@! TA.AperFunction,Plated,PTH,ViaDrill
T1C0.400
; #@! TA.AperFunction,Plated,PTH,ComponentDrill
T2C1.000
%
G90
G05
T1
X140.75Y-89.5
X141.25Y-82.5
X144.973Y-81.25
X151.25Y-81.0
X159.6Y-87.75
X160.4Y-84.525
X160.68Y-89.91
X160.9Y-82.85
X161.84Y-93.5
X162.88Y-94.08
X163.424Y-93.18
X163.8Y-82.6
X166.025Y-84.2
X166.12Y-94.59
X166.2Y-93.4
T2
X133.8Y-96.6
X136.26Y-81.4
X136.34Y-96.6
X138.8Y-81.4
X164.2Y-96.6
X166.74Y-96.6
X166.8Y-81.4
T0
M30
