G04 #@! TF.GenerationSoftware,KiCad,Pcbnew,(6.0.1-0)*
G04 #@! TF.CreationDate,2022-03-11T23:13:55+01:00*
G04 #@! TF.ProjectId,SDshield,53447368-6965-46c6-942e-6b696361645f,rev?*
G04 #@! TF.SameCoordinates,Original*
G04 #@! TF.FileFunction,Copper,L1,Top*
G04 #@! TF.FilePolarity,Positive*
%FSLAX46Y46*%
G04 Gerber Fmt 4.6, Leading zero omitted, Abs format (unit mm)*
G04 Created by KiCad (PCBNEW (6.0.1-0)) date 2022-03-11 23:13:55*
%MOMM*%
%LPD*%
G01*
G04 APERTURE LIST*
G04 Aperture macros list*
%AMRoundRect*
0 Rectangle with rounded corners*
0 $1 Rounding radius*
0 $2 $3 $4 $5 $6 $7 $8 $9 X,Y pos of 4 corners*
0 Add a 4 corners polygon primitive as box body*
4,1,4,$2,$3,$4,$5,$6,$7,$8,$9,$2,$3,0*
0 Add four circle primitives for the rounded corners*
1,1,$1+$1,$2,$3*
1,1,$1+$1,$4,$5*
1,1,$1+$1,$6,$7*
1,1,$1+$1,$8,$9*
0 Add four rect primitives between the rounded corners*
20,1,$1+$1,$2,$3,$4,$5,0*
20,1,$1+$1,$4,$5,$6,$7,0*
20,1,$1+$1,$6,$7,$8,$9,0*
20,1,$1+$1,$8,$9,$2,$3,0*%
G04 Aperture macros list end*
G04 #@! TA.AperFunction,SMDPad,CuDef*
%ADD10RoundRect,0.237500X-0.237500X0.250000X-0.237500X-0.250000X0.237500X-0.250000X0.237500X0.250000X0*%
G04 #@! TD*
G04 #@! TA.AperFunction,SMDPad,CuDef*
%ADD11R,0.650000X1.000000*%
G04 #@! TD*
G04 #@! TA.AperFunction,SMDPad,CuDef*
%ADD12R,1.130000X1.400000*%
G04 #@! TD*
G04 #@! TA.AperFunction,SMDPad,CuDef*
%ADD13R,0.900000X1.700000*%
G04 #@! TD*
G04 #@! TA.AperFunction,SMDPad,CuDef*
%ADD14R,1.000000X0.850000*%
G04 #@! TD*
G04 #@! TA.AperFunction,ComponentPad*
%ADD15R,1.700000X1.700000*%
G04 #@! TD*
G04 #@! TA.AperFunction,ComponentPad*
%ADD16O,1.700000X1.700000*%
G04 #@! TD*
G04 #@! TA.AperFunction,SMDPad,CuDef*
%ADD17R,0.450000X1.450000*%
G04 #@! TD*
G04 #@! TA.AperFunction,ViaPad*
%ADD18C,0.800000*%
G04 #@! TD*
G04 #@! TA.AperFunction,Conductor*
%ADD19C,0.250000*%
G04 #@! TD*
G04 APERTURE END LIST*
D10*
X136500000Y-87587500D03*
X136500000Y-89412500D03*
D11*
X152046000Y-82317000D03*
X151146000Y-82317000D03*
X150246000Y-82317000D03*
X149346000Y-82317000D03*
X148446000Y-82317000D03*
X147546000Y-82317000D03*
X146646000Y-82317000D03*
X145746000Y-82317000D03*
X144176000Y-82317000D03*
D12*
X142811000Y-89267000D03*
D13*
X142596000Y-82667000D03*
D14*
X142746000Y-92217000D03*
X142746000Y-94147000D03*
D13*
X142596000Y-96367000D03*
X156896000Y-96367000D03*
D14*
X156746000Y-94147000D03*
D12*
X156426000Y-92017000D03*
X156426000Y-86567000D03*
D13*
X156896000Y-82667000D03*
D15*
X166800000Y-81400000D03*
X136260000Y-81400000D03*
D16*
X138800000Y-81400000D03*
D15*
X166740000Y-96600000D03*
D16*
X164200000Y-96600000D03*
D15*
X133800000Y-96600000D03*
D16*
X136340000Y-96600000D03*
D17*
X162050000Y-91750000D03*
X162700000Y-91750000D03*
X163350000Y-91750000D03*
X164000000Y-91750000D03*
X164650000Y-91750000D03*
X165300000Y-91750000D03*
X165950000Y-91750000D03*
X165950000Y-85850000D03*
X165300000Y-85850000D03*
X164650000Y-85850000D03*
X164000000Y-85850000D03*
X163350000Y-85850000D03*
X162700000Y-85850000D03*
X162050000Y-85850000D03*
D10*
X159310000Y-88930000D03*
X159310000Y-90755000D03*
D18*
X140750000Y-89500000D03*
X166200000Y-93400000D03*
X160900000Y-82850000D03*
X159600000Y-87750000D03*
X141250000Y-82500000D03*
X163800000Y-82600000D03*
X161840000Y-93500000D03*
X166025000Y-84200000D03*
X160400000Y-84525000D03*
X160680000Y-89910000D03*
X144972982Y-81249989D03*
X151250000Y-81000000D03*
X163424500Y-93180000D03*
X162880000Y-94080000D03*
X166120000Y-94590000D03*
D19*
X150246000Y-83067000D02*
X150246000Y-82317000D01*
X162050000Y-84946400D02*
X160820400Y-83716800D01*
X158683200Y-83716800D02*
X158324520Y-84075480D01*
X138800000Y-81400000D02*
X138800000Y-82700000D01*
X150246000Y-82317000D02*
X150246000Y-81567000D01*
X138800000Y-82700000D02*
X136500000Y-85000000D01*
X160820400Y-83716800D02*
X158683200Y-83716800D01*
X150246000Y-81567000D02*
X149204489Y-80525489D01*
X139674511Y-80525489D02*
X138800000Y-81400000D01*
X158324520Y-84075480D02*
X151254480Y-84075480D01*
X149204489Y-80525489D02*
X139674511Y-80525489D01*
X136500000Y-85000000D02*
X136500000Y-87587500D01*
X162050000Y-85850000D02*
X162050000Y-84946400D01*
X151254480Y-84075480D02*
X150246000Y-83067000D01*
X165700000Y-81400000D02*
X166800000Y-81400000D01*
X165300000Y-81800000D02*
X165700000Y-81400000D01*
X165300000Y-85879000D02*
X165300000Y-81800000D01*
X162700000Y-86859999D02*
X161809999Y-87750000D01*
X144176000Y-82317000D02*
X145746000Y-82317000D01*
X162700000Y-84650000D02*
X160900000Y-82850000D01*
X153304978Y-87750000D02*
X159600000Y-87750000D01*
X165949999Y-93149999D02*
X166200000Y-93400000D01*
X147546000Y-82317000D02*
X148446000Y-82317000D01*
X141250000Y-81750000D02*
X141250000Y-82500000D01*
X142811000Y-89267000D02*
X140983000Y-89267000D01*
X144176000Y-82317000D02*
X143351489Y-81492489D01*
X164650001Y-83450001D02*
X163800000Y-82600000D01*
X162700000Y-85850000D02*
X162700000Y-84650000D01*
X162700000Y-85879000D02*
X162700000Y-86859999D01*
X148446000Y-82891022D02*
X153304978Y-87750000D01*
X161809999Y-87750000D02*
X159600000Y-87750000D01*
X143351489Y-81492489D02*
X141507511Y-81492489D01*
X148446000Y-82317000D02*
X148446000Y-82891022D01*
X162050000Y-91750000D02*
X162050000Y-93290000D01*
X140983000Y-89267000D02*
X140750000Y-89500000D01*
X164650001Y-85879000D02*
X164650001Y-83450001D01*
X162050000Y-93290000D02*
X161840000Y-93500000D01*
X141507511Y-81492489D02*
X141250000Y-81750000D01*
X165949999Y-91721000D02*
X165949999Y-93149999D01*
X153740000Y-88930000D02*
X152540000Y-87730000D01*
X152540000Y-87730000D02*
X138145000Y-87730000D01*
X163350000Y-87080000D02*
X163350000Y-85850000D01*
X136500000Y-89375000D02*
X136500000Y-96440000D01*
X138145000Y-87730000D02*
X136500000Y-89375000D01*
X161500000Y-88930000D02*
X163350000Y-87080000D01*
X159310000Y-88930000D02*
X161500000Y-88930000D01*
X159310000Y-88930000D02*
X153740000Y-88930000D01*
X136500000Y-96440000D02*
X136340000Y-96600000D01*
X164000000Y-84875000D02*
X159997000Y-80872000D01*
X164000000Y-85850000D02*
X164000000Y-84875000D01*
X159997000Y-80872000D02*
X152794000Y-80872000D01*
X152794000Y-80872000D02*
X152046000Y-81620000D01*
X152046000Y-81620000D02*
X152046000Y-82317000D01*
X150804000Y-84525000D02*
X149346000Y-83067000D01*
X149346000Y-83067000D02*
X149346000Y-82317000D01*
X166025000Y-85804001D02*
X165950001Y-85879000D01*
X166025000Y-84200000D02*
X166025000Y-85804001D01*
X160400000Y-84525000D02*
X150804000Y-84525000D01*
X164650000Y-91750000D02*
X164650000Y-90775000D01*
X163735000Y-89860000D02*
X160730000Y-89860000D01*
X146646000Y-81567000D02*
X146646000Y-82317000D01*
X160730000Y-89860000D02*
X160680000Y-89910000D01*
X146328989Y-81249989D02*
X146646000Y-81567000D01*
X164650000Y-90775000D02*
X163735000Y-89860000D01*
X144972982Y-81249989D02*
X146328989Y-81249989D01*
X163350000Y-93105500D02*
X163424500Y-93180000D01*
X163350000Y-91750000D02*
X163350000Y-93105500D01*
X151250000Y-82213000D02*
X151146000Y-82317000D01*
X151250000Y-81000000D02*
X151250000Y-82213000D01*
X163855000Y-90630000D02*
X161200000Y-90630000D01*
X164000000Y-91750000D02*
X164000000Y-90775000D01*
X164000000Y-90775000D02*
X163855000Y-90630000D01*
X161200000Y-90630000D02*
X161075000Y-90755000D01*
X161075000Y-90755000D02*
X159310000Y-90755000D01*
X162700000Y-93900000D02*
X162700000Y-91750000D01*
X166740000Y-95210000D02*
X166120000Y-94590000D01*
X166740000Y-96600000D02*
X166740000Y-95210000D01*
X162880000Y-94080000D02*
X162700000Y-93900000D01*
X165300000Y-91750000D02*
X165300000Y-93970000D01*
X164200000Y-96600000D02*
X164200000Y-95070000D01*
X164200000Y-95070000D02*
X165300000Y-93970000D01*
M02*
