G04 #@! TF.GenerationSoftware,KiCad,Pcbnew,(5.1.5)-3*
G04 #@! TF.CreationDate,2021-12-13T18:30:56+01:00*
G04 #@! TF.ProjectId,SDshield,53447368-6965-46c6-942e-6b696361645f,rev?*
G04 #@! TF.SameCoordinates,Original*
G04 #@! TF.FileFunction,Legend,Top*
G04 #@! TF.FilePolarity,Positive*
%FSLAX46Y46*%
G04 Gerber Fmt 4.6, Leading zero omitted, Abs format (unit mm)*
G04 Created by KiCad (PCBNEW (5.1.5)-3) date 2021-12-13 18:30:56*
%MOMM*%
%LPD*%
G04 APERTURE LIST*
%ADD10C,0.100000*%
%ADD11C,0.120000*%
%ADD12C,0.200000*%
%ADD13C,0.150000*%
%ADD14C,0.096520*%
%ADD15R,0.456800X1.563999*%
%ADD16R,1.003200X1.703200*%
%ADD17R,2.003200X1.603200*%
%ADD18R,1.603200X2.103200*%
%ADD19O,1.802000X1.802000*%
%ADD20R,1.802000X1.802000*%
G04 APERTURE END LIST*
D10*
G36*
X164459499Y-84640001D02*
G01*
X164840499Y-84640001D01*
X164840499Y-84894001D01*
X164459499Y-84894001D01*
X164459499Y-84640001D01*
G37*
X164459499Y-84640001D02*
X164840499Y-84640001D01*
X164840499Y-84894001D01*
X164459499Y-84894001D01*
X164459499Y-84640001D01*
D11*
X161539861Y-86425100D02*
X161320300Y-86425100D01*
X166460139Y-91174900D02*
X166679700Y-91174900D01*
X161320300Y-91174900D02*
X161539859Y-91174900D01*
X161320300Y-86425100D02*
X161320300Y-91174900D01*
X166679700Y-86425100D02*
X166460141Y-86425100D01*
X166679700Y-91174900D02*
X166679700Y-86425100D01*
X135990000Y-88328733D02*
X135990000Y-88671267D01*
X137010000Y-88328733D02*
X137010000Y-88671267D01*
D12*
X145400000Y-80900000D02*
X144500000Y-80900000D01*
X144500000Y-80900000D02*
X144500000Y-93200000D01*
X146100000Y-94700000D02*
X146200000Y-94610000D01*
X146200000Y-94610000D02*
X153170000Y-94610000D01*
X153170000Y-94610000D02*
X153170000Y-95250000D01*
X153170000Y-95250000D02*
X154740000Y-95250000D01*
X154740000Y-95250000D02*
X154740000Y-96300000D01*
X154740000Y-96300000D02*
X157100000Y-96300000D01*
X147900000Y-80900000D02*
X151100000Y-80900000D01*
X153500000Y-80900000D02*
X158700000Y-80900000D01*
X158700000Y-80900000D02*
X158700000Y-94300000D01*
X154600000Y-91500000D02*
G75*
G03X154600000Y-91500000I-100000J0D01*
G01*
D11*
X132470000Y-97930000D02*
X132470000Y-96600000D01*
X133800000Y-97930000D02*
X132470000Y-97930000D01*
X135070000Y-97930000D02*
X135070000Y-95270000D01*
X135070000Y-95270000D02*
X137670000Y-95270000D01*
X135070000Y-97930000D02*
X137670000Y-97930000D01*
X137670000Y-97930000D02*
X137670000Y-95270000D01*
X134930000Y-82730000D02*
X134930000Y-81400000D01*
X136260000Y-82730000D02*
X134930000Y-82730000D01*
X137530000Y-82730000D02*
X137530000Y-80070000D01*
X137530000Y-80070000D02*
X140130000Y-80070000D01*
X137530000Y-82730000D02*
X140130000Y-82730000D01*
X140130000Y-82730000D02*
X140130000Y-80070000D01*
X162870000Y-97930000D02*
X162870000Y-96600000D01*
X164200000Y-97930000D02*
X162870000Y-97930000D01*
X165470000Y-97930000D02*
X165470000Y-95270000D01*
X165470000Y-95270000D02*
X168070000Y-95270000D01*
X165470000Y-97930000D02*
X168070000Y-97930000D01*
X168070000Y-97930000D02*
X168070000Y-95270000D01*
X165470000Y-80070000D02*
X166800000Y-80070000D01*
X165470000Y-81400000D02*
X165470000Y-80070000D01*
X165470000Y-82670000D02*
X168130000Y-82670000D01*
X168130000Y-82670000D02*
X168130000Y-82730000D01*
X165470000Y-82670000D02*
X165470000Y-82730000D01*
X165470000Y-82730000D02*
X168130000Y-82730000D01*
D13*
X160052380Y-89961904D02*
X160861904Y-89961904D01*
X160957142Y-89914285D01*
X161004761Y-89866666D01*
X161052380Y-89771428D01*
X161052380Y-89580952D01*
X161004761Y-89485714D01*
X160957142Y-89438095D01*
X160861904Y-89390476D01*
X160052380Y-89390476D01*
X161052380Y-88390476D02*
X161052380Y-88961904D01*
X161052380Y-88676190D02*
X160052380Y-88676190D01*
X160195238Y-88771428D01*
X160290476Y-88866666D01*
X160338095Y-88961904D01*
X160004580Y-91975000D02*
X160242676Y-91975000D01*
X160147438Y-92213095D02*
X160242676Y-91975000D01*
X160147438Y-91736904D01*
X160433152Y-92117857D02*
X160242676Y-91975000D01*
X160433152Y-91832142D01*
X160004580Y-91975000D02*
X160242676Y-91975000D01*
X160147438Y-92213095D02*
X160242676Y-91975000D01*
X160147438Y-91736904D01*
X160433152Y-92117857D02*
X160242676Y-91975000D01*
X160433152Y-91832142D01*
X138382380Y-88666666D02*
X137906190Y-89000000D01*
X138382380Y-89238095D02*
X137382380Y-89238095D01*
X137382380Y-88857142D01*
X137430000Y-88761904D01*
X137477619Y-88714285D01*
X137572857Y-88666666D01*
X137715714Y-88666666D01*
X137810952Y-88714285D01*
X137858571Y-88761904D01*
X137906190Y-88857142D01*
X137906190Y-89238095D01*
X138382380Y-87714285D02*
X138382380Y-88285714D01*
X138382380Y-88000000D02*
X137382380Y-88000000D01*
X137525238Y-88095238D01*
X137620476Y-88190476D01*
X137668095Y-88285714D01*
D14*
X152294714Y-85936047D02*
X152294714Y-86797833D01*
X152237261Y-86970190D01*
X152122357Y-87085095D01*
X151949999Y-87142547D01*
X151835095Y-87142547D01*
X153501214Y-87142547D02*
X152811785Y-87142547D01*
X153156499Y-87142547D02*
X153156499Y-85936047D01*
X153041595Y-86108404D01*
X152926690Y-86223309D01*
X152811785Y-86280761D01*
D13*
X138666666Y-96052380D02*
X138666666Y-96766666D01*
X138619047Y-96909523D01*
X138523809Y-97004761D01*
X138380952Y-97052380D01*
X138285714Y-97052380D01*
X139619047Y-96052380D02*
X139142857Y-96052380D01*
X139095238Y-96528571D01*
X139142857Y-96480952D01*
X139238095Y-96433333D01*
X139476190Y-96433333D01*
X139571428Y-96480952D01*
X139619047Y-96528571D01*
X139666666Y-96623809D01*
X139666666Y-96861904D01*
X139619047Y-96957142D01*
X139571428Y-97004761D01*
X139476190Y-97052380D01*
X139238095Y-97052380D01*
X139142857Y-97004761D01*
X139095238Y-96957142D01*
X133266666Y-80852380D02*
X133266666Y-81566666D01*
X133219047Y-81709523D01*
X133123809Y-81804761D01*
X132980952Y-81852380D01*
X132885714Y-81852380D01*
X134171428Y-81185714D02*
X134171428Y-81852380D01*
X133933333Y-80804761D02*
X133695238Y-81519047D01*
X134314285Y-81519047D01*
X161066666Y-96052380D02*
X161066666Y-96766666D01*
X161019047Y-96909523D01*
X160923809Y-97004761D01*
X160780952Y-97052380D01*
X160685714Y-97052380D01*
X161447619Y-96052380D02*
X162066666Y-96052380D01*
X161733333Y-96433333D01*
X161876190Y-96433333D01*
X161971428Y-96480952D01*
X162019047Y-96528571D01*
X162066666Y-96623809D01*
X162066666Y-96861904D01*
X162019047Y-96957142D01*
X161971428Y-97004761D01*
X161876190Y-97052380D01*
X161590476Y-97052380D01*
X161495238Y-97004761D01*
X161447619Y-96957142D01*
X163866666Y-81052380D02*
X163866666Y-81766666D01*
X163819047Y-81909523D01*
X163723809Y-82004761D01*
X163580952Y-82052380D01*
X163485714Y-82052380D01*
X164295238Y-81147619D02*
X164342857Y-81100000D01*
X164438095Y-81052380D01*
X164676190Y-81052380D01*
X164771428Y-81100000D01*
X164819047Y-81147619D01*
X164866666Y-81242857D01*
X164866666Y-81338095D01*
X164819047Y-81480952D01*
X164247619Y-82052380D01*
X164866666Y-82052380D01*
%LPC*%
D15*
X162050001Y-85879000D03*
X162700000Y-85879000D03*
X163350001Y-85879000D03*
X164000000Y-85879000D03*
X164650001Y-85879000D03*
X165300000Y-85879000D03*
X165950001Y-85879000D03*
X165949999Y-91721000D03*
X165300000Y-91721000D03*
X164649999Y-91721000D03*
X164000000Y-91721000D03*
X163350001Y-91721000D03*
X162700000Y-91721000D03*
X162049999Y-91721000D03*
D10*
G36*
X136788779Y-88800266D02*
G01*
X136814309Y-88804053D01*
X136839345Y-88810325D01*
X136863646Y-88819020D01*
X136886977Y-88830055D01*
X136909115Y-88843323D01*
X136929845Y-88858698D01*
X136948969Y-88876031D01*
X136966302Y-88895155D01*
X136981677Y-88915885D01*
X136994945Y-88938023D01*
X137005980Y-88961354D01*
X137014675Y-88985655D01*
X137020947Y-89010691D01*
X137024734Y-89036221D01*
X137026000Y-89062000D01*
X137026000Y-89688000D01*
X137024734Y-89713779D01*
X137020947Y-89739309D01*
X137014675Y-89764345D01*
X137005980Y-89788646D01*
X136994945Y-89811977D01*
X136981677Y-89834115D01*
X136966302Y-89854845D01*
X136948969Y-89873969D01*
X136929845Y-89891302D01*
X136909115Y-89906677D01*
X136886977Y-89919945D01*
X136863646Y-89930980D01*
X136839345Y-89939675D01*
X136814309Y-89945947D01*
X136788779Y-89949734D01*
X136763000Y-89951000D01*
X136237000Y-89951000D01*
X136211221Y-89949734D01*
X136185691Y-89945947D01*
X136160655Y-89939675D01*
X136136354Y-89930980D01*
X136113023Y-89919945D01*
X136090885Y-89906677D01*
X136070155Y-89891302D01*
X136051031Y-89873969D01*
X136033698Y-89854845D01*
X136018323Y-89834115D01*
X136005055Y-89811977D01*
X135994020Y-89788646D01*
X135985325Y-89764345D01*
X135979053Y-89739309D01*
X135975266Y-89713779D01*
X135974000Y-89688000D01*
X135974000Y-89062000D01*
X135975266Y-89036221D01*
X135979053Y-89010691D01*
X135985325Y-88985655D01*
X135994020Y-88961354D01*
X136005055Y-88938023D01*
X136018323Y-88915885D01*
X136033698Y-88895155D01*
X136051031Y-88876031D01*
X136070155Y-88858698D01*
X136090885Y-88843323D01*
X136113023Y-88830055D01*
X136136354Y-88819020D01*
X136160655Y-88810325D01*
X136185691Y-88804053D01*
X136211221Y-88800266D01*
X136237000Y-88799000D01*
X136763000Y-88799000D01*
X136788779Y-88800266D01*
G37*
G36*
X136788779Y-87050266D02*
G01*
X136814309Y-87054053D01*
X136839345Y-87060325D01*
X136863646Y-87069020D01*
X136886977Y-87080055D01*
X136909115Y-87093323D01*
X136929845Y-87108698D01*
X136948969Y-87126031D01*
X136966302Y-87145155D01*
X136981677Y-87165885D01*
X136994945Y-87188023D01*
X137005980Y-87211354D01*
X137014675Y-87235655D01*
X137020947Y-87260691D01*
X137024734Y-87286221D01*
X137026000Y-87312000D01*
X137026000Y-87938000D01*
X137024734Y-87963779D01*
X137020947Y-87989309D01*
X137014675Y-88014345D01*
X137005980Y-88038646D01*
X136994945Y-88061977D01*
X136981677Y-88084115D01*
X136966302Y-88104845D01*
X136948969Y-88123969D01*
X136929845Y-88141302D01*
X136909115Y-88156677D01*
X136886977Y-88169945D01*
X136863646Y-88180980D01*
X136839345Y-88189675D01*
X136814309Y-88195947D01*
X136788779Y-88199734D01*
X136763000Y-88201000D01*
X136237000Y-88201000D01*
X136211221Y-88199734D01*
X136185691Y-88195947D01*
X136160655Y-88189675D01*
X136136354Y-88180980D01*
X136113023Y-88169945D01*
X136090885Y-88156677D01*
X136070155Y-88141302D01*
X136051031Y-88123969D01*
X136033698Y-88104845D01*
X136018323Y-88084115D01*
X136005055Y-88061977D01*
X135994020Y-88038646D01*
X135985325Y-88014345D01*
X135979053Y-87989309D01*
X135975266Y-87963779D01*
X135974000Y-87938000D01*
X135974000Y-87312000D01*
X135975266Y-87286221D01*
X135979053Y-87260691D01*
X135985325Y-87235655D01*
X135994020Y-87211354D01*
X136005055Y-87188023D01*
X136018323Y-87165885D01*
X136033698Y-87145155D01*
X136051031Y-87126031D01*
X136070155Y-87108698D01*
X136090885Y-87093323D01*
X136113023Y-87080055D01*
X136136354Y-87069020D01*
X136160655Y-87060325D01*
X136185691Y-87054053D01*
X136211221Y-87050266D01*
X136237000Y-87049000D01*
X136763000Y-87049000D01*
X136788779Y-87050266D01*
G37*
D16*
X153540000Y-91700000D03*
X152440000Y-91300000D03*
X151340000Y-91700000D03*
X150240000Y-91900000D03*
X149140000Y-91700000D03*
X148040000Y-91900000D03*
X146940000Y-91700000D03*
X145840000Y-91700000D03*
D17*
X146650000Y-81400000D03*
X152300000Y-81400000D03*
D18*
X145050000Y-94550000D03*
X158200000Y-95550000D03*
D19*
X136340000Y-96600000D03*
D20*
X133800000Y-96600000D03*
D19*
X138800000Y-81400000D03*
D20*
X136260000Y-81400000D03*
D19*
X166740000Y-96600000D03*
D20*
X164200000Y-96600000D03*
X166800000Y-81400000D03*
M02*
