G04 #@! TF.GenerationSoftware,KiCad,Pcbnew,(6.0.1-0)*
G04 #@! TF.CreationDate,2022-03-11T23:13:56+01:00*
G04 #@! TF.ProjectId,SDshield,53447368-6965-46c6-942e-6b696361645f,rev?*
G04 #@! TF.SameCoordinates,Original*
G04 #@! TF.FileFunction,Soldermask,Top*
G04 #@! TF.FilePolarity,Negative*
%FSLAX46Y46*%
G04 Gerber Fmt 4.6, Leading zero omitted, Abs format (unit mm)*
G04 Created by KiCad (PCBNEW (6.0.1-0)) date 2022-03-11 23:13:56*
%MOMM*%
%LPD*%
G01*
G04 APERTURE LIST*
G04 Aperture macros list*
%AMRoundRect*
0 Rectangle with rounded corners*
0 $1 Rounding radius*
0 $2 $3 $4 $5 $6 $7 $8 $9 X,Y pos of 4 corners*
0 Add a 4 corners polygon primitive as box body*
4,1,4,$2,$3,$4,$5,$6,$7,$8,$9,$2,$3,0*
0 Add four circle primitives for the rounded corners*
1,1,$1+$1,$2,$3*
1,1,$1+$1,$4,$5*
1,1,$1+$1,$6,$7*
1,1,$1+$1,$8,$9*
0 Add four rect primitives between the rounded corners*
20,1,$1+$1,$2,$3,$4,$5,0*
20,1,$1+$1,$4,$5,$6,$7,0*
20,1,$1+$1,$6,$7,$8,$9,0*
20,1,$1+$1,$8,$9,$2,$3,0*%
G04 Aperture macros list end*
%ADD10RoundRect,0.288500X-0.237500X0.250000X-0.237500X-0.250000X0.237500X-0.250000X0.237500X0.250000X0*%
%ADD11RoundRect,0.101600X-0.325000X-0.500000X0.325000X-0.500000X0.325000X0.500000X-0.325000X0.500000X0*%
%ADD12RoundRect,0.101600X-0.565000X-0.700000X0.565000X-0.700000X0.565000X0.700000X-0.565000X0.700000X0*%
%ADD13RoundRect,0.101600X-0.450000X-0.850000X0.450000X-0.850000X0.450000X0.850000X-0.450000X0.850000X0*%
%ADD14RoundRect,0.101600X-0.500000X-0.425000X0.500000X-0.425000X0.500000X0.425000X-0.500000X0.425000X0*%
%ADD15RoundRect,0.101600X0.500000X0.425000X-0.500000X0.425000X-0.500000X-0.425000X0.500000X-0.425000X0*%
%ADD16RoundRect,0.051000X-0.850000X-0.850000X0.850000X-0.850000X0.850000X0.850000X-0.850000X0.850000X0*%
%ADD17RoundRect,0.051000X0.850000X-0.850000X0.850000X0.850000X-0.850000X0.850000X-0.850000X-0.850000X0*%
%ADD18O,1.802000X1.802000*%
%ADD19RoundRect,0.051000X-0.850000X0.850000X-0.850000X-0.850000X0.850000X-0.850000X0.850000X0.850000X0*%
%ADD20RoundRect,0.051000X0.225000X-0.725000X0.225000X0.725000X-0.225000X0.725000X-0.225000X-0.725000X0*%
G04 APERTURE END LIST*
D10*
X136500000Y-87587500D03*
X136500000Y-89412500D03*
D11*
X152046000Y-82317000D03*
X151146000Y-82317000D03*
X150246000Y-82317000D03*
X149346000Y-82317000D03*
X148446000Y-82317000D03*
X147546000Y-82317000D03*
X146646000Y-82317000D03*
X145746000Y-82317000D03*
X144176000Y-82317000D03*
D12*
X142811000Y-89267000D03*
D13*
X142596000Y-82667000D03*
D14*
X142746000Y-92217000D03*
X142746000Y-94147000D03*
D13*
X142596000Y-96367000D03*
X156896000Y-96367000D03*
D15*
X156746000Y-94147000D03*
D12*
X156426000Y-92017000D03*
X156426000Y-86567000D03*
D13*
X156896000Y-82667000D03*
D16*
X166800000Y-81400000D03*
D17*
X136260000Y-81400000D03*
D18*
X138800000Y-81400000D03*
D19*
X166740000Y-96600000D03*
D18*
X164200000Y-96600000D03*
D17*
X133800000Y-96600000D03*
D18*
X136340000Y-96600000D03*
D20*
X162050000Y-91750000D03*
X162700000Y-91750000D03*
X163350000Y-91750000D03*
X164000000Y-91750000D03*
X164650000Y-91750000D03*
X165300000Y-91750000D03*
X165950000Y-91750000D03*
X165950000Y-85850000D03*
X165300000Y-85850000D03*
X164650000Y-85850000D03*
X164000000Y-85850000D03*
X163350000Y-85850000D03*
X162700000Y-85850000D03*
X162050000Y-85850000D03*
D10*
X159310000Y-88930000D03*
X159310000Y-90755000D03*
G36*
X162439633Y-90988517D02*
G01*
X162440197Y-90990436D01*
X162439916Y-90991075D01*
X162429767Y-91006263D01*
X162426000Y-91025199D01*
X162426000Y-92474801D01*
X162429767Y-92493738D01*
X162439814Y-92508773D01*
X162439945Y-92510768D01*
X162438282Y-92511880D01*
X162437553Y-92511793D01*
X162377212Y-92492898D01*
X162312310Y-92511955D01*
X162310367Y-92511483D01*
X162309803Y-92509564D01*
X162310084Y-92508925D01*
X162320233Y-92493737D01*
X162324000Y-92474801D01*
X162324000Y-91025199D01*
X162320233Y-91006262D01*
X162310186Y-90991227D01*
X162310055Y-90989232D01*
X162311718Y-90988120D01*
X162312447Y-90988207D01*
X162372788Y-91007102D01*
X162437690Y-90988045D01*
X162439633Y-90988517D01*
G37*
G36*
X165039633Y-90988517D02*
G01*
X165040197Y-90990436D01*
X165039916Y-90991075D01*
X165029767Y-91006263D01*
X165026000Y-91025199D01*
X165026000Y-92474801D01*
X165029767Y-92493738D01*
X165039814Y-92508773D01*
X165039945Y-92510768D01*
X165038282Y-92511880D01*
X165037553Y-92511793D01*
X164977212Y-92492898D01*
X164912310Y-92511955D01*
X164910367Y-92511483D01*
X164909803Y-92509564D01*
X164910084Y-92508925D01*
X164920233Y-92493737D01*
X164924000Y-92474801D01*
X164924000Y-91025199D01*
X164920233Y-91006262D01*
X164910186Y-90991227D01*
X164910055Y-90989232D01*
X164911718Y-90988120D01*
X164912447Y-90988207D01*
X164972788Y-91007102D01*
X165037690Y-90988045D01*
X165039633Y-90988517D01*
G37*
G36*
X164389633Y-90988517D02*
G01*
X164390197Y-90990436D01*
X164389916Y-90991075D01*
X164379767Y-91006263D01*
X164376000Y-91025199D01*
X164376000Y-92474801D01*
X164379767Y-92493738D01*
X164389814Y-92508773D01*
X164389945Y-92510768D01*
X164388282Y-92511880D01*
X164387553Y-92511793D01*
X164327212Y-92492898D01*
X164262310Y-92511955D01*
X164260367Y-92511483D01*
X164259803Y-92509564D01*
X164260084Y-92508925D01*
X164270233Y-92493737D01*
X164274000Y-92474801D01*
X164274000Y-91025199D01*
X164270233Y-91006262D01*
X164260186Y-90991227D01*
X164260055Y-90989232D01*
X164261718Y-90988120D01*
X164262447Y-90988207D01*
X164322788Y-91007102D01*
X164387690Y-90988045D01*
X164389633Y-90988517D01*
G37*
G36*
X163089633Y-90988517D02*
G01*
X163090197Y-90990436D01*
X163089916Y-90991075D01*
X163079767Y-91006263D01*
X163076000Y-91025199D01*
X163076000Y-92474801D01*
X163079767Y-92493738D01*
X163089814Y-92508773D01*
X163089945Y-92510768D01*
X163088282Y-92511880D01*
X163087553Y-92511793D01*
X163027212Y-92492898D01*
X162962310Y-92511955D01*
X162960367Y-92511483D01*
X162959803Y-92509564D01*
X162960084Y-92508925D01*
X162970233Y-92493737D01*
X162974000Y-92474801D01*
X162974000Y-91025199D01*
X162970233Y-91006262D01*
X162960186Y-90991227D01*
X162960055Y-90989232D01*
X162961718Y-90988120D01*
X162962447Y-90988207D01*
X163022788Y-91007102D01*
X163087690Y-90988045D01*
X163089633Y-90988517D01*
G37*
G36*
X165689633Y-90988517D02*
G01*
X165690197Y-90990436D01*
X165689916Y-90991075D01*
X165679767Y-91006263D01*
X165676000Y-91025199D01*
X165676000Y-92474801D01*
X165679767Y-92493738D01*
X165689814Y-92508773D01*
X165689945Y-92510768D01*
X165688282Y-92511880D01*
X165687553Y-92511793D01*
X165627212Y-92492898D01*
X165562310Y-92511955D01*
X165560367Y-92511483D01*
X165559803Y-92509564D01*
X165560084Y-92508925D01*
X165570233Y-92493737D01*
X165574000Y-92474801D01*
X165574000Y-91025199D01*
X165570233Y-91006262D01*
X165560186Y-90991227D01*
X165560055Y-90989232D01*
X165561718Y-90988120D01*
X165562447Y-90988207D01*
X165622788Y-91007102D01*
X165687690Y-90988045D01*
X165689633Y-90988517D01*
G37*
G36*
X163739633Y-90988517D02*
G01*
X163740197Y-90990436D01*
X163739916Y-90991075D01*
X163729767Y-91006263D01*
X163726000Y-91025199D01*
X163726000Y-92474801D01*
X163729767Y-92493738D01*
X163739814Y-92508773D01*
X163739945Y-92510768D01*
X163738282Y-92511880D01*
X163737553Y-92511793D01*
X163677212Y-92492898D01*
X163612310Y-92511955D01*
X163610367Y-92511483D01*
X163609803Y-92509564D01*
X163610084Y-92508925D01*
X163620233Y-92493737D01*
X163624000Y-92474801D01*
X163624000Y-91025199D01*
X163620233Y-91006262D01*
X163610186Y-90991227D01*
X163610055Y-90989232D01*
X163611718Y-90988120D01*
X163612447Y-90988207D01*
X163672788Y-91007102D01*
X163737690Y-90988045D01*
X163739633Y-90988517D01*
G37*
G36*
X165039633Y-85088517D02*
G01*
X165040197Y-85090436D01*
X165039916Y-85091075D01*
X165029767Y-85106263D01*
X165026000Y-85125199D01*
X165026000Y-86574801D01*
X165029767Y-86593738D01*
X165039814Y-86608773D01*
X165039945Y-86610768D01*
X165038282Y-86611880D01*
X165037553Y-86611793D01*
X164977212Y-86592898D01*
X164912310Y-86611955D01*
X164910367Y-86611483D01*
X164909803Y-86609564D01*
X164910084Y-86608925D01*
X164920233Y-86593737D01*
X164924000Y-86574801D01*
X164924000Y-85125199D01*
X164920233Y-85106262D01*
X164910186Y-85091227D01*
X164910055Y-85089232D01*
X164911718Y-85088120D01*
X164912447Y-85088207D01*
X164972788Y-85107102D01*
X165037690Y-85088045D01*
X165039633Y-85088517D01*
G37*
G36*
X164389633Y-85088517D02*
G01*
X164390197Y-85090436D01*
X164389916Y-85091075D01*
X164379767Y-85106263D01*
X164376000Y-85125199D01*
X164376000Y-86574801D01*
X164379767Y-86593738D01*
X164389814Y-86608773D01*
X164389945Y-86610768D01*
X164388282Y-86611880D01*
X164387553Y-86611793D01*
X164327212Y-86592898D01*
X164262310Y-86611955D01*
X164260367Y-86611483D01*
X164259803Y-86609564D01*
X164260084Y-86608925D01*
X164270233Y-86593737D01*
X164274000Y-86574801D01*
X164274000Y-85125199D01*
X164270233Y-85106262D01*
X164260186Y-85091227D01*
X164260055Y-85089232D01*
X164261718Y-85088120D01*
X164262447Y-85088207D01*
X164322788Y-85107102D01*
X164387690Y-85088045D01*
X164389633Y-85088517D01*
G37*
G36*
X162439633Y-85088517D02*
G01*
X162440197Y-85090436D01*
X162439916Y-85091075D01*
X162429767Y-85106263D01*
X162426000Y-85125199D01*
X162426000Y-86574801D01*
X162429767Y-86593738D01*
X162439814Y-86608773D01*
X162439945Y-86610768D01*
X162438282Y-86611880D01*
X162437553Y-86611793D01*
X162377212Y-86592898D01*
X162312310Y-86611955D01*
X162310367Y-86611483D01*
X162309803Y-86609564D01*
X162310084Y-86608925D01*
X162320233Y-86593737D01*
X162324000Y-86574801D01*
X162324000Y-85125199D01*
X162320233Y-85106262D01*
X162310186Y-85091227D01*
X162310055Y-85089232D01*
X162311718Y-85088120D01*
X162312447Y-85088207D01*
X162372788Y-85107102D01*
X162437690Y-85088045D01*
X162439633Y-85088517D01*
G37*
G36*
X163739633Y-85088517D02*
G01*
X163740197Y-85090436D01*
X163739916Y-85091075D01*
X163729767Y-85106263D01*
X163726000Y-85125199D01*
X163726000Y-86574801D01*
X163729767Y-86593738D01*
X163739814Y-86608773D01*
X163739945Y-86610768D01*
X163738282Y-86611880D01*
X163737553Y-86611793D01*
X163677212Y-86592898D01*
X163612310Y-86611955D01*
X163610367Y-86611483D01*
X163609803Y-86609564D01*
X163610084Y-86608925D01*
X163620233Y-86593737D01*
X163624000Y-86574801D01*
X163624000Y-85125199D01*
X163620233Y-85106262D01*
X163610186Y-85091227D01*
X163610055Y-85089232D01*
X163611718Y-85088120D01*
X163612447Y-85088207D01*
X163672788Y-85107102D01*
X163737690Y-85088045D01*
X163739633Y-85088517D01*
G37*
G36*
X163089633Y-85088517D02*
G01*
X163090197Y-85090436D01*
X163089916Y-85091075D01*
X163079767Y-85106263D01*
X163076000Y-85125199D01*
X163076000Y-86574801D01*
X163079767Y-86593738D01*
X163089814Y-86608773D01*
X163089945Y-86610768D01*
X163088282Y-86611880D01*
X163087553Y-86611793D01*
X163027212Y-86592898D01*
X162962310Y-86611955D01*
X162960367Y-86611483D01*
X162959803Y-86609564D01*
X162960084Y-86608925D01*
X162970233Y-86593737D01*
X162974000Y-86574801D01*
X162974000Y-85125199D01*
X162970233Y-85106262D01*
X162960186Y-85091227D01*
X162960055Y-85089232D01*
X162961718Y-85088120D01*
X162962447Y-85088207D01*
X163022788Y-85107102D01*
X163087690Y-85088045D01*
X163089633Y-85088517D01*
G37*
G36*
X165689633Y-85088517D02*
G01*
X165690197Y-85090436D01*
X165689916Y-85091075D01*
X165679767Y-85106263D01*
X165676000Y-85125199D01*
X165676000Y-86574801D01*
X165679767Y-86593738D01*
X165689814Y-86608773D01*
X165689945Y-86610768D01*
X165688282Y-86611880D01*
X165687553Y-86611793D01*
X165627212Y-86592898D01*
X165562310Y-86611955D01*
X165560367Y-86611483D01*
X165559803Y-86609564D01*
X165560084Y-86608925D01*
X165570233Y-86593737D01*
X165574000Y-86574801D01*
X165574000Y-85125199D01*
X165570233Y-85106262D01*
X165560186Y-85091227D01*
X165560055Y-85089232D01*
X165561718Y-85088120D01*
X165562447Y-85088207D01*
X165622788Y-85107102D01*
X165687690Y-85088045D01*
X165689633Y-85088517D01*
G37*
G36*
X149859113Y-81737981D02*
G01*
X149859677Y-81739900D01*
X149858844Y-81741091D01*
X149850600Y-81746600D01*
X149829019Y-81778898D01*
X149821400Y-81817199D01*
X149821400Y-82816801D01*
X149829019Y-82855102D01*
X149850600Y-82887400D01*
X149858421Y-82892626D01*
X149859306Y-82894420D01*
X149858195Y-82896083D01*
X149856712Y-82896198D01*
X149798210Y-82877881D01*
X149734830Y-82896491D01*
X149732887Y-82896019D01*
X149732323Y-82894100D01*
X149733156Y-82892909D01*
X149741400Y-82887400D01*
X149762981Y-82855102D01*
X149770600Y-82816801D01*
X149770600Y-81817199D01*
X149762981Y-81778898D01*
X149741400Y-81746600D01*
X149733579Y-81741374D01*
X149732694Y-81739580D01*
X149733805Y-81737917D01*
X149735288Y-81737802D01*
X149793790Y-81756119D01*
X149857170Y-81737509D01*
X149859113Y-81737981D01*
G37*
G36*
X151659113Y-81737981D02*
G01*
X151659677Y-81739900D01*
X151658844Y-81741091D01*
X151650600Y-81746600D01*
X151629019Y-81778898D01*
X151621400Y-81817199D01*
X151621400Y-82816801D01*
X151629019Y-82855102D01*
X151650600Y-82887400D01*
X151658421Y-82892626D01*
X151659306Y-82894420D01*
X151658195Y-82896083D01*
X151656712Y-82896198D01*
X151598210Y-82877881D01*
X151534830Y-82896491D01*
X151532887Y-82896019D01*
X151532323Y-82894100D01*
X151533156Y-82892909D01*
X151541400Y-82887400D01*
X151562981Y-82855102D01*
X151570600Y-82816801D01*
X151570600Y-81817199D01*
X151562981Y-81778898D01*
X151541400Y-81746600D01*
X151533579Y-81741374D01*
X151532694Y-81739580D01*
X151533805Y-81737917D01*
X151535288Y-81737802D01*
X151593790Y-81756119D01*
X151657170Y-81737509D01*
X151659113Y-81737981D01*
G37*
G36*
X148959113Y-81737981D02*
G01*
X148959677Y-81739900D01*
X148958844Y-81741091D01*
X148950600Y-81746600D01*
X148929019Y-81778898D01*
X148921400Y-81817199D01*
X148921400Y-82816801D01*
X148929019Y-82855102D01*
X148950600Y-82887400D01*
X148958421Y-82892626D01*
X148959306Y-82894420D01*
X148958195Y-82896083D01*
X148956712Y-82896198D01*
X148898210Y-82877881D01*
X148834830Y-82896491D01*
X148832887Y-82896019D01*
X148832323Y-82894100D01*
X148833156Y-82892909D01*
X148841400Y-82887400D01*
X148862981Y-82855102D01*
X148870600Y-82816801D01*
X148870600Y-81817199D01*
X148862981Y-81778898D01*
X148841400Y-81746600D01*
X148833579Y-81741374D01*
X148832694Y-81739580D01*
X148833805Y-81737917D01*
X148835288Y-81737802D01*
X148893790Y-81756119D01*
X148957170Y-81737509D01*
X148959113Y-81737981D01*
G37*
G36*
X146259113Y-81737981D02*
G01*
X146259677Y-81739900D01*
X146258844Y-81741091D01*
X146250600Y-81746600D01*
X146229019Y-81778898D01*
X146221400Y-81817199D01*
X146221400Y-82816801D01*
X146229019Y-82855102D01*
X146250600Y-82887400D01*
X146258421Y-82892626D01*
X146259306Y-82894420D01*
X146258195Y-82896083D01*
X146256712Y-82896198D01*
X146198210Y-82877881D01*
X146134830Y-82896491D01*
X146132887Y-82896019D01*
X146132323Y-82894100D01*
X146133156Y-82892909D01*
X146141400Y-82887400D01*
X146162981Y-82855102D01*
X146170600Y-82816801D01*
X146170600Y-81817199D01*
X146162981Y-81778898D01*
X146141400Y-81746600D01*
X146133579Y-81741374D01*
X146132694Y-81739580D01*
X146133805Y-81737917D01*
X146135288Y-81737802D01*
X146193790Y-81756119D01*
X146257170Y-81737509D01*
X146259113Y-81737981D01*
G37*
G36*
X148059113Y-81737981D02*
G01*
X148059677Y-81739900D01*
X148058844Y-81741091D01*
X148050600Y-81746600D01*
X148029019Y-81778898D01*
X148021400Y-81817199D01*
X148021400Y-82816801D01*
X148029019Y-82855102D01*
X148050600Y-82887400D01*
X148058421Y-82892626D01*
X148059306Y-82894420D01*
X148058195Y-82896083D01*
X148056712Y-82896198D01*
X147998210Y-82877881D01*
X147934830Y-82896491D01*
X147932887Y-82896019D01*
X147932323Y-82894100D01*
X147933156Y-82892909D01*
X147941400Y-82887400D01*
X147962981Y-82855102D01*
X147970600Y-82816801D01*
X147970600Y-81817199D01*
X147962981Y-81778898D01*
X147941400Y-81746600D01*
X147933579Y-81741374D01*
X147932694Y-81739580D01*
X147933805Y-81737917D01*
X147935288Y-81737802D01*
X147993790Y-81756119D01*
X148057170Y-81737509D01*
X148059113Y-81737981D01*
G37*
G36*
X147159113Y-81737981D02*
G01*
X147159677Y-81739900D01*
X147158844Y-81741091D01*
X147150600Y-81746600D01*
X147129019Y-81778898D01*
X147121400Y-81817199D01*
X147121400Y-82816801D01*
X147129019Y-82855102D01*
X147150600Y-82887400D01*
X147158421Y-82892626D01*
X147159306Y-82894420D01*
X147158195Y-82896083D01*
X147156712Y-82896198D01*
X147098210Y-82877881D01*
X147034830Y-82896491D01*
X147032887Y-82896019D01*
X147032323Y-82894100D01*
X147033156Y-82892909D01*
X147041400Y-82887400D01*
X147062981Y-82855102D01*
X147070600Y-82816801D01*
X147070600Y-81817199D01*
X147062981Y-81778898D01*
X147041400Y-81746600D01*
X147033579Y-81741374D01*
X147032694Y-81739580D01*
X147033805Y-81737917D01*
X147035288Y-81737802D01*
X147093790Y-81756119D01*
X147157170Y-81737509D01*
X147159113Y-81737981D01*
G37*
G36*
X150759113Y-81737981D02*
G01*
X150759677Y-81739900D01*
X150758844Y-81741091D01*
X150750600Y-81746600D01*
X150729019Y-81778898D01*
X150721400Y-81817199D01*
X150721400Y-82816801D01*
X150729019Y-82855102D01*
X150750600Y-82887400D01*
X150758421Y-82892626D01*
X150759306Y-82894420D01*
X150758195Y-82896083D01*
X150756712Y-82896198D01*
X150698210Y-82877881D01*
X150634830Y-82896491D01*
X150632887Y-82896019D01*
X150632323Y-82894100D01*
X150633156Y-82892909D01*
X150641400Y-82887400D01*
X150662981Y-82855102D01*
X150670600Y-82816801D01*
X150670600Y-81817199D01*
X150662981Y-81778898D01*
X150641400Y-81746600D01*
X150633579Y-81741374D01*
X150632694Y-81739580D01*
X150633805Y-81737917D01*
X150635288Y-81737802D01*
X150693790Y-81756119D01*
X150757170Y-81737509D01*
X150759113Y-81737981D01*
G37*
M02*
