G04 #@! TF.GenerationSoftware,KiCad,Pcbnew,(6.0.1-0)*
G04 #@! TF.CreationDate,2022-03-11T23:13:55+01:00*
G04 #@! TF.ProjectId,SDshield,53447368-6965-46c6-942e-6b696361645f,rev?*
G04 #@! TF.SameCoordinates,Original*
G04 #@! TF.FileFunction,Copper,L2,Bot*
G04 #@! TF.FilePolarity,Positive*
%FSLAX46Y46*%
G04 Gerber Fmt 4.6, Leading zero omitted, Abs format (unit mm)*
G04 Created by KiCad (PCBNEW (6.0.1-0)) date 2022-03-11 23:13:55*
%MOMM*%
%LPD*%
G01*
G04 APERTURE LIST*
G04 #@! TA.AperFunction,SMDPad,CuDef*
%ADD10R,1.000000X1.000000*%
G04 #@! TD*
G04 #@! TA.AperFunction,ComponentPad*
%ADD11R,1.700000X1.700000*%
G04 #@! TD*
G04 #@! TA.AperFunction,ComponentPad*
%ADD12O,1.700000X1.700000*%
G04 #@! TD*
G04 #@! TA.AperFunction,ViaPad*
%ADD13C,0.800000*%
G04 #@! TD*
G04 #@! TA.AperFunction,Conductor*
%ADD14C,0.250000*%
G04 #@! TD*
G04 APERTURE END LIST*
D10*
X148825000Y-88312500D03*
X142825000Y-88312500D03*
X141325000Y-88312500D03*
X139825000Y-88312500D03*
X148825000Y-89812500D03*
X147325000Y-89812500D03*
X145825000Y-89812500D03*
X144325000Y-89812500D03*
X142825000Y-89812500D03*
X148825000Y-91312500D03*
X147325000Y-91312500D03*
X142825000Y-91312500D03*
X141325000Y-91312500D03*
X139825000Y-91312500D03*
X148825000Y-92812500D03*
X147325000Y-92812500D03*
X145825000Y-92812500D03*
X144325000Y-92812500D03*
X139825000Y-92812500D03*
X148825000Y-94312500D03*
X147325000Y-94312500D03*
X142825000Y-94312500D03*
X141325000Y-94312500D03*
X139825000Y-94312500D03*
X147325000Y-95812500D03*
X145825000Y-95812500D03*
X144325000Y-95812500D03*
D11*
X166800000Y-81400000D03*
X136260000Y-81400000D03*
D12*
X138800000Y-81400000D03*
D11*
X166740000Y-96600000D03*
D12*
X164200000Y-96600000D03*
D11*
X133800000Y-96600000D03*
D12*
X136340000Y-96600000D03*
D13*
X140750000Y-89500000D03*
X166200000Y-93400000D03*
X160900000Y-82850000D03*
X159600000Y-87750000D03*
X141250000Y-82500000D03*
X163800000Y-82600000D03*
X161840000Y-93500000D03*
X166025000Y-84200000D03*
X160400000Y-84525000D03*
X160680000Y-89910000D03*
X144972982Y-81249989D03*
X151250000Y-81000000D03*
X163424500Y-93180000D03*
X162880000Y-94080000D03*
X166120000Y-94590000D03*
D14*
X165700000Y-84525000D02*
X166025000Y-84200000D01*
X160400000Y-84525000D02*
X165700000Y-84525000D01*
X153632993Y-89910000D02*
X144972982Y-81249989D01*
X160680000Y-89910000D02*
X153632993Y-89910000D01*
X163424500Y-88962500D02*
X160212000Y-85750000D01*
X163424500Y-93180000D02*
X163424500Y-88962500D01*
X160212000Y-85750000D02*
X156000000Y-85750000D01*
X156000000Y-85750000D02*
X151250000Y-81000000D01*
X163390000Y-94590000D02*
X162880000Y-94080000D01*
X166120000Y-94590000D02*
X163390000Y-94590000D01*
G04 #@! TA.AperFunction,Conductor*
G36*
X134844121Y-80528002D02*
G01*
X134890614Y-80581658D01*
X134902000Y-80634000D01*
X134902000Y-81127885D01*
X134906475Y-81143124D01*
X134907865Y-81144329D01*
X134915548Y-81146000D01*
X136388000Y-81146000D01*
X136456121Y-81166002D01*
X136502614Y-81219658D01*
X136514000Y-81272000D01*
X136514000Y-82739884D01*
X136518475Y-82755123D01*
X136519865Y-82756328D01*
X136527548Y-82757999D01*
X137154669Y-82757999D01*
X137161490Y-82757629D01*
X137212352Y-82752105D01*
X137227604Y-82748479D01*
X137348054Y-82703324D01*
X137363649Y-82694786D01*
X137465724Y-82618285D01*
X137478285Y-82605724D01*
X137554786Y-82503649D01*
X137563324Y-82488054D01*
X137604225Y-82378952D01*
X137646867Y-82322188D01*
X137713428Y-82297488D01*
X137782777Y-82312696D01*
X137817444Y-82340684D01*
X137842865Y-82370031D01*
X137842869Y-82370035D01*
X137846250Y-82373938D01*
X138018126Y-82516632D01*
X138211000Y-82629338D01*
X138419692Y-82709030D01*
X138424760Y-82710061D01*
X138424763Y-82710062D01*
X138532017Y-82731883D01*
X138638597Y-82753567D01*
X138643772Y-82753757D01*
X138643774Y-82753757D01*
X138856673Y-82761564D01*
X138856677Y-82761564D01*
X138861837Y-82761753D01*
X138866957Y-82761097D01*
X138866959Y-82761097D01*
X139078288Y-82734025D01*
X139078289Y-82734025D01*
X139083416Y-82733368D01*
X139088366Y-82731883D01*
X139292429Y-82670661D01*
X139292434Y-82670659D01*
X139297384Y-82669174D01*
X139497994Y-82570896D01*
X139679860Y-82441173D01*
X139838096Y-82283489D01*
X139968453Y-82102077D01*
X140067430Y-81901811D01*
X140132370Y-81688069D01*
X140161529Y-81466590D01*
X140163156Y-81400000D01*
X140144852Y-81177361D01*
X140090431Y-80960702D01*
X140001354Y-80755840D01*
X139966808Y-80702440D01*
X139946601Y-80634380D01*
X139966397Y-80566199D01*
X140019912Y-80519545D01*
X140072600Y-80508000D01*
X144136481Y-80508000D01*
X144204602Y-80528002D01*
X144251095Y-80581658D01*
X144261199Y-80651932D01*
X144238415Y-80708064D01*
X144238365Y-80708133D01*
X144233942Y-80713045D01*
X144230640Y-80718764D01*
X144230638Y-80718767D01*
X144181546Y-80803797D01*
X144138455Y-80878433D01*
X144079440Y-81060061D01*
X144078750Y-81066622D01*
X144078750Y-81066624D01*
X144068305Y-81166002D01*
X144059478Y-81249989D01*
X144060168Y-81256554D01*
X144075245Y-81400000D01*
X144079440Y-81439917D01*
X144138455Y-81621545D01*
X144233942Y-81786933D01*
X144238360Y-81791840D01*
X144238361Y-81791841D01*
X144341558Y-81906453D01*
X144361729Y-81928855D01*
X144516230Y-82041107D01*
X144522258Y-82043791D01*
X144522260Y-82043792D01*
X144662605Y-82106277D01*
X144690694Y-82118783D01*
X144784094Y-82138636D01*
X144871038Y-82157117D01*
X144871043Y-82157117D01*
X144877495Y-82158489D01*
X144933388Y-82158489D01*
X145001509Y-82178491D01*
X145022483Y-82195394D01*
X149088246Y-86261158D01*
X153129341Y-90302253D01*
X153136881Y-90310539D01*
X153140993Y-90317018D01*
X153146770Y-90322443D01*
X153190644Y-90363643D01*
X153193486Y-90366398D01*
X153213223Y-90386135D01*
X153216420Y-90388615D01*
X153225440Y-90396318D01*
X153257672Y-90426586D01*
X153264618Y-90430405D01*
X153264621Y-90430407D01*
X153275427Y-90436348D01*
X153291946Y-90447199D01*
X153307952Y-90459614D01*
X153315221Y-90462759D01*
X153315225Y-90462762D01*
X153348530Y-90477174D01*
X153359180Y-90482391D01*
X153397933Y-90503695D01*
X153405608Y-90505666D01*
X153405609Y-90505666D01*
X153417555Y-90508733D01*
X153436259Y-90515137D01*
X153443502Y-90518271D01*
X153454848Y-90523181D01*
X153462671Y-90524420D01*
X153462681Y-90524423D01*
X153498517Y-90530099D01*
X153510137Y-90532505D01*
X153545282Y-90541528D01*
X153552963Y-90543500D01*
X153573217Y-90543500D01*
X153592927Y-90545051D01*
X153612936Y-90548220D01*
X153620828Y-90547474D01*
X153656954Y-90544059D01*
X153668812Y-90543500D01*
X159971800Y-90543500D01*
X160039921Y-90563502D01*
X160059147Y-90579843D01*
X160059420Y-90579540D01*
X160064332Y-90583963D01*
X160068747Y-90588866D01*
X160223248Y-90701118D01*
X160229276Y-90703802D01*
X160229278Y-90703803D01*
X160391681Y-90776109D01*
X160397712Y-90778794D01*
X160491113Y-90798647D01*
X160578056Y-90817128D01*
X160578061Y-90817128D01*
X160584513Y-90818500D01*
X160775487Y-90818500D01*
X160781939Y-90817128D01*
X160781944Y-90817128D01*
X160868888Y-90798647D01*
X160962288Y-90778794D01*
X160968319Y-90776109D01*
X161130722Y-90703803D01*
X161130724Y-90703802D01*
X161136752Y-90701118D01*
X161291253Y-90588866D01*
X161317960Y-90559205D01*
X161414621Y-90451852D01*
X161414622Y-90451851D01*
X161419040Y-90446944D01*
X161497669Y-90310755D01*
X161511223Y-90287279D01*
X161511224Y-90287278D01*
X161514527Y-90281556D01*
X161573542Y-90099928D01*
X161593504Y-89910000D01*
X161573542Y-89720072D01*
X161514527Y-89538444D01*
X161419040Y-89373056D01*
X161390179Y-89341002D01*
X161295675Y-89236045D01*
X161295674Y-89236044D01*
X161291253Y-89231134D01*
X161136752Y-89118882D01*
X161130724Y-89116198D01*
X161130722Y-89116197D01*
X160968319Y-89043891D01*
X160968318Y-89043891D01*
X160962288Y-89041206D01*
X160854388Y-89018271D01*
X160781944Y-89002872D01*
X160781939Y-89002872D01*
X160775487Y-89001500D01*
X160584513Y-89001500D01*
X160578061Y-89002872D01*
X160578056Y-89002872D01*
X160505612Y-89018271D01*
X160397712Y-89041206D01*
X160391682Y-89043891D01*
X160391681Y-89043891D01*
X160229278Y-89116197D01*
X160229276Y-89116198D01*
X160223248Y-89118882D01*
X160068747Y-89231134D01*
X160064332Y-89236037D01*
X160059420Y-89240460D01*
X160058295Y-89239211D01*
X160004986Y-89272051D01*
X159971800Y-89276500D01*
X153947587Y-89276500D01*
X153879466Y-89256498D01*
X153858492Y-89239595D01*
X145920104Y-81301206D01*
X145886078Y-81238894D01*
X145883889Y-81225281D01*
X145867214Y-81066624D01*
X145867214Y-81066622D01*
X145866524Y-81060061D01*
X145807509Y-80878433D01*
X145764418Y-80803797D01*
X145715326Y-80718767D01*
X145715324Y-80718764D01*
X145712022Y-80713045D01*
X145707599Y-80708133D01*
X145707549Y-80708064D01*
X145683689Y-80641196D01*
X145699767Y-80572044D01*
X145750680Y-80522563D01*
X145809483Y-80508000D01*
X150281184Y-80508000D01*
X150349305Y-80528002D01*
X150395798Y-80581658D01*
X150405902Y-80651932D01*
X150401019Y-80672929D01*
X150356458Y-80810072D01*
X150355768Y-80816633D01*
X150355768Y-80816635D01*
X150349273Y-80878433D01*
X150336496Y-81000000D01*
X150337186Y-81006565D01*
X150355680Y-81182522D01*
X150356458Y-81189928D01*
X150415473Y-81371556D01*
X150510960Y-81536944D01*
X150515378Y-81541851D01*
X150515379Y-81541852D01*
X150617862Y-81655671D01*
X150638747Y-81678866D01*
X150793248Y-81791118D01*
X150799276Y-81793802D01*
X150799278Y-81793803D01*
X150961681Y-81866109D01*
X150967712Y-81868794D01*
X151061113Y-81888647D01*
X151148056Y-81907128D01*
X151148061Y-81907128D01*
X151154513Y-81908500D01*
X151210406Y-81908500D01*
X151278527Y-81928502D01*
X151299501Y-81945405D01*
X155496343Y-86142247D01*
X155503887Y-86150537D01*
X155508000Y-86157018D01*
X155513777Y-86162443D01*
X155557667Y-86203658D01*
X155560509Y-86206413D01*
X155580230Y-86226134D01*
X155583425Y-86228612D01*
X155592447Y-86236318D01*
X155624679Y-86266586D01*
X155631628Y-86270406D01*
X155642432Y-86276346D01*
X155658956Y-86287199D01*
X155674959Y-86299613D01*
X155715543Y-86317176D01*
X155726173Y-86322383D01*
X155764940Y-86343695D01*
X155772617Y-86345666D01*
X155772622Y-86345668D01*
X155784558Y-86348732D01*
X155803266Y-86355137D01*
X155821855Y-86363181D01*
X155829680Y-86364420D01*
X155829682Y-86364421D01*
X155865519Y-86370097D01*
X155877140Y-86372504D01*
X155912289Y-86381528D01*
X155919970Y-86383500D01*
X155940231Y-86383500D01*
X155959940Y-86385051D01*
X155979943Y-86388219D01*
X155987835Y-86387473D01*
X155993062Y-86386979D01*
X156023954Y-86384059D01*
X156035811Y-86383500D01*
X159897406Y-86383500D01*
X159965527Y-86403502D01*
X159986501Y-86420405D01*
X162754095Y-89188000D01*
X162788121Y-89250312D01*
X162791000Y-89277095D01*
X162791000Y-92477476D01*
X162770998Y-92545597D01*
X162758642Y-92561779D01*
X162685460Y-92643056D01*
X162589973Y-92808444D01*
X162530958Y-92990072D01*
X162510996Y-93180000D01*
X162508156Y-93179702D01*
X162491684Y-93235802D01*
X162436936Y-93282787D01*
X162429283Y-93286194D01*
X162429275Y-93286199D01*
X162423248Y-93288882D01*
X162417907Y-93292762D01*
X162417906Y-93292763D01*
X162389324Y-93313529D01*
X162268747Y-93401134D01*
X162140960Y-93543056D01*
X162045473Y-93708444D01*
X161986458Y-93890072D01*
X161966496Y-94080000D01*
X161986458Y-94269928D01*
X162045473Y-94451556D01*
X162140960Y-94616944D01*
X162268747Y-94758866D01*
X162331376Y-94804369D01*
X162413494Y-94864031D01*
X162423248Y-94871118D01*
X162429276Y-94873802D01*
X162429278Y-94873803D01*
X162591681Y-94946109D01*
X162597712Y-94948794D01*
X162684677Y-94967279D01*
X162778056Y-94987128D01*
X162778061Y-94987128D01*
X162784513Y-94988500D01*
X162839043Y-94988500D01*
X162907164Y-95008502D01*
X162925296Y-95022650D01*
X162947651Y-95043643D01*
X162950493Y-95046398D01*
X162970230Y-95066135D01*
X162973427Y-95068615D01*
X162982447Y-95076318D01*
X163014679Y-95106586D01*
X163021625Y-95110405D01*
X163021628Y-95110407D01*
X163032434Y-95116348D01*
X163048953Y-95127199D01*
X163064959Y-95139614D01*
X163072228Y-95142759D01*
X163072232Y-95142762D01*
X163105537Y-95157174D01*
X163116187Y-95162391D01*
X163154940Y-95183695D01*
X163162615Y-95185666D01*
X163162616Y-95185666D01*
X163174562Y-95188733D01*
X163193267Y-95195137D01*
X163211855Y-95203181D01*
X163219678Y-95204420D01*
X163219688Y-95204423D01*
X163255524Y-95210099D01*
X163267144Y-95212505D01*
X163302172Y-95221498D01*
X163309970Y-95223500D01*
X163330224Y-95223500D01*
X163349934Y-95225051D01*
X163369943Y-95228220D01*
X163377835Y-95227474D01*
X163385758Y-95227723D01*
X163385705Y-95229422D01*
X163446064Y-95241115D01*
X163497401Y-95290157D01*
X163514074Y-95359168D01*
X163490789Y-95426238D01*
X163463875Y-95453814D01*
X163407545Y-95496108D01*
X163294965Y-95580635D01*
X163255525Y-95621907D01*
X163201280Y-95678671D01*
X163140629Y-95742138D01*
X163014743Y-95926680D01*
X162920688Y-96129305D01*
X162860989Y-96344570D01*
X162837251Y-96566695D01*
X162837548Y-96571848D01*
X162837548Y-96571851D01*
X162843850Y-96681142D01*
X162850110Y-96789715D01*
X162851247Y-96794761D01*
X162851248Y-96794767D01*
X162862031Y-96842614D01*
X162899222Y-97007639D01*
X162983266Y-97214616D01*
X163099987Y-97405088D01*
X163103371Y-97408994D01*
X163103372Y-97408996D01*
X163211223Y-97533503D01*
X163240706Y-97598088D01*
X163230591Y-97668360D01*
X163184090Y-97722009D01*
X163115986Y-97742000D01*
X137423625Y-97742000D01*
X137355504Y-97721998D01*
X137309011Y-97668342D01*
X137298907Y-97598068D01*
X137328401Y-97533488D01*
X137334685Y-97526749D01*
X137374435Y-97487137D01*
X137378096Y-97483489D01*
X137437594Y-97400689D01*
X137505435Y-97306277D01*
X137508453Y-97302077D01*
X137607430Y-97101811D01*
X137672370Y-96888069D01*
X137701529Y-96666590D01*
X137703156Y-96600000D01*
X137684852Y-96377361D01*
X137630431Y-96160702D01*
X137541354Y-95955840D01*
X137420014Y-95768277D01*
X137269670Y-95603051D01*
X137265619Y-95599852D01*
X137265615Y-95599848D01*
X137098414Y-95467800D01*
X137098410Y-95467798D01*
X137094359Y-95464598D01*
X136898789Y-95356638D01*
X136893920Y-95354914D01*
X136893916Y-95354912D01*
X136693087Y-95283795D01*
X136693083Y-95283794D01*
X136688212Y-95282069D01*
X136683119Y-95281162D01*
X136683116Y-95281161D01*
X136473373Y-95243800D01*
X136473367Y-95243799D01*
X136468284Y-95242894D01*
X136394452Y-95241992D01*
X136250081Y-95240228D01*
X136250079Y-95240228D01*
X136244911Y-95240165D01*
X136024091Y-95273955D01*
X135811756Y-95343357D01*
X135781443Y-95359137D01*
X135654797Y-95425065D01*
X135613607Y-95446507D01*
X135609474Y-95449610D01*
X135609471Y-95449612D01*
X135526450Y-95511946D01*
X135434965Y-95580635D01*
X135431393Y-95584373D01*
X135353898Y-95665466D01*
X135292374Y-95700895D01*
X135221462Y-95697438D01*
X135163676Y-95656192D01*
X135144823Y-95622644D01*
X135103324Y-95511946D01*
X135094786Y-95496351D01*
X135018285Y-95394276D01*
X135005724Y-95381715D01*
X134903649Y-95305214D01*
X134888054Y-95296676D01*
X134767606Y-95251522D01*
X134752351Y-95247895D01*
X134701486Y-95242369D01*
X134694672Y-95242000D01*
X134072115Y-95242000D01*
X134056876Y-95246475D01*
X134055671Y-95247865D01*
X134054000Y-95255548D01*
X134054000Y-96728000D01*
X134033998Y-96796121D01*
X133980342Y-96842614D01*
X133928000Y-96854000D01*
X133672000Y-96854000D01*
X133603879Y-96833998D01*
X133557386Y-96780342D01*
X133546000Y-96728000D01*
X133546000Y-95260116D01*
X133541525Y-95244877D01*
X133540135Y-95243672D01*
X133532452Y-95242001D01*
X132905331Y-95242001D01*
X132898525Y-95242370D01*
X132897611Y-95242469D01*
X132897398Y-95242431D01*
X132895123Y-95242554D01*
X132895094Y-95242018D01*
X132827728Y-95229942D01*
X132775711Y-95181623D01*
X132758000Y-95117206D01*
X132758000Y-94860634D01*
X138816500Y-94860634D01*
X138823255Y-94922816D01*
X138874385Y-95059205D01*
X138961739Y-95175761D01*
X139078295Y-95263115D01*
X139214684Y-95314245D01*
X139276866Y-95321000D01*
X140373134Y-95321000D01*
X140435316Y-95314245D01*
X140442712Y-95311473D01*
X140442718Y-95311471D01*
X140530771Y-95278461D01*
X140601578Y-95273278D01*
X140619229Y-95278461D01*
X140707282Y-95311471D01*
X140707288Y-95311473D01*
X140714684Y-95314245D01*
X140776866Y-95321000D01*
X141873134Y-95321000D01*
X141935316Y-95314245D01*
X141942712Y-95311473D01*
X141942718Y-95311471D01*
X142030771Y-95278461D01*
X142101578Y-95273278D01*
X142119229Y-95278461D01*
X142207282Y-95311471D01*
X142207288Y-95311473D01*
X142214684Y-95314245D01*
X142276866Y-95321000D01*
X143190500Y-95321000D01*
X143258621Y-95341002D01*
X143305114Y-95394658D01*
X143316500Y-95447000D01*
X143316500Y-96360634D01*
X143323255Y-96422816D01*
X143374385Y-96559205D01*
X143461739Y-96675761D01*
X143578295Y-96763115D01*
X143714684Y-96814245D01*
X143776866Y-96821000D01*
X144873134Y-96821000D01*
X144935316Y-96814245D01*
X144942712Y-96811473D01*
X144942718Y-96811471D01*
X145030771Y-96778461D01*
X145101578Y-96773278D01*
X145119229Y-96778461D01*
X145207282Y-96811471D01*
X145207288Y-96811473D01*
X145214684Y-96814245D01*
X145276866Y-96821000D01*
X146373134Y-96821000D01*
X146435316Y-96814245D01*
X146442712Y-96811473D01*
X146442718Y-96811471D01*
X146530771Y-96778461D01*
X146601578Y-96773278D01*
X146619229Y-96778461D01*
X146707282Y-96811471D01*
X146707288Y-96811473D01*
X146714684Y-96814245D01*
X146776866Y-96821000D01*
X147873134Y-96821000D01*
X147935316Y-96814245D01*
X148071705Y-96763115D01*
X148188261Y-96675761D01*
X148275615Y-96559205D01*
X148326745Y-96422816D01*
X148333500Y-96360634D01*
X148333500Y-95447000D01*
X148353502Y-95378879D01*
X148407158Y-95332386D01*
X148459500Y-95321000D01*
X149373134Y-95321000D01*
X149435316Y-95314245D01*
X149571705Y-95263115D01*
X149688261Y-95175761D01*
X149775615Y-95059205D01*
X149826745Y-94922816D01*
X149833500Y-94860634D01*
X149833500Y-93764366D01*
X149826745Y-93702184D01*
X149823973Y-93694788D01*
X149823971Y-93694782D01*
X149790961Y-93606729D01*
X149785778Y-93535922D01*
X149790961Y-93518271D01*
X149823971Y-93430218D01*
X149823973Y-93430212D01*
X149826745Y-93422816D01*
X149833500Y-93360634D01*
X149833500Y-92264366D01*
X149826745Y-92202184D01*
X149823973Y-92194788D01*
X149823971Y-92194782D01*
X149790961Y-92106729D01*
X149785778Y-92035922D01*
X149790961Y-92018271D01*
X149823971Y-91930218D01*
X149823973Y-91930212D01*
X149826745Y-91922816D01*
X149833500Y-91860634D01*
X149833500Y-90764366D01*
X149826745Y-90702184D01*
X149823973Y-90694788D01*
X149823971Y-90694782D01*
X149790961Y-90606729D01*
X149785778Y-90535922D01*
X149790961Y-90518271D01*
X149823971Y-90430218D01*
X149823973Y-90430212D01*
X149826745Y-90422816D01*
X149833500Y-90360634D01*
X149833500Y-89264366D01*
X149826745Y-89202184D01*
X149823973Y-89194788D01*
X149823971Y-89194782D01*
X149790961Y-89106729D01*
X149785778Y-89035922D01*
X149790961Y-89018271D01*
X149823971Y-88930218D01*
X149823973Y-88930212D01*
X149826745Y-88922816D01*
X149833500Y-88860634D01*
X149833500Y-87764366D01*
X149826745Y-87702184D01*
X149775615Y-87565795D01*
X149688261Y-87449239D01*
X149571705Y-87361885D01*
X149435316Y-87310755D01*
X149373134Y-87304000D01*
X148276866Y-87304000D01*
X148214684Y-87310755D01*
X148078295Y-87361885D01*
X147961739Y-87449239D01*
X147874385Y-87565795D01*
X147823255Y-87702184D01*
X147816500Y-87764366D01*
X147816500Y-88678000D01*
X147796498Y-88746121D01*
X147742842Y-88792614D01*
X147690500Y-88804000D01*
X146776866Y-88804000D01*
X146714684Y-88810755D01*
X146707288Y-88813527D01*
X146707282Y-88813529D01*
X146619229Y-88846539D01*
X146548422Y-88851722D01*
X146530771Y-88846539D01*
X146442718Y-88813529D01*
X146442712Y-88813527D01*
X146435316Y-88810755D01*
X146373134Y-88804000D01*
X145276866Y-88804000D01*
X145214684Y-88810755D01*
X145207288Y-88813527D01*
X145207282Y-88813529D01*
X145119229Y-88846539D01*
X145048422Y-88851722D01*
X145030771Y-88846539D01*
X144942718Y-88813529D01*
X144942712Y-88813527D01*
X144935316Y-88810755D01*
X144873134Y-88804000D01*
X143959500Y-88804000D01*
X143891379Y-88783998D01*
X143844886Y-88730342D01*
X143833500Y-88678000D01*
X143833500Y-87764366D01*
X143826745Y-87702184D01*
X143775615Y-87565795D01*
X143688261Y-87449239D01*
X143571705Y-87361885D01*
X143435316Y-87310755D01*
X143373134Y-87304000D01*
X142276866Y-87304000D01*
X142214684Y-87310755D01*
X142207288Y-87313527D01*
X142207282Y-87313529D01*
X142119229Y-87346539D01*
X142048422Y-87351722D01*
X142030771Y-87346539D01*
X141942718Y-87313529D01*
X141942712Y-87313527D01*
X141935316Y-87310755D01*
X141873134Y-87304000D01*
X140776866Y-87304000D01*
X140714684Y-87310755D01*
X140707288Y-87313527D01*
X140707282Y-87313529D01*
X140619229Y-87346539D01*
X140548422Y-87351722D01*
X140530771Y-87346539D01*
X140442718Y-87313529D01*
X140442712Y-87313527D01*
X140435316Y-87310755D01*
X140373134Y-87304000D01*
X139276866Y-87304000D01*
X139214684Y-87310755D01*
X139078295Y-87361885D01*
X138961739Y-87449239D01*
X138874385Y-87565795D01*
X138823255Y-87702184D01*
X138816500Y-87764366D01*
X138816500Y-88860634D01*
X138823255Y-88922816D01*
X138874385Y-89059205D01*
X138961739Y-89175761D01*
X139078295Y-89263115D01*
X139214684Y-89314245D01*
X139276866Y-89321000D01*
X140373134Y-89321000D01*
X140435316Y-89314245D01*
X140442712Y-89311473D01*
X140442718Y-89311471D01*
X140530771Y-89278461D01*
X140601578Y-89273278D01*
X140619229Y-89278461D01*
X140707282Y-89311471D01*
X140707288Y-89311473D01*
X140714684Y-89314245D01*
X140776866Y-89321000D01*
X141690500Y-89321000D01*
X141758621Y-89341002D01*
X141805114Y-89394658D01*
X141816500Y-89447000D01*
X141816500Y-90178000D01*
X141796498Y-90246121D01*
X141742842Y-90292614D01*
X141690500Y-90304000D01*
X140776866Y-90304000D01*
X140714684Y-90310755D01*
X140707288Y-90313527D01*
X140707282Y-90313529D01*
X140619229Y-90346539D01*
X140548422Y-90351722D01*
X140530771Y-90346539D01*
X140442718Y-90313529D01*
X140442712Y-90313527D01*
X140435316Y-90310755D01*
X140373134Y-90304000D01*
X139276866Y-90304000D01*
X139214684Y-90310755D01*
X139078295Y-90361885D01*
X138961739Y-90449239D01*
X138874385Y-90565795D01*
X138823255Y-90702184D01*
X138816500Y-90764366D01*
X138816500Y-91860634D01*
X138823255Y-91922816D01*
X138826027Y-91930212D01*
X138826029Y-91930218D01*
X138859039Y-92018271D01*
X138864222Y-92089078D01*
X138859039Y-92106729D01*
X138826029Y-92194782D01*
X138826027Y-92194788D01*
X138823255Y-92202184D01*
X138816500Y-92264366D01*
X138816500Y-93360634D01*
X138823255Y-93422816D01*
X138826027Y-93430212D01*
X138826029Y-93430218D01*
X138859039Y-93518271D01*
X138864222Y-93589078D01*
X138859039Y-93606729D01*
X138826029Y-93694782D01*
X138826027Y-93694788D01*
X138823255Y-93702184D01*
X138816500Y-93764366D01*
X138816500Y-94860634D01*
X132758000Y-94860634D01*
X132758000Y-82294669D01*
X134902001Y-82294669D01*
X134902371Y-82301490D01*
X134907895Y-82352352D01*
X134911521Y-82367604D01*
X134956676Y-82488054D01*
X134965214Y-82503649D01*
X135041715Y-82605724D01*
X135054276Y-82618285D01*
X135156351Y-82694786D01*
X135171946Y-82703324D01*
X135292394Y-82748478D01*
X135307649Y-82752105D01*
X135358514Y-82757631D01*
X135365328Y-82758000D01*
X135987885Y-82758000D01*
X136003124Y-82753525D01*
X136004329Y-82752135D01*
X136006000Y-82744452D01*
X136006000Y-81672115D01*
X136001525Y-81656876D01*
X136000135Y-81655671D01*
X135992452Y-81654000D01*
X134920116Y-81654000D01*
X134904877Y-81658475D01*
X134903672Y-81659865D01*
X134902001Y-81667548D01*
X134902001Y-82294669D01*
X132758000Y-82294669D01*
X132758000Y-80634000D01*
X132778002Y-80565879D01*
X132831658Y-80519386D01*
X132884000Y-80508000D01*
X134776000Y-80508000D01*
X134844121Y-80528002D01*
G37*
G04 #@! TD.AperFunction*
G04 #@! TA.AperFunction,Conductor*
G36*
X165383621Y-80528002D02*
G01*
X165430114Y-80581658D01*
X165441500Y-80634000D01*
X165441500Y-82298134D01*
X165448255Y-82360316D01*
X165499385Y-82496705D01*
X165586739Y-82613261D01*
X165703295Y-82700615D01*
X165839684Y-82751745D01*
X165901866Y-82758500D01*
X167466000Y-82758500D01*
X167534121Y-82778502D01*
X167580614Y-82832158D01*
X167592000Y-82884500D01*
X167592000Y-95115500D01*
X167571998Y-95183621D01*
X167518342Y-95230114D01*
X167466000Y-95241500D01*
X167011139Y-95241500D01*
X166943018Y-95221498D01*
X166896525Y-95167842D01*
X166886421Y-95097568D01*
X166902020Y-95052500D01*
X166903004Y-95050797D01*
X166954527Y-94961556D01*
X167013542Y-94779928D01*
X167033504Y-94590000D01*
X167013542Y-94400072D01*
X166954527Y-94218444D01*
X166859040Y-94053056D01*
X166731253Y-93911134D01*
X166606687Y-93820631D01*
X166582094Y-93802763D01*
X166582093Y-93802762D01*
X166576752Y-93798882D01*
X166570724Y-93796198D01*
X166570722Y-93796197D01*
X166408319Y-93723891D01*
X166408318Y-93723891D01*
X166402288Y-93721206D01*
X166277974Y-93694782D01*
X166221944Y-93682872D01*
X166221939Y-93682872D01*
X166215487Y-93681500D01*
X166024513Y-93681500D01*
X166018061Y-93682872D01*
X166018056Y-93682872D01*
X165962026Y-93694782D01*
X165837712Y-93721206D01*
X165831682Y-93723891D01*
X165831681Y-93723891D01*
X165669278Y-93796197D01*
X165669276Y-93796198D01*
X165663248Y-93798882D01*
X165657907Y-93802762D01*
X165657906Y-93802763D01*
X165633313Y-93820631D01*
X165508747Y-93911134D01*
X165504332Y-93916037D01*
X165499420Y-93920460D01*
X165498295Y-93919211D01*
X165444986Y-93952051D01*
X165411800Y-93956500D01*
X164230843Y-93956500D01*
X164162722Y-93936498D01*
X164116229Y-93882842D01*
X164106125Y-93812568D01*
X164137205Y-93746192D01*
X164163540Y-93716944D01*
X164250806Y-93565795D01*
X164255723Y-93557279D01*
X164255724Y-93557278D01*
X164259027Y-93551556D01*
X164318042Y-93369928D01*
X164318888Y-93361885D01*
X164337314Y-93186565D01*
X164338004Y-93180000D01*
X164318042Y-92990072D01*
X164259027Y-92808444D01*
X164163540Y-92643056D01*
X164090363Y-92561785D01*
X164059647Y-92497779D01*
X164058000Y-92477476D01*
X164058000Y-89041267D01*
X164058527Y-89030084D01*
X164060202Y-89022591D01*
X164058062Y-88954514D01*
X164058000Y-88950555D01*
X164058000Y-88922644D01*
X164057495Y-88918644D01*
X164056562Y-88906801D01*
X164055422Y-88870530D01*
X164055173Y-88862611D01*
X164049521Y-88843157D01*
X164045513Y-88823800D01*
X164043968Y-88811570D01*
X164043968Y-88811569D01*
X164042974Y-88803703D01*
X164040055Y-88796330D01*
X164026696Y-88762588D01*
X164022851Y-88751358D01*
X164012729Y-88716517D01*
X164012729Y-88716516D01*
X164010518Y-88708907D01*
X164006485Y-88702088D01*
X164006483Y-88702083D01*
X164000207Y-88691472D01*
X163991512Y-88673724D01*
X163984052Y-88654883D01*
X163958064Y-88619113D01*
X163951548Y-88609193D01*
X163933080Y-88577965D01*
X163933078Y-88577962D01*
X163929042Y-88571138D01*
X163914721Y-88556817D01*
X163901880Y-88541783D01*
X163894631Y-88531806D01*
X163889972Y-88525393D01*
X163855895Y-88497202D01*
X163847116Y-88489212D01*
X160855234Y-85497329D01*
X160821208Y-85435017D01*
X160826273Y-85364201D01*
X160870268Y-85306298D01*
X161005914Y-85207745D01*
X161011253Y-85203866D01*
X161015668Y-85198963D01*
X161020580Y-85194540D01*
X161021705Y-85195789D01*
X161075014Y-85162949D01*
X161108200Y-85158500D01*
X165621233Y-85158500D01*
X165632416Y-85159027D01*
X165639909Y-85160702D01*
X165647835Y-85160453D01*
X165647836Y-85160453D01*
X165707986Y-85158562D01*
X165711945Y-85158500D01*
X165739856Y-85158500D01*
X165743791Y-85158003D01*
X165743856Y-85157995D01*
X165755693Y-85157062D01*
X165787951Y-85156048D01*
X165791970Y-85155922D01*
X165799889Y-85155673D01*
X165819343Y-85150021D01*
X165838700Y-85146013D01*
X165850930Y-85144468D01*
X165850931Y-85144468D01*
X165858797Y-85143474D01*
X165866168Y-85140555D01*
X165866170Y-85140555D01*
X165899912Y-85127196D01*
X165911141Y-85123351D01*
X165945042Y-85113502D01*
X165980191Y-85108500D01*
X166120487Y-85108500D01*
X166126939Y-85107128D01*
X166126944Y-85107128D01*
X166213887Y-85088647D01*
X166307288Y-85068794D01*
X166313319Y-85066109D01*
X166475722Y-84993803D01*
X166475724Y-84993802D01*
X166481752Y-84991118D01*
X166636253Y-84878866D01*
X166764040Y-84736944D01*
X166859527Y-84571556D01*
X166918542Y-84389928D01*
X166924968Y-84328794D01*
X166937814Y-84206565D01*
X166938504Y-84200000D01*
X166918542Y-84010072D01*
X166859527Y-83828444D01*
X166764040Y-83663056D01*
X166636253Y-83521134D01*
X166481752Y-83408882D01*
X166475724Y-83406198D01*
X166475722Y-83406197D01*
X166313319Y-83333891D01*
X166313318Y-83333891D01*
X166307288Y-83331206D01*
X166213887Y-83311353D01*
X166126944Y-83292872D01*
X166126939Y-83292872D01*
X166120487Y-83291500D01*
X165929513Y-83291500D01*
X165923061Y-83292872D01*
X165923056Y-83292872D01*
X165836113Y-83311353D01*
X165742712Y-83331206D01*
X165736682Y-83333891D01*
X165736681Y-83333891D01*
X165574278Y-83406197D01*
X165574276Y-83406198D01*
X165568248Y-83408882D01*
X165413747Y-83521134D01*
X165285960Y-83663056D01*
X165190473Y-83828444D01*
X165187824Y-83826915D01*
X165150350Y-83870914D01*
X165081329Y-83891500D01*
X161108200Y-83891500D01*
X161040079Y-83871498D01*
X161020853Y-83855157D01*
X161020580Y-83855460D01*
X161015668Y-83851037D01*
X161011253Y-83846134D01*
X160856752Y-83733882D01*
X160850724Y-83731198D01*
X160850722Y-83731197D01*
X160688319Y-83658891D01*
X160688318Y-83658891D01*
X160682288Y-83656206D01*
X160588887Y-83636353D01*
X160501944Y-83617872D01*
X160501939Y-83617872D01*
X160495487Y-83616500D01*
X160304513Y-83616500D01*
X160298061Y-83617872D01*
X160298056Y-83617872D01*
X160211113Y-83636353D01*
X160117712Y-83656206D01*
X160111682Y-83658891D01*
X160111681Y-83658891D01*
X159949278Y-83731197D01*
X159949276Y-83731198D01*
X159943248Y-83733882D01*
X159788747Y-83846134D01*
X159660960Y-83988056D01*
X159565473Y-84153444D01*
X159506458Y-84335072D01*
X159505768Y-84341633D01*
X159505768Y-84341635D01*
X159487186Y-84518435D01*
X159486496Y-84525000D01*
X159506458Y-84714928D01*
X159565473Y-84896556D01*
X159568777Y-84902278D01*
X159568778Y-84902281D01*
X159583338Y-84927499D01*
X159600077Y-84996494D01*
X159576857Y-85063586D01*
X159521051Y-85107474D01*
X159474220Y-85116500D01*
X156314595Y-85116500D01*
X156246474Y-85096498D01*
X156225500Y-85079595D01*
X152197122Y-81051217D01*
X152163096Y-80988905D01*
X152160907Y-80975292D01*
X152144232Y-80816635D01*
X152144232Y-80816633D01*
X152143542Y-80810072D01*
X152098983Y-80672934D01*
X152096955Y-80601969D01*
X152133617Y-80541171D01*
X152197330Y-80509846D01*
X152218816Y-80508000D01*
X165315500Y-80508000D01*
X165383621Y-80528002D01*
G37*
G04 #@! TD.AperFunction*
M02*
