G04 #@! TF.GenerationSoftware,KiCad,Pcbnew,(6.0.1-0)*
G04 #@! TF.CreationDate,2022-03-11T23:13:56+01:00*
G04 #@! TF.ProjectId,SDshield,53447368-6965-46c6-942e-6b696361645f,rev?*
G04 #@! TF.SameCoordinates,Original*
G04 #@! TF.FileFunction,Legend,Top*
G04 #@! TF.FilePolarity,Positive*
%FSLAX46Y46*%
G04 Gerber Fmt 4.6, Leading zero omitted, Abs format (unit mm)*
G04 Created by KiCad (PCBNEW (6.0.1-0)) date 2022-03-11 23:13:56*
%MOMM*%
%LPD*%
G01*
G04 APERTURE LIST*
G04 Aperture macros list*
%AMRoundRect*
0 Rectangle with rounded corners*
0 $1 Rounding radius*
0 $2 $3 $4 $5 $6 $7 $8 $9 X,Y pos of 4 corners*
0 Add a 4 corners polygon primitive as box body*
4,1,4,$2,$3,$4,$5,$6,$7,$8,$9,$2,$3,0*
0 Add four circle primitives for the rounded corners*
1,1,$1+$1,$2,$3*
1,1,$1+$1,$4,$5*
1,1,$1+$1,$6,$7*
1,1,$1+$1,$8,$9*
0 Add four rect primitives between the rounded corners*
20,1,$1+$1,$2,$3,$4,$5,0*
20,1,$1+$1,$4,$5,$6,$7,0*
20,1,$1+$1,$6,$7,$8,$9,0*
20,1,$1+$1,$8,$9,$2,$3,0*%
G04 Aperture macros list end*
%ADD10C,0.150000*%
%ADD11C,0.101600*%
%ADD12C,0.120000*%
%ADD13C,0.200000*%
%ADD14RoundRect,0.288500X-0.237500X0.250000X-0.237500X-0.250000X0.237500X-0.250000X0.237500X0.250000X0*%
%ADD15RoundRect,0.101600X-0.325000X-0.500000X0.325000X-0.500000X0.325000X0.500000X-0.325000X0.500000X0*%
%ADD16RoundRect,0.101600X-0.565000X-0.700000X0.565000X-0.700000X0.565000X0.700000X-0.565000X0.700000X0*%
%ADD17RoundRect,0.101600X-0.450000X-0.850000X0.450000X-0.850000X0.450000X0.850000X-0.450000X0.850000X0*%
%ADD18RoundRect,0.101600X-0.500000X-0.425000X0.500000X-0.425000X0.500000X0.425000X-0.500000X0.425000X0*%
%ADD19RoundRect,0.101600X0.500000X0.425000X-0.500000X0.425000X-0.500000X-0.425000X0.500000X-0.425000X0*%
%ADD20RoundRect,0.051000X-0.850000X-0.850000X0.850000X-0.850000X0.850000X0.850000X-0.850000X0.850000X0*%
%ADD21RoundRect,0.051000X0.850000X-0.850000X0.850000X0.850000X-0.850000X0.850000X-0.850000X-0.850000X0*%
%ADD22O,1.802000X1.802000*%
%ADD23RoundRect,0.051000X-0.850000X0.850000X-0.850000X-0.850000X0.850000X-0.850000X0.850000X0.850000X0*%
%ADD24RoundRect,0.051000X0.225000X-0.725000X0.225000X0.725000X-0.225000X0.725000X-0.225000X-0.725000X0*%
G04 APERTURE END LIST*
D10*
X138382380Y-88666666D02*
X137906190Y-89000000D01*
X138382380Y-89238095D02*
X137382380Y-89238095D01*
X137382380Y-88857142D01*
X137430000Y-88761904D01*
X137477619Y-88714285D01*
X137572857Y-88666666D01*
X137715714Y-88666666D01*
X137810952Y-88714285D01*
X137858571Y-88761904D01*
X137906190Y-88857142D01*
X137906190Y-89238095D01*
X138382380Y-87714285D02*
X138382380Y-88285714D01*
X138382380Y-88000000D02*
X137382380Y-88000000D01*
X137525238Y-88095238D01*
X137620476Y-88190476D01*
X137668095Y-88285714D01*
D11*
X158924059Y-81322961D02*
X158924059Y-82157533D01*
X158868420Y-82324447D01*
X158757144Y-82435723D01*
X158590230Y-82491361D01*
X158478954Y-82491361D01*
X160092459Y-82491361D02*
X159424801Y-82491361D01*
X159758630Y-82491361D02*
X159758630Y-81322961D01*
X159647354Y-81489876D01*
X159536078Y-81601152D01*
X159424801Y-81656790D01*
D10*
X163866666Y-81052380D02*
X163866666Y-81766666D01*
X163819047Y-81909523D01*
X163723809Y-82004761D01*
X163580952Y-82052380D01*
X163485714Y-82052380D01*
X164295238Y-81147619D02*
X164342857Y-81100000D01*
X164438095Y-81052380D01*
X164676190Y-81052380D01*
X164771428Y-81100000D01*
X164819047Y-81147619D01*
X164866666Y-81242857D01*
X164866666Y-81338095D01*
X164819047Y-81480952D01*
X164247619Y-82052380D01*
X164866666Y-82052380D01*
X133266666Y-80852380D02*
X133266666Y-81566666D01*
X133219047Y-81709523D01*
X133123809Y-81804761D01*
X132980952Y-81852380D01*
X132885714Y-81852380D01*
X134171428Y-81185714D02*
X134171428Y-81852380D01*
X133933333Y-80804761D02*
X133695238Y-81519047D01*
X134314285Y-81519047D01*
X161516666Y-95877380D02*
X161516666Y-96591666D01*
X161469047Y-96734523D01*
X161373809Y-96829761D01*
X161230952Y-96877380D01*
X161135714Y-96877380D01*
X161897619Y-95877380D02*
X162516666Y-95877380D01*
X162183333Y-96258333D01*
X162326190Y-96258333D01*
X162421428Y-96305952D01*
X162469047Y-96353571D01*
X162516666Y-96448809D01*
X162516666Y-96686904D01*
X162469047Y-96782142D01*
X162421428Y-96829761D01*
X162326190Y-96877380D01*
X162040476Y-96877380D01*
X161945238Y-96829761D01*
X161897619Y-96782142D01*
X138666666Y-96052380D02*
X138666666Y-96766666D01*
X138619047Y-96909523D01*
X138523809Y-97004761D01*
X138380952Y-97052380D01*
X138285714Y-97052380D01*
X139619047Y-96052380D02*
X139142857Y-96052380D01*
X139095238Y-96528571D01*
X139142857Y-96480952D01*
X139238095Y-96433333D01*
X139476190Y-96433333D01*
X139571428Y-96480952D01*
X139619047Y-96528571D01*
X139666666Y-96623809D01*
X139666666Y-96861904D01*
X139619047Y-96957142D01*
X139571428Y-97004761D01*
X139476190Y-97052380D01*
X139238095Y-97052380D01*
X139142857Y-97004761D01*
X139095238Y-96957142D01*
X159538095Y-86052380D02*
X159538095Y-86861904D01*
X159585714Y-86957142D01*
X159633333Y-87004761D01*
X159728571Y-87052380D01*
X159919047Y-87052380D01*
X160014285Y-87004761D01*
X160061904Y-86957142D01*
X160109523Y-86861904D01*
X160109523Y-86052380D01*
X161109523Y-87052380D02*
X160538095Y-87052380D01*
X160823809Y-87052380D02*
X160823809Y-86052380D01*
X160728571Y-86195238D01*
X160633333Y-86290476D01*
X160538095Y-86338095D01*
X159153333Y-92662380D02*
X158820000Y-92186190D01*
X158581904Y-92662380D02*
X158581904Y-91662380D01*
X158962857Y-91662380D01*
X159058095Y-91710000D01*
X159105714Y-91757619D01*
X159153333Y-91852857D01*
X159153333Y-91995714D01*
X159105714Y-92090952D01*
X159058095Y-92138571D01*
X158962857Y-92186190D01*
X158581904Y-92186190D01*
X159534285Y-91757619D02*
X159581904Y-91710000D01*
X159677142Y-91662380D01*
X159915238Y-91662380D01*
X160010476Y-91710000D01*
X160058095Y-91757619D01*
X160105714Y-91852857D01*
X160105714Y-91948095D01*
X160058095Y-92090952D01*
X159486666Y-92662380D01*
X160105714Y-92662380D01*
D12*
X137022500Y-88245276D02*
X137022500Y-88754724D01*
X135977500Y-88245276D02*
X135977500Y-88754724D01*
D13*
X144746000Y-97187000D02*
X145746000Y-97187000D01*
X142746000Y-92962000D02*
X142746000Y-93362000D01*
X152746000Y-81987000D02*
X154886000Y-81987000D01*
X144346000Y-97537000D02*
X144346000Y-96927000D01*
X146596000Y-97327000D02*
X150996000Y-97327000D01*
X156746000Y-83847000D02*
X156746000Y-85547000D01*
X150996000Y-96927000D02*
X151216000Y-96927000D01*
X142946000Y-97537000D02*
X144346000Y-97537000D01*
X152216000Y-97187000D02*
X152216000Y-96927000D01*
X151216000Y-96927000D02*
X151216000Y-97187000D01*
X142746000Y-90347000D02*
X142746000Y-91447000D01*
X152936000Y-97537000D02*
X156646000Y-97537000D01*
X152216000Y-96927000D02*
X152936000Y-96927000D01*
X154886000Y-81987000D02*
X154886000Y-82077000D01*
X150996000Y-97327000D02*
X150996000Y-96927000D01*
X144346000Y-96927000D02*
X144746000Y-96927000D01*
X156746000Y-93062000D02*
X156746000Y-93362000D01*
X144746000Y-96927000D02*
X144746000Y-97187000D01*
X156746000Y-87647000D02*
X156746000Y-90947000D01*
X145746000Y-97187000D02*
X145746000Y-96927000D01*
X152936000Y-96927000D02*
X152936000Y-97537000D01*
X146596000Y-96927000D02*
X146596000Y-97327000D01*
X145746000Y-96927000D02*
X146596000Y-96927000D01*
X151216000Y-97187000D02*
X152216000Y-97187000D01*
X154886000Y-82077000D02*
X156146000Y-82077000D01*
X153146000Y-82947000D02*
G75*
G03*
X153146000Y-82947000I-100000J0D01*
G01*
D12*
X165470000Y-82730000D02*
X168130000Y-82730000D01*
X165470000Y-81400000D02*
X165470000Y-80070000D01*
X165470000Y-82670000D02*
X168130000Y-82670000D01*
X165470000Y-80070000D02*
X166800000Y-80070000D01*
X168130000Y-82670000D02*
X168130000Y-82730000D01*
X165470000Y-82670000D02*
X165470000Y-82730000D01*
X140130000Y-82730000D02*
X140130000Y-80070000D01*
X137530000Y-80070000D02*
X140130000Y-80070000D01*
X137530000Y-82730000D02*
X140130000Y-82730000D01*
X137530000Y-82730000D02*
X137530000Y-80070000D01*
X134930000Y-82730000D02*
X134930000Y-81400000D01*
X136260000Y-82730000D02*
X134930000Y-82730000D01*
X165470000Y-95270000D02*
X162870000Y-95270000D01*
X165470000Y-97930000D02*
X162870000Y-97930000D01*
X166740000Y-95270000D02*
X168070000Y-95270000D01*
X165470000Y-95270000D02*
X165470000Y-97930000D01*
X168070000Y-95270000D02*
X168070000Y-96600000D01*
X162870000Y-95270000D02*
X162870000Y-97930000D01*
X133800000Y-97930000D02*
X132470000Y-97930000D01*
X135070000Y-95270000D02*
X137670000Y-95270000D01*
X135070000Y-97930000D02*
X135070000Y-95270000D01*
X132470000Y-97930000D02*
X132470000Y-96600000D01*
X135070000Y-97930000D02*
X137670000Y-97930000D01*
X137670000Y-97930000D02*
X137670000Y-95270000D01*
D10*
X166625000Y-86475000D02*
X166400000Y-86475000D01*
X161375000Y-91125000D02*
X161375000Y-86475000D01*
X161375000Y-86475000D02*
X161600000Y-86475000D01*
X161500000Y-91125000D02*
X161500000Y-92475000D01*
X166625000Y-91125000D02*
X166625000Y-86475000D01*
X161375000Y-91125000D02*
X161500000Y-91125000D01*
X166625000Y-91125000D02*
X166400000Y-91125000D01*
D12*
X158787500Y-89587776D02*
X158787500Y-90097224D01*
X159832500Y-89587776D02*
X159832500Y-90097224D01*
%LPC*%
D14*
X136500000Y-87587500D03*
X136500000Y-89412500D03*
D15*
X152046000Y-82317000D03*
X151146000Y-82317000D03*
X150246000Y-82317000D03*
X149346000Y-82317000D03*
X148446000Y-82317000D03*
X147546000Y-82317000D03*
X146646000Y-82317000D03*
X145746000Y-82317000D03*
X144176000Y-82317000D03*
D16*
X142811000Y-89267000D03*
D17*
X142596000Y-82667000D03*
D18*
X142746000Y-92217000D03*
X142746000Y-94147000D03*
D17*
X142596000Y-96367000D03*
X156896000Y-96367000D03*
D19*
X156746000Y-94147000D03*
D16*
X156426000Y-92017000D03*
X156426000Y-86567000D03*
D17*
X156896000Y-82667000D03*
D20*
X166800000Y-81400000D03*
D21*
X136260000Y-81400000D03*
D22*
X138800000Y-81400000D03*
D23*
X166740000Y-96600000D03*
D22*
X164200000Y-96600000D03*
D21*
X133800000Y-96600000D03*
D22*
X136340000Y-96600000D03*
D24*
X162050000Y-91750000D03*
X162700000Y-91750000D03*
X163350000Y-91750000D03*
X164000000Y-91750000D03*
X164650000Y-91750000D03*
X165300000Y-91750000D03*
X165950000Y-91750000D03*
X165950000Y-85850000D03*
X165300000Y-85850000D03*
X164650000Y-85850000D03*
X164000000Y-85850000D03*
X163350000Y-85850000D03*
X162700000Y-85850000D03*
X162050000Y-85850000D03*
D14*
X159310000Y-88930000D03*
X159310000Y-90755000D03*
M02*
