G04 #@! TF.GenerationSoftware,KiCad,Pcbnew,(6.0.1-0)*
G04 #@! TF.CreationDate,2022-03-11T16:57:29+01:00*
G04 #@! TF.ProjectId,PowerAnalyzer_ACS71020_V2,506f7765-7241-46e6-916c-797a65725f41,2.2*
G04 #@! TF.SameCoordinates,Original*
G04 #@! TF.FileFunction,Soldermask,Bot*
G04 #@! TF.FilePolarity,Negative*
%FSLAX46Y46*%
G04 Gerber Fmt 4.6, Leading zero omitted, Abs format (unit mm)*
G04 Created by KiCad (PCBNEW (6.0.1-0)) date 2022-03-11 16:57:29*
%MOMM*%
%LPD*%
G01*
G04 APERTURE LIST*
G04 Aperture macros list*
%AMRoundRect*
0 Rectangle with rounded corners*
0 $1 Rounding radius*
0 $2 $3 $4 $5 $6 $7 $8 $9 X,Y pos of 4 corners*
0 Add a 4 corners polygon primitive as box body*
4,1,4,$2,$3,$4,$5,$6,$7,$8,$9,$2,$3,0*
0 Add four circle primitives for the rounded corners*
1,1,$1+$1,$2,$3*
1,1,$1+$1,$4,$5*
1,1,$1+$1,$6,$7*
1,1,$1+$1,$8,$9*
0 Add four rect primitives between the rounded corners*
20,1,$1+$1,$2,$3,$4,$5,0*
20,1,$1+$1,$4,$5,$6,$7,0*
20,1,$1+$1,$6,$7,$8,$9,0*
20,1,$1+$1,$8,$9,$2,$3,0*%
G04 Aperture macros list end*
%ADD10C,2.602000*%
%ADD11RoundRect,0.051000X1.000000X-1.000000X1.000000X1.000000X-1.000000X1.000000X-1.000000X-1.000000X0*%
%ADD12C,2.102000*%
%ADD13C,1.702000*%
%ADD14RoundRect,0.051000X-1.000000X1.000000X-1.000000X-1.000000X1.000000X-1.000000X1.000000X1.000000X0*%
%ADD15C,2.702000*%
%ADD16C,1.102000*%
%ADD17RoundRect,0.300999X0.325001X0.450001X-0.325001X0.450001X-0.325001X-0.450001X0.325001X-0.450001X0*%
G04 APERTURE END LIST*
D10*
X117300000Y-175000000D03*
X74300000Y-132000000D03*
X117300000Y-132000000D03*
X87668100Y-122986800D03*
X87668100Y-127936800D03*
X80010000Y-127949500D03*
X80010000Y-122999500D03*
D11*
X115000000Y-148193000D03*
D12*
X115000000Y-143193000D03*
D13*
X117300000Y-135600000D03*
X122300000Y-138600000D03*
D10*
X113730000Y-124265000D03*
X118680000Y-124265000D03*
X74300000Y-175000000D03*
X97790000Y-123190000D03*
X97790000Y-128140000D03*
D14*
X122700000Y-146000000D03*
D12*
X122700000Y-151080000D03*
X122700000Y-156160000D03*
X122700000Y-161240000D03*
X122700000Y-168860000D03*
X122700000Y-173940000D03*
D13*
X96520000Y-186944000D03*
X96520000Y-184404000D03*
X96520000Y-181864000D03*
X96520000Y-179324000D03*
X96520000Y-176784000D03*
X96520000Y-174244000D03*
X96520000Y-171704000D03*
X96520000Y-169164000D03*
X96520000Y-166624000D03*
X96520000Y-164084000D03*
X96520000Y-161544000D03*
X96520000Y-159004000D03*
X96520000Y-156464000D03*
X96520000Y-153924000D03*
X93980000Y-153924000D03*
X91440000Y-153924000D03*
X88900000Y-153924000D03*
X86360000Y-153924000D03*
X83820000Y-153924000D03*
X81280000Y-153924000D03*
X81280000Y-156464000D03*
X81280000Y-159004000D03*
X81280000Y-161544000D03*
X81280000Y-164084000D03*
X81280000Y-166624000D03*
X81280000Y-169164000D03*
X81280000Y-171704000D03*
X81280000Y-174244000D03*
X81280000Y-176784000D03*
X81280000Y-179324000D03*
X81280000Y-181864000D03*
X81280000Y-184404000D03*
X81280000Y-186944000D03*
X83820000Y-184404000D03*
D15*
X105250000Y-132588000D03*
D12*
X105250000Y-125088000D03*
X105250000Y-140088000D03*
D16*
X102870000Y-168910000D03*
D17*
X80775000Y-145500000D03*
X78725000Y-145500000D03*
X80775000Y-150000000D03*
X78725000Y-150000000D03*
M02*
