G04 #@! TF.GenerationSoftware,KiCad,Pcbnew,(6.0.1-0)*
G04 #@! TF.CreationDate,2022-03-11T16:57:28+01:00*
G04 #@! TF.ProjectId,PowerAnalyzer_ACS71020_V2,506f7765-7241-46e6-916c-797a65725f41,2.2*
G04 #@! TF.SameCoordinates,Original*
G04 #@! TF.FileFunction,Copper,L1,Top*
G04 #@! TF.FilePolarity,Positive*
%FSLAX46Y46*%
G04 Gerber Fmt 4.6, Leading zero omitted, Abs format (unit mm)*
G04 Created by KiCad (PCBNEW (6.0.1-0)) date 2022-03-11 16:57:28*
%MOMM*%
%LPD*%
G01*
G04 APERTURE LIST*
G04 Aperture macros list*
%AMRoundRect*
0 Rectangle with rounded corners*
0 $1 Rounding radius*
0 $2 $3 $4 $5 $6 $7 $8 $9 X,Y pos of 4 corners*
0 Add a 4 corners polygon primitive as box body*
4,1,4,$2,$3,$4,$5,$6,$7,$8,$9,$2,$3,0*
0 Add four circle primitives for the rounded corners*
1,1,$1+$1,$2,$3*
1,1,$1+$1,$4,$5*
1,1,$1+$1,$6,$7*
1,1,$1+$1,$8,$9*
0 Add four rect primitives between the rounded corners*
20,1,$1+$1,$2,$3,$4,$5,0*
20,1,$1+$1,$4,$5,$6,$7,0*
20,1,$1+$1,$6,$7,$8,$9,0*
20,1,$1+$1,$8,$9,$2,$3,0*%
G04 Aperture macros list end*
G04 #@! TA.AperFunction,ComponentPad*
%ADD10C,2.500000*%
G04 #@! TD*
G04 #@! TA.AperFunction,SMDPad,CuDef*
%ADD11RoundRect,0.250001X0.624999X-0.462499X0.624999X0.462499X-0.624999X0.462499X-0.624999X-0.462499X0*%
G04 #@! TD*
G04 #@! TA.AperFunction,ComponentPad*
%ADD12R,2.000000X2.000000*%
G04 #@! TD*
G04 #@! TA.AperFunction,ComponentPad*
%ADD13C,2.000000*%
G04 #@! TD*
G04 #@! TA.AperFunction,ComponentPad*
%ADD14C,1.600000*%
G04 #@! TD*
G04 #@! TA.AperFunction,SMDPad,CuDef*
%ADD15RoundRect,0.249999X0.450001X-0.325001X0.450001X0.325001X-0.450001X0.325001X-0.450001X-0.325001X0*%
G04 #@! TD*
G04 #@! TA.AperFunction,SMDPad,CuDef*
%ADD16RoundRect,0.249999X0.325001X0.450001X-0.325001X0.450001X-0.325001X-0.450001X0.325001X-0.450001X0*%
G04 #@! TD*
G04 #@! TA.AperFunction,SMDPad,CuDef*
%ADD17RoundRect,0.250000X-0.450000X0.325000X-0.450000X-0.325000X0.450000X-0.325000X0.450000X0.325000X0*%
G04 #@! TD*
G04 #@! TA.AperFunction,SMDPad,CuDef*
%ADD18R,1.000000X1.000000*%
G04 #@! TD*
G04 #@! TA.AperFunction,SMDPad,CuDef*
%ADD19RoundRect,0.249999X-0.450001X0.325001X-0.450001X-0.325001X0.450001X-0.325001X0.450001X0.325001X0*%
G04 #@! TD*
G04 #@! TA.AperFunction,SMDPad,CuDef*
%ADD20RoundRect,0.150000X-0.150000X0.875000X-0.150000X-0.875000X0.150000X-0.875000X0.150000X0.875000X0*%
G04 #@! TD*
G04 #@! TA.AperFunction,SMDPad,CuDef*
%ADD21RoundRect,0.249999X-0.325001X-0.450001X0.325001X-0.450001X0.325001X0.450001X-0.325001X0.450001X0*%
G04 #@! TD*
G04 #@! TA.AperFunction,SMDPad,CuDef*
%ADD22RoundRect,0.150000X0.150000X-0.825000X0.150000X0.825000X-0.150000X0.825000X-0.150000X-0.825000X0*%
G04 #@! TD*
G04 #@! TA.AperFunction,SMDPad,CuDef*
%ADD23RoundRect,0.150000X0.150000X-0.875000X0.150000X0.875000X-0.150000X0.875000X-0.150000X-0.875000X0*%
G04 #@! TD*
G04 #@! TA.AperFunction,SMDPad,CuDef*
%ADD24R,2.560396X2.299995*%
G04 #@! TD*
G04 #@! TA.AperFunction,SMDPad,CuDef*
%ADD25R,1.700000X0.600000*%
G04 #@! TD*
G04 #@! TA.AperFunction,SMDPad,CuDef*
%ADD26RoundRect,0.237500X-0.250000X-0.237500X0.250000X-0.237500X0.250000X0.237500X-0.250000X0.237500X0*%
G04 #@! TD*
G04 #@! TA.AperFunction,SMDPad,CuDef*
%ADD27C,1.500000*%
G04 #@! TD*
G04 #@! TA.AperFunction,ComponentPad*
%ADD28C,1.000000*%
G04 #@! TD*
G04 #@! TA.AperFunction,ViaPad*
%ADD29C,0.800000*%
G04 #@! TD*
G04 #@! TA.AperFunction,Conductor*
%ADD30C,0.250000*%
G04 #@! TD*
G04 #@! TA.AperFunction,Conductor*
%ADD31C,0.300000*%
G04 #@! TD*
G04 #@! TA.AperFunction,Conductor*
%ADD32C,0.500000*%
G04 #@! TD*
G04 #@! TA.AperFunction,Conductor*
%ADD33C,2.250000*%
G04 #@! TD*
G04 #@! TA.AperFunction,Conductor*
%ADD34C,1.000000*%
G04 #@! TD*
G04 APERTURE END LIST*
D10*
X87668100Y-122986800D03*
X87668100Y-127936800D03*
X80010000Y-127949500D03*
X80010000Y-122999500D03*
D11*
X106750000Y-158487500D03*
X106750000Y-155512500D03*
D12*
X115000000Y-148193000D03*
D13*
X115000000Y-143193000D03*
D14*
X117300000Y-135600000D03*
X122300000Y-138600000D03*
D10*
X113730000Y-124265000D03*
X118680000Y-124265000D03*
D15*
X93500000Y-146775000D03*
X93500000Y-144725000D03*
D11*
X102750000Y-158475000D03*
X102750000Y-155500000D03*
X106750000Y-152737500D03*
X106750000Y-149762500D03*
D10*
X97790000Y-123190000D03*
X97790000Y-128140000D03*
D12*
X122700000Y-146000000D03*
D13*
X122700000Y-151080000D03*
X122700000Y-156160000D03*
X122700000Y-161240000D03*
X122700000Y-168860000D03*
X122700000Y-173940000D03*
D16*
X95775000Y-149000000D03*
X93725000Y-149000000D03*
D17*
X91250000Y-142750000D03*
X91250000Y-144800000D03*
D18*
X112600000Y-185500000D03*
X110100000Y-185500000D03*
D19*
X105664000Y-175251000D03*
X105664000Y-177301000D03*
D18*
X112600000Y-183350000D03*
X110100000Y-183350000D03*
D20*
X88303000Y-131693000D03*
X87033000Y-131693000D03*
X85763000Y-131693000D03*
X84493000Y-131693000D03*
X83223000Y-131693000D03*
X81953000Y-131693000D03*
X80683000Y-131693000D03*
X79413000Y-131693000D03*
X79413000Y-140993000D03*
X80683000Y-140993000D03*
X81953000Y-140993000D03*
X83223000Y-140993000D03*
X84493000Y-140993000D03*
X85763000Y-140993000D03*
X87033000Y-140993000D03*
X88303000Y-140993000D03*
D21*
X68725000Y-139750000D03*
X70775000Y-139750000D03*
D14*
X96520000Y-186944000D03*
X96520000Y-184404000D03*
X96520000Y-181864000D03*
X96520000Y-179324000D03*
X96520000Y-176784000D03*
X96520000Y-174244000D03*
X96520000Y-171704000D03*
X96520000Y-169164000D03*
X96520000Y-166624000D03*
X96520000Y-164084000D03*
X96520000Y-161544000D03*
X96520000Y-159004000D03*
X96520000Y-156464000D03*
X96520000Y-153924000D03*
X93980000Y-153924000D03*
X91440000Y-153924000D03*
X88900000Y-153924000D03*
X86360000Y-153924000D03*
X83820000Y-153924000D03*
X81280000Y-153924000D03*
X81280000Y-156464000D03*
X81280000Y-159004000D03*
X81280000Y-161544000D03*
X81280000Y-164084000D03*
X81280000Y-166624000D03*
X81280000Y-169164000D03*
X81280000Y-171704000D03*
X81280000Y-174244000D03*
X81280000Y-176784000D03*
X81280000Y-179324000D03*
X81280000Y-181864000D03*
X81280000Y-184404000D03*
X81280000Y-186944000D03*
X83820000Y-184404000D03*
D22*
X79055000Y-149975000D03*
X80325000Y-149975000D03*
X81595000Y-149975000D03*
X82865000Y-149975000D03*
X84135000Y-149975000D03*
X85405000Y-149975000D03*
X86675000Y-149975000D03*
X87945000Y-149975000D03*
X87945000Y-145025000D03*
X86675000Y-145025000D03*
X85405000Y-145025000D03*
X84135000Y-145025000D03*
X82865000Y-145025000D03*
X81595000Y-145025000D03*
X80325000Y-145025000D03*
X79055000Y-145025000D03*
D13*
X105250000Y-125088000D03*
X105250000Y-140088000D03*
D23*
X67805000Y-151650000D03*
X69075000Y-151650000D03*
X70345000Y-151650000D03*
X71615000Y-151650000D03*
X72885000Y-151650000D03*
X74155000Y-151650000D03*
X75425000Y-151650000D03*
X76695000Y-151650000D03*
X76695000Y-142350000D03*
X75425000Y-142350000D03*
X74155000Y-142350000D03*
X72885000Y-142350000D03*
X71615000Y-142350000D03*
X70345000Y-142350000D03*
X69075000Y-142350000D03*
X67805000Y-142350000D03*
D21*
X67725000Y-154250000D03*
X69775000Y-154250000D03*
D24*
X108227804Y-172750000D03*
X112272196Y-172750000D03*
D11*
X102750000Y-152737500D03*
X102750000Y-149762500D03*
D15*
X95750000Y-146775000D03*
X95750000Y-144725000D03*
D24*
X107977804Y-179750000D03*
X112022196Y-179750000D03*
D25*
X71270000Y-159320000D03*
X74970000Y-160320000D03*
X71270000Y-161320000D03*
X74970000Y-162320000D03*
X71270000Y-163320000D03*
X74970000Y-164320000D03*
X71270000Y-165320000D03*
X74970000Y-166320000D03*
D26*
X89587500Y-151500000D03*
X91412500Y-151500000D03*
D27*
X106680000Y-160782000D03*
X102870000Y-172720000D03*
D28*
X102870000Y-168910000D03*
D27*
X102616000Y-160782000D03*
D29*
X87750000Y-146750000D03*
X76750000Y-140500000D03*
X87750000Y-148500000D03*
X78000000Y-153750000D03*
X76750000Y-160250000D03*
X76750000Y-166500000D03*
X112022196Y-176267804D03*
X79250000Y-146750000D03*
X72500000Y-140500000D03*
X75250000Y-122000000D03*
X82804000Y-124968000D03*
X74000000Y-122000000D03*
X82804000Y-123444000D03*
X82804000Y-121920000D03*
X74000000Y-125750000D03*
X82804000Y-126492000D03*
X77500000Y-122000000D03*
X74000000Y-124500000D03*
X74000000Y-127000000D03*
X76500000Y-122000000D03*
X82804000Y-128016000D03*
X74000000Y-123250000D03*
X69500000Y-149750000D03*
X78500000Y-151750000D03*
X90750000Y-160000000D03*
X89500000Y-150000000D03*
X93250000Y-128250000D03*
X102750000Y-144500000D03*
X84900000Y-121900000D03*
X84900000Y-128000000D03*
X90750000Y-122000000D03*
X93250000Y-129500000D03*
X84900000Y-123400000D03*
X93250000Y-132000000D03*
X93250000Y-122000000D03*
X93250000Y-127000000D03*
X93250000Y-123250000D03*
X84900000Y-125000000D03*
X92000000Y-122000000D03*
X93250000Y-124500000D03*
X84900000Y-126500000D03*
X93250000Y-130750000D03*
X93250000Y-125750000D03*
X85000000Y-152000000D03*
D30*
X78350000Y-142350000D02*
X76695000Y-142350000D01*
X69075000Y-142350000D02*
X69075000Y-143175000D01*
X85763000Y-142123000D02*
X85763000Y-140993000D01*
X87945000Y-144305000D02*
X85763000Y-142123000D01*
X72885000Y-143375000D02*
X72885000Y-142350000D01*
X87945000Y-145025000D02*
X87945000Y-144305000D01*
X87945000Y-145025000D02*
X87945000Y-146555000D01*
X69900000Y-144000000D02*
X72260000Y-144000000D01*
X76750000Y-140500000D02*
X76750000Y-142295000D01*
X80325000Y-144325000D02*
X78350000Y-142350000D01*
X69075000Y-142350000D02*
X69075000Y-140100000D01*
X80325000Y-145025000D02*
X80325000Y-144325000D01*
X72260000Y-144000000D02*
X72885000Y-143375000D01*
X67805000Y-142350000D02*
X69075000Y-142350000D01*
X76750000Y-142295000D02*
X76695000Y-142350000D01*
X87945000Y-146555000D02*
X87750000Y-146750000D01*
X69075000Y-143175000D02*
X69900000Y-144000000D01*
X76695000Y-142350000D02*
X72885000Y-142350000D01*
X69075000Y-140100000D02*
X68725000Y-139750000D01*
D31*
X69075000Y-152825000D02*
X69775000Y-153525000D01*
X71615000Y-152985000D02*
X71615000Y-152675000D01*
D30*
X90500000Y-148500000D02*
X87750000Y-148500000D01*
D31*
X80325000Y-151425000D02*
X80325000Y-149975000D01*
X70350000Y-154250000D02*
X71615000Y-152985000D01*
X76695000Y-152445000D02*
X78000000Y-153750000D01*
D30*
X76695000Y-151650000D02*
X74155000Y-151650000D01*
X87945000Y-148695000D02*
X87750000Y-148500000D01*
D31*
X69775000Y-154250000D02*
X69775000Y-154950000D01*
X71615000Y-152675000D02*
X71615000Y-151650000D01*
X71615000Y-150625000D02*
X72490000Y-149750000D01*
X74970000Y-166320000D02*
X76570000Y-166320000D01*
X74155000Y-150625000D02*
X74155000Y-151650000D01*
X78000000Y-153750000D02*
X80325000Y-151425000D01*
D32*
X112022196Y-176267804D02*
X112022196Y-173000000D01*
D31*
X76680000Y-160320000D02*
X76750000Y-160250000D01*
X71615000Y-151650000D02*
X71615000Y-150625000D01*
X69075000Y-151650000D02*
X69075000Y-152825000D01*
X76570000Y-166320000D02*
X76750000Y-166500000D01*
D32*
X112022196Y-173000000D02*
X112272196Y-172750000D01*
D31*
X69775000Y-154250000D02*
X70350000Y-154250000D01*
X76695000Y-151650000D02*
X76695000Y-152445000D01*
X72490000Y-149750000D02*
X73280000Y-149750000D01*
X76300000Y-155450000D02*
X78000000Y-153750000D01*
D30*
X91412500Y-151500000D02*
X91412500Y-149412500D01*
D31*
X74970000Y-160320000D02*
X76680000Y-160320000D01*
D30*
X87945000Y-149975000D02*
X87945000Y-148695000D01*
D31*
X70275000Y-155450000D02*
X76300000Y-155450000D01*
X69775000Y-153525000D02*
X69775000Y-154250000D01*
D30*
X91412500Y-149412500D02*
X90500000Y-148500000D01*
D31*
X69775000Y-154950000D02*
X70275000Y-155450000D01*
X73280000Y-149750000D02*
X74155000Y-150625000D01*
D32*
X112022196Y-176267804D02*
X112022196Y-179750000D01*
D30*
X99325010Y-151825010D02*
X98250000Y-150750000D01*
X93500000Y-148775000D02*
X93725000Y-149000000D01*
X93725000Y-149700000D02*
X93725000Y-149000000D01*
X98250000Y-150750000D02*
X94775000Y-150750000D01*
X94775000Y-150750000D02*
X93725000Y-149700000D01*
X106750000Y-160712000D02*
X106680000Y-160782000D01*
X106680000Y-160782000D02*
X104902000Y-162560000D01*
X93500000Y-146775000D02*
X93500000Y-148775000D01*
X104902000Y-162560000D02*
X101600000Y-162560000D01*
X99325010Y-160285010D02*
X99325010Y-151825010D01*
X106750000Y-158487500D02*
X106750000Y-160712000D01*
X101600000Y-162560000D02*
X99325010Y-160285010D01*
X95750000Y-148975000D02*
X95775000Y-149000000D01*
X102750000Y-160648000D02*
X102616000Y-160782000D01*
X100000000Y-151500000D02*
X98500000Y-150000000D01*
X98500000Y-150000000D02*
X96075000Y-150000000D01*
X102616000Y-160782000D02*
X101282000Y-160782000D01*
X102750000Y-158475000D02*
X102750000Y-160648000D01*
X95750000Y-146775000D02*
X95750000Y-148975000D01*
X96075000Y-150000000D02*
X95775000Y-149700000D01*
X100000000Y-159500000D02*
X100000000Y-151500000D01*
X101282000Y-160782000D02*
X100000000Y-159500000D01*
X95775000Y-149700000D02*
X95775000Y-149000000D01*
D32*
X106750000Y-152737500D02*
X106750000Y-155512500D01*
X108227804Y-171100003D02*
X110327807Y-169000000D01*
X102900000Y-172750000D02*
X102870000Y-172720000D01*
X110327807Y-169000000D02*
X119174213Y-169000000D01*
X108227804Y-172750000D02*
X102900000Y-172750000D01*
X122700000Y-172525787D02*
X122700000Y-173940000D01*
X108227804Y-172750000D02*
X108227804Y-174474196D01*
X119174213Y-169000000D02*
X122700000Y-172525787D01*
X108227804Y-174474196D02*
X107451000Y-175251000D01*
X107451000Y-175251000D02*
X105664000Y-175251000D01*
X108227804Y-171100003D02*
X108227804Y-172750000D01*
D30*
X79250000Y-145220000D02*
X79055000Y-145025000D01*
X86675000Y-144325000D02*
X84493000Y-142143000D01*
X71615000Y-142350000D02*
X70345000Y-142350000D01*
X79250000Y-146750000D02*
X79250000Y-145220000D01*
X71615000Y-142350000D02*
X71615000Y-141385000D01*
X85925000Y-146750000D02*
X86675000Y-146000000D01*
X71615000Y-141385000D02*
X72500000Y-140500000D01*
X86675000Y-145025000D02*
X86675000Y-146000000D01*
X70345000Y-140180000D02*
X70775000Y-139750000D01*
X79250000Y-146750000D02*
X85925000Y-146750000D01*
X84493000Y-142143000D02*
X84493000Y-140993000D01*
X70345000Y-142350000D02*
X70345000Y-140180000D01*
X86675000Y-145025000D02*
X86675000Y-144325000D01*
D31*
X81280000Y-156464000D02*
X75286000Y-156464000D01*
X73000000Y-160740000D02*
X72420000Y-161320000D01*
X75286000Y-156464000D02*
X73000000Y-158750000D01*
X73000000Y-158750000D02*
X73000000Y-160740000D01*
X72420000Y-161320000D02*
X71270000Y-161320000D01*
X80504000Y-162320000D02*
X81280000Y-161544000D01*
X74970000Y-162320000D02*
X80504000Y-162320000D01*
X79034000Y-161250000D02*
X81280000Y-159004000D01*
X73890000Y-161250000D02*
X79034000Y-161250000D01*
X71270000Y-163320000D02*
X71820000Y-163320000D01*
X71820000Y-163320000D02*
X73890000Y-161250000D01*
X74970000Y-164320000D02*
X76436000Y-164320000D01*
X76436000Y-164320000D02*
X81280000Y-169164000D01*
X74009998Y-163500000D02*
X78156000Y-163500000D01*
X71270000Y-165320000D02*
X72420000Y-165320000D01*
X78156000Y-163500000D02*
X81280000Y-166624000D01*
X73250000Y-164490000D02*
X73250000Y-164259998D01*
X72420000Y-165320000D02*
X73250000Y-164490000D01*
X73250000Y-164259998D02*
X74009998Y-163500000D01*
D30*
X79413000Y-142163000D02*
X79413000Y-140993000D01*
X81595000Y-145025000D02*
X81595000Y-144345000D01*
X81595000Y-144345000D02*
X79413000Y-142163000D01*
X82865000Y-144385000D02*
X80683000Y-142203000D01*
X80683000Y-142203000D02*
X80683000Y-142018000D01*
X80683000Y-142018000D02*
X80683000Y-140993000D01*
X82865000Y-145025000D02*
X82865000Y-144385000D01*
X81953000Y-142183000D02*
X81953000Y-140993000D01*
X84135000Y-144365000D02*
X81953000Y-142183000D01*
X84135000Y-145025000D02*
X84135000Y-144365000D01*
X85405000Y-145025000D02*
X85405000Y-144345000D01*
X85405000Y-144345000D02*
X83223000Y-142163000D01*
X83223000Y-142163000D02*
X83223000Y-140993000D01*
X95750000Y-144150000D02*
X95750000Y-144725000D01*
X91250000Y-142750000D02*
X94350000Y-142750000D01*
X91250000Y-142750000D02*
X89000000Y-142750000D01*
X89000000Y-142750000D02*
X88303000Y-142053000D01*
X88303000Y-140993000D02*
X88303000Y-142053000D01*
X94350000Y-142750000D02*
X95750000Y-144150000D01*
X96534000Y-171704000D02*
X96520000Y-171704000D01*
X96534000Y-169164000D02*
X96520000Y-169164000D01*
D31*
X70345000Y-151650000D02*
X70345000Y-150625000D01*
D30*
X79055000Y-151195000D02*
X78500000Y-151750000D01*
D31*
X67750000Y-158750000D02*
X68320000Y-159320000D01*
D32*
X82530001Y-185693999D02*
X82079999Y-186144001D01*
D31*
X67750000Y-154975000D02*
X67750000Y-158750000D01*
D32*
X82079999Y-186144001D02*
X81280000Y-186944000D01*
D30*
X79055000Y-149975000D02*
X79055000Y-151195000D01*
D32*
X112600000Y-185500000D02*
X112600000Y-186500000D01*
D31*
X71270000Y-159320000D02*
X70120000Y-159320000D01*
X69500000Y-149750000D02*
X69470000Y-149750000D01*
X67805000Y-151650000D02*
X67805000Y-154170000D01*
X79250000Y-184914000D02*
X81280000Y-186944000D01*
X68680000Y-149750000D02*
X67805000Y-150625000D01*
D32*
X98293999Y-185693999D02*
X82530001Y-185693999D01*
D31*
X67805000Y-150625000D02*
X67805000Y-151650000D01*
X77018992Y-170250000D02*
X79250000Y-172481008D01*
D32*
X112600000Y-186500000D02*
X112200000Y-186900000D01*
X112200000Y-186900000D02*
X99500000Y-186900000D01*
D31*
X79250000Y-172481008D02*
X79250000Y-184914000D01*
X69871028Y-170250000D02*
X77018992Y-170250000D01*
X68250000Y-161190000D02*
X68250000Y-168628972D01*
X68320000Y-159320000D02*
X71270000Y-159320000D01*
X70120000Y-159320000D02*
X68250000Y-161190000D01*
X69470000Y-149750000D02*
X68680000Y-149750000D01*
X70345000Y-150625000D02*
X69500000Y-149750000D01*
X67725000Y-154250000D02*
X67725000Y-154950000D01*
X67725000Y-154950000D02*
X67750000Y-154975000D01*
D32*
X112600000Y-183350000D02*
X112600000Y-185500000D01*
D31*
X68250000Y-168628972D02*
X69871028Y-170250000D01*
D32*
X99500000Y-186900000D02*
X98293999Y-185693999D01*
X122700000Y-156160000D02*
X115000000Y-148460000D01*
X115000000Y-148460000D02*
X115000000Y-148193000D01*
X107977804Y-177827804D02*
X107451000Y-177301000D01*
X107977804Y-179750000D02*
X107977804Y-177827804D01*
X107451000Y-177301000D02*
X105664000Y-177301000D01*
X109100000Y-183350000D02*
X107977804Y-182227804D01*
X110100000Y-183350000D02*
X109100000Y-183350000D01*
X107977804Y-182227804D02*
X107977804Y-179750000D01*
D30*
X87033000Y-142018000D02*
X87033000Y-140993000D01*
X91250000Y-144800000D02*
X89815000Y-144800000D01*
X89815000Y-144800000D02*
X87033000Y-142018000D01*
X93500000Y-144725000D02*
X91325000Y-144725000D01*
X91325000Y-144725000D02*
X91250000Y-144800000D01*
D32*
X85070001Y-183153999D02*
X97753999Y-183153999D01*
X100100000Y-185500000D02*
X110100000Y-185500000D01*
X83820000Y-184404000D02*
X85070001Y-183153999D01*
X97753999Y-183153999D02*
X100100000Y-185500000D01*
D33*
X113730000Y-124265000D02*
X106073000Y-124265000D01*
X118680000Y-124265000D02*
X113730000Y-124265000D01*
X106073000Y-124265000D02*
X105250000Y-125088000D01*
D32*
X113000000Y-145193000D02*
X115000000Y-143193000D01*
X121285787Y-161240000D02*
X113000000Y-152954213D01*
X113000000Y-152954213D02*
X113000000Y-145193000D01*
X122700000Y-161240000D02*
X121285787Y-161240000D01*
D30*
X92294000Y-161544000D02*
X90750000Y-160000000D01*
X89500000Y-150000000D02*
X89500000Y-151412500D01*
X87250000Y-151500000D02*
X89587500Y-151500000D01*
D31*
X89500000Y-151412500D02*
X89587500Y-151500000D01*
D30*
X86675000Y-150925000D02*
X87250000Y-151500000D01*
X96520000Y-161544000D02*
X92294000Y-161544000D01*
X86675000Y-149975000D02*
X86675000Y-150925000D01*
X82694999Y-152049999D02*
X82694999Y-154464001D01*
X81595000Y-150950000D02*
X82694999Y-152049999D01*
X81595000Y-149975000D02*
X81595000Y-150950000D01*
X87234998Y-159004000D02*
X95388630Y-159004000D01*
X82694999Y-154464001D02*
X87234998Y-159004000D01*
X95388630Y-159004000D02*
X96520000Y-159004000D01*
D32*
X106750000Y-146762500D02*
X106750000Y-141588000D01*
X106750000Y-146762500D02*
X106750000Y-149762500D01*
D33*
X97790000Y-132628000D02*
X105250000Y-140088000D01*
D34*
X122700000Y-151080000D02*
X120000000Y-148380000D01*
X117300000Y-135600000D02*
X109738000Y-135600000D01*
D32*
X106750000Y-141588000D02*
X105250000Y-140088000D01*
D34*
X120000000Y-138300000D02*
X117300000Y-135600000D01*
X109738000Y-135600000D02*
X105250000Y-140088000D01*
D33*
X97790000Y-128140000D02*
X97790000Y-132628000D01*
X97790000Y-123190000D02*
X97790000Y-128140000D01*
D34*
X120000000Y-148380000D02*
X120000000Y-138300000D01*
D32*
X102750000Y-146762500D02*
X102750000Y-144500000D01*
X102750000Y-146762500D02*
X102750000Y-149762500D01*
D30*
X82865000Y-149975000D02*
X82865000Y-151115000D01*
X82865000Y-151115000D02*
X85234999Y-153484999D01*
X86964000Y-156464000D02*
X96520000Y-156464000D01*
X85234999Y-153484999D02*
X85234999Y-154734999D01*
X85234999Y-154734999D02*
X86964000Y-156464000D01*
X84135000Y-151135000D02*
X85000000Y-152000000D01*
X84135000Y-149975000D02*
X84135000Y-151135000D01*
X89339825Y-155989480D02*
X87509511Y-154159166D01*
X85405000Y-150905000D02*
X85405000Y-149975000D01*
X96520000Y-153924000D02*
X94454520Y-155989480D01*
X87509511Y-153009511D02*
X85405000Y-150905000D01*
X87509511Y-154159166D02*
X87509511Y-153009511D01*
X94454520Y-155989480D02*
X89339825Y-155989480D01*
D32*
X102750000Y-152737500D02*
X102750000Y-155500000D01*
G04 #@! TA.AperFunction,Conductor*
G36*
X86566389Y-121432002D02*
G01*
X86612882Y-121485658D01*
X86623144Y-121554795D01*
X86620562Y-121573991D01*
X86625889Y-121585379D01*
X87655288Y-122614778D01*
X87669232Y-122622392D01*
X87671065Y-122622261D01*
X87677680Y-122618010D01*
X88706519Y-121589171D01*
X88714134Y-121575227D01*
X88712114Y-121546989D01*
X88727205Y-121477615D01*
X88777408Y-121427412D01*
X88837793Y-121412000D01*
X93874000Y-121412000D01*
X93942121Y-121432002D01*
X93988614Y-121485658D01*
X94000000Y-121538000D01*
X94000000Y-132970000D01*
X93979998Y-133038121D01*
X93926342Y-133084614D01*
X93874000Y-133096000D01*
X89126100Y-133096000D01*
X89057979Y-133075998D01*
X89011486Y-133022342D01*
X89001382Y-132952068D01*
X89017646Y-132905861D01*
X89057648Y-132838221D01*
X89063893Y-132823790D01*
X89106269Y-132677935D01*
X89108570Y-132665333D01*
X89110807Y-132636916D01*
X89111000Y-132631986D01*
X89111000Y-131965115D01*
X89106525Y-131949876D01*
X89105135Y-131948671D01*
X89097452Y-131947000D01*
X84365000Y-131947000D01*
X84296879Y-131926998D01*
X84250386Y-131873342D01*
X84239000Y-131821000D01*
X84239000Y-131420885D01*
X84747000Y-131420885D01*
X84751475Y-131436124D01*
X84752865Y-131437329D01*
X84760548Y-131439000D01*
X85490885Y-131439000D01*
X85506124Y-131434525D01*
X85507329Y-131433135D01*
X85509000Y-131425452D01*
X85509000Y-131420885D01*
X86017000Y-131420885D01*
X86021475Y-131436124D01*
X86022865Y-131437329D01*
X86030548Y-131439000D01*
X86760885Y-131439000D01*
X86776124Y-131434525D01*
X86777329Y-131433135D01*
X86779000Y-131425452D01*
X86779000Y-131420885D01*
X87287000Y-131420885D01*
X87291475Y-131436124D01*
X87292865Y-131437329D01*
X87300548Y-131439000D01*
X88030885Y-131439000D01*
X88046124Y-131434525D01*
X88047329Y-131433135D01*
X88049000Y-131425452D01*
X88049000Y-131420885D01*
X88557000Y-131420885D01*
X88561475Y-131436124D01*
X88562865Y-131437329D01*
X88570548Y-131439000D01*
X89092884Y-131439000D01*
X89108123Y-131434525D01*
X89109328Y-131433135D01*
X89110999Y-131425452D01*
X89110999Y-130754017D01*
X89110805Y-130749080D01*
X89108570Y-130720664D01*
X89106270Y-130708069D01*
X89063893Y-130562210D01*
X89057648Y-130547779D01*
X88981089Y-130418322D01*
X88971449Y-130405896D01*
X88865104Y-130299551D01*
X88852678Y-130289911D01*
X88723221Y-130213352D01*
X88708790Y-130207107D01*
X88574395Y-130168061D01*
X88560294Y-130168101D01*
X88557000Y-130175370D01*
X88557000Y-131420885D01*
X88049000Y-131420885D01*
X88049000Y-130181122D01*
X88045027Y-130167591D01*
X88037129Y-130166456D01*
X87897210Y-130207107D01*
X87882779Y-130213352D01*
X87753322Y-130289912D01*
X87745230Y-130296189D01*
X87679146Y-130322139D01*
X87609523Y-130308241D01*
X87590770Y-130296189D01*
X87582678Y-130289912D01*
X87453221Y-130213352D01*
X87438790Y-130207107D01*
X87304395Y-130168061D01*
X87290294Y-130168101D01*
X87287000Y-130175370D01*
X87287000Y-131420885D01*
X86779000Y-131420885D01*
X86779000Y-130181122D01*
X86775027Y-130167591D01*
X86767129Y-130166456D01*
X86627210Y-130207107D01*
X86612779Y-130213352D01*
X86483322Y-130289912D01*
X86475230Y-130296189D01*
X86409146Y-130322139D01*
X86339523Y-130308241D01*
X86320770Y-130296189D01*
X86312678Y-130289912D01*
X86183221Y-130213352D01*
X86168790Y-130207107D01*
X86034395Y-130168061D01*
X86020294Y-130168101D01*
X86017000Y-130175370D01*
X86017000Y-131420885D01*
X85509000Y-131420885D01*
X85509000Y-130181122D01*
X85505027Y-130167591D01*
X85497129Y-130166456D01*
X85357210Y-130207107D01*
X85342779Y-130213352D01*
X85213322Y-130289912D01*
X85205230Y-130296189D01*
X85139146Y-130322139D01*
X85069523Y-130308241D01*
X85050770Y-130296189D01*
X85042678Y-130289912D01*
X84913221Y-130213352D01*
X84898790Y-130207107D01*
X84764395Y-130168061D01*
X84750294Y-130168101D01*
X84747000Y-130175370D01*
X84747000Y-131420885D01*
X84239000Y-131420885D01*
X84239000Y-130181122D01*
X84230811Y-130153234D01*
X84206104Y-130114791D01*
X84201000Y-130079291D01*
X84201000Y-129345933D01*
X86623712Y-129345933D01*
X86632425Y-129357453D01*
X86730118Y-129429084D01*
X86738028Y-129434027D01*
X86960990Y-129551333D01*
X86969553Y-129555056D01*
X87207404Y-129638118D01*
X87216413Y-129640532D01*
X87463942Y-129687527D01*
X87473198Y-129688581D01*
X87724957Y-129698473D01*
X87734271Y-129698147D01*
X87984715Y-129670720D01*
X87993892Y-129669019D01*
X88237531Y-129604874D01*
X88246351Y-129601837D01*
X88477836Y-129502383D01*
X88486108Y-129498076D01*
X88700349Y-129365500D01*
X88707288Y-129360458D01*
X88715618Y-129347819D01*
X88709556Y-129337466D01*
X87680912Y-128308822D01*
X87666968Y-128301208D01*
X87665135Y-128301339D01*
X87658520Y-128305590D01*
X86630370Y-129333740D01*
X86623712Y-129345933D01*
X84201000Y-129345933D01*
X84201000Y-127895323D01*
X85905998Y-127895323D01*
X85918087Y-128146975D01*
X85919224Y-128156235D01*
X85968374Y-128403335D01*
X85970868Y-128412328D01*
X86056000Y-128649439D01*
X86059800Y-128657974D01*
X86179046Y-128879901D01*
X86184057Y-128887768D01*
X86247546Y-128972790D01*
X86258804Y-128981239D01*
X86271223Y-128974467D01*
X87296078Y-127949612D01*
X87302456Y-127937932D01*
X88032508Y-127937932D01*
X88032639Y-127939765D01*
X88036890Y-127946380D01*
X89068013Y-128977503D01*
X89080393Y-128984263D01*
X89088734Y-128978019D01*
X89214865Y-128781927D01*
X89219312Y-128773736D01*
X89322791Y-128544022D01*
X89325982Y-128535255D01*
X89394369Y-128292776D01*
X89396229Y-128283634D01*
X89428216Y-128032196D01*
X89428697Y-128025908D01*
X89430947Y-127939960D01*
X89430796Y-127933651D01*
X89412012Y-127680874D01*
X89410636Y-127671668D01*
X89355029Y-127425926D01*
X89352305Y-127417015D01*
X89260988Y-127182192D01*
X89256977Y-127173783D01*
X89131954Y-126955040D01*
X89126743Y-126947314D01*
X89089491Y-126900061D01*
X89077566Y-126891590D01*
X89066034Y-126898076D01*
X88040122Y-127923988D01*
X88032508Y-127937932D01*
X87302456Y-127937932D01*
X87303692Y-127935668D01*
X87303561Y-127933835D01*
X87299310Y-127927220D01*
X86269421Y-126897331D01*
X86256113Y-126890064D01*
X86246074Y-126897186D01*
X86235861Y-126909466D01*
X86230446Y-126917058D01*
X86099746Y-127132446D01*
X86095508Y-127140763D01*
X85998081Y-127373099D01*
X85995120Y-127381949D01*
X85933106Y-127626131D01*
X85931484Y-127635328D01*
X85906243Y-127885998D01*
X85905998Y-127895323D01*
X84201000Y-127895323D01*
X84201000Y-126525603D01*
X86621316Y-126525603D01*
X86625889Y-126535379D01*
X87655288Y-127564778D01*
X87669232Y-127572392D01*
X87671065Y-127572261D01*
X87677680Y-127568010D01*
X88706519Y-126539171D01*
X88712903Y-126527481D01*
X88703491Y-126515370D01*
X88566693Y-126420470D01*
X88558665Y-126415742D01*
X88332693Y-126304305D01*
X88324060Y-126300817D01*
X88084098Y-126224005D01*
X88075038Y-126221829D01*
X87826360Y-126181329D01*
X87817073Y-126180517D01*
X87565153Y-126177219D01*
X87555842Y-126177789D01*
X87306197Y-126211764D01*
X87297078Y-126213702D01*
X87055198Y-126284204D01*
X87046467Y-126287467D01*
X86817658Y-126392951D01*
X86809506Y-126397470D01*
X86630453Y-126514862D01*
X86621316Y-126525603D01*
X84201000Y-126525603D01*
X84201000Y-124395933D01*
X86623712Y-124395933D01*
X86632425Y-124407453D01*
X86730118Y-124479084D01*
X86738028Y-124484027D01*
X86960990Y-124601333D01*
X86969553Y-124605056D01*
X87207404Y-124688118D01*
X87216413Y-124690532D01*
X87463942Y-124737527D01*
X87473198Y-124738581D01*
X87724957Y-124748473D01*
X87734271Y-124748147D01*
X87984715Y-124720720D01*
X87993892Y-124719019D01*
X88237531Y-124654874D01*
X88246351Y-124651837D01*
X88477836Y-124552383D01*
X88486108Y-124548076D01*
X88700349Y-124415500D01*
X88707288Y-124410458D01*
X88715618Y-124397819D01*
X88709556Y-124387466D01*
X87680912Y-123358822D01*
X87666968Y-123351208D01*
X87665135Y-123351339D01*
X87658520Y-123355590D01*
X86630370Y-124383740D01*
X86623712Y-124395933D01*
X84201000Y-124395933D01*
X84201000Y-122945323D01*
X85905998Y-122945323D01*
X85918087Y-123196975D01*
X85919224Y-123206235D01*
X85968374Y-123453335D01*
X85970868Y-123462328D01*
X86056000Y-123699439D01*
X86059800Y-123707974D01*
X86179046Y-123929901D01*
X86184057Y-123937768D01*
X86247546Y-124022790D01*
X86258804Y-124031239D01*
X86271223Y-124024467D01*
X87296078Y-122999612D01*
X87302456Y-122987932D01*
X88032508Y-122987932D01*
X88032639Y-122989765D01*
X88036890Y-122996380D01*
X89068013Y-124027503D01*
X89080393Y-124034263D01*
X89088734Y-124028019D01*
X89214865Y-123831927D01*
X89219312Y-123823736D01*
X89322791Y-123594022D01*
X89325982Y-123585255D01*
X89394369Y-123342776D01*
X89396229Y-123333634D01*
X89428216Y-123082196D01*
X89428697Y-123075908D01*
X89430947Y-122989960D01*
X89430796Y-122983651D01*
X89412012Y-122730874D01*
X89410636Y-122721668D01*
X89355029Y-122475926D01*
X89352305Y-122467015D01*
X89260988Y-122232192D01*
X89256977Y-122223783D01*
X89131954Y-122005040D01*
X89126743Y-121997314D01*
X89089491Y-121950061D01*
X89077566Y-121941590D01*
X89066034Y-121948076D01*
X88040122Y-122973988D01*
X88032508Y-122987932D01*
X87302456Y-122987932D01*
X87303692Y-122985668D01*
X87303561Y-122983835D01*
X87299310Y-122977220D01*
X86269421Y-121947331D01*
X86256113Y-121940064D01*
X86246074Y-121947186D01*
X86235861Y-121959466D01*
X86230446Y-121967058D01*
X86099746Y-122182446D01*
X86095508Y-122190763D01*
X85998081Y-122423099D01*
X85995120Y-122431949D01*
X85933106Y-122676131D01*
X85931484Y-122685328D01*
X85906243Y-122935998D01*
X85905998Y-122945323D01*
X84201000Y-122945323D01*
X84201000Y-121538000D01*
X84221002Y-121469879D01*
X84274658Y-121423386D01*
X84327000Y-121412000D01*
X86498268Y-121412000D01*
X86566389Y-121432002D01*
G37*
G04 #@! TD.AperFunction*
G04 #@! TA.AperFunction,Conductor*
G36*
X78842164Y-121410212D02*
G01*
X78910277Y-121430240D01*
X78956749Y-121483913D01*
X78966992Y-121553006D01*
X78962462Y-121586690D01*
X78967789Y-121598079D01*
X79997188Y-122627478D01*
X80011132Y-122635092D01*
X80012965Y-122634961D01*
X80019580Y-122630710D01*
X81048419Y-121601871D01*
X81056033Y-121587927D01*
X81054441Y-121565660D01*
X81047626Y-121548349D01*
X81061463Y-121478714D01*
X81110751Y-121427614D01*
X81173169Y-121411094D01*
X83440049Y-121411952D01*
X83508161Y-121431980D01*
X83554633Y-121485653D01*
X83566000Y-121537952D01*
X83566000Y-130042961D01*
X83545998Y-130111082D01*
X83508423Y-130148764D01*
X83481030Y-130166479D01*
X83477000Y-130175371D01*
X83477000Y-131821000D01*
X83456998Y-131889121D01*
X83403342Y-131935614D01*
X83351000Y-131947000D01*
X78623116Y-131947000D01*
X78607877Y-131951475D01*
X78606672Y-131952865D01*
X78605001Y-131960548D01*
X78605001Y-132631984D01*
X78605195Y-132636920D01*
X78607430Y-132665336D01*
X78609730Y-132677931D01*
X78652107Y-132823790D01*
X78658352Y-132838221D01*
X78697239Y-132903976D01*
X78714698Y-132972792D01*
X78692181Y-133040124D01*
X78636836Y-133084593D01*
X78588737Y-133094115D01*
X77176975Y-133093581D01*
X77125952Y-133093562D01*
X77057839Y-133073534D01*
X77011367Y-133019861D01*
X77000000Y-132967562D01*
X77000000Y-131420885D01*
X78605000Y-131420885D01*
X78609475Y-131436124D01*
X78610865Y-131437329D01*
X78618548Y-131439000D01*
X79140885Y-131439000D01*
X79156124Y-131434525D01*
X79157329Y-131433135D01*
X79159000Y-131425452D01*
X79159000Y-131420885D01*
X79667000Y-131420885D01*
X79671475Y-131436124D01*
X79672865Y-131437329D01*
X79680548Y-131439000D01*
X80410885Y-131439000D01*
X80426124Y-131434525D01*
X80427329Y-131433135D01*
X80429000Y-131425452D01*
X80429000Y-131420885D01*
X80937000Y-131420885D01*
X80941475Y-131436124D01*
X80942865Y-131437329D01*
X80950548Y-131439000D01*
X81680885Y-131439000D01*
X81696124Y-131434525D01*
X81697329Y-131433135D01*
X81699000Y-131425452D01*
X81699000Y-131420885D01*
X82207000Y-131420885D01*
X82211475Y-131436124D01*
X82212865Y-131437329D01*
X82220548Y-131439000D01*
X82950885Y-131439000D01*
X82966124Y-131434525D01*
X82967329Y-131433135D01*
X82969000Y-131425452D01*
X82969000Y-130181122D01*
X82965027Y-130167591D01*
X82957129Y-130166456D01*
X82817210Y-130207107D01*
X82802779Y-130213352D01*
X82673322Y-130289912D01*
X82665230Y-130296189D01*
X82599146Y-130322139D01*
X82529523Y-130308241D01*
X82510770Y-130296189D01*
X82502678Y-130289912D01*
X82373221Y-130213352D01*
X82358790Y-130207107D01*
X82224395Y-130168061D01*
X82210294Y-130168101D01*
X82207000Y-130175370D01*
X82207000Y-131420885D01*
X81699000Y-131420885D01*
X81699000Y-130181122D01*
X81695027Y-130167591D01*
X81687129Y-130166456D01*
X81547210Y-130207107D01*
X81532779Y-130213352D01*
X81403322Y-130289912D01*
X81395230Y-130296189D01*
X81329146Y-130322139D01*
X81259523Y-130308241D01*
X81240770Y-130296189D01*
X81232678Y-130289912D01*
X81103221Y-130213352D01*
X81088790Y-130207107D01*
X80954395Y-130168061D01*
X80940294Y-130168101D01*
X80937000Y-130175370D01*
X80937000Y-131420885D01*
X80429000Y-131420885D01*
X80429000Y-130181122D01*
X80425027Y-130167591D01*
X80417129Y-130166456D01*
X80277210Y-130207107D01*
X80262779Y-130213352D01*
X80133322Y-130289912D01*
X80125230Y-130296189D01*
X80059146Y-130322139D01*
X79989523Y-130308241D01*
X79970770Y-130296189D01*
X79962678Y-130289912D01*
X79833221Y-130213352D01*
X79818790Y-130207107D01*
X79684395Y-130168061D01*
X79670294Y-130168101D01*
X79667000Y-130175370D01*
X79667000Y-131420885D01*
X79159000Y-131420885D01*
X79159000Y-130181122D01*
X79155027Y-130167591D01*
X79147129Y-130166456D01*
X79007210Y-130207107D01*
X78992779Y-130213352D01*
X78863322Y-130289911D01*
X78850896Y-130299551D01*
X78744551Y-130405896D01*
X78734911Y-130418322D01*
X78658352Y-130547779D01*
X78652107Y-130562210D01*
X78609731Y-130708065D01*
X78607430Y-130720667D01*
X78605193Y-130749084D01*
X78605000Y-130754014D01*
X78605000Y-131420885D01*
X77000000Y-131420885D01*
X77000000Y-129358633D01*
X78965612Y-129358633D01*
X78974325Y-129370153D01*
X79072018Y-129441784D01*
X79079928Y-129446727D01*
X79302890Y-129564033D01*
X79311453Y-129567756D01*
X79549304Y-129650818D01*
X79558313Y-129653232D01*
X79805842Y-129700227D01*
X79815098Y-129701281D01*
X80066857Y-129711173D01*
X80076171Y-129710847D01*
X80326615Y-129683420D01*
X80335792Y-129681719D01*
X80579431Y-129617574D01*
X80588251Y-129614537D01*
X80819736Y-129515083D01*
X80828008Y-129510776D01*
X81042249Y-129378200D01*
X81049188Y-129373158D01*
X81057518Y-129360519D01*
X81051456Y-129350166D01*
X80022812Y-128321522D01*
X80008868Y-128313908D01*
X80007035Y-128314039D01*
X80000420Y-128318290D01*
X78972270Y-129346440D01*
X78965612Y-129358633D01*
X77000000Y-129358633D01*
X77000000Y-128250000D01*
X73126000Y-128250000D01*
X73057879Y-128229998D01*
X73011386Y-128176342D01*
X73000000Y-128124000D01*
X73000000Y-127908023D01*
X78247898Y-127908023D01*
X78259987Y-128159675D01*
X78261124Y-128168935D01*
X78310274Y-128416035D01*
X78312768Y-128425028D01*
X78397900Y-128662139D01*
X78401700Y-128670674D01*
X78520946Y-128892601D01*
X78525957Y-128900468D01*
X78589446Y-128985490D01*
X78600704Y-128993939D01*
X78613123Y-128987167D01*
X79637978Y-127962312D01*
X79644356Y-127950632D01*
X80374408Y-127950632D01*
X80374539Y-127952465D01*
X80378790Y-127959080D01*
X81409913Y-128990203D01*
X81422293Y-128996963D01*
X81430634Y-128990719D01*
X81556765Y-128794627D01*
X81561212Y-128786436D01*
X81664691Y-128556722D01*
X81667882Y-128547955D01*
X81736269Y-128305476D01*
X81738129Y-128296334D01*
X81770116Y-128044896D01*
X81770597Y-128038608D01*
X81772847Y-127952660D01*
X81772696Y-127946351D01*
X81753912Y-127693574D01*
X81752536Y-127684368D01*
X81696929Y-127438626D01*
X81694205Y-127429715D01*
X81602888Y-127194892D01*
X81598877Y-127186483D01*
X81473854Y-126967740D01*
X81468643Y-126960014D01*
X81431391Y-126912761D01*
X81419466Y-126904290D01*
X81407934Y-126910776D01*
X80382022Y-127936688D01*
X80374408Y-127950632D01*
X79644356Y-127950632D01*
X79645592Y-127948368D01*
X79645461Y-127946535D01*
X79641210Y-127939920D01*
X78611321Y-126910031D01*
X78598013Y-126902764D01*
X78587974Y-126909886D01*
X78577761Y-126922166D01*
X78572346Y-126929758D01*
X78441646Y-127145146D01*
X78437408Y-127153463D01*
X78339981Y-127385799D01*
X78337020Y-127394649D01*
X78275006Y-127638831D01*
X78273384Y-127648028D01*
X78248143Y-127898698D01*
X78247898Y-127908023D01*
X73000000Y-127908023D01*
X73000000Y-126538303D01*
X78963216Y-126538303D01*
X78967789Y-126548079D01*
X79997188Y-127577478D01*
X80011132Y-127585092D01*
X80012965Y-127584961D01*
X80019580Y-127580710D01*
X81048419Y-126551871D01*
X81054803Y-126540181D01*
X81045391Y-126528070D01*
X80908593Y-126433170D01*
X80900565Y-126428442D01*
X80674593Y-126317005D01*
X80665960Y-126313517D01*
X80425998Y-126236705D01*
X80416938Y-126234529D01*
X80168260Y-126194029D01*
X80158973Y-126193217D01*
X79907053Y-126189919D01*
X79897742Y-126190489D01*
X79648097Y-126224464D01*
X79638978Y-126226402D01*
X79397098Y-126296904D01*
X79388367Y-126300167D01*
X79159558Y-126405651D01*
X79151406Y-126410170D01*
X78972353Y-126527562D01*
X78963216Y-126538303D01*
X73000000Y-126538303D01*
X73000000Y-124408633D01*
X78965612Y-124408633D01*
X78974325Y-124420153D01*
X79072018Y-124491784D01*
X79079928Y-124496727D01*
X79302890Y-124614033D01*
X79311453Y-124617756D01*
X79549304Y-124700818D01*
X79558313Y-124703232D01*
X79805842Y-124750227D01*
X79815098Y-124751281D01*
X80066857Y-124761173D01*
X80076171Y-124760847D01*
X80326615Y-124733420D01*
X80335792Y-124731719D01*
X80579431Y-124667574D01*
X80588251Y-124664537D01*
X80819736Y-124565083D01*
X80828008Y-124560776D01*
X81042249Y-124428200D01*
X81049188Y-124423158D01*
X81057518Y-124410519D01*
X81051456Y-124400166D01*
X80022812Y-123371522D01*
X80008868Y-123363908D01*
X80007035Y-123364039D01*
X80000420Y-123368290D01*
X78972270Y-124396440D01*
X78965612Y-124408633D01*
X73000000Y-124408633D01*
X73000000Y-122958023D01*
X78247898Y-122958023D01*
X78259987Y-123209675D01*
X78261124Y-123218935D01*
X78310274Y-123466035D01*
X78312768Y-123475028D01*
X78397900Y-123712139D01*
X78401700Y-123720674D01*
X78520946Y-123942601D01*
X78525957Y-123950468D01*
X78589446Y-124035490D01*
X78600704Y-124043939D01*
X78613123Y-124037167D01*
X79637978Y-123012312D01*
X79644356Y-123000632D01*
X80374408Y-123000632D01*
X80374539Y-123002465D01*
X80378790Y-123009080D01*
X81409913Y-124040203D01*
X81422293Y-124046963D01*
X81430634Y-124040719D01*
X81556765Y-123844627D01*
X81561212Y-123836436D01*
X81664691Y-123606722D01*
X81667882Y-123597955D01*
X81736269Y-123355476D01*
X81738129Y-123346334D01*
X81770116Y-123094896D01*
X81770597Y-123088608D01*
X81772847Y-123002660D01*
X81772696Y-122996351D01*
X81753912Y-122743574D01*
X81752536Y-122734368D01*
X81696929Y-122488626D01*
X81694205Y-122479715D01*
X81602888Y-122244892D01*
X81598877Y-122236483D01*
X81473854Y-122017740D01*
X81468643Y-122010014D01*
X81431391Y-121962761D01*
X81419466Y-121954290D01*
X81407934Y-121960776D01*
X80382022Y-122986688D01*
X80374408Y-123000632D01*
X79644356Y-123000632D01*
X79645592Y-122998368D01*
X79645461Y-122996535D01*
X79641210Y-122989920D01*
X78611321Y-121960031D01*
X78598013Y-121952764D01*
X78587974Y-121959886D01*
X78577761Y-121972166D01*
X78572346Y-121979758D01*
X78441646Y-122195146D01*
X78437408Y-122203463D01*
X78339981Y-122435799D01*
X78337020Y-122444649D01*
X78275006Y-122688831D01*
X78273384Y-122698028D01*
X78248143Y-122948698D01*
X78247898Y-122958023D01*
X73000000Y-122958023D01*
X73000000Y-121534048D01*
X73020002Y-121465927D01*
X73073658Y-121419434D01*
X73126048Y-121408048D01*
X78842164Y-121410212D01*
G37*
G04 #@! TD.AperFunction*
M02*
