M48
; DRILL file {KiCad (6.0.1-0)} date 2022 March 11, Friday 16:57:53
; FORMAT={-:-/ absolute / metric / decimal}
; #@! TF.CreationDate,2022-03-11T16:57:53+01:00
; #@! TF.GenerationSoftware,Kicad,Pcbnew,(6.0.1-0)
; #@! TF.FileFunction,Plated,1,2,PTH
FMAT,2
METRIC
; #@! TA.AperFunction,Plated,PTH,ViaDrill
T1C0.400
; #@! TA.AperFunction,Plated,PTH,ComponentDrill
T2C0.700
; #@! TA.AperFunction,Plated,PTH,ComponentDrill
T3C0.800
; #@! TA.AperFunction,Plated,PTH,ComponentDrill
T4C1.000
; #@! TA.AperFunction,Plated,PTH,ComponentDrill
T5C1.100
; #@! TA.AperFunction,Plated,PTH,ComponentDrill
T6C1.300
%
G90
G05
T1
X69.5Y-149.75
X72.5Y-140.5
X74.0Y-122.0
X74.0Y-123.25
X74.0Y-124.5
X74.0Y-125.75
X74.0Y-127.0
X75.25Y-122.0
X76.5Y-122.0
X76.75Y-140.5
X76.75Y-160.25
X76.75Y-166.5
X77.5Y-122.0
X78.0Y-153.75
X78.5Y-151.75
X79.25Y-146.75
X82.804Y-121.92
X82.804Y-123.444
X82.804Y-124.968
X82.804Y-126.492
X82.804Y-128.016
X84.9Y-121.9
X84.9Y-123.4
X84.9Y-125.0
X84.9Y-126.5
X84.9Y-128.0
X85.0Y-152.0
X87.75Y-146.75
X87.75Y-148.5
X89.5Y-150.0
X90.75Y-122.0
X90.75Y-160.0
X92.0Y-122.0
X93.25Y-122.0
X93.25Y-123.25
X93.25Y-124.5
X93.25Y-125.75
X93.25Y-127.0
X93.25Y-128.25
X93.25Y-129.5
X93.25Y-130.75
X93.25Y-132.0
X102.75Y-144.5
X112.022Y-176.268
T2
X102.87Y-168.91
T3
X117.3Y-135.6
X122.3Y-138.6
T4
X115.0Y-143.193
X115.0Y-148.193
X122.7Y-146.0
X122.7Y-151.08
X122.7Y-156.16
X122.7Y-161.24
X122.7Y-168.86
X122.7Y-173.94
T5
X81.28Y-153.924
X81.28Y-156.464
X81.28Y-159.004
X81.28Y-161.544
X81.28Y-164.084
X81.28Y-166.624
X81.28Y-169.164
X81.28Y-171.704
X81.28Y-174.244
X81.28Y-176.784
X81.28Y-179.324
X81.28Y-181.864
X81.28Y-184.404
X81.28Y-186.944
X83.82Y-153.924
X83.82Y-184.404
X86.36Y-153.924
X88.9Y-153.924
X91.44Y-153.924
X93.98Y-153.924
X96.52Y-153.924
X96.52Y-156.464
X96.52Y-159.004
X96.52Y-161.544
X96.52Y-164.084
X96.52Y-166.624
X96.52Y-169.164
X96.52Y-171.704
X96.52Y-174.244
X96.52Y-176.784
X96.52Y-179.324
X96.52Y-181.864
X96.52Y-184.404
X96.52Y-186.944
T6
X105.25Y-125.088
X105.25Y-140.088
T4
X80.01Y-123.499G85X80.01Y-122.499
G05
X80.01Y-128.45G85X80.01Y-127.45
G05
X87.668Y-122.487G85X87.668Y-123.487
G05
X87.668Y-127.437G85X87.668Y-128.437
G05
X97.79Y-122.69G85X97.79Y-123.69
G05
X97.79Y-127.64G85X97.79Y-128.64
G05
X114.23Y-124.265G85X113.23Y-124.265
G05
X119.18Y-124.265G85X118.18Y-124.265
G05
T0
M30
