G04 #@! TF.GenerationSoftware,KiCad,Pcbnew,(6.0.1-0)*
G04 #@! TF.CreationDate,2022-03-11T16:57:29+01:00*
G04 #@! TF.ProjectId,PowerAnalyzer_ACS71020_V2,506f7765-7241-46e6-916c-797a65725f41,2.2*
G04 #@! TF.SameCoordinates,Original*
G04 #@! TF.FileFunction,Soldermask,Top*
G04 #@! TF.FilePolarity,Negative*
%FSLAX46Y46*%
G04 Gerber Fmt 4.6, Leading zero omitted, Abs format (unit mm)*
G04 Created by KiCad (PCBNEW (6.0.1-0)) date 2022-03-11 16:57:29*
%MOMM*%
%LPD*%
G01*
G04 APERTURE LIST*
G04 Aperture macros list*
%AMRoundRect*
0 Rectangle with rounded corners*
0 $1 Rounding radius*
0 $2 $3 $4 $5 $6 $7 $8 $9 X,Y pos of 4 corners*
0 Add a 4 corners polygon primitive as box body*
4,1,4,$2,$3,$4,$5,$6,$7,$8,$9,$2,$3,0*
0 Add four circle primitives for the rounded corners*
1,1,$1+$1,$2,$3*
1,1,$1+$1,$4,$5*
1,1,$1+$1,$6,$7*
1,1,$1+$1,$8,$9*
0 Add four rect primitives between the rounded corners*
20,1,$1+$1,$2,$3,$4,$5,0*
20,1,$1+$1,$4,$5,$6,$7,0*
20,1,$1+$1,$6,$7,$8,$9,0*
20,1,$1+$1,$8,$9,$2,$3,0*%
G04 Aperture macros list end*
%ADD10C,2.602000*%
%ADD11RoundRect,0.301001X0.624999X-0.462499X0.624999X0.462499X-0.624999X0.462499X-0.624999X-0.462499X0*%
%ADD12RoundRect,0.051000X1.000000X-1.000000X1.000000X1.000000X-1.000000X1.000000X-1.000000X-1.000000X0*%
%ADD13C,2.102000*%
%ADD14C,1.702000*%
%ADD15RoundRect,0.300999X0.450001X-0.325001X0.450001X0.325001X-0.450001X0.325001X-0.450001X-0.325001X0*%
%ADD16RoundRect,0.051000X-1.000000X1.000000X-1.000000X-1.000000X1.000000X-1.000000X1.000000X1.000000X0*%
%ADD17RoundRect,0.300999X0.325001X0.450001X-0.325001X0.450001X-0.325001X-0.450001X0.325001X-0.450001X0*%
%ADD18RoundRect,0.301000X-0.450000X0.325000X-0.450000X-0.325000X0.450000X-0.325000X0.450000X0.325000X0*%
%ADD19RoundRect,0.051000X0.500000X0.500000X-0.500000X0.500000X-0.500000X-0.500000X0.500000X-0.500000X0*%
%ADD20RoundRect,0.300999X-0.450001X0.325001X-0.450001X-0.325001X0.450001X-0.325001X0.450001X0.325001X0*%
%ADD21RoundRect,0.201000X-0.150000X0.875000X-0.150000X-0.875000X0.150000X-0.875000X0.150000X0.875000X0*%
%ADD22RoundRect,0.300999X-0.325001X-0.450001X0.325001X-0.450001X0.325001X0.450001X-0.325001X0.450001X0*%
%ADD23R,1.000000X2.000000*%
%ADD24RoundRect,0.201000X0.150000X-0.825000X0.150000X0.825000X-0.150000X0.825000X-0.150000X-0.825000X0*%
%ADD25C,2.702000*%
%ADD26RoundRect,0.201000X0.150000X-0.875000X0.150000X0.875000X-0.150000X0.875000X-0.150000X-0.875000X0*%
%ADD27RoundRect,0.051000X1.280198X-1.149997X1.280198X1.149997X-1.280198X1.149997X-1.280198X-1.149997X0*%
%ADD28RoundRect,0.101600X-0.850000X0.300000X-0.850000X-0.300000X0.850000X-0.300000X0.850000X0.300000X0*%
%ADD29RoundRect,0.288500X-0.250000X-0.237500X0.250000X-0.237500X0.250000X0.237500X-0.250000X0.237500X0*%
%ADD30C,1.602000*%
%ADD31C,1.102000*%
G04 APERTURE END LIST*
D10*
X117300000Y-175000000D03*
X74300000Y-132000000D03*
X117300000Y-132000000D03*
X87668100Y-122986800D03*
X87668100Y-127936800D03*
X80010000Y-127949500D03*
X80010000Y-122999500D03*
D11*
X106750000Y-158487500D03*
X106750000Y-155512500D03*
D12*
X115000000Y-148193000D03*
D13*
X115000000Y-143193000D03*
D14*
X117300000Y-135600000D03*
X122300000Y-138600000D03*
D10*
X113730000Y-124265000D03*
X118680000Y-124265000D03*
D15*
X93500000Y-146775000D03*
X93500000Y-144725000D03*
D11*
X102750000Y-158475000D03*
X102750000Y-155500000D03*
X106750000Y-152737500D03*
X106750000Y-149762500D03*
D10*
X74300000Y-175000000D03*
X97790000Y-123190000D03*
X97790000Y-128140000D03*
D16*
X122700000Y-146000000D03*
D13*
X122700000Y-151080000D03*
X122700000Y-156160000D03*
X122700000Y-161240000D03*
X122700000Y-168860000D03*
X122700000Y-173940000D03*
D17*
X95775000Y-149000000D03*
X93725000Y-149000000D03*
D18*
X91250000Y-142750000D03*
X91250000Y-144800000D03*
D19*
X112600000Y-185500000D03*
X110100000Y-185500000D03*
D20*
X105664000Y-175251000D03*
X105664000Y-177301000D03*
D19*
X112600000Y-183350000D03*
X110100000Y-183350000D03*
D21*
X88303000Y-131693000D03*
X87033000Y-131693000D03*
X85763000Y-131693000D03*
X84493000Y-131693000D03*
X83223000Y-131693000D03*
X81953000Y-131693000D03*
X80683000Y-131693000D03*
X79413000Y-131693000D03*
X79413000Y-140993000D03*
X80683000Y-140993000D03*
X81953000Y-140993000D03*
X83223000Y-140993000D03*
X84493000Y-140993000D03*
X85763000Y-140993000D03*
X87033000Y-140993000D03*
X88303000Y-140993000D03*
D22*
X68725000Y-139750000D03*
X70775000Y-139750000D03*
D23*
X93980000Y-159004000D03*
X91440000Y-159004000D03*
X86360000Y-161544000D03*
X92990000Y-178734000D03*
X91440000Y-161544000D03*
X88900000Y-161544000D03*
X87910000Y-178734000D03*
X87560000Y-181744000D03*
X83820000Y-161544000D03*
X89180000Y-178734000D03*
X93980000Y-161544000D03*
X84100000Y-178734000D03*
X88900000Y-159004000D03*
X90450000Y-178734000D03*
X85370000Y-178734000D03*
X90100000Y-181744000D03*
X91720000Y-178734000D03*
X83820000Y-159004000D03*
X86640000Y-178734000D03*
X86360000Y-159004000D03*
D14*
X96520000Y-186944000D03*
X96520000Y-184404000D03*
X96520000Y-181864000D03*
X96520000Y-179324000D03*
X96520000Y-176784000D03*
X96520000Y-174244000D03*
X96520000Y-171704000D03*
X96520000Y-169164000D03*
X96520000Y-166624000D03*
X96520000Y-164084000D03*
X96520000Y-161544000D03*
X96520000Y-159004000D03*
X96520000Y-156464000D03*
X96520000Y-153924000D03*
X93980000Y-153924000D03*
X91440000Y-153924000D03*
X88900000Y-153924000D03*
X86360000Y-153924000D03*
X83820000Y-153924000D03*
X81280000Y-153924000D03*
X81280000Y-156464000D03*
X81280000Y-159004000D03*
X81280000Y-161544000D03*
X81280000Y-164084000D03*
X81280000Y-166624000D03*
X81280000Y-169164000D03*
X81280000Y-171704000D03*
X81280000Y-174244000D03*
X81280000Y-176784000D03*
X81280000Y-179324000D03*
X81280000Y-181864000D03*
X81280000Y-184404000D03*
X81280000Y-186944000D03*
X83820000Y-184404000D03*
D24*
X79055000Y-149975000D03*
X80325000Y-149975000D03*
X81595000Y-149975000D03*
X82865000Y-149975000D03*
X84135000Y-149975000D03*
X85405000Y-149975000D03*
X86675000Y-149975000D03*
X87945000Y-149975000D03*
X87945000Y-145025000D03*
X86675000Y-145025000D03*
X85405000Y-145025000D03*
X84135000Y-145025000D03*
X82865000Y-145025000D03*
X81595000Y-145025000D03*
X80325000Y-145025000D03*
X79055000Y-145025000D03*
D25*
X105250000Y-132588000D03*
D13*
X105250000Y-125088000D03*
X105250000Y-140088000D03*
D26*
X67805000Y-151650000D03*
X69075000Y-151650000D03*
X70345000Y-151650000D03*
X71615000Y-151650000D03*
X72885000Y-151650000D03*
X74155000Y-151650000D03*
X75425000Y-151650000D03*
X76695000Y-151650000D03*
X76695000Y-142350000D03*
X75425000Y-142350000D03*
X74155000Y-142350000D03*
X72885000Y-142350000D03*
X71615000Y-142350000D03*
X70345000Y-142350000D03*
X69075000Y-142350000D03*
X67805000Y-142350000D03*
D22*
X67725000Y-154250000D03*
X69775000Y-154250000D03*
D27*
X108227804Y-172750000D03*
X112272196Y-172750000D03*
D11*
X102750000Y-152737500D03*
X102750000Y-149762500D03*
D15*
X95750000Y-146775000D03*
X95750000Y-144725000D03*
D27*
X107977804Y-179750000D03*
X112022196Y-179750000D03*
D28*
X71270000Y-159320000D03*
X74970000Y-160320000D03*
X71270000Y-161320000D03*
X74970000Y-162320000D03*
X71270000Y-163320000D03*
X74970000Y-164320000D03*
X71270000Y-165320000D03*
X74970000Y-166320000D03*
D29*
X89587500Y-151500000D03*
X91412500Y-151500000D03*
D30*
X106680000Y-160782000D03*
X102870000Y-172720000D03*
D31*
X102870000Y-168910000D03*
D30*
X102616000Y-160782000D03*
M02*
