G04 #@! TF.GenerationSoftware,KiCad,Pcbnew,(6.0.1-0)*
G04 #@! TF.CreationDate,2022-03-11T16:57:29+01:00*
G04 #@! TF.ProjectId,PowerAnalyzer_ACS71020_V2,506f7765-7241-46e6-916c-797a65725f41,2.2*
G04 #@! TF.SameCoordinates,Original*
G04 #@! TF.FileFunction,Legend,Top*
G04 #@! TF.FilePolarity,Positive*
%FSLAX46Y46*%
G04 Gerber Fmt 4.6, Leading zero omitted, Abs format (unit mm)*
G04 Created by KiCad (PCBNEW (6.0.1-0)) date 2022-03-11 16:57:29*
%MOMM*%
%LPD*%
G01*
G04 APERTURE LIST*
G04 Aperture macros list*
%AMRoundRect*
0 Rectangle with rounded corners*
0 $1 Rounding radius*
0 $2 $3 $4 $5 $6 $7 $8 $9 X,Y pos of 4 corners*
0 Add a 4 corners polygon primitive as box body*
4,1,4,$2,$3,$4,$5,$6,$7,$8,$9,$2,$3,0*
0 Add four circle primitives for the rounded corners*
1,1,$1+$1,$2,$3*
1,1,$1+$1,$4,$5*
1,1,$1+$1,$6,$7*
1,1,$1+$1,$8,$9*
0 Add four rect primitives between the rounded corners*
20,1,$1+$1,$2,$3,$4,$5,0*
20,1,$1+$1,$4,$5,$6,$7,0*
20,1,$1+$1,$6,$7,$8,$9,0*
20,1,$1+$1,$8,$9,$2,$3,0*%
G04 Aperture macros list end*
%ADD10C,0.120000*%
%ADD11C,0.050000*%
%ADD12C,0.150000*%
%ADD13C,0.750000*%
%ADD14C,0.300000*%
%ADD15C,0.015000*%
%ADD16C,0.096520*%
%ADD17C,0.100000*%
%ADD18C,0.200000*%
%ADD19C,2.602000*%
%ADD20RoundRect,0.301001X0.624999X-0.462499X0.624999X0.462499X-0.624999X0.462499X-0.624999X-0.462499X0*%
%ADD21RoundRect,0.051000X1.000000X-1.000000X1.000000X1.000000X-1.000000X1.000000X-1.000000X-1.000000X0*%
%ADD22C,2.102000*%
%ADD23C,1.702000*%
%ADD24RoundRect,0.300999X0.450001X-0.325001X0.450001X0.325001X-0.450001X0.325001X-0.450001X-0.325001X0*%
%ADD25RoundRect,0.051000X-1.000000X1.000000X-1.000000X-1.000000X1.000000X-1.000000X1.000000X1.000000X0*%
%ADD26RoundRect,0.300999X0.325001X0.450001X-0.325001X0.450001X-0.325001X-0.450001X0.325001X-0.450001X0*%
%ADD27RoundRect,0.301000X-0.450000X0.325000X-0.450000X-0.325000X0.450000X-0.325000X0.450000X0.325000X0*%
%ADD28RoundRect,0.051000X0.500000X0.500000X-0.500000X0.500000X-0.500000X-0.500000X0.500000X-0.500000X0*%
%ADD29RoundRect,0.300999X-0.450001X0.325001X-0.450001X-0.325001X0.450001X-0.325001X0.450001X0.325001X0*%
%ADD30RoundRect,0.201000X-0.150000X0.875000X-0.150000X-0.875000X0.150000X-0.875000X0.150000X0.875000X0*%
%ADD31RoundRect,0.300999X-0.325001X-0.450001X0.325001X-0.450001X0.325001X0.450001X-0.325001X0.450001X0*%
%ADD32R,1.000000X2.000000*%
%ADD33RoundRect,0.201000X0.150000X-0.825000X0.150000X0.825000X-0.150000X0.825000X-0.150000X-0.825000X0*%
%ADD34C,2.702000*%
%ADD35RoundRect,0.201000X0.150000X-0.875000X0.150000X0.875000X-0.150000X0.875000X-0.150000X-0.875000X0*%
%ADD36RoundRect,0.051000X1.280198X-1.149997X1.280198X1.149997X-1.280198X1.149997X-1.280198X-1.149997X0*%
%ADD37RoundRect,0.101600X-0.850000X0.300000X-0.850000X-0.300000X0.850000X-0.300000X0.850000X0.300000X0*%
%ADD38RoundRect,0.288500X-0.250000X-0.237500X0.250000X-0.237500X0.250000X0.237500X-0.250000X0.237500X0*%
%ADD39C,1.602000*%
%ADD40C,1.102000*%
G04 APERTURE END LIST*
D10*
X111800000Y-183300000D02*
X110900000Y-182700000D01*
X111800000Y-185500000D02*
X110900000Y-184800000D01*
X110900000Y-184800000D02*
X110900000Y-186200000D01*
X111800000Y-182800000D02*
X111800000Y-183800000D01*
X110900000Y-182700000D02*
X110900000Y-184000000D01*
X110900000Y-184000000D02*
X111800000Y-183300000D01*
X110900000Y-186200000D02*
X111800000Y-185500000D01*
X111800000Y-186000000D02*
X111800000Y-186100000D01*
X111800000Y-184900000D02*
X111800000Y-186000000D01*
D11*
X90547619Y-126152380D02*
X90547619Y-125485714D01*
X90547619Y-125152380D02*
X90500000Y-125200000D01*
X90547619Y-125247619D01*
X90595238Y-125200000D01*
X90547619Y-125152380D01*
X90547619Y-125247619D01*
X91023809Y-125485714D02*
X91023809Y-126152380D01*
X91023809Y-125580952D02*
X91071428Y-125533333D01*
X91166666Y-125485714D01*
X91309523Y-125485714D01*
X91404761Y-125533333D01*
X91452380Y-125628571D01*
X91452380Y-126152380D01*
X75690476Y-126302380D02*
X75595238Y-126254761D01*
X75547619Y-126207142D01*
X75500000Y-126111904D01*
X75500000Y-125826190D01*
X75547619Y-125730952D01*
X75595238Y-125683333D01*
X75690476Y-125635714D01*
X75833333Y-125635714D01*
X75928571Y-125683333D01*
X75976190Y-125730952D01*
X76023809Y-125826190D01*
X76023809Y-126111904D01*
X75976190Y-126207142D01*
X75928571Y-126254761D01*
X75833333Y-126302380D01*
X75690476Y-126302380D01*
X76880952Y-125635714D02*
X76880952Y-126302380D01*
X76452380Y-125635714D02*
X76452380Y-126159523D01*
X76500000Y-126254761D01*
X76595238Y-126302380D01*
X76738095Y-126302380D01*
X76833333Y-126254761D01*
X76880952Y-126207142D01*
X77214285Y-125635714D02*
X77595238Y-125635714D01*
X77357142Y-125302380D02*
X77357142Y-126159523D01*
X77404761Y-126254761D01*
X77500000Y-126302380D01*
X77595238Y-126302380D01*
D12*
X113355380Y-133460714D02*
X112688714Y-133460714D01*
X112783952Y-133460714D02*
X112736333Y-133413095D01*
X112688714Y-133317857D01*
X112688714Y-133175000D01*
X112736333Y-133079761D01*
X112831571Y-133032142D01*
X113355380Y-133032142D01*
X112831571Y-133032142D02*
X112736333Y-132984523D01*
X112688714Y-132889285D01*
X112688714Y-132746428D01*
X112736333Y-132651190D01*
X112831571Y-132603571D01*
X113355380Y-132603571D01*
X113355380Y-131698809D02*
X112831571Y-131698809D01*
X112736333Y-131746428D01*
X112688714Y-131841666D01*
X112688714Y-132032142D01*
X112736333Y-132127380D01*
X113307761Y-131698809D02*
X113355380Y-131794047D01*
X113355380Y-132032142D01*
X113307761Y-132127380D01*
X113212523Y-132175000D01*
X113117285Y-132175000D01*
X113022047Y-132127380D01*
X112974428Y-132032142D01*
X112974428Y-131794047D01*
X112926809Y-131698809D01*
X113355380Y-131317857D02*
X112688714Y-130794047D01*
X112688714Y-131317857D02*
X113355380Y-130794047D01*
X113260142Y-130413095D02*
X113307761Y-130365476D01*
X113355380Y-130413095D01*
X113307761Y-130460714D01*
X113260142Y-130413095D01*
X113355380Y-130413095D01*
X113355380Y-128651190D02*
X113355380Y-129222619D01*
X113355380Y-128936904D02*
X112355380Y-128936904D01*
X112498238Y-129032142D01*
X112593476Y-129127380D01*
X112641095Y-129222619D01*
X112355380Y-127746428D02*
X112355380Y-128222619D01*
X112831571Y-128270238D01*
X112783952Y-128222619D01*
X112736333Y-128127380D01*
X112736333Y-127889285D01*
X112783952Y-127794047D01*
X112831571Y-127746428D01*
X112926809Y-127698809D01*
X113164904Y-127698809D01*
X113260142Y-127746428D01*
X113307761Y-127794047D01*
X113355380Y-127889285D01*
X113355380Y-128127380D01*
X113307761Y-128222619D01*
X113260142Y-128270238D01*
X113069666Y-127317857D02*
X113069666Y-126841666D01*
X113355380Y-127413095D02*
X112355380Y-127079761D01*
X113355380Y-126746428D01*
X95631190Y-132362380D02*
X95631190Y-131695714D01*
X95631190Y-131790952D02*
X95678809Y-131743333D01*
X95774047Y-131695714D01*
X95916904Y-131695714D01*
X96012142Y-131743333D01*
X96059761Y-131838571D01*
X96059761Y-132362380D01*
X96059761Y-131838571D02*
X96107380Y-131743333D01*
X96202619Y-131695714D01*
X96345476Y-131695714D01*
X96440714Y-131743333D01*
X96488333Y-131838571D01*
X96488333Y-132362380D01*
X97393095Y-132362380D02*
X97393095Y-131838571D01*
X97345476Y-131743333D01*
X97250238Y-131695714D01*
X97059761Y-131695714D01*
X96964523Y-131743333D01*
X97393095Y-132314761D02*
X97297857Y-132362380D01*
X97059761Y-132362380D01*
X96964523Y-132314761D01*
X96916904Y-132219523D01*
X96916904Y-132124285D01*
X96964523Y-132029047D01*
X97059761Y-131981428D01*
X97297857Y-131981428D01*
X97393095Y-131933809D01*
X97774047Y-132362380D02*
X98297857Y-131695714D01*
X97774047Y-131695714D02*
X98297857Y-132362380D01*
X98678809Y-132267142D02*
X98726428Y-132314761D01*
X98678809Y-132362380D01*
X98631190Y-132314761D01*
X98678809Y-132267142D01*
X98678809Y-132362380D01*
X93869285Y-133067619D02*
X93916904Y-133020000D01*
X94012142Y-132972380D01*
X94250238Y-132972380D01*
X94345476Y-133020000D01*
X94393095Y-133067619D01*
X94440714Y-133162857D01*
X94440714Y-133258095D01*
X94393095Y-133400952D01*
X93821666Y-133972380D01*
X94440714Y-133972380D01*
X94774047Y-132972380D02*
X95393095Y-132972380D01*
X95059761Y-133353333D01*
X95202619Y-133353333D01*
X95297857Y-133400952D01*
X95345476Y-133448571D01*
X95393095Y-133543809D01*
X95393095Y-133781904D01*
X95345476Y-133877142D01*
X95297857Y-133924761D01*
X95202619Y-133972380D01*
X94916904Y-133972380D01*
X94821666Y-133924761D01*
X94774047Y-133877142D01*
X96012142Y-132972380D02*
X96107380Y-132972380D01*
X96202619Y-133020000D01*
X96250238Y-133067619D01*
X96297857Y-133162857D01*
X96345476Y-133353333D01*
X96345476Y-133591428D01*
X96297857Y-133781904D01*
X96250238Y-133877142D01*
X96202619Y-133924761D01*
X96107380Y-133972380D01*
X96012142Y-133972380D01*
X95916904Y-133924761D01*
X95869285Y-133877142D01*
X95821666Y-133781904D01*
X95774047Y-133591428D01*
X95774047Y-133353333D01*
X95821666Y-133162857D01*
X95869285Y-133067619D01*
X95916904Y-133020000D01*
X96012142Y-132972380D01*
X96631190Y-132972380D02*
X96964523Y-133972380D01*
X97297857Y-132972380D01*
X97678809Y-133924761D02*
X97678809Y-133972380D01*
X97631190Y-134067619D01*
X97583571Y-134115238D01*
X98631190Y-133972380D02*
X98059761Y-133972380D01*
X98345476Y-133972380D02*
X98345476Y-132972380D01*
X98250238Y-133115238D01*
X98155000Y-133210476D01*
X98059761Y-133258095D01*
X99535952Y-132972380D02*
X99059761Y-132972380D01*
X99012142Y-133448571D01*
X99059761Y-133400952D01*
X99155000Y-133353333D01*
X99393095Y-133353333D01*
X99488333Y-133400952D01*
X99535952Y-133448571D01*
X99583571Y-133543809D01*
X99583571Y-133781904D01*
X99535952Y-133877142D01*
X99488333Y-133924761D01*
X99393095Y-133972380D01*
X99155000Y-133972380D01*
X99059761Y-133924761D01*
X99012142Y-133877142D01*
X99964523Y-133686666D02*
X100440714Y-133686666D01*
X99869285Y-133972380D02*
X100202619Y-132972380D01*
X100535952Y-133972380D01*
D11*
X120832619Y-124912380D02*
X120832619Y-124245714D01*
X120832619Y-123912380D02*
X120785000Y-123960000D01*
X120832619Y-124007619D01*
X120880238Y-123960000D01*
X120832619Y-123912380D01*
X120832619Y-124007619D01*
X121308809Y-124245714D02*
X121308809Y-124912380D01*
X121308809Y-124340952D02*
X121356428Y-124293333D01*
X121451666Y-124245714D01*
X121594523Y-124245714D01*
X121689761Y-124293333D01*
X121737380Y-124388571D01*
X121737380Y-124912380D01*
D13*
X79756000Y-148391428D02*
X79898857Y-148534285D01*
X79756000Y-148677142D01*
X79613142Y-148534285D01*
X79756000Y-148391428D01*
X79756000Y-148677142D01*
X68250000Y-149321428D02*
X68392857Y-149464285D01*
X68250000Y-149607142D01*
X68107142Y-149464285D01*
X68250000Y-149321428D01*
X68250000Y-149607142D01*
D14*
X68763142Y-171112571D02*
X68048857Y-171112571D01*
X68048857Y-169612571D01*
X69263142Y-171112571D02*
X69263142Y-170112571D01*
X69263142Y-169612571D02*
X69191714Y-169684000D01*
X69263142Y-169755428D01*
X69334571Y-169684000D01*
X69263142Y-169612571D01*
X69263142Y-169755428D01*
X70620285Y-171112571D02*
X70620285Y-169612571D01*
X70620285Y-171041142D02*
X70477428Y-171112571D01*
X70191714Y-171112571D01*
X70048857Y-171041142D01*
X69977428Y-170969714D01*
X69906000Y-170826857D01*
X69906000Y-170398285D01*
X69977428Y-170255428D01*
X70048857Y-170184000D01*
X70191714Y-170112571D01*
X70477428Y-170112571D01*
X70620285Y-170184000D01*
X71334571Y-170541142D02*
X72477428Y-170541142D01*
X74048857Y-170969714D02*
X73977428Y-171041142D01*
X73763142Y-171112571D01*
X73620285Y-171112571D01*
X73406000Y-171041142D01*
X73263142Y-170898285D01*
X73191714Y-170755428D01*
X73120285Y-170469714D01*
X73120285Y-170255428D01*
X73191714Y-169969714D01*
X73263142Y-169826857D01*
X73406000Y-169684000D01*
X73620285Y-169612571D01*
X73763142Y-169612571D01*
X73977428Y-169684000D01*
X74048857Y-169755428D01*
X74906000Y-171112571D02*
X74763142Y-171041142D01*
X74691714Y-170969714D01*
X74620285Y-170826857D01*
X74620285Y-170398285D01*
X74691714Y-170255428D01*
X74763142Y-170184000D01*
X74906000Y-170112571D01*
X75120285Y-170112571D01*
X75263142Y-170184000D01*
X75334571Y-170255428D01*
X75406000Y-170398285D01*
X75406000Y-170826857D01*
X75334571Y-170969714D01*
X75263142Y-171041142D01*
X75120285Y-171112571D01*
X74906000Y-171112571D01*
X76048857Y-170112571D02*
X76048857Y-171112571D01*
X76048857Y-170255428D02*
X76120285Y-170184000D01*
X76263142Y-170112571D01*
X76477428Y-170112571D01*
X76620285Y-170184000D01*
X76691714Y-170326857D01*
X76691714Y-171112571D01*
X77406000Y-170112571D02*
X77406000Y-171112571D01*
X77406000Y-170255428D02*
X77477428Y-170184000D01*
X77620285Y-170112571D01*
X77834571Y-170112571D01*
X77977428Y-170184000D01*
X78048857Y-170326857D01*
X78048857Y-171112571D01*
X78763142Y-170969714D02*
X78834571Y-171041142D01*
X78763142Y-171112571D01*
X78691714Y-171041142D01*
X78763142Y-170969714D01*
X78763142Y-171112571D01*
D11*
X94440476Y-126817380D02*
X94345238Y-126769761D01*
X94297619Y-126722142D01*
X94250000Y-126626904D01*
X94250000Y-126341190D01*
X94297619Y-126245952D01*
X94345238Y-126198333D01*
X94440476Y-126150714D01*
X94583333Y-126150714D01*
X94678571Y-126198333D01*
X94726190Y-126245952D01*
X94773809Y-126341190D01*
X94773809Y-126626904D01*
X94726190Y-126722142D01*
X94678571Y-126769761D01*
X94583333Y-126817380D01*
X94440476Y-126817380D01*
X95630952Y-126150714D02*
X95630952Y-126817380D01*
X95202380Y-126150714D02*
X95202380Y-126674523D01*
X95250000Y-126769761D01*
X95345238Y-126817380D01*
X95488095Y-126817380D01*
X95583333Y-126769761D01*
X95630952Y-126722142D01*
X95964285Y-126150714D02*
X96345238Y-126150714D01*
X96107142Y-125817380D02*
X96107142Y-126674523D01*
X96154761Y-126769761D01*
X96250000Y-126817380D01*
X96345238Y-126817380D01*
D15*
X68735380Y-132984190D02*
X67735380Y-132984190D01*
X67735380Y-132603238D01*
X67783000Y-132508000D01*
X67830619Y-132460380D01*
X67925857Y-132412761D01*
X68068714Y-132412761D01*
X68163952Y-132460380D01*
X68211571Y-132508000D01*
X68259190Y-132603238D01*
X68259190Y-132984190D01*
X68735380Y-131841333D02*
X68687761Y-131936571D01*
X68640142Y-131984190D01*
X68544904Y-132031809D01*
X68259190Y-132031809D01*
X68163952Y-131984190D01*
X68116333Y-131936571D01*
X68068714Y-131841333D01*
X68068714Y-131698476D01*
X68116333Y-131603238D01*
X68163952Y-131555619D01*
X68259190Y-131508000D01*
X68544904Y-131508000D01*
X68640142Y-131555619D01*
X68687761Y-131603238D01*
X68735380Y-131698476D01*
X68735380Y-131841333D01*
X68068714Y-131174666D02*
X68735380Y-130984190D01*
X68259190Y-130793714D01*
X68735380Y-130603238D01*
X68068714Y-130412761D01*
X68687761Y-129650857D02*
X68735380Y-129746095D01*
X68735380Y-129936571D01*
X68687761Y-130031809D01*
X68592523Y-130079428D01*
X68211571Y-130079428D01*
X68116333Y-130031809D01*
X68068714Y-129936571D01*
X68068714Y-129746095D01*
X68116333Y-129650857D01*
X68211571Y-129603238D01*
X68306809Y-129603238D01*
X68402047Y-130079428D01*
X68735380Y-129174666D02*
X68068714Y-129174666D01*
X68259190Y-129174666D02*
X68163952Y-129127047D01*
X68116333Y-129079428D01*
X68068714Y-128984190D01*
X68068714Y-128888952D01*
X68449666Y-127841333D02*
X68449666Y-127365142D01*
X68735380Y-127936571D02*
X67735380Y-127603238D01*
X68735380Y-127269904D01*
X68068714Y-126936571D02*
X68735380Y-126936571D01*
X68163952Y-126936571D02*
X68116333Y-126888952D01*
X68068714Y-126793714D01*
X68068714Y-126650857D01*
X68116333Y-126555619D01*
X68211571Y-126508000D01*
X68735380Y-126508000D01*
X68735380Y-125603238D02*
X68211571Y-125603238D01*
X68116333Y-125650857D01*
X68068714Y-125746095D01*
X68068714Y-125936571D01*
X68116333Y-126031809D01*
X68687761Y-125603238D02*
X68735380Y-125698476D01*
X68735380Y-125936571D01*
X68687761Y-126031809D01*
X68592523Y-126079428D01*
X68497285Y-126079428D01*
X68402047Y-126031809D01*
X68354428Y-125936571D01*
X68354428Y-125698476D01*
X68306809Y-125603238D01*
X68735380Y-124984190D02*
X68687761Y-125079428D01*
X68592523Y-125127047D01*
X67735380Y-125127047D01*
X68068714Y-124698476D02*
X68735380Y-124460380D01*
X68068714Y-124222285D02*
X68735380Y-124460380D01*
X68973476Y-124555619D01*
X69021095Y-124603238D01*
X69068714Y-124698476D01*
X68068714Y-123936571D02*
X68068714Y-123412761D01*
X68735380Y-123936571D01*
X68735380Y-123412761D01*
X68687761Y-122650857D02*
X68735380Y-122746095D01*
X68735380Y-122936571D01*
X68687761Y-123031809D01*
X68592523Y-123079428D01*
X68211571Y-123079428D01*
X68116333Y-123031809D01*
X68068714Y-122936571D01*
X68068714Y-122746095D01*
X68116333Y-122650857D01*
X68211571Y-122603238D01*
X68306809Y-122603238D01*
X68402047Y-123079428D01*
X68735380Y-122174666D02*
X68068714Y-122174666D01*
X68259190Y-122174666D02*
X68163952Y-122127047D01*
X68116333Y-122079428D01*
X68068714Y-121984190D01*
X68068714Y-121888952D01*
X70345380Y-129817523D02*
X69869190Y-130150857D01*
X70345380Y-130388952D02*
X69345380Y-130388952D01*
X69345380Y-130008000D01*
X69393000Y-129912761D01*
X69440619Y-129865142D01*
X69535857Y-129817523D01*
X69678714Y-129817523D01*
X69773952Y-129865142D01*
X69821571Y-129912761D01*
X69869190Y-130008000D01*
X69869190Y-130388952D01*
X70297761Y-129008000D02*
X70345380Y-129103238D01*
X70345380Y-129293714D01*
X70297761Y-129388952D01*
X70202523Y-129436571D01*
X69821571Y-129436571D01*
X69726333Y-129388952D01*
X69678714Y-129293714D01*
X69678714Y-129103238D01*
X69726333Y-129008000D01*
X69821571Y-128960380D01*
X69916809Y-128960380D01*
X70012047Y-129436571D01*
X69678714Y-128627047D02*
X70345380Y-128388952D01*
X69678714Y-128150857D01*
X70250142Y-127769904D02*
X70297761Y-127722285D01*
X70345380Y-127769904D01*
X70297761Y-127817523D01*
X70250142Y-127769904D01*
X70345380Y-127769904D01*
X69440619Y-126579428D02*
X69393000Y-126531809D01*
X69345380Y-126436571D01*
X69345380Y-126198476D01*
X69393000Y-126103238D01*
X69440619Y-126055619D01*
X69535857Y-126008000D01*
X69631095Y-126008000D01*
X69773952Y-126055619D01*
X70345380Y-126627047D01*
X70345380Y-126008000D01*
X70250142Y-125579428D02*
X70297761Y-125531809D01*
X70345380Y-125579428D01*
X70297761Y-125627047D01*
X70250142Y-125579428D01*
X70345380Y-125579428D01*
X69440619Y-125150857D02*
X69393000Y-125103238D01*
X69345380Y-125008000D01*
X69345380Y-124769904D01*
X69393000Y-124674666D01*
X69440619Y-124627047D01*
X69535857Y-124579428D01*
X69631095Y-124579428D01*
X69773952Y-124627047D01*
X70345380Y-125198476D01*
X70345380Y-124579428D01*
D12*
X121594523Y-123642380D02*
X121118333Y-123642380D01*
X121118333Y-122642380D01*
D13*
X88000000Y-133571428D02*
X88142857Y-133714285D01*
X88000000Y-133857142D01*
X87857142Y-133714285D01*
X88000000Y-133571428D01*
X88000000Y-133857142D01*
D12*
X83200952Y-125377380D02*
X82629523Y-125377380D01*
X82915238Y-125377380D02*
X82915238Y-124377380D01*
X82820000Y-124520238D01*
X82724761Y-124615476D01*
X82629523Y-124663095D01*
X84105714Y-124377380D02*
X83629523Y-124377380D01*
X83581904Y-124853571D01*
X83629523Y-124805952D01*
X83724761Y-124758333D01*
X83962857Y-124758333D01*
X84058095Y-124805952D01*
X84105714Y-124853571D01*
X84153333Y-124948809D01*
X84153333Y-125186904D01*
X84105714Y-125282142D01*
X84058095Y-125329761D01*
X83962857Y-125377380D01*
X83724761Y-125377380D01*
X83629523Y-125329761D01*
X83581904Y-125282142D01*
X84534285Y-125091666D02*
X85010476Y-125091666D01*
X84439047Y-125377380D02*
X84772380Y-124377380D01*
X85105714Y-125377380D01*
X82296190Y-126987380D02*
X82296190Y-126320714D01*
X82296190Y-126415952D02*
X82343809Y-126368333D01*
X82439047Y-126320714D01*
X82581904Y-126320714D01*
X82677142Y-126368333D01*
X82724761Y-126463571D01*
X82724761Y-126987380D01*
X82724761Y-126463571D02*
X82772380Y-126368333D01*
X82867619Y-126320714D01*
X83010476Y-126320714D01*
X83105714Y-126368333D01*
X83153333Y-126463571D01*
X83153333Y-126987380D01*
X84058095Y-126987380D02*
X84058095Y-126463571D01*
X84010476Y-126368333D01*
X83915238Y-126320714D01*
X83724761Y-126320714D01*
X83629523Y-126368333D01*
X84058095Y-126939761D02*
X83962857Y-126987380D01*
X83724761Y-126987380D01*
X83629523Y-126939761D01*
X83581904Y-126844523D01*
X83581904Y-126749285D01*
X83629523Y-126654047D01*
X83724761Y-126606428D01*
X83962857Y-126606428D01*
X84058095Y-126558809D01*
X84439047Y-126987380D02*
X84962857Y-126320714D01*
X84439047Y-126320714D02*
X84962857Y-126987380D01*
X85343809Y-126892142D02*
X85391428Y-126939761D01*
X85343809Y-126987380D01*
X85296190Y-126939761D01*
X85343809Y-126892142D01*
X85343809Y-126987380D01*
X83534285Y-122372380D02*
X83534285Y-121372380D01*
X84105714Y-122372380D01*
X84105714Y-121372380D01*
X95559523Y-125547380D02*
X95083333Y-125547380D01*
X95083333Y-124547380D01*
X90596126Y-123502380D02*
X90596126Y-124216666D01*
X90548507Y-124359523D01*
X90453269Y-124454761D01*
X90310412Y-124502380D01*
X90215174Y-124502380D01*
X90977079Y-123502380D02*
X91596126Y-123502380D01*
X91262793Y-123883333D01*
X91405650Y-123883333D01*
X91500888Y-123930952D01*
X91548507Y-123978571D01*
X91596126Y-124073809D01*
X91596126Y-124311904D01*
X91548507Y-124407142D01*
X91500888Y-124454761D01*
X91405650Y-124502380D01*
X91119936Y-124502380D01*
X91024698Y-124454761D01*
X90977079Y-124407142D01*
X76374666Y-123602380D02*
X76374666Y-124316666D01*
X76327047Y-124459523D01*
X76231809Y-124554761D01*
X76088952Y-124602380D01*
X75993714Y-124602380D01*
X77374666Y-124602380D02*
X76803238Y-124602380D01*
X77088952Y-124602380D02*
X77088952Y-123602380D01*
X76993714Y-123745238D01*
X76898476Y-123840476D01*
X76803238Y-123888095D01*
X105382380Y-157166666D02*
X104906190Y-157500000D01*
X105382380Y-157738095D02*
X104382380Y-157738095D01*
X104382380Y-157357142D01*
X104430000Y-157261904D01*
X104477619Y-157214285D01*
X104572857Y-157166666D01*
X104715714Y-157166666D01*
X104810952Y-157214285D01*
X104858571Y-157261904D01*
X104906190Y-157357142D01*
X104906190Y-157738095D01*
X104382380Y-156833333D02*
X104382380Y-156214285D01*
X104763333Y-156547619D01*
X104763333Y-156404761D01*
X104810952Y-156309523D01*
X104858571Y-156261904D01*
X104953809Y-156214285D01*
X105191904Y-156214285D01*
X105287142Y-156261904D01*
X105334761Y-156309523D01*
X105382380Y-156404761D01*
X105382380Y-156690476D01*
X105334761Y-156785714D01*
X105287142Y-156833333D01*
X112219673Y-140523742D02*
X112172054Y-140571361D01*
X112029197Y-140618980D01*
X111933959Y-140618980D01*
X111791101Y-140571361D01*
X111695863Y-140476123D01*
X111648244Y-140380885D01*
X111600625Y-140190409D01*
X111600625Y-140047552D01*
X111648244Y-139857076D01*
X111695863Y-139761838D01*
X111791101Y-139666600D01*
X111933959Y-139618980D01*
X112029197Y-139618980D01*
X112172054Y-139666600D01*
X112219673Y-139714219D01*
X113124435Y-139618980D02*
X112648244Y-139618980D01*
X112600625Y-140095171D01*
X112648244Y-140047552D01*
X112743482Y-139999933D01*
X112981578Y-139999933D01*
X113076816Y-140047552D01*
X113124435Y-140095171D01*
X113172054Y-140190409D01*
X113172054Y-140428504D01*
X113124435Y-140523742D01*
X113076816Y-140571361D01*
X112981578Y-140618980D01*
X112743482Y-140618980D01*
X112648244Y-140571361D01*
X112600625Y-140523742D01*
X121604761Y-133802380D02*
X121271428Y-133326190D01*
X121033333Y-133802380D02*
X121033333Y-132802380D01*
X121414285Y-132802380D01*
X121509523Y-132850000D01*
X121557142Y-132897619D01*
X121604761Y-132992857D01*
X121604761Y-133135714D01*
X121557142Y-133230952D01*
X121509523Y-133278571D01*
X121414285Y-133326190D01*
X121033333Y-133326190D01*
X121890476Y-132802380D02*
X122223809Y-133802380D01*
X122557142Y-132802380D01*
X123414285Y-133802380D02*
X122842857Y-133802380D01*
X123128571Y-133802380D02*
X123128571Y-132802380D01*
X123033333Y-132945238D01*
X122938095Y-133040476D01*
X122842857Y-133088095D01*
X115871666Y-121372380D02*
X115871666Y-122086666D01*
X115824047Y-122229523D01*
X115728809Y-122324761D01*
X115585952Y-122372380D01*
X115490714Y-122372380D01*
X116776428Y-121705714D02*
X116776428Y-122372380D01*
X116538333Y-121324761D02*
X116300238Y-122039047D01*
X116919285Y-122039047D01*
X92107142Y-147166666D02*
X92154761Y-147214285D01*
X92202380Y-147357142D01*
X92202380Y-147452380D01*
X92154761Y-147595238D01*
X92059523Y-147690476D01*
X91964285Y-147738095D01*
X91773809Y-147785714D01*
X91630952Y-147785714D01*
X91440476Y-147738095D01*
X91345238Y-147690476D01*
X91250000Y-147595238D01*
X91202380Y-147452380D01*
X91202380Y-147357142D01*
X91250000Y-147214285D01*
X91297619Y-147166666D01*
X92202380Y-146690476D02*
X92202380Y-146500000D01*
X92154761Y-146404761D01*
X92107142Y-146357142D01*
X91964285Y-146261904D01*
X91773809Y-146214285D01*
X91392857Y-146214285D01*
X91297619Y-146261904D01*
X91250000Y-146309523D01*
X91202380Y-146404761D01*
X91202380Y-146595238D01*
X91250000Y-146690476D01*
X91297619Y-146738095D01*
X91392857Y-146785714D01*
X91630952Y-146785714D01*
X91726190Y-146738095D01*
X91773809Y-146690476D01*
X91821428Y-146595238D01*
X91821428Y-146404761D01*
X91773809Y-146309523D01*
X91726190Y-146261904D01*
X91630952Y-146214285D01*
X101382380Y-157154166D02*
X100906190Y-157487500D01*
X101382380Y-157725595D02*
X100382380Y-157725595D01*
X100382380Y-157344642D01*
X100430000Y-157249404D01*
X100477619Y-157201785D01*
X100572857Y-157154166D01*
X100715714Y-157154166D01*
X100810952Y-157201785D01*
X100858571Y-157249404D01*
X100906190Y-157344642D01*
X100906190Y-157725595D01*
X100715714Y-156297023D02*
X101382380Y-156297023D01*
X100334761Y-156535119D02*
X101049047Y-156773214D01*
X101049047Y-156154166D01*
X105382380Y-151416666D02*
X104906190Y-151750000D01*
X105382380Y-151988095D02*
X104382380Y-151988095D01*
X104382380Y-151607142D01*
X104430000Y-151511904D01*
X104477619Y-151464285D01*
X104572857Y-151416666D01*
X104715714Y-151416666D01*
X104810952Y-151464285D01*
X104858571Y-151511904D01*
X104906190Y-151607142D01*
X104906190Y-151988095D01*
X105382380Y-150464285D02*
X105382380Y-151035714D01*
X105382380Y-150750000D02*
X104382380Y-150750000D01*
X104525238Y-150845238D01*
X104620476Y-150940476D01*
X104668095Y-151035714D01*
X94916666Y-122007380D02*
X94916666Y-122721666D01*
X94869047Y-122864523D01*
X94773809Y-122959761D01*
X94630952Y-123007380D01*
X94535714Y-123007380D01*
X95345238Y-122102619D02*
X95392857Y-122055000D01*
X95488095Y-122007380D01*
X95726190Y-122007380D01*
X95821428Y-122055000D01*
X95869047Y-122102619D01*
X95916666Y-122197857D01*
X95916666Y-122293095D01*
X95869047Y-122435952D01*
X95297619Y-123007380D01*
X95916666Y-123007380D01*
X112720380Y-160726285D02*
X111720380Y-160726285D01*
X111720380Y-160345333D01*
X111768000Y-160250095D01*
X111815619Y-160202476D01*
X111910857Y-160154857D01*
X112053714Y-160154857D01*
X112148952Y-160202476D01*
X112196571Y-160250095D01*
X112244190Y-160345333D01*
X112244190Y-160726285D01*
X112672761Y-159773904D02*
X112720380Y-159631047D01*
X112720380Y-159392952D01*
X112672761Y-159297714D01*
X112625142Y-159250095D01*
X112529904Y-159202476D01*
X112434666Y-159202476D01*
X112339428Y-159250095D01*
X112291809Y-159297714D01*
X112244190Y-159392952D01*
X112196571Y-159583428D01*
X112148952Y-159678666D01*
X112101333Y-159726285D01*
X112006095Y-159773904D01*
X111910857Y-159773904D01*
X111815619Y-159726285D01*
X111768000Y-159678666D01*
X111720380Y-159583428D01*
X111720380Y-159345333D01*
X111768000Y-159202476D01*
X112720380Y-158250095D02*
X112720380Y-158821523D01*
X112720380Y-158535809D02*
X111720380Y-158535809D01*
X111863238Y-158631047D01*
X111958476Y-158726285D01*
X112006095Y-158821523D01*
X97607142Y-149452380D02*
X97273809Y-148976190D01*
X97035714Y-149452380D02*
X97035714Y-148452380D01*
X97416666Y-148452380D01*
X97511904Y-148500000D01*
X97559523Y-148547619D01*
X97607142Y-148642857D01*
X97607142Y-148785714D01*
X97559523Y-148880952D01*
X97511904Y-148928571D01*
X97416666Y-148976190D01*
X97035714Y-148976190D01*
X97988095Y-149404761D02*
X98130952Y-149452380D01*
X98369047Y-149452380D01*
X98464285Y-149404761D01*
X98511904Y-149357142D01*
X98559523Y-149261904D01*
X98559523Y-149166666D01*
X98511904Y-149071428D01*
X98464285Y-149023809D01*
X98369047Y-148976190D01*
X98178571Y-148928571D01*
X98083333Y-148880952D01*
X98035714Y-148833333D01*
X97988095Y-148738095D01*
X97988095Y-148642857D01*
X98035714Y-148547619D01*
X98083333Y-148500000D01*
X98178571Y-148452380D01*
X98416666Y-148452380D01*
X98559523Y-148500000D01*
X99511904Y-149452380D02*
X98940476Y-149452380D01*
X99226190Y-149452380D02*
X99226190Y-148452380D01*
X99130952Y-148595238D01*
X99035714Y-148690476D01*
X98940476Y-148738095D01*
X91333333Y-141702380D02*
X91000000Y-141226190D01*
X90761904Y-141702380D02*
X90761904Y-140702380D01*
X91142857Y-140702380D01*
X91238095Y-140750000D01*
X91285714Y-140797619D01*
X91333333Y-140892857D01*
X91333333Y-141035714D01*
X91285714Y-141130952D01*
X91238095Y-141178571D01*
X91142857Y-141226190D01*
X90761904Y-141226190D01*
X92238095Y-140702380D02*
X91761904Y-140702380D01*
X91714285Y-141178571D01*
X91761904Y-141130952D01*
X91857142Y-141083333D01*
X92095238Y-141083333D01*
X92190476Y-141130952D01*
X92238095Y-141178571D01*
X92285714Y-141273809D01*
X92285714Y-141511904D01*
X92238095Y-141607142D01*
X92190476Y-141654761D01*
X92095238Y-141702380D01*
X91857142Y-141702380D01*
X91761904Y-141654761D01*
X91714285Y-141607142D01*
X114702380Y-186238095D02*
X113702380Y-186238095D01*
X113702380Y-186000000D01*
X113750000Y-185857142D01*
X113845238Y-185761904D01*
X113940476Y-185714285D01*
X114130952Y-185666666D01*
X114273809Y-185666666D01*
X114464285Y-185714285D01*
X114559523Y-185761904D01*
X114654761Y-185857142D01*
X114702380Y-186000000D01*
X114702380Y-186238095D01*
X113797619Y-185285714D02*
X113750000Y-185238095D01*
X113702380Y-185142857D01*
X113702380Y-184904761D01*
X113750000Y-184809523D01*
X113797619Y-184761904D01*
X113892857Y-184714285D01*
X113988095Y-184714285D01*
X114130952Y-184761904D01*
X114702380Y-185333333D01*
X114702380Y-184714285D01*
X103465333Y-176728380D02*
X102989142Y-176728380D01*
X102989142Y-175728380D01*
X104322476Y-176728380D02*
X103751047Y-176728380D01*
X104036761Y-176728380D02*
X104036761Y-175728380D01*
X103941523Y-175871238D01*
X103846285Y-175966476D01*
X103751047Y-176014095D01*
X114702380Y-183988095D02*
X113702380Y-183988095D01*
X113702380Y-183750000D01*
X113750000Y-183607142D01*
X113845238Y-183511904D01*
X113940476Y-183464285D01*
X114130952Y-183416666D01*
X114273809Y-183416666D01*
X114464285Y-183464285D01*
X114559523Y-183511904D01*
X114654761Y-183607142D01*
X114702380Y-183750000D01*
X114702380Y-183988095D01*
X114702380Y-182464285D02*
X114702380Y-183035714D01*
X114702380Y-182750000D02*
X113702380Y-182750000D01*
X113845238Y-182845238D01*
X113940476Y-182940476D01*
X113988095Y-183035714D01*
X89408095Y-134072380D02*
X89408095Y-134881904D01*
X89455714Y-134977142D01*
X89503333Y-135024761D01*
X89598571Y-135072380D01*
X89789047Y-135072380D01*
X89884285Y-135024761D01*
X89931904Y-134977142D01*
X89979523Y-134881904D01*
X89979523Y-134072380D01*
X90408095Y-134167619D02*
X90455714Y-134120000D01*
X90550952Y-134072380D01*
X90789047Y-134072380D01*
X90884285Y-134120000D01*
X90931904Y-134167619D01*
X90979523Y-134262857D01*
X90979523Y-134358095D01*
X90931904Y-134500952D01*
X90360476Y-135072380D01*
X90979523Y-135072380D01*
X69583333Y-138107142D02*
X69535714Y-138154761D01*
X69392857Y-138202380D01*
X69297619Y-138202380D01*
X69154761Y-138154761D01*
X69059523Y-138059523D01*
X69011904Y-137964285D01*
X68964285Y-137773809D01*
X68964285Y-137630952D01*
X69011904Y-137440476D01*
X69059523Y-137345238D01*
X69154761Y-137250000D01*
X69297619Y-137202380D01*
X69392857Y-137202380D01*
X69535714Y-137250000D01*
X69583333Y-137297619D01*
X69916666Y-137202380D02*
X70535714Y-137202380D01*
X70202380Y-137583333D01*
X70345238Y-137583333D01*
X70440476Y-137630952D01*
X70488095Y-137678571D01*
X70535714Y-137773809D01*
X70535714Y-138011904D01*
X70488095Y-138107142D01*
X70440476Y-138154761D01*
X70345238Y-138202380D01*
X70059523Y-138202380D01*
X69964285Y-138154761D01*
X69916666Y-138107142D01*
X77978095Y-186396380D02*
X77978095Y-187205904D01*
X78025714Y-187301142D01*
X78073333Y-187348761D01*
X78168571Y-187396380D01*
X78359047Y-187396380D01*
X78454285Y-187348761D01*
X78501904Y-187301142D01*
X78549523Y-187205904D01*
X78549523Y-186396380D01*
X78930476Y-186396380D02*
X79549523Y-186396380D01*
X79216190Y-186777333D01*
X79359047Y-186777333D01*
X79454285Y-186824952D01*
X79501904Y-186872571D01*
X79549523Y-186967809D01*
X79549523Y-187205904D01*
X79501904Y-187301142D01*
X79454285Y-187348761D01*
X79359047Y-187396380D01*
X79073333Y-187396380D01*
X78978095Y-187348761D01*
X78930476Y-187301142D01*
X85816666Y-170496666D02*
X85816666Y-169796666D01*
X86050000Y-170296666D01*
X86283333Y-169796666D01*
X86283333Y-170496666D01*
X86616666Y-170496666D02*
X86616666Y-169796666D01*
X86950000Y-170496666D02*
X86950000Y-169796666D01*
X87183333Y-170296666D01*
X87416666Y-169796666D01*
X87416666Y-170496666D01*
X87683333Y-169796666D02*
X88150000Y-170496666D01*
X88150000Y-169796666D02*
X87683333Y-170496666D01*
X88816666Y-170496666D02*
X88583333Y-170163333D01*
X88416666Y-170496666D02*
X88416666Y-169796666D01*
X88683333Y-169796666D01*
X88750000Y-169830000D01*
X88783333Y-169863333D01*
X88816666Y-169930000D01*
X88816666Y-170030000D01*
X88783333Y-170096666D01*
X88750000Y-170130000D01*
X88683333Y-170163333D01*
X88416666Y-170163333D01*
X89016666Y-169796666D02*
X89416666Y-169796666D01*
X89216666Y-170496666D02*
X89216666Y-169796666D01*
X90016666Y-170496666D02*
X89616666Y-170496666D01*
X89816666Y-170496666D02*
X89816666Y-169796666D01*
X89750000Y-169896666D01*
X89683333Y-169963333D01*
X89616666Y-169996666D01*
X90450000Y-169796666D02*
X90516666Y-169796666D01*
X90583333Y-169830000D01*
X90616666Y-169863333D01*
X90650000Y-169930000D01*
X90683333Y-170063333D01*
X90683333Y-170230000D01*
X90650000Y-170363333D01*
X90616666Y-170430000D01*
X90583333Y-170463333D01*
X90516666Y-170496666D01*
X90450000Y-170496666D01*
X90383333Y-170463333D01*
X90350000Y-170430000D01*
X90316666Y-170363333D01*
X90283333Y-170230000D01*
X90283333Y-170063333D01*
X90316666Y-169930000D01*
X90350000Y-169863333D01*
X90383333Y-169830000D01*
X90450000Y-169796666D01*
X91283333Y-169796666D02*
X91150000Y-169796666D01*
X91083333Y-169830000D01*
X91050000Y-169863333D01*
X90983333Y-169963333D01*
X90950000Y-170096666D01*
X90950000Y-170363333D01*
X90983333Y-170430000D01*
X91016666Y-170463333D01*
X91083333Y-170496666D01*
X91216666Y-170496666D01*
X91283333Y-170463333D01*
X91316666Y-170430000D01*
X91350000Y-170363333D01*
X91350000Y-170196666D01*
X91316666Y-170130000D01*
X91283333Y-170096666D01*
X91216666Y-170063333D01*
X91083333Y-170063333D01*
X91016666Y-170096666D01*
X90983333Y-170130000D01*
X90950000Y-170196666D01*
X91616666Y-169863333D02*
X91650000Y-169830000D01*
X91716666Y-169796666D01*
X91883333Y-169796666D01*
X91950000Y-169830000D01*
X91983333Y-169863333D01*
X92016666Y-169930000D01*
X92016666Y-169996666D01*
X91983333Y-170096666D01*
X91583333Y-170496666D01*
X92016666Y-170496666D01*
X87500000Y-168972666D02*
X87500000Y-168272666D01*
X87666666Y-168272666D01*
X87766666Y-168306000D01*
X87833333Y-168372666D01*
X87866666Y-168439333D01*
X87900000Y-168572666D01*
X87900000Y-168672666D01*
X87866666Y-168806000D01*
X87833333Y-168872666D01*
X87766666Y-168939333D01*
X87666666Y-168972666D01*
X87500000Y-168972666D01*
X88100000Y-168272666D02*
X88333333Y-168972666D01*
X88566666Y-168272666D01*
X89133333Y-168972666D02*
X88800000Y-168972666D01*
X88800000Y-168272666D01*
X89666666Y-168272666D02*
X89533333Y-168272666D01*
X89466666Y-168306000D01*
X89433333Y-168339333D01*
X89366666Y-168439333D01*
X89333333Y-168572666D01*
X89333333Y-168839333D01*
X89366666Y-168906000D01*
X89400000Y-168939333D01*
X89466666Y-168972666D01*
X89600000Y-168972666D01*
X89666666Y-168939333D01*
X89700000Y-168906000D01*
X89733333Y-168839333D01*
X89733333Y-168672666D01*
X89700000Y-168606000D01*
X89666666Y-168572666D01*
X89600000Y-168539333D01*
X89466666Y-168539333D01*
X89400000Y-168572666D01*
X89366666Y-168606000D01*
X89333333Y-168672666D01*
X90000000Y-168772666D02*
X90333333Y-168772666D01*
X89933333Y-168972666D02*
X90166666Y-168272666D01*
X90400000Y-168972666D01*
X88788095Y-146010380D02*
X88788095Y-146819904D01*
X88835714Y-146915142D01*
X88883333Y-146962761D01*
X88978571Y-147010380D01*
X89169047Y-147010380D01*
X89264285Y-146962761D01*
X89311904Y-146915142D01*
X89359523Y-146819904D01*
X89359523Y-146010380D01*
X90264285Y-146343714D02*
X90264285Y-147010380D01*
X90026190Y-145962761D02*
X89788095Y-146677047D01*
X90407142Y-146677047D01*
X110639571Y-131143333D02*
X110639571Y-131476666D01*
X111163380Y-131476666D02*
X110163380Y-131476666D01*
X110163380Y-131000476D01*
X111163380Y-130095714D02*
X111163380Y-130667142D01*
X111163380Y-130381428D02*
X110163380Y-130381428D01*
X110306238Y-130476666D01*
X110401476Y-130571904D01*
X110449095Y-130667142D01*
X73888095Y-139052380D02*
X73888095Y-139861904D01*
X73935714Y-139957142D01*
X73983333Y-140004761D01*
X74078571Y-140052380D01*
X74269047Y-140052380D01*
X74364285Y-140004761D01*
X74411904Y-139957142D01*
X74459523Y-139861904D01*
X74459523Y-139052380D01*
X75459523Y-140052380D02*
X74888095Y-140052380D01*
X75173809Y-140052380D02*
X75173809Y-139052380D01*
X75078571Y-139195238D01*
X74983333Y-139290476D01*
X74888095Y-139338095D01*
X68667333Y-156821142D02*
X68619714Y-156868761D01*
X68476857Y-156916380D01*
X68381619Y-156916380D01*
X68238761Y-156868761D01*
X68143523Y-156773523D01*
X68095904Y-156678285D01*
X68048285Y-156487809D01*
X68048285Y-156344952D01*
X68095904Y-156154476D01*
X68143523Y-156059238D01*
X68238761Y-155964000D01*
X68381619Y-155916380D01*
X68476857Y-155916380D01*
X68619714Y-155964000D01*
X68667333Y-156011619D01*
X69524476Y-156249714D02*
X69524476Y-156916380D01*
X69286380Y-155868761D02*
X69048285Y-156583047D01*
X69667333Y-156583047D01*
X110069333Y-170537142D02*
X110021714Y-170584761D01*
X109878857Y-170632380D01*
X109783619Y-170632380D01*
X109640761Y-170584761D01*
X109545523Y-170489523D01*
X109497904Y-170394285D01*
X109450285Y-170203809D01*
X109450285Y-170060952D01*
X109497904Y-169870476D01*
X109545523Y-169775238D01*
X109640761Y-169680000D01*
X109783619Y-169632380D01*
X109878857Y-169632380D01*
X110021714Y-169680000D01*
X110069333Y-169727619D01*
X110926476Y-169632380D02*
X110736000Y-169632380D01*
X110640761Y-169680000D01*
X110593142Y-169727619D01*
X110497904Y-169870476D01*
X110450285Y-170060952D01*
X110450285Y-170441904D01*
X110497904Y-170537142D01*
X110545523Y-170584761D01*
X110640761Y-170632380D01*
X110831238Y-170632380D01*
X110926476Y-170584761D01*
X110974095Y-170537142D01*
X111021714Y-170441904D01*
X111021714Y-170203809D01*
X110974095Y-170108571D01*
X110926476Y-170060952D01*
X110831238Y-170013333D01*
X110640761Y-170013333D01*
X110545523Y-170060952D01*
X110497904Y-170108571D01*
X110450285Y-170203809D01*
X101382380Y-151416666D02*
X100906190Y-151750000D01*
X101382380Y-151988095D02*
X100382380Y-151988095D01*
X100382380Y-151607142D01*
X100430000Y-151511904D01*
X100477619Y-151464285D01*
X100572857Y-151416666D01*
X100715714Y-151416666D01*
X100810952Y-151464285D01*
X100858571Y-151511904D01*
X100906190Y-151607142D01*
X100906190Y-151988095D01*
X100477619Y-151035714D02*
X100430000Y-150988095D01*
X100382380Y-150892857D01*
X100382380Y-150654761D01*
X100430000Y-150559523D01*
X100477619Y-150511904D01*
X100572857Y-150464285D01*
X100668095Y-150464285D01*
X100810952Y-150511904D01*
X101382380Y-151083333D01*
X101382380Y-150464285D01*
X97907142Y-146917857D02*
X97954761Y-146965476D01*
X98002380Y-147108333D01*
X98002380Y-147203571D01*
X97954761Y-147346428D01*
X97859523Y-147441666D01*
X97764285Y-147489285D01*
X97573809Y-147536904D01*
X97430952Y-147536904D01*
X97240476Y-147489285D01*
X97145238Y-147441666D01*
X97050000Y-147346428D01*
X97002380Y-147203571D01*
X97002380Y-147108333D01*
X97050000Y-146965476D01*
X97097619Y-146917857D01*
X98002380Y-145965476D02*
X98002380Y-146536904D01*
X98002380Y-146251190D02*
X97002380Y-146251190D01*
X97145238Y-146346428D01*
X97240476Y-146441666D01*
X97288095Y-146536904D01*
X97002380Y-145346428D02*
X97002380Y-145251190D01*
X97050000Y-145155952D01*
X97097619Y-145108333D01*
X97192857Y-145060714D01*
X97383333Y-145013095D01*
X97621428Y-145013095D01*
X97811904Y-145060714D01*
X97907142Y-145108333D01*
X97954761Y-145155952D01*
X98002380Y-145251190D01*
X98002380Y-145346428D01*
X97954761Y-145441666D01*
X97907142Y-145489285D01*
X97811904Y-145536904D01*
X97621428Y-145584523D01*
X97383333Y-145584523D01*
X97192857Y-145536904D01*
X97097619Y-145489285D01*
X97050000Y-145441666D01*
X97002380Y-145346428D01*
X110069333Y-177395142D02*
X110021714Y-177442761D01*
X109878857Y-177490380D01*
X109783619Y-177490380D01*
X109640761Y-177442761D01*
X109545523Y-177347523D01*
X109497904Y-177252285D01*
X109450285Y-177061809D01*
X109450285Y-176918952D01*
X109497904Y-176728476D01*
X109545523Y-176633238D01*
X109640761Y-176538000D01*
X109783619Y-176490380D01*
X109878857Y-176490380D01*
X110021714Y-176538000D01*
X110069333Y-176585619D01*
X110402666Y-176490380D02*
X111069333Y-176490380D01*
X110640761Y-177490380D01*
D16*
X75864714Y-157326047D02*
X75864714Y-158187833D01*
X75807261Y-158360190D01*
X75692357Y-158475095D01*
X75519999Y-158532547D01*
X75405095Y-158532547D01*
X76496690Y-158532547D02*
X76726499Y-158532547D01*
X76841404Y-158475095D01*
X76898857Y-158417642D01*
X77013761Y-158245285D01*
X77071214Y-158015476D01*
X77071214Y-157555857D01*
X77013761Y-157440952D01*
X76956309Y-157383500D01*
X76841404Y-157326047D01*
X76611595Y-157326047D01*
X76496690Y-157383500D01*
X76439238Y-157440952D01*
X76381785Y-157555857D01*
X76381785Y-157843119D01*
X76439238Y-157958023D01*
X76496690Y-158015476D01*
X76611595Y-158072928D01*
X76841404Y-158072928D01*
X76956309Y-158015476D01*
X77013761Y-157958023D01*
X77071214Y-157843119D01*
D12*
X93051333Y-151836380D02*
X92718000Y-151360190D01*
X92479904Y-151836380D02*
X92479904Y-150836380D01*
X92860857Y-150836380D01*
X92956095Y-150884000D01*
X93003714Y-150931619D01*
X93051333Y-151026857D01*
X93051333Y-151169714D01*
X93003714Y-151264952D01*
X92956095Y-151312571D01*
X92860857Y-151360190D01*
X92479904Y-151360190D01*
X93908476Y-150836380D02*
X93718000Y-150836380D01*
X93622761Y-150884000D01*
X93575142Y-150931619D01*
X93479904Y-151074476D01*
X93432285Y-151264952D01*
X93432285Y-151645904D01*
X93479904Y-151741142D01*
X93527523Y-151788761D01*
X93622761Y-151836380D01*
X93813238Y-151836380D01*
X93908476Y-151788761D01*
X93956095Y-151741142D01*
X94003714Y-151645904D01*
X94003714Y-151407809D01*
X93956095Y-151312571D01*
X93908476Y-151264952D01*
X93813238Y-151217333D01*
X93622761Y-151217333D01*
X93527523Y-151264952D01*
X93479904Y-151312571D01*
X93432285Y-151407809D01*
X105822952Y-162520380D02*
X106156285Y-163520380D01*
X106489619Y-162520380D01*
X106822952Y-163520380D02*
X106822952Y-162520380D01*
X107299142Y-163520380D02*
X107299142Y-162520380D01*
X107870571Y-163520380D01*
X107870571Y-162520380D01*
X108346761Y-163520380D02*
X108346761Y-162520380D01*
X108918190Y-163520380D01*
X108918190Y-162520380D01*
X100322285Y-174204380D02*
X99846095Y-174204380D01*
X99798476Y-174680571D01*
X99846095Y-174632952D01*
X99941333Y-174585333D01*
X100179428Y-174585333D01*
X100274666Y-174632952D01*
X100322285Y-174680571D01*
X100369904Y-174775809D01*
X100369904Y-175013904D01*
X100322285Y-175109142D01*
X100274666Y-175156761D01*
X100179428Y-175204380D01*
X99941333Y-175204380D01*
X99846095Y-175156761D01*
X99798476Y-175109142D01*
X100655619Y-174204380D02*
X100988952Y-175204380D01*
X101322285Y-174204380D01*
X101941333Y-175585333D02*
X101893714Y-175537714D01*
X101798476Y-175394857D01*
X101750857Y-175299619D01*
X101703238Y-175156761D01*
X101655619Y-174918666D01*
X101655619Y-174728190D01*
X101703238Y-174490095D01*
X101750857Y-174347238D01*
X101798476Y-174252000D01*
X101893714Y-174109142D01*
X101941333Y-174061523D01*
X102274666Y-174918666D02*
X102750857Y-174918666D01*
X102179428Y-175204380D02*
X102512761Y-174204380D01*
X102846095Y-175204380D01*
X103750857Y-175109142D02*
X103703238Y-175156761D01*
X103560380Y-175204380D01*
X103465142Y-175204380D01*
X103322285Y-175156761D01*
X103227047Y-175061523D01*
X103179428Y-174966285D01*
X103131809Y-174775809D01*
X103131809Y-174632952D01*
X103179428Y-174442476D01*
X103227047Y-174347238D01*
X103322285Y-174252000D01*
X103465142Y-174204380D01*
X103560380Y-174204380D01*
X103703238Y-174252000D01*
X103750857Y-174299619D01*
X104084190Y-175585333D02*
X104131809Y-175537714D01*
X104227047Y-175394857D01*
X104274666Y-175299619D01*
X104322285Y-175156761D01*
X104369904Y-174918666D01*
X104369904Y-174728190D01*
X104322285Y-174490095D01*
X104274666Y-174347238D01*
X104227047Y-174252000D01*
X104131809Y-174109142D01*
X104084190Y-174061523D01*
X102102380Y-166375000D02*
X101981428Y-166314523D01*
X101800000Y-166314523D01*
X101618571Y-166375000D01*
X101497619Y-166495952D01*
X101437142Y-166616904D01*
X101376666Y-166858809D01*
X101376666Y-167040238D01*
X101437142Y-167282142D01*
X101497619Y-167403095D01*
X101618571Y-167524047D01*
X101800000Y-167584523D01*
X101920952Y-167584523D01*
X102102380Y-167524047D01*
X102162857Y-167463571D01*
X102162857Y-167040238D01*
X101920952Y-167040238D01*
X102707142Y-167584523D02*
X102707142Y-166314523D01*
X103432857Y-167584523D01*
X103432857Y-166314523D01*
X104037619Y-167584523D02*
X104037619Y-166314523D01*
X104340000Y-166314523D01*
X104521428Y-166375000D01*
X104642380Y-166495952D01*
X104702857Y-166616904D01*
X104763333Y-166858809D01*
X104763333Y-167040238D01*
X104702857Y-167282142D01*
X104642380Y-167403095D01*
X104521428Y-167524047D01*
X104340000Y-167584523D01*
X104037619Y-167584523D01*
X101020761Y-162520380D02*
X101354095Y-163520380D01*
X101687428Y-162520380D01*
X102020761Y-163520380D02*
X102020761Y-162520380D01*
X102496952Y-163520380D02*
X102496952Y-162520380D01*
X103068380Y-163520380D01*
X103068380Y-162520380D01*
X103544571Y-163520380D02*
X103544571Y-162520380D01*
X103925523Y-162520380D01*
X104020761Y-162568000D01*
X104068380Y-162615619D01*
X104116000Y-162710857D01*
X104116000Y-162853714D01*
X104068380Y-162948952D01*
X104020761Y-162996571D01*
X103925523Y-163044190D01*
X103544571Y-163044190D01*
D10*
X88168100Y-122311800D02*
X88168100Y-128611800D01*
X88168100Y-128611800D02*
X87168100Y-128611800D01*
X88168100Y-122311800D02*
X87268100Y-122311800D01*
X87168100Y-128611800D02*
X87168100Y-122311800D01*
X87168100Y-122311800D02*
X87268100Y-122311800D01*
X80510000Y-128624500D02*
X80410000Y-128624500D01*
X79510000Y-128624500D02*
X80410000Y-128624500D01*
X80510000Y-122324500D02*
X80510000Y-128624500D01*
X79510000Y-128624500D02*
X79510000Y-122324500D01*
X79510000Y-122324500D02*
X80510000Y-122324500D01*
X105840000Y-157602064D02*
X105840000Y-156397936D01*
X107660000Y-157602064D02*
X107660000Y-156397936D01*
X109921000Y-145573000D02*
X120079000Y-145573000D01*
X111653000Y-141852000D02*
X118347000Y-141852000D01*
X113258000Y-140892000D02*
X116742000Y-140892000D01*
X111699000Y-141812000D02*
X118301000Y-141812000D01*
X116241000Y-144292000D02*
X119885000Y-144292000D01*
X109925000Y-145453000D02*
X120075000Y-145453000D01*
X111844000Y-141692000D02*
X118156000Y-141692000D01*
X116241000Y-142732000D02*
X119138000Y-142732000D01*
X116241000Y-143932000D02*
X119768000Y-143932000D01*
X110455000Y-143412000D02*
X113759000Y-143412000D01*
X110862000Y-142732000D02*
X113759000Y-142732000D01*
X116241000Y-142172000D02*
X118679000Y-142172000D01*
X112055000Y-141532000D02*
X117945000Y-141532000D01*
X113622000Y-140772000D02*
X116378000Y-140772000D01*
X111075000Y-142452000D02*
X113759000Y-142452000D01*
X116241000Y-142972000D02*
X119298000Y-142972000D01*
X110053000Y-144532000D02*
X119947000Y-144532000D01*
X116241000Y-142692000D02*
X119110000Y-142692000D01*
X109923000Y-145493000D02*
X120077000Y-145493000D01*
X110326000Y-143692000D02*
X113759000Y-143692000D01*
X113770000Y-140732000D02*
X116230000Y-140732000D01*
X116241000Y-142892000D02*
X119247000Y-142892000D01*
X110010000Y-144732000D02*
X119990000Y-144732000D01*
X111608000Y-141892000D02*
X118392000Y-141892000D01*
X116241000Y-144212000D02*
X119862000Y-144212000D01*
X110950000Y-142612000D02*
X113759000Y-142612000D01*
X109930000Y-145373000D02*
X120070000Y-145373000D01*
X112230000Y-141412000D02*
X117770000Y-141412000D01*
X116241000Y-143012000D02*
X119323000Y-143012000D01*
X110262000Y-143852000D02*
X113759000Y-143852000D01*
X116241000Y-144172000D02*
X119850000Y-144172000D01*
X110026000Y-144652000D02*
X119974000Y-144652000D01*
X116241000Y-143572000D02*
X119621000Y-143572000D01*
X116241000Y-144052000D02*
X119811000Y-144052000D01*
X116241000Y-143212000D02*
X119440000Y-143212000D01*
X110246000Y-143892000D02*
X113759000Y-143892000D01*
X113056000Y-140972000D02*
X116944000Y-140972000D01*
X113490000Y-140812000D02*
X116510000Y-140812000D01*
X109965000Y-145013000D02*
X120035000Y-145013000D01*
X110653000Y-143052000D02*
X113759000Y-143052000D01*
X110397000Y-143532000D02*
X113759000Y-143532000D01*
X116241000Y-142292000D02*
X118789000Y-142292000D01*
X116241000Y-144132000D02*
X119837000Y-144132000D01*
X111894000Y-141652000D02*
X118106000Y-141652000D01*
X110475000Y-143372000D02*
X113759000Y-143372000D01*
X110176000Y-144092000D02*
X113759000Y-144092000D01*
X110834000Y-142772000D02*
X113759000Y-142772000D01*
X109932000Y-145333000D02*
X120068000Y-145333000D01*
X116241000Y-142652000D02*
X119080000Y-142652000D01*
X116241000Y-142092000D02*
X118601000Y-142092000D01*
X116241000Y-142132000D02*
X118640000Y-142132000D01*
X116241000Y-141972000D02*
X118478000Y-141972000D01*
X116241000Y-143812000D02*
X119723000Y-143812000D01*
X110560000Y-143212000D02*
X113759000Y-143212000D01*
X111439000Y-142052000D02*
X113759000Y-142052000D01*
X111108000Y-142412000D02*
X113759000Y-142412000D01*
X110062000Y-144492000D02*
X119938000Y-144492000D01*
X110583000Y-143172000D02*
X113759000Y-143172000D01*
X113938000Y-140692000D02*
X116062000Y-140692000D01*
X110727000Y-142932000D02*
X113759000Y-142932000D01*
X109946000Y-145173000D02*
X120054000Y-145173000D01*
X110217000Y-143972000D02*
X113759000Y-143972000D01*
X110093000Y-144372000D02*
X113759000Y-144372000D01*
X110203000Y-144012000D02*
X113759000Y-144012000D01*
X116241000Y-143732000D02*
X119690000Y-143732000D01*
X109920000Y-145613000D02*
X120080000Y-145613000D01*
X116241000Y-143132000D02*
X119395000Y-143132000D01*
X116241000Y-144412000D02*
X119918000Y-144412000D01*
X111522000Y-141972000D02*
X113759000Y-141972000D01*
X112791000Y-141092000D02*
X117209000Y-141092000D01*
X109942000Y-145213000D02*
X120058000Y-145213000D01*
X109955000Y-145093000D02*
X120045000Y-145093000D01*
X112635000Y-141172000D02*
X117365000Y-141172000D01*
X111043000Y-142492000D02*
X113759000Y-142492000D01*
X111625000Y-150672646D02*
X112625000Y-150672646D01*
X110293000Y-143772000D02*
X113759000Y-143772000D01*
X113154000Y-140932000D02*
X116846000Y-140932000D01*
X116241000Y-143332000D02*
X119504000Y-143332000D01*
X112111000Y-141492000D02*
X117889000Y-141492000D01*
X110126000Y-144252000D02*
X113759000Y-144252000D01*
X110277000Y-143812000D02*
X113759000Y-143812000D01*
X109920000Y-145653000D02*
X120080000Y-145653000D01*
X112000000Y-141572000D02*
X118000000Y-141572000D01*
X116241000Y-142852000D02*
X119221000Y-142852000D01*
X110003000Y-144772000D02*
X119997000Y-144772000D01*
X110103000Y-144332000D02*
X113759000Y-144332000D01*
X110753000Y-142892000D02*
X113759000Y-142892000D01*
X110115000Y-144292000D02*
X113759000Y-144292000D01*
X110035000Y-144612000D02*
X119965000Y-144612000D01*
X110138000Y-144212000D02*
X113759000Y-144212000D01*
X116241000Y-143252000D02*
X119462000Y-143252000D01*
X110677000Y-143012000D02*
X113759000Y-143012000D01*
X110343000Y-143652000D02*
X113759000Y-143652000D01*
X109920000Y-145693000D02*
X120080000Y-145693000D01*
X110072000Y-144452000D02*
X119928000Y-144452000D01*
X110538000Y-143252000D02*
X113759000Y-143252000D01*
X114138000Y-140652000D02*
X115862000Y-140652000D01*
X111946000Y-141612000D02*
X118054000Y-141612000D01*
X116241000Y-142372000D02*
X118858000Y-142372000D01*
X114401000Y-140612000D02*
X115599000Y-140612000D01*
X111211000Y-142292000D02*
X113759000Y-142292000D01*
X116241000Y-142052000D02*
X118561000Y-142052000D01*
X116241000Y-143172000D02*
X119417000Y-143172000D01*
X109960000Y-145053000D02*
X120040000Y-145053000D01*
X116241000Y-143292000D02*
X119483000Y-143292000D01*
X109927000Y-145413000D02*
X120073000Y-145413000D01*
X109989000Y-144852000D02*
X120011000Y-144852000D01*
X110163000Y-144132000D02*
X113759000Y-144132000D01*
X116241000Y-142532000D02*
X118989000Y-142532000D01*
X116241000Y-143052000D02*
X119347000Y-143052000D01*
X116241000Y-142252000D02*
X118753000Y-142252000D01*
X110779000Y-142852000D02*
X113759000Y-142852000D01*
X111321000Y-142172000D02*
X113759000Y-142172000D01*
X116241000Y-142932000D02*
X119273000Y-142932000D01*
X110310000Y-143732000D02*
X113759000Y-143732000D01*
X116241000Y-142412000D02*
X118892000Y-142412000D01*
X109950000Y-145133000D02*
X120050000Y-145133000D01*
X112291000Y-141372000D02*
X117709000Y-141372000D01*
X116241000Y-143092000D02*
X119371000Y-143092000D01*
X111247000Y-142252000D02*
X113759000Y-142252000D01*
X110044000Y-144572000D02*
X119956000Y-144572000D01*
X116241000Y-143412000D02*
X119545000Y-143412000D01*
X111480000Y-142012000D02*
X113759000Y-142012000D01*
X109996000Y-144812000D02*
X120004000Y-144812000D01*
X116241000Y-142612000D02*
X119050000Y-142612000D01*
X109922000Y-145533000D02*
X120078000Y-145533000D01*
X112421000Y-141292000D02*
X117579000Y-141292000D01*
X116241000Y-142212000D02*
X118716000Y-142212000D01*
X110890000Y-142692000D02*
X113759000Y-142692000D01*
X111399000Y-142092000D02*
X113759000Y-142092000D01*
X109982000Y-144892000D02*
X120018000Y-144892000D01*
X110496000Y-143332000D02*
X113759000Y-143332000D01*
X111564000Y-141932000D02*
X118436000Y-141932000D01*
X112490000Y-141252000D02*
X117510000Y-141252000D01*
X110018000Y-144692000D02*
X119982000Y-144692000D01*
X111746000Y-141772000D02*
X118254000Y-141772000D01*
X110082000Y-144412000D02*
X113759000Y-144412000D01*
X116241000Y-143972000D02*
X119783000Y-143972000D01*
X116241000Y-143452000D02*
X119564000Y-143452000D01*
X112963000Y-141012000D02*
X117037000Y-141012000D01*
X109938000Y-145253000D02*
X120062000Y-145253000D01*
X110189000Y-144052000D02*
X113759000Y-144052000D01*
X110980000Y-142572000D02*
X113759000Y-142572000D01*
X116241000Y-143772000D02*
X119707000Y-143772000D01*
X110920000Y-142652000D02*
X113759000Y-142652000D01*
X110605000Y-143132000D02*
X113759000Y-143132000D01*
X111794000Y-141732000D02*
X118206000Y-141732000D01*
X111284000Y-142212000D02*
X113759000Y-142212000D01*
X110232000Y-143932000D02*
X113759000Y-143932000D01*
X116241000Y-143892000D02*
X119754000Y-143892000D01*
X116241000Y-143612000D02*
X119639000Y-143612000D01*
X111360000Y-142132000D02*
X113759000Y-142132000D01*
X116241000Y-143372000D02*
X119525000Y-143372000D01*
X111011000Y-142532000D02*
X113759000Y-142532000D01*
X109970000Y-144972000D02*
X120030000Y-144972000D01*
X116241000Y-142492000D02*
X118957000Y-142492000D01*
X109976000Y-144932000D02*
X120024000Y-144932000D01*
X110416000Y-143492000D02*
X113759000Y-143492000D01*
X116241000Y-142772000D02*
X119166000Y-142772000D01*
X110361000Y-143612000D02*
X113759000Y-143612000D01*
X112125000Y-151172646D02*
X112125000Y-150172646D01*
X109935000Y-145293000D02*
X120065000Y-145293000D01*
X112561000Y-141212000D02*
X117439000Y-141212000D01*
X110629000Y-143092000D02*
X113759000Y-143092000D01*
X110517000Y-143292000D02*
X113759000Y-143292000D01*
X116241000Y-142812000D02*
X119194000Y-142812000D01*
X110806000Y-142812000D02*
X113759000Y-142812000D01*
X116241000Y-144012000D02*
X119797000Y-144012000D01*
X112711000Y-141132000D02*
X117289000Y-141132000D01*
X116241000Y-143692000D02*
X119674000Y-143692000D01*
X116241000Y-142012000D02*
X118520000Y-142012000D01*
X112355000Y-141332000D02*
X117645000Y-141332000D01*
X116241000Y-142452000D02*
X118925000Y-142452000D01*
X110436000Y-143452000D02*
X113759000Y-143452000D01*
X116241000Y-143532000D02*
X119603000Y-143532000D01*
X116241000Y-143852000D02*
X119738000Y-143852000D01*
X116241000Y-144372000D02*
X119907000Y-144372000D01*
X116241000Y-144252000D02*
X119874000Y-144252000D01*
X116241000Y-142332000D02*
X118824000Y-142332000D01*
X116241000Y-144332000D02*
X119897000Y-144332000D01*
X116241000Y-144092000D02*
X119824000Y-144092000D01*
X116241000Y-143492000D02*
X119584000Y-143492000D01*
X110150000Y-144172000D02*
X113759000Y-144172000D01*
X110702000Y-142972000D02*
X113759000Y-142972000D01*
X110379000Y-143572000D02*
X113759000Y-143572000D01*
X112875000Y-141052000D02*
X117125000Y-141052000D01*
X111142000Y-142372000D02*
X113759000Y-142372000D01*
X116241000Y-143652000D02*
X119657000Y-143652000D01*
X116241000Y-142572000D02*
X119020000Y-142572000D01*
X113370000Y-140852000D02*
X116630000Y-140852000D01*
X112170000Y-141452000D02*
X117830000Y-141452000D01*
X111176000Y-142332000D02*
X113759000Y-142332000D01*
X120120000Y-145693000D02*
G75*
G03*
X120120000Y-145693000I-5120000J0D01*
G01*
D12*
X116300000Y-139950000D02*
X123300000Y-139950000D01*
X116300000Y-134250000D02*
X123300000Y-134250000D01*
X123300000Y-134250000D02*
X123300000Y-139950000D01*
X116300000Y-134250000D02*
X116300000Y-139950000D01*
D10*
X119355000Y-124765000D02*
X119355000Y-123865000D01*
X119355000Y-124765000D02*
X113055000Y-124765000D01*
X113055000Y-123765000D02*
X119355000Y-123765000D01*
X113055000Y-124765000D02*
X113055000Y-123765000D01*
X119355000Y-123765000D02*
X119355000Y-123865000D01*
X92790000Y-146011252D02*
X92790000Y-145488748D01*
X94210000Y-146011252D02*
X94210000Y-145488748D01*
X103660000Y-157589564D02*
X103660000Y-156385436D01*
X101840000Y-157589564D02*
X101840000Y-156385436D01*
X105840000Y-151852064D02*
X105840000Y-150647936D01*
X107660000Y-151852064D02*
X107660000Y-150647936D01*
X97290000Y-122515000D02*
X97390000Y-122515000D01*
X97290000Y-128815000D02*
X97290000Y-122515000D01*
X98290000Y-122515000D02*
X98290000Y-128815000D01*
X98290000Y-122515000D02*
X97390000Y-122515000D01*
X98290000Y-128815000D02*
X97290000Y-128815000D01*
X124510000Y-177530000D02*
X120890000Y-177530000D01*
X113390000Y-170560000D02*
X113390000Y-151440000D01*
X120890000Y-149940000D02*
X120890000Y-142410000D01*
X120890000Y-177530000D02*
X120890000Y-172060000D01*
X124510000Y-142410000D02*
X124510000Y-177530000D01*
X113390000Y-151440000D02*
X119390000Y-151440000D01*
X119390000Y-170560000D02*
X113390000Y-170560000D01*
X119390000Y-151440000D02*
X120890000Y-149940000D01*
X120890000Y-142410000D02*
X124510000Y-142410000D01*
X120890000Y-172060000D02*
X119390000Y-170560000D01*
X95011252Y-148290000D02*
X94488748Y-148290000D01*
X95011252Y-149710000D02*
X94488748Y-149710000D01*
X90540000Y-143513748D02*
X90540000Y-144036252D01*
X91960000Y-143513748D02*
X91960000Y-144036252D01*
X113250000Y-186350000D02*
X113250000Y-184650000D01*
X113250000Y-186350000D02*
X110100000Y-186350000D01*
X113250000Y-184650000D02*
X110100000Y-184650000D01*
X104954000Y-176014748D02*
X104954000Y-176537252D01*
X106374000Y-176014748D02*
X106374000Y-176537252D01*
X113250000Y-184200000D02*
X110100000Y-184200000D01*
X113250000Y-184200000D02*
X113250000Y-182500000D01*
X113250000Y-182500000D02*
X110100000Y-182500000D01*
X89118000Y-132483000D02*
X88863000Y-132483000D01*
X88863000Y-132483000D02*
X88863000Y-130668000D01*
X78598000Y-140203000D02*
X78853000Y-140203000D01*
X78598000Y-136343000D02*
X78598000Y-140203000D01*
X89118000Y-136343000D02*
X89118000Y-132483000D01*
X78598000Y-136343000D02*
X78598000Y-132483000D01*
X89118000Y-140203000D02*
X88863000Y-140203000D01*
X78598000Y-132483000D02*
X78853000Y-132483000D01*
X89118000Y-136343000D02*
X89118000Y-140203000D01*
X69488748Y-140460000D02*
X70011252Y-140460000D01*
X69488748Y-139040000D02*
X70011252Y-139040000D01*
D12*
X92710000Y-183134000D02*
X92710000Y-188214000D01*
X83820000Y-162814000D02*
X86995000Y-162814000D01*
X97790000Y-188214000D02*
X80010000Y-188214000D01*
X90170000Y-160274000D02*
X87630000Y-160274000D01*
X93980000Y-165989000D02*
X83820000Y-165989000D01*
X85090000Y-189484000D02*
X85090000Y-188214000D01*
X87630000Y-160274000D02*
X87630000Y-155702000D01*
X83820000Y-176149000D02*
X93980000Y-176149000D01*
X86995000Y-165354000D02*
X83820000Y-165354000D01*
X80010000Y-152654000D02*
X97790000Y-152654000D01*
X92710000Y-189484000D02*
X85090000Y-189484000D01*
X93980000Y-165989000D02*
X93980000Y-176149000D01*
X90170000Y-155702000D02*
X90170000Y-160274000D01*
X83820000Y-165989000D02*
X83820000Y-176149000D01*
X83820000Y-165354000D02*
X83820000Y-162814000D01*
X80010000Y-188214000D02*
X80010000Y-152654000D01*
X92710000Y-183134000D02*
X85090000Y-183134000D01*
X86995000Y-162814000D02*
X86995000Y-165354000D01*
X97790000Y-152654000D02*
X97790000Y-188214000D01*
X92710000Y-188214000D02*
X92710000Y-189484000D01*
X85090000Y-183134000D02*
X85090000Y-188214000D01*
X87630000Y-155702000D02*
X90170000Y-155702000D01*
D17*
X88773000Y-173228000D02*
X88519000Y-172974000D01*
X88519000Y-172974000D02*
X88900000Y-172720000D01*
X88900000Y-172720000D02*
X89154000Y-172974000D01*
X89154000Y-172974000D02*
X88773000Y-173228000D01*
G36*
X89154000Y-172974000D02*
G01*
X88773000Y-173228000D01*
X88519000Y-172974000D01*
X88900000Y-172720000D01*
X89154000Y-172974000D01*
G37*
X89154000Y-172974000D02*
X88773000Y-173228000D01*
X88519000Y-172974000D01*
X88900000Y-172720000D01*
X89154000Y-172974000D01*
X88265000Y-173609000D02*
X88011000Y-173355000D01*
X88011000Y-173355000D02*
X88392000Y-173101000D01*
X88392000Y-173101000D02*
X88646000Y-173355000D01*
X88646000Y-173355000D02*
X88265000Y-173609000D01*
G36*
X88646000Y-173355000D02*
G01*
X88265000Y-173609000D01*
X88011000Y-173355000D01*
X88392000Y-173101000D01*
X88646000Y-173355000D01*
G37*
X88646000Y-173355000D02*
X88265000Y-173609000D01*
X88011000Y-173355000D01*
X88392000Y-173101000D01*
X88646000Y-173355000D01*
X88646000Y-173990000D02*
X88392000Y-173736000D01*
X88392000Y-173736000D02*
X88773000Y-173482000D01*
X88773000Y-173482000D02*
X89027000Y-173736000D01*
X89027000Y-173736000D02*
X88646000Y-173990000D01*
G36*
X89027000Y-173736000D02*
G01*
X88646000Y-173990000D01*
X88392000Y-173736000D01*
X88773000Y-173482000D01*
X89027000Y-173736000D01*
G37*
X89027000Y-173736000D02*
X88646000Y-173990000D01*
X88392000Y-173736000D01*
X88773000Y-173482000D01*
X89027000Y-173736000D01*
X88392000Y-172847000D02*
X88138000Y-172593000D01*
X88138000Y-172593000D02*
X88519000Y-172339000D01*
X88519000Y-172339000D02*
X88773000Y-172593000D01*
X88773000Y-172593000D02*
X88392000Y-172847000D01*
G36*
X88773000Y-172593000D02*
G01*
X88392000Y-172847000D01*
X88138000Y-172593000D01*
X88519000Y-172339000D01*
X88773000Y-172593000D01*
G37*
X88773000Y-172593000D02*
X88392000Y-172847000D01*
X88138000Y-172593000D01*
X88519000Y-172339000D01*
X88773000Y-172593000D01*
X89027000Y-174371000D02*
X88773000Y-174117000D01*
X88773000Y-174117000D02*
X89154000Y-173863000D01*
X89154000Y-173863000D02*
X89408000Y-174117000D01*
X89408000Y-174117000D02*
X89027000Y-174371000D01*
G36*
X89408000Y-174117000D02*
G01*
X89027000Y-174371000D01*
X88773000Y-174117000D01*
X89154000Y-173863000D01*
X89408000Y-174117000D01*
G37*
X89408000Y-174117000D02*
X89027000Y-174371000D01*
X88773000Y-174117000D01*
X89154000Y-173863000D01*
X89408000Y-174117000D01*
X89408000Y-172085000D02*
X89154000Y-171831000D01*
X89154000Y-171831000D02*
X89535000Y-171577000D01*
X89535000Y-171577000D02*
X89789000Y-171831000D01*
X89789000Y-171831000D02*
X89408000Y-172085000D01*
G36*
X89789000Y-171831000D02*
G01*
X89408000Y-172085000D01*
X89154000Y-171831000D01*
X89535000Y-171577000D01*
X89789000Y-171831000D01*
G37*
X89789000Y-171831000D02*
X89408000Y-172085000D01*
X89154000Y-171831000D01*
X89535000Y-171577000D01*
X89789000Y-171831000D01*
X89281000Y-172847000D02*
X89027000Y-172593000D01*
X89027000Y-172593000D02*
X89408000Y-172339000D01*
X89408000Y-172339000D02*
X89662000Y-172593000D01*
X89662000Y-172593000D02*
X89281000Y-172847000D01*
G36*
X89662000Y-172593000D02*
G01*
X89281000Y-172847000D01*
X89027000Y-172593000D01*
X89408000Y-172339000D01*
X89662000Y-172593000D01*
G37*
X89662000Y-172593000D02*
X89281000Y-172847000D01*
X89027000Y-172593000D01*
X89408000Y-172339000D01*
X89662000Y-172593000D01*
X88900000Y-172466000D02*
X88646000Y-172212000D01*
X88646000Y-172212000D02*
X89027000Y-171958000D01*
X89027000Y-171958000D02*
X89281000Y-172212000D01*
X89281000Y-172212000D02*
X88900000Y-172466000D01*
G36*
X89281000Y-172212000D02*
G01*
X88900000Y-172466000D01*
X88646000Y-172212000D01*
X89027000Y-171958000D01*
X89281000Y-172212000D01*
G37*
X89281000Y-172212000D02*
X88900000Y-172466000D01*
X88646000Y-172212000D01*
X89027000Y-171958000D01*
X89281000Y-172212000D01*
D10*
X88560000Y-147500000D02*
X88560000Y-149450000D01*
X88560000Y-147500000D02*
X88560000Y-145550000D01*
X78440000Y-147500000D02*
X78440000Y-145550000D01*
X78440000Y-147500000D02*
X78440000Y-150950000D01*
X109750000Y-121088000D02*
X100750000Y-121088000D01*
X100750000Y-121088000D02*
X100750000Y-144088000D01*
X100750000Y-144088000D02*
X109750000Y-144088000D01*
X109750000Y-144088000D02*
X109750000Y-121088000D01*
X77510000Y-147000000D02*
X77510000Y-150860000D01*
X77510000Y-147000000D02*
X77510000Y-143140000D01*
X66990000Y-150860000D02*
X67245000Y-150860000D01*
X66990000Y-143140000D02*
X67245000Y-143140000D01*
X67245000Y-150860000D02*
X67245000Y-152675000D01*
X77510000Y-143140000D02*
X77255000Y-143140000D01*
X66990000Y-147000000D02*
X66990000Y-150860000D01*
X66990000Y-147000000D02*
X66990000Y-143140000D01*
X77510000Y-150860000D02*
X77255000Y-150860000D01*
X68488748Y-153540000D02*
X69011252Y-153540000D01*
X68488748Y-154960000D02*
X69011252Y-154960000D01*
X106973006Y-174232738D02*
X106973006Y-174476997D01*
X106973006Y-171023003D02*
X106973006Y-171267262D01*
X106161007Y-172750000D02*
X105399007Y-172750000D01*
X106973006Y-174476997D02*
X113526994Y-174476997D01*
X105780007Y-172369000D02*
X105780007Y-173131000D01*
X113526994Y-171267262D02*
X113526994Y-171023003D01*
X113526994Y-174476997D02*
X113526994Y-174232738D01*
X113526994Y-171023003D02*
X106973006Y-171023003D01*
X101840000Y-151852064D02*
X101840000Y-150647936D01*
X103660000Y-151852064D02*
X103660000Y-150647936D01*
X96460000Y-146011252D02*
X96460000Y-145488748D01*
X95040000Y-146011252D02*
X95040000Y-145488748D01*
X106723006Y-181476997D02*
X113276994Y-181476997D01*
X113276994Y-181476997D02*
X113276994Y-181232738D01*
X106723006Y-178023003D02*
X106723006Y-178267262D01*
X105530007Y-179369000D02*
X105530007Y-180131000D01*
X113276994Y-178023003D02*
X106723006Y-178023003D01*
X105911007Y-179750000D02*
X105149007Y-179750000D01*
X113276994Y-178267262D02*
X113276994Y-178023003D01*
X106723006Y-181232738D02*
X106723006Y-181476997D01*
D18*
X74720000Y-166920000D02*
X74720000Y-168420000D01*
X71520000Y-161920000D02*
X71520000Y-162720000D01*
X74720000Y-164920000D02*
X74720000Y-165720000D01*
X74720000Y-162920000D02*
X74720000Y-163720000D01*
X74720000Y-160920000D02*
X74720000Y-161720000D01*
X74720000Y-159720000D02*
X74720000Y-157920000D01*
X74020000Y-157220000D02*
X71520000Y-157220000D01*
X71520000Y-159920000D02*
X71520000Y-160720000D01*
X71520000Y-168420000D02*
X71520000Y-165920000D01*
X71520000Y-157220000D02*
X71520000Y-158720000D01*
X74720000Y-168420000D02*
X71520000Y-168420000D01*
X74020000Y-157220000D02*
X74720000Y-157920000D01*
X71520000Y-163920000D02*
X71520000Y-164720000D01*
X71220000Y-158520000D02*
G75*
G03*
X71220000Y-158520000I-100000J0D01*
G01*
D10*
X90245276Y-152022500D02*
X90754724Y-152022500D01*
X90245276Y-150977500D02*
X90754724Y-150977500D01*
X107630000Y-160782000D02*
G75*
G03*
X107630000Y-160782000I-950000J0D01*
G01*
X103820000Y-172720000D02*
G75*
G03*
X103820000Y-172720000I-950000J0D01*
G01*
X103566000Y-160782000D02*
G75*
G03*
X103566000Y-160782000I-950000J0D01*
G01*
%LPC*%
D19*
X117300000Y-175000000D03*
X74300000Y-132000000D03*
X117300000Y-132000000D03*
X87668100Y-122986800D03*
X87668100Y-127936800D03*
X80010000Y-127949500D03*
X80010000Y-122999500D03*
D20*
X106750000Y-158487500D03*
X106750000Y-155512500D03*
D21*
X115000000Y-148193000D03*
D22*
X115000000Y-143193000D03*
D23*
X117300000Y-135600000D03*
X122300000Y-138600000D03*
D19*
X113730000Y-124265000D03*
X118680000Y-124265000D03*
D24*
X93500000Y-146775000D03*
X93500000Y-144725000D03*
D20*
X102750000Y-158475000D03*
X102750000Y-155500000D03*
X106750000Y-152737500D03*
X106750000Y-149762500D03*
D19*
X74300000Y-175000000D03*
X97790000Y-123190000D03*
X97790000Y-128140000D03*
D25*
X122700000Y-146000000D03*
D22*
X122700000Y-151080000D03*
X122700000Y-156160000D03*
X122700000Y-161240000D03*
X122700000Y-168860000D03*
X122700000Y-173940000D03*
D26*
X95775000Y-149000000D03*
X93725000Y-149000000D03*
D27*
X91250000Y-142750000D03*
X91250000Y-144800000D03*
D28*
X112600000Y-185500000D03*
X110100000Y-185500000D03*
D29*
X105664000Y-175251000D03*
X105664000Y-177301000D03*
D28*
X112600000Y-183350000D03*
X110100000Y-183350000D03*
D30*
X88303000Y-131693000D03*
X87033000Y-131693000D03*
X85763000Y-131693000D03*
X84493000Y-131693000D03*
X83223000Y-131693000D03*
X81953000Y-131693000D03*
X80683000Y-131693000D03*
X79413000Y-131693000D03*
X79413000Y-140993000D03*
X80683000Y-140993000D03*
X81953000Y-140993000D03*
X83223000Y-140993000D03*
X84493000Y-140993000D03*
X85763000Y-140993000D03*
X87033000Y-140993000D03*
X88303000Y-140993000D03*
D31*
X68725000Y-139750000D03*
X70775000Y-139750000D03*
D32*
X93980000Y-159004000D03*
X91440000Y-159004000D03*
X86360000Y-161544000D03*
X92990000Y-178734000D03*
X91440000Y-161544000D03*
X88900000Y-161544000D03*
X87910000Y-178734000D03*
X87560000Y-181744000D03*
X83820000Y-161544000D03*
X89180000Y-178734000D03*
X93980000Y-161544000D03*
X84100000Y-178734000D03*
X88900000Y-159004000D03*
X90450000Y-178734000D03*
X85370000Y-178734000D03*
X90100000Y-181744000D03*
X91720000Y-178734000D03*
X83820000Y-159004000D03*
X86640000Y-178734000D03*
X86360000Y-159004000D03*
D23*
X96520000Y-186944000D03*
X96520000Y-184404000D03*
X96520000Y-181864000D03*
X96520000Y-179324000D03*
X96520000Y-176784000D03*
X96520000Y-174244000D03*
X96520000Y-171704000D03*
X96520000Y-169164000D03*
X96520000Y-166624000D03*
X96520000Y-164084000D03*
X96520000Y-161544000D03*
X96520000Y-159004000D03*
X96520000Y-156464000D03*
X96520000Y-153924000D03*
X93980000Y-153924000D03*
X91440000Y-153924000D03*
X88900000Y-153924000D03*
X86360000Y-153924000D03*
X83820000Y-153924000D03*
X81280000Y-153924000D03*
X81280000Y-156464000D03*
X81280000Y-159004000D03*
X81280000Y-161544000D03*
X81280000Y-164084000D03*
X81280000Y-166624000D03*
X81280000Y-169164000D03*
X81280000Y-171704000D03*
X81280000Y-174244000D03*
X81280000Y-176784000D03*
X81280000Y-179324000D03*
X81280000Y-181864000D03*
X81280000Y-184404000D03*
X81280000Y-186944000D03*
X83820000Y-184404000D03*
D33*
X79055000Y-149975000D03*
X80325000Y-149975000D03*
X81595000Y-149975000D03*
X82865000Y-149975000D03*
X84135000Y-149975000D03*
X85405000Y-149975000D03*
X86675000Y-149975000D03*
X87945000Y-149975000D03*
X87945000Y-145025000D03*
X86675000Y-145025000D03*
X85405000Y-145025000D03*
X84135000Y-145025000D03*
X82865000Y-145025000D03*
X81595000Y-145025000D03*
X80325000Y-145025000D03*
X79055000Y-145025000D03*
D34*
X105250000Y-132588000D03*
D22*
X105250000Y-125088000D03*
X105250000Y-140088000D03*
D35*
X67805000Y-151650000D03*
X69075000Y-151650000D03*
X70345000Y-151650000D03*
X71615000Y-151650000D03*
X72885000Y-151650000D03*
X74155000Y-151650000D03*
X75425000Y-151650000D03*
X76695000Y-151650000D03*
X76695000Y-142350000D03*
X75425000Y-142350000D03*
X74155000Y-142350000D03*
X72885000Y-142350000D03*
X71615000Y-142350000D03*
X70345000Y-142350000D03*
X69075000Y-142350000D03*
X67805000Y-142350000D03*
D31*
X67725000Y-154250000D03*
X69775000Y-154250000D03*
D36*
X108227804Y-172750000D03*
X112272196Y-172750000D03*
D20*
X102750000Y-152737500D03*
X102750000Y-149762500D03*
D24*
X95750000Y-146775000D03*
X95750000Y-144725000D03*
D36*
X107977804Y-179750000D03*
X112022196Y-179750000D03*
D37*
X71270000Y-159320000D03*
X74970000Y-160320000D03*
X71270000Y-161320000D03*
X74970000Y-162320000D03*
X71270000Y-163320000D03*
X74970000Y-164320000D03*
X71270000Y-165320000D03*
X74970000Y-166320000D03*
D38*
X89587500Y-151500000D03*
X91412500Y-151500000D03*
D39*
X106680000Y-160782000D03*
X102870000Y-172720000D03*
D40*
X102870000Y-168910000D03*
D39*
X102616000Y-160782000D03*
M02*
