G04 #@! TF.GenerationSoftware,KiCad,Pcbnew,(6.0.1-0)*
G04 #@! TF.CreationDate,2022-03-11T16:57:29+01:00*
G04 #@! TF.ProjectId,PowerAnalyzer_ACS71020_V2,506f7765-7241-46e6-916c-797a65725f41,2.2*
G04 #@! TF.SameCoordinates,Original*
G04 #@! TF.FileFunction,Profile,NP*
%FSLAX46Y46*%
G04 Gerber Fmt 4.6, Leading zero omitted, Abs format (unit mm)*
G04 Created by KiCad (PCBNEW (6.0.1-0)) date 2022-03-11 16:57:29*
%MOMM*%
%LPD*%
G01*
G04 APERTURE LIST*
G04 #@! TA.AperFunction,Profile*
%ADD10C,0.050000*%
G04 #@! TD*
G04 APERTURE END LIST*
D10*
X115500000Y-188500000D02*
X115500000Y-183300000D01*
X121000000Y-177800000D02*
G75*
G03*
X115500000Y-183300000I1J-5500001D01*
G01*
X121000000Y-177800000D02*
X125000000Y-177800000D01*
X66548000Y-120650000D02*
X66548000Y-177800000D01*
X75946000Y-188500000D02*
X75946000Y-185000000D01*
X125000000Y-120650000D02*
X66548000Y-120650000D01*
X92113000Y-136105000D02*
G75*
G03*
X91478000Y-135470000I-634999J1D01*
G01*
X75728000Y-135470000D02*
G75*
G03*
X75728000Y-136740000I0J-635000D01*
G01*
X91478000Y-136740000D02*
G75*
G03*
X92113000Y-136105000I1J634999D01*
G01*
X91478000Y-135470000D02*
X75728000Y-135470000D01*
X91478000Y-136740000D02*
X75728000Y-136740000D01*
X75946000Y-188500000D02*
X115500000Y-188500000D01*
X89000000Y-147900000D02*
G75*
G03*
X89000000Y-147350000I0J275000D01*
G01*
X78000000Y-147900000D02*
X89000000Y-147900000D01*
X125000000Y-177800000D02*
X125000000Y-120650000D01*
X75946000Y-185000000D02*
X75946000Y-181864000D01*
X78000000Y-147350000D02*
G75*
G03*
X78000000Y-147900000I0J-275000D01*
G01*
X71882000Y-177800000D02*
X66548000Y-177800000D01*
X75946000Y-181864000D02*
G75*
G03*
X71882000Y-177800000I-4064000J0D01*
G01*
X78000000Y-147350000D02*
X89000000Y-147350000D01*
M02*
