G04 #@! TF.GenerationSoftware,KiCad,Pcbnew,(6.0.1-0)*
G04 #@! TF.CreationDate,2022-03-11T16:57:28+01:00*
G04 #@! TF.ProjectId,PowerAnalyzer_ACS71020_V2,506f7765-7241-46e6-916c-797a65725f41,2.2*
G04 #@! TF.SameCoordinates,Original*
G04 #@! TF.FileFunction,Paste,Top*
G04 #@! TF.FilePolarity,Positive*
%FSLAX46Y46*%
G04 Gerber Fmt 4.6, Leading zero omitted, Abs format (unit mm)*
G04 Created by KiCad (PCBNEW (6.0.1-0)) date 2022-03-11 16:57:28*
%MOMM*%
%LPD*%
G01*
G04 APERTURE LIST*
G04 Aperture macros list*
%AMRoundRect*
0 Rectangle with rounded corners*
0 $1 Rounding radius*
0 $2 $3 $4 $5 $6 $7 $8 $9 X,Y pos of 4 corners*
0 Add a 4 corners polygon primitive as box body*
4,1,4,$2,$3,$4,$5,$6,$7,$8,$9,$2,$3,0*
0 Add four circle primitives for the rounded corners*
1,1,$1+$1,$2,$3*
1,1,$1+$1,$4,$5*
1,1,$1+$1,$6,$7*
1,1,$1+$1,$8,$9*
0 Add four rect primitives between the rounded corners*
20,1,$1+$1,$2,$3,$4,$5,0*
20,1,$1+$1,$4,$5,$6,$7,0*
20,1,$1+$1,$6,$7,$8,$9,0*
20,1,$1+$1,$8,$9,$2,$3,0*%
G04 Aperture macros list end*
%ADD10RoundRect,0.250001X0.624999X-0.462499X0.624999X0.462499X-0.624999X0.462499X-0.624999X-0.462499X0*%
%ADD11RoundRect,0.249999X0.450001X-0.325001X0.450001X0.325001X-0.450001X0.325001X-0.450001X-0.325001X0*%
%ADD12RoundRect,0.249999X0.325001X0.450001X-0.325001X0.450001X-0.325001X-0.450001X0.325001X-0.450001X0*%
%ADD13RoundRect,0.250000X-0.450000X0.325000X-0.450000X-0.325000X0.450000X-0.325000X0.450000X0.325000X0*%
%ADD14R,1.000000X1.000000*%
%ADD15RoundRect,0.249999X-0.450001X0.325001X-0.450001X-0.325001X0.450001X-0.325001X0.450001X0.325001X0*%
%ADD16RoundRect,0.150000X-0.150000X0.875000X-0.150000X-0.875000X0.150000X-0.875000X0.150000X0.875000X0*%
%ADD17RoundRect,0.249999X-0.325001X-0.450001X0.325001X-0.450001X0.325001X0.450001X-0.325001X0.450001X0*%
%ADD18R,1.000000X2.000000*%
%ADD19RoundRect,0.150000X0.150000X-0.825000X0.150000X0.825000X-0.150000X0.825000X-0.150000X-0.825000X0*%
%ADD20RoundRect,0.150000X0.150000X-0.875000X0.150000X0.875000X-0.150000X0.875000X-0.150000X-0.875000X0*%
%ADD21R,2.560396X2.299995*%
%ADD22R,1.700000X0.600000*%
%ADD23RoundRect,0.237500X-0.250000X-0.237500X0.250000X-0.237500X0.250000X0.237500X-0.250000X0.237500X0*%
G04 APERTURE END LIST*
D10*
X106750000Y-158487500D03*
X106750000Y-155512500D03*
D11*
X93500000Y-146775000D03*
X93500000Y-144725000D03*
D10*
X102750000Y-158475000D03*
X102750000Y-155500000D03*
X106750000Y-152737500D03*
X106750000Y-149762500D03*
D12*
X95775000Y-149000000D03*
X93725000Y-149000000D03*
D13*
X91250000Y-142750000D03*
X91250000Y-144800000D03*
D14*
X112600000Y-185500000D03*
X110100000Y-185500000D03*
D15*
X105664000Y-175251000D03*
X105664000Y-177301000D03*
D14*
X112600000Y-183350000D03*
X110100000Y-183350000D03*
D16*
X88303000Y-131693000D03*
X87033000Y-131693000D03*
X85763000Y-131693000D03*
X84493000Y-131693000D03*
X83223000Y-131693000D03*
X81953000Y-131693000D03*
X80683000Y-131693000D03*
X79413000Y-131693000D03*
X79413000Y-140993000D03*
X80683000Y-140993000D03*
X81953000Y-140993000D03*
X83223000Y-140993000D03*
X84493000Y-140993000D03*
X85763000Y-140993000D03*
X87033000Y-140993000D03*
X88303000Y-140993000D03*
D17*
X68725000Y-139750000D03*
X70775000Y-139750000D03*
D18*
X93980000Y-159004000D03*
X91440000Y-159004000D03*
X86360000Y-161544000D03*
X92990000Y-178734000D03*
X91440000Y-161544000D03*
X88900000Y-161544000D03*
X87910000Y-178734000D03*
X87560000Y-181744000D03*
X83820000Y-161544000D03*
X89180000Y-178734000D03*
X93980000Y-161544000D03*
X84100000Y-178734000D03*
X88900000Y-159004000D03*
X90450000Y-178734000D03*
X85370000Y-178734000D03*
X90100000Y-181744000D03*
X91720000Y-178734000D03*
X83820000Y-159004000D03*
X86640000Y-178734000D03*
X86360000Y-159004000D03*
D19*
X79055000Y-149975000D03*
X80325000Y-149975000D03*
X81595000Y-149975000D03*
X82865000Y-149975000D03*
X84135000Y-149975000D03*
X85405000Y-149975000D03*
X86675000Y-149975000D03*
X87945000Y-149975000D03*
X87945000Y-145025000D03*
X86675000Y-145025000D03*
X85405000Y-145025000D03*
X84135000Y-145025000D03*
X82865000Y-145025000D03*
X81595000Y-145025000D03*
X80325000Y-145025000D03*
X79055000Y-145025000D03*
D20*
X67805000Y-151650000D03*
X69075000Y-151650000D03*
X70345000Y-151650000D03*
X71615000Y-151650000D03*
X72885000Y-151650000D03*
X74155000Y-151650000D03*
X75425000Y-151650000D03*
X76695000Y-151650000D03*
X76695000Y-142350000D03*
X75425000Y-142350000D03*
X74155000Y-142350000D03*
X72885000Y-142350000D03*
X71615000Y-142350000D03*
X70345000Y-142350000D03*
X69075000Y-142350000D03*
X67805000Y-142350000D03*
D17*
X67725000Y-154250000D03*
X69775000Y-154250000D03*
D21*
X108227804Y-172750000D03*
X112272196Y-172750000D03*
D10*
X102750000Y-152737500D03*
X102750000Y-149762500D03*
D11*
X95750000Y-146775000D03*
X95750000Y-144725000D03*
D21*
X107977804Y-179750000D03*
X112022196Y-179750000D03*
D22*
X71270000Y-159320000D03*
X74970000Y-160320000D03*
X71270000Y-161320000D03*
X74970000Y-162320000D03*
X71270000Y-163320000D03*
X74970000Y-164320000D03*
X71270000Y-165320000D03*
X74970000Y-166320000D03*
D23*
X89587500Y-151500000D03*
X91412500Y-151500000D03*
M02*
