G04 #@! TF.GenerationSoftware,KiCad,Pcbnew,(5.1.5)-3*
G04 #@! TF.CreationDate,2021-12-13T19:15:31+01:00*
G04 #@! TF.ProjectId,PowerAnalyzer_ACS71020_V2,506f7765-7241-46e6-916c-797a65725f41,2.2*
G04 #@! TF.SameCoordinates,Original*
G04 #@! TF.FileFunction,Legend,Bot*
G04 #@! TF.FilePolarity,Positive*
%FSLAX46Y46*%
G04 Gerber Fmt 4.6, Leading zero omitted, Abs format (unit mm)*
G04 Created by KiCad (PCBNEW (5.1.5)-3) date 2021-12-13 19:15:31*
%MOMM*%
%LPD*%
G04 APERTURE LIST*
%ADD10C,0.120000*%
%ADD11C,0.150000*%
%ADD12C,2.102000*%
%ADD13R,2.102000X2.102000*%
%ADD14C,2.602000*%
%ADD15C,1.702000*%
%ADD16C,2.702000*%
%ADD17C,0.100000*%
G04 APERTURE END LIST*
D10*
X80011252Y-149290000D02*
X79488748Y-149290000D01*
X80011252Y-150710000D02*
X79488748Y-150710000D01*
X80011252Y-146210000D02*
X79488748Y-146210000D01*
X80011252Y-144790000D02*
X79488748Y-144790000D01*
D11*
X82947142Y-149743333D02*
X82994761Y-149695714D01*
X83042380Y-149552857D01*
X83042380Y-149457619D01*
X82994761Y-149314761D01*
X82899523Y-149219523D01*
X82804285Y-149171904D01*
X82613809Y-149124285D01*
X82470952Y-149124285D01*
X82280476Y-149171904D01*
X82185238Y-149219523D01*
X82090000Y-149314761D01*
X82042380Y-149457619D01*
X82042380Y-149552857D01*
X82090000Y-149695714D01*
X82137619Y-149743333D01*
X82137619Y-150124285D02*
X82090000Y-150171904D01*
X82042380Y-150267142D01*
X82042380Y-150505238D01*
X82090000Y-150600476D01*
X82137619Y-150648095D01*
X82232857Y-150695714D01*
X82328095Y-150695714D01*
X82470952Y-150648095D01*
X83042380Y-150076666D01*
X83042380Y-150695714D01*
X81131666Y-143952142D02*
X81179285Y-143999761D01*
X81322142Y-144047380D01*
X81417380Y-144047380D01*
X81560238Y-143999761D01*
X81655476Y-143904523D01*
X81703095Y-143809285D01*
X81750714Y-143618809D01*
X81750714Y-143475952D01*
X81703095Y-143285476D01*
X81655476Y-143190238D01*
X81560238Y-143095000D01*
X81417380Y-143047380D01*
X81322142Y-143047380D01*
X81179285Y-143095000D01*
X81131666Y-143142619D01*
X80179285Y-144047380D02*
X80750714Y-144047380D01*
X80465000Y-144047380D02*
X80465000Y-143047380D01*
X80560238Y-143190238D01*
X80655476Y-143285476D01*
X80750714Y-143333095D01*
%LPC*%
D12*
X122700000Y-173940000D03*
X122700000Y-168860000D03*
X122700000Y-161240000D03*
X122700000Y-156160000D03*
X122700000Y-151080000D03*
D13*
X122700000Y-146000000D03*
D14*
X117300000Y-174000000D03*
X74300000Y-131000000D03*
X117300000Y-131000000D03*
X74300000Y-174000000D03*
D15*
X96520000Y-186944000D03*
X96520000Y-184404000D03*
X96520000Y-181864000D03*
X96520000Y-179324000D03*
X96520000Y-176784000D03*
X96520000Y-174244000D03*
X96520000Y-171704000D03*
X96520000Y-169164000D03*
X96520000Y-166624000D03*
X96520000Y-164084000D03*
X96520000Y-161544000D03*
X96520000Y-159004000D03*
X96520000Y-156464000D03*
X83820000Y-184404000D03*
X81280000Y-186944000D03*
X81280000Y-184404000D03*
X81280000Y-181864000D03*
X81280000Y-179324000D03*
X81280000Y-176784000D03*
X81280000Y-174244000D03*
X81280000Y-171704000D03*
X81280000Y-169164000D03*
X81280000Y-166624000D03*
X81280000Y-164084000D03*
X81280000Y-161544000D03*
X81280000Y-159004000D03*
X81280000Y-156464000D03*
X96520000Y-153924000D03*
X93980000Y-153924000D03*
X91440000Y-153924000D03*
X81280000Y-153924000D03*
X83820000Y-153924000D03*
X86360000Y-153924000D03*
X88900000Y-153924000D03*
D12*
X105250000Y-125088000D03*
X105250000Y-140088000D03*
D16*
X105250000Y-132588000D03*
D17*
G36*
X79105506Y-149250311D02*
G01*
X79131926Y-149254230D01*
X79157835Y-149260720D01*
X79182984Y-149269718D01*
X79207129Y-149281138D01*
X79230039Y-149294869D01*
X79251492Y-149310780D01*
X79271283Y-149328717D01*
X79289220Y-149348508D01*
X79305131Y-149369961D01*
X79318862Y-149392871D01*
X79330282Y-149417016D01*
X79339280Y-149442165D01*
X79345770Y-149468074D01*
X79349689Y-149494494D01*
X79351000Y-149521172D01*
X79351000Y-150478828D01*
X79349689Y-150505506D01*
X79345770Y-150531926D01*
X79339280Y-150557835D01*
X79330282Y-150582984D01*
X79318862Y-150607129D01*
X79305131Y-150630039D01*
X79289220Y-150651492D01*
X79271283Y-150671283D01*
X79251492Y-150689220D01*
X79230039Y-150705131D01*
X79207129Y-150718862D01*
X79182984Y-150730282D01*
X79157835Y-150739280D01*
X79131926Y-150745770D01*
X79105506Y-150749689D01*
X79078828Y-150751000D01*
X78371172Y-150751000D01*
X78344494Y-150749689D01*
X78318074Y-150745770D01*
X78292165Y-150739280D01*
X78267016Y-150730282D01*
X78242871Y-150718862D01*
X78219961Y-150705131D01*
X78198508Y-150689220D01*
X78178717Y-150671283D01*
X78160780Y-150651492D01*
X78144869Y-150630039D01*
X78131138Y-150607129D01*
X78119718Y-150582984D01*
X78110720Y-150557835D01*
X78104230Y-150531926D01*
X78100311Y-150505506D01*
X78099000Y-150478828D01*
X78099000Y-149521172D01*
X78100311Y-149494494D01*
X78104230Y-149468074D01*
X78110720Y-149442165D01*
X78119718Y-149417016D01*
X78131138Y-149392871D01*
X78144869Y-149369961D01*
X78160780Y-149348508D01*
X78178717Y-149328717D01*
X78198508Y-149310780D01*
X78219961Y-149294869D01*
X78242871Y-149281138D01*
X78267016Y-149269718D01*
X78292165Y-149260720D01*
X78318074Y-149254230D01*
X78344494Y-149250311D01*
X78371172Y-149249000D01*
X79078828Y-149249000D01*
X79105506Y-149250311D01*
G37*
G36*
X81155506Y-149250311D02*
G01*
X81181926Y-149254230D01*
X81207835Y-149260720D01*
X81232984Y-149269718D01*
X81257129Y-149281138D01*
X81280039Y-149294869D01*
X81301492Y-149310780D01*
X81321283Y-149328717D01*
X81339220Y-149348508D01*
X81355131Y-149369961D01*
X81368862Y-149392871D01*
X81380282Y-149417016D01*
X81389280Y-149442165D01*
X81395770Y-149468074D01*
X81399689Y-149494494D01*
X81401000Y-149521172D01*
X81401000Y-150478828D01*
X81399689Y-150505506D01*
X81395770Y-150531926D01*
X81389280Y-150557835D01*
X81380282Y-150582984D01*
X81368862Y-150607129D01*
X81355131Y-150630039D01*
X81339220Y-150651492D01*
X81321283Y-150671283D01*
X81301492Y-150689220D01*
X81280039Y-150705131D01*
X81257129Y-150718862D01*
X81232984Y-150730282D01*
X81207835Y-150739280D01*
X81181926Y-150745770D01*
X81155506Y-150749689D01*
X81128828Y-150751000D01*
X80421172Y-150751000D01*
X80394494Y-150749689D01*
X80368074Y-150745770D01*
X80342165Y-150739280D01*
X80317016Y-150730282D01*
X80292871Y-150718862D01*
X80269961Y-150705131D01*
X80248508Y-150689220D01*
X80228717Y-150671283D01*
X80210780Y-150651492D01*
X80194869Y-150630039D01*
X80181138Y-150607129D01*
X80169718Y-150582984D01*
X80160720Y-150557835D01*
X80154230Y-150531926D01*
X80150311Y-150505506D01*
X80149000Y-150478828D01*
X80149000Y-149521172D01*
X80150311Y-149494494D01*
X80154230Y-149468074D01*
X80160720Y-149442165D01*
X80169718Y-149417016D01*
X80181138Y-149392871D01*
X80194869Y-149369961D01*
X80210780Y-149348508D01*
X80228717Y-149328717D01*
X80248508Y-149310780D01*
X80269961Y-149294869D01*
X80292871Y-149281138D01*
X80317016Y-149269718D01*
X80342165Y-149260720D01*
X80368074Y-149254230D01*
X80394494Y-149250311D01*
X80421172Y-149249000D01*
X81128828Y-149249000D01*
X81155506Y-149250311D01*
G37*
D14*
X113730000Y-124265000D03*
X118680000Y-124265000D03*
D12*
X115000000Y-143193000D03*
D13*
X115000000Y-148193000D03*
D14*
X97790000Y-128140000D03*
X97790000Y-123190000D03*
X87668100Y-127936800D03*
X87668100Y-122986800D03*
X80010000Y-122999500D03*
X80010000Y-127949500D03*
D17*
G36*
X81155506Y-144750311D02*
G01*
X81181926Y-144754230D01*
X81207835Y-144760720D01*
X81232984Y-144769718D01*
X81257129Y-144781138D01*
X81280039Y-144794869D01*
X81301492Y-144810780D01*
X81321283Y-144828717D01*
X81339220Y-144848508D01*
X81355131Y-144869961D01*
X81368862Y-144892871D01*
X81380282Y-144917016D01*
X81389280Y-144942165D01*
X81395770Y-144968074D01*
X81399689Y-144994494D01*
X81401000Y-145021172D01*
X81401000Y-145978828D01*
X81399689Y-146005506D01*
X81395770Y-146031926D01*
X81389280Y-146057835D01*
X81380282Y-146082984D01*
X81368862Y-146107129D01*
X81355131Y-146130039D01*
X81339220Y-146151492D01*
X81321283Y-146171283D01*
X81301492Y-146189220D01*
X81280039Y-146205131D01*
X81257129Y-146218862D01*
X81232984Y-146230282D01*
X81207835Y-146239280D01*
X81181926Y-146245770D01*
X81155506Y-146249689D01*
X81128828Y-146251000D01*
X80421172Y-146251000D01*
X80394494Y-146249689D01*
X80368074Y-146245770D01*
X80342165Y-146239280D01*
X80317016Y-146230282D01*
X80292871Y-146218862D01*
X80269961Y-146205131D01*
X80248508Y-146189220D01*
X80228717Y-146171283D01*
X80210780Y-146151492D01*
X80194869Y-146130039D01*
X80181138Y-146107129D01*
X80169718Y-146082984D01*
X80160720Y-146057835D01*
X80154230Y-146031926D01*
X80150311Y-146005506D01*
X80149000Y-145978828D01*
X80149000Y-145021172D01*
X80150311Y-144994494D01*
X80154230Y-144968074D01*
X80160720Y-144942165D01*
X80169718Y-144917016D01*
X80181138Y-144892871D01*
X80194869Y-144869961D01*
X80210780Y-144848508D01*
X80228717Y-144828717D01*
X80248508Y-144810780D01*
X80269961Y-144794869D01*
X80292871Y-144781138D01*
X80317016Y-144769718D01*
X80342165Y-144760720D01*
X80368074Y-144754230D01*
X80394494Y-144750311D01*
X80421172Y-144749000D01*
X81128828Y-144749000D01*
X81155506Y-144750311D01*
G37*
G36*
X79105506Y-144750311D02*
G01*
X79131926Y-144754230D01*
X79157835Y-144760720D01*
X79182984Y-144769718D01*
X79207129Y-144781138D01*
X79230039Y-144794869D01*
X79251492Y-144810780D01*
X79271283Y-144828717D01*
X79289220Y-144848508D01*
X79305131Y-144869961D01*
X79318862Y-144892871D01*
X79330282Y-144917016D01*
X79339280Y-144942165D01*
X79345770Y-144968074D01*
X79349689Y-144994494D01*
X79351000Y-145021172D01*
X79351000Y-145978828D01*
X79349689Y-146005506D01*
X79345770Y-146031926D01*
X79339280Y-146057835D01*
X79330282Y-146082984D01*
X79318862Y-146107129D01*
X79305131Y-146130039D01*
X79289220Y-146151492D01*
X79271283Y-146171283D01*
X79251492Y-146189220D01*
X79230039Y-146205131D01*
X79207129Y-146218862D01*
X79182984Y-146230282D01*
X79157835Y-146239280D01*
X79131926Y-146245770D01*
X79105506Y-146249689D01*
X79078828Y-146251000D01*
X78371172Y-146251000D01*
X78344494Y-146249689D01*
X78318074Y-146245770D01*
X78292165Y-146239280D01*
X78267016Y-146230282D01*
X78242871Y-146218862D01*
X78219961Y-146205131D01*
X78198508Y-146189220D01*
X78178717Y-146171283D01*
X78160780Y-146151492D01*
X78144869Y-146130039D01*
X78131138Y-146107129D01*
X78119718Y-146082984D01*
X78110720Y-146057835D01*
X78104230Y-146031926D01*
X78100311Y-146005506D01*
X78099000Y-145978828D01*
X78099000Y-145021172D01*
X78100311Y-144994494D01*
X78104230Y-144968074D01*
X78110720Y-144942165D01*
X78119718Y-144917016D01*
X78131138Y-144892871D01*
X78144869Y-144869961D01*
X78160780Y-144848508D01*
X78178717Y-144828717D01*
X78198508Y-144810780D01*
X78219961Y-144794869D01*
X78242871Y-144781138D01*
X78267016Y-144769718D01*
X78292165Y-144760720D01*
X78318074Y-144754230D01*
X78344494Y-144750311D01*
X78371172Y-144749000D01*
X79078828Y-144749000D01*
X79105506Y-144750311D01*
G37*
D15*
X117300000Y-135600000D03*
X122300000Y-138600000D03*
M02*
