G04 #@! TF.GenerationSoftware,KiCad,Pcbnew,(5.1.5)-3*
G04 #@! TF.CreationDate,2021-12-13T19:15:31+01:00*
G04 #@! TF.ProjectId,PowerAnalyzer_ACS71020_V2,506f7765-7241-46e6-916c-797a65725f41,2.2*
G04 #@! TF.SameCoordinates,Original*
G04 #@! TF.FileFunction,Legend,Top*
G04 #@! TF.FilePolarity,Positive*
%FSLAX46Y46*%
G04 Gerber Fmt 4.6, Leading zero omitted, Abs format (unit mm)*
G04 Created by KiCad (PCBNEW (5.1.5)-3) date 2021-12-13 19:15:31*
%MOMM*%
%LPD*%
G04 APERTURE LIST*
%ADD10C,0.300000*%
%ADD11C,0.120000*%
%ADD12C,0.750000*%
%ADD13C,0.150000*%
%ADD14C,0.050000*%
%ADD15C,0.015000*%
%ADD16C,0.200000*%
%ADD17C,0.100000*%
%ADD18C,0.096520*%
%ADD19R,1.903200X0.803200*%
%ADD20R,2.662396X2.401995*%
%ADD21C,2.102000*%
%ADD22R,2.102000X2.102000*%
%ADD23C,2.602000*%
%ADD24R,1.000000X2.000000*%
%ADD25C,1.702000*%
%ADD26C,2.702000*%
%ADD27R,1.102000X1.102000*%
G04 APERTURE END LIST*
D10*
X69357142Y-170428571D02*
X68642857Y-170428571D01*
X68642857Y-168928571D01*
X69857142Y-170428571D02*
X69857142Y-169428571D01*
X69857142Y-168928571D02*
X69785714Y-169000000D01*
X69857142Y-169071428D01*
X69928571Y-169000000D01*
X69857142Y-168928571D01*
X69857142Y-169071428D01*
X71214285Y-170428571D02*
X71214285Y-168928571D01*
X71214285Y-170357142D02*
X71071428Y-170428571D01*
X70785714Y-170428571D01*
X70642857Y-170357142D01*
X70571428Y-170285714D01*
X70500000Y-170142857D01*
X70500000Y-169714285D01*
X70571428Y-169571428D01*
X70642857Y-169500000D01*
X70785714Y-169428571D01*
X71071428Y-169428571D01*
X71214285Y-169500000D01*
X71928571Y-169857142D02*
X73071428Y-169857142D01*
X74642857Y-170285714D02*
X74571428Y-170357142D01*
X74357142Y-170428571D01*
X74214285Y-170428571D01*
X74000000Y-170357142D01*
X73857142Y-170214285D01*
X73785714Y-170071428D01*
X73714285Y-169785714D01*
X73714285Y-169571428D01*
X73785714Y-169285714D01*
X73857142Y-169142857D01*
X74000000Y-169000000D01*
X74214285Y-168928571D01*
X74357142Y-168928571D01*
X74571428Y-169000000D01*
X74642857Y-169071428D01*
X75500000Y-170428571D02*
X75357142Y-170357142D01*
X75285714Y-170285714D01*
X75214285Y-170142857D01*
X75214285Y-169714285D01*
X75285714Y-169571428D01*
X75357142Y-169500000D01*
X75500000Y-169428571D01*
X75714285Y-169428571D01*
X75857142Y-169500000D01*
X75928571Y-169571428D01*
X76000000Y-169714285D01*
X76000000Y-170142857D01*
X75928571Y-170285714D01*
X75857142Y-170357142D01*
X75714285Y-170428571D01*
X75500000Y-170428571D01*
X76642857Y-169428571D02*
X76642857Y-170428571D01*
X76642857Y-169571428D02*
X76714285Y-169500000D01*
X76857142Y-169428571D01*
X77071428Y-169428571D01*
X77214285Y-169500000D01*
X77285714Y-169642857D01*
X77285714Y-170428571D01*
X78000000Y-169428571D02*
X78000000Y-170428571D01*
X78000000Y-169571428D02*
X78071428Y-169500000D01*
X78214285Y-169428571D01*
X78428571Y-169428571D01*
X78571428Y-169500000D01*
X78642857Y-169642857D01*
X78642857Y-170428571D01*
X79357142Y-170285714D02*
X79428571Y-170357142D01*
X79357142Y-170428571D01*
X79285714Y-170357142D01*
X79357142Y-170285714D01*
X79357142Y-170428571D01*
D11*
X111800000Y-183300000D02*
X110900000Y-182700000D01*
X111800000Y-182800000D02*
X111800000Y-183800000D01*
X111800000Y-186000000D02*
X111800000Y-186100000D01*
X111800000Y-184900000D02*
X111800000Y-186000000D01*
X111800000Y-185500000D02*
X110900000Y-184800000D01*
X110900000Y-186200000D02*
X111800000Y-185500000D01*
X110900000Y-184800000D02*
X110900000Y-186200000D01*
X110900000Y-184000000D02*
X111800000Y-183300000D01*
X110900000Y-182700000D02*
X110900000Y-184000000D01*
D12*
X79500000Y-147821428D02*
X79642857Y-147964285D01*
X79500000Y-148107142D01*
X79357142Y-147964285D01*
X79500000Y-147821428D01*
X79500000Y-148107142D01*
X88000000Y-133571428D02*
X88142857Y-133714285D01*
X88000000Y-133857142D01*
X87857142Y-133714285D01*
X88000000Y-133571428D01*
X88000000Y-133857142D01*
X68250000Y-149321428D02*
X68392857Y-149464285D01*
X68250000Y-149607142D01*
X68107142Y-149464285D01*
X68250000Y-149321428D01*
X68250000Y-149607142D01*
D13*
X95559523Y-125547380D02*
X95083333Y-125547380D01*
X95083333Y-124547380D01*
X121594523Y-123642380D02*
X121118333Y-123642380D01*
X121118333Y-122642380D01*
X83534285Y-122372380D02*
X83534285Y-121372380D01*
X84105714Y-122372380D01*
X84105714Y-121372380D01*
D14*
X75690476Y-124452380D02*
X75595238Y-124404761D01*
X75547619Y-124357142D01*
X75500000Y-124261904D01*
X75500000Y-123976190D01*
X75547619Y-123880952D01*
X75595238Y-123833333D01*
X75690476Y-123785714D01*
X75833333Y-123785714D01*
X75928571Y-123833333D01*
X75976190Y-123880952D01*
X76023809Y-123976190D01*
X76023809Y-124261904D01*
X75976190Y-124357142D01*
X75928571Y-124404761D01*
X75833333Y-124452380D01*
X75690476Y-124452380D01*
X76880952Y-123785714D02*
X76880952Y-124452380D01*
X76452380Y-123785714D02*
X76452380Y-124309523D01*
X76500000Y-124404761D01*
X76595238Y-124452380D01*
X76738095Y-124452380D01*
X76833333Y-124404761D01*
X76880952Y-124357142D01*
X77214285Y-123785714D02*
X77595238Y-123785714D01*
X77357142Y-123452380D02*
X77357142Y-124309523D01*
X77404761Y-124404761D01*
X77500000Y-124452380D01*
X77595238Y-124452380D01*
X90547619Y-124452380D02*
X90547619Y-123785714D01*
X90547619Y-123452380D02*
X90500000Y-123500000D01*
X90547619Y-123547619D01*
X90595238Y-123500000D01*
X90547619Y-123452380D01*
X90547619Y-123547619D01*
X91023809Y-123785714D02*
X91023809Y-124452380D01*
X91023809Y-123880952D02*
X91071428Y-123833333D01*
X91166666Y-123785714D01*
X91309523Y-123785714D01*
X91404761Y-123833333D01*
X91452380Y-123928571D01*
X91452380Y-124452380D01*
X94440476Y-126817380D02*
X94345238Y-126769761D01*
X94297619Y-126722142D01*
X94250000Y-126626904D01*
X94250000Y-126341190D01*
X94297619Y-126245952D01*
X94345238Y-126198333D01*
X94440476Y-126150714D01*
X94583333Y-126150714D01*
X94678571Y-126198333D01*
X94726190Y-126245952D01*
X94773809Y-126341190D01*
X94773809Y-126626904D01*
X94726190Y-126722142D01*
X94678571Y-126769761D01*
X94583333Y-126817380D01*
X94440476Y-126817380D01*
X95630952Y-126150714D02*
X95630952Y-126817380D01*
X95202380Y-126150714D02*
X95202380Y-126674523D01*
X95250000Y-126769761D01*
X95345238Y-126817380D01*
X95488095Y-126817380D01*
X95583333Y-126769761D01*
X95630952Y-126722142D01*
X95964285Y-126150714D02*
X96345238Y-126150714D01*
X96107142Y-125817380D02*
X96107142Y-126674523D01*
X96154761Y-126769761D01*
X96250000Y-126817380D01*
X96345238Y-126817380D01*
X120832619Y-124912380D02*
X120832619Y-124245714D01*
X120832619Y-123912380D02*
X120785000Y-123960000D01*
X120832619Y-124007619D01*
X120880238Y-123960000D01*
X120832619Y-123912380D01*
X120832619Y-124007619D01*
X121308809Y-124245714D02*
X121308809Y-124912380D01*
X121308809Y-124340952D02*
X121356428Y-124293333D01*
X121451666Y-124245714D01*
X121594523Y-124245714D01*
X121689761Y-124293333D01*
X121737380Y-124388571D01*
X121737380Y-124912380D01*
D13*
X113355380Y-133460714D02*
X112688714Y-133460714D01*
X112783952Y-133460714D02*
X112736333Y-133413095D01*
X112688714Y-133317857D01*
X112688714Y-133175000D01*
X112736333Y-133079761D01*
X112831571Y-133032142D01*
X113355380Y-133032142D01*
X112831571Y-133032142D02*
X112736333Y-132984523D01*
X112688714Y-132889285D01*
X112688714Y-132746428D01*
X112736333Y-132651190D01*
X112831571Y-132603571D01*
X113355380Y-132603571D01*
X113355380Y-131698809D02*
X112831571Y-131698809D01*
X112736333Y-131746428D01*
X112688714Y-131841666D01*
X112688714Y-132032142D01*
X112736333Y-132127380D01*
X113307761Y-131698809D02*
X113355380Y-131794047D01*
X113355380Y-132032142D01*
X113307761Y-132127380D01*
X113212523Y-132175000D01*
X113117285Y-132175000D01*
X113022047Y-132127380D01*
X112974428Y-132032142D01*
X112974428Y-131794047D01*
X112926809Y-131698809D01*
X113355380Y-131317857D02*
X112688714Y-130794047D01*
X112688714Y-131317857D02*
X113355380Y-130794047D01*
X113260142Y-130413095D02*
X113307761Y-130365476D01*
X113355380Y-130413095D01*
X113307761Y-130460714D01*
X113260142Y-130413095D01*
X113355380Y-130413095D01*
X113355380Y-128651190D02*
X113355380Y-129222619D01*
X113355380Y-128936904D02*
X112355380Y-128936904D01*
X112498238Y-129032142D01*
X112593476Y-129127380D01*
X112641095Y-129222619D01*
X112355380Y-127746428D02*
X112355380Y-128222619D01*
X112831571Y-128270238D01*
X112783952Y-128222619D01*
X112736333Y-128127380D01*
X112736333Y-127889285D01*
X112783952Y-127794047D01*
X112831571Y-127746428D01*
X112926809Y-127698809D01*
X113164904Y-127698809D01*
X113260142Y-127746428D01*
X113307761Y-127794047D01*
X113355380Y-127889285D01*
X113355380Y-128127380D01*
X113307761Y-128222619D01*
X113260142Y-128270238D01*
X113069666Y-127317857D02*
X113069666Y-126841666D01*
X113355380Y-127413095D02*
X112355380Y-127079761D01*
X113355380Y-126746428D01*
X95631190Y-132342380D02*
X95631190Y-131675714D01*
X95631190Y-131770952D02*
X95678809Y-131723333D01*
X95774047Y-131675714D01*
X95916904Y-131675714D01*
X96012142Y-131723333D01*
X96059761Y-131818571D01*
X96059761Y-132342380D01*
X96059761Y-131818571D02*
X96107380Y-131723333D01*
X96202619Y-131675714D01*
X96345476Y-131675714D01*
X96440714Y-131723333D01*
X96488333Y-131818571D01*
X96488333Y-132342380D01*
X97393095Y-132342380D02*
X97393095Y-131818571D01*
X97345476Y-131723333D01*
X97250238Y-131675714D01*
X97059761Y-131675714D01*
X96964523Y-131723333D01*
X97393095Y-132294761D02*
X97297857Y-132342380D01*
X97059761Y-132342380D01*
X96964523Y-132294761D01*
X96916904Y-132199523D01*
X96916904Y-132104285D01*
X96964523Y-132009047D01*
X97059761Y-131961428D01*
X97297857Y-131961428D01*
X97393095Y-131913809D01*
X97774047Y-132342380D02*
X98297857Y-131675714D01*
X97774047Y-131675714D02*
X98297857Y-132342380D01*
X98678809Y-132247142D02*
X98726428Y-132294761D01*
X98678809Y-132342380D01*
X98631190Y-132294761D01*
X98678809Y-132247142D01*
X98678809Y-132342380D01*
X93869285Y-133087619D02*
X93916904Y-133040000D01*
X94012142Y-132992380D01*
X94250238Y-132992380D01*
X94345476Y-133040000D01*
X94393095Y-133087619D01*
X94440714Y-133182857D01*
X94440714Y-133278095D01*
X94393095Y-133420952D01*
X93821666Y-133992380D01*
X94440714Y-133992380D01*
X94774047Y-132992380D02*
X95393095Y-132992380D01*
X95059761Y-133373333D01*
X95202619Y-133373333D01*
X95297857Y-133420952D01*
X95345476Y-133468571D01*
X95393095Y-133563809D01*
X95393095Y-133801904D01*
X95345476Y-133897142D01*
X95297857Y-133944761D01*
X95202619Y-133992380D01*
X94916904Y-133992380D01*
X94821666Y-133944761D01*
X94774047Y-133897142D01*
X96012142Y-132992380D02*
X96107380Y-132992380D01*
X96202619Y-133040000D01*
X96250238Y-133087619D01*
X96297857Y-133182857D01*
X96345476Y-133373333D01*
X96345476Y-133611428D01*
X96297857Y-133801904D01*
X96250238Y-133897142D01*
X96202619Y-133944761D01*
X96107380Y-133992380D01*
X96012142Y-133992380D01*
X95916904Y-133944761D01*
X95869285Y-133897142D01*
X95821666Y-133801904D01*
X95774047Y-133611428D01*
X95774047Y-133373333D01*
X95821666Y-133182857D01*
X95869285Y-133087619D01*
X95916904Y-133040000D01*
X96012142Y-132992380D01*
X96631190Y-132992380D02*
X96964523Y-133992380D01*
X97297857Y-132992380D01*
X97678809Y-133944761D02*
X97678809Y-133992380D01*
X97631190Y-134087619D01*
X97583571Y-134135238D01*
X98631190Y-133992380D02*
X98059761Y-133992380D01*
X98345476Y-133992380D02*
X98345476Y-132992380D01*
X98250238Y-133135238D01*
X98155000Y-133230476D01*
X98059761Y-133278095D01*
X99535952Y-132992380D02*
X99059761Y-132992380D01*
X99012142Y-133468571D01*
X99059761Y-133420952D01*
X99155000Y-133373333D01*
X99393095Y-133373333D01*
X99488333Y-133420952D01*
X99535952Y-133468571D01*
X99583571Y-133563809D01*
X99583571Y-133801904D01*
X99535952Y-133897142D01*
X99488333Y-133944761D01*
X99393095Y-133992380D01*
X99155000Y-133992380D01*
X99059761Y-133944761D01*
X99012142Y-133897142D01*
X99964523Y-133706666D02*
X100440714Y-133706666D01*
X99869285Y-133992380D02*
X100202619Y-132992380D01*
X100535952Y-133992380D01*
X83200952Y-125357380D02*
X82629523Y-125357380D01*
X82915238Y-125357380D02*
X82915238Y-124357380D01*
X82820000Y-124500238D01*
X82724761Y-124595476D01*
X82629523Y-124643095D01*
X84105714Y-124357380D02*
X83629523Y-124357380D01*
X83581904Y-124833571D01*
X83629523Y-124785952D01*
X83724761Y-124738333D01*
X83962857Y-124738333D01*
X84058095Y-124785952D01*
X84105714Y-124833571D01*
X84153333Y-124928809D01*
X84153333Y-125166904D01*
X84105714Y-125262142D01*
X84058095Y-125309761D01*
X83962857Y-125357380D01*
X83724761Y-125357380D01*
X83629523Y-125309761D01*
X83581904Y-125262142D01*
X84534285Y-125071666D02*
X85010476Y-125071666D01*
X84439047Y-125357380D02*
X84772380Y-124357380D01*
X85105714Y-125357380D01*
X82296190Y-127007380D02*
X82296190Y-126340714D01*
X82296190Y-126435952D02*
X82343809Y-126388333D01*
X82439047Y-126340714D01*
X82581904Y-126340714D01*
X82677142Y-126388333D01*
X82724761Y-126483571D01*
X82724761Y-127007380D01*
X82724761Y-126483571D02*
X82772380Y-126388333D01*
X82867619Y-126340714D01*
X83010476Y-126340714D01*
X83105714Y-126388333D01*
X83153333Y-126483571D01*
X83153333Y-127007380D01*
X84058095Y-127007380D02*
X84058095Y-126483571D01*
X84010476Y-126388333D01*
X83915238Y-126340714D01*
X83724761Y-126340714D01*
X83629523Y-126388333D01*
X84058095Y-126959761D02*
X83962857Y-127007380D01*
X83724761Y-127007380D01*
X83629523Y-126959761D01*
X83581904Y-126864523D01*
X83581904Y-126769285D01*
X83629523Y-126674047D01*
X83724761Y-126626428D01*
X83962857Y-126626428D01*
X84058095Y-126578809D01*
X84439047Y-127007380D02*
X84962857Y-126340714D01*
X84439047Y-126340714D02*
X84962857Y-127007380D01*
X85343809Y-126912142D02*
X85391428Y-126959761D01*
X85343809Y-127007380D01*
X85296190Y-126959761D01*
X85343809Y-126912142D01*
X85343809Y-127007380D01*
D15*
X68782880Y-132984190D02*
X67782880Y-132984190D01*
X67782880Y-132603238D01*
X67830500Y-132508000D01*
X67878119Y-132460380D01*
X67973357Y-132412761D01*
X68116214Y-132412761D01*
X68211452Y-132460380D01*
X68259071Y-132508000D01*
X68306690Y-132603238D01*
X68306690Y-132984190D01*
X68782880Y-131841333D02*
X68735261Y-131936571D01*
X68687642Y-131984190D01*
X68592404Y-132031809D01*
X68306690Y-132031809D01*
X68211452Y-131984190D01*
X68163833Y-131936571D01*
X68116214Y-131841333D01*
X68116214Y-131698476D01*
X68163833Y-131603238D01*
X68211452Y-131555619D01*
X68306690Y-131508000D01*
X68592404Y-131508000D01*
X68687642Y-131555619D01*
X68735261Y-131603238D01*
X68782880Y-131698476D01*
X68782880Y-131841333D01*
X68116214Y-131174666D02*
X68782880Y-130984190D01*
X68306690Y-130793714D01*
X68782880Y-130603238D01*
X68116214Y-130412761D01*
X68735261Y-129650857D02*
X68782880Y-129746095D01*
X68782880Y-129936571D01*
X68735261Y-130031809D01*
X68640023Y-130079428D01*
X68259071Y-130079428D01*
X68163833Y-130031809D01*
X68116214Y-129936571D01*
X68116214Y-129746095D01*
X68163833Y-129650857D01*
X68259071Y-129603238D01*
X68354309Y-129603238D01*
X68449547Y-130079428D01*
X68782880Y-129174666D02*
X68116214Y-129174666D01*
X68306690Y-129174666D02*
X68211452Y-129127047D01*
X68163833Y-129079428D01*
X68116214Y-128984190D01*
X68116214Y-128888952D01*
X68497166Y-127841333D02*
X68497166Y-127365142D01*
X68782880Y-127936571D02*
X67782880Y-127603238D01*
X68782880Y-127269904D01*
X68116214Y-126936571D02*
X68782880Y-126936571D01*
X68211452Y-126936571D02*
X68163833Y-126888952D01*
X68116214Y-126793714D01*
X68116214Y-126650857D01*
X68163833Y-126555619D01*
X68259071Y-126508000D01*
X68782880Y-126508000D01*
X68782880Y-125603238D02*
X68259071Y-125603238D01*
X68163833Y-125650857D01*
X68116214Y-125746095D01*
X68116214Y-125936571D01*
X68163833Y-126031809D01*
X68735261Y-125603238D02*
X68782880Y-125698476D01*
X68782880Y-125936571D01*
X68735261Y-126031809D01*
X68640023Y-126079428D01*
X68544785Y-126079428D01*
X68449547Y-126031809D01*
X68401928Y-125936571D01*
X68401928Y-125698476D01*
X68354309Y-125603238D01*
X68782880Y-124984190D02*
X68735261Y-125079428D01*
X68640023Y-125127047D01*
X67782880Y-125127047D01*
X68116214Y-124698476D02*
X68782880Y-124460380D01*
X68116214Y-124222285D02*
X68782880Y-124460380D01*
X69020976Y-124555619D01*
X69068595Y-124603238D01*
X69116214Y-124698476D01*
X68116214Y-123936571D02*
X68116214Y-123412761D01*
X68782880Y-123936571D01*
X68782880Y-123412761D01*
X68735261Y-122650857D02*
X68782880Y-122746095D01*
X68782880Y-122936571D01*
X68735261Y-123031809D01*
X68640023Y-123079428D01*
X68259071Y-123079428D01*
X68163833Y-123031809D01*
X68116214Y-122936571D01*
X68116214Y-122746095D01*
X68163833Y-122650857D01*
X68259071Y-122603238D01*
X68354309Y-122603238D01*
X68449547Y-123079428D01*
X68782880Y-122174666D02*
X68116214Y-122174666D01*
X68306690Y-122174666D02*
X68211452Y-122127047D01*
X68163833Y-122079428D01*
X68116214Y-121984190D01*
X68116214Y-121888952D01*
X70297880Y-129817523D02*
X69821690Y-130150857D01*
X70297880Y-130388952D02*
X69297880Y-130388952D01*
X69297880Y-130008000D01*
X69345500Y-129912761D01*
X69393119Y-129865142D01*
X69488357Y-129817523D01*
X69631214Y-129817523D01*
X69726452Y-129865142D01*
X69774071Y-129912761D01*
X69821690Y-130008000D01*
X69821690Y-130388952D01*
X70250261Y-129008000D02*
X70297880Y-129103238D01*
X70297880Y-129293714D01*
X70250261Y-129388952D01*
X70155023Y-129436571D01*
X69774071Y-129436571D01*
X69678833Y-129388952D01*
X69631214Y-129293714D01*
X69631214Y-129103238D01*
X69678833Y-129008000D01*
X69774071Y-128960380D01*
X69869309Y-128960380D01*
X69964547Y-129436571D01*
X69631214Y-128627047D02*
X70297880Y-128388952D01*
X69631214Y-128150857D01*
X70202642Y-127769904D02*
X70250261Y-127722285D01*
X70297880Y-127769904D01*
X70250261Y-127817523D01*
X70202642Y-127769904D01*
X70297880Y-127769904D01*
X69393119Y-126579428D02*
X69345500Y-126531809D01*
X69297880Y-126436571D01*
X69297880Y-126198476D01*
X69345500Y-126103238D01*
X69393119Y-126055619D01*
X69488357Y-126008000D01*
X69583595Y-126008000D01*
X69726452Y-126055619D01*
X70297880Y-126627047D01*
X70297880Y-126008000D01*
X70202642Y-125579428D02*
X70250261Y-125531809D01*
X70297880Y-125579428D01*
X70250261Y-125627047D01*
X70202642Y-125579428D01*
X70297880Y-125579428D01*
X69393119Y-125150857D02*
X69345500Y-125103238D01*
X69297880Y-125008000D01*
X69297880Y-124769904D01*
X69345500Y-124674666D01*
X69393119Y-124627047D01*
X69488357Y-124579428D01*
X69583595Y-124579428D01*
X69726452Y-124627047D01*
X70297880Y-125198476D01*
X70297880Y-124579428D01*
D16*
X74720000Y-159720000D02*
X74720000Y-157920000D01*
X74020000Y-157220000D02*
X71520000Y-157220000D01*
X71520000Y-157220000D02*
X71520000Y-158720000D01*
X74720000Y-160920000D02*
X74720000Y-161720000D01*
X71520000Y-159920000D02*
X71520000Y-160720000D01*
X74020000Y-157220000D02*
X74720000Y-157920000D01*
X74720000Y-164920000D02*
X74720000Y-165720000D01*
X74720000Y-166920000D02*
X74720000Y-168420000D01*
X74720000Y-168420000D02*
X71520000Y-168420000D01*
X71520000Y-168420000D02*
X71520000Y-165920000D01*
X71520000Y-163920000D02*
X71520000Y-164720000D01*
X71520000Y-161920000D02*
X71520000Y-162720000D01*
X74720000Y-162920000D02*
X74720000Y-163720000D01*
X71220000Y-158520000D02*
G75*
G03X71220000Y-158520000I-100000J0D01*
G01*
D11*
X106161007Y-172750000D02*
X105399007Y-172750000D01*
X105780007Y-172369000D02*
X105780007Y-173131000D01*
X106973006Y-174476997D02*
X113526994Y-174476997D01*
X113526994Y-174476997D02*
X113526994Y-174232738D01*
X113526994Y-171023003D02*
X106973006Y-171023003D01*
X106973006Y-171023003D02*
X106973006Y-171267262D01*
X106973006Y-174232738D02*
X106973006Y-174476997D01*
X113526994Y-171267262D02*
X113526994Y-171023003D01*
X90540000Y-143513748D02*
X90540000Y-144036252D01*
X91960000Y-143513748D02*
X91960000Y-144036252D01*
X120890000Y-142410000D02*
X124510000Y-142410000D01*
X120890000Y-149940000D02*
X120890000Y-142410000D01*
X119390000Y-151440000D02*
X120890000Y-149940000D01*
X113390000Y-151440000D02*
X119390000Y-151440000D01*
X113390000Y-170560000D02*
X113390000Y-151440000D01*
X119390000Y-170560000D02*
X113390000Y-170560000D01*
X120890000Y-172060000D02*
X119390000Y-170560000D01*
X120890000Y-177530000D02*
X120890000Y-172060000D01*
X124510000Y-177530000D02*
X120890000Y-177530000D01*
X124510000Y-142410000D02*
X124510000Y-177530000D01*
D17*
G36*
X89027000Y-174371000D02*
G01*
X88773000Y-174117000D01*
X89154000Y-173863000D01*
X89408000Y-174117000D01*
X89027000Y-174371000D01*
G37*
X89027000Y-174371000D02*
X88773000Y-174117000D01*
X89154000Y-173863000D01*
X89408000Y-174117000D01*
X89027000Y-174371000D01*
G36*
X88646000Y-173990000D02*
G01*
X88392000Y-173736000D01*
X88773000Y-173482000D01*
X89027000Y-173736000D01*
X88646000Y-173990000D01*
G37*
X88646000Y-173990000D02*
X88392000Y-173736000D01*
X88773000Y-173482000D01*
X89027000Y-173736000D01*
X88646000Y-173990000D01*
G36*
X89408000Y-172085000D02*
G01*
X89154000Y-171831000D01*
X89535000Y-171577000D01*
X89789000Y-171831000D01*
X89408000Y-172085000D01*
G37*
X89408000Y-172085000D02*
X89154000Y-171831000D01*
X89535000Y-171577000D01*
X89789000Y-171831000D01*
X89408000Y-172085000D01*
G36*
X88900000Y-172466000D02*
G01*
X88646000Y-172212000D01*
X89027000Y-171958000D01*
X89281000Y-172212000D01*
X88900000Y-172466000D01*
G37*
X88900000Y-172466000D02*
X88646000Y-172212000D01*
X89027000Y-171958000D01*
X89281000Y-172212000D01*
X88900000Y-172466000D01*
G36*
X88392000Y-172847000D02*
G01*
X88138000Y-172593000D01*
X88519000Y-172339000D01*
X88773000Y-172593000D01*
X88392000Y-172847000D01*
G37*
X88392000Y-172847000D02*
X88138000Y-172593000D01*
X88519000Y-172339000D01*
X88773000Y-172593000D01*
X88392000Y-172847000D01*
G36*
X89281000Y-172847000D02*
G01*
X89027000Y-172593000D01*
X89408000Y-172339000D01*
X89662000Y-172593000D01*
X89281000Y-172847000D01*
G37*
X89281000Y-172847000D02*
X89027000Y-172593000D01*
X89408000Y-172339000D01*
X89662000Y-172593000D01*
X89281000Y-172847000D01*
G36*
X88773000Y-173228000D02*
G01*
X88519000Y-172974000D01*
X88900000Y-172720000D01*
X89154000Y-172974000D01*
X88773000Y-173228000D01*
G37*
X88773000Y-173228000D02*
X88519000Y-172974000D01*
X88900000Y-172720000D01*
X89154000Y-172974000D01*
X88773000Y-173228000D01*
G36*
X88265000Y-173609000D02*
G01*
X88011000Y-173355000D01*
X88392000Y-173101000D01*
X88646000Y-173355000D01*
X88265000Y-173609000D01*
G37*
X88265000Y-173609000D02*
X88011000Y-173355000D01*
X88392000Y-173101000D01*
X88646000Y-173355000D01*
X88265000Y-173609000D01*
D13*
X86995000Y-165354000D02*
X83820000Y-165354000D01*
X86995000Y-162814000D02*
X86995000Y-165354000D01*
X83820000Y-162814000D02*
X86995000Y-162814000D01*
X83820000Y-165354000D02*
X83820000Y-162814000D01*
X97790000Y-188214000D02*
X80010000Y-188214000D01*
X97790000Y-152654000D02*
X97790000Y-188214000D01*
X80010000Y-152654000D02*
X97790000Y-152654000D01*
X80010000Y-188214000D02*
X80010000Y-152654000D01*
X93980000Y-165989000D02*
X93980000Y-176149000D01*
X83820000Y-165989000D02*
X83820000Y-176149000D01*
X83820000Y-176149000D02*
X93980000Y-176149000D01*
X93980000Y-165989000D02*
X83820000Y-165989000D01*
X87630000Y-160274000D02*
X87630000Y-155702000D01*
X90170000Y-160274000D02*
X87630000Y-160274000D01*
X90170000Y-155702000D02*
X90170000Y-160274000D01*
X87630000Y-155702000D02*
X90170000Y-155702000D01*
X92710000Y-183134000D02*
X92710000Y-188214000D01*
X85090000Y-183134000D02*
X85090000Y-188214000D01*
X92710000Y-183134000D02*
X85090000Y-183134000D01*
X85090000Y-189484000D02*
X85090000Y-188214000D01*
X92710000Y-189484000D02*
X85090000Y-189484000D01*
X92710000Y-188214000D02*
X92710000Y-189484000D01*
D11*
X103660000Y-157589564D02*
X103660000Y-156385436D01*
X101840000Y-157589564D02*
X101840000Y-156385436D01*
X107660000Y-157602064D02*
X107660000Y-156397936D01*
X105840000Y-157602064D02*
X105840000Y-156397936D01*
X103660000Y-151852064D02*
X103660000Y-150647936D01*
X101840000Y-151852064D02*
X101840000Y-150647936D01*
X107660000Y-151852064D02*
X107660000Y-150647936D01*
X105840000Y-151852064D02*
X105840000Y-150647936D01*
X105911007Y-179750000D02*
X105149007Y-179750000D01*
X105530007Y-179369000D02*
X105530007Y-180131000D01*
X106723006Y-181476997D02*
X113276994Y-181476997D01*
X113276994Y-181476997D02*
X113276994Y-181232738D01*
X113276994Y-178023003D02*
X106723006Y-178023003D01*
X106723006Y-178023003D02*
X106723006Y-178267262D01*
X106723006Y-181232738D02*
X106723006Y-181476997D01*
X113276994Y-178267262D02*
X113276994Y-178023003D01*
X68488748Y-153540000D02*
X69011252Y-153540000D01*
X68488748Y-154960000D02*
X69011252Y-154960000D01*
X109750000Y-144088000D02*
X109750000Y-121088000D01*
X100750000Y-144088000D02*
X109750000Y-144088000D01*
X100750000Y-121088000D02*
X100750000Y-144088000D01*
X109750000Y-121088000D02*
X100750000Y-121088000D01*
X69488748Y-140460000D02*
X70011252Y-140460000D01*
X69488748Y-139040000D02*
X70011252Y-139040000D01*
X78440000Y-147500000D02*
X78440000Y-150950000D01*
X78440000Y-147500000D02*
X78440000Y-145550000D01*
X88560000Y-147500000D02*
X88560000Y-149450000D01*
X88560000Y-147500000D02*
X88560000Y-145550000D01*
X119355000Y-124765000D02*
X113055000Y-124765000D01*
X113055000Y-124765000D02*
X113055000Y-123765000D01*
X113055000Y-123765000D02*
X119355000Y-123765000D01*
X119355000Y-124765000D02*
X119355000Y-123865000D01*
X119355000Y-123765000D02*
X119355000Y-123865000D01*
X120120000Y-145693000D02*
G75*
G03X120120000Y-145693000I-5120000J0D01*
G01*
X109920000Y-145693000D02*
X120080000Y-145693000D01*
X109920000Y-145653000D02*
X120080000Y-145653000D01*
X109920000Y-145613000D02*
X120080000Y-145613000D01*
X109921000Y-145573000D02*
X120079000Y-145573000D01*
X109922000Y-145533000D02*
X120078000Y-145533000D01*
X109923000Y-145493000D02*
X120077000Y-145493000D01*
X109925000Y-145453000D02*
X120075000Y-145453000D01*
X109927000Y-145413000D02*
X120073000Y-145413000D01*
X109930000Y-145373000D02*
X120070000Y-145373000D01*
X109932000Y-145333000D02*
X120068000Y-145333000D01*
X109935000Y-145293000D02*
X120065000Y-145293000D01*
X109938000Y-145253000D02*
X120062000Y-145253000D01*
X109942000Y-145213000D02*
X120058000Y-145213000D01*
X109946000Y-145173000D02*
X120054000Y-145173000D01*
X109950000Y-145133000D02*
X120050000Y-145133000D01*
X109955000Y-145093000D02*
X120045000Y-145093000D01*
X109960000Y-145053000D02*
X120040000Y-145053000D01*
X109965000Y-145013000D02*
X120035000Y-145013000D01*
X109970000Y-144972000D02*
X120030000Y-144972000D01*
X109976000Y-144932000D02*
X120024000Y-144932000D01*
X109982000Y-144892000D02*
X120018000Y-144892000D01*
X109989000Y-144852000D02*
X120011000Y-144852000D01*
X109996000Y-144812000D02*
X120004000Y-144812000D01*
X110003000Y-144772000D02*
X119997000Y-144772000D01*
X110010000Y-144732000D02*
X119990000Y-144732000D01*
X110018000Y-144692000D02*
X119982000Y-144692000D01*
X110026000Y-144652000D02*
X119974000Y-144652000D01*
X110035000Y-144612000D02*
X119965000Y-144612000D01*
X110044000Y-144572000D02*
X119956000Y-144572000D01*
X110053000Y-144532000D02*
X119947000Y-144532000D01*
X110062000Y-144492000D02*
X119938000Y-144492000D01*
X110072000Y-144452000D02*
X119928000Y-144452000D01*
X110082000Y-144412000D02*
X113759000Y-144412000D01*
X116241000Y-144412000D02*
X119918000Y-144412000D01*
X110093000Y-144372000D02*
X113759000Y-144372000D01*
X116241000Y-144372000D02*
X119907000Y-144372000D01*
X110103000Y-144332000D02*
X113759000Y-144332000D01*
X116241000Y-144332000D02*
X119897000Y-144332000D01*
X110115000Y-144292000D02*
X113759000Y-144292000D01*
X116241000Y-144292000D02*
X119885000Y-144292000D01*
X110126000Y-144252000D02*
X113759000Y-144252000D01*
X116241000Y-144252000D02*
X119874000Y-144252000D01*
X110138000Y-144212000D02*
X113759000Y-144212000D01*
X116241000Y-144212000D02*
X119862000Y-144212000D01*
X110150000Y-144172000D02*
X113759000Y-144172000D01*
X116241000Y-144172000D02*
X119850000Y-144172000D01*
X110163000Y-144132000D02*
X113759000Y-144132000D01*
X116241000Y-144132000D02*
X119837000Y-144132000D01*
X110176000Y-144092000D02*
X113759000Y-144092000D01*
X116241000Y-144092000D02*
X119824000Y-144092000D01*
X110189000Y-144052000D02*
X113759000Y-144052000D01*
X116241000Y-144052000D02*
X119811000Y-144052000D01*
X110203000Y-144012000D02*
X113759000Y-144012000D01*
X116241000Y-144012000D02*
X119797000Y-144012000D01*
X110217000Y-143972000D02*
X113759000Y-143972000D01*
X116241000Y-143972000D02*
X119783000Y-143972000D01*
X110232000Y-143932000D02*
X113759000Y-143932000D01*
X116241000Y-143932000D02*
X119768000Y-143932000D01*
X110246000Y-143892000D02*
X113759000Y-143892000D01*
X116241000Y-143892000D02*
X119754000Y-143892000D01*
X110262000Y-143852000D02*
X113759000Y-143852000D01*
X116241000Y-143852000D02*
X119738000Y-143852000D01*
X110277000Y-143812000D02*
X113759000Y-143812000D01*
X116241000Y-143812000D02*
X119723000Y-143812000D01*
X110293000Y-143772000D02*
X113759000Y-143772000D01*
X116241000Y-143772000D02*
X119707000Y-143772000D01*
X110310000Y-143732000D02*
X113759000Y-143732000D01*
X116241000Y-143732000D02*
X119690000Y-143732000D01*
X110326000Y-143692000D02*
X113759000Y-143692000D01*
X116241000Y-143692000D02*
X119674000Y-143692000D01*
X110343000Y-143652000D02*
X113759000Y-143652000D01*
X116241000Y-143652000D02*
X119657000Y-143652000D01*
X110361000Y-143612000D02*
X113759000Y-143612000D01*
X116241000Y-143612000D02*
X119639000Y-143612000D01*
X110379000Y-143572000D02*
X113759000Y-143572000D01*
X116241000Y-143572000D02*
X119621000Y-143572000D01*
X110397000Y-143532000D02*
X113759000Y-143532000D01*
X116241000Y-143532000D02*
X119603000Y-143532000D01*
X110416000Y-143492000D02*
X113759000Y-143492000D01*
X116241000Y-143492000D02*
X119584000Y-143492000D01*
X110436000Y-143452000D02*
X113759000Y-143452000D01*
X116241000Y-143452000D02*
X119564000Y-143452000D01*
X110455000Y-143412000D02*
X113759000Y-143412000D01*
X116241000Y-143412000D02*
X119545000Y-143412000D01*
X110475000Y-143372000D02*
X113759000Y-143372000D01*
X116241000Y-143372000D02*
X119525000Y-143372000D01*
X110496000Y-143332000D02*
X113759000Y-143332000D01*
X116241000Y-143332000D02*
X119504000Y-143332000D01*
X110517000Y-143292000D02*
X113759000Y-143292000D01*
X116241000Y-143292000D02*
X119483000Y-143292000D01*
X110538000Y-143252000D02*
X113759000Y-143252000D01*
X116241000Y-143252000D02*
X119462000Y-143252000D01*
X110560000Y-143212000D02*
X113759000Y-143212000D01*
X116241000Y-143212000D02*
X119440000Y-143212000D01*
X110583000Y-143172000D02*
X113759000Y-143172000D01*
X116241000Y-143172000D02*
X119417000Y-143172000D01*
X110605000Y-143132000D02*
X113759000Y-143132000D01*
X116241000Y-143132000D02*
X119395000Y-143132000D01*
X110629000Y-143092000D02*
X113759000Y-143092000D01*
X116241000Y-143092000D02*
X119371000Y-143092000D01*
X110653000Y-143052000D02*
X113759000Y-143052000D01*
X116241000Y-143052000D02*
X119347000Y-143052000D01*
X110677000Y-143012000D02*
X113759000Y-143012000D01*
X116241000Y-143012000D02*
X119323000Y-143012000D01*
X110702000Y-142972000D02*
X113759000Y-142972000D01*
X116241000Y-142972000D02*
X119298000Y-142972000D01*
X110727000Y-142932000D02*
X113759000Y-142932000D01*
X116241000Y-142932000D02*
X119273000Y-142932000D01*
X110753000Y-142892000D02*
X113759000Y-142892000D01*
X116241000Y-142892000D02*
X119247000Y-142892000D01*
X110779000Y-142852000D02*
X113759000Y-142852000D01*
X116241000Y-142852000D02*
X119221000Y-142852000D01*
X110806000Y-142812000D02*
X113759000Y-142812000D01*
X116241000Y-142812000D02*
X119194000Y-142812000D01*
X110834000Y-142772000D02*
X113759000Y-142772000D01*
X116241000Y-142772000D02*
X119166000Y-142772000D01*
X110862000Y-142732000D02*
X113759000Y-142732000D01*
X116241000Y-142732000D02*
X119138000Y-142732000D01*
X110890000Y-142692000D02*
X113759000Y-142692000D01*
X116241000Y-142692000D02*
X119110000Y-142692000D01*
X110920000Y-142652000D02*
X113759000Y-142652000D01*
X116241000Y-142652000D02*
X119080000Y-142652000D01*
X110950000Y-142612000D02*
X113759000Y-142612000D01*
X116241000Y-142612000D02*
X119050000Y-142612000D01*
X110980000Y-142572000D02*
X113759000Y-142572000D01*
X116241000Y-142572000D02*
X119020000Y-142572000D01*
X111011000Y-142532000D02*
X113759000Y-142532000D01*
X116241000Y-142532000D02*
X118989000Y-142532000D01*
X111043000Y-142492000D02*
X113759000Y-142492000D01*
X116241000Y-142492000D02*
X118957000Y-142492000D01*
X111075000Y-142452000D02*
X113759000Y-142452000D01*
X116241000Y-142452000D02*
X118925000Y-142452000D01*
X111108000Y-142412000D02*
X113759000Y-142412000D01*
X116241000Y-142412000D02*
X118892000Y-142412000D01*
X111142000Y-142372000D02*
X113759000Y-142372000D01*
X116241000Y-142372000D02*
X118858000Y-142372000D01*
X111176000Y-142332000D02*
X113759000Y-142332000D01*
X116241000Y-142332000D02*
X118824000Y-142332000D01*
X111211000Y-142292000D02*
X113759000Y-142292000D01*
X116241000Y-142292000D02*
X118789000Y-142292000D01*
X111247000Y-142252000D02*
X113759000Y-142252000D01*
X116241000Y-142252000D02*
X118753000Y-142252000D01*
X111284000Y-142212000D02*
X113759000Y-142212000D01*
X116241000Y-142212000D02*
X118716000Y-142212000D01*
X111321000Y-142172000D02*
X113759000Y-142172000D01*
X116241000Y-142172000D02*
X118679000Y-142172000D01*
X111360000Y-142132000D02*
X113759000Y-142132000D01*
X116241000Y-142132000D02*
X118640000Y-142132000D01*
X111399000Y-142092000D02*
X113759000Y-142092000D01*
X116241000Y-142092000D02*
X118601000Y-142092000D01*
X111439000Y-142052000D02*
X113759000Y-142052000D01*
X116241000Y-142052000D02*
X118561000Y-142052000D01*
X111480000Y-142012000D02*
X113759000Y-142012000D01*
X116241000Y-142012000D02*
X118520000Y-142012000D01*
X111522000Y-141972000D02*
X113759000Y-141972000D01*
X116241000Y-141972000D02*
X118478000Y-141972000D01*
X111564000Y-141932000D02*
X118436000Y-141932000D01*
X111608000Y-141892000D02*
X118392000Y-141892000D01*
X111653000Y-141852000D02*
X118347000Y-141852000D01*
X111699000Y-141812000D02*
X118301000Y-141812000D01*
X111746000Y-141772000D02*
X118254000Y-141772000D01*
X111794000Y-141732000D02*
X118206000Y-141732000D01*
X111844000Y-141692000D02*
X118156000Y-141692000D01*
X111894000Y-141652000D02*
X118106000Y-141652000D01*
X111946000Y-141612000D02*
X118054000Y-141612000D01*
X112000000Y-141572000D02*
X118000000Y-141572000D01*
X112055000Y-141532000D02*
X117945000Y-141532000D01*
X112111000Y-141492000D02*
X117889000Y-141492000D01*
X112170000Y-141452000D02*
X117830000Y-141452000D01*
X112230000Y-141412000D02*
X117770000Y-141412000D01*
X112291000Y-141372000D02*
X117709000Y-141372000D01*
X112355000Y-141332000D02*
X117645000Y-141332000D01*
X112421000Y-141292000D02*
X117579000Y-141292000D01*
X112490000Y-141252000D02*
X117510000Y-141252000D01*
X112561000Y-141212000D02*
X117439000Y-141212000D01*
X112635000Y-141172000D02*
X117365000Y-141172000D01*
X112711000Y-141132000D02*
X117289000Y-141132000D01*
X112791000Y-141092000D02*
X117209000Y-141092000D01*
X112875000Y-141052000D02*
X117125000Y-141052000D01*
X112963000Y-141012000D02*
X117037000Y-141012000D01*
X113056000Y-140972000D02*
X116944000Y-140972000D01*
X113154000Y-140932000D02*
X116846000Y-140932000D01*
X113258000Y-140892000D02*
X116742000Y-140892000D01*
X113370000Y-140852000D02*
X116630000Y-140852000D01*
X113490000Y-140812000D02*
X116510000Y-140812000D01*
X113622000Y-140772000D02*
X116378000Y-140772000D01*
X113770000Y-140732000D02*
X116230000Y-140732000D01*
X113938000Y-140692000D02*
X116062000Y-140692000D01*
X114138000Y-140652000D02*
X115862000Y-140652000D01*
X114401000Y-140612000D02*
X115599000Y-140612000D01*
X112125000Y-151172646D02*
X112125000Y-150172646D01*
X111625000Y-150672646D02*
X112625000Y-150672646D01*
X67245000Y-150860000D02*
X67245000Y-152675000D01*
X66990000Y-150860000D02*
X67245000Y-150860000D01*
X66990000Y-147000000D02*
X66990000Y-150860000D01*
X66990000Y-143140000D02*
X67245000Y-143140000D01*
X66990000Y-147000000D02*
X66990000Y-143140000D01*
X77510000Y-150860000D02*
X77255000Y-150860000D01*
X77510000Y-147000000D02*
X77510000Y-150860000D01*
X77510000Y-143140000D02*
X77255000Y-143140000D01*
X77510000Y-147000000D02*
X77510000Y-143140000D01*
X98290000Y-122515000D02*
X98290000Y-128815000D01*
X98290000Y-128815000D02*
X97290000Y-128815000D01*
X97290000Y-128815000D02*
X97290000Y-122515000D01*
X98290000Y-122515000D02*
X97390000Y-122515000D01*
X97290000Y-122515000D02*
X97390000Y-122515000D01*
X88168100Y-122311800D02*
X88168100Y-128611800D01*
X88168100Y-128611800D02*
X87168100Y-128611800D01*
X87168100Y-128611800D02*
X87168100Y-122311800D01*
X88168100Y-122311800D02*
X87268100Y-122311800D01*
X87168100Y-122311800D02*
X87268100Y-122311800D01*
X79510000Y-128624500D02*
X79510000Y-122324500D01*
X79510000Y-122324500D02*
X80510000Y-122324500D01*
X80510000Y-122324500D02*
X80510000Y-128624500D01*
X79510000Y-128624500D02*
X80410000Y-128624500D01*
X80510000Y-128624500D02*
X80410000Y-128624500D01*
X96460000Y-146011252D02*
X96460000Y-145488748D01*
X95040000Y-146011252D02*
X95040000Y-145488748D01*
X78598000Y-136343000D02*
X78598000Y-140203000D01*
X78598000Y-140203000D02*
X78853000Y-140203000D01*
X78598000Y-136343000D02*
X78598000Y-132483000D01*
X78598000Y-132483000D02*
X78853000Y-132483000D01*
X89118000Y-136343000D02*
X89118000Y-140203000D01*
X89118000Y-140203000D02*
X88863000Y-140203000D01*
X89118000Y-136343000D02*
X89118000Y-132483000D01*
X89118000Y-132483000D02*
X88863000Y-132483000D01*
X88863000Y-132483000D02*
X88863000Y-130668000D01*
X92790000Y-146011252D02*
X92790000Y-145488748D01*
X94210000Y-146011252D02*
X94210000Y-145488748D01*
X95011252Y-148290000D02*
X94488748Y-148290000D01*
X95011252Y-149710000D02*
X94488748Y-149710000D01*
D13*
X116300000Y-134250000D02*
X116300000Y-139950000D01*
X123300000Y-134250000D02*
X123300000Y-139950000D01*
X116300000Y-134250000D02*
X123300000Y-134250000D01*
X116300000Y-139950000D02*
X123300000Y-139950000D01*
D11*
X113250000Y-184200000D02*
X110100000Y-184200000D01*
X113250000Y-182500000D02*
X110100000Y-182500000D01*
X113250000Y-184200000D02*
X113250000Y-182500000D01*
X113250000Y-186350000D02*
X113250000Y-184650000D01*
X113250000Y-184650000D02*
X110100000Y-184650000D01*
X113250000Y-186350000D02*
X110100000Y-186350000D01*
X107511252Y-175790000D02*
X106988748Y-175790000D01*
X107511252Y-177210000D02*
X106988748Y-177210000D01*
D18*
X75864714Y-157326047D02*
X75864714Y-158187833D01*
X75807261Y-158360190D01*
X75692357Y-158475095D01*
X75519999Y-158532547D01*
X75405095Y-158532547D01*
X76496690Y-158532547D02*
X76726499Y-158532547D01*
X76841404Y-158475095D01*
X76898857Y-158417642D01*
X77013761Y-158245285D01*
X77071214Y-158015476D01*
X77071214Y-157555857D01*
X77013761Y-157440952D01*
X76956309Y-157383500D01*
X76841404Y-157326047D01*
X76611595Y-157326047D01*
X76496690Y-157383500D01*
X76439238Y-157440952D01*
X76381785Y-157555857D01*
X76381785Y-157843119D01*
X76439238Y-157958023D01*
X76496690Y-158015476D01*
X76611595Y-158072928D01*
X76841404Y-158072928D01*
X76956309Y-158015476D01*
X77013761Y-157958023D01*
X77071214Y-157843119D01*
D13*
X110083333Y-169107142D02*
X110035714Y-169154761D01*
X109892857Y-169202380D01*
X109797619Y-169202380D01*
X109654761Y-169154761D01*
X109559523Y-169059523D01*
X109511904Y-168964285D01*
X109464285Y-168773809D01*
X109464285Y-168630952D01*
X109511904Y-168440476D01*
X109559523Y-168345238D01*
X109654761Y-168250000D01*
X109797619Y-168202380D01*
X109892857Y-168202380D01*
X110035714Y-168250000D01*
X110083333Y-168297619D01*
X110940476Y-168202380D02*
X110750000Y-168202380D01*
X110654761Y-168250000D01*
X110607142Y-168297619D01*
X110511904Y-168440476D01*
X110464285Y-168630952D01*
X110464285Y-169011904D01*
X110511904Y-169107142D01*
X110559523Y-169154761D01*
X110654761Y-169202380D01*
X110845238Y-169202380D01*
X110940476Y-169154761D01*
X110988095Y-169107142D01*
X111035714Y-169011904D01*
X111035714Y-168773809D01*
X110988095Y-168678571D01*
X110940476Y-168630952D01*
X110845238Y-168583333D01*
X110654761Y-168583333D01*
X110559523Y-168630952D01*
X110511904Y-168678571D01*
X110464285Y-168773809D01*
X93352380Y-143941666D02*
X92876190Y-144275000D01*
X93352380Y-144513095D02*
X92352380Y-144513095D01*
X92352380Y-144132142D01*
X92400000Y-144036904D01*
X92447619Y-143989285D01*
X92542857Y-143941666D01*
X92685714Y-143941666D01*
X92780952Y-143989285D01*
X92828571Y-144036904D01*
X92876190Y-144132142D01*
X92876190Y-144513095D01*
X92352380Y-143036904D02*
X92352380Y-143513095D01*
X92828571Y-143560714D01*
X92780952Y-143513095D01*
X92733333Y-143417857D01*
X92733333Y-143179761D01*
X92780952Y-143084523D01*
X92828571Y-143036904D01*
X92923809Y-142989285D01*
X93161904Y-142989285D01*
X93257142Y-143036904D01*
X93304761Y-143084523D01*
X93352380Y-143179761D01*
X93352380Y-143417857D01*
X93304761Y-143513095D01*
X93257142Y-143560714D01*
X126702380Y-162764285D02*
X125702380Y-162764285D01*
X125702380Y-162383333D01*
X125750000Y-162288095D01*
X125797619Y-162240476D01*
X125892857Y-162192857D01*
X126035714Y-162192857D01*
X126130952Y-162240476D01*
X126178571Y-162288095D01*
X126226190Y-162383333D01*
X126226190Y-162764285D01*
X126654761Y-161811904D02*
X126702380Y-161669047D01*
X126702380Y-161430952D01*
X126654761Y-161335714D01*
X126607142Y-161288095D01*
X126511904Y-161240476D01*
X126416666Y-161240476D01*
X126321428Y-161288095D01*
X126273809Y-161335714D01*
X126226190Y-161430952D01*
X126178571Y-161621428D01*
X126130952Y-161716666D01*
X126083333Y-161764285D01*
X125988095Y-161811904D01*
X125892857Y-161811904D01*
X125797619Y-161764285D01*
X125750000Y-161716666D01*
X125702380Y-161621428D01*
X125702380Y-161383333D01*
X125750000Y-161240476D01*
X126702380Y-160288095D02*
X126702380Y-160859523D01*
X126702380Y-160573809D02*
X125702380Y-160573809D01*
X125845238Y-160669047D01*
X125940476Y-160764285D01*
X125988095Y-160859523D01*
X77978095Y-186396380D02*
X77978095Y-187205904D01*
X78025714Y-187301142D01*
X78073333Y-187348761D01*
X78168571Y-187396380D01*
X78359047Y-187396380D01*
X78454285Y-187348761D01*
X78501904Y-187301142D01*
X78549523Y-187205904D01*
X78549523Y-186396380D01*
X78930476Y-186396380D02*
X79549523Y-186396380D01*
X79216190Y-186777333D01*
X79359047Y-186777333D01*
X79454285Y-186824952D01*
X79501904Y-186872571D01*
X79549523Y-186967809D01*
X79549523Y-187205904D01*
X79501904Y-187301142D01*
X79454285Y-187348761D01*
X79359047Y-187396380D01*
X79073333Y-187396380D01*
X78978095Y-187348761D01*
X78930476Y-187301142D01*
X87500000Y-168972666D02*
X87500000Y-168272666D01*
X87666666Y-168272666D01*
X87766666Y-168306000D01*
X87833333Y-168372666D01*
X87866666Y-168439333D01*
X87900000Y-168572666D01*
X87900000Y-168672666D01*
X87866666Y-168806000D01*
X87833333Y-168872666D01*
X87766666Y-168939333D01*
X87666666Y-168972666D01*
X87500000Y-168972666D01*
X88100000Y-168272666D02*
X88333333Y-168972666D01*
X88566666Y-168272666D01*
X89133333Y-168972666D02*
X88800000Y-168972666D01*
X88800000Y-168272666D01*
X89666666Y-168272666D02*
X89533333Y-168272666D01*
X89466666Y-168306000D01*
X89433333Y-168339333D01*
X89366666Y-168439333D01*
X89333333Y-168572666D01*
X89333333Y-168839333D01*
X89366666Y-168906000D01*
X89400000Y-168939333D01*
X89466666Y-168972666D01*
X89600000Y-168972666D01*
X89666666Y-168939333D01*
X89700000Y-168906000D01*
X89733333Y-168839333D01*
X89733333Y-168672666D01*
X89700000Y-168606000D01*
X89666666Y-168572666D01*
X89600000Y-168539333D01*
X89466666Y-168539333D01*
X89400000Y-168572666D01*
X89366666Y-168606000D01*
X89333333Y-168672666D01*
X90000000Y-168772666D02*
X90333333Y-168772666D01*
X89933333Y-168972666D02*
X90166666Y-168272666D01*
X90400000Y-168972666D01*
X85816666Y-170496666D02*
X85816666Y-169796666D01*
X86050000Y-170296666D01*
X86283333Y-169796666D01*
X86283333Y-170496666D01*
X86616666Y-170496666D02*
X86616666Y-169796666D01*
X86950000Y-170496666D02*
X86950000Y-169796666D01*
X87183333Y-170296666D01*
X87416666Y-169796666D01*
X87416666Y-170496666D01*
X87683333Y-169796666D02*
X88150000Y-170496666D01*
X88150000Y-169796666D02*
X87683333Y-170496666D01*
X88816666Y-170496666D02*
X88583333Y-170163333D01*
X88416666Y-170496666D02*
X88416666Y-169796666D01*
X88683333Y-169796666D01*
X88750000Y-169830000D01*
X88783333Y-169863333D01*
X88816666Y-169930000D01*
X88816666Y-170030000D01*
X88783333Y-170096666D01*
X88750000Y-170130000D01*
X88683333Y-170163333D01*
X88416666Y-170163333D01*
X89016666Y-169796666D02*
X89416666Y-169796666D01*
X89216666Y-170496666D02*
X89216666Y-169796666D01*
X90016666Y-170496666D02*
X89616666Y-170496666D01*
X89816666Y-170496666D02*
X89816666Y-169796666D01*
X89750000Y-169896666D01*
X89683333Y-169963333D01*
X89616666Y-169996666D01*
X90450000Y-169796666D02*
X90516666Y-169796666D01*
X90583333Y-169830000D01*
X90616666Y-169863333D01*
X90650000Y-169930000D01*
X90683333Y-170063333D01*
X90683333Y-170230000D01*
X90650000Y-170363333D01*
X90616666Y-170430000D01*
X90583333Y-170463333D01*
X90516666Y-170496666D01*
X90450000Y-170496666D01*
X90383333Y-170463333D01*
X90350000Y-170430000D01*
X90316666Y-170363333D01*
X90283333Y-170230000D01*
X90283333Y-170063333D01*
X90316666Y-169930000D01*
X90350000Y-169863333D01*
X90383333Y-169830000D01*
X90450000Y-169796666D01*
X91283333Y-169796666D02*
X91150000Y-169796666D01*
X91083333Y-169830000D01*
X91050000Y-169863333D01*
X90983333Y-169963333D01*
X90950000Y-170096666D01*
X90950000Y-170363333D01*
X90983333Y-170430000D01*
X91016666Y-170463333D01*
X91083333Y-170496666D01*
X91216666Y-170496666D01*
X91283333Y-170463333D01*
X91316666Y-170430000D01*
X91350000Y-170363333D01*
X91350000Y-170196666D01*
X91316666Y-170130000D01*
X91283333Y-170096666D01*
X91216666Y-170063333D01*
X91083333Y-170063333D01*
X91016666Y-170096666D01*
X90983333Y-170130000D01*
X90950000Y-170196666D01*
X91616666Y-169863333D02*
X91650000Y-169830000D01*
X91716666Y-169796666D01*
X91883333Y-169796666D01*
X91950000Y-169830000D01*
X91983333Y-169863333D01*
X92016666Y-169930000D01*
X92016666Y-169996666D01*
X91983333Y-170096666D01*
X91583333Y-170496666D01*
X92016666Y-170496666D01*
X101382380Y-157154166D02*
X100906190Y-157487500D01*
X101382380Y-157725595D02*
X100382380Y-157725595D01*
X100382380Y-157344642D01*
X100430000Y-157249404D01*
X100477619Y-157201785D01*
X100572857Y-157154166D01*
X100715714Y-157154166D01*
X100810952Y-157201785D01*
X100858571Y-157249404D01*
X100906190Y-157344642D01*
X100906190Y-157725595D01*
X100715714Y-156297023D02*
X101382380Y-156297023D01*
X100334761Y-156535119D02*
X101049047Y-156773214D01*
X101049047Y-156154166D01*
X105382380Y-157166666D02*
X104906190Y-157500000D01*
X105382380Y-157738095D02*
X104382380Y-157738095D01*
X104382380Y-157357142D01*
X104430000Y-157261904D01*
X104477619Y-157214285D01*
X104572857Y-157166666D01*
X104715714Y-157166666D01*
X104810952Y-157214285D01*
X104858571Y-157261904D01*
X104906190Y-157357142D01*
X104906190Y-157738095D01*
X104382380Y-156833333D02*
X104382380Y-156214285D01*
X104763333Y-156547619D01*
X104763333Y-156404761D01*
X104810952Y-156309523D01*
X104858571Y-156261904D01*
X104953809Y-156214285D01*
X105191904Y-156214285D01*
X105287142Y-156261904D01*
X105334761Y-156309523D01*
X105382380Y-156404761D01*
X105382380Y-156690476D01*
X105334761Y-156785714D01*
X105287142Y-156833333D01*
X101382380Y-151416666D02*
X100906190Y-151750000D01*
X101382380Y-151988095D02*
X100382380Y-151988095D01*
X100382380Y-151607142D01*
X100430000Y-151511904D01*
X100477619Y-151464285D01*
X100572857Y-151416666D01*
X100715714Y-151416666D01*
X100810952Y-151464285D01*
X100858571Y-151511904D01*
X100906190Y-151607142D01*
X100906190Y-151988095D01*
X100477619Y-151035714D02*
X100430000Y-150988095D01*
X100382380Y-150892857D01*
X100382380Y-150654761D01*
X100430000Y-150559523D01*
X100477619Y-150511904D01*
X100572857Y-150464285D01*
X100668095Y-150464285D01*
X100810952Y-150511904D01*
X101382380Y-151083333D01*
X101382380Y-150464285D01*
X105382380Y-151416666D02*
X104906190Y-151750000D01*
X105382380Y-151988095D02*
X104382380Y-151988095D01*
X104382380Y-151607142D01*
X104430000Y-151511904D01*
X104477619Y-151464285D01*
X104572857Y-151416666D01*
X104715714Y-151416666D01*
X104810952Y-151464285D01*
X104858571Y-151511904D01*
X104906190Y-151607142D01*
X104906190Y-151988095D01*
X105382380Y-150464285D02*
X105382380Y-151035714D01*
X105382380Y-150750000D02*
X104382380Y-150750000D01*
X104525238Y-150845238D01*
X104620476Y-150940476D01*
X104668095Y-151035714D01*
X110333333Y-176107142D02*
X110285714Y-176154761D01*
X110142857Y-176202380D01*
X110047619Y-176202380D01*
X109904761Y-176154761D01*
X109809523Y-176059523D01*
X109761904Y-175964285D01*
X109714285Y-175773809D01*
X109714285Y-175630952D01*
X109761904Y-175440476D01*
X109809523Y-175345238D01*
X109904761Y-175250000D01*
X110047619Y-175202380D01*
X110142857Y-175202380D01*
X110285714Y-175250000D01*
X110333333Y-175297619D01*
X110666666Y-175202380D02*
X111333333Y-175202380D01*
X110904761Y-176202380D01*
X71438333Y-154497142D02*
X71390714Y-154544761D01*
X71247857Y-154592380D01*
X71152619Y-154592380D01*
X71009761Y-154544761D01*
X70914523Y-154449523D01*
X70866904Y-154354285D01*
X70819285Y-154163809D01*
X70819285Y-154020952D01*
X70866904Y-153830476D01*
X70914523Y-153735238D01*
X71009761Y-153640000D01*
X71152619Y-153592380D01*
X71247857Y-153592380D01*
X71390714Y-153640000D01*
X71438333Y-153687619D01*
X72295476Y-153925714D02*
X72295476Y-154592380D01*
X72057380Y-153544761D02*
X71819285Y-154259047D01*
X72438333Y-154259047D01*
X110639571Y-131143333D02*
X110639571Y-131476666D01*
X111163380Y-131476666D02*
X110163380Y-131476666D01*
X110163380Y-131000476D01*
X111163380Y-130095714D02*
X111163380Y-130667142D01*
X111163380Y-130381428D02*
X110163380Y-130381428D01*
X110306238Y-130476666D01*
X110401476Y-130571904D01*
X110449095Y-130667142D01*
X69583333Y-138107142D02*
X69535714Y-138154761D01*
X69392857Y-138202380D01*
X69297619Y-138202380D01*
X69154761Y-138154761D01*
X69059523Y-138059523D01*
X69011904Y-137964285D01*
X68964285Y-137773809D01*
X68964285Y-137630952D01*
X69011904Y-137440476D01*
X69059523Y-137345238D01*
X69154761Y-137250000D01*
X69297619Y-137202380D01*
X69392857Y-137202380D01*
X69535714Y-137250000D01*
X69583333Y-137297619D01*
X69916666Y-137202380D02*
X70535714Y-137202380D01*
X70202380Y-137583333D01*
X70345238Y-137583333D01*
X70440476Y-137630952D01*
X70488095Y-137678571D01*
X70535714Y-137773809D01*
X70535714Y-138011904D01*
X70488095Y-138107142D01*
X70440476Y-138154761D01*
X70345238Y-138202380D01*
X70059523Y-138202380D01*
X69964285Y-138154761D01*
X69916666Y-138107142D01*
X88838095Y-147652380D02*
X88838095Y-148461904D01*
X88885714Y-148557142D01*
X88933333Y-148604761D01*
X89028571Y-148652380D01*
X89219047Y-148652380D01*
X89314285Y-148604761D01*
X89361904Y-148557142D01*
X89409523Y-148461904D01*
X89409523Y-147652380D01*
X90314285Y-147985714D02*
X90314285Y-148652380D01*
X90076190Y-147604761D02*
X89838095Y-148319047D01*
X90457142Y-148319047D01*
X115871666Y-121372380D02*
X115871666Y-122086666D01*
X115824047Y-122229523D01*
X115728809Y-122324761D01*
X115585952Y-122372380D01*
X115490714Y-122372380D01*
X116776428Y-121705714D02*
X116776428Y-122372380D01*
X116538333Y-121324761D02*
X116300238Y-122039047D01*
X116919285Y-122039047D01*
X112219673Y-140523742D02*
X112172054Y-140571361D01*
X112029197Y-140618980D01*
X111933959Y-140618980D01*
X111791101Y-140571361D01*
X111695863Y-140476123D01*
X111648244Y-140380885D01*
X111600625Y-140190409D01*
X111600625Y-140047552D01*
X111648244Y-139857076D01*
X111695863Y-139761838D01*
X111791101Y-139666600D01*
X111933959Y-139618980D01*
X112029197Y-139618980D01*
X112172054Y-139666600D01*
X112219673Y-139714219D01*
X113124435Y-139618980D02*
X112648244Y-139618980D01*
X112600625Y-140095171D01*
X112648244Y-140047552D01*
X112743482Y-139999933D01*
X112981578Y-139999933D01*
X113076816Y-140047552D01*
X113124435Y-140095171D01*
X113172054Y-140190409D01*
X113172054Y-140428504D01*
X113124435Y-140523742D01*
X113076816Y-140571361D01*
X112981578Y-140618980D01*
X112743482Y-140618980D01*
X112648244Y-140571361D01*
X112600625Y-140523742D01*
X71988095Y-138702380D02*
X71988095Y-139511904D01*
X72035714Y-139607142D01*
X72083333Y-139654761D01*
X72178571Y-139702380D01*
X72369047Y-139702380D01*
X72464285Y-139654761D01*
X72511904Y-139607142D01*
X72559523Y-139511904D01*
X72559523Y-138702380D01*
X73559523Y-139702380D02*
X72988095Y-139702380D01*
X73273809Y-139702380D02*
X73273809Y-138702380D01*
X73178571Y-138845238D01*
X73083333Y-138940476D01*
X72988095Y-138988095D01*
X94916666Y-122007380D02*
X94916666Y-122721666D01*
X94869047Y-122864523D01*
X94773809Y-122959761D01*
X94630952Y-123007380D01*
X94535714Y-123007380D01*
X95345238Y-122102619D02*
X95392857Y-122055000D01*
X95488095Y-122007380D01*
X95726190Y-122007380D01*
X95821428Y-122055000D01*
X95869047Y-122102619D01*
X95916666Y-122197857D01*
X95916666Y-122293095D01*
X95869047Y-122435952D01*
X95297619Y-123007380D01*
X95916666Y-123007380D01*
X90596126Y-122096280D02*
X90596126Y-122810566D01*
X90548507Y-122953423D01*
X90453269Y-123048661D01*
X90310412Y-123096280D01*
X90215174Y-123096280D01*
X90977079Y-122096280D02*
X91596126Y-122096280D01*
X91262793Y-122477233D01*
X91405650Y-122477233D01*
X91500888Y-122524852D01*
X91548507Y-122572471D01*
X91596126Y-122667709D01*
X91596126Y-122905804D01*
X91548507Y-123001042D01*
X91500888Y-123048661D01*
X91405650Y-123096280D01*
X91119936Y-123096280D01*
X91024698Y-123048661D01*
X90977079Y-123001042D01*
X76374666Y-122007380D02*
X76374666Y-122721666D01*
X76327047Y-122864523D01*
X76231809Y-122959761D01*
X76088952Y-123007380D01*
X75993714Y-123007380D01*
X77374666Y-123007380D02*
X76803238Y-123007380D01*
X77088952Y-123007380D02*
X77088952Y-122007380D01*
X76993714Y-122150238D01*
X76898476Y-122245476D01*
X76803238Y-122293095D01*
X97907142Y-146917857D02*
X97954761Y-146965476D01*
X98002380Y-147108333D01*
X98002380Y-147203571D01*
X97954761Y-147346428D01*
X97859523Y-147441666D01*
X97764285Y-147489285D01*
X97573809Y-147536904D01*
X97430952Y-147536904D01*
X97240476Y-147489285D01*
X97145238Y-147441666D01*
X97050000Y-147346428D01*
X97002380Y-147203571D01*
X97002380Y-147108333D01*
X97050000Y-146965476D01*
X97097619Y-146917857D01*
X98002380Y-145965476D02*
X98002380Y-146536904D01*
X98002380Y-146251190D02*
X97002380Y-146251190D01*
X97145238Y-146346428D01*
X97240476Y-146441666D01*
X97288095Y-146536904D01*
X97002380Y-145346428D02*
X97002380Y-145251190D01*
X97050000Y-145155952D01*
X97097619Y-145108333D01*
X97192857Y-145060714D01*
X97383333Y-145013095D01*
X97621428Y-145013095D01*
X97811904Y-145060714D01*
X97907142Y-145108333D01*
X97954761Y-145155952D01*
X98002380Y-145251190D01*
X98002380Y-145346428D01*
X97954761Y-145441666D01*
X97907142Y-145489285D01*
X97811904Y-145536904D01*
X97621428Y-145584523D01*
X97383333Y-145584523D01*
X97192857Y-145536904D01*
X97097619Y-145489285D01*
X97050000Y-145441666D01*
X97002380Y-145346428D01*
X89408095Y-134072380D02*
X89408095Y-134881904D01*
X89455714Y-134977142D01*
X89503333Y-135024761D01*
X89598571Y-135072380D01*
X89789047Y-135072380D01*
X89884285Y-135024761D01*
X89931904Y-134977142D01*
X89979523Y-134881904D01*
X89979523Y-134072380D01*
X90408095Y-134167619D02*
X90455714Y-134120000D01*
X90550952Y-134072380D01*
X90789047Y-134072380D01*
X90884285Y-134120000D01*
X90931904Y-134167619D01*
X90979523Y-134262857D01*
X90979523Y-134358095D01*
X90931904Y-134500952D01*
X90360476Y-135072380D01*
X90979523Y-135072380D01*
X92107142Y-147166666D02*
X92154761Y-147214285D01*
X92202380Y-147357142D01*
X92202380Y-147452380D01*
X92154761Y-147595238D01*
X92059523Y-147690476D01*
X91964285Y-147738095D01*
X91773809Y-147785714D01*
X91630952Y-147785714D01*
X91440476Y-147738095D01*
X91345238Y-147690476D01*
X91250000Y-147595238D01*
X91202380Y-147452380D01*
X91202380Y-147357142D01*
X91250000Y-147214285D01*
X91297619Y-147166666D01*
X92202380Y-146690476D02*
X92202380Y-146500000D01*
X92154761Y-146404761D01*
X92107142Y-146357142D01*
X91964285Y-146261904D01*
X91773809Y-146214285D01*
X91392857Y-146214285D01*
X91297619Y-146261904D01*
X91250000Y-146309523D01*
X91202380Y-146404761D01*
X91202380Y-146595238D01*
X91250000Y-146690476D01*
X91297619Y-146738095D01*
X91392857Y-146785714D01*
X91630952Y-146785714D01*
X91726190Y-146738095D01*
X91773809Y-146690476D01*
X91821428Y-146595238D01*
X91821428Y-146404761D01*
X91773809Y-146309523D01*
X91726190Y-146261904D01*
X91630952Y-146214285D01*
X97607142Y-149452380D02*
X97273809Y-148976190D01*
X97035714Y-149452380D02*
X97035714Y-148452380D01*
X97416666Y-148452380D01*
X97511904Y-148500000D01*
X97559523Y-148547619D01*
X97607142Y-148642857D01*
X97607142Y-148785714D01*
X97559523Y-148880952D01*
X97511904Y-148928571D01*
X97416666Y-148976190D01*
X97035714Y-148976190D01*
X97988095Y-149404761D02*
X98130952Y-149452380D01*
X98369047Y-149452380D01*
X98464285Y-149404761D01*
X98511904Y-149357142D01*
X98559523Y-149261904D01*
X98559523Y-149166666D01*
X98511904Y-149071428D01*
X98464285Y-149023809D01*
X98369047Y-148976190D01*
X98178571Y-148928571D01*
X98083333Y-148880952D01*
X98035714Y-148833333D01*
X97988095Y-148738095D01*
X97988095Y-148642857D01*
X98035714Y-148547619D01*
X98083333Y-148500000D01*
X98178571Y-148452380D01*
X98416666Y-148452380D01*
X98559523Y-148500000D01*
X99511904Y-149452380D02*
X98940476Y-149452380D01*
X99226190Y-149452380D02*
X99226190Y-148452380D01*
X99130952Y-148595238D01*
X99035714Y-148690476D01*
X98940476Y-148738095D01*
X117370241Y-141526080D02*
X117036908Y-141049890D01*
X116798813Y-141526080D02*
X116798813Y-140526080D01*
X117179765Y-140526080D01*
X117275003Y-140573700D01*
X117322622Y-140621319D01*
X117370241Y-140716557D01*
X117370241Y-140859414D01*
X117322622Y-140954652D01*
X117275003Y-141002271D01*
X117179765Y-141049890D01*
X116798813Y-141049890D01*
X117655956Y-140526080D02*
X117989289Y-141526080D01*
X118322622Y-140526080D01*
X119179765Y-141526080D02*
X118608337Y-141526080D01*
X118894051Y-141526080D02*
X118894051Y-140526080D01*
X118798813Y-140668938D01*
X118703575Y-140764176D01*
X118608337Y-140811795D01*
X114702380Y-183988095D02*
X113702380Y-183988095D01*
X113702380Y-183750000D01*
X113750000Y-183607142D01*
X113845238Y-183511904D01*
X113940476Y-183464285D01*
X114130952Y-183416666D01*
X114273809Y-183416666D01*
X114464285Y-183464285D01*
X114559523Y-183511904D01*
X114654761Y-183607142D01*
X114702380Y-183750000D01*
X114702380Y-183988095D01*
X114702380Y-182464285D02*
X114702380Y-183035714D01*
X114702380Y-182750000D02*
X113702380Y-182750000D01*
X113845238Y-182845238D01*
X113940476Y-182940476D01*
X113988095Y-183035714D01*
X114702380Y-186238095D02*
X113702380Y-186238095D01*
X113702380Y-186000000D01*
X113750000Y-185857142D01*
X113845238Y-185761904D01*
X113940476Y-185714285D01*
X114130952Y-185666666D01*
X114273809Y-185666666D01*
X114464285Y-185714285D01*
X114559523Y-185761904D01*
X114654761Y-185857142D01*
X114702380Y-186000000D01*
X114702380Y-186238095D01*
X113797619Y-185285714D02*
X113750000Y-185238095D01*
X113702380Y-185142857D01*
X113702380Y-184904761D01*
X113750000Y-184809523D01*
X113797619Y-184761904D01*
X113892857Y-184714285D01*
X113988095Y-184714285D01*
X114130952Y-184761904D01*
X114702380Y-185333333D01*
X114702380Y-184714285D01*
X105162380Y-176666666D02*
X105162380Y-177142857D01*
X104162380Y-177142857D01*
X105162380Y-175809523D02*
X105162380Y-176380952D01*
X105162380Y-176095238D02*
X104162380Y-176095238D01*
X104305238Y-176190476D01*
X104400476Y-176285714D01*
X104448095Y-176380952D01*
%LPC*%
D19*
X71270000Y-159320000D03*
X74970000Y-160320000D03*
X71270000Y-161320000D03*
X74970000Y-162320000D03*
X71270000Y-163320000D03*
X74970000Y-164320000D03*
X71270000Y-165320000D03*
X74970000Y-166320000D03*
D20*
X108227804Y-172750000D03*
X112272196Y-172750000D03*
D17*
G36*
X91755505Y-144175311D02*
G01*
X91781925Y-144179230D01*
X91807835Y-144185720D01*
X91832983Y-144194718D01*
X91857128Y-144206138D01*
X91880038Y-144219869D01*
X91901492Y-144235780D01*
X91921282Y-144253718D01*
X91939220Y-144273508D01*
X91955131Y-144294962D01*
X91968862Y-144317872D01*
X91980282Y-144342017D01*
X91989280Y-144367165D01*
X91995770Y-144393075D01*
X91999689Y-144419495D01*
X92001000Y-144446173D01*
X92001000Y-145153827D01*
X91999689Y-145180505D01*
X91995770Y-145206925D01*
X91989280Y-145232835D01*
X91980282Y-145257983D01*
X91968862Y-145282128D01*
X91955131Y-145305038D01*
X91939220Y-145326492D01*
X91921282Y-145346282D01*
X91901492Y-145364220D01*
X91880038Y-145380131D01*
X91857128Y-145393862D01*
X91832983Y-145405282D01*
X91807835Y-145414280D01*
X91781925Y-145420770D01*
X91755505Y-145424689D01*
X91728827Y-145426000D01*
X90771173Y-145426000D01*
X90744495Y-145424689D01*
X90718075Y-145420770D01*
X90692165Y-145414280D01*
X90667017Y-145405282D01*
X90642872Y-145393862D01*
X90619962Y-145380131D01*
X90598508Y-145364220D01*
X90578718Y-145346282D01*
X90560780Y-145326492D01*
X90544869Y-145305038D01*
X90531138Y-145282128D01*
X90519718Y-145257983D01*
X90510720Y-145232835D01*
X90504230Y-145206925D01*
X90500311Y-145180505D01*
X90499000Y-145153827D01*
X90499000Y-144446173D01*
X90500311Y-144419495D01*
X90504230Y-144393075D01*
X90510720Y-144367165D01*
X90519718Y-144342017D01*
X90531138Y-144317872D01*
X90544869Y-144294962D01*
X90560780Y-144273508D01*
X90578718Y-144253718D01*
X90598508Y-144235780D01*
X90619962Y-144219869D01*
X90642872Y-144206138D01*
X90667017Y-144194718D01*
X90692165Y-144185720D01*
X90718075Y-144179230D01*
X90744495Y-144175311D01*
X90771173Y-144174000D01*
X91728827Y-144174000D01*
X91755505Y-144175311D01*
G37*
G36*
X91755505Y-142125311D02*
G01*
X91781925Y-142129230D01*
X91807835Y-142135720D01*
X91832983Y-142144718D01*
X91857128Y-142156138D01*
X91880038Y-142169869D01*
X91901492Y-142185780D01*
X91921282Y-142203718D01*
X91939220Y-142223508D01*
X91955131Y-142244962D01*
X91968862Y-142267872D01*
X91980282Y-142292017D01*
X91989280Y-142317165D01*
X91995770Y-142343075D01*
X91999689Y-142369495D01*
X92001000Y-142396173D01*
X92001000Y-143103827D01*
X91999689Y-143130505D01*
X91995770Y-143156925D01*
X91989280Y-143182835D01*
X91980282Y-143207983D01*
X91968862Y-143232128D01*
X91955131Y-143255038D01*
X91939220Y-143276492D01*
X91921282Y-143296282D01*
X91901492Y-143314220D01*
X91880038Y-143330131D01*
X91857128Y-143343862D01*
X91832983Y-143355282D01*
X91807835Y-143364280D01*
X91781925Y-143370770D01*
X91755505Y-143374689D01*
X91728827Y-143376000D01*
X90771173Y-143376000D01*
X90744495Y-143374689D01*
X90718075Y-143370770D01*
X90692165Y-143364280D01*
X90667017Y-143355282D01*
X90642872Y-143343862D01*
X90619962Y-143330131D01*
X90598508Y-143314220D01*
X90578718Y-143296282D01*
X90560780Y-143276492D01*
X90544869Y-143255038D01*
X90531138Y-143232128D01*
X90519718Y-143207983D01*
X90510720Y-143182835D01*
X90504230Y-143156925D01*
X90500311Y-143130505D01*
X90499000Y-143103827D01*
X90499000Y-142396173D01*
X90500311Y-142369495D01*
X90504230Y-142343075D01*
X90510720Y-142317165D01*
X90519718Y-142292017D01*
X90531138Y-142267872D01*
X90544869Y-142244962D01*
X90560780Y-142223508D01*
X90578718Y-142203718D01*
X90598508Y-142185780D01*
X90619962Y-142169869D01*
X90642872Y-142156138D01*
X90667017Y-142144718D01*
X90692165Y-142135720D01*
X90718075Y-142129230D01*
X90744495Y-142125311D01*
X90771173Y-142124000D01*
X91728827Y-142124000D01*
X91755505Y-142125311D01*
G37*
D21*
X122700000Y-173940000D03*
X122700000Y-168860000D03*
X122700000Y-161240000D03*
X122700000Y-156160000D03*
X122700000Y-151080000D03*
D22*
X122700000Y-146000000D03*
D23*
X117300000Y-174000000D03*
X74300000Y-131000000D03*
X117300000Y-131000000D03*
X74300000Y-174000000D03*
D24*
X92990000Y-178734000D03*
X91720000Y-178734000D03*
X90450000Y-178734000D03*
X89180000Y-178734000D03*
X87910000Y-178734000D03*
X86640000Y-178734000D03*
X85370000Y-178734000D03*
X84100000Y-178734000D03*
X90100000Y-181744000D03*
X87560000Y-181744000D03*
X93980000Y-161544000D03*
X93980000Y-159004000D03*
X91440000Y-161544000D03*
X91440000Y-159004000D03*
X88900000Y-161544000D03*
X88900000Y-159004000D03*
X86360000Y-161544000D03*
X86360000Y-159004000D03*
X83820000Y-161544000D03*
X83820000Y-159004000D03*
D25*
X96520000Y-186944000D03*
X96520000Y-184404000D03*
X96520000Y-181864000D03*
X96520000Y-179324000D03*
X96520000Y-176784000D03*
X96520000Y-174244000D03*
X96520000Y-171704000D03*
X96520000Y-169164000D03*
X96520000Y-166624000D03*
X96520000Y-164084000D03*
X96520000Y-161544000D03*
X96520000Y-159004000D03*
X96520000Y-156464000D03*
X83820000Y-184404000D03*
X81280000Y-186944000D03*
X81280000Y-184404000D03*
X81280000Y-181864000D03*
X81280000Y-179324000D03*
X81280000Y-176784000D03*
X81280000Y-174244000D03*
X81280000Y-171704000D03*
X81280000Y-169164000D03*
X81280000Y-166624000D03*
X81280000Y-164084000D03*
X81280000Y-161544000D03*
X81280000Y-159004000D03*
X81280000Y-156464000D03*
X96520000Y-153924000D03*
X93980000Y-153924000D03*
X91440000Y-153924000D03*
X81280000Y-153924000D03*
X83820000Y-153924000D03*
X86360000Y-153924000D03*
X88900000Y-153924000D03*
D17*
G36*
X103434363Y-154737790D02*
G01*
X103460369Y-154741648D01*
X103485871Y-154748035D01*
X103510624Y-154756892D01*
X103534390Y-154768133D01*
X103556939Y-154781648D01*
X103578056Y-154797309D01*
X103597535Y-154814965D01*
X103615191Y-154834444D01*
X103630852Y-154855561D01*
X103644367Y-154878110D01*
X103655608Y-154901876D01*
X103664465Y-154926629D01*
X103670852Y-154952131D01*
X103674710Y-154978137D01*
X103676000Y-155004395D01*
X103676000Y-155995605D01*
X103674710Y-156021863D01*
X103670852Y-156047869D01*
X103664465Y-156073371D01*
X103655608Y-156098124D01*
X103644367Y-156121890D01*
X103630852Y-156144439D01*
X103615191Y-156165556D01*
X103597535Y-156185035D01*
X103578056Y-156202691D01*
X103556939Y-156218352D01*
X103534390Y-156231867D01*
X103510624Y-156243108D01*
X103485871Y-156251965D01*
X103460369Y-156258352D01*
X103434363Y-156262210D01*
X103408105Y-156263500D01*
X102091895Y-156263500D01*
X102065637Y-156262210D01*
X102039631Y-156258352D01*
X102014129Y-156251965D01*
X101989376Y-156243108D01*
X101965610Y-156231867D01*
X101943061Y-156218352D01*
X101921944Y-156202691D01*
X101902465Y-156185035D01*
X101884809Y-156165556D01*
X101869148Y-156144439D01*
X101855633Y-156121890D01*
X101844392Y-156098124D01*
X101835535Y-156073371D01*
X101829148Y-156047869D01*
X101825290Y-156021863D01*
X101824000Y-155995605D01*
X101824000Y-155004395D01*
X101825290Y-154978137D01*
X101829148Y-154952131D01*
X101835535Y-154926629D01*
X101844392Y-154901876D01*
X101855633Y-154878110D01*
X101869148Y-154855561D01*
X101884809Y-154834444D01*
X101902465Y-154814965D01*
X101921944Y-154797309D01*
X101943061Y-154781648D01*
X101965610Y-154768133D01*
X101989376Y-154756892D01*
X102014129Y-154748035D01*
X102039631Y-154741648D01*
X102065637Y-154737790D01*
X102091895Y-154736500D01*
X103408105Y-154736500D01*
X103434363Y-154737790D01*
G37*
G36*
X103434363Y-157712790D02*
G01*
X103460369Y-157716648D01*
X103485871Y-157723035D01*
X103510624Y-157731892D01*
X103534390Y-157743133D01*
X103556939Y-157756648D01*
X103578056Y-157772309D01*
X103597535Y-157789965D01*
X103615191Y-157809444D01*
X103630852Y-157830561D01*
X103644367Y-157853110D01*
X103655608Y-157876876D01*
X103664465Y-157901629D01*
X103670852Y-157927131D01*
X103674710Y-157953137D01*
X103676000Y-157979395D01*
X103676000Y-158970605D01*
X103674710Y-158996863D01*
X103670852Y-159022869D01*
X103664465Y-159048371D01*
X103655608Y-159073124D01*
X103644367Y-159096890D01*
X103630852Y-159119439D01*
X103615191Y-159140556D01*
X103597535Y-159160035D01*
X103578056Y-159177691D01*
X103556939Y-159193352D01*
X103534390Y-159206867D01*
X103510624Y-159218108D01*
X103485871Y-159226965D01*
X103460369Y-159233352D01*
X103434363Y-159237210D01*
X103408105Y-159238500D01*
X102091895Y-159238500D01*
X102065637Y-159237210D01*
X102039631Y-159233352D01*
X102014129Y-159226965D01*
X101989376Y-159218108D01*
X101965610Y-159206867D01*
X101943061Y-159193352D01*
X101921944Y-159177691D01*
X101902465Y-159160035D01*
X101884809Y-159140556D01*
X101869148Y-159119439D01*
X101855633Y-159096890D01*
X101844392Y-159073124D01*
X101835535Y-159048371D01*
X101829148Y-159022869D01*
X101825290Y-158996863D01*
X101824000Y-158970605D01*
X101824000Y-157979395D01*
X101825290Y-157953137D01*
X101829148Y-157927131D01*
X101835535Y-157901629D01*
X101844392Y-157876876D01*
X101855633Y-157853110D01*
X101869148Y-157830561D01*
X101884809Y-157809444D01*
X101902465Y-157789965D01*
X101921944Y-157772309D01*
X101943061Y-157756648D01*
X101965610Y-157743133D01*
X101989376Y-157731892D01*
X102014129Y-157723035D01*
X102039631Y-157716648D01*
X102065637Y-157712790D01*
X102091895Y-157711500D01*
X103408105Y-157711500D01*
X103434363Y-157712790D01*
G37*
G36*
X107434363Y-154750290D02*
G01*
X107460369Y-154754148D01*
X107485871Y-154760535D01*
X107510624Y-154769392D01*
X107534390Y-154780633D01*
X107556939Y-154794148D01*
X107578056Y-154809809D01*
X107597535Y-154827465D01*
X107615191Y-154846944D01*
X107630852Y-154868061D01*
X107644367Y-154890610D01*
X107655608Y-154914376D01*
X107664465Y-154939129D01*
X107670852Y-154964631D01*
X107674710Y-154990637D01*
X107676000Y-155016895D01*
X107676000Y-156008105D01*
X107674710Y-156034363D01*
X107670852Y-156060369D01*
X107664465Y-156085871D01*
X107655608Y-156110624D01*
X107644367Y-156134390D01*
X107630852Y-156156939D01*
X107615191Y-156178056D01*
X107597535Y-156197535D01*
X107578056Y-156215191D01*
X107556939Y-156230852D01*
X107534390Y-156244367D01*
X107510624Y-156255608D01*
X107485871Y-156264465D01*
X107460369Y-156270852D01*
X107434363Y-156274710D01*
X107408105Y-156276000D01*
X106091895Y-156276000D01*
X106065637Y-156274710D01*
X106039631Y-156270852D01*
X106014129Y-156264465D01*
X105989376Y-156255608D01*
X105965610Y-156244367D01*
X105943061Y-156230852D01*
X105921944Y-156215191D01*
X105902465Y-156197535D01*
X105884809Y-156178056D01*
X105869148Y-156156939D01*
X105855633Y-156134390D01*
X105844392Y-156110624D01*
X105835535Y-156085871D01*
X105829148Y-156060369D01*
X105825290Y-156034363D01*
X105824000Y-156008105D01*
X105824000Y-155016895D01*
X105825290Y-154990637D01*
X105829148Y-154964631D01*
X105835535Y-154939129D01*
X105844392Y-154914376D01*
X105855633Y-154890610D01*
X105869148Y-154868061D01*
X105884809Y-154846944D01*
X105902465Y-154827465D01*
X105921944Y-154809809D01*
X105943061Y-154794148D01*
X105965610Y-154780633D01*
X105989376Y-154769392D01*
X106014129Y-154760535D01*
X106039631Y-154754148D01*
X106065637Y-154750290D01*
X106091895Y-154749000D01*
X107408105Y-154749000D01*
X107434363Y-154750290D01*
G37*
G36*
X107434363Y-157725290D02*
G01*
X107460369Y-157729148D01*
X107485871Y-157735535D01*
X107510624Y-157744392D01*
X107534390Y-157755633D01*
X107556939Y-157769148D01*
X107578056Y-157784809D01*
X107597535Y-157802465D01*
X107615191Y-157821944D01*
X107630852Y-157843061D01*
X107644367Y-157865610D01*
X107655608Y-157889376D01*
X107664465Y-157914129D01*
X107670852Y-157939631D01*
X107674710Y-157965637D01*
X107676000Y-157991895D01*
X107676000Y-158983105D01*
X107674710Y-159009363D01*
X107670852Y-159035369D01*
X107664465Y-159060871D01*
X107655608Y-159085624D01*
X107644367Y-159109390D01*
X107630852Y-159131939D01*
X107615191Y-159153056D01*
X107597535Y-159172535D01*
X107578056Y-159190191D01*
X107556939Y-159205852D01*
X107534390Y-159219367D01*
X107510624Y-159230608D01*
X107485871Y-159239465D01*
X107460369Y-159245852D01*
X107434363Y-159249710D01*
X107408105Y-159251000D01*
X106091895Y-159251000D01*
X106065637Y-159249710D01*
X106039631Y-159245852D01*
X106014129Y-159239465D01*
X105989376Y-159230608D01*
X105965610Y-159219367D01*
X105943061Y-159205852D01*
X105921944Y-159190191D01*
X105902465Y-159172535D01*
X105884809Y-159153056D01*
X105869148Y-159131939D01*
X105855633Y-159109390D01*
X105844392Y-159085624D01*
X105835535Y-159060871D01*
X105829148Y-159035369D01*
X105825290Y-159009363D01*
X105824000Y-158983105D01*
X105824000Y-157991895D01*
X105825290Y-157965637D01*
X105829148Y-157939631D01*
X105835535Y-157914129D01*
X105844392Y-157889376D01*
X105855633Y-157865610D01*
X105869148Y-157843061D01*
X105884809Y-157821944D01*
X105902465Y-157802465D01*
X105921944Y-157784809D01*
X105943061Y-157769148D01*
X105965610Y-157755633D01*
X105989376Y-157744392D01*
X106014129Y-157735535D01*
X106039631Y-157729148D01*
X106065637Y-157725290D01*
X106091895Y-157724000D01*
X107408105Y-157724000D01*
X107434363Y-157725290D01*
G37*
G36*
X103434363Y-149000290D02*
G01*
X103460369Y-149004148D01*
X103485871Y-149010535D01*
X103510624Y-149019392D01*
X103534390Y-149030633D01*
X103556939Y-149044148D01*
X103578056Y-149059809D01*
X103597535Y-149077465D01*
X103615191Y-149096944D01*
X103630852Y-149118061D01*
X103644367Y-149140610D01*
X103655608Y-149164376D01*
X103664465Y-149189129D01*
X103670852Y-149214631D01*
X103674710Y-149240637D01*
X103676000Y-149266895D01*
X103676000Y-150258105D01*
X103674710Y-150284363D01*
X103670852Y-150310369D01*
X103664465Y-150335871D01*
X103655608Y-150360624D01*
X103644367Y-150384390D01*
X103630852Y-150406939D01*
X103615191Y-150428056D01*
X103597535Y-150447535D01*
X103578056Y-150465191D01*
X103556939Y-150480852D01*
X103534390Y-150494367D01*
X103510624Y-150505608D01*
X103485871Y-150514465D01*
X103460369Y-150520852D01*
X103434363Y-150524710D01*
X103408105Y-150526000D01*
X102091895Y-150526000D01*
X102065637Y-150524710D01*
X102039631Y-150520852D01*
X102014129Y-150514465D01*
X101989376Y-150505608D01*
X101965610Y-150494367D01*
X101943061Y-150480852D01*
X101921944Y-150465191D01*
X101902465Y-150447535D01*
X101884809Y-150428056D01*
X101869148Y-150406939D01*
X101855633Y-150384390D01*
X101844392Y-150360624D01*
X101835535Y-150335871D01*
X101829148Y-150310369D01*
X101825290Y-150284363D01*
X101824000Y-150258105D01*
X101824000Y-149266895D01*
X101825290Y-149240637D01*
X101829148Y-149214631D01*
X101835535Y-149189129D01*
X101844392Y-149164376D01*
X101855633Y-149140610D01*
X101869148Y-149118061D01*
X101884809Y-149096944D01*
X101902465Y-149077465D01*
X101921944Y-149059809D01*
X101943061Y-149044148D01*
X101965610Y-149030633D01*
X101989376Y-149019392D01*
X102014129Y-149010535D01*
X102039631Y-149004148D01*
X102065637Y-149000290D01*
X102091895Y-148999000D01*
X103408105Y-148999000D01*
X103434363Y-149000290D01*
G37*
G36*
X103434363Y-151975290D02*
G01*
X103460369Y-151979148D01*
X103485871Y-151985535D01*
X103510624Y-151994392D01*
X103534390Y-152005633D01*
X103556939Y-152019148D01*
X103578056Y-152034809D01*
X103597535Y-152052465D01*
X103615191Y-152071944D01*
X103630852Y-152093061D01*
X103644367Y-152115610D01*
X103655608Y-152139376D01*
X103664465Y-152164129D01*
X103670852Y-152189631D01*
X103674710Y-152215637D01*
X103676000Y-152241895D01*
X103676000Y-153233105D01*
X103674710Y-153259363D01*
X103670852Y-153285369D01*
X103664465Y-153310871D01*
X103655608Y-153335624D01*
X103644367Y-153359390D01*
X103630852Y-153381939D01*
X103615191Y-153403056D01*
X103597535Y-153422535D01*
X103578056Y-153440191D01*
X103556939Y-153455852D01*
X103534390Y-153469367D01*
X103510624Y-153480608D01*
X103485871Y-153489465D01*
X103460369Y-153495852D01*
X103434363Y-153499710D01*
X103408105Y-153501000D01*
X102091895Y-153501000D01*
X102065637Y-153499710D01*
X102039631Y-153495852D01*
X102014129Y-153489465D01*
X101989376Y-153480608D01*
X101965610Y-153469367D01*
X101943061Y-153455852D01*
X101921944Y-153440191D01*
X101902465Y-153422535D01*
X101884809Y-153403056D01*
X101869148Y-153381939D01*
X101855633Y-153359390D01*
X101844392Y-153335624D01*
X101835535Y-153310871D01*
X101829148Y-153285369D01*
X101825290Y-153259363D01*
X101824000Y-153233105D01*
X101824000Y-152241895D01*
X101825290Y-152215637D01*
X101829148Y-152189631D01*
X101835535Y-152164129D01*
X101844392Y-152139376D01*
X101855633Y-152115610D01*
X101869148Y-152093061D01*
X101884809Y-152071944D01*
X101902465Y-152052465D01*
X101921944Y-152034809D01*
X101943061Y-152019148D01*
X101965610Y-152005633D01*
X101989376Y-151994392D01*
X102014129Y-151985535D01*
X102039631Y-151979148D01*
X102065637Y-151975290D01*
X102091895Y-151974000D01*
X103408105Y-151974000D01*
X103434363Y-151975290D01*
G37*
G36*
X107434363Y-149000290D02*
G01*
X107460369Y-149004148D01*
X107485871Y-149010535D01*
X107510624Y-149019392D01*
X107534390Y-149030633D01*
X107556939Y-149044148D01*
X107578056Y-149059809D01*
X107597535Y-149077465D01*
X107615191Y-149096944D01*
X107630852Y-149118061D01*
X107644367Y-149140610D01*
X107655608Y-149164376D01*
X107664465Y-149189129D01*
X107670852Y-149214631D01*
X107674710Y-149240637D01*
X107676000Y-149266895D01*
X107676000Y-150258105D01*
X107674710Y-150284363D01*
X107670852Y-150310369D01*
X107664465Y-150335871D01*
X107655608Y-150360624D01*
X107644367Y-150384390D01*
X107630852Y-150406939D01*
X107615191Y-150428056D01*
X107597535Y-150447535D01*
X107578056Y-150465191D01*
X107556939Y-150480852D01*
X107534390Y-150494367D01*
X107510624Y-150505608D01*
X107485871Y-150514465D01*
X107460369Y-150520852D01*
X107434363Y-150524710D01*
X107408105Y-150526000D01*
X106091895Y-150526000D01*
X106065637Y-150524710D01*
X106039631Y-150520852D01*
X106014129Y-150514465D01*
X105989376Y-150505608D01*
X105965610Y-150494367D01*
X105943061Y-150480852D01*
X105921944Y-150465191D01*
X105902465Y-150447535D01*
X105884809Y-150428056D01*
X105869148Y-150406939D01*
X105855633Y-150384390D01*
X105844392Y-150360624D01*
X105835535Y-150335871D01*
X105829148Y-150310369D01*
X105825290Y-150284363D01*
X105824000Y-150258105D01*
X105824000Y-149266895D01*
X105825290Y-149240637D01*
X105829148Y-149214631D01*
X105835535Y-149189129D01*
X105844392Y-149164376D01*
X105855633Y-149140610D01*
X105869148Y-149118061D01*
X105884809Y-149096944D01*
X105902465Y-149077465D01*
X105921944Y-149059809D01*
X105943061Y-149044148D01*
X105965610Y-149030633D01*
X105989376Y-149019392D01*
X106014129Y-149010535D01*
X106039631Y-149004148D01*
X106065637Y-149000290D01*
X106091895Y-148999000D01*
X107408105Y-148999000D01*
X107434363Y-149000290D01*
G37*
G36*
X107434363Y-151975290D02*
G01*
X107460369Y-151979148D01*
X107485871Y-151985535D01*
X107510624Y-151994392D01*
X107534390Y-152005633D01*
X107556939Y-152019148D01*
X107578056Y-152034809D01*
X107597535Y-152052465D01*
X107615191Y-152071944D01*
X107630852Y-152093061D01*
X107644367Y-152115610D01*
X107655608Y-152139376D01*
X107664465Y-152164129D01*
X107670852Y-152189631D01*
X107674710Y-152215637D01*
X107676000Y-152241895D01*
X107676000Y-153233105D01*
X107674710Y-153259363D01*
X107670852Y-153285369D01*
X107664465Y-153310871D01*
X107655608Y-153335624D01*
X107644367Y-153359390D01*
X107630852Y-153381939D01*
X107615191Y-153403056D01*
X107597535Y-153422535D01*
X107578056Y-153440191D01*
X107556939Y-153455852D01*
X107534390Y-153469367D01*
X107510624Y-153480608D01*
X107485871Y-153489465D01*
X107460369Y-153495852D01*
X107434363Y-153499710D01*
X107408105Y-153501000D01*
X106091895Y-153501000D01*
X106065637Y-153499710D01*
X106039631Y-153495852D01*
X106014129Y-153489465D01*
X105989376Y-153480608D01*
X105965610Y-153469367D01*
X105943061Y-153455852D01*
X105921944Y-153440191D01*
X105902465Y-153422535D01*
X105884809Y-153403056D01*
X105869148Y-153381939D01*
X105855633Y-153359390D01*
X105844392Y-153335624D01*
X105835535Y-153310871D01*
X105829148Y-153285369D01*
X105825290Y-153259363D01*
X105824000Y-153233105D01*
X105824000Y-152241895D01*
X105825290Y-152215637D01*
X105829148Y-152189631D01*
X105835535Y-152164129D01*
X105844392Y-152139376D01*
X105855633Y-152115610D01*
X105869148Y-152093061D01*
X105884809Y-152071944D01*
X105902465Y-152052465D01*
X105921944Y-152034809D01*
X105943061Y-152019148D01*
X105965610Y-152005633D01*
X105989376Y-151994392D01*
X106014129Y-151985535D01*
X106039631Y-151979148D01*
X106065637Y-151975290D01*
X106091895Y-151974000D01*
X107408105Y-151974000D01*
X107434363Y-151975290D01*
G37*
D20*
X107977804Y-179750000D03*
X112022196Y-179750000D03*
D17*
G36*
X70155506Y-153500311D02*
G01*
X70181926Y-153504230D01*
X70207835Y-153510720D01*
X70232984Y-153519718D01*
X70257129Y-153531138D01*
X70280039Y-153544869D01*
X70301492Y-153560780D01*
X70321283Y-153578717D01*
X70339220Y-153598508D01*
X70355131Y-153619961D01*
X70368862Y-153642871D01*
X70380282Y-153667016D01*
X70389280Y-153692165D01*
X70395770Y-153718074D01*
X70399689Y-153744494D01*
X70401000Y-153771172D01*
X70401000Y-154728828D01*
X70399689Y-154755506D01*
X70395770Y-154781926D01*
X70389280Y-154807835D01*
X70380282Y-154832984D01*
X70368862Y-154857129D01*
X70355131Y-154880039D01*
X70339220Y-154901492D01*
X70321283Y-154921283D01*
X70301492Y-154939220D01*
X70280039Y-154955131D01*
X70257129Y-154968862D01*
X70232984Y-154980282D01*
X70207835Y-154989280D01*
X70181926Y-154995770D01*
X70155506Y-154999689D01*
X70128828Y-155001000D01*
X69421172Y-155001000D01*
X69394494Y-154999689D01*
X69368074Y-154995770D01*
X69342165Y-154989280D01*
X69317016Y-154980282D01*
X69292871Y-154968862D01*
X69269961Y-154955131D01*
X69248508Y-154939220D01*
X69228717Y-154921283D01*
X69210780Y-154901492D01*
X69194869Y-154880039D01*
X69181138Y-154857129D01*
X69169718Y-154832984D01*
X69160720Y-154807835D01*
X69154230Y-154781926D01*
X69150311Y-154755506D01*
X69149000Y-154728828D01*
X69149000Y-153771172D01*
X69150311Y-153744494D01*
X69154230Y-153718074D01*
X69160720Y-153692165D01*
X69169718Y-153667016D01*
X69181138Y-153642871D01*
X69194869Y-153619961D01*
X69210780Y-153598508D01*
X69228717Y-153578717D01*
X69248508Y-153560780D01*
X69269961Y-153544869D01*
X69292871Y-153531138D01*
X69317016Y-153519718D01*
X69342165Y-153510720D01*
X69368074Y-153504230D01*
X69394494Y-153500311D01*
X69421172Y-153499000D01*
X70128828Y-153499000D01*
X70155506Y-153500311D01*
G37*
G36*
X68105506Y-153500311D02*
G01*
X68131926Y-153504230D01*
X68157835Y-153510720D01*
X68182984Y-153519718D01*
X68207129Y-153531138D01*
X68230039Y-153544869D01*
X68251492Y-153560780D01*
X68271283Y-153578717D01*
X68289220Y-153598508D01*
X68305131Y-153619961D01*
X68318862Y-153642871D01*
X68330282Y-153667016D01*
X68339280Y-153692165D01*
X68345770Y-153718074D01*
X68349689Y-153744494D01*
X68351000Y-153771172D01*
X68351000Y-154728828D01*
X68349689Y-154755506D01*
X68345770Y-154781926D01*
X68339280Y-154807835D01*
X68330282Y-154832984D01*
X68318862Y-154857129D01*
X68305131Y-154880039D01*
X68289220Y-154901492D01*
X68271283Y-154921283D01*
X68251492Y-154939220D01*
X68230039Y-154955131D01*
X68207129Y-154968862D01*
X68182984Y-154980282D01*
X68157835Y-154989280D01*
X68131926Y-154995770D01*
X68105506Y-154999689D01*
X68078828Y-155001000D01*
X67371172Y-155001000D01*
X67344494Y-154999689D01*
X67318074Y-154995770D01*
X67292165Y-154989280D01*
X67267016Y-154980282D01*
X67242871Y-154968862D01*
X67219961Y-154955131D01*
X67198508Y-154939220D01*
X67178717Y-154921283D01*
X67160780Y-154901492D01*
X67144869Y-154880039D01*
X67131138Y-154857129D01*
X67119718Y-154832984D01*
X67110720Y-154807835D01*
X67104230Y-154781926D01*
X67100311Y-154755506D01*
X67099000Y-154728828D01*
X67099000Y-153771172D01*
X67100311Y-153744494D01*
X67104230Y-153718074D01*
X67110720Y-153692165D01*
X67119718Y-153667016D01*
X67131138Y-153642871D01*
X67144869Y-153619961D01*
X67160780Y-153598508D01*
X67178717Y-153578717D01*
X67198508Y-153560780D01*
X67219961Y-153544869D01*
X67242871Y-153531138D01*
X67267016Y-153519718D01*
X67292165Y-153510720D01*
X67318074Y-153504230D01*
X67344494Y-153500311D01*
X67371172Y-153499000D01*
X68078828Y-153499000D01*
X68105506Y-153500311D01*
G37*
D21*
X105250000Y-125088000D03*
X105250000Y-140088000D03*
D26*
X105250000Y-132588000D03*
D17*
G36*
X69105506Y-139000311D02*
G01*
X69131926Y-139004230D01*
X69157835Y-139010720D01*
X69182984Y-139019718D01*
X69207129Y-139031138D01*
X69230039Y-139044869D01*
X69251492Y-139060780D01*
X69271283Y-139078717D01*
X69289220Y-139098508D01*
X69305131Y-139119961D01*
X69318862Y-139142871D01*
X69330282Y-139167016D01*
X69339280Y-139192165D01*
X69345770Y-139218074D01*
X69349689Y-139244494D01*
X69351000Y-139271172D01*
X69351000Y-140228828D01*
X69349689Y-140255506D01*
X69345770Y-140281926D01*
X69339280Y-140307835D01*
X69330282Y-140332984D01*
X69318862Y-140357129D01*
X69305131Y-140380039D01*
X69289220Y-140401492D01*
X69271283Y-140421283D01*
X69251492Y-140439220D01*
X69230039Y-140455131D01*
X69207129Y-140468862D01*
X69182984Y-140480282D01*
X69157835Y-140489280D01*
X69131926Y-140495770D01*
X69105506Y-140499689D01*
X69078828Y-140501000D01*
X68371172Y-140501000D01*
X68344494Y-140499689D01*
X68318074Y-140495770D01*
X68292165Y-140489280D01*
X68267016Y-140480282D01*
X68242871Y-140468862D01*
X68219961Y-140455131D01*
X68198508Y-140439220D01*
X68178717Y-140421283D01*
X68160780Y-140401492D01*
X68144869Y-140380039D01*
X68131138Y-140357129D01*
X68119718Y-140332984D01*
X68110720Y-140307835D01*
X68104230Y-140281926D01*
X68100311Y-140255506D01*
X68099000Y-140228828D01*
X68099000Y-139271172D01*
X68100311Y-139244494D01*
X68104230Y-139218074D01*
X68110720Y-139192165D01*
X68119718Y-139167016D01*
X68131138Y-139142871D01*
X68144869Y-139119961D01*
X68160780Y-139098508D01*
X68178717Y-139078717D01*
X68198508Y-139060780D01*
X68219961Y-139044869D01*
X68242871Y-139031138D01*
X68267016Y-139019718D01*
X68292165Y-139010720D01*
X68318074Y-139004230D01*
X68344494Y-139000311D01*
X68371172Y-138999000D01*
X69078828Y-138999000D01*
X69105506Y-139000311D01*
G37*
G36*
X71155506Y-139000311D02*
G01*
X71181926Y-139004230D01*
X71207835Y-139010720D01*
X71232984Y-139019718D01*
X71257129Y-139031138D01*
X71280039Y-139044869D01*
X71301492Y-139060780D01*
X71321283Y-139078717D01*
X71339220Y-139098508D01*
X71355131Y-139119961D01*
X71368862Y-139142871D01*
X71380282Y-139167016D01*
X71389280Y-139192165D01*
X71395770Y-139218074D01*
X71399689Y-139244494D01*
X71401000Y-139271172D01*
X71401000Y-140228828D01*
X71399689Y-140255506D01*
X71395770Y-140281926D01*
X71389280Y-140307835D01*
X71380282Y-140332984D01*
X71368862Y-140357129D01*
X71355131Y-140380039D01*
X71339220Y-140401492D01*
X71321283Y-140421283D01*
X71301492Y-140439220D01*
X71280039Y-140455131D01*
X71257129Y-140468862D01*
X71232984Y-140480282D01*
X71207835Y-140489280D01*
X71181926Y-140495770D01*
X71155506Y-140499689D01*
X71128828Y-140501000D01*
X70421172Y-140501000D01*
X70394494Y-140499689D01*
X70368074Y-140495770D01*
X70342165Y-140489280D01*
X70317016Y-140480282D01*
X70292871Y-140468862D01*
X70269961Y-140455131D01*
X70248508Y-140439220D01*
X70228717Y-140421283D01*
X70210780Y-140401492D01*
X70194869Y-140380039D01*
X70181138Y-140357129D01*
X70169718Y-140332984D01*
X70160720Y-140307835D01*
X70154230Y-140281926D01*
X70150311Y-140255506D01*
X70149000Y-140228828D01*
X70149000Y-139271172D01*
X70150311Y-139244494D01*
X70154230Y-139218074D01*
X70160720Y-139192165D01*
X70169718Y-139167016D01*
X70181138Y-139142871D01*
X70194869Y-139119961D01*
X70210780Y-139098508D01*
X70228717Y-139078717D01*
X70248508Y-139060780D01*
X70269961Y-139044869D01*
X70292871Y-139031138D01*
X70317016Y-139019718D01*
X70342165Y-139010720D01*
X70368074Y-139004230D01*
X70394494Y-139000311D01*
X70421172Y-138999000D01*
X71128828Y-138999000D01*
X71155506Y-139000311D01*
G37*
G36*
X79247702Y-148949845D02*
G01*
X79264738Y-148952372D01*
X79281445Y-148956557D01*
X79297661Y-148962359D01*
X79313230Y-148969723D01*
X79328003Y-148978577D01*
X79341836Y-148988837D01*
X79354597Y-149000403D01*
X79366163Y-149013164D01*
X79376423Y-149026997D01*
X79385277Y-149041770D01*
X79392641Y-149057339D01*
X79398443Y-149073555D01*
X79402628Y-149090262D01*
X79405155Y-149107298D01*
X79406000Y-149124500D01*
X79406000Y-150825500D01*
X79405155Y-150842702D01*
X79402628Y-150859738D01*
X79398443Y-150876445D01*
X79392641Y-150892661D01*
X79385277Y-150908230D01*
X79376423Y-150923003D01*
X79366163Y-150936836D01*
X79354597Y-150949597D01*
X79341836Y-150961163D01*
X79328003Y-150971423D01*
X79313230Y-150980277D01*
X79297661Y-150987641D01*
X79281445Y-150993443D01*
X79264738Y-150997628D01*
X79247702Y-151000155D01*
X79230500Y-151001000D01*
X78879500Y-151001000D01*
X78862298Y-151000155D01*
X78845262Y-150997628D01*
X78828555Y-150993443D01*
X78812339Y-150987641D01*
X78796770Y-150980277D01*
X78781997Y-150971423D01*
X78768164Y-150961163D01*
X78755403Y-150949597D01*
X78743837Y-150936836D01*
X78733577Y-150923003D01*
X78724723Y-150908230D01*
X78717359Y-150892661D01*
X78711557Y-150876445D01*
X78707372Y-150859738D01*
X78704845Y-150842702D01*
X78704000Y-150825500D01*
X78704000Y-149124500D01*
X78704845Y-149107298D01*
X78707372Y-149090262D01*
X78711557Y-149073555D01*
X78717359Y-149057339D01*
X78724723Y-149041770D01*
X78733577Y-149026997D01*
X78743837Y-149013164D01*
X78755403Y-149000403D01*
X78768164Y-148988837D01*
X78781997Y-148978577D01*
X78796770Y-148969723D01*
X78812339Y-148962359D01*
X78828555Y-148956557D01*
X78845262Y-148952372D01*
X78862298Y-148949845D01*
X78879500Y-148949000D01*
X79230500Y-148949000D01*
X79247702Y-148949845D01*
G37*
G36*
X80517702Y-148949845D02*
G01*
X80534738Y-148952372D01*
X80551445Y-148956557D01*
X80567661Y-148962359D01*
X80583230Y-148969723D01*
X80598003Y-148978577D01*
X80611836Y-148988837D01*
X80624597Y-149000403D01*
X80636163Y-149013164D01*
X80646423Y-149026997D01*
X80655277Y-149041770D01*
X80662641Y-149057339D01*
X80668443Y-149073555D01*
X80672628Y-149090262D01*
X80675155Y-149107298D01*
X80676000Y-149124500D01*
X80676000Y-150825500D01*
X80675155Y-150842702D01*
X80672628Y-150859738D01*
X80668443Y-150876445D01*
X80662641Y-150892661D01*
X80655277Y-150908230D01*
X80646423Y-150923003D01*
X80636163Y-150936836D01*
X80624597Y-150949597D01*
X80611836Y-150961163D01*
X80598003Y-150971423D01*
X80583230Y-150980277D01*
X80567661Y-150987641D01*
X80551445Y-150993443D01*
X80534738Y-150997628D01*
X80517702Y-151000155D01*
X80500500Y-151001000D01*
X80149500Y-151001000D01*
X80132298Y-151000155D01*
X80115262Y-150997628D01*
X80098555Y-150993443D01*
X80082339Y-150987641D01*
X80066770Y-150980277D01*
X80051997Y-150971423D01*
X80038164Y-150961163D01*
X80025403Y-150949597D01*
X80013837Y-150936836D01*
X80003577Y-150923003D01*
X79994723Y-150908230D01*
X79987359Y-150892661D01*
X79981557Y-150876445D01*
X79977372Y-150859738D01*
X79974845Y-150842702D01*
X79974000Y-150825500D01*
X79974000Y-149124500D01*
X79974845Y-149107298D01*
X79977372Y-149090262D01*
X79981557Y-149073555D01*
X79987359Y-149057339D01*
X79994723Y-149041770D01*
X80003577Y-149026997D01*
X80013837Y-149013164D01*
X80025403Y-149000403D01*
X80038164Y-148988837D01*
X80051997Y-148978577D01*
X80066770Y-148969723D01*
X80082339Y-148962359D01*
X80098555Y-148956557D01*
X80115262Y-148952372D01*
X80132298Y-148949845D01*
X80149500Y-148949000D01*
X80500500Y-148949000D01*
X80517702Y-148949845D01*
G37*
G36*
X81787702Y-148949845D02*
G01*
X81804738Y-148952372D01*
X81821445Y-148956557D01*
X81837661Y-148962359D01*
X81853230Y-148969723D01*
X81868003Y-148978577D01*
X81881836Y-148988837D01*
X81894597Y-149000403D01*
X81906163Y-149013164D01*
X81916423Y-149026997D01*
X81925277Y-149041770D01*
X81932641Y-149057339D01*
X81938443Y-149073555D01*
X81942628Y-149090262D01*
X81945155Y-149107298D01*
X81946000Y-149124500D01*
X81946000Y-150825500D01*
X81945155Y-150842702D01*
X81942628Y-150859738D01*
X81938443Y-150876445D01*
X81932641Y-150892661D01*
X81925277Y-150908230D01*
X81916423Y-150923003D01*
X81906163Y-150936836D01*
X81894597Y-150949597D01*
X81881836Y-150961163D01*
X81868003Y-150971423D01*
X81853230Y-150980277D01*
X81837661Y-150987641D01*
X81821445Y-150993443D01*
X81804738Y-150997628D01*
X81787702Y-151000155D01*
X81770500Y-151001000D01*
X81419500Y-151001000D01*
X81402298Y-151000155D01*
X81385262Y-150997628D01*
X81368555Y-150993443D01*
X81352339Y-150987641D01*
X81336770Y-150980277D01*
X81321997Y-150971423D01*
X81308164Y-150961163D01*
X81295403Y-150949597D01*
X81283837Y-150936836D01*
X81273577Y-150923003D01*
X81264723Y-150908230D01*
X81257359Y-150892661D01*
X81251557Y-150876445D01*
X81247372Y-150859738D01*
X81244845Y-150842702D01*
X81244000Y-150825500D01*
X81244000Y-149124500D01*
X81244845Y-149107298D01*
X81247372Y-149090262D01*
X81251557Y-149073555D01*
X81257359Y-149057339D01*
X81264723Y-149041770D01*
X81273577Y-149026997D01*
X81283837Y-149013164D01*
X81295403Y-149000403D01*
X81308164Y-148988837D01*
X81321997Y-148978577D01*
X81336770Y-148969723D01*
X81352339Y-148962359D01*
X81368555Y-148956557D01*
X81385262Y-148952372D01*
X81402298Y-148949845D01*
X81419500Y-148949000D01*
X81770500Y-148949000D01*
X81787702Y-148949845D01*
G37*
G36*
X83057702Y-148949845D02*
G01*
X83074738Y-148952372D01*
X83091445Y-148956557D01*
X83107661Y-148962359D01*
X83123230Y-148969723D01*
X83138003Y-148978577D01*
X83151836Y-148988837D01*
X83164597Y-149000403D01*
X83176163Y-149013164D01*
X83186423Y-149026997D01*
X83195277Y-149041770D01*
X83202641Y-149057339D01*
X83208443Y-149073555D01*
X83212628Y-149090262D01*
X83215155Y-149107298D01*
X83216000Y-149124500D01*
X83216000Y-150825500D01*
X83215155Y-150842702D01*
X83212628Y-150859738D01*
X83208443Y-150876445D01*
X83202641Y-150892661D01*
X83195277Y-150908230D01*
X83186423Y-150923003D01*
X83176163Y-150936836D01*
X83164597Y-150949597D01*
X83151836Y-150961163D01*
X83138003Y-150971423D01*
X83123230Y-150980277D01*
X83107661Y-150987641D01*
X83091445Y-150993443D01*
X83074738Y-150997628D01*
X83057702Y-151000155D01*
X83040500Y-151001000D01*
X82689500Y-151001000D01*
X82672298Y-151000155D01*
X82655262Y-150997628D01*
X82638555Y-150993443D01*
X82622339Y-150987641D01*
X82606770Y-150980277D01*
X82591997Y-150971423D01*
X82578164Y-150961163D01*
X82565403Y-150949597D01*
X82553837Y-150936836D01*
X82543577Y-150923003D01*
X82534723Y-150908230D01*
X82527359Y-150892661D01*
X82521557Y-150876445D01*
X82517372Y-150859738D01*
X82514845Y-150842702D01*
X82514000Y-150825500D01*
X82514000Y-149124500D01*
X82514845Y-149107298D01*
X82517372Y-149090262D01*
X82521557Y-149073555D01*
X82527359Y-149057339D01*
X82534723Y-149041770D01*
X82543577Y-149026997D01*
X82553837Y-149013164D01*
X82565403Y-149000403D01*
X82578164Y-148988837D01*
X82591997Y-148978577D01*
X82606770Y-148969723D01*
X82622339Y-148962359D01*
X82638555Y-148956557D01*
X82655262Y-148952372D01*
X82672298Y-148949845D01*
X82689500Y-148949000D01*
X83040500Y-148949000D01*
X83057702Y-148949845D01*
G37*
G36*
X84327702Y-148949845D02*
G01*
X84344738Y-148952372D01*
X84361445Y-148956557D01*
X84377661Y-148962359D01*
X84393230Y-148969723D01*
X84408003Y-148978577D01*
X84421836Y-148988837D01*
X84434597Y-149000403D01*
X84446163Y-149013164D01*
X84456423Y-149026997D01*
X84465277Y-149041770D01*
X84472641Y-149057339D01*
X84478443Y-149073555D01*
X84482628Y-149090262D01*
X84485155Y-149107298D01*
X84486000Y-149124500D01*
X84486000Y-150825500D01*
X84485155Y-150842702D01*
X84482628Y-150859738D01*
X84478443Y-150876445D01*
X84472641Y-150892661D01*
X84465277Y-150908230D01*
X84456423Y-150923003D01*
X84446163Y-150936836D01*
X84434597Y-150949597D01*
X84421836Y-150961163D01*
X84408003Y-150971423D01*
X84393230Y-150980277D01*
X84377661Y-150987641D01*
X84361445Y-150993443D01*
X84344738Y-150997628D01*
X84327702Y-151000155D01*
X84310500Y-151001000D01*
X83959500Y-151001000D01*
X83942298Y-151000155D01*
X83925262Y-150997628D01*
X83908555Y-150993443D01*
X83892339Y-150987641D01*
X83876770Y-150980277D01*
X83861997Y-150971423D01*
X83848164Y-150961163D01*
X83835403Y-150949597D01*
X83823837Y-150936836D01*
X83813577Y-150923003D01*
X83804723Y-150908230D01*
X83797359Y-150892661D01*
X83791557Y-150876445D01*
X83787372Y-150859738D01*
X83784845Y-150842702D01*
X83784000Y-150825500D01*
X83784000Y-149124500D01*
X83784845Y-149107298D01*
X83787372Y-149090262D01*
X83791557Y-149073555D01*
X83797359Y-149057339D01*
X83804723Y-149041770D01*
X83813577Y-149026997D01*
X83823837Y-149013164D01*
X83835403Y-149000403D01*
X83848164Y-148988837D01*
X83861997Y-148978577D01*
X83876770Y-148969723D01*
X83892339Y-148962359D01*
X83908555Y-148956557D01*
X83925262Y-148952372D01*
X83942298Y-148949845D01*
X83959500Y-148949000D01*
X84310500Y-148949000D01*
X84327702Y-148949845D01*
G37*
G36*
X85597702Y-148949845D02*
G01*
X85614738Y-148952372D01*
X85631445Y-148956557D01*
X85647661Y-148962359D01*
X85663230Y-148969723D01*
X85678003Y-148978577D01*
X85691836Y-148988837D01*
X85704597Y-149000403D01*
X85716163Y-149013164D01*
X85726423Y-149026997D01*
X85735277Y-149041770D01*
X85742641Y-149057339D01*
X85748443Y-149073555D01*
X85752628Y-149090262D01*
X85755155Y-149107298D01*
X85756000Y-149124500D01*
X85756000Y-150825500D01*
X85755155Y-150842702D01*
X85752628Y-150859738D01*
X85748443Y-150876445D01*
X85742641Y-150892661D01*
X85735277Y-150908230D01*
X85726423Y-150923003D01*
X85716163Y-150936836D01*
X85704597Y-150949597D01*
X85691836Y-150961163D01*
X85678003Y-150971423D01*
X85663230Y-150980277D01*
X85647661Y-150987641D01*
X85631445Y-150993443D01*
X85614738Y-150997628D01*
X85597702Y-151000155D01*
X85580500Y-151001000D01*
X85229500Y-151001000D01*
X85212298Y-151000155D01*
X85195262Y-150997628D01*
X85178555Y-150993443D01*
X85162339Y-150987641D01*
X85146770Y-150980277D01*
X85131997Y-150971423D01*
X85118164Y-150961163D01*
X85105403Y-150949597D01*
X85093837Y-150936836D01*
X85083577Y-150923003D01*
X85074723Y-150908230D01*
X85067359Y-150892661D01*
X85061557Y-150876445D01*
X85057372Y-150859738D01*
X85054845Y-150842702D01*
X85054000Y-150825500D01*
X85054000Y-149124500D01*
X85054845Y-149107298D01*
X85057372Y-149090262D01*
X85061557Y-149073555D01*
X85067359Y-149057339D01*
X85074723Y-149041770D01*
X85083577Y-149026997D01*
X85093837Y-149013164D01*
X85105403Y-149000403D01*
X85118164Y-148988837D01*
X85131997Y-148978577D01*
X85146770Y-148969723D01*
X85162339Y-148962359D01*
X85178555Y-148956557D01*
X85195262Y-148952372D01*
X85212298Y-148949845D01*
X85229500Y-148949000D01*
X85580500Y-148949000D01*
X85597702Y-148949845D01*
G37*
G36*
X86867702Y-148949845D02*
G01*
X86884738Y-148952372D01*
X86901445Y-148956557D01*
X86917661Y-148962359D01*
X86933230Y-148969723D01*
X86948003Y-148978577D01*
X86961836Y-148988837D01*
X86974597Y-149000403D01*
X86986163Y-149013164D01*
X86996423Y-149026997D01*
X87005277Y-149041770D01*
X87012641Y-149057339D01*
X87018443Y-149073555D01*
X87022628Y-149090262D01*
X87025155Y-149107298D01*
X87026000Y-149124500D01*
X87026000Y-150825500D01*
X87025155Y-150842702D01*
X87022628Y-150859738D01*
X87018443Y-150876445D01*
X87012641Y-150892661D01*
X87005277Y-150908230D01*
X86996423Y-150923003D01*
X86986163Y-150936836D01*
X86974597Y-150949597D01*
X86961836Y-150961163D01*
X86948003Y-150971423D01*
X86933230Y-150980277D01*
X86917661Y-150987641D01*
X86901445Y-150993443D01*
X86884738Y-150997628D01*
X86867702Y-151000155D01*
X86850500Y-151001000D01*
X86499500Y-151001000D01*
X86482298Y-151000155D01*
X86465262Y-150997628D01*
X86448555Y-150993443D01*
X86432339Y-150987641D01*
X86416770Y-150980277D01*
X86401997Y-150971423D01*
X86388164Y-150961163D01*
X86375403Y-150949597D01*
X86363837Y-150936836D01*
X86353577Y-150923003D01*
X86344723Y-150908230D01*
X86337359Y-150892661D01*
X86331557Y-150876445D01*
X86327372Y-150859738D01*
X86324845Y-150842702D01*
X86324000Y-150825500D01*
X86324000Y-149124500D01*
X86324845Y-149107298D01*
X86327372Y-149090262D01*
X86331557Y-149073555D01*
X86337359Y-149057339D01*
X86344723Y-149041770D01*
X86353577Y-149026997D01*
X86363837Y-149013164D01*
X86375403Y-149000403D01*
X86388164Y-148988837D01*
X86401997Y-148978577D01*
X86416770Y-148969723D01*
X86432339Y-148962359D01*
X86448555Y-148956557D01*
X86465262Y-148952372D01*
X86482298Y-148949845D01*
X86499500Y-148949000D01*
X86850500Y-148949000D01*
X86867702Y-148949845D01*
G37*
G36*
X88137702Y-148949845D02*
G01*
X88154738Y-148952372D01*
X88171445Y-148956557D01*
X88187661Y-148962359D01*
X88203230Y-148969723D01*
X88218003Y-148978577D01*
X88231836Y-148988837D01*
X88244597Y-149000403D01*
X88256163Y-149013164D01*
X88266423Y-149026997D01*
X88275277Y-149041770D01*
X88282641Y-149057339D01*
X88288443Y-149073555D01*
X88292628Y-149090262D01*
X88295155Y-149107298D01*
X88296000Y-149124500D01*
X88296000Y-150825500D01*
X88295155Y-150842702D01*
X88292628Y-150859738D01*
X88288443Y-150876445D01*
X88282641Y-150892661D01*
X88275277Y-150908230D01*
X88266423Y-150923003D01*
X88256163Y-150936836D01*
X88244597Y-150949597D01*
X88231836Y-150961163D01*
X88218003Y-150971423D01*
X88203230Y-150980277D01*
X88187661Y-150987641D01*
X88171445Y-150993443D01*
X88154738Y-150997628D01*
X88137702Y-151000155D01*
X88120500Y-151001000D01*
X87769500Y-151001000D01*
X87752298Y-151000155D01*
X87735262Y-150997628D01*
X87718555Y-150993443D01*
X87702339Y-150987641D01*
X87686770Y-150980277D01*
X87671997Y-150971423D01*
X87658164Y-150961163D01*
X87645403Y-150949597D01*
X87633837Y-150936836D01*
X87623577Y-150923003D01*
X87614723Y-150908230D01*
X87607359Y-150892661D01*
X87601557Y-150876445D01*
X87597372Y-150859738D01*
X87594845Y-150842702D01*
X87594000Y-150825500D01*
X87594000Y-149124500D01*
X87594845Y-149107298D01*
X87597372Y-149090262D01*
X87601557Y-149073555D01*
X87607359Y-149057339D01*
X87614723Y-149041770D01*
X87623577Y-149026997D01*
X87633837Y-149013164D01*
X87645403Y-149000403D01*
X87658164Y-148988837D01*
X87671997Y-148978577D01*
X87686770Y-148969723D01*
X87702339Y-148962359D01*
X87718555Y-148956557D01*
X87735262Y-148952372D01*
X87752298Y-148949845D01*
X87769500Y-148949000D01*
X88120500Y-148949000D01*
X88137702Y-148949845D01*
G37*
G36*
X88137702Y-143999845D02*
G01*
X88154738Y-144002372D01*
X88171445Y-144006557D01*
X88187661Y-144012359D01*
X88203230Y-144019723D01*
X88218003Y-144028577D01*
X88231836Y-144038837D01*
X88244597Y-144050403D01*
X88256163Y-144063164D01*
X88266423Y-144076997D01*
X88275277Y-144091770D01*
X88282641Y-144107339D01*
X88288443Y-144123555D01*
X88292628Y-144140262D01*
X88295155Y-144157298D01*
X88296000Y-144174500D01*
X88296000Y-145875500D01*
X88295155Y-145892702D01*
X88292628Y-145909738D01*
X88288443Y-145926445D01*
X88282641Y-145942661D01*
X88275277Y-145958230D01*
X88266423Y-145973003D01*
X88256163Y-145986836D01*
X88244597Y-145999597D01*
X88231836Y-146011163D01*
X88218003Y-146021423D01*
X88203230Y-146030277D01*
X88187661Y-146037641D01*
X88171445Y-146043443D01*
X88154738Y-146047628D01*
X88137702Y-146050155D01*
X88120500Y-146051000D01*
X87769500Y-146051000D01*
X87752298Y-146050155D01*
X87735262Y-146047628D01*
X87718555Y-146043443D01*
X87702339Y-146037641D01*
X87686770Y-146030277D01*
X87671997Y-146021423D01*
X87658164Y-146011163D01*
X87645403Y-145999597D01*
X87633837Y-145986836D01*
X87623577Y-145973003D01*
X87614723Y-145958230D01*
X87607359Y-145942661D01*
X87601557Y-145926445D01*
X87597372Y-145909738D01*
X87594845Y-145892702D01*
X87594000Y-145875500D01*
X87594000Y-144174500D01*
X87594845Y-144157298D01*
X87597372Y-144140262D01*
X87601557Y-144123555D01*
X87607359Y-144107339D01*
X87614723Y-144091770D01*
X87623577Y-144076997D01*
X87633837Y-144063164D01*
X87645403Y-144050403D01*
X87658164Y-144038837D01*
X87671997Y-144028577D01*
X87686770Y-144019723D01*
X87702339Y-144012359D01*
X87718555Y-144006557D01*
X87735262Y-144002372D01*
X87752298Y-143999845D01*
X87769500Y-143999000D01*
X88120500Y-143999000D01*
X88137702Y-143999845D01*
G37*
G36*
X86867702Y-143999845D02*
G01*
X86884738Y-144002372D01*
X86901445Y-144006557D01*
X86917661Y-144012359D01*
X86933230Y-144019723D01*
X86948003Y-144028577D01*
X86961836Y-144038837D01*
X86974597Y-144050403D01*
X86986163Y-144063164D01*
X86996423Y-144076997D01*
X87005277Y-144091770D01*
X87012641Y-144107339D01*
X87018443Y-144123555D01*
X87022628Y-144140262D01*
X87025155Y-144157298D01*
X87026000Y-144174500D01*
X87026000Y-145875500D01*
X87025155Y-145892702D01*
X87022628Y-145909738D01*
X87018443Y-145926445D01*
X87012641Y-145942661D01*
X87005277Y-145958230D01*
X86996423Y-145973003D01*
X86986163Y-145986836D01*
X86974597Y-145999597D01*
X86961836Y-146011163D01*
X86948003Y-146021423D01*
X86933230Y-146030277D01*
X86917661Y-146037641D01*
X86901445Y-146043443D01*
X86884738Y-146047628D01*
X86867702Y-146050155D01*
X86850500Y-146051000D01*
X86499500Y-146051000D01*
X86482298Y-146050155D01*
X86465262Y-146047628D01*
X86448555Y-146043443D01*
X86432339Y-146037641D01*
X86416770Y-146030277D01*
X86401997Y-146021423D01*
X86388164Y-146011163D01*
X86375403Y-145999597D01*
X86363837Y-145986836D01*
X86353577Y-145973003D01*
X86344723Y-145958230D01*
X86337359Y-145942661D01*
X86331557Y-145926445D01*
X86327372Y-145909738D01*
X86324845Y-145892702D01*
X86324000Y-145875500D01*
X86324000Y-144174500D01*
X86324845Y-144157298D01*
X86327372Y-144140262D01*
X86331557Y-144123555D01*
X86337359Y-144107339D01*
X86344723Y-144091770D01*
X86353577Y-144076997D01*
X86363837Y-144063164D01*
X86375403Y-144050403D01*
X86388164Y-144038837D01*
X86401997Y-144028577D01*
X86416770Y-144019723D01*
X86432339Y-144012359D01*
X86448555Y-144006557D01*
X86465262Y-144002372D01*
X86482298Y-143999845D01*
X86499500Y-143999000D01*
X86850500Y-143999000D01*
X86867702Y-143999845D01*
G37*
G36*
X85597702Y-143999845D02*
G01*
X85614738Y-144002372D01*
X85631445Y-144006557D01*
X85647661Y-144012359D01*
X85663230Y-144019723D01*
X85678003Y-144028577D01*
X85691836Y-144038837D01*
X85704597Y-144050403D01*
X85716163Y-144063164D01*
X85726423Y-144076997D01*
X85735277Y-144091770D01*
X85742641Y-144107339D01*
X85748443Y-144123555D01*
X85752628Y-144140262D01*
X85755155Y-144157298D01*
X85756000Y-144174500D01*
X85756000Y-145875500D01*
X85755155Y-145892702D01*
X85752628Y-145909738D01*
X85748443Y-145926445D01*
X85742641Y-145942661D01*
X85735277Y-145958230D01*
X85726423Y-145973003D01*
X85716163Y-145986836D01*
X85704597Y-145999597D01*
X85691836Y-146011163D01*
X85678003Y-146021423D01*
X85663230Y-146030277D01*
X85647661Y-146037641D01*
X85631445Y-146043443D01*
X85614738Y-146047628D01*
X85597702Y-146050155D01*
X85580500Y-146051000D01*
X85229500Y-146051000D01*
X85212298Y-146050155D01*
X85195262Y-146047628D01*
X85178555Y-146043443D01*
X85162339Y-146037641D01*
X85146770Y-146030277D01*
X85131997Y-146021423D01*
X85118164Y-146011163D01*
X85105403Y-145999597D01*
X85093837Y-145986836D01*
X85083577Y-145973003D01*
X85074723Y-145958230D01*
X85067359Y-145942661D01*
X85061557Y-145926445D01*
X85057372Y-145909738D01*
X85054845Y-145892702D01*
X85054000Y-145875500D01*
X85054000Y-144174500D01*
X85054845Y-144157298D01*
X85057372Y-144140262D01*
X85061557Y-144123555D01*
X85067359Y-144107339D01*
X85074723Y-144091770D01*
X85083577Y-144076997D01*
X85093837Y-144063164D01*
X85105403Y-144050403D01*
X85118164Y-144038837D01*
X85131997Y-144028577D01*
X85146770Y-144019723D01*
X85162339Y-144012359D01*
X85178555Y-144006557D01*
X85195262Y-144002372D01*
X85212298Y-143999845D01*
X85229500Y-143999000D01*
X85580500Y-143999000D01*
X85597702Y-143999845D01*
G37*
G36*
X84327702Y-143999845D02*
G01*
X84344738Y-144002372D01*
X84361445Y-144006557D01*
X84377661Y-144012359D01*
X84393230Y-144019723D01*
X84408003Y-144028577D01*
X84421836Y-144038837D01*
X84434597Y-144050403D01*
X84446163Y-144063164D01*
X84456423Y-144076997D01*
X84465277Y-144091770D01*
X84472641Y-144107339D01*
X84478443Y-144123555D01*
X84482628Y-144140262D01*
X84485155Y-144157298D01*
X84486000Y-144174500D01*
X84486000Y-145875500D01*
X84485155Y-145892702D01*
X84482628Y-145909738D01*
X84478443Y-145926445D01*
X84472641Y-145942661D01*
X84465277Y-145958230D01*
X84456423Y-145973003D01*
X84446163Y-145986836D01*
X84434597Y-145999597D01*
X84421836Y-146011163D01*
X84408003Y-146021423D01*
X84393230Y-146030277D01*
X84377661Y-146037641D01*
X84361445Y-146043443D01*
X84344738Y-146047628D01*
X84327702Y-146050155D01*
X84310500Y-146051000D01*
X83959500Y-146051000D01*
X83942298Y-146050155D01*
X83925262Y-146047628D01*
X83908555Y-146043443D01*
X83892339Y-146037641D01*
X83876770Y-146030277D01*
X83861997Y-146021423D01*
X83848164Y-146011163D01*
X83835403Y-145999597D01*
X83823837Y-145986836D01*
X83813577Y-145973003D01*
X83804723Y-145958230D01*
X83797359Y-145942661D01*
X83791557Y-145926445D01*
X83787372Y-145909738D01*
X83784845Y-145892702D01*
X83784000Y-145875500D01*
X83784000Y-144174500D01*
X83784845Y-144157298D01*
X83787372Y-144140262D01*
X83791557Y-144123555D01*
X83797359Y-144107339D01*
X83804723Y-144091770D01*
X83813577Y-144076997D01*
X83823837Y-144063164D01*
X83835403Y-144050403D01*
X83848164Y-144038837D01*
X83861997Y-144028577D01*
X83876770Y-144019723D01*
X83892339Y-144012359D01*
X83908555Y-144006557D01*
X83925262Y-144002372D01*
X83942298Y-143999845D01*
X83959500Y-143999000D01*
X84310500Y-143999000D01*
X84327702Y-143999845D01*
G37*
G36*
X83057702Y-143999845D02*
G01*
X83074738Y-144002372D01*
X83091445Y-144006557D01*
X83107661Y-144012359D01*
X83123230Y-144019723D01*
X83138003Y-144028577D01*
X83151836Y-144038837D01*
X83164597Y-144050403D01*
X83176163Y-144063164D01*
X83186423Y-144076997D01*
X83195277Y-144091770D01*
X83202641Y-144107339D01*
X83208443Y-144123555D01*
X83212628Y-144140262D01*
X83215155Y-144157298D01*
X83216000Y-144174500D01*
X83216000Y-145875500D01*
X83215155Y-145892702D01*
X83212628Y-145909738D01*
X83208443Y-145926445D01*
X83202641Y-145942661D01*
X83195277Y-145958230D01*
X83186423Y-145973003D01*
X83176163Y-145986836D01*
X83164597Y-145999597D01*
X83151836Y-146011163D01*
X83138003Y-146021423D01*
X83123230Y-146030277D01*
X83107661Y-146037641D01*
X83091445Y-146043443D01*
X83074738Y-146047628D01*
X83057702Y-146050155D01*
X83040500Y-146051000D01*
X82689500Y-146051000D01*
X82672298Y-146050155D01*
X82655262Y-146047628D01*
X82638555Y-146043443D01*
X82622339Y-146037641D01*
X82606770Y-146030277D01*
X82591997Y-146021423D01*
X82578164Y-146011163D01*
X82565403Y-145999597D01*
X82553837Y-145986836D01*
X82543577Y-145973003D01*
X82534723Y-145958230D01*
X82527359Y-145942661D01*
X82521557Y-145926445D01*
X82517372Y-145909738D01*
X82514845Y-145892702D01*
X82514000Y-145875500D01*
X82514000Y-144174500D01*
X82514845Y-144157298D01*
X82517372Y-144140262D01*
X82521557Y-144123555D01*
X82527359Y-144107339D01*
X82534723Y-144091770D01*
X82543577Y-144076997D01*
X82553837Y-144063164D01*
X82565403Y-144050403D01*
X82578164Y-144038837D01*
X82591997Y-144028577D01*
X82606770Y-144019723D01*
X82622339Y-144012359D01*
X82638555Y-144006557D01*
X82655262Y-144002372D01*
X82672298Y-143999845D01*
X82689500Y-143999000D01*
X83040500Y-143999000D01*
X83057702Y-143999845D01*
G37*
G36*
X81787702Y-143999845D02*
G01*
X81804738Y-144002372D01*
X81821445Y-144006557D01*
X81837661Y-144012359D01*
X81853230Y-144019723D01*
X81868003Y-144028577D01*
X81881836Y-144038837D01*
X81894597Y-144050403D01*
X81906163Y-144063164D01*
X81916423Y-144076997D01*
X81925277Y-144091770D01*
X81932641Y-144107339D01*
X81938443Y-144123555D01*
X81942628Y-144140262D01*
X81945155Y-144157298D01*
X81946000Y-144174500D01*
X81946000Y-145875500D01*
X81945155Y-145892702D01*
X81942628Y-145909738D01*
X81938443Y-145926445D01*
X81932641Y-145942661D01*
X81925277Y-145958230D01*
X81916423Y-145973003D01*
X81906163Y-145986836D01*
X81894597Y-145999597D01*
X81881836Y-146011163D01*
X81868003Y-146021423D01*
X81853230Y-146030277D01*
X81837661Y-146037641D01*
X81821445Y-146043443D01*
X81804738Y-146047628D01*
X81787702Y-146050155D01*
X81770500Y-146051000D01*
X81419500Y-146051000D01*
X81402298Y-146050155D01*
X81385262Y-146047628D01*
X81368555Y-146043443D01*
X81352339Y-146037641D01*
X81336770Y-146030277D01*
X81321997Y-146021423D01*
X81308164Y-146011163D01*
X81295403Y-145999597D01*
X81283837Y-145986836D01*
X81273577Y-145973003D01*
X81264723Y-145958230D01*
X81257359Y-145942661D01*
X81251557Y-145926445D01*
X81247372Y-145909738D01*
X81244845Y-145892702D01*
X81244000Y-145875500D01*
X81244000Y-144174500D01*
X81244845Y-144157298D01*
X81247372Y-144140262D01*
X81251557Y-144123555D01*
X81257359Y-144107339D01*
X81264723Y-144091770D01*
X81273577Y-144076997D01*
X81283837Y-144063164D01*
X81295403Y-144050403D01*
X81308164Y-144038837D01*
X81321997Y-144028577D01*
X81336770Y-144019723D01*
X81352339Y-144012359D01*
X81368555Y-144006557D01*
X81385262Y-144002372D01*
X81402298Y-143999845D01*
X81419500Y-143999000D01*
X81770500Y-143999000D01*
X81787702Y-143999845D01*
G37*
G36*
X80517702Y-143999845D02*
G01*
X80534738Y-144002372D01*
X80551445Y-144006557D01*
X80567661Y-144012359D01*
X80583230Y-144019723D01*
X80598003Y-144028577D01*
X80611836Y-144038837D01*
X80624597Y-144050403D01*
X80636163Y-144063164D01*
X80646423Y-144076997D01*
X80655277Y-144091770D01*
X80662641Y-144107339D01*
X80668443Y-144123555D01*
X80672628Y-144140262D01*
X80675155Y-144157298D01*
X80676000Y-144174500D01*
X80676000Y-145875500D01*
X80675155Y-145892702D01*
X80672628Y-145909738D01*
X80668443Y-145926445D01*
X80662641Y-145942661D01*
X80655277Y-145958230D01*
X80646423Y-145973003D01*
X80636163Y-145986836D01*
X80624597Y-145999597D01*
X80611836Y-146011163D01*
X80598003Y-146021423D01*
X80583230Y-146030277D01*
X80567661Y-146037641D01*
X80551445Y-146043443D01*
X80534738Y-146047628D01*
X80517702Y-146050155D01*
X80500500Y-146051000D01*
X80149500Y-146051000D01*
X80132298Y-146050155D01*
X80115262Y-146047628D01*
X80098555Y-146043443D01*
X80082339Y-146037641D01*
X80066770Y-146030277D01*
X80051997Y-146021423D01*
X80038164Y-146011163D01*
X80025403Y-145999597D01*
X80013837Y-145986836D01*
X80003577Y-145973003D01*
X79994723Y-145958230D01*
X79987359Y-145942661D01*
X79981557Y-145926445D01*
X79977372Y-145909738D01*
X79974845Y-145892702D01*
X79974000Y-145875500D01*
X79974000Y-144174500D01*
X79974845Y-144157298D01*
X79977372Y-144140262D01*
X79981557Y-144123555D01*
X79987359Y-144107339D01*
X79994723Y-144091770D01*
X80003577Y-144076997D01*
X80013837Y-144063164D01*
X80025403Y-144050403D01*
X80038164Y-144038837D01*
X80051997Y-144028577D01*
X80066770Y-144019723D01*
X80082339Y-144012359D01*
X80098555Y-144006557D01*
X80115262Y-144002372D01*
X80132298Y-143999845D01*
X80149500Y-143999000D01*
X80500500Y-143999000D01*
X80517702Y-143999845D01*
G37*
G36*
X79247702Y-143999845D02*
G01*
X79264738Y-144002372D01*
X79281445Y-144006557D01*
X79297661Y-144012359D01*
X79313230Y-144019723D01*
X79328003Y-144028577D01*
X79341836Y-144038837D01*
X79354597Y-144050403D01*
X79366163Y-144063164D01*
X79376423Y-144076997D01*
X79385277Y-144091770D01*
X79392641Y-144107339D01*
X79398443Y-144123555D01*
X79402628Y-144140262D01*
X79405155Y-144157298D01*
X79406000Y-144174500D01*
X79406000Y-145875500D01*
X79405155Y-145892702D01*
X79402628Y-145909738D01*
X79398443Y-145926445D01*
X79392641Y-145942661D01*
X79385277Y-145958230D01*
X79376423Y-145973003D01*
X79366163Y-145986836D01*
X79354597Y-145999597D01*
X79341836Y-146011163D01*
X79328003Y-146021423D01*
X79313230Y-146030277D01*
X79297661Y-146037641D01*
X79281445Y-146043443D01*
X79264738Y-146047628D01*
X79247702Y-146050155D01*
X79230500Y-146051000D01*
X78879500Y-146051000D01*
X78862298Y-146050155D01*
X78845262Y-146047628D01*
X78828555Y-146043443D01*
X78812339Y-146037641D01*
X78796770Y-146030277D01*
X78781997Y-146021423D01*
X78768164Y-146011163D01*
X78755403Y-145999597D01*
X78743837Y-145986836D01*
X78733577Y-145973003D01*
X78724723Y-145958230D01*
X78717359Y-145942661D01*
X78711557Y-145926445D01*
X78707372Y-145909738D01*
X78704845Y-145892702D01*
X78704000Y-145875500D01*
X78704000Y-144174500D01*
X78704845Y-144157298D01*
X78707372Y-144140262D01*
X78711557Y-144123555D01*
X78717359Y-144107339D01*
X78724723Y-144091770D01*
X78733577Y-144076997D01*
X78743837Y-144063164D01*
X78755403Y-144050403D01*
X78768164Y-144038837D01*
X78781997Y-144028577D01*
X78796770Y-144019723D01*
X78812339Y-144012359D01*
X78828555Y-144006557D01*
X78845262Y-144002372D01*
X78862298Y-143999845D01*
X78879500Y-143999000D01*
X79230500Y-143999000D01*
X79247702Y-143999845D01*
G37*
D23*
X113730000Y-124265000D03*
X118680000Y-124265000D03*
D21*
X115000000Y-143193000D03*
D22*
X115000000Y-148193000D03*
D17*
G36*
X67997702Y-150574845D02*
G01*
X68014738Y-150577372D01*
X68031445Y-150581557D01*
X68047661Y-150587359D01*
X68063230Y-150594723D01*
X68078003Y-150603577D01*
X68091836Y-150613837D01*
X68104597Y-150625403D01*
X68116163Y-150638164D01*
X68126423Y-150651997D01*
X68135277Y-150666770D01*
X68142641Y-150682339D01*
X68148443Y-150698555D01*
X68152628Y-150715262D01*
X68155155Y-150732298D01*
X68156000Y-150749500D01*
X68156000Y-152550500D01*
X68155155Y-152567702D01*
X68152628Y-152584738D01*
X68148443Y-152601445D01*
X68142641Y-152617661D01*
X68135277Y-152633230D01*
X68126423Y-152648003D01*
X68116163Y-152661836D01*
X68104597Y-152674597D01*
X68091836Y-152686163D01*
X68078003Y-152696423D01*
X68063230Y-152705277D01*
X68047661Y-152712641D01*
X68031445Y-152718443D01*
X68014738Y-152722628D01*
X67997702Y-152725155D01*
X67980500Y-152726000D01*
X67629500Y-152726000D01*
X67612298Y-152725155D01*
X67595262Y-152722628D01*
X67578555Y-152718443D01*
X67562339Y-152712641D01*
X67546770Y-152705277D01*
X67531997Y-152696423D01*
X67518164Y-152686163D01*
X67505403Y-152674597D01*
X67493837Y-152661836D01*
X67483577Y-152648003D01*
X67474723Y-152633230D01*
X67467359Y-152617661D01*
X67461557Y-152601445D01*
X67457372Y-152584738D01*
X67454845Y-152567702D01*
X67454000Y-152550500D01*
X67454000Y-150749500D01*
X67454845Y-150732298D01*
X67457372Y-150715262D01*
X67461557Y-150698555D01*
X67467359Y-150682339D01*
X67474723Y-150666770D01*
X67483577Y-150651997D01*
X67493837Y-150638164D01*
X67505403Y-150625403D01*
X67518164Y-150613837D01*
X67531997Y-150603577D01*
X67546770Y-150594723D01*
X67562339Y-150587359D01*
X67578555Y-150581557D01*
X67595262Y-150577372D01*
X67612298Y-150574845D01*
X67629500Y-150574000D01*
X67980500Y-150574000D01*
X67997702Y-150574845D01*
G37*
G36*
X69267702Y-150574845D02*
G01*
X69284738Y-150577372D01*
X69301445Y-150581557D01*
X69317661Y-150587359D01*
X69333230Y-150594723D01*
X69348003Y-150603577D01*
X69361836Y-150613837D01*
X69374597Y-150625403D01*
X69386163Y-150638164D01*
X69396423Y-150651997D01*
X69405277Y-150666770D01*
X69412641Y-150682339D01*
X69418443Y-150698555D01*
X69422628Y-150715262D01*
X69425155Y-150732298D01*
X69426000Y-150749500D01*
X69426000Y-152550500D01*
X69425155Y-152567702D01*
X69422628Y-152584738D01*
X69418443Y-152601445D01*
X69412641Y-152617661D01*
X69405277Y-152633230D01*
X69396423Y-152648003D01*
X69386163Y-152661836D01*
X69374597Y-152674597D01*
X69361836Y-152686163D01*
X69348003Y-152696423D01*
X69333230Y-152705277D01*
X69317661Y-152712641D01*
X69301445Y-152718443D01*
X69284738Y-152722628D01*
X69267702Y-152725155D01*
X69250500Y-152726000D01*
X68899500Y-152726000D01*
X68882298Y-152725155D01*
X68865262Y-152722628D01*
X68848555Y-152718443D01*
X68832339Y-152712641D01*
X68816770Y-152705277D01*
X68801997Y-152696423D01*
X68788164Y-152686163D01*
X68775403Y-152674597D01*
X68763837Y-152661836D01*
X68753577Y-152648003D01*
X68744723Y-152633230D01*
X68737359Y-152617661D01*
X68731557Y-152601445D01*
X68727372Y-152584738D01*
X68724845Y-152567702D01*
X68724000Y-152550500D01*
X68724000Y-150749500D01*
X68724845Y-150732298D01*
X68727372Y-150715262D01*
X68731557Y-150698555D01*
X68737359Y-150682339D01*
X68744723Y-150666770D01*
X68753577Y-150651997D01*
X68763837Y-150638164D01*
X68775403Y-150625403D01*
X68788164Y-150613837D01*
X68801997Y-150603577D01*
X68816770Y-150594723D01*
X68832339Y-150587359D01*
X68848555Y-150581557D01*
X68865262Y-150577372D01*
X68882298Y-150574845D01*
X68899500Y-150574000D01*
X69250500Y-150574000D01*
X69267702Y-150574845D01*
G37*
G36*
X70537702Y-150574845D02*
G01*
X70554738Y-150577372D01*
X70571445Y-150581557D01*
X70587661Y-150587359D01*
X70603230Y-150594723D01*
X70618003Y-150603577D01*
X70631836Y-150613837D01*
X70644597Y-150625403D01*
X70656163Y-150638164D01*
X70666423Y-150651997D01*
X70675277Y-150666770D01*
X70682641Y-150682339D01*
X70688443Y-150698555D01*
X70692628Y-150715262D01*
X70695155Y-150732298D01*
X70696000Y-150749500D01*
X70696000Y-152550500D01*
X70695155Y-152567702D01*
X70692628Y-152584738D01*
X70688443Y-152601445D01*
X70682641Y-152617661D01*
X70675277Y-152633230D01*
X70666423Y-152648003D01*
X70656163Y-152661836D01*
X70644597Y-152674597D01*
X70631836Y-152686163D01*
X70618003Y-152696423D01*
X70603230Y-152705277D01*
X70587661Y-152712641D01*
X70571445Y-152718443D01*
X70554738Y-152722628D01*
X70537702Y-152725155D01*
X70520500Y-152726000D01*
X70169500Y-152726000D01*
X70152298Y-152725155D01*
X70135262Y-152722628D01*
X70118555Y-152718443D01*
X70102339Y-152712641D01*
X70086770Y-152705277D01*
X70071997Y-152696423D01*
X70058164Y-152686163D01*
X70045403Y-152674597D01*
X70033837Y-152661836D01*
X70023577Y-152648003D01*
X70014723Y-152633230D01*
X70007359Y-152617661D01*
X70001557Y-152601445D01*
X69997372Y-152584738D01*
X69994845Y-152567702D01*
X69994000Y-152550500D01*
X69994000Y-150749500D01*
X69994845Y-150732298D01*
X69997372Y-150715262D01*
X70001557Y-150698555D01*
X70007359Y-150682339D01*
X70014723Y-150666770D01*
X70023577Y-150651997D01*
X70033837Y-150638164D01*
X70045403Y-150625403D01*
X70058164Y-150613837D01*
X70071997Y-150603577D01*
X70086770Y-150594723D01*
X70102339Y-150587359D01*
X70118555Y-150581557D01*
X70135262Y-150577372D01*
X70152298Y-150574845D01*
X70169500Y-150574000D01*
X70520500Y-150574000D01*
X70537702Y-150574845D01*
G37*
G36*
X71807702Y-150574845D02*
G01*
X71824738Y-150577372D01*
X71841445Y-150581557D01*
X71857661Y-150587359D01*
X71873230Y-150594723D01*
X71888003Y-150603577D01*
X71901836Y-150613837D01*
X71914597Y-150625403D01*
X71926163Y-150638164D01*
X71936423Y-150651997D01*
X71945277Y-150666770D01*
X71952641Y-150682339D01*
X71958443Y-150698555D01*
X71962628Y-150715262D01*
X71965155Y-150732298D01*
X71966000Y-150749500D01*
X71966000Y-152550500D01*
X71965155Y-152567702D01*
X71962628Y-152584738D01*
X71958443Y-152601445D01*
X71952641Y-152617661D01*
X71945277Y-152633230D01*
X71936423Y-152648003D01*
X71926163Y-152661836D01*
X71914597Y-152674597D01*
X71901836Y-152686163D01*
X71888003Y-152696423D01*
X71873230Y-152705277D01*
X71857661Y-152712641D01*
X71841445Y-152718443D01*
X71824738Y-152722628D01*
X71807702Y-152725155D01*
X71790500Y-152726000D01*
X71439500Y-152726000D01*
X71422298Y-152725155D01*
X71405262Y-152722628D01*
X71388555Y-152718443D01*
X71372339Y-152712641D01*
X71356770Y-152705277D01*
X71341997Y-152696423D01*
X71328164Y-152686163D01*
X71315403Y-152674597D01*
X71303837Y-152661836D01*
X71293577Y-152648003D01*
X71284723Y-152633230D01*
X71277359Y-152617661D01*
X71271557Y-152601445D01*
X71267372Y-152584738D01*
X71264845Y-152567702D01*
X71264000Y-152550500D01*
X71264000Y-150749500D01*
X71264845Y-150732298D01*
X71267372Y-150715262D01*
X71271557Y-150698555D01*
X71277359Y-150682339D01*
X71284723Y-150666770D01*
X71293577Y-150651997D01*
X71303837Y-150638164D01*
X71315403Y-150625403D01*
X71328164Y-150613837D01*
X71341997Y-150603577D01*
X71356770Y-150594723D01*
X71372339Y-150587359D01*
X71388555Y-150581557D01*
X71405262Y-150577372D01*
X71422298Y-150574845D01*
X71439500Y-150574000D01*
X71790500Y-150574000D01*
X71807702Y-150574845D01*
G37*
G36*
X73077702Y-150574845D02*
G01*
X73094738Y-150577372D01*
X73111445Y-150581557D01*
X73127661Y-150587359D01*
X73143230Y-150594723D01*
X73158003Y-150603577D01*
X73171836Y-150613837D01*
X73184597Y-150625403D01*
X73196163Y-150638164D01*
X73206423Y-150651997D01*
X73215277Y-150666770D01*
X73222641Y-150682339D01*
X73228443Y-150698555D01*
X73232628Y-150715262D01*
X73235155Y-150732298D01*
X73236000Y-150749500D01*
X73236000Y-152550500D01*
X73235155Y-152567702D01*
X73232628Y-152584738D01*
X73228443Y-152601445D01*
X73222641Y-152617661D01*
X73215277Y-152633230D01*
X73206423Y-152648003D01*
X73196163Y-152661836D01*
X73184597Y-152674597D01*
X73171836Y-152686163D01*
X73158003Y-152696423D01*
X73143230Y-152705277D01*
X73127661Y-152712641D01*
X73111445Y-152718443D01*
X73094738Y-152722628D01*
X73077702Y-152725155D01*
X73060500Y-152726000D01*
X72709500Y-152726000D01*
X72692298Y-152725155D01*
X72675262Y-152722628D01*
X72658555Y-152718443D01*
X72642339Y-152712641D01*
X72626770Y-152705277D01*
X72611997Y-152696423D01*
X72598164Y-152686163D01*
X72585403Y-152674597D01*
X72573837Y-152661836D01*
X72563577Y-152648003D01*
X72554723Y-152633230D01*
X72547359Y-152617661D01*
X72541557Y-152601445D01*
X72537372Y-152584738D01*
X72534845Y-152567702D01*
X72534000Y-152550500D01*
X72534000Y-150749500D01*
X72534845Y-150732298D01*
X72537372Y-150715262D01*
X72541557Y-150698555D01*
X72547359Y-150682339D01*
X72554723Y-150666770D01*
X72563577Y-150651997D01*
X72573837Y-150638164D01*
X72585403Y-150625403D01*
X72598164Y-150613837D01*
X72611997Y-150603577D01*
X72626770Y-150594723D01*
X72642339Y-150587359D01*
X72658555Y-150581557D01*
X72675262Y-150577372D01*
X72692298Y-150574845D01*
X72709500Y-150574000D01*
X73060500Y-150574000D01*
X73077702Y-150574845D01*
G37*
G36*
X74347702Y-150574845D02*
G01*
X74364738Y-150577372D01*
X74381445Y-150581557D01*
X74397661Y-150587359D01*
X74413230Y-150594723D01*
X74428003Y-150603577D01*
X74441836Y-150613837D01*
X74454597Y-150625403D01*
X74466163Y-150638164D01*
X74476423Y-150651997D01*
X74485277Y-150666770D01*
X74492641Y-150682339D01*
X74498443Y-150698555D01*
X74502628Y-150715262D01*
X74505155Y-150732298D01*
X74506000Y-150749500D01*
X74506000Y-152550500D01*
X74505155Y-152567702D01*
X74502628Y-152584738D01*
X74498443Y-152601445D01*
X74492641Y-152617661D01*
X74485277Y-152633230D01*
X74476423Y-152648003D01*
X74466163Y-152661836D01*
X74454597Y-152674597D01*
X74441836Y-152686163D01*
X74428003Y-152696423D01*
X74413230Y-152705277D01*
X74397661Y-152712641D01*
X74381445Y-152718443D01*
X74364738Y-152722628D01*
X74347702Y-152725155D01*
X74330500Y-152726000D01*
X73979500Y-152726000D01*
X73962298Y-152725155D01*
X73945262Y-152722628D01*
X73928555Y-152718443D01*
X73912339Y-152712641D01*
X73896770Y-152705277D01*
X73881997Y-152696423D01*
X73868164Y-152686163D01*
X73855403Y-152674597D01*
X73843837Y-152661836D01*
X73833577Y-152648003D01*
X73824723Y-152633230D01*
X73817359Y-152617661D01*
X73811557Y-152601445D01*
X73807372Y-152584738D01*
X73804845Y-152567702D01*
X73804000Y-152550500D01*
X73804000Y-150749500D01*
X73804845Y-150732298D01*
X73807372Y-150715262D01*
X73811557Y-150698555D01*
X73817359Y-150682339D01*
X73824723Y-150666770D01*
X73833577Y-150651997D01*
X73843837Y-150638164D01*
X73855403Y-150625403D01*
X73868164Y-150613837D01*
X73881997Y-150603577D01*
X73896770Y-150594723D01*
X73912339Y-150587359D01*
X73928555Y-150581557D01*
X73945262Y-150577372D01*
X73962298Y-150574845D01*
X73979500Y-150574000D01*
X74330500Y-150574000D01*
X74347702Y-150574845D01*
G37*
G36*
X75617702Y-150574845D02*
G01*
X75634738Y-150577372D01*
X75651445Y-150581557D01*
X75667661Y-150587359D01*
X75683230Y-150594723D01*
X75698003Y-150603577D01*
X75711836Y-150613837D01*
X75724597Y-150625403D01*
X75736163Y-150638164D01*
X75746423Y-150651997D01*
X75755277Y-150666770D01*
X75762641Y-150682339D01*
X75768443Y-150698555D01*
X75772628Y-150715262D01*
X75775155Y-150732298D01*
X75776000Y-150749500D01*
X75776000Y-152550500D01*
X75775155Y-152567702D01*
X75772628Y-152584738D01*
X75768443Y-152601445D01*
X75762641Y-152617661D01*
X75755277Y-152633230D01*
X75746423Y-152648003D01*
X75736163Y-152661836D01*
X75724597Y-152674597D01*
X75711836Y-152686163D01*
X75698003Y-152696423D01*
X75683230Y-152705277D01*
X75667661Y-152712641D01*
X75651445Y-152718443D01*
X75634738Y-152722628D01*
X75617702Y-152725155D01*
X75600500Y-152726000D01*
X75249500Y-152726000D01*
X75232298Y-152725155D01*
X75215262Y-152722628D01*
X75198555Y-152718443D01*
X75182339Y-152712641D01*
X75166770Y-152705277D01*
X75151997Y-152696423D01*
X75138164Y-152686163D01*
X75125403Y-152674597D01*
X75113837Y-152661836D01*
X75103577Y-152648003D01*
X75094723Y-152633230D01*
X75087359Y-152617661D01*
X75081557Y-152601445D01*
X75077372Y-152584738D01*
X75074845Y-152567702D01*
X75074000Y-152550500D01*
X75074000Y-150749500D01*
X75074845Y-150732298D01*
X75077372Y-150715262D01*
X75081557Y-150698555D01*
X75087359Y-150682339D01*
X75094723Y-150666770D01*
X75103577Y-150651997D01*
X75113837Y-150638164D01*
X75125403Y-150625403D01*
X75138164Y-150613837D01*
X75151997Y-150603577D01*
X75166770Y-150594723D01*
X75182339Y-150587359D01*
X75198555Y-150581557D01*
X75215262Y-150577372D01*
X75232298Y-150574845D01*
X75249500Y-150574000D01*
X75600500Y-150574000D01*
X75617702Y-150574845D01*
G37*
G36*
X76887702Y-150574845D02*
G01*
X76904738Y-150577372D01*
X76921445Y-150581557D01*
X76937661Y-150587359D01*
X76953230Y-150594723D01*
X76968003Y-150603577D01*
X76981836Y-150613837D01*
X76994597Y-150625403D01*
X77006163Y-150638164D01*
X77016423Y-150651997D01*
X77025277Y-150666770D01*
X77032641Y-150682339D01*
X77038443Y-150698555D01*
X77042628Y-150715262D01*
X77045155Y-150732298D01*
X77046000Y-150749500D01*
X77046000Y-152550500D01*
X77045155Y-152567702D01*
X77042628Y-152584738D01*
X77038443Y-152601445D01*
X77032641Y-152617661D01*
X77025277Y-152633230D01*
X77016423Y-152648003D01*
X77006163Y-152661836D01*
X76994597Y-152674597D01*
X76981836Y-152686163D01*
X76968003Y-152696423D01*
X76953230Y-152705277D01*
X76937661Y-152712641D01*
X76921445Y-152718443D01*
X76904738Y-152722628D01*
X76887702Y-152725155D01*
X76870500Y-152726000D01*
X76519500Y-152726000D01*
X76502298Y-152725155D01*
X76485262Y-152722628D01*
X76468555Y-152718443D01*
X76452339Y-152712641D01*
X76436770Y-152705277D01*
X76421997Y-152696423D01*
X76408164Y-152686163D01*
X76395403Y-152674597D01*
X76383837Y-152661836D01*
X76373577Y-152648003D01*
X76364723Y-152633230D01*
X76357359Y-152617661D01*
X76351557Y-152601445D01*
X76347372Y-152584738D01*
X76344845Y-152567702D01*
X76344000Y-152550500D01*
X76344000Y-150749500D01*
X76344845Y-150732298D01*
X76347372Y-150715262D01*
X76351557Y-150698555D01*
X76357359Y-150682339D01*
X76364723Y-150666770D01*
X76373577Y-150651997D01*
X76383837Y-150638164D01*
X76395403Y-150625403D01*
X76408164Y-150613837D01*
X76421997Y-150603577D01*
X76436770Y-150594723D01*
X76452339Y-150587359D01*
X76468555Y-150581557D01*
X76485262Y-150577372D01*
X76502298Y-150574845D01*
X76519500Y-150574000D01*
X76870500Y-150574000D01*
X76887702Y-150574845D01*
G37*
G36*
X76887702Y-141274845D02*
G01*
X76904738Y-141277372D01*
X76921445Y-141281557D01*
X76937661Y-141287359D01*
X76953230Y-141294723D01*
X76968003Y-141303577D01*
X76981836Y-141313837D01*
X76994597Y-141325403D01*
X77006163Y-141338164D01*
X77016423Y-141351997D01*
X77025277Y-141366770D01*
X77032641Y-141382339D01*
X77038443Y-141398555D01*
X77042628Y-141415262D01*
X77045155Y-141432298D01*
X77046000Y-141449500D01*
X77046000Y-143250500D01*
X77045155Y-143267702D01*
X77042628Y-143284738D01*
X77038443Y-143301445D01*
X77032641Y-143317661D01*
X77025277Y-143333230D01*
X77016423Y-143348003D01*
X77006163Y-143361836D01*
X76994597Y-143374597D01*
X76981836Y-143386163D01*
X76968003Y-143396423D01*
X76953230Y-143405277D01*
X76937661Y-143412641D01*
X76921445Y-143418443D01*
X76904738Y-143422628D01*
X76887702Y-143425155D01*
X76870500Y-143426000D01*
X76519500Y-143426000D01*
X76502298Y-143425155D01*
X76485262Y-143422628D01*
X76468555Y-143418443D01*
X76452339Y-143412641D01*
X76436770Y-143405277D01*
X76421997Y-143396423D01*
X76408164Y-143386163D01*
X76395403Y-143374597D01*
X76383837Y-143361836D01*
X76373577Y-143348003D01*
X76364723Y-143333230D01*
X76357359Y-143317661D01*
X76351557Y-143301445D01*
X76347372Y-143284738D01*
X76344845Y-143267702D01*
X76344000Y-143250500D01*
X76344000Y-141449500D01*
X76344845Y-141432298D01*
X76347372Y-141415262D01*
X76351557Y-141398555D01*
X76357359Y-141382339D01*
X76364723Y-141366770D01*
X76373577Y-141351997D01*
X76383837Y-141338164D01*
X76395403Y-141325403D01*
X76408164Y-141313837D01*
X76421997Y-141303577D01*
X76436770Y-141294723D01*
X76452339Y-141287359D01*
X76468555Y-141281557D01*
X76485262Y-141277372D01*
X76502298Y-141274845D01*
X76519500Y-141274000D01*
X76870500Y-141274000D01*
X76887702Y-141274845D01*
G37*
G36*
X75617702Y-141274845D02*
G01*
X75634738Y-141277372D01*
X75651445Y-141281557D01*
X75667661Y-141287359D01*
X75683230Y-141294723D01*
X75698003Y-141303577D01*
X75711836Y-141313837D01*
X75724597Y-141325403D01*
X75736163Y-141338164D01*
X75746423Y-141351997D01*
X75755277Y-141366770D01*
X75762641Y-141382339D01*
X75768443Y-141398555D01*
X75772628Y-141415262D01*
X75775155Y-141432298D01*
X75776000Y-141449500D01*
X75776000Y-143250500D01*
X75775155Y-143267702D01*
X75772628Y-143284738D01*
X75768443Y-143301445D01*
X75762641Y-143317661D01*
X75755277Y-143333230D01*
X75746423Y-143348003D01*
X75736163Y-143361836D01*
X75724597Y-143374597D01*
X75711836Y-143386163D01*
X75698003Y-143396423D01*
X75683230Y-143405277D01*
X75667661Y-143412641D01*
X75651445Y-143418443D01*
X75634738Y-143422628D01*
X75617702Y-143425155D01*
X75600500Y-143426000D01*
X75249500Y-143426000D01*
X75232298Y-143425155D01*
X75215262Y-143422628D01*
X75198555Y-143418443D01*
X75182339Y-143412641D01*
X75166770Y-143405277D01*
X75151997Y-143396423D01*
X75138164Y-143386163D01*
X75125403Y-143374597D01*
X75113837Y-143361836D01*
X75103577Y-143348003D01*
X75094723Y-143333230D01*
X75087359Y-143317661D01*
X75081557Y-143301445D01*
X75077372Y-143284738D01*
X75074845Y-143267702D01*
X75074000Y-143250500D01*
X75074000Y-141449500D01*
X75074845Y-141432298D01*
X75077372Y-141415262D01*
X75081557Y-141398555D01*
X75087359Y-141382339D01*
X75094723Y-141366770D01*
X75103577Y-141351997D01*
X75113837Y-141338164D01*
X75125403Y-141325403D01*
X75138164Y-141313837D01*
X75151997Y-141303577D01*
X75166770Y-141294723D01*
X75182339Y-141287359D01*
X75198555Y-141281557D01*
X75215262Y-141277372D01*
X75232298Y-141274845D01*
X75249500Y-141274000D01*
X75600500Y-141274000D01*
X75617702Y-141274845D01*
G37*
G36*
X74347702Y-141274845D02*
G01*
X74364738Y-141277372D01*
X74381445Y-141281557D01*
X74397661Y-141287359D01*
X74413230Y-141294723D01*
X74428003Y-141303577D01*
X74441836Y-141313837D01*
X74454597Y-141325403D01*
X74466163Y-141338164D01*
X74476423Y-141351997D01*
X74485277Y-141366770D01*
X74492641Y-141382339D01*
X74498443Y-141398555D01*
X74502628Y-141415262D01*
X74505155Y-141432298D01*
X74506000Y-141449500D01*
X74506000Y-143250500D01*
X74505155Y-143267702D01*
X74502628Y-143284738D01*
X74498443Y-143301445D01*
X74492641Y-143317661D01*
X74485277Y-143333230D01*
X74476423Y-143348003D01*
X74466163Y-143361836D01*
X74454597Y-143374597D01*
X74441836Y-143386163D01*
X74428003Y-143396423D01*
X74413230Y-143405277D01*
X74397661Y-143412641D01*
X74381445Y-143418443D01*
X74364738Y-143422628D01*
X74347702Y-143425155D01*
X74330500Y-143426000D01*
X73979500Y-143426000D01*
X73962298Y-143425155D01*
X73945262Y-143422628D01*
X73928555Y-143418443D01*
X73912339Y-143412641D01*
X73896770Y-143405277D01*
X73881997Y-143396423D01*
X73868164Y-143386163D01*
X73855403Y-143374597D01*
X73843837Y-143361836D01*
X73833577Y-143348003D01*
X73824723Y-143333230D01*
X73817359Y-143317661D01*
X73811557Y-143301445D01*
X73807372Y-143284738D01*
X73804845Y-143267702D01*
X73804000Y-143250500D01*
X73804000Y-141449500D01*
X73804845Y-141432298D01*
X73807372Y-141415262D01*
X73811557Y-141398555D01*
X73817359Y-141382339D01*
X73824723Y-141366770D01*
X73833577Y-141351997D01*
X73843837Y-141338164D01*
X73855403Y-141325403D01*
X73868164Y-141313837D01*
X73881997Y-141303577D01*
X73896770Y-141294723D01*
X73912339Y-141287359D01*
X73928555Y-141281557D01*
X73945262Y-141277372D01*
X73962298Y-141274845D01*
X73979500Y-141274000D01*
X74330500Y-141274000D01*
X74347702Y-141274845D01*
G37*
G36*
X73077702Y-141274845D02*
G01*
X73094738Y-141277372D01*
X73111445Y-141281557D01*
X73127661Y-141287359D01*
X73143230Y-141294723D01*
X73158003Y-141303577D01*
X73171836Y-141313837D01*
X73184597Y-141325403D01*
X73196163Y-141338164D01*
X73206423Y-141351997D01*
X73215277Y-141366770D01*
X73222641Y-141382339D01*
X73228443Y-141398555D01*
X73232628Y-141415262D01*
X73235155Y-141432298D01*
X73236000Y-141449500D01*
X73236000Y-143250500D01*
X73235155Y-143267702D01*
X73232628Y-143284738D01*
X73228443Y-143301445D01*
X73222641Y-143317661D01*
X73215277Y-143333230D01*
X73206423Y-143348003D01*
X73196163Y-143361836D01*
X73184597Y-143374597D01*
X73171836Y-143386163D01*
X73158003Y-143396423D01*
X73143230Y-143405277D01*
X73127661Y-143412641D01*
X73111445Y-143418443D01*
X73094738Y-143422628D01*
X73077702Y-143425155D01*
X73060500Y-143426000D01*
X72709500Y-143426000D01*
X72692298Y-143425155D01*
X72675262Y-143422628D01*
X72658555Y-143418443D01*
X72642339Y-143412641D01*
X72626770Y-143405277D01*
X72611997Y-143396423D01*
X72598164Y-143386163D01*
X72585403Y-143374597D01*
X72573837Y-143361836D01*
X72563577Y-143348003D01*
X72554723Y-143333230D01*
X72547359Y-143317661D01*
X72541557Y-143301445D01*
X72537372Y-143284738D01*
X72534845Y-143267702D01*
X72534000Y-143250500D01*
X72534000Y-141449500D01*
X72534845Y-141432298D01*
X72537372Y-141415262D01*
X72541557Y-141398555D01*
X72547359Y-141382339D01*
X72554723Y-141366770D01*
X72563577Y-141351997D01*
X72573837Y-141338164D01*
X72585403Y-141325403D01*
X72598164Y-141313837D01*
X72611997Y-141303577D01*
X72626770Y-141294723D01*
X72642339Y-141287359D01*
X72658555Y-141281557D01*
X72675262Y-141277372D01*
X72692298Y-141274845D01*
X72709500Y-141274000D01*
X73060500Y-141274000D01*
X73077702Y-141274845D01*
G37*
G36*
X71807702Y-141274845D02*
G01*
X71824738Y-141277372D01*
X71841445Y-141281557D01*
X71857661Y-141287359D01*
X71873230Y-141294723D01*
X71888003Y-141303577D01*
X71901836Y-141313837D01*
X71914597Y-141325403D01*
X71926163Y-141338164D01*
X71936423Y-141351997D01*
X71945277Y-141366770D01*
X71952641Y-141382339D01*
X71958443Y-141398555D01*
X71962628Y-141415262D01*
X71965155Y-141432298D01*
X71966000Y-141449500D01*
X71966000Y-143250500D01*
X71965155Y-143267702D01*
X71962628Y-143284738D01*
X71958443Y-143301445D01*
X71952641Y-143317661D01*
X71945277Y-143333230D01*
X71936423Y-143348003D01*
X71926163Y-143361836D01*
X71914597Y-143374597D01*
X71901836Y-143386163D01*
X71888003Y-143396423D01*
X71873230Y-143405277D01*
X71857661Y-143412641D01*
X71841445Y-143418443D01*
X71824738Y-143422628D01*
X71807702Y-143425155D01*
X71790500Y-143426000D01*
X71439500Y-143426000D01*
X71422298Y-143425155D01*
X71405262Y-143422628D01*
X71388555Y-143418443D01*
X71372339Y-143412641D01*
X71356770Y-143405277D01*
X71341997Y-143396423D01*
X71328164Y-143386163D01*
X71315403Y-143374597D01*
X71303837Y-143361836D01*
X71293577Y-143348003D01*
X71284723Y-143333230D01*
X71277359Y-143317661D01*
X71271557Y-143301445D01*
X71267372Y-143284738D01*
X71264845Y-143267702D01*
X71264000Y-143250500D01*
X71264000Y-141449500D01*
X71264845Y-141432298D01*
X71267372Y-141415262D01*
X71271557Y-141398555D01*
X71277359Y-141382339D01*
X71284723Y-141366770D01*
X71293577Y-141351997D01*
X71303837Y-141338164D01*
X71315403Y-141325403D01*
X71328164Y-141313837D01*
X71341997Y-141303577D01*
X71356770Y-141294723D01*
X71372339Y-141287359D01*
X71388555Y-141281557D01*
X71405262Y-141277372D01*
X71422298Y-141274845D01*
X71439500Y-141274000D01*
X71790500Y-141274000D01*
X71807702Y-141274845D01*
G37*
G36*
X70537702Y-141274845D02*
G01*
X70554738Y-141277372D01*
X70571445Y-141281557D01*
X70587661Y-141287359D01*
X70603230Y-141294723D01*
X70618003Y-141303577D01*
X70631836Y-141313837D01*
X70644597Y-141325403D01*
X70656163Y-141338164D01*
X70666423Y-141351997D01*
X70675277Y-141366770D01*
X70682641Y-141382339D01*
X70688443Y-141398555D01*
X70692628Y-141415262D01*
X70695155Y-141432298D01*
X70696000Y-141449500D01*
X70696000Y-143250500D01*
X70695155Y-143267702D01*
X70692628Y-143284738D01*
X70688443Y-143301445D01*
X70682641Y-143317661D01*
X70675277Y-143333230D01*
X70666423Y-143348003D01*
X70656163Y-143361836D01*
X70644597Y-143374597D01*
X70631836Y-143386163D01*
X70618003Y-143396423D01*
X70603230Y-143405277D01*
X70587661Y-143412641D01*
X70571445Y-143418443D01*
X70554738Y-143422628D01*
X70537702Y-143425155D01*
X70520500Y-143426000D01*
X70169500Y-143426000D01*
X70152298Y-143425155D01*
X70135262Y-143422628D01*
X70118555Y-143418443D01*
X70102339Y-143412641D01*
X70086770Y-143405277D01*
X70071997Y-143396423D01*
X70058164Y-143386163D01*
X70045403Y-143374597D01*
X70033837Y-143361836D01*
X70023577Y-143348003D01*
X70014723Y-143333230D01*
X70007359Y-143317661D01*
X70001557Y-143301445D01*
X69997372Y-143284738D01*
X69994845Y-143267702D01*
X69994000Y-143250500D01*
X69994000Y-141449500D01*
X69994845Y-141432298D01*
X69997372Y-141415262D01*
X70001557Y-141398555D01*
X70007359Y-141382339D01*
X70014723Y-141366770D01*
X70023577Y-141351997D01*
X70033837Y-141338164D01*
X70045403Y-141325403D01*
X70058164Y-141313837D01*
X70071997Y-141303577D01*
X70086770Y-141294723D01*
X70102339Y-141287359D01*
X70118555Y-141281557D01*
X70135262Y-141277372D01*
X70152298Y-141274845D01*
X70169500Y-141274000D01*
X70520500Y-141274000D01*
X70537702Y-141274845D01*
G37*
G36*
X69267702Y-141274845D02*
G01*
X69284738Y-141277372D01*
X69301445Y-141281557D01*
X69317661Y-141287359D01*
X69333230Y-141294723D01*
X69348003Y-141303577D01*
X69361836Y-141313837D01*
X69374597Y-141325403D01*
X69386163Y-141338164D01*
X69396423Y-141351997D01*
X69405277Y-141366770D01*
X69412641Y-141382339D01*
X69418443Y-141398555D01*
X69422628Y-141415262D01*
X69425155Y-141432298D01*
X69426000Y-141449500D01*
X69426000Y-143250500D01*
X69425155Y-143267702D01*
X69422628Y-143284738D01*
X69418443Y-143301445D01*
X69412641Y-143317661D01*
X69405277Y-143333230D01*
X69396423Y-143348003D01*
X69386163Y-143361836D01*
X69374597Y-143374597D01*
X69361836Y-143386163D01*
X69348003Y-143396423D01*
X69333230Y-143405277D01*
X69317661Y-143412641D01*
X69301445Y-143418443D01*
X69284738Y-143422628D01*
X69267702Y-143425155D01*
X69250500Y-143426000D01*
X68899500Y-143426000D01*
X68882298Y-143425155D01*
X68865262Y-143422628D01*
X68848555Y-143418443D01*
X68832339Y-143412641D01*
X68816770Y-143405277D01*
X68801997Y-143396423D01*
X68788164Y-143386163D01*
X68775403Y-143374597D01*
X68763837Y-143361836D01*
X68753577Y-143348003D01*
X68744723Y-143333230D01*
X68737359Y-143317661D01*
X68731557Y-143301445D01*
X68727372Y-143284738D01*
X68724845Y-143267702D01*
X68724000Y-143250500D01*
X68724000Y-141449500D01*
X68724845Y-141432298D01*
X68727372Y-141415262D01*
X68731557Y-141398555D01*
X68737359Y-141382339D01*
X68744723Y-141366770D01*
X68753577Y-141351997D01*
X68763837Y-141338164D01*
X68775403Y-141325403D01*
X68788164Y-141313837D01*
X68801997Y-141303577D01*
X68816770Y-141294723D01*
X68832339Y-141287359D01*
X68848555Y-141281557D01*
X68865262Y-141277372D01*
X68882298Y-141274845D01*
X68899500Y-141274000D01*
X69250500Y-141274000D01*
X69267702Y-141274845D01*
G37*
G36*
X67997702Y-141274845D02*
G01*
X68014738Y-141277372D01*
X68031445Y-141281557D01*
X68047661Y-141287359D01*
X68063230Y-141294723D01*
X68078003Y-141303577D01*
X68091836Y-141313837D01*
X68104597Y-141325403D01*
X68116163Y-141338164D01*
X68126423Y-141351997D01*
X68135277Y-141366770D01*
X68142641Y-141382339D01*
X68148443Y-141398555D01*
X68152628Y-141415262D01*
X68155155Y-141432298D01*
X68156000Y-141449500D01*
X68156000Y-143250500D01*
X68155155Y-143267702D01*
X68152628Y-143284738D01*
X68148443Y-143301445D01*
X68142641Y-143317661D01*
X68135277Y-143333230D01*
X68126423Y-143348003D01*
X68116163Y-143361836D01*
X68104597Y-143374597D01*
X68091836Y-143386163D01*
X68078003Y-143396423D01*
X68063230Y-143405277D01*
X68047661Y-143412641D01*
X68031445Y-143418443D01*
X68014738Y-143422628D01*
X67997702Y-143425155D01*
X67980500Y-143426000D01*
X67629500Y-143426000D01*
X67612298Y-143425155D01*
X67595262Y-143422628D01*
X67578555Y-143418443D01*
X67562339Y-143412641D01*
X67546770Y-143405277D01*
X67531997Y-143396423D01*
X67518164Y-143386163D01*
X67505403Y-143374597D01*
X67493837Y-143361836D01*
X67483577Y-143348003D01*
X67474723Y-143333230D01*
X67467359Y-143317661D01*
X67461557Y-143301445D01*
X67457372Y-143284738D01*
X67454845Y-143267702D01*
X67454000Y-143250500D01*
X67454000Y-141449500D01*
X67454845Y-141432298D01*
X67457372Y-141415262D01*
X67461557Y-141398555D01*
X67467359Y-141382339D01*
X67474723Y-141366770D01*
X67483577Y-141351997D01*
X67493837Y-141338164D01*
X67505403Y-141325403D01*
X67518164Y-141313837D01*
X67531997Y-141303577D01*
X67546770Y-141294723D01*
X67562339Y-141287359D01*
X67578555Y-141281557D01*
X67595262Y-141277372D01*
X67612298Y-141274845D01*
X67629500Y-141274000D01*
X67980500Y-141274000D01*
X67997702Y-141274845D01*
G37*
D23*
X97790000Y-128140000D03*
X97790000Y-123190000D03*
X87668100Y-127936800D03*
X87668100Y-122986800D03*
X80010000Y-122999500D03*
X80010000Y-127949500D03*
D17*
G36*
X96255506Y-146150311D02*
G01*
X96281926Y-146154230D01*
X96307835Y-146160720D01*
X96332984Y-146169718D01*
X96357129Y-146181138D01*
X96380039Y-146194869D01*
X96401492Y-146210780D01*
X96421283Y-146228717D01*
X96439220Y-146248508D01*
X96455131Y-146269961D01*
X96468862Y-146292871D01*
X96480282Y-146317016D01*
X96489280Y-146342165D01*
X96495770Y-146368074D01*
X96499689Y-146394494D01*
X96501000Y-146421172D01*
X96501000Y-147128828D01*
X96499689Y-147155506D01*
X96495770Y-147181926D01*
X96489280Y-147207835D01*
X96480282Y-147232984D01*
X96468862Y-147257129D01*
X96455131Y-147280039D01*
X96439220Y-147301492D01*
X96421283Y-147321283D01*
X96401492Y-147339220D01*
X96380039Y-147355131D01*
X96357129Y-147368862D01*
X96332984Y-147380282D01*
X96307835Y-147389280D01*
X96281926Y-147395770D01*
X96255506Y-147399689D01*
X96228828Y-147401000D01*
X95271172Y-147401000D01*
X95244494Y-147399689D01*
X95218074Y-147395770D01*
X95192165Y-147389280D01*
X95167016Y-147380282D01*
X95142871Y-147368862D01*
X95119961Y-147355131D01*
X95098508Y-147339220D01*
X95078717Y-147321283D01*
X95060780Y-147301492D01*
X95044869Y-147280039D01*
X95031138Y-147257129D01*
X95019718Y-147232984D01*
X95010720Y-147207835D01*
X95004230Y-147181926D01*
X95000311Y-147155506D01*
X94999000Y-147128828D01*
X94999000Y-146421172D01*
X95000311Y-146394494D01*
X95004230Y-146368074D01*
X95010720Y-146342165D01*
X95019718Y-146317016D01*
X95031138Y-146292871D01*
X95044869Y-146269961D01*
X95060780Y-146248508D01*
X95078717Y-146228717D01*
X95098508Y-146210780D01*
X95119961Y-146194869D01*
X95142871Y-146181138D01*
X95167016Y-146169718D01*
X95192165Y-146160720D01*
X95218074Y-146154230D01*
X95244494Y-146150311D01*
X95271172Y-146149000D01*
X96228828Y-146149000D01*
X96255506Y-146150311D01*
G37*
G36*
X96255506Y-144100311D02*
G01*
X96281926Y-144104230D01*
X96307835Y-144110720D01*
X96332984Y-144119718D01*
X96357129Y-144131138D01*
X96380039Y-144144869D01*
X96401492Y-144160780D01*
X96421283Y-144178717D01*
X96439220Y-144198508D01*
X96455131Y-144219961D01*
X96468862Y-144242871D01*
X96480282Y-144267016D01*
X96489280Y-144292165D01*
X96495770Y-144318074D01*
X96499689Y-144344494D01*
X96501000Y-144371172D01*
X96501000Y-145078828D01*
X96499689Y-145105506D01*
X96495770Y-145131926D01*
X96489280Y-145157835D01*
X96480282Y-145182984D01*
X96468862Y-145207129D01*
X96455131Y-145230039D01*
X96439220Y-145251492D01*
X96421283Y-145271283D01*
X96401492Y-145289220D01*
X96380039Y-145305131D01*
X96357129Y-145318862D01*
X96332984Y-145330282D01*
X96307835Y-145339280D01*
X96281926Y-145345770D01*
X96255506Y-145349689D01*
X96228828Y-145351000D01*
X95271172Y-145351000D01*
X95244494Y-145349689D01*
X95218074Y-145345770D01*
X95192165Y-145339280D01*
X95167016Y-145330282D01*
X95142871Y-145318862D01*
X95119961Y-145305131D01*
X95098508Y-145289220D01*
X95078717Y-145271283D01*
X95060780Y-145251492D01*
X95044869Y-145230039D01*
X95031138Y-145207129D01*
X95019718Y-145182984D01*
X95010720Y-145157835D01*
X95004230Y-145131926D01*
X95000311Y-145105506D01*
X94999000Y-145078828D01*
X94999000Y-144371172D01*
X95000311Y-144344494D01*
X95004230Y-144318074D01*
X95010720Y-144292165D01*
X95019718Y-144267016D01*
X95031138Y-144242871D01*
X95044869Y-144219961D01*
X95060780Y-144198508D01*
X95078717Y-144178717D01*
X95098508Y-144160780D01*
X95119961Y-144144869D01*
X95142871Y-144131138D01*
X95167016Y-144119718D01*
X95192165Y-144110720D01*
X95218074Y-144104230D01*
X95244494Y-144100311D01*
X95271172Y-144099000D01*
X96228828Y-144099000D01*
X96255506Y-144100311D01*
G37*
G36*
X88495702Y-139917845D02*
G01*
X88512738Y-139920372D01*
X88529445Y-139924557D01*
X88545661Y-139930359D01*
X88561230Y-139937723D01*
X88576003Y-139946577D01*
X88589836Y-139956837D01*
X88602597Y-139968403D01*
X88614163Y-139981164D01*
X88624423Y-139994997D01*
X88633277Y-140009770D01*
X88640641Y-140025339D01*
X88646443Y-140041555D01*
X88650628Y-140058262D01*
X88653155Y-140075298D01*
X88654000Y-140092500D01*
X88654000Y-141893500D01*
X88653155Y-141910702D01*
X88650628Y-141927738D01*
X88646443Y-141944445D01*
X88640641Y-141960661D01*
X88633277Y-141976230D01*
X88624423Y-141991003D01*
X88614163Y-142004836D01*
X88602597Y-142017597D01*
X88589836Y-142029163D01*
X88576003Y-142039423D01*
X88561230Y-142048277D01*
X88545661Y-142055641D01*
X88529445Y-142061443D01*
X88512738Y-142065628D01*
X88495702Y-142068155D01*
X88478500Y-142069000D01*
X88127500Y-142069000D01*
X88110298Y-142068155D01*
X88093262Y-142065628D01*
X88076555Y-142061443D01*
X88060339Y-142055641D01*
X88044770Y-142048277D01*
X88029997Y-142039423D01*
X88016164Y-142029163D01*
X88003403Y-142017597D01*
X87991837Y-142004836D01*
X87981577Y-141991003D01*
X87972723Y-141976230D01*
X87965359Y-141960661D01*
X87959557Y-141944445D01*
X87955372Y-141927738D01*
X87952845Y-141910702D01*
X87952000Y-141893500D01*
X87952000Y-140092500D01*
X87952845Y-140075298D01*
X87955372Y-140058262D01*
X87959557Y-140041555D01*
X87965359Y-140025339D01*
X87972723Y-140009770D01*
X87981577Y-139994997D01*
X87991837Y-139981164D01*
X88003403Y-139968403D01*
X88016164Y-139956837D01*
X88029997Y-139946577D01*
X88044770Y-139937723D01*
X88060339Y-139930359D01*
X88076555Y-139924557D01*
X88093262Y-139920372D01*
X88110298Y-139917845D01*
X88127500Y-139917000D01*
X88478500Y-139917000D01*
X88495702Y-139917845D01*
G37*
G36*
X87225702Y-139917845D02*
G01*
X87242738Y-139920372D01*
X87259445Y-139924557D01*
X87275661Y-139930359D01*
X87291230Y-139937723D01*
X87306003Y-139946577D01*
X87319836Y-139956837D01*
X87332597Y-139968403D01*
X87344163Y-139981164D01*
X87354423Y-139994997D01*
X87363277Y-140009770D01*
X87370641Y-140025339D01*
X87376443Y-140041555D01*
X87380628Y-140058262D01*
X87383155Y-140075298D01*
X87384000Y-140092500D01*
X87384000Y-141893500D01*
X87383155Y-141910702D01*
X87380628Y-141927738D01*
X87376443Y-141944445D01*
X87370641Y-141960661D01*
X87363277Y-141976230D01*
X87354423Y-141991003D01*
X87344163Y-142004836D01*
X87332597Y-142017597D01*
X87319836Y-142029163D01*
X87306003Y-142039423D01*
X87291230Y-142048277D01*
X87275661Y-142055641D01*
X87259445Y-142061443D01*
X87242738Y-142065628D01*
X87225702Y-142068155D01*
X87208500Y-142069000D01*
X86857500Y-142069000D01*
X86840298Y-142068155D01*
X86823262Y-142065628D01*
X86806555Y-142061443D01*
X86790339Y-142055641D01*
X86774770Y-142048277D01*
X86759997Y-142039423D01*
X86746164Y-142029163D01*
X86733403Y-142017597D01*
X86721837Y-142004836D01*
X86711577Y-141991003D01*
X86702723Y-141976230D01*
X86695359Y-141960661D01*
X86689557Y-141944445D01*
X86685372Y-141927738D01*
X86682845Y-141910702D01*
X86682000Y-141893500D01*
X86682000Y-140092500D01*
X86682845Y-140075298D01*
X86685372Y-140058262D01*
X86689557Y-140041555D01*
X86695359Y-140025339D01*
X86702723Y-140009770D01*
X86711577Y-139994997D01*
X86721837Y-139981164D01*
X86733403Y-139968403D01*
X86746164Y-139956837D01*
X86759997Y-139946577D01*
X86774770Y-139937723D01*
X86790339Y-139930359D01*
X86806555Y-139924557D01*
X86823262Y-139920372D01*
X86840298Y-139917845D01*
X86857500Y-139917000D01*
X87208500Y-139917000D01*
X87225702Y-139917845D01*
G37*
G36*
X85955702Y-139917845D02*
G01*
X85972738Y-139920372D01*
X85989445Y-139924557D01*
X86005661Y-139930359D01*
X86021230Y-139937723D01*
X86036003Y-139946577D01*
X86049836Y-139956837D01*
X86062597Y-139968403D01*
X86074163Y-139981164D01*
X86084423Y-139994997D01*
X86093277Y-140009770D01*
X86100641Y-140025339D01*
X86106443Y-140041555D01*
X86110628Y-140058262D01*
X86113155Y-140075298D01*
X86114000Y-140092500D01*
X86114000Y-141893500D01*
X86113155Y-141910702D01*
X86110628Y-141927738D01*
X86106443Y-141944445D01*
X86100641Y-141960661D01*
X86093277Y-141976230D01*
X86084423Y-141991003D01*
X86074163Y-142004836D01*
X86062597Y-142017597D01*
X86049836Y-142029163D01*
X86036003Y-142039423D01*
X86021230Y-142048277D01*
X86005661Y-142055641D01*
X85989445Y-142061443D01*
X85972738Y-142065628D01*
X85955702Y-142068155D01*
X85938500Y-142069000D01*
X85587500Y-142069000D01*
X85570298Y-142068155D01*
X85553262Y-142065628D01*
X85536555Y-142061443D01*
X85520339Y-142055641D01*
X85504770Y-142048277D01*
X85489997Y-142039423D01*
X85476164Y-142029163D01*
X85463403Y-142017597D01*
X85451837Y-142004836D01*
X85441577Y-141991003D01*
X85432723Y-141976230D01*
X85425359Y-141960661D01*
X85419557Y-141944445D01*
X85415372Y-141927738D01*
X85412845Y-141910702D01*
X85412000Y-141893500D01*
X85412000Y-140092500D01*
X85412845Y-140075298D01*
X85415372Y-140058262D01*
X85419557Y-140041555D01*
X85425359Y-140025339D01*
X85432723Y-140009770D01*
X85441577Y-139994997D01*
X85451837Y-139981164D01*
X85463403Y-139968403D01*
X85476164Y-139956837D01*
X85489997Y-139946577D01*
X85504770Y-139937723D01*
X85520339Y-139930359D01*
X85536555Y-139924557D01*
X85553262Y-139920372D01*
X85570298Y-139917845D01*
X85587500Y-139917000D01*
X85938500Y-139917000D01*
X85955702Y-139917845D01*
G37*
G36*
X84685702Y-139917845D02*
G01*
X84702738Y-139920372D01*
X84719445Y-139924557D01*
X84735661Y-139930359D01*
X84751230Y-139937723D01*
X84766003Y-139946577D01*
X84779836Y-139956837D01*
X84792597Y-139968403D01*
X84804163Y-139981164D01*
X84814423Y-139994997D01*
X84823277Y-140009770D01*
X84830641Y-140025339D01*
X84836443Y-140041555D01*
X84840628Y-140058262D01*
X84843155Y-140075298D01*
X84844000Y-140092500D01*
X84844000Y-141893500D01*
X84843155Y-141910702D01*
X84840628Y-141927738D01*
X84836443Y-141944445D01*
X84830641Y-141960661D01*
X84823277Y-141976230D01*
X84814423Y-141991003D01*
X84804163Y-142004836D01*
X84792597Y-142017597D01*
X84779836Y-142029163D01*
X84766003Y-142039423D01*
X84751230Y-142048277D01*
X84735661Y-142055641D01*
X84719445Y-142061443D01*
X84702738Y-142065628D01*
X84685702Y-142068155D01*
X84668500Y-142069000D01*
X84317500Y-142069000D01*
X84300298Y-142068155D01*
X84283262Y-142065628D01*
X84266555Y-142061443D01*
X84250339Y-142055641D01*
X84234770Y-142048277D01*
X84219997Y-142039423D01*
X84206164Y-142029163D01*
X84193403Y-142017597D01*
X84181837Y-142004836D01*
X84171577Y-141991003D01*
X84162723Y-141976230D01*
X84155359Y-141960661D01*
X84149557Y-141944445D01*
X84145372Y-141927738D01*
X84142845Y-141910702D01*
X84142000Y-141893500D01*
X84142000Y-140092500D01*
X84142845Y-140075298D01*
X84145372Y-140058262D01*
X84149557Y-140041555D01*
X84155359Y-140025339D01*
X84162723Y-140009770D01*
X84171577Y-139994997D01*
X84181837Y-139981164D01*
X84193403Y-139968403D01*
X84206164Y-139956837D01*
X84219997Y-139946577D01*
X84234770Y-139937723D01*
X84250339Y-139930359D01*
X84266555Y-139924557D01*
X84283262Y-139920372D01*
X84300298Y-139917845D01*
X84317500Y-139917000D01*
X84668500Y-139917000D01*
X84685702Y-139917845D01*
G37*
G36*
X83415702Y-139917845D02*
G01*
X83432738Y-139920372D01*
X83449445Y-139924557D01*
X83465661Y-139930359D01*
X83481230Y-139937723D01*
X83496003Y-139946577D01*
X83509836Y-139956837D01*
X83522597Y-139968403D01*
X83534163Y-139981164D01*
X83544423Y-139994997D01*
X83553277Y-140009770D01*
X83560641Y-140025339D01*
X83566443Y-140041555D01*
X83570628Y-140058262D01*
X83573155Y-140075298D01*
X83574000Y-140092500D01*
X83574000Y-141893500D01*
X83573155Y-141910702D01*
X83570628Y-141927738D01*
X83566443Y-141944445D01*
X83560641Y-141960661D01*
X83553277Y-141976230D01*
X83544423Y-141991003D01*
X83534163Y-142004836D01*
X83522597Y-142017597D01*
X83509836Y-142029163D01*
X83496003Y-142039423D01*
X83481230Y-142048277D01*
X83465661Y-142055641D01*
X83449445Y-142061443D01*
X83432738Y-142065628D01*
X83415702Y-142068155D01*
X83398500Y-142069000D01*
X83047500Y-142069000D01*
X83030298Y-142068155D01*
X83013262Y-142065628D01*
X82996555Y-142061443D01*
X82980339Y-142055641D01*
X82964770Y-142048277D01*
X82949997Y-142039423D01*
X82936164Y-142029163D01*
X82923403Y-142017597D01*
X82911837Y-142004836D01*
X82901577Y-141991003D01*
X82892723Y-141976230D01*
X82885359Y-141960661D01*
X82879557Y-141944445D01*
X82875372Y-141927738D01*
X82872845Y-141910702D01*
X82872000Y-141893500D01*
X82872000Y-140092500D01*
X82872845Y-140075298D01*
X82875372Y-140058262D01*
X82879557Y-140041555D01*
X82885359Y-140025339D01*
X82892723Y-140009770D01*
X82901577Y-139994997D01*
X82911837Y-139981164D01*
X82923403Y-139968403D01*
X82936164Y-139956837D01*
X82949997Y-139946577D01*
X82964770Y-139937723D01*
X82980339Y-139930359D01*
X82996555Y-139924557D01*
X83013262Y-139920372D01*
X83030298Y-139917845D01*
X83047500Y-139917000D01*
X83398500Y-139917000D01*
X83415702Y-139917845D01*
G37*
G36*
X82145702Y-139917845D02*
G01*
X82162738Y-139920372D01*
X82179445Y-139924557D01*
X82195661Y-139930359D01*
X82211230Y-139937723D01*
X82226003Y-139946577D01*
X82239836Y-139956837D01*
X82252597Y-139968403D01*
X82264163Y-139981164D01*
X82274423Y-139994997D01*
X82283277Y-140009770D01*
X82290641Y-140025339D01*
X82296443Y-140041555D01*
X82300628Y-140058262D01*
X82303155Y-140075298D01*
X82304000Y-140092500D01*
X82304000Y-141893500D01*
X82303155Y-141910702D01*
X82300628Y-141927738D01*
X82296443Y-141944445D01*
X82290641Y-141960661D01*
X82283277Y-141976230D01*
X82274423Y-141991003D01*
X82264163Y-142004836D01*
X82252597Y-142017597D01*
X82239836Y-142029163D01*
X82226003Y-142039423D01*
X82211230Y-142048277D01*
X82195661Y-142055641D01*
X82179445Y-142061443D01*
X82162738Y-142065628D01*
X82145702Y-142068155D01*
X82128500Y-142069000D01*
X81777500Y-142069000D01*
X81760298Y-142068155D01*
X81743262Y-142065628D01*
X81726555Y-142061443D01*
X81710339Y-142055641D01*
X81694770Y-142048277D01*
X81679997Y-142039423D01*
X81666164Y-142029163D01*
X81653403Y-142017597D01*
X81641837Y-142004836D01*
X81631577Y-141991003D01*
X81622723Y-141976230D01*
X81615359Y-141960661D01*
X81609557Y-141944445D01*
X81605372Y-141927738D01*
X81602845Y-141910702D01*
X81602000Y-141893500D01*
X81602000Y-140092500D01*
X81602845Y-140075298D01*
X81605372Y-140058262D01*
X81609557Y-140041555D01*
X81615359Y-140025339D01*
X81622723Y-140009770D01*
X81631577Y-139994997D01*
X81641837Y-139981164D01*
X81653403Y-139968403D01*
X81666164Y-139956837D01*
X81679997Y-139946577D01*
X81694770Y-139937723D01*
X81710339Y-139930359D01*
X81726555Y-139924557D01*
X81743262Y-139920372D01*
X81760298Y-139917845D01*
X81777500Y-139917000D01*
X82128500Y-139917000D01*
X82145702Y-139917845D01*
G37*
G36*
X80875702Y-139917845D02*
G01*
X80892738Y-139920372D01*
X80909445Y-139924557D01*
X80925661Y-139930359D01*
X80941230Y-139937723D01*
X80956003Y-139946577D01*
X80969836Y-139956837D01*
X80982597Y-139968403D01*
X80994163Y-139981164D01*
X81004423Y-139994997D01*
X81013277Y-140009770D01*
X81020641Y-140025339D01*
X81026443Y-140041555D01*
X81030628Y-140058262D01*
X81033155Y-140075298D01*
X81034000Y-140092500D01*
X81034000Y-141893500D01*
X81033155Y-141910702D01*
X81030628Y-141927738D01*
X81026443Y-141944445D01*
X81020641Y-141960661D01*
X81013277Y-141976230D01*
X81004423Y-141991003D01*
X80994163Y-142004836D01*
X80982597Y-142017597D01*
X80969836Y-142029163D01*
X80956003Y-142039423D01*
X80941230Y-142048277D01*
X80925661Y-142055641D01*
X80909445Y-142061443D01*
X80892738Y-142065628D01*
X80875702Y-142068155D01*
X80858500Y-142069000D01*
X80507500Y-142069000D01*
X80490298Y-142068155D01*
X80473262Y-142065628D01*
X80456555Y-142061443D01*
X80440339Y-142055641D01*
X80424770Y-142048277D01*
X80409997Y-142039423D01*
X80396164Y-142029163D01*
X80383403Y-142017597D01*
X80371837Y-142004836D01*
X80361577Y-141991003D01*
X80352723Y-141976230D01*
X80345359Y-141960661D01*
X80339557Y-141944445D01*
X80335372Y-141927738D01*
X80332845Y-141910702D01*
X80332000Y-141893500D01*
X80332000Y-140092500D01*
X80332845Y-140075298D01*
X80335372Y-140058262D01*
X80339557Y-140041555D01*
X80345359Y-140025339D01*
X80352723Y-140009770D01*
X80361577Y-139994997D01*
X80371837Y-139981164D01*
X80383403Y-139968403D01*
X80396164Y-139956837D01*
X80409997Y-139946577D01*
X80424770Y-139937723D01*
X80440339Y-139930359D01*
X80456555Y-139924557D01*
X80473262Y-139920372D01*
X80490298Y-139917845D01*
X80507500Y-139917000D01*
X80858500Y-139917000D01*
X80875702Y-139917845D01*
G37*
G36*
X79605702Y-139917845D02*
G01*
X79622738Y-139920372D01*
X79639445Y-139924557D01*
X79655661Y-139930359D01*
X79671230Y-139937723D01*
X79686003Y-139946577D01*
X79699836Y-139956837D01*
X79712597Y-139968403D01*
X79724163Y-139981164D01*
X79734423Y-139994997D01*
X79743277Y-140009770D01*
X79750641Y-140025339D01*
X79756443Y-140041555D01*
X79760628Y-140058262D01*
X79763155Y-140075298D01*
X79764000Y-140092500D01*
X79764000Y-141893500D01*
X79763155Y-141910702D01*
X79760628Y-141927738D01*
X79756443Y-141944445D01*
X79750641Y-141960661D01*
X79743277Y-141976230D01*
X79734423Y-141991003D01*
X79724163Y-142004836D01*
X79712597Y-142017597D01*
X79699836Y-142029163D01*
X79686003Y-142039423D01*
X79671230Y-142048277D01*
X79655661Y-142055641D01*
X79639445Y-142061443D01*
X79622738Y-142065628D01*
X79605702Y-142068155D01*
X79588500Y-142069000D01*
X79237500Y-142069000D01*
X79220298Y-142068155D01*
X79203262Y-142065628D01*
X79186555Y-142061443D01*
X79170339Y-142055641D01*
X79154770Y-142048277D01*
X79139997Y-142039423D01*
X79126164Y-142029163D01*
X79113403Y-142017597D01*
X79101837Y-142004836D01*
X79091577Y-141991003D01*
X79082723Y-141976230D01*
X79075359Y-141960661D01*
X79069557Y-141944445D01*
X79065372Y-141927738D01*
X79062845Y-141910702D01*
X79062000Y-141893500D01*
X79062000Y-140092500D01*
X79062845Y-140075298D01*
X79065372Y-140058262D01*
X79069557Y-140041555D01*
X79075359Y-140025339D01*
X79082723Y-140009770D01*
X79091577Y-139994997D01*
X79101837Y-139981164D01*
X79113403Y-139968403D01*
X79126164Y-139956837D01*
X79139997Y-139946577D01*
X79154770Y-139937723D01*
X79170339Y-139930359D01*
X79186555Y-139924557D01*
X79203262Y-139920372D01*
X79220298Y-139917845D01*
X79237500Y-139917000D01*
X79588500Y-139917000D01*
X79605702Y-139917845D01*
G37*
G36*
X79605702Y-130617845D02*
G01*
X79622738Y-130620372D01*
X79639445Y-130624557D01*
X79655661Y-130630359D01*
X79671230Y-130637723D01*
X79686003Y-130646577D01*
X79699836Y-130656837D01*
X79712597Y-130668403D01*
X79724163Y-130681164D01*
X79734423Y-130694997D01*
X79743277Y-130709770D01*
X79750641Y-130725339D01*
X79756443Y-130741555D01*
X79760628Y-130758262D01*
X79763155Y-130775298D01*
X79764000Y-130792500D01*
X79764000Y-132593500D01*
X79763155Y-132610702D01*
X79760628Y-132627738D01*
X79756443Y-132644445D01*
X79750641Y-132660661D01*
X79743277Y-132676230D01*
X79734423Y-132691003D01*
X79724163Y-132704836D01*
X79712597Y-132717597D01*
X79699836Y-132729163D01*
X79686003Y-132739423D01*
X79671230Y-132748277D01*
X79655661Y-132755641D01*
X79639445Y-132761443D01*
X79622738Y-132765628D01*
X79605702Y-132768155D01*
X79588500Y-132769000D01*
X79237500Y-132769000D01*
X79220298Y-132768155D01*
X79203262Y-132765628D01*
X79186555Y-132761443D01*
X79170339Y-132755641D01*
X79154770Y-132748277D01*
X79139997Y-132739423D01*
X79126164Y-132729163D01*
X79113403Y-132717597D01*
X79101837Y-132704836D01*
X79091577Y-132691003D01*
X79082723Y-132676230D01*
X79075359Y-132660661D01*
X79069557Y-132644445D01*
X79065372Y-132627738D01*
X79062845Y-132610702D01*
X79062000Y-132593500D01*
X79062000Y-130792500D01*
X79062845Y-130775298D01*
X79065372Y-130758262D01*
X79069557Y-130741555D01*
X79075359Y-130725339D01*
X79082723Y-130709770D01*
X79091577Y-130694997D01*
X79101837Y-130681164D01*
X79113403Y-130668403D01*
X79126164Y-130656837D01*
X79139997Y-130646577D01*
X79154770Y-130637723D01*
X79170339Y-130630359D01*
X79186555Y-130624557D01*
X79203262Y-130620372D01*
X79220298Y-130617845D01*
X79237500Y-130617000D01*
X79588500Y-130617000D01*
X79605702Y-130617845D01*
G37*
G36*
X80875702Y-130617845D02*
G01*
X80892738Y-130620372D01*
X80909445Y-130624557D01*
X80925661Y-130630359D01*
X80941230Y-130637723D01*
X80956003Y-130646577D01*
X80969836Y-130656837D01*
X80982597Y-130668403D01*
X80994163Y-130681164D01*
X81004423Y-130694997D01*
X81013277Y-130709770D01*
X81020641Y-130725339D01*
X81026443Y-130741555D01*
X81030628Y-130758262D01*
X81033155Y-130775298D01*
X81034000Y-130792500D01*
X81034000Y-132593500D01*
X81033155Y-132610702D01*
X81030628Y-132627738D01*
X81026443Y-132644445D01*
X81020641Y-132660661D01*
X81013277Y-132676230D01*
X81004423Y-132691003D01*
X80994163Y-132704836D01*
X80982597Y-132717597D01*
X80969836Y-132729163D01*
X80956003Y-132739423D01*
X80941230Y-132748277D01*
X80925661Y-132755641D01*
X80909445Y-132761443D01*
X80892738Y-132765628D01*
X80875702Y-132768155D01*
X80858500Y-132769000D01*
X80507500Y-132769000D01*
X80490298Y-132768155D01*
X80473262Y-132765628D01*
X80456555Y-132761443D01*
X80440339Y-132755641D01*
X80424770Y-132748277D01*
X80409997Y-132739423D01*
X80396164Y-132729163D01*
X80383403Y-132717597D01*
X80371837Y-132704836D01*
X80361577Y-132691003D01*
X80352723Y-132676230D01*
X80345359Y-132660661D01*
X80339557Y-132644445D01*
X80335372Y-132627738D01*
X80332845Y-132610702D01*
X80332000Y-132593500D01*
X80332000Y-130792500D01*
X80332845Y-130775298D01*
X80335372Y-130758262D01*
X80339557Y-130741555D01*
X80345359Y-130725339D01*
X80352723Y-130709770D01*
X80361577Y-130694997D01*
X80371837Y-130681164D01*
X80383403Y-130668403D01*
X80396164Y-130656837D01*
X80409997Y-130646577D01*
X80424770Y-130637723D01*
X80440339Y-130630359D01*
X80456555Y-130624557D01*
X80473262Y-130620372D01*
X80490298Y-130617845D01*
X80507500Y-130617000D01*
X80858500Y-130617000D01*
X80875702Y-130617845D01*
G37*
G36*
X82145702Y-130617845D02*
G01*
X82162738Y-130620372D01*
X82179445Y-130624557D01*
X82195661Y-130630359D01*
X82211230Y-130637723D01*
X82226003Y-130646577D01*
X82239836Y-130656837D01*
X82252597Y-130668403D01*
X82264163Y-130681164D01*
X82274423Y-130694997D01*
X82283277Y-130709770D01*
X82290641Y-130725339D01*
X82296443Y-130741555D01*
X82300628Y-130758262D01*
X82303155Y-130775298D01*
X82304000Y-130792500D01*
X82304000Y-132593500D01*
X82303155Y-132610702D01*
X82300628Y-132627738D01*
X82296443Y-132644445D01*
X82290641Y-132660661D01*
X82283277Y-132676230D01*
X82274423Y-132691003D01*
X82264163Y-132704836D01*
X82252597Y-132717597D01*
X82239836Y-132729163D01*
X82226003Y-132739423D01*
X82211230Y-132748277D01*
X82195661Y-132755641D01*
X82179445Y-132761443D01*
X82162738Y-132765628D01*
X82145702Y-132768155D01*
X82128500Y-132769000D01*
X81777500Y-132769000D01*
X81760298Y-132768155D01*
X81743262Y-132765628D01*
X81726555Y-132761443D01*
X81710339Y-132755641D01*
X81694770Y-132748277D01*
X81679997Y-132739423D01*
X81666164Y-132729163D01*
X81653403Y-132717597D01*
X81641837Y-132704836D01*
X81631577Y-132691003D01*
X81622723Y-132676230D01*
X81615359Y-132660661D01*
X81609557Y-132644445D01*
X81605372Y-132627738D01*
X81602845Y-132610702D01*
X81602000Y-132593500D01*
X81602000Y-130792500D01*
X81602845Y-130775298D01*
X81605372Y-130758262D01*
X81609557Y-130741555D01*
X81615359Y-130725339D01*
X81622723Y-130709770D01*
X81631577Y-130694997D01*
X81641837Y-130681164D01*
X81653403Y-130668403D01*
X81666164Y-130656837D01*
X81679997Y-130646577D01*
X81694770Y-130637723D01*
X81710339Y-130630359D01*
X81726555Y-130624557D01*
X81743262Y-130620372D01*
X81760298Y-130617845D01*
X81777500Y-130617000D01*
X82128500Y-130617000D01*
X82145702Y-130617845D01*
G37*
G36*
X83415702Y-130617845D02*
G01*
X83432738Y-130620372D01*
X83449445Y-130624557D01*
X83465661Y-130630359D01*
X83481230Y-130637723D01*
X83496003Y-130646577D01*
X83509836Y-130656837D01*
X83522597Y-130668403D01*
X83534163Y-130681164D01*
X83544423Y-130694997D01*
X83553277Y-130709770D01*
X83560641Y-130725339D01*
X83566443Y-130741555D01*
X83570628Y-130758262D01*
X83573155Y-130775298D01*
X83574000Y-130792500D01*
X83574000Y-132593500D01*
X83573155Y-132610702D01*
X83570628Y-132627738D01*
X83566443Y-132644445D01*
X83560641Y-132660661D01*
X83553277Y-132676230D01*
X83544423Y-132691003D01*
X83534163Y-132704836D01*
X83522597Y-132717597D01*
X83509836Y-132729163D01*
X83496003Y-132739423D01*
X83481230Y-132748277D01*
X83465661Y-132755641D01*
X83449445Y-132761443D01*
X83432738Y-132765628D01*
X83415702Y-132768155D01*
X83398500Y-132769000D01*
X83047500Y-132769000D01*
X83030298Y-132768155D01*
X83013262Y-132765628D01*
X82996555Y-132761443D01*
X82980339Y-132755641D01*
X82964770Y-132748277D01*
X82949997Y-132739423D01*
X82936164Y-132729163D01*
X82923403Y-132717597D01*
X82911837Y-132704836D01*
X82901577Y-132691003D01*
X82892723Y-132676230D01*
X82885359Y-132660661D01*
X82879557Y-132644445D01*
X82875372Y-132627738D01*
X82872845Y-132610702D01*
X82872000Y-132593500D01*
X82872000Y-130792500D01*
X82872845Y-130775298D01*
X82875372Y-130758262D01*
X82879557Y-130741555D01*
X82885359Y-130725339D01*
X82892723Y-130709770D01*
X82901577Y-130694997D01*
X82911837Y-130681164D01*
X82923403Y-130668403D01*
X82936164Y-130656837D01*
X82949997Y-130646577D01*
X82964770Y-130637723D01*
X82980339Y-130630359D01*
X82996555Y-130624557D01*
X83013262Y-130620372D01*
X83030298Y-130617845D01*
X83047500Y-130617000D01*
X83398500Y-130617000D01*
X83415702Y-130617845D01*
G37*
G36*
X84685702Y-130617845D02*
G01*
X84702738Y-130620372D01*
X84719445Y-130624557D01*
X84735661Y-130630359D01*
X84751230Y-130637723D01*
X84766003Y-130646577D01*
X84779836Y-130656837D01*
X84792597Y-130668403D01*
X84804163Y-130681164D01*
X84814423Y-130694997D01*
X84823277Y-130709770D01*
X84830641Y-130725339D01*
X84836443Y-130741555D01*
X84840628Y-130758262D01*
X84843155Y-130775298D01*
X84844000Y-130792500D01*
X84844000Y-132593500D01*
X84843155Y-132610702D01*
X84840628Y-132627738D01*
X84836443Y-132644445D01*
X84830641Y-132660661D01*
X84823277Y-132676230D01*
X84814423Y-132691003D01*
X84804163Y-132704836D01*
X84792597Y-132717597D01*
X84779836Y-132729163D01*
X84766003Y-132739423D01*
X84751230Y-132748277D01*
X84735661Y-132755641D01*
X84719445Y-132761443D01*
X84702738Y-132765628D01*
X84685702Y-132768155D01*
X84668500Y-132769000D01*
X84317500Y-132769000D01*
X84300298Y-132768155D01*
X84283262Y-132765628D01*
X84266555Y-132761443D01*
X84250339Y-132755641D01*
X84234770Y-132748277D01*
X84219997Y-132739423D01*
X84206164Y-132729163D01*
X84193403Y-132717597D01*
X84181837Y-132704836D01*
X84171577Y-132691003D01*
X84162723Y-132676230D01*
X84155359Y-132660661D01*
X84149557Y-132644445D01*
X84145372Y-132627738D01*
X84142845Y-132610702D01*
X84142000Y-132593500D01*
X84142000Y-130792500D01*
X84142845Y-130775298D01*
X84145372Y-130758262D01*
X84149557Y-130741555D01*
X84155359Y-130725339D01*
X84162723Y-130709770D01*
X84171577Y-130694997D01*
X84181837Y-130681164D01*
X84193403Y-130668403D01*
X84206164Y-130656837D01*
X84219997Y-130646577D01*
X84234770Y-130637723D01*
X84250339Y-130630359D01*
X84266555Y-130624557D01*
X84283262Y-130620372D01*
X84300298Y-130617845D01*
X84317500Y-130617000D01*
X84668500Y-130617000D01*
X84685702Y-130617845D01*
G37*
G36*
X85955702Y-130617845D02*
G01*
X85972738Y-130620372D01*
X85989445Y-130624557D01*
X86005661Y-130630359D01*
X86021230Y-130637723D01*
X86036003Y-130646577D01*
X86049836Y-130656837D01*
X86062597Y-130668403D01*
X86074163Y-130681164D01*
X86084423Y-130694997D01*
X86093277Y-130709770D01*
X86100641Y-130725339D01*
X86106443Y-130741555D01*
X86110628Y-130758262D01*
X86113155Y-130775298D01*
X86114000Y-130792500D01*
X86114000Y-132593500D01*
X86113155Y-132610702D01*
X86110628Y-132627738D01*
X86106443Y-132644445D01*
X86100641Y-132660661D01*
X86093277Y-132676230D01*
X86084423Y-132691003D01*
X86074163Y-132704836D01*
X86062597Y-132717597D01*
X86049836Y-132729163D01*
X86036003Y-132739423D01*
X86021230Y-132748277D01*
X86005661Y-132755641D01*
X85989445Y-132761443D01*
X85972738Y-132765628D01*
X85955702Y-132768155D01*
X85938500Y-132769000D01*
X85587500Y-132769000D01*
X85570298Y-132768155D01*
X85553262Y-132765628D01*
X85536555Y-132761443D01*
X85520339Y-132755641D01*
X85504770Y-132748277D01*
X85489997Y-132739423D01*
X85476164Y-132729163D01*
X85463403Y-132717597D01*
X85451837Y-132704836D01*
X85441577Y-132691003D01*
X85432723Y-132676230D01*
X85425359Y-132660661D01*
X85419557Y-132644445D01*
X85415372Y-132627738D01*
X85412845Y-132610702D01*
X85412000Y-132593500D01*
X85412000Y-130792500D01*
X85412845Y-130775298D01*
X85415372Y-130758262D01*
X85419557Y-130741555D01*
X85425359Y-130725339D01*
X85432723Y-130709770D01*
X85441577Y-130694997D01*
X85451837Y-130681164D01*
X85463403Y-130668403D01*
X85476164Y-130656837D01*
X85489997Y-130646577D01*
X85504770Y-130637723D01*
X85520339Y-130630359D01*
X85536555Y-130624557D01*
X85553262Y-130620372D01*
X85570298Y-130617845D01*
X85587500Y-130617000D01*
X85938500Y-130617000D01*
X85955702Y-130617845D01*
G37*
G36*
X87225702Y-130617845D02*
G01*
X87242738Y-130620372D01*
X87259445Y-130624557D01*
X87275661Y-130630359D01*
X87291230Y-130637723D01*
X87306003Y-130646577D01*
X87319836Y-130656837D01*
X87332597Y-130668403D01*
X87344163Y-130681164D01*
X87354423Y-130694997D01*
X87363277Y-130709770D01*
X87370641Y-130725339D01*
X87376443Y-130741555D01*
X87380628Y-130758262D01*
X87383155Y-130775298D01*
X87384000Y-130792500D01*
X87384000Y-132593500D01*
X87383155Y-132610702D01*
X87380628Y-132627738D01*
X87376443Y-132644445D01*
X87370641Y-132660661D01*
X87363277Y-132676230D01*
X87354423Y-132691003D01*
X87344163Y-132704836D01*
X87332597Y-132717597D01*
X87319836Y-132729163D01*
X87306003Y-132739423D01*
X87291230Y-132748277D01*
X87275661Y-132755641D01*
X87259445Y-132761443D01*
X87242738Y-132765628D01*
X87225702Y-132768155D01*
X87208500Y-132769000D01*
X86857500Y-132769000D01*
X86840298Y-132768155D01*
X86823262Y-132765628D01*
X86806555Y-132761443D01*
X86790339Y-132755641D01*
X86774770Y-132748277D01*
X86759997Y-132739423D01*
X86746164Y-132729163D01*
X86733403Y-132717597D01*
X86721837Y-132704836D01*
X86711577Y-132691003D01*
X86702723Y-132676230D01*
X86695359Y-132660661D01*
X86689557Y-132644445D01*
X86685372Y-132627738D01*
X86682845Y-132610702D01*
X86682000Y-132593500D01*
X86682000Y-130792500D01*
X86682845Y-130775298D01*
X86685372Y-130758262D01*
X86689557Y-130741555D01*
X86695359Y-130725339D01*
X86702723Y-130709770D01*
X86711577Y-130694997D01*
X86721837Y-130681164D01*
X86733403Y-130668403D01*
X86746164Y-130656837D01*
X86759997Y-130646577D01*
X86774770Y-130637723D01*
X86790339Y-130630359D01*
X86806555Y-130624557D01*
X86823262Y-130620372D01*
X86840298Y-130617845D01*
X86857500Y-130617000D01*
X87208500Y-130617000D01*
X87225702Y-130617845D01*
G37*
G36*
X88495702Y-130617845D02*
G01*
X88512738Y-130620372D01*
X88529445Y-130624557D01*
X88545661Y-130630359D01*
X88561230Y-130637723D01*
X88576003Y-130646577D01*
X88589836Y-130656837D01*
X88602597Y-130668403D01*
X88614163Y-130681164D01*
X88624423Y-130694997D01*
X88633277Y-130709770D01*
X88640641Y-130725339D01*
X88646443Y-130741555D01*
X88650628Y-130758262D01*
X88653155Y-130775298D01*
X88654000Y-130792500D01*
X88654000Y-132593500D01*
X88653155Y-132610702D01*
X88650628Y-132627738D01*
X88646443Y-132644445D01*
X88640641Y-132660661D01*
X88633277Y-132676230D01*
X88624423Y-132691003D01*
X88614163Y-132704836D01*
X88602597Y-132717597D01*
X88589836Y-132729163D01*
X88576003Y-132739423D01*
X88561230Y-132748277D01*
X88545661Y-132755641D01*
X88529445Y-132761443D01*
X88512738Y-132765628D01*
X88495702Y-132768155D01*
X88478500Y-132769000D01*
X88127500Y-132769000D01*
X88110298Y-132768155D01*
X88093262Y-132765628D01*
X88076555Y-132761443D01*
X88060339Y-132755641D01*
X88044770Y-132748277D01*
X88029997Y-132739423D01*
X88016164Y-132729163D01*
X88003403Y-132717597D01*
X87991837Y-132704836D01*
X87981577Y-132691003D01*
X87972723Y-132676230D01*
X87965359Y-132660661D01*
X87959557Y-132644445D01*
X87955372Y-132627738D01*
X87952845Y-132610702D01*
X87952000Y-132593500D01*
X87952000Y-130792500D01*
X87952845Y-130775298D01*
X87955372Y-130758262D01*
X87959557Y-130741555D01*
X87965359Y-130725339D01*
X87972723Y-130709770D01*
X87981577Y-130694997D01*
X87991837Y-130681164D01*
X88003403Y-130668403D01*
X88016164Y-130656837D01*
X88029997Y-130646577D01*
X88044770Y-130637723D01*
X88060339Y-130630359D01*
X88076555Y-130624557D01*
X88093262Y-130620372D01*
X88110298Y-130617845D01*
X88127500Y-130617000D01*
X88478500Y-130617000D01*
X88495702Y-130617845D01*
G37*
G36*
X94005506Y-144100311D02*
G01*
X94031926Y-144104230D01*
X94057835Y-144110720D01*
X94082984Y-144119718D01*
X94107129Y-144131138D01*
X94130039Y-144144869D01*
X94151492Y-144160780D01*
X94171283Y-144178717D01*
X94189220Y-144198508D01*
X94205131Y-144219961D01*
X94218862Y-144242871D01*
X94230282Y-144267016D01*
X94239280Y-144292165D01*
X94245770Y-144318074D01*
X94249689Y-144344494D01*
X94251000Y-144371172D01*
X94251000Y-145078828D01*
X94249689Y-145105506D01*
X94245770Y-145131926D01*
X94239280Y-145157835D01*
X94230282Y-145182984D01*
X94218862Y-145207129D01*
X94205131Y-145230039D01*
X94189220Y-145251492D01*
X94171283Y-145271283D01*
X94151492Y-145289220D01*
X94130039Y-145305131D01*
X94107129Y-145318862D01*
X94082984Y-145330282D01*
X94057835Y-145339280D01*
X94031926Y-145345770D01*
X94005506Y-145349689D01*
X93978828Y-145351000D01*
X93021172Y-145351000D01*
X92994494Y-145349689D01*
X92968074Y-145345770D01*
X92942165Y-145339280D01*
X92917016Y-145330282D01*
X92892871Y-145318862D01*
X92869961Y-145305131D01*
X92848508Y-145289220D01*
X92828717Y-145271283D01*
X92810780Y-145251492D01*
X92794869Y-145230039D01*
X92781138Y-145207129D01*
X92769718Y-145182984D01*
X92760720Y-145157835D01*
X92754230Y-145131926D01*
X92750311Y-145105506D01*
X92749000Y-145078828D01*
X92749000Y-144371172D01*
X92750311Y-144344494D01*
X92754230Y-144318074D01*
X92760720Y-144292165D01*
X92769718Y-144267016D01*
X92781138Y-144242871D01*
X92794869Y-144219961D01*
X92810780Y-144198508D01*
X92828717Y-144178717D01*
X92848508Y-144160780D01*
X92869961Y-144144869D01*
X92892871Y-144131138D01*
X92917016Y-144119718D01*
X92942165Y-144110720D01*
X92968074Y-144104230D01*
X92994494Y-144100311D01*
X93021172Y-144099000D01*
X93978828Y-144099000D01*
X94005506Y-144100311D01*
G37*
G36*
X94005506Y-146150311D02*
G01*
X94031926Y-146154230D01*
X94057835Y-146160720D01*
X94082984Y-146169718D01*
X94107129Y-146181138D01*
X94130039Y-146194869D01*
X94151492Y-146210780D01*
X94171283Y-146228717D01*
X94189220Y-146248508D01*
X94205131Y-146269961D01*
X94218862Y-146292871D01*
X94230282Y-146317016D01*
X94239280Y-146342165D01*
X94245770Y-146368074D01*
X94249689Y-146394494D01*
X94251000Y-146421172D01*
X94251000Y-147128828D01*
X94249689Y-147155506D01*
X94245770Y-147181926D01*
X94239280Y-147207835D01*
X94230282Y-147232984D01*
X94218862Y-147257129D01*
X94205131Y-147280039D01*
X94189220Y-147301492D01*
X94171283Y-147321283D01*
X94151492Y-147339220D01*
X94130039Y-147355131D01*
X94107129Y-147368862D01*
X94082984Y-147380282D01*
X94057835Y-147389280D01*
X94031926Y-147395770D01*
X94005506Y-147399689D01*
X93978828Y-147401000D01*
X93021172Y-147401000D01*
X92994494Y-147399689D01*
X92968074Y-147395770D01*
X92942165Y-147389280D01*
X92917016Y-147380282D01*
X92892871Y-147368862D01*
X92869961Y-147355131D01*
X92848508Y-147339220D01*
X92828717Y-147321283D01*
X92810780Y-147301492D01*
X92794869Y-147280039D01*
X92781138Y-147257129D01*
X92769718Y-147232984D01*
X92760720Y-147207835D01*
X92754230Y-147181926D01*
X92750311Y-147155506D01*
X92749000Y-147128828D01*
X92749000Y-146421172D01*
X92750311Y-146394494D01*
X92754230Y-146368074D01*
X92760720Y-146342165D01*
X92769718Y-146317016D01*
X92781138Y-146292871D01*
X92794869Y-146269961D01*
X92810780Y-146248508D01*
X92828717Y-146228717D01*
X92848508Y-146210780D01*
X92869961Y-146194869D01*
X92892871Y-146181138D01*
X92917016Y-146169718D01*
X92942165Y-146160720D01*
X92968074Y-146154230D01*
X92994494Y-146150311D01*
X93021172Y-146149000D01*
X93978828Y-146149000D01*
X94005506Y-146150311D01*
G37*
G36*
X96155506Y-148250311D02*
G01*
X96181926Y-148254230D01*
X96207835Y-148260720D01*
X96232984Y-148269718D01*
X96257129Y-148281138D01*
X96280039Y-148294869D01*
X96301492Y-148310780D01*
X96321283Y-148328717D01*
X96339220Y-148348508D01*
X96355131Y-148369961D01*
X96368862Y-148392871D01*
X96380282Y-148417016D01*
X96389280Y-148442165D01*
X96395770Y-148468074D01*
X96399689Y-148494494D01*
X96401000Y-148521172D01*
X96401000Y-149478828D01*
X96399689Y-149505506D01*
X96395770Y-149531926D01*
X96389280Y-149557835D01*
X96380282Y-149582984D01*
X96368862Y-149607129D01*
X96355131Y-149630039D01*
X96339220Y-149651492D01*
X96321283Y-149671283D01*
X96301492Y-149689220D01*
X96280039Y-149705131D01*
X96257129Y-149718862D01*
X96232984Y-149730282D01*
X96207835Y-149739280D01*
X96181926Y-149745770D01*
X96155506Y-149749689D01*
X96128828Y-149751000D01*
X95421172Y-149751000D01*
X95394494Y-149749689D01*
X95368074Y-149745770D01*
X95342165Y-149739280D01*
X95317016Y-149730282D01*
X95292871Y-149718862D01*
X95269961Y-149705131D01*
X95248508Y-149689220D01*
X95228717Y-149671283D01*
X95210780Y-149651492D01*
X95194869Y-149630039D01*
X95181138Y-149607129D01*
X95169718Y-149582984D01*
X95160720Y-149557835D01*
X95154230Y-149531926D01*
X95150311Y-149505506D01*
X95149000Y-149478828D01*
X95149000Y-148521172D01*
X95150311Y-148494494D01*
X95154230Y-148468074D01*
X95160720Y-148442165D01*
X95169718Y-148417016D01*
X95181138Y-148392871D01*
X95194869Y-148369961D01*
X95210780Y-148348508D01*
X95228717Y-148328717D01*
X95248508Y-148310780D01*
X95269961Y-148294869D01*
X95292871Y-148281138D01*
X95317016Y-148269718D01*
X95342165Y-148260720D01*
X95368074Y-148254230D01*
X95394494Y-148250311D01*
X95421172Y-148249000D01*
X96128828Y-148249000D01*
X96155506Y-148250311D01*
G37*
G36*
X94105506Y-148250311D02*
G01*
X94131926Y-148254230D01*
X94157835Y-148260720D01*
X94182984Y-148269718D01*
X94207129Y-148281138D01*
X94230039Y-148294869D01*
X94251492Y-148310780D01*
X94271283Y-148328717D01*
X94289220Y-148348508D01*
X94305131Y-148369961D01*
X94318862Y-148392871D01*
X94330282Y-148417016D01*
X94339280Y-148442165D01*
X94345770Y-148468074D01*
X94349689Y-148494494D01*
X94351000Y-148521172D01*
X94351000Y-149478828D01*
X94349689Y-149505506D01*
X94345770Y-149531926D01*
X94339280Y-149557835D01*
X94330282Y-149582984D01*
X94318862Y-149607129D01*
X94305131Y-149630039D01*
X94289220Y-149651492D01*
X94271283Y-149671283D01*
X94251492Y-149689220D01*
X94230039Y-149705131D01*
X94207129Y-149718862D01*
X94182984Y-149730282D01*
X94157835Y-149739280D01*
X94131926Y-149745770D01*
X94105506Y-149749689D01*
X94078828Y-149751000D01*
X93371172Y-149751000D01*
X93344494Y-149749689D01*
X93318074Y-149745770D01*
X93292165Y-149739280D01*
X93267016Y-149730282D01*
X93242871Y-149718862D01*
X93219961Y-149705131D01*
X93198508Y-149689220D01*
X93178717Y-149671283D01*
X93160780Y-149651492D01*
X93144869Y-149630039D01*
X93131138Y-149607129D01*
X93119718Y-149582984D01*
X93110720Y-149557835D01*
X93104230Y-149531926D01*
X93100311Y-149505506D01*
X93099000Y-149478828D01*
X93099000Y-148521172D01*
X93100311Y-148494494D01*
X93104230Y-148468074D01*
X93110720Y-148442165D01*
X93119718Y-148417016D01*
X93131138Y-148392871D01*
X93144869Y-148369961D01*
X93160780Y-148348508D01*
X93178717Y-148328717D01*
X93198508Y-148310780D01*
X93219961Y-148294869D01*
X93242871Y-148281138D01*
X93267016Y-148269718D01*
X93292165Y-148260720D01*
X93318074Y-148254230D01*
X93344494Y-148250311D01*
X93371172Y-148249000D01*
X94078828Y-148249000D01*
X94105506Y-148250311D01*
G37*
D25*
X117300000Y-135600000D03*
X122300000Y-138600000D03*
D27*
X112600000Y-183350000D03*
X110100000Y-183350000D03*
X110100000Y-185500000D03*
X112600000Y-185500000D03*
D17*
G36*
X108655506Y-175750311D02*
G01*
X108681926Y-175754230D01*
X108707835Y-175760720D01*
X108732984Y-175769718D01*
X108757129Y-175781138D01*
X108780039Y-175794869D01*
X108801492Y-175810780D01*
X108821283Y-175828717D01*
X108839220Y-175848508D01*
X108855131Y-175869961D01*
X108868862Y-175892871D01*
X108880282Y-175917016D01*
X108889280Y-175942165D01*
X108895770Y-175968074D01*
X108899689Y-175994494D01*
X108901000Y-176021172D01*
X108901000Y-176978828D01*
X108899689Y-177005506D01*
X108895770Y-177031926D01*
X108889280Y-177057835D01*
X108880282Y-177082984D01*
X108868862Y-177107129D01*
X108855131Y-177130039D01*
X108839220Y-177151492D01*
X108821283Y-177171283D01*
X108801492Y-177189220D01*
X108780039Y-177205131D01*
X108757129Y-177218862D01*
X108732984Y-177230282D01*
X108707835Y-177239280D01*
X108681926Y-177245770D01*
X108655506Y-177249689D01*
X108628828Y-177251000D01*
X107921172Y-177251000D01*
X107894494Y-177249689D01*
X107868074Y-177245770D01*
X107842165Y-177239280D01*
X107817016Y-177230282D01*
X107792871Y-177218862D01*
X107769961Y-177205131D01*
X107748508Y-177189220D01*
X107728717Y-177171283D01*
X107710780Y-177151492D01*
X107694869Y-177130039D01*
X107681138Y-177107129D01*
X107669718Y-177082984D01*
X107660720Y-177057835D01*
X107654230Y-177031926D01*
X107650311Y-177005506D01*
X107649000Y-176978828D01*
X107649000Y-176021172D01*
X107650311Y-175994494D01*
X107654230Y-175968074D01*
X107660720Y-175942165D01*
X107669718Y-175917016D01*
X107681138Y-175892871D01*
X107694869Y-175869961D01*
X107710780Y-175848508D01*
X107728717Y-175828717D01*
X107748508Y-175810780D01*
X107769961Y-175794869D01*
X107792871Y-175781138D01*
X107817016Y-175769718D01*
X107842165Y-175760720D01*
X107868074Y-175754230D01*
X107894494Y-175750311D01*
X107921172Y-175749000D01*
X108628828Y-175749000D01*
X108655506Y-175750311D01*
G37*
G36*
X106605506Y-175750311D02*
G01*
X106631926Y-175754230D01*
X106657835Y-175760720D01*
X106682984Y-175769718D01*
X106707129Y-175781138D01*
X106730039Y-175794869D01*
X106751492Y-175810780D01*
X106771283Y-175828717D01*
X106789220Y-175848508D01*
X106805131Y-175869961D01*
X106818862Y-175892871D01*
X106830282Y-175917016D01*
X106839280Y-175942165D01*
X106845770Y-175968074D01*
X106849689Y-175994494D01*
X106851000Y-176021172D01*
X106851000Y-176978828D01*
X106849689Y-177005506D01*
X106845770Y-177031926D01*
X106839280Y-177057835D01*
X106830282Y-177082984D01*
X106818862Y-177107129D01*
X106805131Y-177130039D01*
X106789220Y-177151492D01*
X106771283Y-177171283D01*
X106751492Y-177189220D01*
X106730039Y-177205131D01*
X106707129Y-177218862D01*
X106682984Y-177230282D01*
X106657835Y-177239280D01*
X106631926Y-177245770D01*
X106605506Y-177249689D01*
X106578828Y-177251000D01*
X105871172Y-177251000D01*
X105844494Y-177249689D01*
X105818074Y-177245770D01*
X105792165Y-177239280D01*
X105767016Y-177230282D01*
X105742871Y-177218862D01*
X105719961Y-177205131D01*
X105698508Y-177189220D01*
X105678717Y-177171283D01*
X105660780Y-177151492D01*
X105644869Y-177130039D01*
X105631138Y-177107129D01*
X105619718Y-177082984D01*
X105610720Y-177057835D01*
X105604230Y-177031926D01*
X105600311Y-177005506D01*
X105599000Y-176978828D01*
X105599000Y-176021172D01*
X105600311Y-175994494D01*
X105604230Y-175968074D01*
X105610720Y-175942165D01*
X105619718Y-175917016D01*
X105631138Y-175892871D01*
X105644869Y-175869961D01*
X105660780Y-175848508D01*
X105678717Y-175828717D01*
X105698508Y-175810780D01*
X105719961Y-175794869D01*
X105742871Y-175781138D01*
X105767016Y-175769718D01*
X105792165Y-175760720D01*
X105818074Y-175754230D01*
X105844494Y-175750311D01*
X105871172Y-175749000D01*
X106578828Y-175749000D01*
X106605506Y-175750311D01*
G37*
M02*
