G04 #@! TF.GenerationSoftware,KiCad,Pcbnew,(5.1.5)-3*
G04 #@! TF.CreationDate,2021-03-20T13:22:12+01:00*
G04 #@! TF.ProjectId,ACS71020_complete_teensy,41435337-3130-4323-905f-636f6d706c65,rev?*
G04 #@! TF.SameCoordinates,Original*
G04 #@! TF.FileFunction,Copper,L1,Top*
G04 #@! TF.FilePolarity,Positive*
%FSLAX46Y46*%
G04 Gerber Fmt 4.6, Leading zero omitted, Abs format (unit mm)*
G04 Created by KiCad (PCBNEW (5.1.5)-3) date 2021-03-20 13:22:12*
%MOMM*%
%LPD*%
G04 APERTURE LIST*
%ADD10O,1.350000X1.350000*%
%ADD11R,1.350000X1.350000*%
%ADD12C,0.100000*%
%ADD13O,1.700000X1.700000*%
%ADD14R,1.700000X1.700000*%
%ADD15C,2.000000*%
%ADD16R,1.508000X1.508000*%
%ADD17C,1.508000*%
%ADD18C,1.600000*%
%ADD19C,2.500000*%
%ADD20R,2.000000X2.000000*%
%ADD21O,1.600000X1.600000*%
%ADD22R,1.600000X1.600000*%
%ADD23R,1.000000X1.000000*%
%ADD24C,0.800000*%
%ADD25C,0.300000*%
%ADD26C,0.500000*%
%ADD27C,2.250000*%
%ADD28C,1.000000*%
%ADD29C,0.254000*%
G04 APERTURE END LIST*
D10*
X100000000Y-173250000D03*
X100000000Y-175250000D03*
X100000000Y-177250000D03*
X100000000Y-179250000D03*
X100000000Y-181250000D03*
D11*
X100000000Y-183250000D03*
G04 #@! TA.AperFunction,SMDPad,CuDef*
D12*
G36*
X70019505Y-161411204D02*
G01*
X70043773Y-161414804D01*
X70067572Y-161420765D01*
X70090671Y-161429030D01*
X70112850Y-161439520D01*
X70133893Y-161452132D01*
X70153599Y-161466747D01*
X70171777Y-161483223D01*
X70188253Y-161501401D01*
X70202868Y-161521107D01*
X70215480Y-161542150D01*
X70225970Y-161564329D01*
X70234235Y-161587428D01*
X70240196Y-161611227D01*
X70243796Y-161635495D01*
X70245000Y-161659999D01*
X70245000Y-162560001D01*
X70243796Y-162584505D01*
X70240196Y-162608773D01*
X70234235Y-162632572D01*
X70225970Y-162655671D01*
X70215480Y-162677850D01*
X70202868Y-162698893D01*
X70188253Y-162718599D01*
X70171777Y-162736777D01*
X70153599Y-162753253D01*
X70133893Y-162767868D01*
X70112850Y-162780480D01*
X70090671Y-162790970D01*
X70067572Y-162799235D01*
X70043773Y-162805196D01*
X70019505Y-162808796D01*
X69995001Y-162810000D01*
X69344999Y-162810000D01*
X69320495Y-162808796D01*
X69296227Y-162805196D01*
X69272428Y-162799235D01*
X69249329Y-162790970D01*
X69227150Y-162780480D01*
X69206107Y-162767868D01*
X69186401Y-162753253D01*
X69168223Y-162736777D01*
X69151747Y-162718599D01*
X69137132Y-162698893D01*
X69124520Y-162677850D01*
X69114030Y-162655671D01*
X69105765Y-162632572D01*
X69099804Y-162608773D01*
X69096204Y-162584505D01*
X69095000Y-162560001D01*
X69095000Y-161659999D01*
X69096204Y-161635495D01*
X69099804Y-161611227D01*
X69105765Y-161587428D01*
X69114030Y-161564329D01*
X69124520Y-161542150D01*
X69137132Y-161521107D01*
X69151747Y-161501401D01*
X69168223Y-161483223D01*
X69186401Y-161466747D01*
X69206107Y-161452132D01*
X69227150Y-161439520D01*
X69249329Y-161429030D01*
X69272428Y-161420765D01*
X69296227Y-161414804D01*
X69320495Y-161411204D01*
X69344999Y-161410000D01*
X69995001Y-161410000D01*
X70019505Y-161411204D01*
G37*
G04 #@! TD.AperFunction*
G04 #@! TA.AperFunction,SMDPad,CuDef*
G36*
X67969505Y-161411204D02*
G01*
X67993773Y-161414804D01*
X68017572Y-161420765D01*
X68040671Y-161429030D01*
X68062850Y-161439520D01*
X68083893Y-161452132D01*
X68103599Y-161466747D01*
X68121777Y-161483223D01*
X68138253Y-161501401D01*
X68152868Y-161521107D01*
X68165480Y-161542150D01*
X68175970Y-161564329D01*
X68184235Y-161587428D01*
X68190196Y-161611227D01*
X68193796Y-161635495D01*
X68195000Y-161659999D01*
X68195000Y-162560001D01*
X68193796Y-162584505D01*
X68190196Y-162608773D01*
X68184235Y-162632572D01*
X68175970Y-162655671D01*
X68165480Y-162677850D01*
X68152868Y-162698893D01*
X68138253Y-162718599D01*
X68121777Y-162736777D01*
X68103599Y-162753253D01*
X68083893Y-162767868D01*
X68062850Y-162780480D01*
X68040671Y-162790970D01*
X68017572Y-162799235D01*
X67993773Y-162805196D01*
X67969505Y-162808796D01*
X67945001Y-162810000D01*
X67294999Y-162810000D01*
X67270495Y-162808796D01*
X67246227Y-162805196D01*
X67222428Y-162799235D01*
X67199329Y-162790970D01*
X67177150Y-162780480D01*
X67156107Y-162767868D01*
X67136401Y-162753253D01*
X67118223Y-162736777D01*
X67101747Y-162718599D01*
X67087132Y-162698893D01*
X67074520Y-162677850D01*
X67064030Y-162655671D01*
X67055765Y-162632572D01*
X67049804Y-162608773D01*
X67046204Y-162584505D01*
X67045000Y-162560001D01*
X67045000Y-161659999D01*
X67046204Y-161635495D01*
X67049804Y-161611227D01*
X67055765Y-161587428D01*
X67064030Y-161564329D01*
X67074520Y-161542150D01*
X67087132Y-161521107D01*
X67101747Y-161501401D01*
X67118223Y-161483223D01*
X67136401Y-161466747D01*
X67156107Y-161452132D01*
X67177150Y-161439520D01*
X67199329Y-161429030D01*
X67222428Y-161420765D01*
X67246227Y-161414804D01*
X67270495Y-161411204D01*
X67294999Y-161410000D01*
X67945001Y-161410000D01*
X67969505Y-161411204D01*
G37*
G04 #@! TD.AperFunction*
D13*
X77270000Y-165530000D03*
X77270000Y-168070000D03*
X74730000Y-165530000D03*
X74730000Y-168070000D03*
X72190000Y-165530000D03*
X72190000Y-168070000D03*
X69650000Y-165530000D03*
D14*
X69650000Y-168070000D03*
D15*
X106045000Y-125088000D03*
X106045000Y-140088000D03*
D16*
X122700000Y-146000000D03*
D17*
X122700000Y-151080000D03*
X122700000Y-156160000D03*
X122700000Y-161240000D03*
X122700000Y-168860000D03*
X122700000Y-173940000D03*
G04 #@! TA.AperFunction,SMDPad,CuDef*
D12*
G36*
X76624505Y-144301204D02*
G01*
X76648773Y-144304804D01*
X76672572Y-144310765D01*
X76695671Y-144319030D01*
X76717850Y-144329520D01*
X76738893Y-144342132D01*
X76758599Y-144356747D01*
X76776777Y-144373223D01*
X76793253Y-144391401D01*
X76807868Y-144411107D01*
X76820480Y-144432150D01*
X76830970Y-144454329D01*
X76839235Y-144477428D01*
X76845196Y-144501227D01*
X76848796Y-144525495D01*
X76850000Y-144549999D01*
X76850000Y-145450001D01*
X76848796Y-145474505D01*
X76845196Y-145498773D01*
X76839235Y-145522572D01*
X76830970Y-145545671D01*
X76820480Y-145567850D01*
X76807868Y-145588893D01*
X76793253Y-145608599D01*
X76776777Y-145626777D01*
X76758599Y-145643253D01*
X76738893Y-145657868D01*
X76717850Y-145670480D01*
X76695671Y-145680970D01*
X76672572Y-145689235D01*
X76648773Y-145695196D01*
X76624505Y-145698796D01*
X76600001Y-145700000D01*
X75949999Y-145700000D01*
X75925495Y-145698796D01*
X75901227Y-145695196D01*
X75877428Y-145689235D01*
X75854329Y-145680970D01*
X75832150Y-145670480D01*
X75811107Y-145657868D01*
X75791401Y-145643253D01*
X75773223Y-145626777D01*
X75756747Y-145608599D01*
X75742132Y-145588893D01*
X75729520Y-145567850D01*
X75719030Y-145545671D01*
X75710765Y-145522572D01*
X75704804Y-145498773D01*
X75701204Y-145474505D01*
X75700000Y-145450001D01*
X75700000Y-144549999D01*
X75701204Y-144525495D01*
X75704804Y-144501227D01*
X75710765Y-144477428D01*
X75719030Y-144454329D01*
X75729520Y-144432150D01*
X75742132Y-144411107D01*
X75756747Y-144391401D01*
X75773223Y-144373223D01*
X75791401Y-144356747D01*
X75811107Y-144342132D01*
X75832150Y-144329520D01*
X75854329Y-144319030D01*
X75877428Y-144310765D01*
X75901227Y-144304804D01*
X75925495Y-144301204D01*
X75949999Y-144300000D01*
X76600001Y-144300000D01*
X76624505Y-144301204D01*
G37*
G04 #@! TD.AperFunction*
G04 #@! TA.AperFunction,SMDPad,CuDef*
G36*
X74574505Y-144301204D02*
G01*
X74598773Y-144304804D01*
X74622572Y-144310765D01*
X74645671Y-144319030D01*
X74667850Y-144329520D01*
X74688893Y-144342132D01*
X74708599Y-144356747D01*
X74726777Y-144373223D01*
X74743253Y-144391401D01*
X74757868Y-144411107D01*
X74770480Y-144432150D01*
X74780970Y-144454329D01*
X74789235Y-144477428D01*
X74795196Y-144501227D01*
X74798796Y-144525495D01*
X74800000Y-144549999D01*
X74800000Y-145450001D01*
X74798796Y-145474505D01*
X74795196Y-145498773D01*
X74789235Y-145522572D01*
X74780970Y-145545671D01*
X74770480Y-145567850D01*
X74757868Y-145588893D01*
X74743253Y-145608599D01*
X74726777Y-145626777D01*
X74708599Y-145643253D01*
X74688893Y-145657868D01*
X74667850Y-145670480D01*
X74645671Y-145680970D01*
X74622572Y-145689235D01*
X74598773Y-145695196D01*
X74574505Y-145698796D01*
X74550001Y-145700000D01*
X73899999Y-145700000D01*
X73875495Y-145698796D01*
X73851227Y-145695196D01*
X73827428Y-145689235D01*
X73804329Y-145680970D01*
X73782150Y-145670480D01*
X73761107Y-145657868D01*
X73741401Y-145643253D01*
X73723223Y-145626777D01*
X73706747Y-145608599D01*
X73692132Y-145588893D01*
X73679520Y-145567850D01*
X73669030Y-145545671D01*
X73660765Y-145522572D01*
X73654804Y-145498773D01*
X73651204Y-145474505D01*
X73650000Y-145450001D01*
X73650000Y-144549999D01*
X73651204Y-144525495D01*
X73654804Y-144501227D01*
X73660765Y-144477428D01*
X73669030Y-144454329D01*
X73679520Y-144432150D01*
X73692132Y-144411107D01*
X73706747Y-144391401D01*
X73723223Y-144373223D01*
X73741401Y-144356747D01*
X73761107Y-144342132D01*
X73782150Y-144329520D01*
X73804329Y-144319030D01*
X73827428Y-144310765D01*
X73851227Y-144304804D01*
X73875495Y-144301204D01*
X73899999Y-144300000D01*
X74550001Y-144300000D01*
X74574505Y-144301204D01*
G37*
G04 #@! TD.AperFunction*
D18*
X88900000Y-153924000D03*
X86360000Y-153924000D03*
X83820000Y-153924000D03*
X81280000Y-153924000D03*
X91440000Y-153924000D03*
X93980000Y-153924000D03*
X96520000Y-153924000D03*
X81280000Y-156464000D03*
X81280000Y-159004000D03*
X81280000Y-161544000D03*
X81280000Y-164084000D03*
X81280000Y-166624000D03*
X81280000Y-169164000D03*
X81280000Y-171704000D03*
X81280000Y-174244000D03*
X81280000Y-176784000D03*
X81280000Y-179324000D03*
X81280000Y-181864000D03*
X81280000Y-184404000D03*
X81280000Y-186944000D03*
X83820000Y-184404000D03*
X96520000Y-156464000D03*
X96520000Y-159004000D03*
X96520000Y-161544000D03*
X96520000Y-164084000D03*
X96520000Y-166624000D03*
X96520000Y-169164000D03*
X96520000Y-171704000D03*
X96520000Y-174244000D03*
X96520000Y-176784000D03*
X96520000Y-179324000D03*
X96520000Y-181864000D03*
X96520000Y-184404000D03*
X96520000Y-186944000D03*
X83820000Y-159004000D03*
X83820000Y-161544000D03*
X86360000Y-159004000D03*
X86360000Y-161544000D03*
X88900000Y-159004000D03*
X88900000Y-161544000D03*
X91440000Y-159004000D03*
X91440000Y-161544000D03*
X93980000Y-159004000D03*
X93980000Y-161544000D03*
G04 #@! TA.AperFunction,SMDPad,CuDef*
D12*
G36*
X94674505Y-147251204D02*
G01*
X94698773Y-147254804D01*
X94722572Y-147260765D01*
X94745671Y-147269030D01*
X94767850Y-147279520D01*
X94788893Y-147292132D01*
X94808599Y-147306747D01*
X94826777Y-147323223D01*
X94843253Y-147341401D01*
X94857868Y-147361107D01*
X94870480Y-147382150D01*
X94880970Y-147404329D01*
X94889235Y-147427428D01*
X94895196Y-147451227D01*
X94898796Y-147475495D01*
X94900000Y-147499999D01*
X94900000Y-148150001D01*
X94898796Y-148174505D01*
X94895196Y-148198773D01*
X94889235Y-148222572D01*
X94880970Y-148245671D01*
X94870480Y-148267850D01*
X94857868Y-148288893D01*
X94843253Y-148308599D01*
X94826777Y-148326777D01*
X94808599Y-148343253D01*
X94788893Y-148357868D01*
X94767850Y-148370480D01*
X94745671Y-148380970D01*
X94722572Y-148389235D01*
X94698773Y-148395196D01*
X94674505Y-148398796D01*
X94650001Y-148400000D01*
X93749999Y-148400000D01*
X93725495Y-148398796D01*
X93701227Y-148395196D01*
X93677428Y-148389235D01*
X93654329Y-148380970D01*
X93632150Y-148370480D01*
X93611107Y-148357868D01*
X93591401Y-148343253D01*
X93573223Y-148326777D01*
X93556747Y-148308599D01*
X93542132Y-148288893D01*
X93529520Y-148267850D01*
X93519030Y-148245671D01*
X93510765Y-148222572D01*
X93504804Y-148198773D01*
X93501204Y-148174505D01*
X93500000Y-148150001D01*
X93500000Y-147499999D01*
X93501204Y-147475495D01*
X93504804Y-147451227D01*
X93510765Y-147427428D01*
X93519030Y-147404329D01*
X93529520Y-147382150D01*
X93542132Y-147361107D01*
X93556747Y-147341401D01*
X93573223Y-147323223D01*
X93591401Y-147306747D01*
X93611107Y-147292132D01*
X93632150Y-147279520D01*
X93654329Y-147269030D01*
X93677428Y-147260765D01*
X93701227Y-147254804D01*
X93725495Y-147251204D01*
X93749999Y-147250000D01*
X94650001Y-147250000D01*
X94674505Y-147251204D01*
G37*
G04 #@! TD.AperFunction*
G04 #@! TA.AperFunction,SMDPad,CuDef*
G36*
X94674505Y-145201204D02*
G01*
X94698773Y-145204804D01*
X94722572Y-145210765D01*
X94745671Y-145219030D01*
X94767850Y-145229520D01*
X94788893Y-145242132D01*
X94808599Y-145256747D01*
X94826777Y-145273223D01*
X94843253Y-145291401D01*
X94857868Y-145311107D01*
X94870480Y-145332150D01*
X94880970Y-145354329D01*
X94889235Y-145377428D01*
X94895196Y-145401227D01*
X94898796Y-145425495D01*
X94900000Y-145449999D01*
X94900000Y-146100001D01*
X94898796Y-146124505D01*
X94895196Y-146148773D01*
X94889235Y-146172572D01*
X94880970Y-146195671D01*
X94870480Y-146217850D01*
X94857868Y-146238893D01*
X94843253Y-146258599D01*
X94826777Y-146276777D01*
X94808599Y-146293253D01*
X94788893Y-146307868D01*
X94767850Y-146320480D01*
X94745671Y-146330970D01*
X94722572Y-146339235D01*
X94698773Y-146345196D01*
X94674505Y-146348796D01*
X94650001Y-146350000D01*
X93749999Y-146350000D01*
X93725495Y-146348796D01*
X93701227Y-146345196D01*
X93677428Y-146339235D01*
X93654329Y-146330970D01*
X93632150Y-146320480D01*
X93611107Y-146307868D01*
X93591401Y-146293253D01*
X93573223Y-146276777D01*
X93556747Y-146258599D01*
X93542132Y-146238893D01*
X93529520Y-146217850D01*
X93519030Y-146195671D01*
X93510765Y-146172572D01*
X93504804Y-146148773D01*
X93501204Y-146124505D01*
X93500000Y-146100001D01*
X93500000Y-145449999D01*
X93501204Y-145425495D01*
X93504804Y-145401227D01*
X93510765Y-145377428D01*
X93519030Y-145354329D01*
X93529520Y-145332150D01*
X93542132Y-145311107D01*
X93556747Y-145291401D01*
X93573223Y-145273223D01*
X93591401Y-145256747D01*
X93611107Y-145242132D01*
X93632150Y-145229520D01*
X93654329Y-145219030D01*
X93677428Y-145210765D01*
X93701227Y-145204804D01*
X93725495Y-145201204D01*
X93749999Y-145200000D01*
X94650001Y-145200000D01*
X94674505Y-145201204D01*
G37*
G04 #@! TD.AperFunction*
G04 #@! TA.AperFunction,SMDPad,CuDef*
G36*
X79234505Y-152881204D02*
G01*
X79258773Y-152884804D01*
X79282572Y-152890765D01*
X79305671Y-152899030D01*
X79327850Y-152909520D01*
X79348893Y-152922132D01*
X79368599Y-152936747D01*
X79386777Y-152953223D01*
X79403253Y-152971401D01*
X79417868Y-152991107D01*
X79430480Y-153012150D01*
X79440970Y-153034329D01*
X79449235Y-153057428D01*
X79455196Y-153081227D01*
X79458796Y-153105495D01*
X79460000Y-153129999D01*
X79460000Y-153780001D01*
X79458796Y-153804505D01*
X79455196Y-153828773D01*
X79449235Y-153852572D01*
X79440970Y-153875671D01*
X79430480Y-153897850D01*
X79417868Y-153918893D01*
X79403253Y-153938599D01*
X79386777Y-153956777D01*
X79368599Y-153973253D01*
X79348893Y-153987868D01*
X79327850Y-154000480D01*
X79305671Y-154010970D01*
X79282572Y-154019235D01*
X79258773Y-154025196D01*
X79234505Y-154028796D01*
X79210001Y-154030000D01*
X78309999Y-154030000D01*
X78285495Y-154028796D01*
X78261227Y-154025196D01*
X78237428Y-154019235D01*
X78214329Y-154010970D01*
X78192150Y-154000480D01*
X78171107Y-153987868D01*
X78151401Y-153973253D01*
X78133223Y-153956777D01*
X78116747Y-153938599D01*
X78102132Y-153918893D01*
X78089520Y-153897850D01*
X78079030Y-153875671D01*
X78070765Y-153852572D01*
X78064804Y-153828773D01*
X78061204Y-153804505D01*
X78060000Y-153780001D01*
X78060000Y-153129999D01*
X78061204Y-153105495D01*
X78064804Y-153081227D01*
X78070765Y-153057428D01*
X78079030Y-153034329D01*
X78089520Y-153012150D01*
X78102132Y-152991107D01*
X78116747Y-152971401D01*
X78133223Y-152953223D01*
X78151401Y-152936747D01*
X78171107Y-152922132D01*
X78192150Y-152909520D01*
X78214329Y-152899030D01*
X78237428Y-152890765D01*
X78261227Y-152884804D01*
X78285495Y-152881204D01*
X78309999Y-152880000D01*
X79210001Y-152880000D01*
X79234505Y-152881204D01*
G37*
G04 #@! TD.AperFunction*
G04 #@! TA.AperFunction,SMDPad,CuDef*
G36*
X79234505Y-154931204D02*
G01*
X79258773Y-154934804D01*
X79282572Y-154940765D01*
X79305671Y-154949030D01*
X79327850Y-154959520D01*
X79348893Y-154972132D01*
X79368599Y-154986747D01*
X79386777Y-155003223D01*
X79403253Y-155021401D01*
X79417868Y-155041107D01*
X79430480Y-155062150D01*
X79440970Y-155084329D01*
X79449235Y-155107428D01*
X79455196Y-155131227D01*
X79458796Y-155155495D01*
X79460000Y-155179999D01*
X79460000Y-155830001D01*
X79458796Y-155854505D01*
X79455196Y-155878773D01*
X79449235Y-155902572D01*
X79440970Y-155925671D01*
X79430480Y-155947850D01*
X79417868Y-155968893D01*
X79403253Y-155988599D01*
X79386777Y-156006777D01*
X79368599Y-156023253D01*
X79348893Y-156037868D01*
X79327850Y-156050480D01*
X79305671Y-156060970D01*
X79282572Y-156069235D01*
X79258773Y-156075196D01*
X79234505Y-156078796D01*
X79210001Y-156080000D01*
X78309999Y-156080000D01*
X78285495Y-156078796D01*
X78261227Y-156075196D01*
X78237428Y-156069235D01*
X78214329Y-156060970D01*
X78192150Y-156050480D01*
X78171107Y-156037868D01*
X78151401Y-156023253D01*
X78133223Y-156006777D01*
X78116747Y-155988599D01*
X78102132Y-155968893D01*
X78089520Y-155947850D01*
X78079030Y-155925671D01*
X78070765Y-155902572D01*
X78064804Y-155878773D01*
X78061204Y-155854505D01*
X78060000Y-155830001D01*
X78060000Y-155179999D01*
X78061204Y-155155495D01*
X78064804Y-155131227D01*
X78070765Y-155107428D01*
X78079030Y-155084329D01*
X78089520Y-155062150D01*
X78102132Y-155041107D01*
X78116747Y-155021401D01*
X78133223Y-155003223D01*
X78151401Y-154986747D01*
X78171107Y-154972132D01*
X78192150Y-154959520D01*
X78214329Y-154949030D01*
X78237428Y-154940765D01*
X78261227Y-154934804D01*
X78285495Y-154931204D01*
X78309999Y-154930000D01*
X79210001Y-154930000D01*
X79234505Y-154931204D01*
G37*
G04 #@! TD.AperFunction*
G04 #@! TA.AperFunction,SMDPad,CuDef*
G36*
X79099703Y-149190722D02*
G01*
X79114264Y-149192882D01*
X79128543Y-149196459D01*
X79142403Y-149201418D01*
X79155710Y-149207712D01*
X79168336Y-149215280D01*
X79180159Y-149224048D01*
X79191066Y-149233934D01*
X79200952Y-149244841D01*
X79209720Y-149256664D01*
X79217288Y-149269290D01*
X79223582Y-149282597D01*
X79228541Y-149296457D01*
X79232118Y-149310736D01*
X79234278Y-149325297D01*
X79235000Y-149340000D01*
X79235000Y-150990000D01*
X79234278Y-151004703D01*
X79232118Y-151019264D01*
X79228541Y-151033543D01*
X79223582Y-151047403D01*
X79217288Y-151060710D01*
X79209720Y-151073336D01*
X79200952Y-151085159D01*
X79191066Y-151096066D01*
X79180159Y-151105952D01*
X79168336Y-151114720D01*
X79155710Y-151122288D01*
X79142403Y-151128582D01*
X79128543Y-151133541D01*
X79114264Y-151137118D01*
X79099703Y-151139278D01*
X79085000Y-151140000D01*
X78785000Y-151140000D01*
X78770297Y-151139278D01*
X78755736Y-151137118D01*
X78741457Y-151133541D01*
X78727597Y-151128582D01*
X78714290Y-151122288D01*
X78701664Y-151114720D01*
X78689841Y-151105952D01*
X78678934Y-151096066D01*
X78669048Y-151085159D01*
X78660280Y-151073336D01*
X78652712Y-151060710D01*
X78646418Y-151047403D01*
X78641459Y-151033543D01*
X78637882Y-151019264D01*
X78635722Y-151004703D01*
X78635000Y-150990000D01*
X78635000Y-149340000D01*
X78635722Y-149325297D01*
X78637882Y-149310736D01*
X78641459Y-149296457D01*
X78646418Y-149282597D01*
X78652712Y-149269290D01*
X78660280Y-149256664D01*
X78669048Y-149244841D01*
X78678934Y-149233934D01*
X78689841Y-149224048D01*
X78701664Y-149215280D01*
X78714290Y-149207712D01*
X78727597Y-149201418D01*
X78741457Y-149196459D01*
X78755736Y-149192882D01*
X78770297Y-149190722D01*
X78785000Y-149190000D01*
X79085000Y-149190000D01*
X79099703Y-149190722D01*
G37*
G04 #@! TD.AperFunction*
G04 #@! TA.AperFunction,SMDPad,CuDef*
G36*
X80369703Y-149190722D02*
G01*
X80384264Y-149192882D01*
X80398543Y-149196459D01*
X80412403Y-149201418D01*
X80425710Y-149207712D01*
X80438336Y-149215280D01*
X80450159Y-149224048D01*
X80461066Y-149233934D01*
X80470952Y-149244841D01*
X80479720Y-149256664D01*
X80487288Y-149269290D01*
X80493582Y-149282597D01*
X80498541Y-149296457D01*
X80502118Y-149310736D01*
X80504278Y-149325297D01*
X80505000Y-149340000D01*
X80505000Y-150990000D01*
X80504278Y-151004703D01*
X80502118Y-151019264D01*
X80498541Y-151033543D01*
X80493582Y-151047403D01*
X80487288Y-151060710D01*
X80479720Y-151073336D01*
X80470952Y-151085159D01*
X80461066Y-151096066D01*
X80450159Y-151105952D01*
X80438336Y-151114720D01*
X80425710Y-151122288D01*
X80412403Y-151128582D01*
X80398543Y-151133541D01*
X80384264Y-151137118D01*
X80369703Y-151139278D01*
X80355000Y-151140000D01*
X80055000Y-151140000D01*
X80040297Y-151139278D01*
X80025736Y-151137118D01*
X80011457Y-151133541D01*
X79997597Y-151128582D01*
X79984290Y-151122288D01*
X79971664Y-151114720D01*
X79959841Y-151105952D01*
X79948934Y-151096066D01*
X79939048Y-151085159D01*
X79930280Y-151073336D01*
X79922712Y-151060710D01*
X79916418Y-151047403D01*
X79911459Y-151033543D01*
X79907882Y-151019264D01*
X79905722Y-151004703D01*
X79905000Y-150990000D01*
X79905000Y-149340000D01*
X79905722Y-149325297D01*
X79907882Y-149310736D01*
X79911459Y-149296457D01*
X79916418Y-149282597D01*
X79922712Y-149269290D01*
X79930280Y-149256664D01*
X79939048Y-149244841D01*
X79948934Y-149233934D01*
X79959841Y-149224048D01*
X79971664Y-149215280D01*
X79984290Y-149207712D01*
X79997597Y-149201418D01*
X80011457Y-149196459D01*
X80025736Y-149192882D01*
X80040297Y-149190722D01*
X80055000Y-149190000D01*
X80355000Y-149190000D01*
X80369703Y-149190722D01*
G37*
G04 #@! TD.AperFunction*
G04 #@! TA.AperFunction,SMDPad,CuDef*
G36*
X81639703Y-149190722D02*
G01*
X81654264Y-149192882D01*
X81668543Y-149196459D01*
X81682403Y-149201418D01*
X81695710Y-149207712D01*
X81708336Y-149215280D01*
X81720159Y-149224048D01*
X81731066Y-149233934D01*
X81740952Y-149244841D01*
X81749720Y-149256664D01*
X81757288Y-149269290D01*
X81763582Y-149282597D01*
X81768541Y-149296457D01*
X81772118Y-149310736D01*
X81774278Y-149325297D01*
X81775000Y-149340000D01*
X81775000Y-150990000D01*
X81774278Y-151004703D01*
X81772118Y-151019264D01*
X81768541Y-151033543D01*
X81763582Y-151047403D01*
X81757288Y-151060710D01*
X81749720Y-151073336D01*
X81740952Y-151085159D01*
X81731066Y-151096066D01*
X81720159Y-151105952D01*
X81708336Y-151114720D01*
X81695710Y-151122288D01*
X81682403Y-151128582D01*
X81668543Y-151133541D01*
X81654264Y-151137118D01*
X81639703Y-151139278D01*
X81625000Y-151140000D01*
X81325000Y-151140000D01*
X81310297Y-151139278D01*
X81295736Y-151137118D01*
X81281457Y-151133541D01*
X81267597Y-151128582D01*
X81254290Y-151122288D01*
X81241664Y-151114720D01*
X81229841Y-151105952D01*
X81218934Y-151096066D01*
X81209048Y-151085159D01*
X81200280Y-151073336D01*
X81192712Y-151060710D01*
X81186418Y-151047403D01*
X81181459Y-151033543D01*
X81177882Y-151019264D01*
X81175722Y-151004703D01*
X81175000Y-150990000D01*
X81175000Y-149340000D01*
X81175722Y-149325297D01*
X81177882Y-149310736D01*
X81181459Y-149296457D01*
X81186418Y-149282597D01*
X81192712Y-149269290D01*
X81200280Y-149256664D01*
X81209048Y-149244841D01*
X81218934Y-149233934D01*
X81229841Y-149224048D01*
X81241664Y-149215280D01*
X81254290Y-149207712D01*
X81267597Y-149201418D01*
X81281457Y-149196459D01*
X81295736Y-149192882D01*
X81310297Y-149190722D01*
X81325000Y-149190000D01*
X81625000Y-149190000D01*
X81639703Y-149190722D01*
G37*
G04 #@! TD.AperFunction*
G04 #@! TA.AperFunction,SMDPad,CuDef*
G36*
X82909703Y-149190722D02*
G01*
X82924264Y-149192882D01*
X82938543Y-149196459D01*
X82952403Y-149201418D01*
X82965710Y-149207712D01*
X82978336Y-149215280D01*
X82990159Y-149224048D01*
X83001066Y-149233934D01*
X83010952Y-149244841D01*
X83019720Y-149256664D01*
X83027288Y-149269290D01*
X83033582Y-149282597D01*
X83038541Y-149296457D01*
X83042118Y-149310736D01*
X83044278Y-149325297D01*
X83045000Y-149340000D01*
X83045000Y-150990000D01*
X83044278Y-151004703D01*
X83042118Y-151019264D01*
X83038541Y-151033543D01*
X83033582Y-151047403D01*
X83027288Y-151060710D01*
X83019720Y-151073336D01*
X83010952Y-151085159D01*
X83001066Y-151096066D01*
X82990159Y-151105952D01*
X82978336Y-151114720D01*
X82965710Y-151122288D01*
X82952403Y-151128582D01*
X82938543Y-151133541D01*
X82924264Y-151137118D01*
X82909703Y-151139278D01*
X82895000Y-151140000D01*
X82595000Y-151140000D01*
X82580297Y-151139278D01*
X82565736Y-151137118D01*
X82551457Y-151133541D01*
X82537597Y-151128582D01*
X82524290Y-151122288D01*
X82511664Y-151114720D01*
X82499841Y-151105952D01*
X82488934Y-151096066D01*
X82479048Y-151085159D01*
X82470280Y-151073336D01*
X82462712Y-151060710D01*
X82456418Y-151047403D01*
X82451459Y-151033543D01*
X82447882Y-151019264D01*
X82445722Y-151004703D01*
X82445000Y-150990000D01*
X82445000Y-149340000D01*
X82445722Y-149325297D01*
X82447882Y-149310736D01*
X82451459Y-149296457D01*
X82456418Y-149282597D01*
X82462712Y-149269290D01*
X82470280Y-149256664D01*
X82479048Y-149244841D01*
X82488934Y-149233934D01*
X82499841Y-149224048D01*
X82511664Y-149215280D01*
X82524290Y-149207712D01*
X82537597Y-149201418D01*
X82551457Y-149196459D01*
X82565736Y-149192882D01*
X82580297Y-149190722D01*
X82595000Y-149190000D01*
X82895000Y-149190000D01*
X82909703Y-149190722D01*
G37*
G04 #@! TD.AperFunction*
G04 #@! TA.AperFunction,SMDPad,CuDef*
G36*
X84179703Y-149190722D02*
G01*
X84194264Y-149192882D01*
X84208543Y-149196459D01*
X84222403Y-149201418D01*
X84235710Y-149207712D01*
X84248336Y-149215280D01*
X84260159Y-149224048D01*
X84271066Y-149233934D01*
X84280952Y-149244841D01*
X84289720Y-149256664D01*
X84297288Y-149269290D01*
X84303582Y-149282597D01*
X84308541Y-149296457D01*
X84312118Y-149310736D01*
X84314278Y-149325297D01*
X84315000Y-149340000D01*
X84315000Y-150990000D01*
X84314278Y-151004703D01*
X84312118Y-151019264D01*
X84308541Y-151033543D01*
X84303582Y-151047403D01*
X84297288Y-151060710D01*
X84289720Y-151073336D01*
X84280952Y-151085159D01*
X84271066Y-151096066D01*
X84260159Y-151105952D01*
X84248336Y-151114720D01*
X84235710Y-151122288D01*
X84222403Y-151128582D01*
X84208543Y-151133541D01*
X84194264Y-151137118D01*
X84179703Y-151139278D01*
X84165000Y-151140000D01*
X83865000Y-151140000D01*
X83850297Y-151139278D01*
X83835736Y-151137118D01*
X83821457Y-151133541D01*
X83807597Y-151128582D01*
X83794290Y-151122288D01*
X83781664Y-151114720D01*
X83769841Y-151105952D01*
X83758934Y-151096066D01*
X83749048Y-151085159D01*
X83740280Y-151073336D01*
X83732712Y-151060710D01*
X83726418Y-151047403D01*
X83721459Y-151033543D01*
X83717882Y-151019264D01*
X83715722Y-151004703D01*
X83715000Y-150990000D01*
X83715000Y-149340000D01*
X83715722Y-149325297D01*
X83717882Y-149310736D01*
X83721459Y-149296457D01*
X83726418Y-149282597D01*
X83732712Y-149269290D01*
X83740280Y-149256664D01*
X83749048Y-149244841D01*
X83758934Y-149233934D01*
X83769841Y-149224048D01*
X83781664Y-149215280D01*
X83794290Y-149207712D01*
X83807597Y-149201418D01*
X83821457Y-149196459D01*
X83835736Y-149192882D01*
X83850297Y-149190722D01*
X83865000Y-149190000D01*
X84165000Y-149190000D01*
X84179703Y-149190722D01*
G37*
G04 #@! TD.AperFunction*
G04 #@! TA.AperFunction,SMDPad,CuDef*
G36*
X85449703Y-149190722D02*
G01*
X85464264Y-149192882D01*
X85478543Y-149196459D01*
X85492403Y-149201418D01*
X85505710Y-149207712D01*
X85518336Y-149215280D01*
X85530159Y-149224048D01*
X85541066Y-149233934D01*
X85550952Y-149244841D01*
X85559720Y-149256664D01*
X85567288Y-149269290D01*
X85573582Y-149282597D01*
X85578541Y-149296457D01*
X85582118Y-149310736D01*
X85584278Y-149325297D01*
X85585000Y-149340000D01*
X85585000Y-150990000D01*
X85584278Y-151004703D01*
X85582118Y-151019264D01*
X85578541Y-151033543D01*
X85573582Y-151047403D01*
X85567288Y-151060710D01*
X85559720Y-151073336D01*
X85550952Y-151085159D01*
X85541066Y-151096066D01*
X85530159Y-151105952D01*
X85518336Y-151114720D01*
X85505710Y-151122288D01*
X85492403Y-151128582D01*
X85478543Y-151133541D01*
X85464264Y-151137118D01*
X85449703Y-151139278D01*
X85435000Y-151140000D01*
X85135000Y-151140000D01*
X85120297Y-151139278D01*
X85105736Y-151137118D01*
X85091457Y-151133541D01*
X85077597Y-151128582D01*
X85064290Y-151122288D01*
X85051664Y-151114720D01*
X85039841Y-151105952D01*
X85028934Y-151096066D01*
X85019048Y-151085159D01*
X85010280Y-151073336D01*
X85002712Y-151060710D01*
X84996418Y-151047403D01*
X84991459Y-151033543D01*
X84987882Y-151019264D01*
X84985722Y-151004703D01*
X84985000Y-150990000D01*
X84985000Y-149340000D01*
X84985722Y-149325297D01*
X84987882Y-149310736D01*
X84991459Y-149296457D01*
X84996418Y-149282597D01*
X85002712Y-149269290D01*
X85010280Y-149256664D01*
X85019048Y-149244841D01*
X85028934Y-149233934D01*
X85039841Y-149224048D01*
X85051664Y-149215280D01*
X85064290Y-149207712D01*
X85077597Y-149201418D01*
X85091457Y-149196459D01*
X85105736Y-149192882D01*
X85120297Y-149190722D01*
X85135000Y-149190000D01*
X85435000Y-149190000D01*
X85449703Y-149190722D01*
G37*
G04 #@! TD.AperFunction*
G04 #@! TA.AperFunction,SMDPad,CuDef*
G36*
X86719703Y-149190722D02*
G01*
X86734264Y-149192882D01*
X86748543Y-149196459D01*
X86762403Y-149201418D01*
X86775710Y-149207712D01*
X86788336Y-149215280D01*
X86800159Y-149224048D01*
X86811066Y-149233934D01*
X86820952Y-149244841D01*
X86829720Y-149256664D01*
X86837288Y-149269290D01*
X86843582Y-149282597D01*
X86848541Y-149296457D01*
X86852118Y-149310736D01*
X86854278Y-149325297D01*
X86855000Y-149340000D01*
X86855000Y-150990000D01*
X86854278Y-151004703D01*
X86852118Y-151019264D01*
X86848541Y-151033543D01*
X86843582Y-151047403D01*
X86837288Y-151060710D01*
X86829720Y-151073336D01*
X86820952Y-151085159D01*
X86811066Y-151096066D01*
X86800159Y-151105952D01*
X86788336Y-151114720D01*
X86775710Y-151122288D01*
X86762403Y-151128582D01*
X86748543Y-151133541D01*
X86734264Y-151137118D01*
X86719703Y-151139278D01*
X86705000Y-151140000D01*
X86405000Y-151140000D01*
X86390297Y-151139278D01*
X86375736Y-151137118D01*
X86361457Y-151133541D01*
X86347597Y-151128582D01*
X86334290Y-151122288D01*
X86321664Y-151114720D01*
X86309841Y-151105952D01*
X86298934Y-151096066D01*
X86289048Y-151085159D01*
X86280280Y-151073336D01*
X86272712Y-151060710D01*
X86266418Y-151047403D01*
X86261459Y-151033543D01*
X86257882Y-151019264D01*
X86255722Y-151004703D01*
X86255000Y-150990000D01*
X86255000Y-149340000D01*
X86255722Y-149325297D01*
X86257882Y-149310736D01*
X86261459Y-149296457D01*
X86266418Y-149282597D01*
X86272712Y-149269290D01*
X86280280Y-149256664D01*
X86289048Y-149244841D01*
X86298934Y-149233934D01*
X86309841Y-149224048D01*
X86321664Y-149215280D01*
X86334290Y-149207712D01*
X86347597Y-149201418D01*
X86361457Y-149196459D01*
X86375736Y-149192882D01*
X86390297Y-149190722D01*
X86405000Y-149190000D01*
X86705000Y-149190000D01*
X86719703Y-149190722D01*
G37*
G04 #@! TD.AperFunction*
G04 #@! TA.AperFunction,SMDPad,CuDef*
G36*
X87989703Y-149190722D02*
G01*
X88004264Y-149192882D01*
X88018543Y-149196459D01*
X88032403Y-149201418D01*
X88045710Y-149207712D01*
X88058336Y-149215280D01*
X88070159Y-149224048D01*
X88081066Y-149233934D01*
X88090952Y-149244841D01*
X88099720Y-149256664D01*
X88107288Y-149269290D01*
X88113582Y-149282597D01*
X88118541Y-149296457D01*
X88122118Y-149310736D01*
X88124278Y-149325297D01*
X88125000Y-149340000D01*
X88125000Y-150990000D01*
X88124278Y-151004703D01*
X88122118Y-151019264D01*
X88118541Y-151033543D01*
X88113582Y-151047403D01*
X88107288Y-151060710D01*
X88099720Y-151073336D01*
X88090952Y-151085159D01*
X88081066Y-151096066D01*
X88070159Y-151105952D01*
X88058336Y-151114720D01*
X88045710Y-151122288D01*
X88032403Y-151128582D01*
X88018543Y-151133541D01*
X88004264Y-151137118D01*
X87989703Y-151139278D01*
X87975000Y-151140000D01*
X87675000Y-151140000D01*
X87660297Y-151139278D01*
X87645736Y-151137118D01*
X87631457Y-151133541D01*
X87617597Y-151128582D01*
X87604290Y-151122288D01*
X87591664Y-151114720D01*
X87579841Y-151105952D01*
X87568934Y-151096066D01*
X87559048Y-151085159D01*
X87550280Y-151073336D01*
X87542712Y-151060710D01*
X87536418Y-151047403D01*
X87531459Y-151033543D01*
X87527882Y-151019264D01*
X87525722Y-151004703D01*
X87525000Y-150990000D01*
X87525000Y-149340000D01*
X87525722Y-149325297D01*
X87527882Y-149310736D01*
X87531459Y-149296457D01*
X87536418Y-149282597D01*
X87542712Y-149269290D01*
X87550280Y-149256664D01*
X87559048Y-149244841D01*
X87568934Y-149233934D01*
X87579841Y-149224048D01*
X87591664Y-149215280D01*
X87604290Y-149207712D01*
X87617597Y-149201418D01*
X87631457Y-149196459D01*
X87645736Y-149192882D01*
X87660297Y-149190722D01*
X87675000Y-149190000D01*
X87975000Y-149190000D01*
X87989703Y-149190722D01*
G37*
G04 #@! TD.AperFunction*
G04 #@! TA.AperFunction,SMDPad,CuDef*
G36*
X87989703Y-144240722D02*
G01*
X88004264Y-144242882D01*
X88018543Y-144246459D01*
X88032403Y-144251418D01*
X88045710Y-144257712D01*
X88058336Y-144265280D01*
X88070159Y-144274048D01*
X88081066Y-144283934D01*
X88090952Y-144294841D01*
X88099720Y-144306664D01*
X88107288Y-144319290D01*
X88113582Y-144332597D01*
X88118541Y-144346457D01*
X88122118Y-144360736D01*
X88124278Y-144375297D01*
X88125000Y-144390000D01*
X88125000Y-146040000D01*
X88124278Y-146054703D01*
X88122118Y-146069264D01*
X88118541Y-146083543D01*
X88113582Y-146097403D01*
X88107288Y-146110710D01*
X88099720Y-146123336D01*
X88090952Y-146135159D01*
X88081066Y-146146066D01*
X88070159Y-146155952D01*
X88058336Y-146164720D01*
X88045710Y-146172288D01*
X88032403Y-146178582D01*
X88018543Y-146183541D01*
X88004264Y-146187118D01*
X87989703Y-146189278D01*
X87975000Y-146190000D01*
X87675000Y-146190000D01*
X87660297Y-146189278D01*
X87645736Y-146187118D01*
X87631457Y-146183541D01*
X87617597Y-146178582D01*
X87604290Y-146172288D01*
X87591664Y-146164720D01*
X87579841Y-146155952D01*
X87568934Y-146146066D01*
X87559048Y-146135159D01*
X87550280Y-146123336D01*
X87542712Y-146110710D01*
X87536418Y-146097403D01*
X87531459Y-146083543D01*
X87527882Y-146069264D01*
X87525722Y-146054703D01*
X87525000Y-146040000D01*
X87525000Y-144390000D01*
X87525722Y-144375297D01*
X87527882Y-144360736D01*
X87531459Y-144346457D01*
X87536418Y-144332597D01*
X87542712Y-144319290D01*
X87550280Y-144306664D01*
X87559048Y-144294841D01*
X87568934Y-144283934D01*
X87579841Y-144274048D01*
X87591664Y-144265280D01*
X87604290Y-144257712D01*
X87617597Y-144251418D01*
X87631457Y-144246459D01*
X87645736Y-144242882D01*
X87660297Y-144240722D01*
X87675000Y-144240000D01*
X87975000Y-144240000D01*
X87989703Y-144240722D01*
G37*
G04 #@! TD.AperFunction*
G04 #@! TA.AperFunction,SMDPad,CuDef*
G36*
X86719703Y-144240722D02*
G01*
X86734264Y-144242882D01*
X86748543Y-144246459D01*
X86762403Y-144251418D01*
X86775710Y-144257712D01*
X86788336Y-144265280D01*
X86800159Y-144274048D01*
X86811066Y-144283934D01*
X86820952Y-144294841D01*
X86829720Y-144306664D01*
X86837288Y-144319290D01*
X86843582Y-144332597D01*
X86848541Y-144346457D01*
X86852118Y-144360736D01*
X86854278Y-144375297D01*
X86855000Y-144390000D01*
X86855000Y-146040000D01*
X86854278Y-146054703D01*
X86852118Y-146069264D01*
X86848541Y-146083543D01*
X86843582Y-146097403D01*
X86837288Y-146110710D01*
X86829720Y-146123336D01*
X86820952Y-146135159D01*
X86811066Y-146146066D01*
X86800159Y-146155952D01*
X86788336Y-146164720D01*
X86775710Y-146172288D01*
X86762403Y-146178582D01*
X86748543Y-146183541D01*
X86734264Y-146187118D01*
X86719703Y-146189278D01*
X86705000Y-146190000D01*
X86405000Y-146190000D01*
X86390297Y-146189278D01*
X86375736Y-146187118D01*
X86361457Y-146183541D01*
X86347597Y-146178582D01*
X86334290Y-146172288D01*
X86321664Y-146164720D01*
X86309841Y-146155952D01*
X86298934Y-146146066D01*
X86289048Y-146135159D01*
X86280280Y-146123336D01*
X86272712Y-146110710D01*
X86266418Y-146097403D01*
X86261459Y-146083543D01*
X86257882Y-146069264D01*
X86255722Y-146054703D01*
X86255000Y-146040000D01*
X86255000Y-144390000D01*
X86255722Y-144375297D01*
X86257882Y-144360736D01*
X86261459Y-144346457D01*
X86266418Y-144332597D01*
X86272712Y-144319290D01*
X86280280Y-144306664D01*
X86289048Y-144294841D01*
X86298934Y-144283934D01*
X86309841Y-144274048D01*
X86321664Y-144265280D01*
X86334290Y-144257712D01*
X86347597Y-144251418D01*
X86361457Y-144246459D01*
X86375736Y-144242882D01*
X86390297Y-144240722D01*
X86405000Y-144240000D01*
X86705000Y-144240000D01*
X86719703Y-144240722D01*
G37*
G04 #@! TD.AperFunction*
G04 #@! TA.AperFunction,SMDPad,CuDef*
G36*
X85449703Y-144240722D02*
G01*
X85464264Y-144242882D01*
X85478543Y-144246459D01*
X85492403Y-144251418D01*
X85505710Y-144257712D01*
X85518336Y-144265280D01*
X85530159Y-144274048D01*
X85541066Y-144283934D01*
X85550952Y-144294841D01*
X85559720Y-144306664D01*
X85567288Y-144319290D01*
X85573582Y-144332597D01*
X85578541Y-144346457D01*
X85582118Y-144360736D01*
X85584278Y-144375297D01*
X85585000Y-144390000D01*
X85585000Y-146040000D01*
X85584278Y-146054703D01*
X85582118Y-146069264D01*
X85578541Y-146083543D01*
X85573582Y-146097403D01*
X85567288Y-146110710D01*
X85559720Y-146123336D01*
X85550952Y-146135159D01*
X85541066Y-146146066D01*
X85530159Y-146155952D01*
X85518336Y-146164720D01*
X85505710Y-146172288D01*
X85492403Y-146178582D01*
X85478543Y-146183541D01*
X85464264Y-146187118D01*
X85449703Y-146189278D01*
X85435000Y-146190000D01*
X85135000Y-146190000D01*
X85120297Y-146189278D01*
X85105736Y-146187118D01*
X85091457Y-146183541D01*
X85077597Y-146178582D01*
X85064290Y-146172288D01*
X85051664Y-146164720D01*
X85039841Y-146155952D01*
X85028934Y-146146066D01*
X85019048Y-146135159D01*
X85010280Y-146123336D01*
X85002712Y-146110710D01*
X84996418Y-146097403D01*
X84991459Y-146083543D01*
X84987882Y-146069264D01*
X84985722Y-146054703D01*
X84985000Y-146040000D01*
X84985000Y-144390000D01*
X84985722Y-144375297D01*
X84987882Y-144360736D01*
X84991459Y-144346457D01*
X84996418Y-144332597D01*
X85002712Y-144319290D01*
X85010280Y-144306664D01*
X85019048Y-144294841D01*
X85028934Y-144283934D01*
X85039841Y-144274048D01*
X85051664Y-144265280D01*
X85064290Y-144257712D01*
X85077597Y-144251418D01*
X85091457Y-144246459D01*
X85105736Y-144242882D01*
X85120297Y-144240722D01*
X85135000Y-144240000D01*
X85435000Y-144240000D01*
X85449703Y-144240722D01*
G37*
G04 #@! TD.AperFunction*
G04 #@! TA.AperFunction,SMDPad,CuDef*
G36*
X84179703Y-144240722D02*
G01*
X84194264Y-144242882D01*
X84208543Y-144246459D01*
X84222403Y-144251418D01*
X84235710Y-144257712D01*
X84248336Y-144265280D01*
X84260159Y-144274048D01*
X84271066Y-144283934D01*
X84280952Y-144294841D01*
X84289720Y-144306664D01*
X84297288Y-144319290D01*
X84303582Y-144332597D01*
X84308541Y-144346457D01*
X84312118Y-144360736D01*
X84314278Y-144375297D01*
X84315000Y-144390000D01*
X84315000Y-146040000D01*
X84314278Y-146054703D01*
X84312118Y-146069264D01*
X84308541Y-146083543D01*
X84303582Y-146097403D01*
X84297288Y-146110710D01*
X84289720Y-146123336D01*
X84280952Y-146135159D01*
X84271066Y-146146066D01*
X84260159Y-146155952D01*
X84248336Y-146164720D01*
X84235710Y-146172288D01*
X84222403Y-146178582D01*
X84208543Y-146183541D01*
X84194264Y-146187118D01*
X84179703Y-146189278D01*
X84165000Y-146190000D01*
X83865000Y-146190000D01*
X83850297Y-146189278D01*
X83835736Y-146187118D01*
X83821457Y-146183541D01*
X83807597Y-146178582D01*
X83794290Y-146172288D01*
X83781664Y-146164720D01*
X83769841Y-146155952D01*
X83758934Y-146146066D01*
X83749048Y-146135159D01*
X83740280Y-146123336D01*
X83732712Y-146110710D01*
X83726418Y-146097403D01*
X83721459Y-146083543D01*
X83717882Y-146069264D01*
X83715722Y-146054703D01*
X83715000Y-146040000D01*
X83715000Y-144390000D01*
X83715722Y-144375297D01*
X83717882Y-144360736D01*
X83721459Y-144346457D01*
X83726418Y-144332597D01*
X83732712Y-144319290D01*
X83740280Y-144306664D01*
X83749048Y-144294841D01*
X83758934Y-144283934D01*
X83769841Y-144274048D01*
X83781664Y-144265280D01*
X83794290Y-144257712D01*
X83807597Y-144251418D01*
X83821457Y-144246459D01*
X83835736Y-144242882D01*
X83850297Y-144240722D01*
X83865000Y-144240000D01*
X84165000Y-144240000D01*
X84179703Y-144240722D01*
G37*
G04 #@! TD.AperFunction*
G04 #@! TA.AperFunction,SMDPad,CuDef*
G36*
X82909703Y-144240722D02*
G01*
X82924264Y-144242882D01*
X82938543Y-144246459D01*
X82952403Y-144251418D01*
X82965710Y-144257712D01*
X82978336Y-144265280D01*
X82990159Y-144274048D01*
X83001066Y-144283934D01*
X83010952Y-144294841D01*
X83019720Y-144306664D01*
X83027288Y-144319290D01*
X83033582Y-144332597D01*
X83038541Y-144346457D01*
X83042118Y-144360736D01*
X83044278Y-144375297D01*
X83045000Y-144390000D01*
X83045000Y-146040000D01*
X83044278Y-146054703D01*
X83042118Y-146069264D01*
X83038541Y-146083543D01*
X83033582Y-146097403D01*
X83027288Y-146110710D01*
X83019720Y-146123336D01*
X83010952Y-146135159D01*
X83001066Y-146146066D01*
X82990159Y-146155952D01*
X82978336Y-146164720D01*
X82965710Y-146172288D01*
X82952403Y-146178582D01*
X82938543Y-146183541D01*
X82924264Y-146187118D01*
X82909703Y-146189278D01*
X82895000Y-146190000D01*
X82595000Y-146190000D01*
X82580297Y-146189278D01*
X82565736Y-146187118D01*
X82551457Y-146183541D01*
X82537597Y-146178582D01*
X82524290Y-146172288D01*
X82511664Y-146164720D01*
X82499841Y-146155952D01*
X82488934Y-146146066D01*
X82479048Y-146135159D01*
X82470280Y-146123336D01*
X82462712Y-146110710D01*
X82456418Y-146097403D01*
X82451459Y-146083543D01*
X82447882Y-146069264D01*
X82445722Y-146054703D01*
X82445000Y-146040000D01*
X82445000Y-144390000D01*
X82445722Y-144375297D01*
X82447882Y-144360736D01*
X82451459Y-144346457D01*
X82456418Y-144332597D01*
X82462712Y-144319290D01*
X82470280Y-144306664D01*
X82479048Y-144294841D01*
X82488934Y-144283934D01*
X82499841Y-144274048D01*
X82511664Y-144265280D01*
X82524290Y-144257712D01*
X82537597Y-144251418D01*
X82551457Y-144246459D01*
X82565736Y-144242882D01*
X82580297Y-144240722D01*
X82595000Y-144240000D01*
X82895000Y-144240000D01*
X82909703Y-144240722D01*
G37*
G04 #@! TD.AperFunction*
G04 #@! TA.AperFunction,SMDPad,CuDef*
G36*
X81639703Y-144240722D02*
G01*
X81654264Y-144242882D01*
X81668543Y-144246459D01*
X81682403Y-144251418D01*
X81695710Y-144257712D01*
X81708336Y-144265280D01*
X81720159Y-144274048D01*
X81731066Y-144283934D01*
X81740952Y-144294841D01*
X81749720Y-144306664D01*
X81757288Y-144319290D01*
X81763582Y-144332597D01*
X81768541Y-144346457D01*
X81772118Y-144360736D01*
X81774278Y-144375297D01*
X81775000Y-144390000D01*
X81775000Y-146040000D01*
X81774278Y-146054703D01*
X81772118Y-146069264D01*
X81768541Y-146083543D01*
X81763582Y-146097403D01*
X81757288Y-146110710D01*
X81749720Y-146123336D01*
X81740952Y-146135159D01*
X81731066Y-146146066D01*
X81720159Y-146155952D01*
X81708336Y-146164720D01*
X81695710Y-146172288D01*
X81682403Y-146178582D01*
X81668543Y-146183541D01*
X81654264Y-146187118D01*
X81639703Y-146189278D01*
X81625000Y-146190000D01*
X81325000Y-146190000D01*
X81310297Y-146189278D01*
X81295736Y-146187118D01*
X81281457Y-146183541D01*
X81267597Y-146178582D01*
X81254290Y-146172288D01*
X81241664Y-146164720D01*
X81229841Y-146155952D01*
X81218934Y-146146066D01*
X81209048Y-146135159D01*
X81200280Y-146123336D01*
X81192712Y-146110710D01*
X81186418Y-146097403D01*
X81181459Y-146083543D01*
X81177882Y-146069264D01*
X81175722Y-146054703D01*
X81175000Y-146040000D01*
X81175000Y-144390000D01*
X81175722Y-144375297D01*
X81177882Y-144360736D01*
X81181459Y-144346457D01*
X81186418Y-144332597D01*
X81192712Y-144319290D01*
X81200280Y-144306664D01*
X81209048Y-144294841D01*
X81218934Y-144283934D01*
X81229841Y-144274048D01*
X81241664Y-144265280D01*
X81254290Y-144257712D01*
X81267597Y-144251418D01*
X81281457Y-144246459D01*
X81295736Y-144242882D01*
X81310297Y-144240722D01*
X81325000Y-144240000D01*
X81625000Y-144240000D01*
X81639703Y-144240722D01*
G37*
G04 #@! TD.AperFunction*
G04 #@! TA.AperFunction,SMDPad,CuDef*
G36*
X80369703Y-144240722D02*
G01*
X80384264Y-144242882D01*
X80398543Y-144246459D01*
X80412403Y-144251418D01*
X80425710Y-144257712D01*
X80438336Y-144265280D01*
X80450159Y-144274048D01*
X80461066Y-144283934D01*
X80470952Y-144294841D01*
X80479720Y-144306664D01*
X80487288Y-144319290D01*
X80493582Y-144332597D01*
X80498541Y-144346457D01*
X80502118Y-144360736D01*
X80504278Y-144375297D01*
X80505000Y-144390000D01*
X80505000Y-146040000D01*
X80504278Y-146054703D01*
X80502118Y-146069264D01*
X80498541Y-146083543D01*
X80493582Y-146097403D01*
X80487288Y-146110710D01*
X80479720Y-146123336D01*
X80470952Y-146135159D01*
X80461066Y-146146066D01*
X80450159Y-146155952D01*
X80438336Y-146164720D01*
X80425710Y-146172288D01*
X80412403Y-146178582D01*
X80398543Y-146183541D01*
X80384264Y-146187118D01*
X80369703Y-146189278D01*
X80355000Y-146190000D01*
X80055000Y-146190000D01*
X80040297Y-146189278D01*
X80025736Y-146187118D01*
X80011457Y-146183541D01*
X79997597Y-146178582D01*
X79984290Y-146172288D01*
X79971664Y-146164720D01*
X79959841Y-146155952D01*
X79948934Y-146146066D01*
X79939048Y-146135159D01*
X79930280Y-146123336D01*
X79922712Y-146110710D01*
X79916418Y-146097403D01*
X79911459Y-146083543D01*
X79907882Y-146069264D01*
X79905722Y-146054703D01*
X79905000Y-146040000D01*
X79905000Y-144390000D01*
X79905722Y-144375297D01*
X79907882Y-144360736D01*
X79911459Y-144346457D01*
X79916418Y-144332597D01*
X79922712Y-144319290D01*
X79930280Y-144306664D01*
X79939048Y-144294841D01*
X79948934Y-144283934D01*
X79959841Y-144274048D01*
X79971664Y-144265280D01*
X79984290Y-144257712D01*
X79997597Y-144251418D01*
X80011457Y-144246459D01*
X80025736Y-144242882D01*
X80040297Y-144240722D01*
X80055000Y-144240000D01*
X80355000Y-144240000D01*
X80369703Y-144240722D01*
G37*
G04 #@! TD.AperFunction*
G04 #@! TA.AperFunction,SMDPad,CuDef*
G36*
X79099703Y-144240722D02*
G01*
X79114264Y-144242882D01*
X79128543Y-144246459D01*
X79142403Y-144251418D01*
X79155710Y-144257712D01*
X79168336Y-144265280D01*
X79180159Y-144274048D01*
X79191066Y-144283934D01*
X79200952Y-144294841D01*
X79209720Y-144306664D01*
X79217288Y-144319290D01*
X79223582Y-144332597D01*
X79228541Y-144346457D01*
X79232118Y-144360736D01*
X79234278Y-144375297D01*
X79235000Y-144390000D01*
X79235000Y-146040000D01*
X79234278Y-146054703D01*
X79232118Y-146069264D01*
X79228541Y-146083543D01*
X79223582Y-146097403D01*
X79217288Y-146110710D01*
X79209720Y-146123336D01*
X79200952Y-146135159D01*
X79191066Y-146146066D01*
X79180159Y-146155952D01*
X79168336Y-146164720D01*
X79155710Y-146172288D01*
X79142403Y-146178582D01*
X79128543Y-146183541D01*
X79114264Y-146187118D01*
X79099703Y-146189278D01*
X79085000Y-146190000D01*
X78785000Y-146190000D01*
X78770297Y-146189278D01*
X78755736Y-146187118D01*
X78741457Y-146183541D01*
X78727597Y-146178582D01*
X78714290Y-146172288D01*
X78701664Y-146164720D01*
X78689841Y-146155952D01*
X78678934Y-146146066D01*
X78669048Y-146135159D01*
X78660280Y-146123336D01*
X78652712Y-146110710D01*
X78646418Y-146097403D01*
X78641459Y-146083543D01*
X78637882Y-146069264D01*
X78635722Y-146054703D01*
X78635000Y-146040000D01*
X78635000Y-144390000D01*
X78635722Y-144375297D01*
X78637882Y-144360736D01*
X78641459Y-144346457D01*
X78646418Y-144332597D01*
X78652712Y-144319290D01*
X78660280Y-144306664D01*
X78669048Y-144294841D01*
X78678934Y-144283934D01*
X78689841Y-144274048D01*
X78701664Y-144265280D01*
X78714290Y-144257712D01*
X78727597Y-144251418D01*
X78741457Y-144246459D01*
X78755736Y-144242882D01*
X78770297Y-144240722D01*
X78785000Y-144240000D01*
X79085000Y-144240000D01*
X79099703Y-144240722D01*
G37*
G04 #@! TD.AperFunction*
D19*
X113730000Y-124265000D03*
X118680000Y-124265000D03*
D15*
X116205000Y-143193000D03*
D20*
X116205000Y-148193000D03*
G04 #@! TA.AperFunction,SMDPad,CuDef*
D12*
G36*
X67909703Y-158153722D02*
G01*
X67924264Y-158155882D01*
X67938543Y-158159459D01*
X67952403Y-158164418D01*
X67965710Y-158170712D01*
X67978336Y-158178280D01*
X67990159Y-158187048D01*
X68001066Y-158196934D01*
X68010952Y-158207841D01*
X68019720Y-158219664D01*
X68027288Y-158232290D01*
X68033582Y-158245597D01*
X68038541Y-158259457D01*
X68042118Y-158273736D01*
X68044278Y-158288297D01*
X68045000Y-158303000D01*
X68045000Y-160053000D01*
X68044278Y-160067703D01*
X68042118Y-160082264D01*
X68038541Y-160096543D01*
X68033582Y-160110403D01*
X68027288Y-160123710D01*
X68019720Y-160136336D01*
X68010952Y-160148159D01*
X68001066Y-160159066D01*
X67990159Y-160168952D01*
X67978336Y-160177720D01*
X67965710Y-160185288D01*
X67952403Y-160191582D01*
X67938543Y-160196541D01*
X67924264Y-160200118D01*
X67909703Y-160202278D01*
X67895000Y-160203000D01*
X67595000Y-160203000D01*
X67580297Y-160202278D01*
X67565736Y-160200118D01*
X67551457Y-160196541D01*
X67537597Y-160191582D01*
X67524290Y-160185288D01*
X67511664Y-160177720D01*
X67499841Y-160168952D01*
X67488934Y-160159066D01*
X67479048Y-160148159D01*
X67470280Y-160136336D01*
X67462712Y-160123710D01*
X67456418Y-160110403D01*
X67451459Y-160096543D01*
X67447882Y-160082264D01*
X67445722Y-160067703D01*
X67445000Y-160053000D01*
X67445000Y-158303000D01*
X67445722Y-158288297D01*
X67447882Y-158273736D01*
X67451459Y-158259457D01*
X67456418Y-158245597D01*
X67462712Y-158232290D01*
X67470280Y-158219664D01*
X67479048Y-158207841D01*
X67488934Y-158196934D01*
X67499841Y-158187048D01*
X67511664Y-158178280D01*
X67524290Y-158170712D01*
X67537597Y-158164418D01*
X67551457Y-158159459D01*
X67565736Y-158155882D01*
X67580297Y-158153722D01*
X67595000Y-158153000D01*
X67895000Y-158153000D01*
X67909703Y-158153722D01*
G37*
G04 #@! TD.AperFunction*
G04 #@! TA.AperFunction,SMDPad,CuDef*
G36*
X69179703Y-158153722D02*
G01*
X69194264Y-158155882D01*
X69208543Y-158159459D01*
X69222403Y-158164418D01*
X69235710Y-158170712D01*
X69248336Y-158178280D01*
X69260159Y-158187048D01*
X69271066Y-158196934D01*
X69280952Y-158207841D01*
X69289720Y-158219664D01*
X69297288Y-158232290D01*
X69303582Y-158245597D01*
X69308541Y-158259457D01*
X69312118Y-158273736D01*
X69314278Y-158288297D01*
X69315000Y-158303000D01*
X69315000Y-160053000D01*
X69314278Y-160067703D01*
X69312118Y-160082264D01*
X69308541Y-160096543D01*
X69303582Y-160110403D01*
X69297288Y-160123710D01*
X69289720Y-160136336D01*
X69280952Y-160148159D01*
X69271066Y-160159066D01*
X69260159Y-160168952D01*
X69248336Y-160177720D01*
X69235710Y-160185288D01*
X69222403Y-160191582D01*
X69208543Y-160196541D01*
X69194264Y-160200118D01*
X69179703Y-160202278D01*
X69165000Y-160203000D01*
X68865000Y-160203000D01*
X68850297Y-160202278D01*
X68835736Y-160200118D01*
X68821457Y-160196541D01*
X68807597Y-160191582D01*
X68794290Y-160185288D01*
X68781664Y-160177720D01*
X68769841Y-160168952D01*
X68758934Y-160159066D01*
X68749048Y-160148159D01*
X68740280Y-160136336D01*
X68732712Y-160123710D01*
X68726418Y-160110403D01*
X68721459Y-160096543D01*
X68717882Y-160082264D01*
X68715722Y-160067703D01*
X68715000Y-160053000D01*
X68715000Y-158303000D01*
X68715722Y-158288297D01*
X68717882Y-158273736D01*
X68721459Y-158259457D01*
X68726418Y-158245597D01*
X68732712Y-158232290D01*
X68740280Y-158219664D01*
X68749048Y-158207841D01*
X68758934Y-158196934D01*
X68769841Y-158187048D01*
X68781664Y-158178280D01*
X68794290Y-158170712D01*
X68807597Y-158164418D01*
X68821457Y-158159459D01*
X68835736Y-158155882D01*
X68850297Y-158153722D01*
X68865000Y-158153000D01*
X69165000Y-158153000D01*
X69179703Y-158153722D01*
G37*
G04 #@! TD.AperFunction*
G04 #@! TA.AperFunction,SMDPad,CuDef*
G36*
X70449703Y-158153722D02*
G01*
X70464264Y-158155882D01*
X70478543Y-158159459D01*
X70492403Y-158164418D01*
X70505710Y-158170712D01*
X70518336Y-158178280D01*
X70530159Y-158187048D01*
X70541066Y-158196934D01*
X70550952Y-158207841D01*
X70559720Y-158219664D01*
X70567288Y-158232290D01*
X70573582Y-158245597D01*
X70578541Y-158259457D01*
X70582118Y-158273736D01*
X70584278Y-158288297D01*
X70585000Y-158303000D01*
X70585000Y-160053000D01*
X70584278Y-160067703D01*
X70582118Y-160082264D01*
X70578541Y-160096543D01*
X70573582Y-160110403D01*
X70567288Y-160123710D01*
X70559720Y-160136336D01*
X70550952Y-160148159D01*
X70541066Y-160159066D01*
X70530159Y-160168952D01*
X70518336Y-160177720D01*
X70505710Y-160185288D01*
X70492403Y-160191582D01*
X70478543Y-160196541D01*
X70464264Y-160200118D01*
X70449703Y-160202278D01*
X70435000Y-160203000D01*
X70135000Y-160203000D01*
X70120297Y-160202278D01*
X70105736Y-160200118D01*
X70091457Y-160196541D01*
X70077597Y-160191582D01*
X70064290Y-160185288D01*
X70051664Y-160177720D01*
X70039841Y-160168952D01*
X70028934Y-160159066D01*
X70019048Y-160148159D01*
X70010280Y-160136336D01*
X70002712Y-160123710D01*
X69996418Y-160110403D01*
X69991459Y-160096543D01*
X69987882Y-160082264D01*
X69985722Y-160067703D01*
X69985000Y-160053000D01*
X69985000Y-158303000D01*
X69985722Y-158288297D01*
X69987882Y-158273736D01*
X69991459Y-158259457D01*
X69996418Y-158245597D01*
X70002712Y-158232290D01*
X70010280Y-158219664D01*
X70019048Y-158207841D01*
X70028934Y-158196934D01*
X70039841Y-158187048D01*
X70051664Y-158178280D01*
X70064290Y-158170712D01*
X70077597Y-158164418D01*
X70091457Y-158159459D01*
X70105736Y-158155882D01*
X70120297Y-158153722D01*
X70135000Y-158153000D01*
X70435000Y-158153000D01*
X70449703Y-158153722D01*
G37*
G04 #@! TD.AperFunction*
G04 #@! TA.AperFunction,SMDPad,CuDef*
G36*
X71719703Y-158153722D02*
G01*
X71734264Y-158155882D01*
X71748543Y-158159459D01*
X71762403Y-158164418D01*
X71775710Y-158170712D01*
X71788336Y-158178280D01*
X71800159Y-158187048D01*
X71811066Y-158196934D01*
X71820952Y-158207841D01*
X71829720Y-158219664D01*
X71837288Y-158232290D01*
X71843582Y-158245597D01*
X71848541Y-158259457D01*
X71852118Y-158273736D01*
X71854278Y-158288297D01*
X71855000Y-158303000D01*
X71855000Y-160053000D01*
X71854278Y-160067703D01*
X71852118Y-160082264D01*
X71848541Y-160096543D01*
X71843582Y-160110403D01*
X71837288Y-160123710D01*
X71829720Y-160136336D01*
X71820952Y-160148159D01*
X71811066Y-160159066D01*
X71800159Y-160168952D01*
X71788336Y-160177720D01*
X71775710Y-160185288D01*
X71762403Y-160191582D01*
X71748543Y-160196541D01*
X71734264Y-160200118D01*
X71719703Y-160202278D01*
X71705000Y-160203000D01*
X71405000Y-160203000D01*
X71390297Y-160202278D01*
X71375736Y-160200118D01*
X71361457Y-160196541D01*
X71347597Y-160191582D01*
X71334290Y-160185288D01*
X71321664Y-160177720D01*
X71309841Y-160168952D01*
X71298934Y-160159066D01*
X71289048Y-160148159D01*
X71280280Y-160136336D01*
X71272712Y-160123710D01*
X71266418Y-160110403D01*
X71261459Y-160096543D01*
X71257882Y-160082264D01*
X71255722Y-160067703D01*
X71255000Y-160053000D01*
X71255000Y-158303000D01*
X71255722Y-158288297D01*
X71257882Y-158273736D01*
X71261459Y-158259457D01*
X71266418Y-158245597D01*
X71272712Y-158232290D01*
X71280280Y-158219664D01*
X71289048Y-158207841D01*
X71298934Y-158196934D01*
X71309841Y-158187048D01*
X71321664Y-158178280D01*
X71334290Y-158170712D01*
X71347597Y-158164418D01*
X71361457Y-158159459D01*
X71375736Y-158155882D01*
X71390297Y-158153722D01*
X71405000Y-158153000D01*
X71705000Y-158153000D01*
X71719703Y-158153722D01*
G37*
G04 #@! TD.AperFunction*
G04 #@! TA.AperFunction,SMDPad,CuDef*
G36*
X72989703Y-158153722D02*
G01*
X73004264Y-158155882D01*
X73018543Y-158159459D01*
X73032403Y-158164418D01*
X73045710Y-158170712D01*
X73058336Y-158178280D01*
X73070159Y-158187048D01*
X73081066Y-158196934D01*
X73090952Y-158207841D01*
X73099720Y-158219664D01*
X73107288Y-158232290D01*
X73113582Y-158245597D01*
X73118541Y-158259457D01*
X73122118Y-158273736D01*
X73124278Y-158288297D01*
X73125000Y-158303000D01*
X73125000Y-160053000D01*
X73124278Y-160067703D01*
X73122118Y-160082264D01*
X73118541Y-160096543D01*
X73113582Y-160110403D01*
X73107288Y-160123710D01*
X73099720Y-160136336D01*
X73090952Y-160148159D01*
X73081066Y-160159066D01*
X73070159Y-160168952D01*
X73058336Y-160177720D01*
X73045710Y-160185288D01*
X73032403Y-160191582D01*
X73018543Y-160196541D01*
X73004264Y-160200118D01*
X72989703Y-160202278D01*
X72975000Y-160203000D01*
X72675000Y-160203000D01*
X72660297Y-160202278D01*
X72645736Y-160200118D01*
X72631457Y-160196541D01*
X72617597Y-160191582D01*
X72604290Y-160185288D01*
X72591664Y-160177720D01*
X72579841Y-160168952D01*
X72568934Y-160159066D01*
X72559048Y-160148159D01*
X72550280Y-160136336D01*
X72542712Y-160123710D01*
X72536418Y-160110403D01*
X72531459Y-160096543D01*
X72527882Y-160082264D01*
X72525722Y-160067703D01*
X72525000Y-160053000D01*
X72525000Y-158303000D01*
X72525722Y-158288297D01*
X72527882Y-158273736D01*
X72531459Y-158259457D01*
X72536418Y-158245597D01*
X72542712Y-158232290D01*
X72550280Y-158219664D01*
X72559048Y-158207841D01*
X72568934Y-158196934D01*
X72579841Y-158187048D01*
X72591664Y-158178280D01*
X72604290Y-158170712D01*
X72617597Y-158164418D01*
X72631457Y-158159459D01*
X72645736Y-158155882D01*
X72660297Y-158153722D01*
X72675000Y-158153000D01*
X72975000Y-158153000D01*
X72989703Y-158153722D01*
G37*
G04 #@! TD.AperFunction*
G04 #@! TA.AperFunction,SMDPad,CuDef*
G36*
X74259703Y-158153722D02*
G01*
X74274264Y-158155882D01*
X74288543Y-158159459D01*
X74302403Y-158164418D01*
X74315710Y-158170712D01*
X74328336Y-158178280D01*
X74340159Y-158187048D01*
X74351066Y-158196934D01*
X74360952Y-158207841D01*
X74369720Y-158219664D01*
X74377288Y-158232290D01*
X74383582Y-158245597D01*
X74388541Y-158259457D01*
X74392118Y-158273736D01*
X74394278Y-158288297D01*
X74395000Y-158303000D01*
X74395000Y-160053000D01*
X74394278Y-160067703D01*
X74392118Y-160082264D01*
X74388541Y-160096543D01*
X74383582Y-160110403D01*
X74377288Y-160123710D01*
X74369720Y-160136336D01*
X74360952Y-160148159D01*
X74351066Y-160159066D01*
X74340159Y-160168952D01*
X74328336Y-160177720D01*
X74315710Y-160185288D01*
X74302403Y-160191582D01*
X74288543Y-160196541D01*
X74274264Y-160200118D01*
X74259703Y-160202278D01*
X74245000Y-160203000D01*
X73945000Y-160203000D01*
X73930297Y-160202278D01*
X73915736Y-160200118D01*
X73901457Y-160196541D01*
X73887597Y-160191582D01*
X73874290Y-160185288D01*
X73861664Y-160177720D01*
X73849841Y-160168952D01*
X73838934Y-160159066D01*
X73829048Y-160148159D01*
X73820280Y-160136336D01*
X73812712Y-160123710D01*
X73806418Y-160110403D01*
X73801459Y-160096543D01*
X73797882Y-160082264D01*
X73795722Y-160067703D01*
X73795000Y-160053000D01*
X73795000Y-158303000D01*
X73795722Y-158288297D01*
X73797882Y-158273736D01*
X73801459Y-158259457D01*
X73806418Y-158245597D01*
X73812712Y-158232290D01*
X73820280Y-158219664D01*
X73829048Y-158207841D01*
X73838934Y-158196934D01*
X73849841Y-158187048D01*
X73861664Y-158178280D01*
X73874290Y-158170712D01*
X73887597Y-158164418D01*
X73901457Y-158159459D01*
X73915736Y-158155882D01*
X73930297Y-158153722D01*
X73945000Y-158153000D01*
X74245000Y-158153000D01*
X74259703Y-158153722D01*
G37*
G04 #@! TD.AperFunction*
G04 #@! TA.AperFunction,SMDPad,CuDef*
G36*
X75529703Y-158153722D02*
G01*
X75544264Y-158155882D01*
X75558543Y-158159459D01*
X75572403Y-158164418D01*
X75585710Y-158170712D01*
X75598336Y-158178280D01*
X75610159Y-158187048D01*
X75621066Y-158196934D01*
X75630952Y-158207841D01*
X75639720Y-158219664D01*
X75647288Y-158232290D01*
X75653582Y-158245597D01*
X75658541Y-158259457D01*
X75662118Y-158273736D01*
X75664278Y-158288297D01*
X75665000Y-158303000D01*
X75665000Y-160053000D01*
X75664278Y-160067703D01*
X75662118Y-160082264D01*
X75658541Y-160096543D01*
X75653582Y-160110403D01*
X75647288Y-160123710D01*
X75639720Y-160136336D01*
X75630952Y-160148159D01*
X75621066Y-160159066D01*
X75610159Y-160168952D01*
X75598336Y-160177720D01*
X75585710Y-160185288D01*
X75572403Y-160191582D01*
X75558543Y-160196541D01*
X75544264Y-160200118D01*
X75529703Y-160202278D01*
X75515000Y-160203000D01*
X75215000Y-160203000D01*
X75200297Y-160202278D01*
X75185736Y-160200118D01*
X75171457Y-160196541D01*
X75157597Y-160191582D01*
X75144290Y-160185288D01*
X75131664Y-160177720D01*
X75119841Y-160168952D01*
X75108934Y-160159066D01*
X75099048Y-160148159D01*
X75090280Y-160136336D01*
X75082712Y-160123710D01*
X75076418Y-160110403D01*
X75071459Y-160096543D01*
X75067882Y-160082264D01*
X75065722Y-160067703D01*
X75065000Y-160053000D01*
X75065000Y-158303000D01*
X75065722Y-158288297D01*
X75067882Y-158273736D01*
X75071459Y-158259457D01*
X75076418Y-158245597D01*
X75082712Y-158232290D01*
X75090280Y-158219664D01*
X75099048Y-158207841D01*
X75108934Y-158196934D01*
X75119841Y-158187048D01*
X75131664Y-158178280D01*
X75144290Y-158170712D01*
X75157597Y-158164418D01*
X75171457Y-158159459D01*
X75185736Y-158155882D01*
X75200297Y-158153722D01*
X75215000Y-158153000D01*
X75515000Y-158153000D01*
X75529703Y-158153722D01*
G37*
G04 #@! TD.AperFunction*
G04 #@! TA.AperFunction,SMDPad,CuDef*
G36*
X76799703Y-158153722D02*
G01*
X76814264Y-158155882D01*
X76828543Y-158159459D01*
X76842403Y-158164418D01*
X76855710Y-158170712D01*
X76868336Y-158178280D01*
X76880159Y-158187048D01*
X76891066Y-158196934D01*
X76900952Y-158207841D01*
X76909720Y-158219664D01*
X76917288Y-158232290D01*
X76923582Y-158245597D01*
X76928541Y-158259457D01*
X76932118Y-158273736D01*
X76934278Y-158288297D01*
X76935000Y-158303000D01*
X76935000Y-160053000D01*
X76934278Y-160067703D01*
X76932118Y-160082264D01*
X76928541Y-160096543D01*
X76923582Y-160110403D01*
X76917288Y-160123710D01*
X76909720Y-160136336D01*
X76900952Y-160148159D01*
X76891066Y-160159066D01*
X76880159Y-160168952D01*
X76868336Y-160177720D01*
X76855710Y-160185288D01*
X76842403Y-160191582D01*
X76828543Y-160196541D01*
X76814264Y-160200118D01*
X76799703Y-160202278D01*
X76785000Y-160203000D01*
X76485000Y-160203000D01*
X76470297Y-160202278D01*
X76455736Y-160200118D01*
X76441457Y-160196541D01*
X76427597Y-160191582D01*
X76414290Y-160185288D01*
X76401664Y-160177720D01*
X76389841Y-160168952D01*
X76378934Y-160159066D01*
X76369048Y-160148159D01*
X76360280Y-160136336D01*
X76352712Y-160123710D01*
X76346418Y-160110403D01*
X76341459Y-160096543D01*
X76337882Y-160082264D01*
X76335722Y-160067703D01*
X76335000Y-160053000D01*
X76335000Y-158303000D01*
X76335722Y-158288297D01*
X76337882Y-158273736D01*
X76341459Y-158259457D01*
X76346418Y-158245597D01*
X76352712Y-158232290D01*
X76360280Y-158219664D01*
X76369048Y-158207841D01*
X76378934Y-158196934D01*
X76389841Y-158187048D01*
X76401664Y-158178280D01*
X76414290Y-158170712D01*
X76427597Y-158164418D01*
X76441457Y-158159459D01*
X76455736Y-158155882D01*
X76470297Y-158153722D01*
X76485000Y-158153000D01*
X76785000Y-158153000D01*
X76799703Y-158153722D01*
G37*
G04 #@! TD.AperFunction*
G04 #@! TA.AperFunction,SMDPad,CuDef*
G36*
X76799703Y-148853722D02*
G01*
X76814264Y-148855882D01*
X76828543Y-148859459D01*
X76842403Y-148864418D01*
X76855710Y-148870712D01*
X76868336Y-148878280D01*
X76880159Y-148887048D01*
X76891066Y-148896934D01*
X76900952Y-148907841D01*
X76909720Y-148919664D01*
X76917288Y-148932290D01*
X76923582Y-148945597D01*
X76928541Y-148959457D01*
X76932118Y-148973736D01*
X76934278Y-148988297D01*
X76935000Y-149003000D01*
X76935000Y-150753000D01*
X76934278Y-150767703D01*
X76932118Y-150782264D01*
X76928541Y-150796543D01*
X76923582Y-150810403D01*
X76917288Y-150823710D01*
X76909720Y-150836336D01*
X76900952Y-150848159D01*
X76891066Y-150859066D01*
X76880159Y-150868952D01*
X76868336Y-150877720D01*
X76855710Y-150885288D01*
X76842403Y-150891582D01*
X76828543Y-150896541D01*
X76814264Y-150900118D01*
X76799703Y-150902278D01*
X76785000Y-150903000D01*
X76485000Y-150903000D01*
X76470297Y-150902278D01*
X76455736Y-150900118D01*
X76441457Y-150896541D01*
X76427597Y-150891582D01*
X76414290Y-150885288D01*
X76401664Y-150877720D01*
X76389841Y-150868952D01*
X76378934Y-150859066D01*
X76369048Y-150848159D01*
X76360280Y-150836336D01*
X76352712Y-150823710D01*
X76346418Y-150810403D01*
X76341459Y-150796543D01*
X76337882Y-150782264D01*
X76335722Y-150767703D01*
X76335000Y-150753000D01*
X76335000Y-149003000D01*
X76335722Y-148988297D01*
X76337882Y-148973736D01*
X76341459Y-148959457D01*
X76346418Y-148945597D01*
X76352712Y-148932290D01*
X76360280Y-148919664D01*
X76369048Y-148907841D01*
X76378934Y-148896934D01*
X76389841Y-148887048D01*
X76401664Y-148878280D01*
X76414290Y-148870712D01*
X76427597Y-148864418D01*
X76441457Y-148859459D01*
X76455736Y-148855882D01*
X76470297Y-148853722D01*
X76485000Y-148853000D01*
X76785000Y-148853000D01*
X76799703Y-148853722D01*
G37*
G04 #@! TD.AperFunction*
G04 #@! TA.AperFunction,SMDPad,CuDef*
G36*
X75529703Y-148853722D02*
G01*
X75544264Y-148855882D01*
X75558543Y-148859459D01*
X75572403Y-148864418D01*
X75585710Y-148870712D01*
X75598336Y-148878280D01*
X75610159Y-148887048D01*
X75621066Y-148896934D01*
X75630952Y-148907841D01*
X75639720Y-148919664D01*
X75647288Y-148932290D01*
X75653582Y-148945597D01*
X75658541Y-148959457D01*
X75662118Y-148973736D01*
X75664278Y-148988297D01*
X75665000Y-149003000D01*
X75665000Y-150753000D01*
X75664278Y-150767703D01*
X75662118Y-150782264D01*
X75658541Y-150796543D01*
X75653582Y-150810403D01*
X75647288Y-150823710D01*
X75639720Y-150836336D01*
X75630952Y-150848159D01*
X75621066Y-150859066D01*
X75610159Y-150868952D01*
X75598336Y-150877720D01*
X75585710Y-150885288D01*
X75572403Y-150891582D01*
X75558543Y-150896541D01*
X75544264Y-150900118D01*
X75529703Y-150902278D01*
X75515000Y-150903000D01*
X75215000Y-150903000D01*
X75200297Y-150902278D01*
X75185736Y-150900118D01*
X75171457Y-150896541D01*
X75157597Y-150891582D01*
X75144290Y-150885288D01*
X75131664Y-150877720D01*
X75119841Y-150868952D01*
X75108934Y-150859066D01*
X75099048Y-150848159D01*
X75090280Y-150836336D01*
X75082712Y-150823710D01*
X75076418Y-150810403D01*
X75071459Y-150796543D01*
X75067882Y-150782264D01*
X75065722Y-150767703D01*
X75065000Y-150753000D01*
X75065000Y-149003000D01*
X75065722Y-148988297D01*
X75067882Y-148973736D01*
X75071459Y-148959457D01*
X75076418Y-148945597D01*
X75082712Y-148932290D01*
X75090280Y-148919664D01*
X75099048Y-148907841D01*
X75108934Y-148896934D01*
X75119841Y-148887048D01*
X75131664Y-148878280D01*
X75144290Y-148870712D01*
X75157597Y-148864418D01*
X75171457Y-148859459D01*
X75185736Y-148855882D01*
X75200297Y-148853722D01*
X75215000Y-148853000D01*
X75515000Y-148853000D01*
X75529703Y-148853722D01*
G37*
G04 #@! TD.AperFunction*
G04 #@! TA.AperFunction,SMDPad,CuDef*
G36*
X74259703Y-148853722D02*
G01*
X74274264Y-148855882D01*
X74288543Y-148859459D01*
X74302403Y-148864418D01*
X74315710Y-148870712D01*
X74328336Y-148878280D01*
X74340159Y-148887048D01*
X74351066Y-148896934D01*
X74360952Y-148907841D01*
X74369720Y-148919664D01*
X74377288Y-148932290D01*
X74383582Y-148945597D01*
X74388541Y-148959457D01*
X74392118Y-148973736D01*
X74394278Y-148988297D01*
X74395000Y-149003000D01*
X74395000Y-150753000D01*
X74394278Y-150767703D01*
X74392118Y-150782264D01*
X74388541Y-150796543D01*
X74383582Y-150810403D01*
X74377288Y-150823710D01*
X74369720Y-150836336D01*
X74360952Y-150848159D01*
X74351066Y-150859066D01*
X74340159Y-150868952D01*
X74328336Y-150877720D01*
X74315710Y-150885288D01*
X74302403Y-150891582D01*
X74288543Y-150896541D01*
X74274264Y-150900118D01*
X74259703Y-150902278D01*
X74245000Y-150903000D01*
X73945000Y-150903000D01*
X73930297Y-150902278D01*
X73915736Y-150900118D01*
X73901457Y-150896541D01*
X73887597Y-150891582D01*
X73874290Y-150885288D01*
X73861664Y-150877720D01*
X73849841Y-150868952D01*
X73838934Y-150859066D01*
X73829048Y-150848159D01*
X73820280Y-150836336D01*
X73812712Y-150823710D01*
X73806418Y-150810403D01*
X73801459Y-150796543D01*
X73797882Y-150782264D01*
X73795722Y-150767703D01*
X73795000Y-150753000D01*
X73795000Y-149003000D01*
X73795722Y-148988297D01*
X73797882Y-148973736D01*
X73801459Y-148959457D01*
X73806418Y-148945597D01*
X73812712Y-148932290D01*
X73820280Y-148919664D01*
X73829048Y-148907841D01*
X73838934Y-148896934D01*
X73849841Y-148887048D01*
X73861664Y-148878280D01*
X73874290Y-148870712D01*
X73887597Y-148864418D01*
X73901457Y-148859459D01*
X73915736Y-148855882D01*
X73930297Y-148853722D01*
X73945000Y-148853000D01*
X74245000Y-148853000D01*
X74259703Y-148853722D01*
G37*
G04 #@! TD.AperFunction*
G04 #@! TA.AperFunction,SMDPad,CuDef*
G36*
X72989703Y-148853722D02*
G01*
X73004264Y-148855882D01*
X73018543Y-148859459D01*
X73032403Y-148864418D01*
X73045710Y-148870712D01*
X73058336Y-148878280D01*
X73070159Y-148887048D01*
X73081066Y-148896934D01*
X73090952Y-148907841D01*
X73099720Y-148919664D01*
X73107288Y-148932290D01*
X73113582Y-148945597D01*
X73118541Y-148959457D01*
X73122118Y-148973736D01*
X73124278Y-148988297D01*
X73125000Y-149003000D01*
X73125000Y-150753000D01*
X73124278Y-150767703D01*
X73122118Y-150782264D01*
X73118541Y-150796543D01*
X73113582Y-150810403D01*
X73107288Y-150823710D01*
X73099720Y-150836336D01*
X73090952Y-150848159D01*
X73081066Y-150859066D01*
X73070159Y-150868952D01*
X73058336Y-150877720D01*
X73045710Y-150885288D01*
X73032403Y-150891582D01*
X73018543Y-150896541D01*
X73004264Y-150900118D01*
X72989703Y-150902278D01*
X72975000Y-150903000D01*
X72675000Y-150903000D01*
X72660297Y-150902278D01*
X72645736Y-150900118D01*
X72631457Y-150896541D01*
X72617597Y-150891582D01*
X72604290Y-150885288D01*
X72591664Y-150877720D01*
X72579841Y-150868952D01*
X72568934Y-150859066D01*
X72559048Y-150848159D01*
X72550280Y-150836336D01*
X72542712Y-150823710D01*
X72536418Y-150810403D01*
X72531459Y-150796543D01*
X72527882Y-150782264D01*
X72525722Y-150767703D01*
X72525000Y-150753000D01*
X72525000Y-149003000D01*
X72525722Y-148988297D01*
X72527882Y-148973736D01*
X72531459Y-148959457D01*
X72536418Y-148945597D01*
X72542712Y-148932290D01*
X72550280Y-148919664D01*
X72559048Y-148907841D01*
X72568934Y-148896934D01*
X72579841Y-148887048D01*
X72591664Y-148878280D01*
X72604290Y-148870712D01*
X72617597Y-148864418D01*
X72631457Y-148859459D01*
X72645736Y-148855882D01*
X72660297Y-148853722D01*
X72675000Y-148853000D01*
X72975000Y-148853000D01*
X72989703Y-148853722D01*
G37*
G04 #@! TD.AperFunction*
G04 #@! TA.AperFunction,SMDPad,CuDef*
G36*
X71719703Y-148853722D02*
G01*
X71734264Y-148855882D01*
X71748543Y-148859459D01*
X71762403Y-148864418D01*
X71775710Y-148870712D01*
X71788336Y-148878280D01*
X71800159Y-148887048D01*
X71811066Y-148896934D01*
X71820952Y-148907841D01*
X71829720Y-148919664D01*
X71837288Y-148932290D01*
X71843582Y-148945597D01*
X71848541Y-148959457D01*
X71852118Y-148973736D01*
X71854278Y-148988297D01*
X71855000Y-149003000D01*
X71855000Y-150753000D01*
X71854278Y-150767703D01*
X71852118Y-150782264D01*
X71848541Y-150796543D01*
X71843582Y-150810403D01*
X71837288Y-150823710D01*
X71829720Y-150836336D01*
X71820952Y-150848159D01*
X71811066Y-150859066D01*
X71800159Y-150868952D01*
X71788336Y-150877720D01*
X71775710Y-150885288D01*
X71762403Y-150891582D01*
X71748543Y-150896541D01*
X71734264Y-150900118D01*
X71719703Y-150902278D01*
X71705000Y-150903000D01*
X71405000Y-150903000D01*
X71390297Y-150902278D01*
X71375736Y-150900118D01*
X71361457Y-150896541D01*
X71347597Y-150891582D01*
X71334290Y-150885288D01*
X71321664Y-150877720D01*
X71309841Y-150868952D01*
X71298934Y-150859066D01*
X71289048Y-150848159D01*
X71280280Y-150836336D01*
X71272712Y-150823710D01*
X71266418Y-150810403D01*
X71261459Y-150796543D01*
X71257882Y-150782264D01*
X71255722Y-150767703D01*
X71255000Y-150753000D01*
X71255000Y-149003000D01*
X71255722Y-148988297D01*
X71257882Y-148973736D01*
X71261459Y-148959457D01*
X71266418Y-148945597D01*
X71272712Y-148932290D01*
X71280280Y-148919664D01*
X71289048Y-148907841D01*
X71298934Y-148896934D01*
X71309841Y-148887048D01*
X71321664Y-148878280D01*
X71334290Y-148870712D01*
X71347597Y-148864418D01*
X71361457Y-148859459D01*
X71375736Y-148855882D01*
X71390297Y-148853722D01*
X71405000Y-148853000D01*
X71705000Y-148853000D01*
X71719703Y-148853722D01*
G37*
G04 #@! TD.AperFunction*
G04 #@! TA.AperFunction,SMDPad,CuDef*
G36*
X70449703Y-148853722D02*
G01*
X70464264Y-148855882D01*
X70478543Y-148859459D01*
X70492403Y-148864418D01*
X70505710Y-148870712D01*
X70518336Y-148878280D01*
X70530159Y-148887048D01*
X70541066Y-148896934D01*
X70550952Y-148907841D01*
X70559720Y-148919664D01*
X70567288Y-148932290D01*
X70573582Y-148945597D01*
X70578541Y-148959457D01*
X70582118Y-148973736D01*
X70584278Y-148988297D01*
X70585000Y-149003000D01*
X70585000Y-150753000D01*
X70584278Y-150767703D01*
X70582118Y-150782264D01*
X70578541Y-150796543D01*
X70573582Y-150810403D01*
X70567288Y-150823710D01*
X70559720Y-150836336D01*
X70550952Y-150848159D01*
X70541066Y-150859066D01*
X70530159Y-150868952D01*
X70518336Y-150877720D01*
X70505710Y-150885288D01*
X70492403Y-150891582D01*
X70478543Y-150896541D01*
X70464264Y-150900118D01*
X70449703Y-150902278D01*
X70435000Y-150903000D01*
X70135000Y-150903000D01*
X70120297Y-150902278D01*
X70105736Y-150900118D01*
X70091457Y-150896541D01*
X70077597Y-150891582D01*
X70064290Y-150885288D01*
X70051664Y-150877720D01*
X70039841Y-150868952D01*
X70028934Y-150859066D01*
X70019048Y-150848159D01*
X70010280Y-150836336D01*
X70002712Y-150823710D01*
X69996418Y-150810403D01*
X69991459Y-150796543D01*
X69987882Y-150782264D01*
X69985722Y-150767703D01*
X69985000Y-150753000D01*
X69985000Y-149003000D01*
X69985722Y-148988297D01*
X69987882Y-148973736D01*
X69991459Y-148959457D01*
X69996418Y-148945597D01*
X70002712Y-148932290D01*
X70010280Y-148919664D01*
X70019048Y-148907841D01*
X70028934Y-148896934D01*
X70039841Y-148887048D01*
X70051664Y-148878280D01*
X70064290Y-148870712D01*
X70077597Y-148864418D01*
X70091457Y-148859459D01*
X70105736Y-148855882D01*
X70120297Y-148853722D01*
X70135000Y-148853000D01*
X70435000Y-148853000D01*
X70449703Y-148853722D01*
G37*
G04 #@! TD.AperFunction*
G04 #@! TA.AperFunction,SMDPad,CuDef*
G36*
X69179703Y-148853722D02*
G01*
X69194264Y-148855882D01*
X69208543Y-148859459D01*
X69222403Y-148864418D01*
X69235710Y-148870712D01*
X69248336Y-148878280D01*
X69260159Y-148887048D01*
X69271066Y-148896934D01*
X69280952Y-148907841D01*
X69289720Y-148919664D01*
X69297288Y-148932290D01*
X69303582Y-148945597D01*
X69308541Y-148959457D01*
X69312118Y-148973736D01*
X69314278Y-148988297D01*
X69315000Y-149003000D01*
X69315000Y-150753000D01*
X69314278Y-150767703D01*
X69312118Y-150782264D01*
X69308541Y-150796543D01*
X69303582Y-150810403D01*
X69297288Y-150823710D01*
X69289720Y-150836336D01*
X69280952Y-150848159D01*
X69271066Y-150859066D01*
X69260159Y-150868952D01*
X69248336Y-150877720D01*
X69235710Y-150885288D01*
X69222403Y-150891582D01*
X69208543Y-150896541D01*
X69194264Y-150900118D01*
X69179703Y-150902278D01*
X69165000Y-150903000D01*
X68865000Y-150903000D01*
X68850297Y-150902278D01*
X68835736Y-150900118D01*
X68821457Y-150896541D01*
X68807597Y-150891582D01*
X68794290Y-150885288D01*
X68781664Y-150877720D01*
X68769841Y-150868952D01*
X68758934Y-150859066D01*
X68749048Y-150848159D01*
X68740280Y-150836336D01*
X68732712Y-150823710D01*
X68726418Y-150810403D01*
X68721459Y-150796543D01*
X68717882Y-150782264D01*
X68715722Y-150767703D01*
X68715000Y-150753000D01*
X68715000Y-149003000D01*
X68715722Y-148988297D01*
X68717882Y-148973736D01*
X68721459Y-148959457D01*
X68726418Y-148945597D01*
X68732712Y-148932290D01*
X68740280Y-148919664D01*
X68749048Y-148907841D01*
X68758934Y-148896934D01*
X68769841Y-148887048D01*
X68781664Y-148878280D01*
X68794290Y-148870712D01*
X68807597Y-148864418D01*
X68821457Y-148859459D01*
X68835736Y-148855882D01*
X68850297Y-148853722D01*
X68865000Y-148853000D01*
X69165000Y-148853000D01*
X69179703Y-148853722D01*
G37*
G04 #@! TD.AperFunction*
G04 #@! TA.AperFunction,SMDPad,CuDef*
G36*
X67909703Y-148853722D02*
G01*
X67924264Y-148855882D01*
X67938543Y-148859459D01*
X67952403Y-148864418D01*
X67965710Y-148870712D01*
X67978336Y-148878280D01*
X67990159Y-148887048D01*
X68001066Y-148896934D01*
X68010952Y-148907841D01*
X68019720Y-148919664D01*
X68027288Y-148932290D01*
X68033582Y-148945597D01*
X68038541Y-148959457D01*
X68042118Y-148973736D01*
X68044278Y-148988297D01*
X68045000Y-149003000D01*
X68045000Y-150753000D01*
X68044278Y-150767703D01*
X68042118Y-150782264D01*
X68038541Y-150796543D01*
X68033582Y-150810403D01*
X68027288Y-150823710D01*
X68019720Y-150836336D01*
X68010952Y-150848159D01*
X68001066Y-150859066D01*
X67990159Y-150868952D01*
X67978336Y-150877720D01*
X67965710Y-150885288D01*
X67952403Y-150891582D01*
X67938543Y-150896541D01*
X67924264Y-150900118D01*
X67909703Y-150902278D01*
X67895000Y-150903000D01*
X67595000Y-150903000D01*
X67580297Y-150902278D01*
X67565736Y-150900118D01*
X67551457Y-150896541D01*
X67537597Y-150891582D01*
X67524290Y-150885288D01*
X67511664Y-150877720D01*
X67499841Y-150868952D01*
X67488934Y-150859066D01*
X67479048Y-150848159D01*
X67470280Y-150836336D01*
X67462712Y-150823710D01*
X67456418Y-150810403D01*
X67451459Y-150796543D01*
X67447882Y-150782264D01*
X67445722Y-150767703D01*
X67445000Y-150753000D01*
X67445000Y-149003000D01*
X67445722Y-148988297D01*
X67447882Y-148973736D01*
X67451459Y-148959457D01*
X67456418Y-148945597D01*
X67462712Y-148932290D01*
X67470280Y-148919664D01*
X67479048Y-148907841D01*
X67488934Y-148896934D01*
X67499841Y-148887048D01*
X67511664Y-148878280D01*
X67524290Y-148870712D01*
X67537597Y-148864418D01*
X67551457Y-148859459D01*
X67565736Y-148855882D01*
X67580297Y-148853722D01*
X67595000Y-148853000D01*
X67895000Y-148853000D01*
X67909703Y-148853722D01*
G37*
G04 #@! TD.AperFunction*
D19*
X97790000Y-128140000D03*
X97790000Y-123190000D03*
X87668100Y-127936800D03*
X87668100Y-122986800D03*
X80010000Y-122999500D03*
X80010000Y-127949500D03*
G04 #@! TA.AperFunction,SMDPad,CuDef*
D12*
G36*
X98849505Y-145101204D02*
G01*
X98873773Y-145104804D01*
X98897572Y-145110765D01*
X98920671Y-145119030D01*
X98942850Y-145129520D01*
X98963893Y-145142132D01*
X98983599Y-145156747D01*
X99001777Y-145173223D01*
X99018253Y-145191401D01*
X99032868Y-145211107D01*
X99045480Y-145232150D01*
X99055970Y-145254329D01*
X99064235Y-145277428D01*
X99070196Y-145301227D01*
X99073796Y-145325495D01*
X99075000Y-145349999D01*
X99075000Y-146250001D01*
X99073796Y-146274505D01*
X99070196Y-146298773D01*
X99064235Y-146322572D01*
X99055970Y-146345671D01*
X99045480Y-146367850D01*
X99032868Y-146388893D01*
X99018253Y-146408599D01*
X99001777Y-146426777D01*
X98983599Y-146443253D01*
X98963893Y-146457868D01*
X98942850Y-146470480D01*
X98920671Y-146480970D01*
X98897572Y-146489235D01*
X98873773Y-146495196D01*
X98849505Y-146498796D01*
X98825001Y-146500000D01*
X98174999Y-146500000D01*
X98150495Y-146498796D01*
X98126227Y-146495196D01*
X98102428Y-146489235D01*
X98079329Y-146480970D01*
X98057150Y-146470480D01*
X98036107Y-146457868D01*
X98016401Y-146443253D01*
X97998223Y-146426777D01*
X97981747Y-146408599D01*
X97967132Y-146388893D01*
X97954520Y-146367850D01*
X97944030Y-146345671D01*
X97935765Y-146322572D01*
X97929804Y-146298773D01*
X97926204Y-146274505D01*
X97925000Y-146250001D01*
X97925000Y-145349999D01*
X97926204Y-145325495D01*
X97929804Y-145301227D01*
X97935765Y-145277428D01*
X97944030Y-145254329D01*
X97954520Y-145232150D01*
X97967132Y-145211107D01*
X97981747Y-145191401D01*
X97998223Y-145173223D01*
X98016401Y-145156747D01*
X98036107Y-145142132D01*
X98057150Y-145129520D01*
X98079329Y-145119030D01*
X98102428Y-145110765D01*
X98126227Y-145104804D01*
X98150495Y-145101204D01*
X98174999Y-145100000D01*
X98825001Y-145100000D01*
X98849505Y-145101204D01*
G37*
G04 #@! TD.AperFunction*
G04 #@! TA.AperFunction,SMDPad,CuDef*
G36*
X96799505Y-145101204D02*
G01*
X96823773Y-145104804D01*
X96847572Y-145110765D01*
X96870671Y-145119030D01*
X96892850Y-145129520D01*
X96913893Y-145142132D01*
X96933599Y-145156747D01*
X96951777Y-145173223D01*
X96968253Y-145191401D01*
X96982868Y-145211107D01*
X96995480Y-145232150D01*
X97005970Y-145254329D01*
X97014235Y-145277428D01*
X97020196Y-145301227D01*
X97023796Y-145325495D01*
X97025000Y-145349999D01*
X97025000Y-146250001D01*
X97023796Y-146274505D01*
X97020196Y-146298773D01*
X97014235Y-146322572D01*
X97005970Y-146345671D01*
X96995480Y-146367850D01*
X96982868Y-146388893D01*
X96968253Y-146408599D01*
X96951777Y-146426777D01*
X96933599Y-146443253D01*
X96913893Y-146457868D01*
X96892850Y-146470480D01*
X96870671Y-146480970D01*
X96847572Y-146489235D01*
X96823773Y-146495196D01*
X96799505Y-146498796D01*
X96775001Y-146500000D01*
X96124999Y-146500000D01*
X96100495Y-146498796D01*
X96076227Y-146495196D01*
X96052428Y-146489235D01*
X96029329Y-146480970D01*
X96007150Y-146470480D01*
X95986107Y-146457868D01*
X95966401Y-146443253D01*
X95948223Y-146426777D01*
X95931747Y-146408599D01*
X95917132Y-146388893D01*
X95904520Y-146367850D01*
X95894030Y-146345671D01*
X95885765Y-146322572D01*
X95879804Y-146298773D01*
X95876204Y-146274505D01*
X95875000Y-146250001D01*
X95875000Y-145349999D01*
X95876204Y-145325495D01*
X95879804Y-145301227D01*
X95885765Y-145277428D01*
X95894030Y-145254329D01*
X95904520Y-145232150D01*
X95917132Y-145211107D01*
X95931747Y-145191401D01*
X95948223Y-145173223D01*
X95966401Y-145156747D01*
X95986107Y-145142132D01*
X96007150Y-145129520D01*
X96029329Y-145119030D01*
X96052428Y-145110765D01*
X96076227Y-145104804D01*
X96100495Y-145101204D01*
X96124999Y-145100000D01*
X96775001Y-145100000D01*
X96799505Y-145101204D01*
G37*
G04 #@! TD.AperFunction*
G04 #@! TA.AperFunction,SMDPad,CuDef*
G36*
X88467703Y-139968722D02*
G01*
X88482264Y-139970882D01*
X88496543Y-139974459D01*
X88510403Y-139979418D01*
X88523710Y-139985712D01*
X88536336Y-139993280D01*
X88548159Y-140002048D01*
X88559066Y-140011934D01*
X88568952Y-140022841D01*
X88577720Y-140034664D01*
X88585288Y-140047290D01*
X88591582Y-140060597D01*
X88596541Y-140074457D01*
X88600118Y-140088736D01*
X88602278Y-140103297D01*
X88603000Y-140118000D01*
X88603000Y-141868000D01*
X88602278Y-141882703D01*
X88600118Y-141897264D01*
X88596541Y-141911543D01*
X88591582Y-141925403D01*
X88585288Y-141938710D01*
X88577720Y-141951336D01*
X88568952Y-141963159D01*
X88559066Y-141974066D01*
X88548159Y-141983952D01*
X88536336Y-141992720D01*
X88523710Y-142000288D01*
X88510403Y-142006582D01*
X88496543Y-142011541D01*
X88482264Y-142015118D01*
X88467703Y-142017278D01*
X88453000Y-142018000D01*
X88153000Y-142018000D01*
X88138297Y-142017278D01*
X88123736Y-142015118D01*
X88109457Y-142011541D01*
X88095597Y-142006582D01*
X88082290Y-142000288D01*
X88069664Y-141992720D01*
X88057841Y-141983952D01*
X88046934Y-141974066D01*
X88037048Y-141963159D01*
X88028280Y-141951336D01*
X88020712Y-141938710D01*
X88014418Y-141925403D01*
X88009459Y-141911543D01*
X88005882Y-141897264D01*
X88003722Y-141882703D01*
X88003000Y-141868000D01*
X88003000Y-140118000D01*
X88003722Y-140103297D01*
X88005882Y-140088736D01*
X88009459Y-140074457D01*
X88014418Y-140060597D01*
X88020712Y-140047290D01*
X88028280Y-140034664D01*
X88037048Y-140022841D01*
X88046934Y-140011934D01*
X88057841Y-140002048D01*
X88069664Y-139993280D01*
X88082290Y-139985712D01*
X88095597Y-139979418D01*
X88109457Y-139974459D01*
X88123736Y-139970882D01*
X88138297Y-139968722D01*
X88153000Y-139968000D01*
X88453000Y-139968000D01*
X88467703Y-139968722D01*
G37*
G04 #@! TD.AperFunction*
G04 #@! TA.AperFunction,SMDPad,CuDef*
G36*
X87197703Y-139968722D02*
G01*
X87212264Y-139970882D01*
X87226543Y-139974459D01*
X87240403Y-139979418D01*
X87253710Y-139985712D01*
X87266336Y-139993280D01*
X87278159Y-140002048D01*
X87289066Y-140011934D01*
X87298952Y-140022841D01*
X87307720Y-140034664D01*
X87315288Y-140047290D01*
X87321582Y-140060597D01*
X87326541Y-140074457D01*
X87330118Y-140088736D01*
X87332278Y-140103297D01*
X87333000Y-140118000D01*
X87333000Y-141868000D01*
X87332278Y-141882703D01*
X87330118Y-141897264D01*
X87326541Y-141911543D01*
X87321582Y-141925403D01*
X87315288Y-141938710D01*
X87307720Y-141951336D01*
X87298952Y-141963159D01*
X87289066Y-141974066D01*
X87278159Y-141983952D01*
X87266336Y-141992720D01*
X87253710Y-142000288D01*
X87240403Y-142006582D01*
X87226543Y-142011541D01*
X87212264Y-142015118D01*
X87197703Y-142017278D01*
X87183000Y-142018000D01*
X86883000Y-142018000D01*
X86868297Y-142017278D01*
X86853736Y-142015118D01*
X86839457Y-142011541D01*
X86825597Y-142006582D01*
X86812290Y-142000288D01*
X86799664Y-141992720D01*
X86787841Y-141983952D01*
X86776934Y-141974066D01*
X86767048Y-141963159D01*
X86758280Y-141951336D01*
X86750712Y-141938710D01*
X86744418Y-141925403D01*
X86739459Y-141911543D01*
X86735882Y-141897264D01*
X86733722Y-141882703D01*
X86733000Y-141868000D01*
X86733000Y-140118000D01*
X86733722Y-140103297D01*
X86735882Y-140088736D01*
X86739459Y-140074457D01*
X86744418Y-140060597D01*
X86750712Y-140047290D01*
X86758280Y-140034664D01*
X86767048Y-140022841D01*
X86776934Y-140011934D01*
X86787841Y-140002048D01*
X86799664Y-139993280D01*
X86812290Y-139985712D01*
X86825597Y-139979418D01*
X86839457Y-139974459D01*
X86853736Y-139970882D01*
X86868297Y-139968722D01*
X86883000Y-139968000D01*
X87183000Y-139968000D01*
X87197703Y-139968722D01*
G37*
G04 #@! TD.AperFunction*
G04 #@! TA.AperFunction,SMDPad,CuDef*
G36*
X85927703Y-139968722D02*
G01*
X85942264Y-139970882D01*
X85956543Y-139974459D01*
X85970403Y-139979418D01*
X85983710Y-139985712D01*
X85996336Y-139993280D01*
X86008159Y-140002048D01*
X86019066Y-140011934D01*
X86028952Y-140022841D01*
X86037720Y-140034664D01*
X86045288Y-140047290D01*
X86051582Y-140060597D01*
X86056541Y-140074457D01*
X86060118Y-140088736D01*
X86062278Y-140103297D01*
X86063000Y-140118000D01*
X86063000Y-141868000D01*
X86062278Y-141882703D01*
X86060118Y-141897264D01*
X86056541Y-141911543D01*
X86051582Y-141925403D01*
X86045288Y-141938710D01*
X86037720Y-141951336D01*
X86028952Y-141963159D01*
X86019066Y-141974066D01*
X86008159Y-141983952D01*
X85996336Y-141992720D01*
X85983710Y-142000288D01*
X85970403Y-142006582D01*
X85956543Y-142011541D01*
X85942264Y-142015118D01*
X85927703Y-142017278D01*
X85913000Y-142018000D01*
X85613000Y-142018000D01*
X85598297Y-142017278D01*
X85583736Y-142015118D01*
X85569457Y-142011541D01*
X85555597Y-142006582D01*
X85542290Y-142000288D01*
X85529664Y-141992720D01*
X85517841Y-141983952D01*
X85506934Y-141974066D01*
X85497048Y-141963159D01*
X85488280Y-141951336D01*
X85480712Y-141938710D01*
X85474418Y-141925403D01*
X85469459Y-141911543D01*
X85465882Y-141897264D01*
X85463722Y-141882703D01*
X85463000Y-141868000D01*
X85463000Y-140118000D01*
X85463722Y-140103297D01*
X85465882Y-140088736D01*
X85469459Y-140074457D01*
X85474418Y-140060597D01*
X85480712Y-140047290D01*
X85488280Y-140034664D01*
X85497048Y-140022841D01*
X85506934Y-140011934D01*
X85517841Y-140002048D01*
X85529664Y-139993280D01*
X85542290Y-139985712D01*
X85555597Y-139979418D01*
X85569457Y-139974459D01*
X85583736Y-139970882D01*
X85598297Y-139968722D01*
X85613000Y-139968000D01*
X85913000Y-139968000D01*
X85927703Y-139968722D01*
G37*
G04 #@! TD.AperFunction*
G04 #@! TA.AperFunction,SMDPad,CuDef*
G36*
X84657703Y-139968722D02*
G01*
X84672264Y-139970882D01*
X84686543Y-139974459D01*
X84700403Y-139979418D01*
X84713710Y-139985712D01*
X84726336Y-139993280D01*
X84738159Y-140002048D01*
X84749066Y-140011934D01*
X84758952Y-140022841D01*
X84767720Y-140034664D01*
X84775288Y-140047290D01*
X84781582Y-140060597D01*
X84786541Y-140074457D01*
X84790118Y-140088736D01*
X84792278Y-140103297D01*
X84793000Y-140118000D01*
X84793000Y-141868000D01*
X84792278Y-141882703D01*
X84790118Y-141897264D01*
X84786541Y-141911543D01*
X84781582Y-141925403D01*
X84775288Y-141938710D01*
X84767720Y-141951336D01*
X84758952Y-141963159D01*
X84749066Y-141974066D01*
X84738159Y-141983952D01*
X84726336Y-141992720D01*
X84713710Y-142000288D01*
X84700403Y-142006582D01*
X84686543Y-142011541D01*
X84672264Y-142015118D01*
X84657703Y-142017278D01*
X84643000Y-142018000D01*
X84343000Y-142018000D01*
X84328297Y-142017278D01*
X84313736Y-142015118D01*
X84299457Y-142011541D01*
X84285597Y-142006582D01*
X84272290Y-142000288D01*
X84259664Y-141992720D01*
X84247841Y-141983952D01*
X84236934Y-141974066D01*
X84227048Y-141963159D01*
X84218280Y-141951336D01*
X84210712Y-141938710D01*
X84204418Y-141925403D01*
X84199459Y-141911543D01*
X84195882Y-141897264D01*
X84193722Y-141882703D01*
X84193000Y-141868000D01*
X84193000Y-140118000D01*
X84193722Y-140103297D01*
X84195882Y-140088736D01*
X84199459Y-140074457D01*
X84204418Y-140060597D01*
X84210712Y-140047290D01*
X84218280Y-140034664D01*
X84227048Y-140022841D01*
X84236934Y-140011934D01*
X84247841Y-140002048D01*
X84259664Y-139993280D01*
X84272290Y-139985712D01*
X84285597Y-139979418D01*
X84299457Y-139974459D01*
X84313736Y-139970882D01*
X84328297Y-139968722D01*
X84343000Y-139968000D01*
X84643000Y-139968000D01*
X84657703Y-139968722D01*
G37*
G04 #@! TD.AperFunction*
G04 #@! TA.AperFunction,SMDPad,CuDef*
G36*
X83387703Y-139968722D02*
G01*
X83402264Y-139970882D01*
X83416543Y-139974459D01*
X83430403Y-139979418D01*
X83443710Y-139985712D01*
X83456336Y-139993280D01*
X83468159Y-140002048D01*
X83479066Y-140011934D01*
X83488952Y-140022841D01*
X83497720Y-140034664D01*
X83505288Y-140047290D01*
X83511582Y-140060597D01*
X83516541Y-140074457D01*
X83520118Y-140088736D01*
X83522278Y-140103297D01*
X83523000Y-140118000D01*
X83523000Y-141868000D01*
X83522278Y-141882703D01*
X83520118Y-141897264D01*
X83516541Y-141911543D01*
X83511582Y-141925403D01*
X83505288Y-141938710D01*
X83497720Y-141951336D01*
X83488952Y-141963159D01*
X83479066Y-141974066D01*
X83468159Y-141983952D01*
X83456336Y-141992720D01*
X83443710Y-142000288D01*
X83430403Y-142006582D01*
X83416543Y-142011541D01*
X83402264Y-142015118D01*
X83387703Y-142017278D01*
X83373000Y-142018000D01*
X83073000Y-142018000D01*
X83058297Y-142017278D01*
X83043736Y-142015118D01*
X83029457Y-142011541D01*
X83015597Y-142006582D01*
X83002290Y-142000288D01*
X82989664Y-141992720D01*
X82977841Y-141983952D01*
X82966934Y-141974066D01*
X82957048Y-141963159D01*
X82948280Y-141951336D01*
X82940712Y-141938710D01*
X82934418Y-141925403D01*
X82929459Y-141911543D01*
X82925882Y-141897264D01*
X82923722Y-141882703D01*
X82923000Y-141868000D01*
X82923000Y-140118000D01*
X82923722Y-140103297D01*
X82925882Y-140088736D01*
X82929459Y-140074457D01*
X82934418Y-140060597D01*
X82940712Y-140047290D01*
X82948280Y-140034664D01*
X82957048Y-140022841D01*
X82966934Y-140011934D01*
X82977841Y-140002048D01*
X82989664Y-139993280D01*
X83002290Y-139985712D01*
X83015597Y-139979418D01*
X83029457Y-139974459D01*
X83043736Y-139970882D01*
X83058297Y-139968722D01*
X83073000Y-139968000D01*
X83373000Y-139968000D01*
X83387703Y-139968722D01*
G37*
G04 #@! TD.AperFunction*
G04 #@! TA.AperFunction,SMDPad,CuDef*
G36*
X82117703Y-139968722D02*
G01*
X82132264Y-139970882D01*
X82146543Y-139974459D01*
X82160403Y-139979418D01*
X82173710Y-139985712D01*
X82186336Y-139993280D01*
X82198159Y-140002048D01*
X82209066Y-140011934D01*
X82218952Y-140022841D01*
X82227720Y-140034664D01*
X82235288Y-140047290D01*
X82241582Y-140060597D01*
X82246541Y-140074457D01*
X82250118Y-140088736D01*
X82252278Y-140103297D01*
X82253000Y-140118000D01*
X82253000Y-141868000D01*
X82252278Y-141882703D01*
X82250118Y-141897264D01*
X82246541Y-141911543D01*
X82241582Y-141925403D01*
X82235288Y-141938710D01*
X82227720Y-141951336D01*
X82218952Y-141963159D01*
X82209066Y-141974066D01*
X82198159Y-141983952D01*
X82186336Y-141992720D01*
X82173710Y-142000288D01*
X82160403Y-142006582D01*
X82146543Y-142011541D01*
X82132264Y-142015118D01*
X82117703Y-142017278D01*
X82103000Y-142018000D01*
X81803000Y-142018000D01*
X81788297Y-142017278D01*
X81773736Y-142015118D01*
X81759457Y-142011541D01*
X81745597Y-142006582D01*
X81732290Y-142000288D01*
X81719664Y-141992720D01*
X81707841Y-141983952D01*
X81696934Y-141974066D01*
X81687048Y-141963159D01*
X81678280Y-141951336D01*
X81670712Y-141938710D01*
X81664418Y-141925403D01*
X81659459Y-141911543D01*
X81655882Y-141897264D01*
X81653722Y-141882703D01*
X81653000Y-141868000D01*
X81653000Y-140118000D01*
X81653722Y-140103297D01*
X81655882Y-140088736D01*
X81659459Y-140074457D01*
X81664418Y-140060597D01*
X81670712Y-140047290D01*
X81678280Y-140034664D01*
X81687048Y-140022841D01*
X81696934Y-140011934D01*
X81707841Y-140002048D01*
X81719664Y-139993280D01*
X81732290Y-139985712D01*
X81745597Y-139979418D01*
X81759457Y-139974459D01*
X81773736Y-139970882D01*
X81788297Y-139968722D01*
X81803000Y-139968000D01*
X82103000Y-139968000D01*
X82117703Y-139968722D01*
G37*
G04 #@! TD.AperFunction*
G04 #@! TA.AperFunction,SMDPad,CuDef*
G36*
X80847703Y-139968722D02*
G01*
X80862264Y-139970882D01*
X80876543Y-139974459D01*
X80890403Y-139979418D01*
X80903710Y-139985712D01*
X80916336Y-139993280D01*
X80928159Y-140002048D01*
X80939066Y-140011934D01*
X80948952Y-140022841D01*
X80957720Y-140034664D01*
X80965288Y-140047290D01*
X80971582Y-140060597D01*
X80976541Y-140074457D01*
X80980118Y-140088736D01*
X80982278Y-140103297D01*
X80983000Y-140118000D01*
X80983000Y-141868000D01*
X80982278Y-141882703D01*
X80980118Y-141897264D01*
X80976541Y-141911543D01*
X80971582Y-141925403D01*
X80965288Y-141938710D01*
X80957720Y-141951336D01*
X80948952Y-141963159D01*
X80939066Y-141974066D01*
X80928159Y-141983952D01*
X80916336Y-141992720D01*
X80903710Y-142000288D01*
X80890403Y-142006582D01*
X80876543Y-142011541D01*
X80862264Y-142015118D01*
X80847703Y-142017278D01*
X80833000Y-142018000D01*
X80533000Y-142018000D01*
X80518297Y-142017278D01*
X80503736Y-142015118D01*
X80489457Y-142011541D01*
X80475597Y-142006582D01*
X80462290Y-142000288D01*
X80449664Y-141992720D01*
X80437841Y-141983952D01*
X80426934Y-141974066D01*
X80417048Y-141963159D01*
X80408280Y-141951336D01*
X80400712Y-141938710D01*
X80394418Y-141925403D01*
X80389459Y-141911543D01*
X80385882Y-141897264D01*
X80383722Y-141882703D01*
X80383000Y-141868000D01*
X80383000Y-140118000D01*
X80383722Y-140103297D01*
X80385882Y-140088736D01*
X80389459Y-140074457D01*
X80394418Y-140060597D01*
X80400712Y-140047290D01*
X80408280Y-140034664D01*
X80417048Y-140022841D01*
X80426934Y-140011934D01*
X80437841Y-140002048D01*
X80449664Y-139993280D01*
X80462290Y-139985712D01*
X80475597Y-139979418D01*
X80489457Y-139974459D01*
X80503736Y-139970882D01*
X80518297Y-139968722D01*
X80533000Y-139968000D01*
X80833000Y-139968000D01*
X80847703Y-139968722D01*
G37*
G04 #@! TD.AperFunction*
G04 #@! TA.AperFunction,SMDPad,CuDef*
G36*
X79577703Y-139968722D02*
G01*
X79592264Y-139970882D01*
X79606543Y-139974459D01*
X79620403Y-139979418D01*
X79633710Y-139985712D01*
X79646336Y-139993280D01*
X79658159Y-140002048D01*
X79669066Y-140011934D01*
X79678952Y-140022841D01*
X79687720Y-140034664D01*
X79695288Y-140047290D01*
X79701582Y-140060597D01*
X79706541Y-140074457D01*
X79710118Y-140088736D01*
X79712278Y-140103297D01*
X79713000Y-140118000D01*
X79713000Y-141868000D01*
X79712278Y-141882703D01*
X79710118Y-141897264D01*
X79706541Y-141911543D01*
X79701582Y-141925403D01*
X79695288Y-141938710D01*
X79687720Y-141951336D01*
X79678952Y-141963159D01*
X79669066Y-141974066D01*
X79658159Y-141983952D01*
X79646336Y-141992720D01*
X79633710Y-142000288D01*
X79620403Y-142006582D01*
X79606543Y-142011541D01*
X79592264Y-142015118D01*
X79577703Y-142017278D01*
X79563000Y-142018000D01*
X79263000Y-142018000D01*
X79248297Y-142017278D01*
X79233736Y-142015118D01*
X79219457Y-142011541D01*
X79205597Y-142006582D01*
X79192290Y-142000288D01*
X79179664Y-141992720D01*
X79167841Y-141983952D01*
X79156934Y-141974066D01*
X79147048Y-141963159D01*
X79138280Y-141951336D01*
X79130712Y-141938710D01*
X79124418Y-141925403D01*
X79119459Y-141911543D01*
X79115882Y-141897264D01*
X79113722Y-141882703D01*
X79113000Y-141868000D01*
X79113000Y-140118000D01*
X79113722Y-140103297D01*
X79115882Y-140088736D01*
X79119459Y-140074457D01*
X79124418Y-140060597D01*
X79130712Y-140047290D01*
X79138280Y-140034664D01*
X79147048Y-140022841D01*
X79156934Y-140011934D01*
X79167841Y-140002048D01*
X79179664Y-139993280D01*
X79192290Y-139985712D01*
X79205597Y-139979418D01*
X79219457Y-139974459D01*
X79233736Y-139970882D01*
X79248297Y-139968722D01*
X79263000Y-139968000D01*
X79563000Y-139968000D01*
X79577703Y-139968722D01*
G37*
G04 #@! TD.AperFunction*
G04 #@! TA.AperFunction,SMDPad,CuDef*
G36*
X79577703Y-130668722D02*
G01*
X79592264Y-130670882D01*
X79606543Y-130674459D01*
X79620403Y-130679418D01*
X79633710Y-130685712D01*
X79646336Y-130693280D01*
X79658159Y-130702048D01*
X79669066Y-130711934D01*
X79678952Y-130722841D01*
X79687720Y-130734664D01*
X79695288Y-130747290D01*
X79701582Y-130760597D01*
X79706541Y-130774457D01*
X79710118Y-130788736D01*
X79712278Y-130803297D01*
X79713000Y-130818000D01*
X79713000Y-132568000D01*
X79712278Y-132582703D01*
X79710118Y-132597264D01*
X79706541Y-132611543D01*
X79701582Y-132625403D01*
X79695288Y-132638710D01*
X79687720Y-132651336D01*
X79678952Y-132663159D01*
X79669066Y-132674066D01*
X79658159Y-132683952D01*
X79646336Y-132692720D01*
X79633710Y-132700288D01*
X79620403Y-132706582D01*
X79606543Y-132711541D01*
X79592264Y-132715118D01*
X79577703Y-132717278D01*
X79563000Y-132718000D01*
X79263000Y-132718000D01*
X79248297Y-132717278D01*
X79233736Y-132715118D01*
X79219457Y-132711541D01*
X79205597Y-132706582D01*
X79192290Y-132700288D01*
X79179664Y-132692720D01*
X79167841Y-132683952D01*
X79156934Y-132674066D01*
X79147048Y-132663159D01*
X79138280Y-132651336D01*
X79130712Y-132638710D01*
X79124418Y-132625403D01*
X79119459Y-132611543D01*
X79115882Y-132597264D01*
X79113722Y-132582703D01*
X79113000Y-132568000D01*
X79113000Y-130818000D01*
X79113722Y-130803297D01*
X79115882Y-130788736D01*
X79119459Y-130774457D01*
X79124418Y-130760597D01*
X79130712Y-130747290D01*
X79138280Y-130734664D01*
X79147048Y-130722841D01*
X79156934Y-130711934D01*
X79167841Y-130702048D01*
X79179664Y-130693280D01*
X79192290Y-130685712D01*
X79205597Y-130679418D01*
X79219457Y-130674459D01*
X79233736Y-130670882D01*
X79248297Y-130668722D01*
X79263000Y-130668000D01*
X79563000Y-130668000D01*
X79577703Y-130668722D01*
G37*
G04 #@! TD.AperFunction*
G04 #@! TA.AperFunction,SMDPad,CuDef*
G36*
X80847703Y-130668722D02*
G01*
X80862264Y-130670882D01*
X80876543Y-130674459D01*
X80890403Y-130679418D01*
X80903710Y-130685712D01*
X80916336Y-130693280D01*
X80928159Y-130702048D01*
X80939066Y-130711934D01*
X80948952Y-130722841D01*
X80957720Y-130734664D01*
X80965288Y-130747290D01*
X80971582Y-130760597D01*
X80976541Y-130774457D01*
X80980118Y-130788736D01*
X80982278Y-130803297D01*
X80983000Y-130818000D01*
X80983000Y-132568000D01*
X80982278Y-132582703D01*
X80980118Y-132597264D01*
X80976541Y-132611543D01*
X80971582Y-132625403D01*
X80965288Y-132638710D01*
X80957720Y-132651336D01*
X80948952Y-132663159D01*
X80939066Y-132674066D01*
X80928159Y-132683952D01*
X80916336Y-132692720D01*
X80903710Y-132700288D01*
X80890403Y-132706582D01*
X80876543Y-132711541D01*
X80862264Y-132715118D01*
X80847703Y-132717278D01*
X80833000Y-132718000D01*
X80533000Y-132718000D01*
X80518297Y-132717278D01*
X80503736Y-132715118D01*
X80489457Y-132711541D01*
X80475597Y-132706582D01*
X80462290Y-132700288D01*
X80449664Y-132692720D01*
X80437841Y-132683952D01*
X80426934Y-132674066D01*
X80417048Y-132663159D01*
X80408280Y-132651336D01*
X80400712Y-132638710D01*
X80394418Y-132625403D01*
X80389459Y-132611543D01*
X80385882Y-132597264D01*
X80383722Y-132582703D01*
X80383000Y-132568000D01*
X80383000Y-130818000D01*
X80383722Y-130803297D01*
X80385882Y-130788736D01*
X80389459Y-130774457D01*
X80394418Y-130760597D01*
X80400712Y-130747290D01*
X80408280Y-130734664D01*
X80417048Y-130722841D01*
X80426934Y-130711934D01*
X80437841Y-130702048D01*
X80449664Y-130693280D01*
X80462290Y-130685712D01*
X80475597Y-130679418D01*
X80489457Y-130674459D01*
X80503736Y-130670882D01*
X80518297Y-130668722D01*
X80533000Y-130668000D01*
X80833000Y-130668000D01*
X80847703Y-130668722D01*
G37*
G04 #@! TD.AperFunction*
G04 #@! TA.AperFunction,SMDPad,CuDef*
G36*
X82117703Y-130668722D02*
G01*
X82132264Y-130670882D01*
X82146543Y-130674459D01*
X82160403Y-130679418D01*
X82173710Y-130685712D01*
X82186336Y-130693280D01*
X82198159Y-130702048D01*
X82209066Y-130711934D01*
X82218952Y-130722841D01*
X82227720Y-130734664D01*
X82235288Y-130747290D01*
X82241582Y-130760597D01*
X82246541Y-130774457D01*
X82250118Y-130788736D01*
X82252278Y-130803297D01*
X82253000Y-130818000D01*
X82253000Y-132568000D01*
X82252278Y-132582703D01*
X82250118Y-132597264D01*
X82246541Y-132611543D01*
X82241582Y-132625403D01*
X82235288Y-132638710D01*
X82227720Y-132651336D01*
X82218952Y-132663159D01*
X82209066Y-132674066D01*
X82198159Y-132683952D01*
X82186336Y-132692720D01*
X82173710Y-132700288D01*
X82160403Y-132706582D01*
X82146543Y-132711541D01*
X82132264Y-132715118D01*
X82117703Y-132717278D01*
X82103000Y-132718000D01*
X81803000Y-132718000D01*
X81788297Y-132717278D01*
X81773736Y-132715118D01*
X81759457Y-132711541D01*
X81745597Y-132706582D01*
X81732290Y-132700288D01*
X81719664Y-132692720D01*
X81707841Y-132683952D01*
X81696934Y-132674066D01*
X81687048Y-132663159D01*
X81678280Y-132651336D01*
X81670712Y-132638710D01*
X81664418Y-132625403D01*
X81659459Y-132611543D01*
X81655882Y-132597264D01*
X81653722Y-132582703D01*
X81653000Y-132568000D01*
X81653000Y-130818000D01*
X81653722Y-130803297D01*
X81655882Y-130788736D01*
X81659459Y-130774457D01*
X81664418Y-130760597D01*
X81670712Y-130747290D01*
X81678280Y-130734664D01*
X81687048Y-130722841D01*
X81696934Y-130711934D01*
X81707841Y-130702048D01*
X81719664Y-130693280D01*
X81732290Y-130685712D01*
X81745597Y-130679418D01*
X81759457Y-130674459D01*
X81773736Y-130670882D01*
X81788297Y-130668722D01*
X81803000Y-130668000D01*
X82103000Y-130668000D01*
X82117703Y-130668722D01*
G37*
G04 #@! TD.AperFunction*
G04 #@! TA.AperFunction,SMDPad,CuDef*
G36*
X83387703Y-130668722D02*
G01*
X83402264Y-130670882D01*
X83416543Y-130674459D01*
X83430403Y-130679418D01*
X83443710Y-130685712D01*
X83456336Y-130693280D01*
X83468159Y-130702048D01*
X83479066Y-130711934D01*
X83488952Y-130722841D01*
X83497720Y-130734664D01*
X83505288Y-130747290D01*
X83511582Y-130760597D01*
X83516541Y-130774457D01*
X83520118Y-130788736D01*
X83522278Y-130803297D01*
X83523000Y-130818000D01*
X83523000Y-132568000D01*
X83522278Y-132582703D01*
X83520118Y-132597264D01*
X83516541Y-132611543D01*
X83511582Y-132625403D01*
X83505288Y-132638710D01*
X83497720Y-132651336D01*
X83488952Y-132663159D01*
X83479066Y-132674066D01*
X83468159Y-132683952D01*
X83456336Y-132692720D01*
X83443710Y-132700288D01*
X83430403Y-132706582D01*
X83416543Y-132711541D01*
X83402264Y-132715118D01*
X83387703Y-132717278D01*
X83373000Y-132718000D01*
X83073000Y-132718000D01*
X83058297Y-132717278D01*
X83043736Y-132715118D01*
X83029457Y-132711541D01*
X83015597Y-132706582D01*
X83002290Y-132700288D01*
X82989664Y-132692720D01*
X82977841Y-132683952D01*
X82966934Y-132674066D01*
X82957048Y-132663159D01*
X82948280Y-132651336D01*
X82940712Y-132638710D01*
X82934418Y-132625403D01*
X82929459Y-132611543D01*
X82925882Y-132597264D01*
X82923722Y-132582703D01*
X82923000Y-132568000D01*
X82923000Y-130818000D01*
X82923722Y-130803297D01*
X82925882Y-130788736D01*
X82929459Y-130774457D01*
X82934418Y-130760597D01*
X82940712Y-130747290D01*
X82948280Y-130734664D01*
X82957048Y-130722841D01*
X82966934Y-130711934D01*
X82977841Y-130702048D01*
X82989664Y-130693280D01*
X83002290Y-130685712D01*
X83015597Y-130679418D01*
X83029457Y-130674459D01*
X83043736Y-130670882D01*
X83058297Y-130668722D01*
X83073000Y-130668000D01*
X83373000Y-130668000D01*
X83387703Y-130668722D01*
G37*
G04 #@! TD.AperFunction*
G04 #@! TA.AperFunction,SMDPad,CuDef*
G36*
X84657703Y-130668722D02*
G01*
X84672264Y-130670882D01*
X84686543Y-130674459D01*
X84700403Y-130679418D01*
X84713710Y-130685712D01*
X84726336Y-130693280D01*
X84738159Y-130702048D01*
X84749066Y-130711934D01*
X84758952Y-130722841D01*
X84767720Y-130734664D01*
X84775288Y-130747290D01*
X84781582Y-130760597D01*
X84786541Y-130774457D01*
X84790118Y-130788736D01*
X84792278Y-130803297D01*
X84793000Y-130818000D01*
X84793000Y-132568000D01*
X84792278Y-132582703D01*
X84790118Y-132597264D01*
X84786541Y-132611543D01*
X84781582Y-132625403D01*
X84775288Y-132638710D01*
X84767720Y-132651336D01*
X84758952Y-132663159D01*
X84749066Y-132674066D01*
X84738159Y-132683952D01*
X84726336Y-132692720D01*
X84713710Y-132700288D01*
X84700403Y-132706582D01*
X84686543Y-132711541D01*
X84672264Y-132715118D01*
X84657703Y-132717278D01*
X84643000Y-132718000D01*
X84343000Y-132718000D01*
X84328297Y-132717278D01*
X84313736Y-132715118D01*
X84299457Y-132711541D01*
X84285597Y-132706582D01*
X84272290Y-132700288D01*
X84259664Y-132692720D01*
X84247841Y-132683952D01*
X84236934Y-132674066D01*
X84227048Y-132663159D01*
X84218280Y-132651336D01*
X84210712Y-132638710D01*
X84204418Y-132625403D01*
X84199459Y-132611543D01*
X84195882Y-132597264D01*
X84193722Y-132582703D01*
X84193000Y-132568000D01*
X84193000Y-130818000D01*
X84193722Y-130803297D01*
X84195882Y-130788736D01*
X84199459Y-130774457D01*
X84204418Y-130760597D01*
X84210712Y-130747290D01*
X84218280Y-130734664D01*
X84227048Y-130722841D01*
X84236934Y-130711934D01*
X84247841Y-130702048D01*
X84259664Y-130693280D01*
X84272290Y-130685712D01*
X84285597Y-130679418D01*
X84299457Y-130674459D01*
X84313736Y-130670882D01*
X84328297Y-130668722D01*
X84343000Y-130668000D01*
X84643000Y-130668000D01*
X84657703Y-130668722D01*
G37*
G04 #@! TD.AperFunction*
G04 #@! TA.AperFunction,SMDPad,CuDef*
G36*
X85927703Y-130668722D02*
G01*
X85942264Y-130670882D01*
X85956543Y-130674459D01*
X85970403Y-130679418D01*
X85983710Y-130685712D01*
X85996336Y-130693280D01*
X86008159Y-130702048D01*
X86019066Y-130711934D01*
X86028952Y-130722841D01*
X86037720Y-130734664D01*
X86045288Y-130747290D01*
X86051582Y-130760597D01*
X86056541Y-130774457D01*
X86060118Y-130788736D01*
X86062278Y-130803297D01*
X86063000Y-130818000D01*
X86063000Y-132568000D01*
X86062278Y-132582703D01*
X86060118Y-132597264D01*
X86056541Y-132611543D01*
X86051582Y-132625403D01*
X86045288Y-132638710D01*
X86037720Y-132651336D01*
X86028952Y-132663159D01*
X86019066Y-132674066D01*
X86008159Y-132683952D01*
X85996336Y-132692720D01*
X85983710Y-132700288D01*
X85970403Y-132706582D01*
X85956543Y-132711541D01*
X85942264Y-132715118D01*
X85927703Y-132717278D01*
X85913000Y-132718000D01*
X85613000Y-132718000D01*
X85598297Y-132717278D01*
X85583736Y-132715118D01*
X85569457Y-132711541D01*
X85555597Y-132706582D01*
X85542290Y-132700288D01*
X85529664Y-132692720D01*
X85517841Y-132683952D01*
X85506934Y-132674066D01*
X85497048Y-132663159D01*
X85488280Y-132651336D01*
X85480712Y-132638710D01*
X85474418Y-132625403D01*
X85469459Y-132611543D01*
X85465882Y-132597264D01*
X85463722Y-132582703D01*
X85463000Y-132568000D01*
X85463000Y-130818000D01*
X85463722Y-130803297D01*
X85465882Y-130788736D01*
X85469459Y-130774457D01*
X85474418Y-130760597D01*
X85480712Y-130747290D01*
X85488280Y-130734664D01*
X85497048Y-130722841D01*
X85506934Y-130711934D01*
X85517841Y-130702048D01*
X85529664Y-130693280D01*
X85542290Y-130685712D01*
X85555597Y-130679418D01*
X85569457Y-130674459D01*
X85583736Y-130670882D01*
X85598297Y-130668722D01*
X85613000Y-130668000D01*
X85913000Y-130668000D01*
X85927703Y-130668722D01*
G37*
G04 #@! TD.AperFunction*
G04 #@! TA.AperFunction,SMDPad,CuDef*
G36*
X87197703Y-130668722D02*
G01*
X87212264Y-130670882D01*
X87226543Y-130674459D01*
X87240403Y-130679418D01*
X87253710Y-130685712D01*
X87266336Y-130693280D01*
X87278159Y-130702048D01*
X87289066Y-130711934D01*
X87298952Y-130722841D01*
X87307720Y-130734664D01*
X87315288Y-130747290D01*
X87321582Y-130760597D01*
X87326541Y-130774457D01*
X87330118Y-130788736D01*
X87332278Y-130803297D01*
X87333000Y-130818000D01*
X87333000Y-132568000D01*
X87332278Y-132582703D01*
X87330118Y-132597264D01*
X87326541Y-132611543D01*
X87321582Y-132625403D01*
X87315288Y-132638710D01*
X87307720Y-132651336D01*
X87298952Y-132663159D01*
X87289066Y-132674066D01*
X87278159Y-132683952D01*
X87266336Y-132692720D01*
X87253710Y-132700288D01*
X87240403Y-132706582D01*
X87226543Y-132711541D01*
X87212264Y-132715118D01*
X87197703Y-132717278D01*
X87183000Y-132718000D01*
X86883000Y-132718000D01*
X86868297Y-132717278D01*
X86853736Y-132715118D01*
X86839457Y-132711541D01*
X86825597Y-132706582D01*
X86812290Y-132700288D01*
X86799664Y-132692720D01*
X86787841Y-132683952D01*
X86776934Y-132674066D01*
X86767048Y-132663159D01*
X86758280Y-132651336D01*
X86750712Y-132638710D01*
X86744418Y-132625403D01*
X86739459Y-132611543D01*
X86735882Y-132597264D01*
X86733722Y-132582703D01*
X86733000Y-132568000D01*
X86733000Y-130818000D01*
X86733722Y-130803297D01*
X86735882Y-130788736D01*
X86739459Y-130774457D01*
X86744418Y-130760597D01*
X86750712Y-130747290D01*
X86758280Y-130734664D01*
X86767048Y-130722841D01*
X86776934Y-130711934D01*
X86787841Y-130702048D01*
X86799664Y-130693280D01*
X86812290Y-130685712D01*
X86825597Y-130679418D01*
X86839457Y-130674459D01*
X86853736Y-130670882D01*
X86868297Y-130668722D01*
X86883000Y-130668000D01*
X87183000Y-130668000D01*
X87197703Y-130668722D01*
G37*
G04 #@! TD.AperFunction*
G04 #@! TA.AperFunction,SMDPad,CuDef*
G36*
X88467703Y-130668722D02*
G01*
X88482264Y-130670882D01*
X88496543Y-130674459D01*
X88510403Y-130679418D01*
X88523710Y-130685712D01*
X88536336Y-130693280D01*
X88548159Y-130702048D01*
X88559066Y-130711934D01*
X88568952Y-130722841D01*
X88577720Y-130734664D01*
X88585288Y-130747290D01*
X88591582Y-130760597D01*
X88596541Y-130774457D01*
X88600118Y-130788736D01*
X88602278Y-130803297D01*
X88603000Y-130818000D01*
X88603000Y-132568000D01*
X88602278Y-132582703D01*
X88600118Y-132597264D01*
X88596541Y-132611543D01*
X88591582Y-132625403D01*
X88585288Y-132638710D01*
X88577720Y-132651336D01*
X88568952Y-132663159D01*
X88559066Y-132674066D01*
X88548159Y-132683952D01*
X88536336Y-132692720D01*
X88523710Y-132700288D01*
X88510403Y-132706582D01*
X88496543Y-132711541D01*
X88482264Y-132715118D01*
X88467703Y-132717278D01*
X88453000Y-132718000D01*
X88153000Y-132718000D01*
X88138297Y-132717278D01*
X88123736Y-132715118D01*
X88109457Y-132711541D01*
X88095597Y-132706582D01*
X88082290Y-132700288D01*
X88069664Y-132692720D01*
X88057841Y-132683952D01*
X88046934Y-132674066D01*
X88037048Y-132663159D01*
X88028280Y-132651336D01*
X88020712Y-132638710D01*
X88014418Y-132625403D01*
X88009459Y-132611543D01*
X88005882Y-132597264D01*
X88003722Y-132582703D01*
X88003000Y-132568000D01*
X88003000Y-130818000D01*
X88003722Y-130803297D01*
X88005882Y-130788736D01*
X88009459Y-130774457D01*
X88014418Y-130760597D01*
X88020712Y-130747290D01*
X88028280Y-130734664D01*
X88037048Y-130722841D01*
X88046934Y-130711934D01*
X88057841Y-130702048D01*
X88069664Y-130693280D01*
X88082290Y-130685712D01*
X88095597Y-130679418D01*
X88109457Y-130674459D01*
X88123736Y-130670882D01*
X88138297Y-130668722D01*
X88153000Y-130668000D01*
X88453000Y-130668000D01*
X88467703Y-130668722D01*
G37*
G04 #@! TD.AperFunction*
G04 #@! TA.AperFunction,SMDPad,CuDef*
G36*
X68074505Y-145971204D02*
G01*
X68098773Y-145974804D01*
X68122572Y-145980765D01*
X68145671Y-145989030D01*
X68167850Y-145999520D01*
X68188893Y-146012132D01*
X68208599Y-146026747D01*
X68226777Y-146043223D01*
X68243253Y-146061401D01*
X68257868Y-146081107D01*
X68270480Y-146102150D01*
X68280970Y-146124329D01*
X68289235Y-146147428D01*
X68295196Y-146171227D01*
X68298796Y-146195495D01*
X68300000Y-146219999D01*
X68300000Y-147120001D01*
X68298796Y-147144505D01*
X68295196Y-147168773D01*
X68289235Y-147192572D01*
X68280970Y-147215671D01*
X68270480Y-147237850D01*
X68257868Y-147258893D01*
X68243253Y-147278599D01*
X68226777Y-147296777D01*
X68208599Y-147313253D01*
X68188893Y-147327868D01*
X68167850Y-147340480D01*
X68145671Y-147350970D01*
X68122572Y-147359235D01*
X68098773Y-147365196D01*
X68074505Y-147368796D01*
X68050001Y-147370000D01*
X67399999Y-147370000D01*
X67375495Y-147368796D01*
X67351227Y-147365196D01*
X67327428Y-147359235D01*
X67304329Y-147350970D01*
X67282150Y-147340480D01*
X67261107Y-147327868D01*
X67241401Y-147313253D01*
X67223223Y-147296777D01*
X67206747Y-147278599D01*
X67192132Y-147258893D01*
X67179520Y-147237850D01*
X67169030Y-147215671D01*
X67160765Y-147192572D01*
X67154804Y-147168773D01*
X67151204Y-147144505D01*
X67150000Y-147120001D01*
X67150000Y-146219999D01*
X67151204Y-146195495D01*
X67154804Y-146171227D01*
X67160765Y-146147428D01*
X67169030Y-146124329D01*
X67179520Y-146102150D01*
X67192132Y-146081107D01*
X67206747Y-146061401D01*
X67223223Y-146043223D01*
X67241401Y-146026747D01*
X67261107Y-146012132D01*
X67282150Y-145999520D01*
X67304329Y-145989030D01*
X67327428Y-145980765D01*
X67351227Y-145974804D01*
X67375495Y-145971204D01*
X67399999Y-145970000D01*
X68050001Y-145970000D01*
X68074505Y-145971204D01*
G37*
G04 #@! TD.AperFunction*
G04 #@! TA.AperFunction,SMDPad,CuDef*
G36*
X70124505Y-145971204D02*
G01*
X70148773Y-145974804D01*
X70172572Y-145980765D01*
X70195671Y-145989030D01*
X70217850Y-145999520D01*
X70238893Y-146012132D01*
X70258599Y-146026747D01*
X70276777Y-146043223D01*
X70293253Y-146061401D01*
X70307868Y-146081107D01*
X70320480Y-146102150D01*
X70330970Y-146124329D01*
X70339235Y-146147428D01*
X70345196Y-146171227D01*
X70348796Y-146195495D01*
X70350000Y-146219999D01*
X70350000Y-147120001D01*
X70348796Y-147144505D01*
X70345196Y-147168773D01*
X70339235Y-147192572D01*
X70330970Y-147215671D01*
X70320480Y-147237850D01*
X70307868Y-147258893D01*
X70293253Y-147278599D01*
X70276777Y-147296777D01*
X70258599Y-147313253D01*
X70238893Y-147327868D01*
X70217850Y-147340480D01*
X70195671Y-147350970D01*
X70172572Y-147359235D01*
X70148773Y-147365196D01*
X70124505Y-147368796D01*
X70100001Y-147370000D01*
X69449999Y-147370000D01*
X69425495Y-147368796D01*
X69401227Y-147365196D01*
X69377428Y-147359235D01*
X69354329Y-147350970D01*
X69332150Y-147340480D01*
X69311107Y-147327868D01*
X69291401Y-147313253D01*
X69273223Y-147296777D01*
X69256747Y-147278599D01*
X69242132Y-147258893D01*
X69229520Y-147237850D01*
X69219030Y-147215671D01*
X69210765Y-147192572D01*
X69204804Y-147168773D01*
X69201204Y-147144505D01*
X69200000Y-147120001D01*
X69200000Y-146219999D01*
X69201204Y-146195495D01*
X69204804Y-146171227D01*
X69210765Y-146147428D01*
X69219030Y-146124329D01*
X69229520Y-146102150D01*
X69242132Y-146081107D01*
X69256747Y-146061401D01*
X69273223Y-146043223D01*
X69291401Y-146026747D01*
X69311107Y-146012132D01*
X69332150Y-145999520D01*
X69354329Y-145989030D01*
X69377428Y-145980765D01*
X69401227Y-145974804D01*
X69425495Y-145971204D01*
X69449999Y-145970000D01*
X70100001Y-145970000D01*
X70124505Y-145971204D01*
G37*
G04 #@! TD.AperFunction*
G04 #@! TA.AperFunction,SMDPad,CuDef*
G36*
X96799505Y-147101204D02*
G01*
X96823773Y-147104804D01*
X96847572Y-147110765D01*
X96870671Y-147119030D01*
X96892850Y-147129520D01*
X96913893Y-147142132D01*
X96933599Y-147156747D01*
X96951777Y-147173223D01*
X96968253Y-147191401D01*
X96982868Y-147211107D01*
X96995480Y-147232150D01*
X97005970Y-147254329D01*
X97014235Y-147277428D01*
X97020196Y-147301227D01*
X97023796Y-147325495D01*
X97025000Y-147349999D01*
X97025000Y-148250001D01*
X97023796Y-148274505D01*
X97020196Y-148298773D01*
X97014235Y-148322572D01*
X97005970Y-148345671D01*
X96995480Y-148367850D01*
X96982868Y-148388893D01*
X96968253Y-148408599D01*
X96951777Y-148426777D01*
X96933599Y-148443253D01*
X96913893Y-148457868D01*
X96892850Y-148470480D01*
X96870671Y-148480970D01*
X96847572Y-148489235D01*
X96823773Y-148495196D01*
X96799505Y-148498796D01*
X96775001Y-148500000D01*
X96124999Y-148500000D01*
X96100495Y-148498796D01*
X96076227Y-148495196D01*
X96052428Y-148489235D01*
X96029329Y-148480970D01*
X96007150Y-148470480D01*
X95986107Y-148457868D01*
X95966401Y-148443253D01*
X95948223Y-148426777D01*
X95931747Y-148408599D01*
X95917132Y-148388893D01*
X95904520Y-148367850D01*
X95894030Y-148345671D01*
X95885765Y-148322572D01*
X95879804Y-148298773D01*
X95876204Y-148274505D01*
X95875000Y-148250001D01*
X95875000Y-147349999D01*
X95876204Y-147325495D01*
X95879804Y-147301227D01*
X95885765Y-147277428D01*
X95894030Y-147254329D01*
X95904520Y-147232150D01*
X95917132Y-147211107D01*
X95931747Y-147191401D01*
X95948223Y-147173223D01*
X95966401Y-147156747D01*
X95986107Y-147142132D01*
X96007150Y-147129520D01*
X96029329Y-147119030D01*
X96052428Y-147110765D01*
X96076227Y-147104804D01*
X96100495Y-147101204D01*
X96124999Y-147100000D01*
X96775001Y-147100000D01*
X96799505Y-147101204D01*
G37*
G04 #@! TD.AperFunction*
G04 #@! TA.AperFunction,SMDPad,CuDef*
G36*
X98849505Y-147101204D02*
G01*
X98873773Y-147104804D01*
X98897572Y-147110765D01*
X98920671Y-147119030D01*
X98942850Y-147129520D01*
X98963893Y-147142132D01*
X98983599Y-147156747D01*
X99001777Y-147173223D01*
X99018253Y-147191401D01*
X99032868Y-147211107D01*
X99045480Y-147232150D01*
X99055970Y-147254329D01*
X99064235Y-147277428D01*
X99070196Y-147301227D01*
X99073796Y-147325495D01*
X99075000Y-147349999D01*
X99075000Y-148250001D01*
X99073796Y-148274505D01*
X99070196Y-148298773D01*
X99064235Y-148322572D01*
X99055970Y-148345671D01*
X99045480Y-148367850D01*
X99032868Y-148388893D01*
X99018253Y-148408599D01*
X99001777Y-148426777D01*
X98983599Y-148443253D01*
X98963893Y-148457868D01*
X98942850Y-148470480D01*
X98920671Y-148480970D01*
X98897572Y-148489235D01*
X98873773Y-148495196D01*
X98849505Y-148498796D01*
X98825001Y-148500000D01*
X98174999Y-148500000D01*
X98150495Y-148498796D01*
X98126227Y-148495196D01*
X98102428Y-148489235D01*
X98079329Y-148480970D01*
X98057150Y-148470480D01*
X98036107Y-148457868D01*
X98016401Y-148443253D01*
X97998223Y-148426777D01*
X97981747Y-148408599D01*
X97967132Y-148388893D01*
X97954520Y-148367850D01*
X97944030Y-148345671D01*
X97935765Y-148322572D01*
X97929804Y-148298773D01*
X97926204Y-148274505D01*
X97925000Y-148250001D01*
X97925000Y-147349999D01*
X97926204Y-147325495D01*
X97929804Y-147301227D01*
X97935765Y-147277428D01*
X97944030Y-147254329D01*
X97954520Y-147232150D01*
X97967132Y-147211107D01*
X97981747Y-147191401D01*
X97998223Y-147173223D01*
X98016401Y-147156747D01*
X98036107Y-147142132D01*
X98057150Y-147129520D01*
X98079329Y-147119030D01*
X98102428Y-147110765D01*
X98126227Y-147104804D01*
X98150495Y-147101204D01*
X98174999Y-147100000D01*
X98825001Y-147100000D01*
X98849505Y-147101204D01*
G37*
G04 #@! TD.AperFunction*
D21*
X109000000Y-146389000D03*
D18*
X109000000Y-156549000D03*
X103660000Y-156549000D03*
D21*
X103660000Y-146389000D03*
D18*
X109000000Y-170750000D03*
D21*
X109000000Y-160590000D03*
X103660000Y-160613000D03*
D18*
X103660000Y-170773000D03*
G04 #@! TA.AperFunction,SMDPad,CuDef*
D12*
G36*
X100974505Y-149501204D02*
G01*
X100998773Y-149504804D01*
X101022572Y-149510765D01*
X101045671Y-149519030D01*
X101067850Y-149529520D01*
X101088893Y-149542132D01*
X101108599Y-149556747D01*
X101126777Y-149573223D01*
X101143253Y-149591401D01*
X101157868Y-149611107D01*
X101170480Y-149632150D01*
X101180970Y-149654329D01*
X101189235Y-149677428D01*
X101195196Y-149701227D01*
X101198796Y-149725495D01*
X101200000Y-149749999D01*
X101200000Y-150650001D01*
X101198796Y-150674505D01*
X101195196Y-150698773D01*
X101189235Y-150722572D01*
X101180970Y-150745671D01*
X101170480Y-150767850D01*
X101157868Y-150788893D01*
X101143253Y-150808599D01*
X101126777Y-150826777D01*
X101108599Y-150843253D01*
X101088893Y-150857868D01*
X101067850Y-150870480D01*
X101045671Y-150880970D01*
X101022572Y-150889235D01*
X100998773Y-150895196D01*
X100974505Y-150898796D01*
X100950001Y-150900000D01*
X100299999Y-150900000D01*
X100275495Y-150898796D01*
X100251227Y-150895196D01*
X100227428Y-150889235D01*
X100204329Y-150880970D01*
X100182150Y-150870480D01*
X100161107Y-150857868D01*
X100141401Y-150843253D01*
X100123223Y-150826777D01*
X100106747Y-150808599D01*
X100092132Y-150788893D01*
X100079520Y-150767850D01*
X100069030Y-150745671D01*
X100060765Y-150722572D01*
X100054804Y-150698773D01*
X100051204Y-150674505D01*
X100050000Y-150650001D01*
X100050000Y-149749999D01*
X100051204Y-149725495D01*
X100054804Y-149701227D01*
X100060765Y-149677428D01*
X100069030Y-149654329D01*
X100079520Y-149632150D01*
X100092132Y-149611107D01*
X100106747Y-149591401D01*
X100123223Y-149573223D01*
X100141401Y-149556747D01*
X100161107Y-149542132D01*
X100182150Y-149529520D01*
X100204329Y-149519030D01*
X100227428Y-149510765D01*
X100251227Y-149504804D01*
X100275495Y-149501204D01*
X100299999Y-149500000D01*
X100950001Y-149500000D01*
X100974505Y-149501204D01*
G37*
G04 #@! TD.AperFunction*
G04 #@! TA.AperFunction,SMDPad,CuDef*
G36*
X98924505Y-149501204D02*
G01*
X98948773Y-149504804D01*
X98972572Y-149510765D01*
X98995671Y-149519030D01*
X99017850Y-149529520D01*
X99038893Y-149542132D01*
X99058599Y-149556747D01*
X99076777Y-149573223D01*
X99093253Y-149591401D01*
X99107868Y-149611107D01*
X99120480Y-149632150D01*
X99130970Y-149654329D01*
X99139235Y-149677428D01*
X99145196Y-149701227D01*
X99148796Y-149725495D01*
X99150000Y-149749999D01*
X99150000Y-150650001D01*
X99148796Y-150674505D01*
X99145196Y-150698773D01*
X99139235Y-150722572D01*
X99130970Y-150745671D01*
X99120480Y-150767850D01*
X99107868Y-150788893D01*
X99093253Y-150808599D01*
X99076777Y-150826777D01*
X99058599Y-150843253D01*
X99038893Y-150857868D01*
X99017850Y-150870480D01*
X98995671Y-150880970D01*
X98972572Y-150889235D01*
X98948773Y-150895196D01*
X98924505Y-150898796D01*
X98900001Y-150900000D01*
X98249999Y-150900000D01*
X98225495Y-150898796D01*
X98201227Y-150895196D01*
X98177428Y-150889235D01*
X98154329Y-150880970D01*
X98132150Y-150870480D01*
X98111107Y-150857868D01*
X98091401Y-150843253D01*
X98073223Y-150826777D01*
X98056747Y-150808599D01*
X98042132Y-150788893D01*
X98029520Y-150767850D01*
X98019030Y-150745671D01*
X98010765Y-150722572D01*
X98004804Y-150698773D01*
X98001204Y-150674505D01*
X98000000Y-150650001D01*
X98000000Y-149749999D01*
X98001204Y-149725495D01*
X98004804Y-149701227D01*
X98010765Y-149677428D01*
X98019030Y-149654329D01*
X98029520Y-149632150D01*
X98042132Y-149611107D01*
X98056747Y-149591401D01*
X98073223Y-149573223D01*
X98091401Y-149556747D01*
X98111107Y-149542132D01*
X98132150Y-149529520D01*
X98154329Y-149519030D01*
X98177428Y-149510765D01*
X98201227Y-149504804D01*
X98225495Y-149501204D01*
X98249999Y-149500000D01*
X98900001Y-149500000D01*
X98924505Y-149501204D01*
G37*
G04 #@! TD.AperFunction*
D18*
X117300000Y-135600000D03*
X122300000Y-138600000D03*
D22*
X109750000Y-176250000D03*
D18*
X112250000Y-176250000D03*
X104250000Y-181000000D03*
D22*
X106750000Y-181000000D03*
D23*
X112600000Y-183350000D03*
X110100000Y-183350000D03*
X110100000Y-185500000D03*
X112600000Y-185500000D03*
G04 #@! TA.AperFunction,SMDPad,CuDef*
D12*
G36*
X112599505Y-180301204D02*
G01*
X112623773Y-180304804D01*
X112647572Y-180310765D01*
X112670671Y-180319030D01*
X112692850Y-180329520D01*
X112713893Y-180342132D01*
X112733599Y-180356747D01*
X112751777Y-180373223D01*
X112768253Y-180391401D01*
X112782868Y-180411107D01*
X112795480Y-180432150D01*
X112805970Y-180454329D01*
X112814235Y-180477428D01*
X112820196Y-180501227D01*
X112823796Y-180525495D01*
X112825000Y-180549999D01*
X112825000Y-181450001D01*
X112823796Y-181474505D01*
X112820196Y-181498773D01*
X112814235Y-181522572D01*
X112805970Y-181545671D01*
X112795480Y-181567850D01*
X112782868Y-181588893D01*
X112768253Y-181608599D01*
X112751777Y-181626777D01*
X112733599Y-181643253D01*
X112713893Y-181657868D01*
X112692850Y-181670480D01*
X112670671Y-181680970D01*
X112647572Y-181689235D01*
X112623773Y-181695196D01*
X112599505Y-181698796D01*
X112575001Y-181700000D01*
X111924999Y-181700000D01*
X111900495Y-181698796D01*
X111876227Y-181695196D01*
X111852428Y-181689235D01*
X111829329Y-181680970D01*
X111807150Y-181670480D01*
X111786107Y-181657868D01*
X111766401Y-181643253D01*
X111748223Y-181626777D01*
X111731747Y-181608599D01*
X111717132Y-181588893D01*
X111704520Y-181567850D01*
X111694030Y-181545671D01*
X111685765Y-181522572D01*
X111679804Y-181498773D01*
X111676204Y-181474505D01*
X111675000Y-181450001D01*
X111675000Y-180549999D01*
X111676204Y-180525495D01*
X111679804Y-180501227D01*
X111685765Y-180477428D01*
X111694030Y-180454329D01*
X111704520Y-180432150D01*
X111717132Y-180411107D01*
X111731747Y-180391401D01*
X111748223Y-180373223D01*
X111766401Y-180356747D01*
X111786107Y-180342132D01*
X111807150Y-180329520D01*
X111829329Y-180319030D01*
X111852428Y-180310765D01*
X111876227Y-180304804D01*
X111900495Y-180301204D01*
X111924999Y-180300000D01*
X112575001Y-180300000D01*
X112599505Y-180301204D01*
G37*
G04 #@! TD.AperFunction*
G04 #@! TA.AperFunction,SMDPad,CuDef*
G36*
X110549505Y-180301204D02*
G01*
X110573773Y-180304804D01*
X110597572Y-180310765D01*
X110620671Y-180319030D01*
X110642850Y-180329520D01*
X110663893Y-180342132D01*
X110683599Y-180356747D01*
X110701777Y-180373223D01*
X110718253Y-180391401D01*
X110732868Y-180411107D01*
X110745480Y-180432150D01*
X110755970Y-180454329D01*
X110764235Y-180477428D01*
X110770196Y-180501227D01*
X110773796Y-180525495D01*
X110775000Y-180549999D01*
X110775000Y-181450001D01*
X110773796Y-181474505D01*
X110770196Y-181498773D01*
X110764235Y-181522572D01*
X110755970Y-181545671D01*
X110745480Y-181567850D01*
X110732868Y-181588893D01*
X110718253Y-181608599D01*
X110701777Y-181626777D01*
X110683599Y-181643253D01*
X110663893Y-181657868D01*
X110642850Y-181670480D01*
X110620671Y-181680970D01*
X110597572Y-181689235D01*
X110573773Y-181695196D01*
X110549505Y-181698796D01*
X110525001Y-181700000D01*
X109874999Y-181700000D01*
X109850495Y-181698796D01*
X109826227Y-181695196D01*
X109802428Y-181689235D01*
X109779329Y-181680970D01*
X109757150Y-181670480D01*
X109736107Y-181657868D01*
X109716401Y-181643253D01*
X109698223Y-181626777D01*
X109681747Y-181608599D01*
X109667132Y-181588893D01*
X109654520Y-181567850D01*
X109644030Y-181545671D01*
X109635765Y-181522572D01*
X109629804Y-181498773D01*
X109626204Y-181474505D01*
X109625000Y-181450001D01*
X109625000Y-180549999D01*
X109626204Y-180525495D01*
X109629804Y-180501227D01*
X109635765Y-180477428D01*
X109644030Y-180454329D01*
X109654520Y-180432150D01*
X109667132Y-180411107D01*
X109681747Y-180391401D01*
X109698223Y-180373223D01*
X109716401Y-180356747D01*
X109736107Y-180342132D01*
X109757150Y-180329520D01*
X109779329Y-180319030D01*
X109802428Y-180310765D01*
X109826227Y-180304804D01*
X109850495Y-180301204D01*
X109874999Y-180300000D01*
X110525001Y-180300000D01*
X110549505Y-180301204D01*
G37*
G04 #@! TD.AperFunction*
D24*
X88250000Y-152000000D03*
X80250000Y-152000000D03*
X71555000Y-160800000D03*
X77750000Y-143250000D03*
X85250000Y-143000000D03*
X74250000Y-143250000D03*
X82804000Y-124968000D03*
X82804000Y-126492000D03*
X82804000Y-128016000D03*
X82804000Y-123444000D03*
X82804000Y-121920000D03*
X78232000Y-125730000D03*
X79000000Y-152000000D03*
X87000000Y-152000000D03*
X79250000Y-172250000D03*
X84900000Y-121900000D03*
X84900000Y-123400000D03*
X84900000Y-125000000D03*
X84900000Y-126500000D03*
X84900000Y-128000000D03*
X84500000Y-152000000D03*
X83250000Y-156250000D03*
X92750000Y-157500000D03*
D25*
X80205000Y-146190000D02*
X81000000Y-146985000D01*
X80205000Y-145215000D02*
X80205000Y-146190000D01*
X87825000Y-146190000D02*
X87825000Y-145215000D01*
X87030000Y-146985000D02*
X87825000Y-146190000D01*
X81000000Y-146985000D02*
X87030000Y-146985000D01*
X86063000Y-142478000D02*
X87825000Y-144240000D01*
X87825000Y-144240000D02*
X87825000Y-145215000D01*
X86063000Y-141293000D02*
X86063000Y-142478000D01*
X85763000Y-140993000D02*
X86063000Y-141293000D01*
X67725000Y-149858000D02*
X67745000Y-149878000D01*
X67725000Y-146670000D02*
X67725000Y-149858000D01*
X76635000Y-149878000D02*
X72825000Y-149878000D01*
X69015000Y-149878000D02*
X67745000Y-149878000D01*
X76635000Y-149878000D02*
X76635000Y-147635000D01*
X80205000Y-144240000D02*
X78465000Y-142500000D01*
X80205000Y-145215000D02*
X80205000Y-144240000D01*
X78465000Y-142500000D02*
X77000000Y-142500000D01*
X76275000Y-143225000D02*
X76275000Y-145000000D01*
X77000000Y-142500000D02*
X76275000Y-143225000D01*
X76275000Y-147275000D02*
X76275000Y-145000000D01*
X76635000Y-147635000D02*
X76275000Y-147275000D01*
X69015000Y-149878000D02*
X69015000Y-151485000D01*
X69015000Y-151485000D02*
X69780000Y-152250000D01*
X69780000Y-152250000D02*
X72250000Y-152250000D01*
X72825000Y-151675000D02*
X72825000Y-149878000D01*
X72250000Y-152250000D02*
X72825000Y-151675000D01*
X87825000Y-150165000D02*
X87825000Y-151575000D01*
X87825000Y-151575000D02*
X88250000Y-152000000D01*
X80250000Y-150210000D02*
X80205000Y-150165000D01*
X80250000Y-152000000D02*
X80250000Y-150210000D01*
X79460000Y-155505000D02*
X78760000Y-155505000D01*
X79850001Y-152399999D02*
X79850001Y-155114999D01*
X79850001Y-155114999D02*
X79460000Y-155505000D01*
X80250000Y-152000000D02*
X79850001Y-152399999D01*
X69670000Y-161410000D02*
X69670000Y-162110000D01*
X69315000Y-161055000D02*
X69670000Y-161410000D01*
X69315000Y-159478000D02*
X69315000Y-161055000D01*
X69015000Y-159178000D02*
X69315000Y-159478000D01*
X76635000Y-159178000D02*
X74095000Y-159178000D01*
X71555000Y-159178000D02*
X71555000Y-160695000D01*
X71555000Y-160695000D02*
X71860000Y-161000000D01*
X71860000Y-161000000D02*
X73750000Y-161000000D01*
X74095000Y-160655000D02*
X74095000Y-159178000D01*
X73750000Y-161000000D02*
X74095000Y-160655000D01*
X70245000Y-162110000D02*
X71555000Y-160800000D01*
X71555000Y-160800000D02*
X71555000Y-160695000D01*
X69670000Y-162110000D02*
X70245000Y-162110000D01*
X71555000Y-160800000D02*
X71555000Y-160800000D01*
X76635000Y-158153000D02*
X76635000Y-159178000D01*
X76635000Y-156930000D02*
X76635000Y-158153000D01*
X78060000Y-155505000D02*
X76635000Y-156930000D01*
X78760000Y-155505000D02*
X78060000Y-155505000D01*
X98500000Y-150125000D02*
X98575000Y-150200000D01*
X98500000Y-147800000D02*
X98500000Y-150125000D01*
X101750000Y-172500000D02*
X98575000Y-169325000D01*
X108381370Y-172500000D02*
X101750000Y-172500000D01*
X98575000Y-169325000D02*
X98575000Y-150200000D01*
X109000000Y-170750000D02*
X109000000Y-171881370D01*
X109000000Y-171881370D02*
X108381370Y-172500000D01*
X100625000Y-149500000D02*
X100625000Y-150200000D01*
X99075000Y-145800000D02*
X100625000Y-147350000D01*
X100625000Y-147350000D02*
X100625000Y-149500000D01*
X98500000Y-145800000D02*
X99075000Y-145800000D01*
X100625000Y-150200000D02*
X100625000Y-169875000D01*
X101523000Y-170773000D02*
X103660000Y-170773000D01*
X100625000Y-169875000D02*
X101523000Y-170773000D01*
D26*
X109000000Y-156549000D02*
X109000000Y-160590000D01*
X103660000Y-156549000D02*
X103660000Y-160613000D01*
D25*
X84493000Y-140993000D02*
X84493000Y-142793000D01*
X84493000Y-142793000D02*
X84500000Y-142800000D01*
X85065685Y-142800000D02*
X84500000Y-142800000D01*
X86555000Y-145215000D02*
X86555000Y-144289315D01*
X71555000Y-149878000D02*
X70285000Y-149878000D01*
X70285000Y-147180000D02*
X69775000Y-146670000D01*
X70285000Y-149878000D02*
X70285000Y-147180000D01*
X78935000Y-145215000D02*
X78935000Y-144815000D01*
X78935000Y-144815000D02*
X79000000Y-144750000D01*
X79000000Y-144750000D02*
X79000000Y-144500000D01*
X79000000Y-144500000D02*
X77750000Y-143250000D01*
X86555000Y-144289315D02*
X85250000Y-143000000D01*
X85250000Y-143000000D02*
X85065685Y-142800000D01*
X74250000Y-144975000D02*
X74225000Y-145000000D01*
X74250000Y-143250000D02*
X74250000Y-144975000D01*
X74225000Y-145000000D02*
X73250000Y-145000000D01*
X71580000Y-146670000D02*
X69775000Y-146670000D01*
X73250000Y-145000000D02*
X71580000Y-146670000D01*
X96425000Y-145775000D02*
X96450000Y-145800000D01*
X94200000Y-145775000D02*
X96425000Y-145775000D01*
X88303000Y-140993000D02*
X88303000Y-142053000D01*
X92025000Y-145775000D02*
X94200000Y-145775000D01*
X88303000Y-142053000D02*
X92025000Y-145775000D01*
X81475000Y-144240000D02*
X81475000Y-145215000D01*
X79835000Y-142600000D02*
X81475000Y-144240000D01*
X79700000Y-142600000D02*
X79835000Y-142600000D01*
X79383000Y-142283000D02*
X79700000Y-142600000D01*
X79383000Y-140993000D02*
X79383000Y-142283000D01*
X82745000Y-144240000D02*
X82745000Y-145215000D01*
X80683000Y-140993000D02*
X80683000Y-142178000D01*
X80683000Y-142178000D02*
X82745000Y-144240000D01*
X82000000Y-142225000D02*
X84015000Y-144240000D01*
X82000000Y-141694000D02*
X82000000Y-142225000D01*
X81953000Y-140993000D02*
X81953000Y-141647000D01*
X84015000Y-144240000D02*
X84015000Y-145215000D01*
X81953000Y-141647000D02*
X82000000Y-141694000D01*
X83523000Y-141293000D02*
X83523000Y-142923000D01*
X83223000Y-140993000D02*
X83523000Y-141293000D01*
X83523000Y-142923000D02*
X84400000Y-143800000D01*
X85285000Y-144240000D02*
X85285000Y-145215000D01*
X84845000Y-143800000D02*
X85285000Y-144240000D01*
X84400000Y-143800000D02*
X84845000Y-143800000D01*
X81475000Y-151579000D02*
X83820000Y-153924000D01*
X81475000Y-150165000D02*
X81475000Y-151579000D01*
D26*
X112600000Y-183350000D02*
X112600000Y-185500000D01*
X112600000Y-186500000D02*
X112200000Y-186900000D01*
X112600000Y-185500000D02*
X112600000Y-186500000D01*
X112200000Y-186900000D02*
X99500000Y-186900000D01*
X82079999Y-186144001D02*
X81280000Y-186944000D01*
X82530001Y-185693999D02*
X82079999Y-186144001D01*
X98293999Y-185693999D02*
X82530001Y-185693999D01*
X99500000Y-186900000D02*
X98293999Y-185693999D01*
D25*
X78935000Y-153280000D02*
X78760000Y-153455000D01*
X86555000Y-150165000D02*
X86555000Y-151555000D01*
X86555000Y-151555000D02*
X87000000Y-152000000D01*
X78935000Y-151935000D02*
X79000000Y-152000000D01*
X78935000Y-150165000D02*
X78935000Y-151935000D01*
X79000000Y-153215000D02*
X78760000Y-153455000D01*
X79000000Y-152000000D02*
X79000000Y-153215000D01*
D26*
X79250000Y-172250000D02*
X79100000Y-172189588D01*
X73039999Y-168919999D02*
X72190000Y-168070000D01*
X74611990Y-170491990D02*
X73039999Y-168919999D01*
X77491990Y-170491990D02*
X74611990Y-170491990D01*
X79250000Y-172250000D02*
X77491990Y-170491990D01*
D25*
X67620000Y-159303000D02*
X67745000Y-159178000D01*
X67620000Y-162110000D02*
X67620000Y-159303000D01*
X72190000Y-169560000D02*
X72190000Y-168070000D01*
X71000000Y-170750000D02*
X72190000Y-169560000D01*
X68500000Y-170750000D02*
X71000000Y-170750000D01*
X67620000Y-162110000D02*
X67620000Y-169870000D01*
X67620000Y-169870000D02*
X68500000Y-170750000D01*
D26*
X79250000Y-172815685D02*
X79250000Y-172250000D01*
X79250000Y-186045370D02*
X79250000Y-172815685D01*
X80148630Y-186944000D02*
X79250000Y-186045370D01*
X81280000Y-186944000D02*
X80148630Y-186944000D01*
D25*
X67745000Y-158153000D02*
X68398000Y-157500000D01*
X67745000Y-159178000D02*
X67745000Y-158153000D01*
X70285000Y-158153000D02*
X70285000Y-159178000D01*
X69632000Y-157500000D02*
X70285000Y-158153000D01*
X68398000Y-157500000D02*
X69632000Y-157500000D01*
D26*
X116205000Y-149665000D02*
X116205000Y-148193000D01*
X122700000Y-156160000D02*
X116205000Y-149665000D01*
X110200000Y-183250000D02*
X110100000Y-183350000D01*
X110200000Y-181000000D02*
X110200000Y-183250000D01*
X110200000Y-181000000D02*
X106750000Y-181000000D01*
D25*
X96425000Y-147825000D02*
X96450000Y-147800000D01*
X94200000Y-147825000D02*
X96425000Y-147825000D01*
X87033000Y-142018000D02*
X87033000Y-140993000D01*
X92840000Y-147825000D02*
X87033000Y-142018000D01*
X94200000Y-147825000D02*
X92840000Y-147825000D01*
D26*
X85070001Y-183153999D02*
X97753999Y-183153999D01*
X83820000Y-184404000D02*
X85070001Y-183153999D01*
X100100000Y-185500000D02*
X110100000Y-185500000D01*
X97753999Y-183153999D02*
X100100000Y-185500000D01*
D27*
X106868000Y-124265000D02*
X106045000Y-125088000D01*
X113730000Y-124265000D02*
X106868000Y-124265000D01*
X118680000Y-124265000D02*
X113730000Y-124265000D01*
D26*
X122700000Y-176300000D02*
X122700000Y-173940000D01*
X122000000Y-177000000D02*
X122700000Y-176300000D01*
X118844182Y-177000000D02*
X122000000Y-177000000D01*
X112250000Y-181000000D02*
X114844182Y-181000000D01*
X114844182Y-181000000D02*
X118844182Y-177000000D01*
X112250000Y-180050000D02*
X112250000Y-181000000D01*
X109750000Y-176250000D02*
X109750000Y-177550000D01*
X109750000Y-177550000D02*
X112250000Y-180050000D01*
X116205000Y-143193000D02*
X112750000Y-146648000D01*
X112750000Y-151290000D02*
X122700000Y-161240000D01*
X112750000Y-146648000D02*
X112750000Y-151290000D01*
D25*
X81116000Y-156464000D02*
X81280000Y-156464000D01*
X72214000Y-165530000D02*
X72190000Y-165530000D01*
X72190000Y-165530000D02*
X74220000Y-163500000D01*
X75707120Y-163500000D02*
X78750000Y-160457120D01*
X74220000Y-163500000D02*
X75707120Y-163500000D01*
X78750000Y-160457120D02*
X78750000Y-158994000D01*
X78750000Y-158994000D02*
X81280000Y-156464000D01*
X81116000Y-159004000D02*
X81280000Y-159004000D01*
X74754000Y-165530000D02*
X74730000Y-165530000D01*
X81280000Y-159004000D02*
X74754000Y-165530000D01*
X77294000Y-165530000D02*
X77270000Y-165530000D01*
X81280000Y-161544000D02*
X77294000Y-165530000D01*
D27*
X97790000Y-123190000D02*
X97790000Y-128140000D01*
X97790000Y-131833000D02*
X106045000Y-140088000D01*
X97790000Y-128140000D02*
X97790000Y-131833000D01*
D28*
X109000000Y-143043000D02*
X106045000Y-140088000D01*
X109000000Y-146389000D02*
X109000000Y-143043000D01*
X110533000Y-135600000D02*
X106045000Y-140088000D01*
X117300000Y-135600000D02*
X110533000Y-135600000D01*
D25*
X87197998Y-156464000D02*
X84970001Y-154236003D01*
X96520000Y-156464000D02*
X87197998Y-156464000D01*
X84970001Y-153371999D02*
X84970001Y-154236003D01*
X84372001Y-152773999D02*
X84970001Y-153371999D01*
X84163997Y-152773999D02*
X84372001Y-152773999D01*
X83045000Y-151655002D02*
X84163997Y-152773999D01*
X83045000Y-150465000D02*
X83045000Y-151655002D01*
X82745000Y-150165000D02*
X83045000Y-150465000D01*
X80105999Y-165234001D02*
X77270000Y-168070000D01*
X84970001Y-156151997D02*
X82600000Y-158521998D01*
X82600000Y-158521998D02*
X82600000Y-164466002D01*
X84970001Y-154236003D02*
X84970001Y-156151997D01*
X82600000Y-164466002D02*
X81832001Y-165234001D01*
X81832001Y-165234001D02*
X80105999Y-165234001D01*
X95369999Y-157614001D02*
X95720001Y-157263999D01*
X95369999Y-174796001D02*
X95369999Y-157614001D01*
X96207997Y-175633999D02*
X95369999Y-174796001D01*
X98383999Y-175633999D02*
X96207997Y-175633999D01*
X95720001Y-157263999D02*
X96520000Y-156464000D01*
X100000000Y-177250000D02*
X98383999Y-175633999D01*
X84500000Y-152000000D02*
X84000000Y-151500000D01*
X84015000Y-151485000D02*
X84015000Y-150165000D01*
X84000000Y-151500000D02*
X84015000Y-151485000D01*
X80480001Y-155561997D02*
X78250000Y-157791998D01*
X81280000Y-153924000D02*
X80480001Y-154723999D01*
X80480001Y-154723999D02*
X80480001Y-155561997D01*
X78250000Y-157791998D02*
X78250000Y-160250000D01*
X78250000Y-160250000D02*
X75750000Y-162750000D01*
X72430000Y-162750000D02*
X69650000Y-165530000D01*
X75750000Y-162750000D02*
X72430000Y-162750000D01*
X81280000Y-153924000D02*
X83250000Y-155894000D01*
X83250000Y-155894000D02*
X83250000Y-156250000D01*
X86663997Y-152773999D02*
X95369999Y-152773999D01*
X85285000Y-151395002D02*
X86663997Y-152773999D01*
X85285000Y-150165000D02*
X85285000Y-151395002D01*
X95369999Y-152773999D02*
X96520000Y-153924000D01*
X92750000Y-174716002D02*
X92750000Y-157500000D01*
X96207997Y-178173999D02*
X92750000Y-174716002D01*
X100000000Y-179250000D02*
X98923999Y-178173999D01*
X98923999Y-178173999D02*
X96207997Y-178173999D01*
X82079999Y-181064001D02*
X81280000Y-181864000D01*
X82669999Y-180474001D02*
X82079999Y-181064001D01*
X97224001Y-180474001D02*
X82669999Y-180474001D01*
X100000000Y-183250000D02*
X97224001Y-180474001D01*
D29*
G36*
X78940546Y-121537249D02*
G01*
X78876000Y-121685895D01*
X80010000Y-122819895D01*
X81144000Y-121685895D01*
X81079805Y-121538059D01*
X83439000Y-121538952D01*
X83439000Y-130102750D01*
X83350000Y-130191750D01*
X83350000Y-131566000D01*
X83370000Y-131566000D01*
X83370000Y-131820000D01*
X83350000Y-131820000D01*
X83350000Y-131840000D01*
X83096000Y-131840000D01*
X83096000Y-131820000D01*
X82080000Y-131820000D01*
X82080000Y-131840000D01*
X81826000Y-131840000D01*
X81826000Y-131820000D01*
X80810000Y-131820000D01*
X80810000Y-131840000D01*
X80556000Y-131840000D01*
X80556000Y-131820000D01*
X79540000Y-131820000D01*
X79540000Y-131840000D01*
X79286000Y-131840000D01*
X79286000Y-131820000D01*
X78636750Y-131820000D01*
X78478000Y-131978750D01*
X78474928Y-132718000D01*
X78487188Y-132842482D01*
X78523498Y-132962180D01*
X78526124Y-132967092D01*
X77127000Y-132966562D01*
X77127000Y-130668000D01*
X78474928Y-130668000D01*
X78478000Y-131407250D01*
X78636750Y-131566000D01*
X79286000Y-131566000D01*
X79286000Y-130191750D01*
X79540000Y-130191750D01*
X79540000Y-131566000D01*
X80556000Y-131566000D01*
X80556000Y-130191750D01*
X80810000Y-130191750D01*
X80810000Y-131566000D01*
X81826000Y-131566000D01*
X81826000Y-130191750D01*
X82080000Y-130191750D01*
X82080000Y-131566000D01*
X83096000Y-131566000D01*
X83096000Y-130191750D01*
X82937250Y-130033000D01*
X82923000Y-130029928D01*
X82798518Y-130042188D01*
X82678820Y-130078498D01*
X82588000Y-130127043D01*
X82497180Y-130078498D01*
X82377482Y-130042188D01*
X82253000Y-130029928D01*
X82238750Y-130033000D01*
X82080000Y-130191750D01*
X81826000Y-130191750D01*
X81667250Y-130033000D01*
X81653000Y-130029928D01*
X81528518Y-130042188D01*
X81408820Y-130078498D01*
X81318000Y-130127043D01*
X81227180Y-130078498D01*
X81107482Y-130042188D01*
X80983000Y-130029928D01*
X80968750Y-130033000D01*
X80810000Y-130191750D01*
X80556000Y-130191750D01*
X80397250Y-130033000D01*
X80383000Y-130029928D01*
X80258518Y-130042188D01*
X80138820Y-130078498D01*
X80048000Y-130127043D01*
X79957180Y-130078498D01*
X79837482Y-130042188D01*
X79713000Y-130029928D01*
X79698750Y-130033000D01*
X79540000Y-130191750D01*
X79286000Y-130191750D01*
X79127250Y-130033000D01*
X79113000Y-130029928D01*
X78988518Y-130042188D01*
X78868820Y-130078498D01*
X78758506Y-130137463D01*
X78661815Y-130216815D01*
X78582463Y-130313506D01*
X78523498Y-130423820D01*
X78487188Y-130543518D01*
X78474928Y-130668000D01*
X77127000Y-130668000D01*
X77127000Y-129263105D01*
X78876000Y-129263105D01*
X79001914Y-129553077D01*
X79334126Y-129718933D01*
X79692312Y-129816790D01*
X80062706Y-129842889D01*
X80431075Y-129796225D01*
X80783262Y-129678594D01*
X81018086Y-129553077D01*
X81144000Y-129263105D01*
X80010000Y-128129105D01*
X78876000Y-129263105D01*
X77127000Y-129263105D01*
X77127000Y-128250000D01*
X77124560Y-128225224D01*
X77117333Y-128201399D01*
X77105597Y-128179443D01*
X77089803Y-128160197D01*
X77070557Y-128144403D01*
X77048601Y-128132667D01*
X77024776Y-128125440D01*
X77000000Y-128123000D01*
X73127000Y-128123000D01*
X73127000Y-128002206D01*
X78116611Y-128002206D01*
X78163275Y-128370575D01*
X78280906Y-128722762D01*
X78406423Y-128957586D01*
X78696395Y-129083500D01*
X79830395Y-127949500D01*
X80189605Y-127949500D01*
X81323605Y-129083500D01*
X81613577Y-128957586D01*
X81779433Y-128625374D01*
X81877290Y-128267188D01*
X81903389Y-127896794D01*
X81856725Y-127528425D01*
X81739094Y-127176238D01*
X81613577Y-126941414D01*
X81323605Y-126815500D01*
X80189605Y-127949500D01*
X79830395Y-127949500D01*
X78696395Y-126815500D01*
X78406423Y-126941414D01*
X78240567Y-127273626D01*
X78142710Y-127631812D01*
X78116611Y-128002206D01*
X73127000Y-128002206D01*
X73127000Y-126635895D01*
X78876000Y-126635895D01*
X80010000Y-127769895D01*
X81144000Y-126635895D01*
X81018086Y-126345923D01*
X80685874Y-126180067D01*
X80327688Y-126082210D01*
X79957294Y-126056111D01*
X79588925Y-126102775D01*
X79236738Y-126220406D01*
X79001914Y-126345923D01*
X78876000Y-126635895D01*
X73127000Y-126635895D01*
X73127000Y-124313105D01*
X78876000Y-124313105D01*
X79001914Y-124603077D01*
X79334126Y-124768933D01*
X79692312Y-124866790D01*
X80062706Y-124892889D01*
X80431075Y-124846225D01*
X80783262Y-124728594D01*
X81018086Y-124603077D01*
X81144000Y-124313105D01*
X80010000Y-123179105D01*
X78876000Y-124313105D01*
X73127000Y-124313105D01*
X73127000Y-123052206D01*
X78116611Y-123052206D01*
X78163275Y-123420575D01*
X78280906Y-123772762D01*
X78406423Y-124007586D01*
X78696395Y-124133500D01*
X79830395Y-122999500D01*
X80189605Y-122999500D01*
X81323605Y-124133500D01*
X81613577Y-124007586D01*
X81779433Y-123675374D01*
X81877290Y-123317188D01*
X81903389Y-122946794D01*
X81856725Y-122578425D01*
X81739094Y-122226238D01*
X81613577Y-121991414D01*
X81323605Y-121865500D01*
X80189605Y-122999500D01*
X79830395Y-122999500D01*
X78696395Y-121865500D01*
X78406423Y-121991414D01*
X78240567Y-122323626D01*
X78142710Y-122681812D01*
X78116611Y-123052206D01*
X73127000Y-123052206D01*
X73127000Y-121535048D01*
X78940546Y-121537249D01*
G37*
X78940546Y-121537249D02*
X78876000Y-121685895D01*
X80010000Y-122819895D01*
X81144000Y-121685895D01*
X81079805Y-121538059D01*
X83439000Y-121538952D01*
X83439000Y-130102750D01*
X83350000Y-130191750D01*
X83350000Y-131566000D01*
X83370000Y-131566000D01*
X83370000Y-131820000D01*
X83350000Y-131820000D01*
X83350000Y-131840000D01*
X83096000Y-131840000D01*
X83096000Y-131820000D01*
X82080000Y-131820000D01*
X82080000Y-131840000D01*
X81826000Y-131840000D01*
X81826000Y-131820000D01*
X80810000Y-131820000D01*
X80810000Y-131840000D01*
X80556000Y-131840000D01*
X80556000Y-131820000D01*
X79540000Y-131820000D01*
X79540000Y-131840000D01*
X79286000Y-131840000D01*
X79286000Y-131820000D01*
X78636750Y-131820000D01*
X78478000Y-131978750D01*
X78474928Y-132718000D01*
X78487188Y-132842482D01*
X78523498Y-132962180D01*
X78526124Y-132967092D01*
X77127000Y-132966562D01*
X77127000Y-130668000D01*
X78474928Y-130668000D01*
X78478000Y-131407250D01*
X78636750Y-131566000D01*
X79286000Y-131566000D01*
X79286000Y-130191750D01*
X79540000Y-130191750D01*
X79540000Y-131566000D01*
X80556000Y-131566000D01*
X80556000Y-130191750D01*
X80810000Y-130191750D01*
X80810000Y-131566000D01*
X81826000Y-131566000D01*
X81826000Y-130191750D01*
X82080000Y-130191750D01*
X82080000Y-131566000D01*
X83096000Y-131566000D01*
X83096000Y-130191750D01*
X82937250Y-130033000D01*
X82923000Y-130029928D01*
X82798518Y-130042188D01*
X82678820Y-130078498D01*
X82588000Y-130127043D01*
X82497180Y-130078498D01*
X82377482Y-130042188D01*
X82253000Y-130029928D01*
X82238750Y-130033000D01*
X82080000Y-130191750D01*
X81826000Y-130191750D01*
X81667250Y-130033000D01*
X81653000Y-130029928D01*
X81528518Y-130042188D01*
X81408820Y-130078498D01*
X81318000Y-130127043D01*
X81227180Y-130078498D01*
X81107482Y-130042188D01*
X80983000Y-130029928D01*
X80968750Y-130033000D01*
X80810000Y-130191750D01*
X80556000Y-130191750D01*
X80397250Y-130033000D01*
X80383000Y-130029928D01*
X80258518Y-130042188D01*
X80138820Y-130078498D01*
X80048000Y-130127043D01*
X79957180Y-130078498D01*
X79837482Y-130042188D01*
X79713000Y-130029928D01*
X79698750Y-130033000D01*
X79540000Y-130191750D01*
X79286000Y-130191750D01*
X79127250Y-130033000D01*
X79113000Y-130029928D01*
X78988518Y-130042188D01*
X78868820Y-130078498D01*
X78758506Y-130137463D01*
X78661815Y-130216815D01*
X78582463Y-130313506D01*
X78523498Y-130423820D01*
X78487188Y-130543518D01*
X78474928Y-130668000D01*
X77127000Y-130668000D01*
X77127000Y-129263105D01*
X78876000Y-129263105D01*
X79001914Y-129553077D01*
X79334126Y-129718933D01*
X79692312Y-129816790D01*
X80062706Y-129842889D01*
X80431075Y-129796225D01*
X80783262Y-129678594D01*
X81018086Y-129553077D01*
X81144000Y-129263105D01*
X80010000Y-128129105D01*
X78876000Y-129263105D01*
X77127000Y-129263105D01*
X77127000Y-128250000D01*
X77124560Y-128225224D01*
X77117333Y-128201399D01*
X77105597Y-128179443D01*
X77089803Y-128160197D01*
X77070557Y-128144403D01*
X77048601Y-128132667D01*
X77024776Y-128125440D01*
X77000000Y-128123000D01*
X73127000Y-128123000D01*
X73127000Y-128002206D01*
X78116611Y-128002206D01*
X78163275Y-128370575D01*
X78280906Y-128722762D01*
X78406423Y-128957586D01*
X78696395Y-129083500D01*
X79830395Y-127949500D01*
X80189605Y-127949500D01*
X81323605Y-129083500D01*
X81613577Y-128957586D01*
X81779433Y-128625374D01*
X81877290Y-128267188D01*
X81903389Y-127896794D01*
X81856725Y-127528425D01*
X81739094Y-127176238D01*
X81613577Y-126941414D01*
X81323605Y-126815500D01*
X80189605Y-127949500D01*
X79830395Y-127949500D01*
X78696395Y-126815500D01*
X78406423Y-126941414D01*
X78240567Y-127273626D01*
X78142710Y-127631812D01*
X78116611Y-128002206D01*
X73127000Y-128002206D01*
X73127000Y-126635895D01*
X78876000Y-126635895D01*
X80010000Y-127769895D01*
X81144000Y-126635895D01*
X81018086Y-126345923D01*
X80685874Y-126180067D01*
X80327688Y-126082210D01*
X79957294Y-126056111D01*
X79588925Y-126102775D01*
X79236738Y-126220406D01*
X79001914Y-126345923D01*
X78876000Y-126635895D01*
X73127000Y-126635895D01*
X73127000Y-124313105D01*
X78876000Y-124313105D01*
X79001914Y-124603077D01*
X79334126Y-124768933D01*
X79692312Y-124866790D01*
X80062706Y-124892889D01*
X80431075Y-124846225D01*
X80783262Y-124728594D01*
X81018086Y-124603077D01*
X81144000Y-124313105D01*
X80010000Y-123179105D01*
X78876000Y-124313105D01*
X73127000Y-124313105D01*
X73127000Y-123052206D01*
X78116611Y-123052206D01*
X78163275Y-123420575D01*
X78280906Y-123772762D01*
X78406423Y-124007586D01*
X78696395Y-124133500D01*
X79830395Y-122999500D01*
X80189605Y-122999500D01*
X81323605Y-124133500D01*
X81613577Y-124007586D01*
X81779433Y-123675374D01*
X81877290Y-123317188D01*
X81903389Y-122946794D01*
X81856725Y-122578425D01*
X81739094Y-122226238D01*
X81613577Y-121991414D01*
X81323605Y-121865500D01*
X80189605Y-122999500D01*
X79830395Y-122999500D01*
X78696395Y-121865500D01*
X78406423Y-121991414D01*
X78240567Y-122323626D01*
X78142710Y-122681812D01*
X78116611Y-123052206D01*
X73127000Y-123052206D01*
X73127000Y-121535048D01*
X78940546Y-121537249D01*
G36*
X86534100Y-121673195D02*
G01*
X87668100Y-122807195D01*
X88802100Y-121673195D01*
X88743829Y-121539000D01*
X93873000Y-121539000D01*
X93873000Y-132969000D01*
X89188857Y-132969000D01*
X89192502Y-132962180D01*
X89228812Y-132842482D01*
X89241072Y-132718000D01*
X89238000Y-131978750D01*
X89079250Y-131820000D01*
X88430000Y-131820000D01*
X88430000Y-131840000D01*
X88176000Y-131840000D01*
X88176000Y-131820000D01*
X87160000Y-131820000D01*
X87160000Y-131840000D01*
X86906000Y-131840000D01*
X86906000Y-131820000D01*
X85890000Y-131820000D01*
X85890000Y-131840000D01*
X85636000Y-131840000D01*
X85636000Y-131820000D01*
X84620000Y-131820000D01*
X84620000Y-131840000D01*
X84366000Y-131840000D01*
X84366000Y-131820000D01*
X84346000Y-131820000D01*
X84346000Y-131566000D01*
X84366000Y-131566000D01*
X84366000Y-130191750D01*
X84620000Y-130191750D01*
X84620000Y-131566000D01*
X85636000Y-131566000D01*
X85636000Y-130191750D01*
X85890000Y-130191750D01*
X85890000Y-131566000D01*
X86906000Y-131566000D01*
X86906000Y-130191750D01*
X87160000Y-130191750D01*
X87160000Y-131566000D01*
X88176000Y-131566000D01*
X88176000Y-130191750D01*
X88430000Y-130191750D01*
X88430000Y-131566000D01*
X89079250Y-131566000D01*
X89238000Y-131407250D01*
X89241072Y-130668000D01*
X89228812Y-130543518D01*
X89192502Y-130423820D01*
X89133537Y-130313506D01*
X89054185Y-130216815D01*
X88957494Y-130137463D01*
X88847180Y-130078498D01*
X88727482Y-130042188D01*
X88603000Y-130029928D01*
X88588750Y-130033000D01*
X88430000Y-130191750D01*
X88176000Y-130191750D01*
X88017250Y-130033000D01*
X88003000Y-130029928D01*
X87878518Y-130042188D01*
X87758820Y-130078498D01*
X87668000Y-130127043D01*
X87577180Y-130078498D01*
X87457482Y-130042188D01*
X87333000Y-130029928D01*
X87318750Y-130033000D01*
X87160000Y-130191750D01*
X86906000Y-130191750D01*
X86747250Y-130033000D01*
X86733000Y-130029928D01*
X86608518Y-130042188D01*
X86488820Y-130078498D01*
X86398000Y-130127043D01*
X86307180Y-130078498D01*
X86187482Y-130042188D01*
X86063000Y-130029928D01*
X86048750Y-130033000D01*
X85890000Y-130191750D01*
X85636000Y-130191750D01*
X85477250Y-130033000D01*
X85463000Y-130029928D01*
X85338518Y-130042188D01*
X85218820Y-130078498D01*
X85128000Y-130127043D01*
X85037180Y-130078498D01*
X84917482Y-130042188D01*
X84793000Y-130029928D01*
X84778750Y-130033000D01*
X84620000Y-130191750D01*
X84366000Y-130191750D01*
X84328000Y-130153750D01*
X84328000Y-129250405D01*
X86534100Y-129250405D01*
X86660014Y-129540377D01*
X86992226Y-129706233D01*
X87350412Y-129804090D01*
X87720806Y-129830189D01*
X88089175Y-129783525D01*
X88441362Y-129665894D01*
X88676186Y-129540377D01*
X88802100Y-129250405D01*
X87668100Y-128116405D01*
X86534100Y-129250405D01*
X84328000Y-129250405D01*
X84328000Y-127989506D01*
X85774711Y-127989506D01*
X85821375Y-128357875D01*
X85939006Y-128710062D01*
X86064523Y-128944886D01*
X86354495Y-129070800D01*
X87488495Y-127936800D01*
X87847705Y-127936800D01*
X88981705Y-129070800D01*
X89271677Y-128944886D01*
X89437533Y-128612674D01*
X89535390Y-128254488D01*
X89561489Y-127884094D01*
X89514825Y-127515725D01*
X89397194Y-127163538D01*
X89271677Y-126928714D01*
X88981705Y-126802800D01*
X87847705Y-127936800D01*
X87488495Y-127936800D01*
X86354495Y-126802800D01*
X86064523Y-126928714D01*
X85898667Y-127260926D01*
X85800810Y-127619112D01*
X85774711Y-127989506D01*
X84328000Y-127989506D01*
X84328000Y-126623195D01*
X86534100Y-126623195D01*
X87668100Y-127757195D01*
X88802100Y-126623195D01*
X88676186Y-126333223D01*
X88343974Y-126167367D01*
X87985788Y-126069510D01*
X87615394Y-126043411D01*
X87247025Y-126090075D01*
X86894838Y-126207706D01*
X86660014Y-126333223D01*
X86534100Y-126623195D01*
X84328000Y-126623195D01*
X84328000Y-124300405D01*
X86534100Y-124300405D01*
X86660014Y-124590377D01*
X86992226Y-124756233D01*
X87350412Y-124854090D01*
X87720806Y-124880189D01*
X88089175Y-124833525D01*
X88441362Y-124715894D01*
X88676186Y-124590377D01*
X88802100Y-124300405D01*
X87668100Y-123166405D01*
X86534100Y-124300405D01*
X84328000Y-124300405D01*
X84328000Y-123039506D01*
X85774711Y-123039506D01*
X85821375Y-123407875D01*
X85939006Y-123760062D01*
X86064523Y-123994886D01*
X86354495Y-124120800D01*
X87488495Y-122986800D01*
X87847705Y-122986800D01*
X88981705Y-124120800D01*
X89271677Y-123994886D01*
X89437533Y-123662674D01*
X89535390Y-123304488D01*
X89561489Y-122934094D01*
X89514825Y-122565725D01*
X89397194Y-122213538D01*
X89271677Y-121978714D01*
X88981705Y-121852800D01*
X87847705Y-122986800D01*
X87488495Y-122986800D01*
X86354495Y-121852800D01*
X86064523Y-121978714D01*
X85898667Y-122310926D01*
X85800810Y-122669112D01*
X85774711Y-123039506D01*
X84328000Y-123039506D01*
X84328000Y-121539000D01*
X86592371Y-121539000D01*
X86534100Y-121673195D01*
G37*
X86534100Y-121673195D02*
X87668100Y-122807195D01*
X88802100Y-121673195D01*
X88743829Y-121539000D01*
X93873000Y-121539000D01*
X93873000Y-132969000D01*
X89188857Y-132969000D01*
X89192502Y-132962180D01*
X89228812Y-132842482D01*
X89241072Y-132718000D01*
X89238000Y-131978750D01*
X89079250Y-131820000D01*
X88430000Y-131820000D01*
X88430000Y-131840000D01*
X88176000Y-131840000D01*
X88176000Y-131820000D01*
X87160000Y-131820000D01*
X87160000Y-131840000D01*
X86906000Y-131840000D01*
X86906000Y-131820000D01*
X85890000Y-131820000D01*
X85890000Y-131840000D01*
X85636000Y-131840000D01*
X85636000Y-131820000D01*
X84620000Y-131820000D01*
X84620000Y-131840000D01*
X84366000Y-131840000D01*
X84366000Y-131820000D01*
X84346000Y-131820000D01*
X84346000Y-131566000D01*
X84366000Y-131566000D01*
X84366000Y-130191750D01*
X84620000Y-130191750D01*
X84620000Y-131566000D01*
X85636000Y-131566000D01*
X85636000Y-130191750D01*
X85890000Y-130191750D01*
X85890000Y-131566000D01*
X86906000Y-131566000D01*
X86906000Y-130191750D01*
X87160000Y-130191750D01*
X87160000Y-131566000D01*
X88176000Y-131566000D01*
X88176000Y-130191750D01*
X88430000Y-130191750D01*
X88430000Y-131566000D01*
X89079250Y-131566000D01*
X89238000Y-131407250D01*
X89241072Y-130668000D01*
X89228812Y-130543518D01*
X89192502Y-130423820D01*
X89133537Y-130313506D01*
X89054185Y-130216815D01*
X88957494Y-130137463D01*
X88847180Y-130078498D01*
X88727482Y-130042188D01*
X88603000Y-130029928D01*
X88588750Y-130033000D01*
X88430000Y-130191750D01*
X88176000Y-130191750D01*
X88017250Y-130033000D01*
X88003000Y-130029928D01*
X87878518Y-130042188D01*
X87758820Y-130078498D01*
X87668000Y-130127043D01*
X87577180Y-130078498D01*
X87457482Y-130042188D01*
X87333000Y-130029928D01*
X87318750Y-130033000D01*
X87160000Y-130191750D01*
X86906000Y-130191750D01*
X86747250Y-130033000D01*
X86733000Y-130029928D01*
X86608518Y-130042188D01*
X86488820Y-130078498D01*
X86398000Y-130127043D01*
X86307180Y-130078498D01*
X86187482Y-130042188D01*
X86063000Y-130029928D01*
X86048750Y-130033000D01*
X85890000Y-130191750D01*
X85636000Y-130191750D01*
X85477250Y-130033000D01*
X85463000Y-130029928D01*
X85338518Y-130042188D01*
X85218820Y-130078498D01*
X85128000Y-130127043D01*
X85037180Y-130078498D01*
X84917482Y-130042188D01*
X84793000Y-130029928D01*
X84778750Y-130033000D01*
X84620000Y-130191750D01*
X84366000Y-130191750D01*
X84328000Y-130153750D01*
X84328000Y-129250405D01*
X86534100Y-129250405D01*
X86660014Y-129540377D01*
X86992226Y-129706233D01*
X87350412Y-129804090D01*
X87720806Y-129830189D01*
X88089175Y-129783525D01*
X88441362Y-129665894D01*
X88676186Y-129540377D01*
X88802100Y-129250405D01*
X87668100Y-128116405D01*
X86534100Y-129250405D01*
X84328000Y-129250405D01*
X84328000Y-127989506D01*
X85774711Y-127989506D01*
X85821375Y-128357875D01*
X85939006Y-128710062D01*
X86064523Y-128944886D01*
X86354495Y-129070800D01*
X87488495Y-127936800D01*
X87847705Y-127936800D01*
X88981705Y-129070800D01*
X89271677Y-128944886D01*
X89437533Y-128612674D01*
X89535390Y-128254488D01*
X89561489Y-127884094D01*
X89514825Y-127515725D01*
X89397194Y-127163538D01*
X89271677Y-126928714D01*
X88981705Y-126802800D01*
X87847705Y-127936800D01*
X87488495Y-127936800D01*
X86354495Y-126802800D01*
X86064523Y-126928714D01*
X85898667Y-127260926D01*
X85800810Y-127619112D01*
X85774711Y-127989506D01*
X84328000Y-127989506D01*
X84328000Y-126623195D01*
X86534100Y-126623195D01*
X87668100Y-127757195D01*
X88802100Y-126623195D01*
X88676186Y-126333223D01*
X88343974Y-126167367D01*
X87985788Y-126069510D01*
X87615394Y-126043411D01*
X87247025Y-126090075D01*
X86894838Y-126207706D01*
X86660014Y-126333223D01*
X86534100Y-126623195D01*
X84328000Y-126623195D01*
X84328000Y-124300405D01*
X86534100Y-124300405D01*
X86660014Y-124590377D01*
X86992226Y-124756233D01*
X87350412Y-124854090D01*
X87720806Y-124880189D01*
X88089175Y-124833525D01*
X88441362Y-124715894D01*
X88676186Y-124590377D01*
X88802100Y-124300405D01*
X87668100Y-123166405D01*
X86534100Y-124300405D01*
X84328000Y-124300405D01*
X84328000Y-123039506D01*
X85774711Y-123039506D01*
X85821375Y-123407875D01*
X85939006Y-123760062D01*
X86064523Y-123994886D01*
X86354495Y-124120800D01*
X87488495Y-122986800D01*
X87847705Y-122986800D01*
X88981705Y-124120800D01*
X89271677Y-123994886D01*
X89437533Y-123662674D01*
X89535390Y-123304488D01*
X89561489Y-122934094D01*
X89514825Y-122565725D01*
X89397194Y-122213538D01*
X89271677Y-121978714D01*
X88981705Y-121852800D01*
X87847705Y-122986800D01*
X87488495Y-122986800D01*
X86354495Y-121852800D01*
X86064523Y-121978714D01*
X85898667Y-122310926D01*
X85800810Y-122669112D01*
X85774711Y-123039506D01*
X84328000Y-123039506D01*
X84328000Y-121539000D01*
X86592371Y-121539000D01*
X86534100Y-121673195D01*
M02*
