G04 #@! TF.GenerationSoftware,KiCad,Pcbnew,(5.1.5)-3*
G04 #@! TF.CreationDate,2021-03-20T13:22:13+01:00*
G04 #@! TF.ProjectId,ACS71020_complete_teensy,41435337-3130-4323-905f-636f6d706c65,rev?*
G04 #@! TF.SameCoordinates,Original*
G04 #@! TF.FileFunction,Legend,Top*
G04 #@! TF.FilePolarity,Positive*
%FSLAX46Y46*%
G04 Gerber Fmt 4.6, Leading zero omitted, Abs format (unit mm)*
G04 Created by KiCad (PCBNEW (5.1.5)-3) date 2021-03-20 13:22:13*
%MOMM*%
%LPD*%
G04 APERTURE LIST*
%ADD10C,0.750000*%
%ADD11C,0.150000*%
%ADD12C,0.050000*%
%ADD13C,0.015000*%
%ADD14C,0.120000*%
%ADD15C,0.127000*%
%ADD16C,0.200000*%
%ADD17C,0.100000*%
G04 APERTURE END LIST*
D10*
X80980000Y-148141428D02*
X81122857Y-148284285D01*
X80980000Y-148427142D01*
X80837142Y-148284285D01*
X80980000Y-148141428D01*
X80980000Y-148427142D01*
X88000000Y-133571428D02*
X88142857Y-133714285D01*
X88000000Y-133857142D01*
X87857142Y-133714285D01*
X88000000Y-133571428D01*
X88000000Y-133857142D01*
X68500000Y-151971428D02*
X68642857Y-152114285D01*
X68500000Y-152257142D01*
X68357142Y-152114285D01*
X68500000Y-151971428D01*
X68500000Y-152257142D01*
D11*
X95559523Y-125547380D02*
X95083333Y-125547380D01*
X95083333Y-124547380D01*
X121594523Y-123642380D02*
X121118333Y-123642380D01*
X121118333Y-122642380D01*
X83534285Y-122372380D02*
X83534285Y-121372380D01*
X84105714Y-122372380D01*
X84105714Y-121372380D01*
D12*
X75690476Y-124452380D02*
X75595238Y-124404761D01*
X75547619Y-124357142D01*
X75500000Y-124261904D01*
X75500000Y-123976190D01*
X75547619Y-123880952D01*
X75595238Y-123833333D01*
X75690476Y-123785714D01*
X75833333Y-123785714D01*
X75928571Y-123833333D01*
X75976190Y-123880952D01*
X76023809Y-123976190D01*
X76023809Y-124261904D01*
X75976190Y-124357142D01*
X75928571Y-124404761D01*
X75833333Y-124452380D01*
X75690476Y-124452380D01*
X76880952Y-123785714D02*
X76880952Y-124452380D01*
X76452380Y-123785714D02*
X76452380Y-124309523D01*
X76500000Y-124404761D01*
X76595238Y-124452380D01*
X76738095Y-124452380D01*
X76833333Y-124404761D01*
X76880952Y-124357142D01*
X77214285Y-123785714D02*
X77595238Y-123785714D01*
X77357142Y-123452380D02*
X77357142Y-124309523D01*
X77404761Y-124404761D01*
X77500000Y-124452380D01*
X77595238Y-124452380D01*
X90547619Y-124452380D02*
X90547619Y-123785714D01*
X90547619Y-123452380D02*
X90500000Y-123500000D01*
X90547619Y-123547619D01*
X90595238Y-123500000D01*
X90547619Y-123452380D01*
X90547619Y-123547619D01*
X91023809Y-123785714D02*
X91023809Y-124452380D01*
X91023809Y-123880952D02*
X91071428Y-123833333D01*
X91166666Y-123785714D01*
X91309523Y-123785714D01*
X91404761Y-123833333D01*
X91452380Y-123928571D01*
X91452380Y-124452380D01*
X94440476Y-126817380D02*
X94345238Y-126769761D01*
X94297619Y-126722142D01*
X94250000Y-126626904D01*
X94250000Y-126341190D01*
X94297619Y-126245952D01*
X94345238Y-126198333D01*
X94440476Y-126150714D01*
X94583333Y-126150714D01*
X94678571Y-126198333D01*
X94726190Y-126245952D01*
X94773809Y-126341190D01*
X94773809Y-126626904D01*
X94726190Y-126722142D01*
X94678571Y-126769761D01*
X94583333Y-126817380D01*
X94440476Y-126817380D01*
X95630952Y-126150714D02*
X95630952Y-126817380D01*
X95202380Y-126150714D02*
X95202380Y-126674523D01*
X95250000Y-126769761D01*
X95345238Y-126817380D01*
X95488095Y-126817380D01*
X95583333Y-126769761D01*
X95630952Y-126722142D01*
X95964285Y-126150714D02*
X96345238Y-126150714D01*
X96107142Y-125817380D02*
X96107142Y-126674523D01*
X96154761Y-126769761D01*
X96250000Y-126817380D01*
X96345238Y-126817380D01*
X120832619Y-124912380D02*
X120832619Y-124245714D01*
X120832619Y-123912380D02*
X120785000Y-123960000D01*
X120832619Y-124007619D01*
X120880238Y-123960000D01*
X120832619Y-123912380D01*
X120832619Y-124007619D01*
X121308809Y-124245714D02*
X121308809Y-124912380D01*
X121308809Y-124340952D02*
X121356428Y-124293333D01*
X121451666Y-124245714D01*
X121594523Y-124245714D01*
X121689761Y-124293333D01*
X121737380Y-124388571D01*
X121737380Y-124912380D01*
D11*
X113355380Y-133460714D02*
X112688714Y-133460714D01*
X112783952Y-133460714D02*
X112736333Y-133413095D01*
X112688714Y-133317857D01*
X112688714Y-133175000D01*
X112736333Y-133079761D01*
X112831571Y-133032142D01*
X113355380Y-133032142D01*
X112831571Y-133032142D02*
X112736333Y-132984523D01*
X112688714Y-132889285D01*
X112688714Y-132746428D01*
X112736333Y-132651190D01*
X112831571Y-132603571D01*
X113355380Y-132603571D01*
X113355380Y-131698809D02*
X112831571Y-131698809D01*
X112736333Y-131746428D01*
X112688714Y-131841666D01*
X112688714Y-132032142D01*
X112736333Y-132127380D01*
X113307761Y-131698809D02*
X113355380Y-131794047D01*
X113355380Y-132032142D01*
X113307761Y-132127380D01*
X113212523Y-132175000D01*
X113117285Y-132175000D01*
X113022047Y-132127380D01*
X112974428Y-132032142D01*
X112974428Y-131794047D01*
X112926809Y-131698809D01*
X113355380Y-131317857D02*
X112688714Y-130794047D01*
X112688714Y-131317857D02*
X113355380Y-130794047D01*
X113260142Y-130413095D02*
X113307761Y-130365476D01*
X113355380Y-130413095D01*
X113307761Y-130460714D01*
X113260142Y-130413095D01*
X113355380Y-130413095D01*
X113355380Y-128651190D02*
X113355380Y-129222619D01*
X113355380Y-128936904D02*
X112355380Y-128936904D01*
X112498238Y-129032142D01*
X112593476Y-129127380D01*
X112641095Y-129222619D01*
X112355380Y-127746428D02*
X112355380Y-128222619D01*
X112831571Y-128270238D01*
X112783952Y-128222619D01*
X112736333Y-128127380D01*
X112736333Y-127889285D01*
X112783952Y-127794047D01*
X112831571Y-127746428D01*
X112926809Y-127698809D01*
X113164904Y-127698809D01*
X113260142Y-127746428D01*
X113307761Y-127794047D01*
X113355380Y-127889285D01*
X113355380Y-128127380D01*
X113307761Y-128222619D01*
X113260142Y-128270238D01*
X113069666Y-127317857D02*
X113069666Y-126841666D01*
X113355380Y-127413095D02*
X112355380Y-127079761D01*
X113355380Y-126746428D01*
X95631190Y-132342380D02*
X95631190Y-131675714D01*
X95631190Y-131770952D02*
X95678809Y-131723333D01*
X95774047Y-131675714D01*
X95916904Y-131675714D01*
X96012142Y-131723333D01*
X96059761Y-131818571D01*
X96059761Y-132342380D01*
X96059761Y-131818571D02*
X96107380Y-131723333D01*
X96202619Y-131675714D01*
X96345476Y-131675714D01*
X96440714Y-131723333D01*
X96488333Y-131818571D01*
X96488333Y-132342380D01*
X97393095Y-132342380D02*
X97393095Y-131818571D01*
X97345476Y-131723333D01*
X97250238Y-131675714D01*
X97059761Y-131675714D01*
X96964523Y-131723333D01*
X97393095Y-132294761D02*
X97297857Y-132342380D01*
X97059761Y-132342380D01*
X96964523Y-132294761D01*
X96916904Y-132199523D01*
X96916904Y-132104285D01*
X96964523Y-132009047D01*
X97059761Y-131961428D01*
X97297857Y-131961428D01*
X97393095Y-131913809D01*
X97774047Y-132342380D02*
X98297857Y-131675714D01*
X97774047Y-131675714D02*
X98297857Y-132342380D01*
X98678809Y-132247142D02*
X98726428Y-132294761D01*
X98678809Y-132342380D01*
X98631190Y-132294761D01*
X98678809Y-132247142D01*
X98678809Y-132342380D01*
X93869285Y-133087619D02*
X93916904Y-133040000D01*
X94012142Y-132992380D01*
X94250238Y-132992380D01*
X94345476Y-133040000D01*
X94393095Y-133087619D01*
X94440714Y-133182857D01*
X94440714Y-133278095D01*
X94393095Y-133420952D01*
X93821666Y-133992380D01*
X94440714Y-133992380D01*
X94774047Y-132992380D02*
X95393095Y-132992380D01*
X95059761Y-133373333D01*
X95202619Y-133373333D01*
X95297857Y-133420952D01*
X95345476Y-133468571D01*
X95393095Y-133563809D01*
X95393095Y-133801904D01*
X95345476Y-133897142D01*
X95297857Y-133944761D01*
X95202619Y-133992380D01*
X94916904Y-133992380D01*
X94821666Y-133944761D01*
X94774047Y-133897142D01*
X96012142Y-132992380D02*
X96107380Y-132992380D01*
X96202619Y-133040000D01*
X96250238Y-133087619D01*
X96297857Y-133182857D01*
X96345476Y-133373333D01*
X96345476Y-133611428D01*
X96297857Y-133801904D01*
X96250238Y-133897142D01*
X96202619Y-133944761D01*
X96107380Y-133992380D01*
X96012142Y-133992380D01*
X95916904Y-133944761D01*
X95869285Y-133897142D01*
X95821666Y-133801904D01*
X95774047Y-133611428D01*
X95774047Y-133373333D01*
X95821666Y-133182857D01*
X95869285Y-133087619D01*
X95916904Y-133040000D01*
X96012142Y-132992380D01*
X96631190Y-132992380D02*
X96964523Y-133992380D01*
X97297857Y-132992380D01*
X97678809Y-133944761D02*
X97678809Y-133992380D01*
X97631190Y-134087619D01*
X97583571Y-134135238D01*
X98631190Y-133992380D02*
X98059761Y-133992380D01*
X98345476Y-133992380D02*
X98345476Y-132992380D01*
X98250238Y-133135238D01*
X98155000Y-133230476D01*
X98059761Y-133278095D01*
X99535952Y-132992380D02*
X99059761Y-132992380D01*
X99012142Y-133468571D01*
X99059761Y-133420952D01*
X99155000Y-133373333D01*
X99393095Y-133373333D01*
X99488333Y-133420952D01*
X99535952Y-133468571D01*
X99583571Y-133563809D01*
X99583571Y-133801904D01*
X99535952Y-133897142D01*
X99488333Y-133944761D01*
X99393095Y-133992380D01*
X99155000Y-133992380D01*
X99059761Y-133944761D01*
X99012142Y-133897142D01*
X99964523Y-133706666D02*
X100440714Y-133706666D01*
X99869285Y-133992380D02*
X100202619Y-132992380D01*
X100535952Y-133992380D01*
X83200952Y-125357380D02*
X82629523Y-125357380D01*
X82915238Y-125357380D02*
X82915238Y-124357380D01*
X82820000Y-124500238D01*
X82724761Y-124595476D01*
X82629523Y-124643095D01*
X84105714Y-124357380D02*
X83629523Y-124357380D01*
X83581904Y-124833571D01*
X83629523Y-124785952D01*
X83724761Y-124738333D01*
X83962857Y-124738333D01*
X84058095Y-124785952D01*
X84105714Y-124833571D01*
X84153333Y-124928809D01*
X84153333Y-125166904D01*
X84105714Y-125262142D01*
X84058095Y-125309761D01*
X83962857Y-125357380D01*
X83724761Y-125357380D01*
X83629523Y-125309761D01*
X83581904Y-125262142D01*
X84534285Y-125071666D02*
X85010476Y-125071666D01*
X84439047Y-125357380D02*
X84772380Y-124357380D01*
X85105714Y-125357380D01*
X82296190Y-127007380D02*
X82296190Y-126340714D01*
X82296190Y-126435952D02*
X82343809Y-126388333D01*
X82439047Y-126340714D01*
X82581904Y-126340714D01*
X82677142Y-126388333D01*
X82724761Y-126483571D01*
X82724761Y-127007380D01*
X82724761Y-126483571D02*
X82772380Y-126388333D01*
X82867619Y-126340714D01*
X83010476Y-126340714D01*
X83105714Y-126388333D01*
X83153333Y-126483571D01*
X83153333Y-127007380D01*
X84058095Y-127007380D02*
X84058095Y-126483571D01*
X84010476Y-126388333D01*
X83915238Y-126340714D01*
X83724761Y-126340714D01*
X83629523Y-126388333D01*
X84058095Y-126959761D02*
X83962857Y-127007380D01*
X83724761Y-127007380D01*
X83629523Y-126959761D01*
X83581904Y-126864523D01*
X83581904Y-126769285D01*
X83629523Y-126674047D01*
X83724761Y-126626428D01*
X83962857Y-126626428D01*
X84058095Y-126578809D01*
X84439047Y-127007380D02*
X84962857Y-126340714D01*
X84439047Y-126340714D02*
X84962857Y-127007380D01*
X85343809Y-126912142D02*
X85391428Y-126959761D01*
X85343809Y-127007380D01*
X85296190Y-126959761D01*
X85343809Y-126912142D01*
X85343809Y-127007380D01*
D13*
X68782880Y-132984190D02*
X67782880Y-132984190D01*
X67782880Y-132603238D01*
X67830500Y-132508000D01*
X67878119Y-132460380D01*
X67973357Y-132412761D01*
X68116214Y-132412761D01*
X68211452Y-132460380D01*
X68259071Y-132508000D01*
X68306690Y-132603238D01*
X68306690Y-132984190D01*
X68782880Y-131841333D02*
X68735261Y-131936571D01*
X68687642Y-131984190D01*
X68592404Y-132031809D01*
X68306690Y-132031809D01*
X68211452Y-131984190D01*
X68163833Y-131936571D01*
X68116214Y-131841333D01*
X68116214Y-131698476D01*
X68163833Y-131603238D01*
X68211452Y-131555619D01*
X68306690Y-131508000D01*
X68592404Y-131508000D01*
X68687642Y-131555619D01*
X68735261Y-131603238D01*
X68782880Y-131698476D01*
X68782880Y-131841333D01*
X68116214Y-131174666D02*
X68782880Y-130984190D01*
X68306690Y-130793714D01*
X68782880Y-130603238D01*
X68116214Y-130412761D01*
X68735261Y-129650857D02*
X68782880Y-129746095D01*
X68782880Y-129936571D01*
X68735261Y-130031809D01*
X68640023Y-130079428D01*
X68259071Y-130079428D01*
X68163833Y-130031809D01*
X68116214Y-129936571D01*
X68116214Y-129746095D01*
X68163833Y-129650857D01*
X68259071Y-129603238D01*
X68354309Y-129603238D01*
X68449547Y-130079428D01*
X68782880Y-129174666D02*
X68116214Y-129174666D01*
X68306690Y-129174666D02*
X68211452Y-129127047D01*
X68163833Y-129079428D01*
X68116214Y-128984190D01*
X68116214Y-128888952D01*
X68497166Y-127841333D02*
X68497166Y-127365142D01*
X68782880Y-127936571D02*
X67782880Y-127603238D01*
X68782880Y-127269904D01*
X68116214Y-126936571D02*
X68782880Y-126936571D01*
X68211452Y-126936571D02*
X68163833Y-126888952D01*
X68116214Y-126793714D01*
X68116214Y-126650857D01*
X68163833Y-126555619D01*
X68259071Y-126508000D01*
X68782880Y-126508000D01*
X68782880Y-125603238D02*
X68259071Y-125603238D01*
X68163833Y-125650857D01*
X68116214Y-125746095D01*
X68116214Y-125936571D01*
X68163833Y-126031809D01*
X68735261Y-125603238D02*
X68782880Y-125698476D01*
X68782880Y-125936571D01*
X68735261Y-126031809D01*
X68640023Y-126079428D01*
X68544785Y-126079428D01*
X68449547Y-126031809D01*
X68401928Y-125936571D01*
X68401928Y-125698476D01*
X68354309Y-125603238D01*
X68782880Y-124984190D02*
X68735261Y-125079428D01*
X68640023Y-125127047D01*
X67782880Y-125127047D01*
X68116214Y-124698476D02*
X68782880Y-124460380D01*
X68116214Y-124222285D02*
X68782880Y-124460380D01*
X69020976Y-124555619D01*
X69068595Y-124603238D01*
X69116214Y-124698476D01*
X68116214Y-123936571D02*
X68116214Y-123412761D01*
X68782880Y-123936571D01*
X68782880Y-123412761D01*
X68735261Y-122650857D02*
X68782880Y-122746095D01*
X68782880Y-122936571D01*
X68735261Y-123031809D01*
X68640023Y-123079428D01*
X68259071Y-123079428D01*
X68163833Y-123031809D01*
X68116214Y-122936571D01*
X68116214Y-122746095D01*
X68163833Y-122650857D01*
X68259071Y-122603238D01*
X68354309Y-122603238D01*
X68449547Y-123079428D01*
X68782880Y-122174666D02*
X68116214Y-122174666D01*
X68306690Y-122174666D02*
X68211452Y-122127047D01*
X68163833Y-122079428D01*
X68116214Y-121984190D01*
X68116214Y-121888952D01*
X70297880Y-129817523D02*
X69821690Y-130150857D01*
X70297880Y-130388952D02*
X69297880Y-130388952D01*
X69297880Y-130008000D01*
X69345500Y-129912761D01*
X69393119Y-129865142D01*
X69488357Y-129817523D01*
X69631214Y-129817523D01*
X69726452Y-129865142D01*
X69774071Y-129912761D01*
X69821690Y-130008000D01*
X69821690Y-130388952D01*
X70250261Y-129008000D02*
X70297880Y-129103238D01*
X70297880Y-129293714D01*
X70250261Y-129388952D01*
X70155023Y-129436571D01*
X69774071Y-129436571D01*
X69678833Y-129388952D01*
X69631214Y-129293714D01*
X69631214Y-129103238D01*
X69678833Y-129008000D01*
X69774071Y-128960380D01*
X69869309Y-128960380D01*
X69964547Y-129436571D01*
X69631214Y-128627047D02*
X70297880Y-128388952D01*
X69631214Y-128150857D01*
X70202642Y-127769904D02*
X70250261Y-127722285D01*
X70297880Y-127769904D01*
X70250261Y-127817523D01*
X70202642Y-127769904D01*
X70297880Y-127769904D01*
X69393119Y-126579428D02*
X69345500Y-126531809D01*
X69297880Y-126436571D01*
X69297880Y-126198476D01*
X69345500Y-126103238D01*
X69393119Y-126055619D01*
X69488357Y-126008000D01*
X69583595Y-126008000D01*
X69726452Y-126055619D01*
X70297880Y-126627047D01*
X70297880Y-126008000D01*
X70202642Y-125579428D02*
X70250261Y-125531809D01*
X70297880Y-125579428D01*
X70250261Y-125627047D01*
X70202642Y-125579428D01*
X70297880Y-125579428D01*
X69297880Y-124912761D02*
X69297880Y-124817523D01*
X69345500Y-124722285D01*
X69393119Y-124674666D01*
X69488357Y-124627047D01*
X69678833Y-124579428D01*
X69916928Y-124579428D01*
X70107404Y-124627047D01*
X70202642Y-124674666D01*
X70250261Y-124722285D01*
X70297880Y-124817523D01*
X70297880Y-124912761D01*
X70250261Y-125008000D01*
X70202642Y-125055619D01*
X70107404Y-125103238D01*
X69916928Y-125150857D01*
X69678833Y-125150857D01*
X69488357Y-125103238D01*
X69393119Y-125055619D01*
X69345500Y-125008000D01*
X69297880Y-124912761D01*
D14*
X100000000Y-184310000D02*
X98940000Y-184310000D01*
X98940000Y-184310000D02*
X98940000Y-183250000D01*
X98940000Y-182250000D02*
X98940000Y-172190000D01*
X101060000Y-172190000D02*
X98940000Y-172190000D01*
X101060000Y-182250000D02*
X101060000Y-172190000D01*
X101060000Y-182250000D02*
X98940000Y-182250000D01*
X68383748Y-162820000D02*
X68906252Y-162820000D01*
X68383748Y-161400000D02*
X68906252Y-161400000D01*
X68320000Y-169400000D02*
X68320000Y-168070000D01*
X69650000Y-169400000D02*
X68320000Y-169400000D01*
X68320000Y-166800000D02*
X68320000Y-164200000D01*
X70920000Y-166800000D02*
X68320000Y-166800000D01*
X70920000Y-169400000D02*
X70920000Y-166800000D01*
X68320000Y-164200000D02*
X78600000Y-164200000D01*
X70920000Y-169400000D02*
X78600000Y-169400000D01*
X78600000Y-169400000D02*
X78600000Y-164200000D01*
X110545000Y-121088000D02*
X101545000Y-121088000D01*
X101545000Y-121088000D02*
X101545000Y-144088000D01*
X101545000Y-144088000D02*
X110545000Y-144088000D01*
X110545000Y-144088000D02*
X110545000Y-121088000D01*
D15*
X124450000Y-142470000D02*
X121870000Y-142470000D01*
X121870000Y-153130000D02*
X113450000Y-153130000D01*
X113450000Y-153130000D02*
X113450000Y-171030000D01*
X113450000Y-171030000D02*
X121870000Y-171030000D01*
X121870000Y-177470000D02*
X124450000Y-177470000D01*
D16*
X125250000Y-146000000D02*
G75*
G03X125250000Y-146000000I-100000J0D01*
G01*
D15*
X121870000Y-142470000D02*
X121870000Y-144984000D01*
X121870000Y-147016000D02*
X121870000Y-150064000D01*
X121870000Y-153130000D02*
X121870000Y-152096000D01*
X124450000Y-142470000D02*
X124450000Y-177470000D01*
X121870000Y-171030000D02*
X121870000Y-173300000D01*
X121870000Y-177470000D02*
X121870000Y-174850000D01*
D14*
X75511252Y-145710000D02*
X74988748Y-145710000D01*
X75511252Y-144290000D02*
X74988748Y-144290000D01*
D11*
X92710000Y-188214000D02*
X92710000Y-189484000D01*
X92710000Y-189484000D02*
X85090000Y-189484000D01*
X85090000Y-189484000D02*
X85090000Y-188214000D01*
X92710000Y-183134000D02*
X85090000Y-183134000D01*
X85090000Y-183134000D02*
X85090000Y-188214000D01*
X92710000Y-183134000D02*
X92710000Y-188214000D01*
X87630000Y-155702000D02*
X90170000Y-155702000D01*
X90170000Y-155702000D02*
X90170000Y-160274000D01*
X90170000Y-160274000D02*
X87630000Y-160274000D01*
X87630000Y-160274000D02*
X87630000Y-155702000D01*
X93980000Y-165989000D02*
X83820000Y-165989000D01*
X83820000Y-176149000D02*
X93980000Y-176149000D01*
X83820000Y-165989000D02*
X83820000Y-176149000D01*
X93980000Y-165989000D02*
X93980000Y-176149000D01*
X80010000Y-188214000D02*
X80010000Y-152654000D01*
X80010000Y-152654000D02*
X97790000Y-152654000D01*
X97790000Y-152654000D02*
X97790000Y-188214000D01*
X97790000Y-188214000D02*
X80010000Y-188214000D01*
X83820000Y-165354000D02*
X83820000Y-162814000D01*
X83820000Y-162814000D02*
X86995000Y-162814000D01*
X86995000Y-162814000D02*
X86995000Y-165354000D01*
X86995000Y-165354000D02*
X83820000Y-165354000D01*
D17*
G36*
X88265000Y-173609000D02*
G01*
X88011000Y-173355000D01*
X88392000Y-173101000D01*
X88646000Y-173355000D01*
X88265000Y-173609000D01*
G37*
X88265000Y-173609000D02*
X88011000Y-173355000D01*
X88392000Y-173101000D01*
X88646000Y-173355000D01*
X88265000Y-173609000D01*
G36*
X88773000Y-173228000D02*
G01*
X88519000Y-172974000D01*
X88900000Y-172720000D01*
X89154000Y-172974000D01*
X88773000Y-173228000D01*
G37*
X88773000Y-173228000D02*
X88519000Y-172974000D01*
X88900000Y-172720000D01*
X89154000Y-172974000D01*
X88773000Y-173228000D01*
G36*
X89281000Y-172847000D02*
G01*
X89027000Y-172593000D01*
X89408000Y-172339000D01*
X89662000Y-172593000D01*
X89281000Y-172847000D01*
G37*
X89281000Y-172847000D02*
X89027000Y-172593000D01*
X89408000Y-172339000D01*
X89662000Y-172593000D01*
X89281000Y-172847000D01*
G36*
X88392000Y-172847000D02*
G01*
X88138000Y-172593000D01*
X88519000Y-172339000D01*
X88773000Y-172593000D01*
X88392000Y-172847000D01*
G37*
X88392000Y-172847000D02*
X88138000Y-172593000D01*
X88519000Y-172339000D01*
X88773000Y-172593000D01*
X88392000Y-172847000D01*
G36*
X88900000Y-172466000D02*
G01*
X88646000Y-172212000D01*
X89027000Y-171958000D01*
X89281000Y-172212000D01*
X88900000Y-172466000D01*
G37*
X88900000Y-172466000D02*
X88646000Y-172212000D01*
X89027000Y-171958000D01*
X89281000Y-172212000D01*
X88900000Y-172466000D01*
G36*
X89408000Y-172085000D02*
G01*
X89154000Y-171831000D01*
X89535000Y-171577000D01*
X89789000Y-171831000D01*
X89408000Y-172085000D01*
G37*
X89408000Y-172085000D02*
X89154000Y-171831000D01*
X89535000Y-171577000D01*
X89789000Y-171831000D01*
X89408000Y-172085000D01*
G36*
X88646000Y-173990000D02*
G01*
X88392000Y-173736000D01*
X88773000Y-173482000D01*
X89027000Y-173736000D01*
X88646000Y-173990000D01*
G37*
X88646000Y-173990000D02*
X88392000Y-173736000D01*
X88773000Y-173482000D01*
X89027000Y-173736000D01*
X88646000Y-173990000D01*
G36*
X89027000Y-174371000D02*
G01*
X88773000Y-174117000D01*
X89154000Y-173863000D01*
X89408000Y-174117000D01*
X89027000Y-174371000D01*
G37*
X89027000Y-174371000D02*
X88773000Y-174117000D01*
X89154000Y-173863000D01*
X89408000Y-174117000D01*
X89027000Y-174371000D01*
D14*
X93490000Y-146538748D02*
X93490000Y-147061252D01*
X94910000Y-146538748D02*
X94910000Y-147061252D01*
X79470000Y-154741252D02*
X79470000Y-154218748D01*
X78050000Y-154741252D02*
X78050000Y-154218748D01*
X88440000Y-147690000D02*
X88440000Y-145740000D01*
X88440000Y-147690000D02*
X88440000Y-149640000D01*
X78320000Y-147690000D02*
X78320000Y-145740000D01*
X78320000Y-147690000D02*
X78320000Y-151140000D01*
X119355000Y-123765000D02*
X119355000Y-123865000D01*
X119355000Y-124765000D02*
X119355000Y-123865000D01*
X113055000Y-123765000D02*
X119355000Y-123765000D01*
X113055000Y-124765000D02*
X113055000Y-123765000D01*
X119355000Y-124765000D02*
X113055000Y-124765000D01*
X112830000Y-150672646D02*
X113830000Y-150672646D01*
X113330000Y-151172646D02*
X113330000Y-150172646D01*
X115606000Y-140612000D02*
X116804000Y-140612000D01*
X115343000Y-140652000D02*
X117067000Y-140652000D01*
X115143000Y-140692000D02*
X117267000Y-140692000D01*
X114975000Y-140732000D02*
X117435000Y-140732000D01*
X114827000Y-140772000D02*
X117583000Y-140772000D01*
X114695000Y-140812000D02*
X117715000Y-140812000D01*
X114575000Y-140852000D02*
X117835000Y-140852000D01*
X114463000Y-140892000D02*
X117947000Y-140892000D01*
X114359000Y-140932000D02*
X118051000Y-140932000D01*
X114261000Y-140972000D02*
X118149000Y-140972000D01*
X114168000Y-141012000D02*
X118242000Y-141012000D01*
X114080000Y-141052000D02*
X118330000Y-141052000D01*
X113996000Y-141092000D02*
X118414000Y-141092000D01*
X113916000Y-141132000D02*
X118494000Y-141132000D01*
X113840000Y-141172000D02*
X118570000Y-141172000D01*
X113766000Y-141212000D02*
X118644000Y-141212000D01*
X113695000Y-141252000D02*
X118715000Y-141252000D01*
X113626000Y-141292000D02*
X118784000Y-141292000D01*
X113560000Y-141332000D02*
X118850000Y-141332000D01*
X113496000Y-141372000D02*
X118914000Y-141372000D01*
X113435000Y-141412000D02*
X118975000Y-141412000D01*
X113375000Y-141452000D02*
X119035000Y-141452000D01*
X113316000Y-141492000D02*
X119094000Y-141492000D01*
X113260000Y-141532000D02*
X119150000Y-141532000D01*
X113205000Y-141572000D02*
X119205000Y-141572000D01*
X113151000Y-141612000D02*
X119259000Y-141612000D01*
X113099000Y-141652000D02*
X119311000Y-141652000D01*
X113049000Y-141692000D02*
X119361000Y-141692000D01*
X112999000Y-141732000D02*
X119411000Y-141732000D01*
X112951000Y-141772000D02*
X119459000Y-141772000D01*
X112904000Y-141812000D02*
X119506000Y-141812000D01*
X112858000Y-141852000D02*
X119552000Y-141852000D01*
X112813000Y-141892000D02*
X119597000Y-141892000D01*
X112769000Y-141932000D02*
X119641000Y-141932000D01*
X117446000Y-141972000D02*
X119683000Y-141972000D01*
X112727000Y-141972000D02*
X114964000Y-141972000D01*
X117446000Y-142012000D02*
X119725000Y-142012000D01*
X112685000Y-142012000D02*
X114964000Y-142012000D01*
X117446000Y-142052000D02*
X119766000Y-142052000D01*
X112644000Y-142052000D02*
X114964000Y-142052000D01*
X117446000Y-142092000D02*
X119806000Y-142092000D01*
X112604000Y-142092000D02*
X114964000Y-142092000D01*
X117446000Y-142132000D02*
X119845000Y-142132000D01*
X112565000Y-142132000D02*
X114964000Y-142132000D01*
X117446000Y-142172000D02*
X119884000Y-142172000D01*
X112526000Y-142172000D02*
X114964000Y-142172000D01*
X117446000Y-142212000D02*
X119921000Y-142212000D01*
X112489000Y-142212000D02*
X114964000Y-142212000D01*
X117446000Y-142252000D02*
X119958000Y-142252000D01*
X112452000Y-142252000D02*
X114964000Y-142252000D01*
X117446000Y-142292000D02*
X119994000Y-142292000D01*
X112416000Y-142292000D02*
X114964000Y-142292000D01*
X117446000Y-142332000D02*
X120029000Y-142332000D01*
X112381000Y-142332000D02*
X114964000Y-142332000D01*
X117446000Y-142372000D02*
X120063000Y-142372000D01*
X112347000Y-142372000D02*
X114964000Y-142372000D01*
X117446000Y-142412000D02*
X120097000Y-142412000D01*
X112313000Y-142412000D02*
X114964000Y-142412000D01*
X117446000Y-142452000D02*
X120130000Y-142452000D01*
X112280000Y-142452000D02*
X114964000Y-142452000D01*
X117446000Y-142492000D02*
X120162000Y-142492000D01*
X112248000Y-142492000D02*
X114964000Y-142492000D01*
X117446000Y-142532000D02*
X120194000Y-142532000D01*
X112216000Y-142532000D02*
X114964000Y-142532000D01*
X117446000Y-142572000D02*
X120225000Y-142572000D01*
X112185000Y-142572000D02*
X114964000Y-142572000D01*
X117446000Y-142612000D02*
X120255000Y-142612000D01*
X112155000Y-142612000D02*
X114964000Y-142612000D01*
X117446000Y-142652000D02*
X120285000Y-142652000D01*
X112125000Y-142652000D02*
X114964000Y-142652000D01*
X117446000Y-142692000D02*
X120315000Y-142692000D01*
X112095000Y-142692000D02*
X114964000Y-142692000D01*
X117446000Y-142732000D02*
X120343000Y-142732000D01*
X112067000Y-142732000D02*
X114964000Y-142732000D01*
X117446000Y-142772000D02*
X120371000Y-142772000D01*
X112039000Y-142772000D02*
X114964000Y-142772000D01*
X117446000Y-142812000D02*
X120399000Y-142812000D01*
X112011000Y-142812000D02*
X114964000Y-142812000D01*
X117446000Y-142852000D02*
X120426000Y-142852000D01*
X111984000Y-142852000D02*
X114964000Y-142852000D01*
X117446000Y-142892000D02*
X120452000Y-142892000D01*
X111958000Y-142892000D02*
X114964000Y-142892000D01*
X117446000Y-142932000D02*
X120478000Y-142932000D01*
X111932000Y-142932000D02*
X114964000Y-142932000D01*
X117446000Y-142972000D02*
X120503000Y-142972000D01*
X111907000Y-142972000D02*
X114964000Y-142972000D01*
X117446000Y-143012000D02*
X120528000Y-143012000D01*
X111882000Y-143012000D02*
X114964000Y-143012000D01*
X117446000Y-143052000D02*
X120552000Y-143052000D01*
X111858000Y-143052000D02*
X114964000Y-143052000D01*
X117446000Y-143092000D02*
X120576000Y-143092000D01*
X111834000Y-143092000D02*
X114964000Y-143092000D01*
X117446000Y-143132000D02*
X120600000Y-143132000D01*
X111810000Y-143132000D02*
X114964000Y-143132000D01*
X117446000Y-143172000D02*
X120622000Y-143172000D01*
X111788000Y-143172000D02*
X114964000Y-143172000D01*
X117446000Y-143212000D02*
X120645000Y-143212000D01*
X111765000Y-143212000D02*
X114964000Y-143212000D01*
X117446000Y-143252000D02*
X120667000Y-143252000D01*
X111743000Y-143252000D02*
X114964000Y-143252000D01*
X117446000Y-143292000D02*
X120688000Y-143292000D01*
X111722000Y-143292000D02*
X114964000Y-143292000D01*
X117446000Y-143332000D02*
X120709000Y-143332000D01*
X111701000Y-143332000D02*
X114964000Y-143332000D01*
X117446000Y-143372000D02*
X120730000Y-143372000D01*
X111680000Y-143372000D02*
X114964000Y-143372000D01*
X117446000Y-143412000D02*
X120750000Y-143412000D01*
X111660000Y-143412000D02*
X114964000Y-143412000D01*
X117446000Y-143452000D02*
X120769000Y-143452000D01*
X111641000Y-143452000D02*
X114964000Y-143452000D01*
X117446000Y-143492000D02*
X120789000Y-143492000D01*
X111621000Y-143492000D02*
X114964000Y-143492000D01*
X117446000Y-143532000D02*
X120808000Y-143532000D01*
X111602000Y-143532000D02*
X114964000Y-143532000D01*
X117446000Y-143572000D02*
X120826000Y-143572000D01*
X111584000Y-143572000D02*
X114964000Y-143572000D01*
X117446000Y-143612000D02*
X120844000Y-143612000D01*
X111566000Y-143612000D02*
X114964000Y-143612000D01*
X117446000Y-143652000D02*
X120862000Y-143652000D01*
X111548000Y-143652000D02*
X114964000Y-143652000D01*
X117446000Y-143692000D02*
X120879000Y-143692000D01*
X111531000Y-143692000D02*
X114964000Y-143692000D01*
X117446000Y-143732000D02*
X120895000Y-143732000D01*
X111515000Y-143732000D02*
X114964000Y-143732000D01*
X117446000Y-143772000D02*
X120912000Y-143772000D01*
X111498000Y-143772000D02*
X114964000Y-143772000D01*
X117446000Y-143812000D02*
X120928000Y-143812000D01*
X111482000Y-143812000D02*
X114964000Y-143812000D01*
X117446000Y-143852000D02*
X120943000Y-143852000D01*
X111467000Y-143852000D02*
X114964000Y-143852000D01*
X117446000Y-143892000D02*
X120959000Y-143892000D01*
X111451000Y-143892000D02*
X114964000Y-143892000D01*
X117446000Y-143932000D02*
X120973000Y-143932000D01*
X111437000Y-143932000D02*
X114964000Y-143932000D01*
X117446000Y-143972000D02*
X120988000Y-143972000D01*
X111422000Y-143972000D02*
X114964000Y-143972000D01*
X117446000Y-144012000D02*
X121002000Y-144012000D01*
X111408000Y-144012000D02*
X114964000Y-144012000D01*
X117446000Y-144052000D02*
X121016000Y-144052000D01*
X111394000Y-144052000D02*
X114964000Y-144052000D01*
X117446000Y-144092000D02*
X121029000Y-144092000D01*
X111381000Y-144092000D02*
X114964000Y-144092000D01*
X117446000Y-144132000D02*
X121042000Y-144132000D01*
X111368000Y-144132000D02*
X114964000Y-144132000D01*
X117446000Y-144172000D02*
X121055000Y-144172000D01*
X111355000Y-144172000D02*
X114964000Y-144172000D01*
X117446000Y-144212000D02*
X121067000Y-144212000D01*
X111343000Y-144212000D02*
X114964000Y-144212000D01*
X117446000Y-144252000D02*
X121079000Y-144252000D01*
X111331000Y-144252000D02*
X114964000Y-144252000D01*
X117446000Y-144292000D02*
X121090000Y-144292000D01*
X111320000Y-144292000D02*
X114964000Y-144292000D01*
X117446000Y-144332000D02*
X121102000Y-144332000D01*
X111308000Y-144332000D02*
X114964000Y-144332000D01*
X117446000Y-144372000D02*
X121112000Y-144372000D01*
X111298000Y-144372000D02*
X114964000Y-144372000D01*
X117446000Y-144412000D02*
X121123000Y-144412000D01*
X111287000Y-144412000D02*
X114964000Y-144412000D01*
X111277000Y-144452000D02*
X121133000Y-144452000D01*
X111267000Y-144492000D02*
X121143000Y-144492000D01*
X111258000Y-144532000D02*
X121152000Y-144532000D01*
X111249000Y-144572000D02*
X121161000Y-144572000D01*
X111240000Y-144612000D02*
X121170000Y-144612000D01*
X111231000Y-144652000D02*
X121179000Y-144652000D01*
X111223000Y-144692000D02*
X121187000Y-144692000D01*
X111215000Y-144732000D02*
X121195000Y-144732000D01*
X111208000Y-144772000D02*
X121202000Y-144772000D01*
X111201000Y-144812000D02*
X121209000Y-144812000D01*
X111194000Y-144852000D02*
X121216000Y-144852000D01*
X111187000Y-144892000D02*
X121223000Y-144892000D01*
X111181000Y-144932000D02*
X121229000Y-144932000D01*
X111175000Y-144972000D02*
X121235000Y-144972000D01*
X111170000Y-145013000D02*
X121240000Y-145013000D01*
X111165000Y-145053000D02*
X121245000Y-145053000D01*
X111160000Y-145093000D02*
X121250000Y-145093000D01*
X111155000Y-145133000D02*
X121255000Y-145133000D01*
X111151000Y-145173000D02*
X121259000Y-145173000D01*
X111147000Y-145213000D02*
X121263000Y-145213000D01*
X111143000Y-145253000D02*
X121267000Y-145253000D01*
X111140000Y-145293000D02*
X121270000Y-145293000D01*
X111137000Y-145333000D02*
X121273000Y-145333000D01*
X111135000Y-145373000D02*
X121275000Y-145373000D01*
X111132000Y-145413000D02*
X121278000Y-145413000D01*
X111130000Y-145453000D02*
X121280000Y-145453000D01*
X111128000Y-145493000D02*
X121282000Y-145493000D01*
X111127000Y-145533000D02*
X121283000Y-145533000D01*
X111126000Y-145573000D02*
X121284000Y-145573000D01*
X111125000Y-145613000D02*
X121285000Y-145613000D01*
X111125000Y-145653000D02*
X121285000Y-145653000D01*
X111125000Y-145693000D02*
X121285000Y-145693000D01*
X121325000Y-145693000D02*
G75*
G03X121325000Y-145693000I-5120000J0D01*
G01*
X77450000Y-154528000D02*
X77450000Y-150668000D01*
X77450000Y-150668000D02*
X77195000Y-150668000D01*
X77450000Y-154528000D02*
X77450000Y-158388000D01*
X77450000Y-158388000D02*
X77195000Y-158388000D01*
X66930000Y-154528000D02*
X66930000Y-150668000D01*
X66930000Y-150668000D02*
X67185000Y-150668000D01*
X66930000Y-154528000D02*
X66930000Y-158388000D01*
X66930000Y-158388000D02*
X67185000Y-158388000D01*
X67185000Y-158388000D02*
X67185000Y-160203000D01*
X97290000Y-122515000D02*
X97390000Y-122515000D01*
X98290000Y-122515000D02*
X97390000Y-122515000D01*
X97290000Y-128815000D02*
X97290000Y-122515000D01*
X98290000Y-128815000D02*
X97290000Y-128815000D01*
X98290000Y-122515000D02*
X98290000Y-128815000D01*
X87168100Y-122311800D02*
X87268100Y-122311800D01*
X88168100Y-122311800D02*
X87268100Y-122311800D01*
X87168100Y-128611800D02*
X87168100Y-122311800D01*
X88168100Y-128611800D02*
X87168100Y-128611800D01*
X88168100Y-122311800D02*
X88168100Y-128611800D01*
X80510000Y-128624500D02*
X80410000Y-128624500D01*
X79510000Y-128624500D02*
X80410000Y-128624500D01*
X80510000Y-122324500D02*
X80510000Y-128624500D01*
X79510000Y-122324500D02*
X80510000Y-122324500D01*
X79510000Y-128624500D02*
X79510000Y-122324500D01*
X97736252Y-146510000D02*
X97213748Y-146510000D01*
X97736252Y-145090000D02*
X97213748Y-145090000D01*
X88863000Y-132483000D02*
X88863000Y-130668000D01*
X89118000Y-132483000D02*
X88863000Y-132483000D01*
X89118000Y-136343000D02*
X89118000Y-132483000D01*
X89118000Y-140203000D02*
X88863000Y-140203000D01*
X89118000Y-136343000D02*
X89118000Y-140203000D01*
X78598000Y-132483000D02*
X78853000Y-132483000D01*
X78598000Y-136343000D02*
X78598000Y-132483000D01*
X78598000Y-140203000D02*
X78853000Y-140203000D01*
X78598000Y-136343000D02*
X78598000Y-140203000D01*
X68488748Y-145960000D02*
X69011252Y-145960000D01*
X68488748Y-147380000D02*
X69011252Y-147380000D01*
X97736252Y-147090000D02*
X97213748Y-147090000D01*
X97736252Y-148510000D02*
X97213748Y-148510000D01*
X109000000Y-147429000D02*
X109000000Y-148199000D01*
X109000000Y-155509000D02*
X109000000Y-154739000D01*
X107630000Y-148199000D02*
X107630000Y-154739000D01*
X110370000Y-148199000D02*
X107630000Y-148199000D01*
X110370000Y-154739000D02*
X110370000Y-148199000D01*
X107630000Y-154739000D02*
X110370000Y-154739000D01*
X102290000Y-154739000D02*
X105030000Y-154739000D01*
X105030000Y-154739000D02*
X105030000Y-148199000D01*
X105030000Y-148199000D02*
X102290000Y-148199000D01*
X102290000Y-148199000D02*
X102290000Y-154739000D01*
X103660000Y-155509000D02*
X103660000Y-154739000D01*
X103660000Y-147429000D02*
X103660000Y-148199000D01*
X107630000Y-168940000D02*
X110370000Y-168940000D01*
X110370000Y-168940000D02*
X110370000Y-162400000D01*
X110370000Y-162400000D02*
X107630000Y-162400000D01*
X107630000Y-162400000D02*
X107630000Y-168940000D01*
X109000000Y-169710000D02*
X109000000Y-168940000D01*
X109000000Y-161630000D02*
X109000000Y-162400000D01*
X103660000Y-161653000D02*
X103660000Y-162423000D01*
X103660000Y-169733000D02*
X103660000Y-168963000D01*
X102290000Y-162423000D02*
X102290000Y-168963000D01*
X105030000Y-162423000D02*
X102290000Y-162423000D01*
X105030000Y-168963000D02*
X105030000Y-162423000D01*
X102290000Y-168963000D02*
X105030000Y-168963000D01*
X99861252Y-150910000D02*
X99338748Y-150910000D01*
X99861252Y-149490000D02*
X99338748Y-149490000D01*
D11*
X116300000Y-139950000D02*
X123300000Y-139950000D01*
X116300000Y-134250000D02*
X123300000Y-134250000D01*
X123300000Y-134250000D02*
X123300000Y-139950000D01*
X116300000Y-134250000D02*
X116300000Y-139950000D01*
D14*
X114270000Y-176250000D02*
G75*
G03X114270000Y-176250000I-3270000J0D01*
G01*
X111000000Y-173020000D02*
X111000000Y-179480000D01*
X111040000Y-173020000D02*
X111040000Y-179480000D01*
X111080000Y-173020000D02*
X111080000Y-179480000D01*
X111120000Y-173022000D02*
X111120000Y-179478000D01*
X111160000Y-173023000D02*
X111160000Y-179477000D01*
X111200000Y-173026000D02*
X111200000Y-179474000D01*
X111240000Y-173028000D02*
X111240000Y-175210000D01*
X111240000Y-177290000D02*
X111240000Y-179472000D01*
X111280000Y-173032000D02*
X111280000Y-175210000D01*
X111280000Y-177290000D02*
X111280000Y-179468000D01*
X111320000Y-173035000D02*
X111320000Y-175210000D01*
X111320000Y-177290000D02*
X111320000Y-179465000D01*
X111360000Y-173039000D02*
X111360000Y-175210000D01*
X111360000Y-177290000D02*
X111360000Y-179461000D01*
X111400000Y-173044000D02*
X111400000Y-175210000D01*
X111400000Y-177290000D02*
X111400000Y-179456000D01*
X111440000Y-173049000D02*
X111440000Y-175210000D01*
X111440000Y-177290000D02*
X111440000Y-179451000D01*
X111480000Y-173055000D02*
X111480000Y-175210000D01*
X111480000Y-177290000D02*
X111480000Y-179445000D01*
X111520000Y-173061000D02*
X111520000Y-175210000D01*
X111520000Y-177290000D02*
X111520000Y-179439000D01*
X111560000Y-173068000D02*
X111560000Y-175210000D01*
X111560000Y-177290000D02*
X111560000Y-179432000D01*
X111600000Y-173075000D02*
X111600000Y-175210000D01*
X111600000Y-177290000D02*
X111600000Y-179425000D01*
X111640000Y-173083000D02*
X111640000Y-175210000D01*
X111640000Y-177290000D02*
X111640000Y-179417000D01*
X111680000Y-173091000D02*
X111680000Y-175210000D01*
X111680000Y-177290000D02*
X111680000Y-179409000D01*
X111721000Y-173100000D02*
X111721000Y-175210000D01*
X111721000Y-177290000D02*
X111721000Y-179400000D01*
X111761000Y-173109000D02*
X111761000Y-175210000D01*
X111761000Y-177290000D02*
X111761000Y-179391000D01*
X111801000Y-173119000D02*
X111801000Y-175210000D01*
X111801000Y-177290000D02*
X111801000Y-179381000D01*
X111841000Y-173129000D02*
X111841000Y-175210000D01*
X111841000Y-177290000D02*
X111841000Y-179371000D01*
X111881000Y-173140000D02*
X111881000Y-175210000D01*
X111881000Y-177290000D02*
X111881000Y-179360000D01*
X111921000Y-173152000D02*
X111921000Y-175210000D01*
X111921000Y-177290000D02*
X111921000Y-179348000D01*
X111961000Y-173164000D02*
X111961000Y-175210000D01*
X111961000Y-177290000D02*
X111961000Y-179336000D01*
X112001000Y-173176000D02*
X112001000Y-175210000D01*
X112001000Y-177290000D02*
X112001000Y-179324000D01*
X112041000Y-173189000D02*
X112041000Y-175210000D01*
X112041000Y-177290000D02*
X112041000Y-179311000D01*
X112081000Y-173203000D02*
X112081000Y-175210000D01*
X112081000Y-177290000D02*
X112081000Y-179297000D01*
X112121000Y-173217000D02*
X112121000Y-175210000D01*
X112121000Y-177290000D02*
X112121000Y-179283000D01*
X112161000Y-173232000D02*
X112161000Y-175210000D01*
X112161000Y-177290000D02*
X112161000Y-179268000D01*
X112201000Y-173248000D02*
X112201000Y-175210000D01*
X112201000Y-177290000D02*
X112201000Y-179252000D01*
X112241000Y-173264000D02*
X112241000Y-175210000D01*
X112241000Y-177290000D02*
X112241000Y-179236000D01*
X112281000Y-173280000D02*
X112281000Y-175210000D01*
X112281000Y-177290000D02*
X112281000Y-179220000D01*
X112321000Y-173298000D02*
X112321000Y-175210000D01*
X112321000Y-177290000D02*
X112321000Y-179202000D01*
X112361000Y-173316000D02*
X112361000Y-175210000D01*
X112361000Y-177290000D02*
X112361000Y-179184000D01*
X112401000Y-173334000D02*
X112401000Y-175210000D01*
X112401000Y-177290000D02*
X112401000Y-179166000D01*
X112441000Y-173354000D02*
X112441000Y-175210000D01*
X112441000Y-177290000D02*
X112441000Y-179146000D01*
X112481000Y-173374000D02*
X112481000Y-175210000D01*
X112481000Y-177290000D02*
X112481000Y-179126000D01*
X112521000Y-173394000D02*
X112521000Y-175210000D01*
X112521000Y-177290000D02*
X112521000Y-179106000D01*
X112561000Y-173416000D02*
X112561000Y-175210000D01*
X112561000Y-177290000D02*
X112561000Y-179084000D01*
X112601000Y-173438000D02*
X112601000Y-175210000D01*
X112601000Y-177290000D02*
X112601000Y-179062000D01*
X112641000Y-173460000D02*
X112641000Y-175210000D01*
X112641000Y-177290000D02*
X112641000Y-179040000D01*
X112681000Y-173484000D02*
X112681000Y-175210000D01*
X112681000Y-177290000D02*
X112681000Y-179016000D01*
X112721000Y-173508000D02*
X112721000Y-175210000D01*
X112721000Y-177290000D02*
X112721000Y-178992000D01*
X112761000Y-173534000D02*
X112761000Y-175210000D01*
X112761000Y-177290000D02*
X112761000Y-178966000D01*
X112801000Y-173560000D02*
X112801000Y-175210000D01*
X112801000Y-177290000D02*
X112801000Y-178940000D01*
X112841000Y-173586000D02*
X112841000Y-175210000D01*
X112841000Y-177290000D02*
X112841000Y-178914000D01*
X112881000Y-173614000D02*
X112881000Y-175210000D01*
X112881000Y-177290000D02*
X112881000Y-178886000D01*
X112921000Y-173643000D02*
X112921000Y-175210000D01*
X112921000Y-177290000D02*
X112921000Y-178857000D01*
X112961000Y-173672000D02*
X112961000Y-175210000D01*
X112961000Y-177290000D02*
X112961000Y-178828000D01*
X113001000Y-173702000D02*
X113001000Y-175210000D01*
X113001000Y-177290000D02*
X113001000Y-178798000D01*
X113041000Y-173734000D02*
X113041000Y-175210000D01*
X113041000Y-177290000D02*
X113041000Y-178766000D01*
X113081000Y-173766000D02*
X113081000Y-175210000D01*
X113081000Y-177290000D02*
X113081000Y-178734000D01*
X113121000Y-173800000D02*
X113121000Y-175210000D01*
X113121000Y-177290000D02*
X113121000Y-178700000D01*
X113161000Y-173834000D02*
X113161000Y-175210000D01*
X113161000Y-177290000D02*
X113161000Y-178666000D01*
X113201000Y-173870000D02*
X113201000Y-175210000D01*
X113201000Y-177290000D02*
X113201000Y-178630000D01*
X113241000Y-173907000D02*
X113241000Y-175210000D01*
X113241000Y-177290000D02*
X113241000Y-178593000D01*
X113281000Y-173945000D02*
X113281000Y-175210000D01*
X113281000Y-177290000D02*
X113281000Y-178555000D01*
X113321000Y-173985000D02*
X113321000Y-178515000D01*
X113361000Y-174026000D02*
X113361000Y-178474000D01*
X113401000Y-174068000D02*
X113401000Y-178432000D01*
X113441000Y-174113000D02*
X113441000Y-178387000D01*
X113481000Y-174158000D02*
X113481000Y-178342000D01*
X113521000Y-174206000D02*
X113521000Y-178294000D01*
X113561000Y-174255000D02*
X113561000Y-178245000D01*
X113601000Y-174306000D02*
X113601000Y-178194000D01*
X113641000Y-174360000D02*
X113641000Y-178140000D01*
X113681000Y-174416000D02*
X113681000Y-178084000D01*
X113721000Y-174474000D02*
X113721000Y-178026000D01*
X113761000Y-174536000D02*
X113761000Y-177964000D01*
X113801000Y-174600000D02*
X113801000Y-177900000D01*
X113841000Y-174669000D02*
X113841000Y-177831000D01*
X113881000Y-174741000D02*
X113881000Y-177759000D01*
X113921000Y-174818000D02*
X113921000Y-177682000D01*
X113961000Y-174900000D02*
X113961000Y-177600000D01*
X114001000Y-174988000D02*
X114001000Y-177512000D01*
X114041000Y-175085000D02*
X114041000Y-177415000D01*
X114081000Y-175191000D02*
X114081000Y-177309000D01*
X114121000Y-175310000D02*
X114121000Y-177190000D01*
X114161000Y-175448000D02*
X114161000Y-177052000D01*
X114201000Y-175617000D02*
X114201000Y-176883000D01*
X114241000Y-175848000D02*
X114241000Y-176652000D01*
X107499759Y-174411000D02*
X108129759Y-174411000D01*
X107814759Y-174096000D02*
X107814759Y-174726000D01*
X108685241Y-183154000D02*
X108685241Y-182524000D01*
X109000241Y-182839000D02*
X108370241Y-182839000D01*
X102259000Y-181402000D02*
X102259000Y-180598000D01*
X102299000Y-181633000D02*
X102299000Y-180367000D01*
X102339000Y-181802000D02*
X102339000Y-180198000D01*
X102379000Y-181940000D02*
X102379000Y-180060000D01*
X102419000Y-182059000D02*
X102419000Y-179941000D01*
X102459000Y-182165000D02*
X102459000Y-179835000D01*
X102499000Y-182262000D02*
X102499000Y-179738000D01*
X102539000Y-182350000D02*
X102539000Y-179650000D01*
X102579000Y-182432000D02*
X102579000Y-179568000D01*
X102619000Y-182509000D02*
X102619000Y-179491000D01*
X102659000Y-182581000D02*
X102659000Y-179419000D01*
X102699000Y-182650000D02*
X102699000Y-179350000D01*
X102739000Y-182714000D02*
X102739000Y-179286000D01*
X102779000Y-182776000D02*
X102779000Y-179224000D01*
X102819000Y-182834000D02*
X102819000Y-179166000D01*
X102859000Y-182890000D02*
X102859000Y-179110000D01*
X102899000Y-182944000D02*
X102899000Y-179056000D01*
X102939000Y-182995000D02*
X102939000Y-179005000D01*
X102979000Y-183044000D02*
X102979000Y-178956000D01*
X103019000Y-183092000D02*
X103019000Y-178908000D01*
X103059000Y-183137000D02*
X103059000Y-178863000D01*
X103099000Y-183182000D02*
X103099000Y-178818000D01*
X103139000Y-183224000D02*
X103139000Y-178776000D01*
X103179000Y-183265000D02*
X103179000Y-178735000D01*
X103219000Y-179960000D02*
X103219000Y-178695000D01*
X103219000Y-183305000D02*
X103219000Y-182040000D01*
X103259000Y-179960000D02*
X103259000Y-178657000D01*
X103259000Y-183343000D02*
X103259000Y-182040000D01*
X103299000Y-179960000D02*
X103299000Y-178620000D01*
X103299000Y-183380000D02*
X103299000Y-182040000D01*
X103339000Y-179960000D02*
X103339000Y-178584000D01*
X103339000Y-183416000D02*
X103339000Y-182040000D01*
X103379000Y-179960000D02*
X103379000Y-178550000D01*
X103379000Y-183450000D02*
X103379000Y-182040000D01*
X103419000Y-179960000D02*
X103419000Y-178516000D01*
X103419000Y-183484000D02*
X103419000Y-182040000D01*
X103459000Y-179960000D02*
X103459000Y-178484000D01*
X103459000Y-183516000D02*
X103459000Y-182040000D01*
X103499000Y-179960000D02*
X103499000Y-178452000D01*
X103499000Y-183548000D02*
X103499000Y-182040000D01*
X103539000Y-179960000D02*
X103539000Y-178422000D01*
X103539000Y-183578000D02*
X103539000Y-182040000D01*
X103579000Y-179960000D02*
X103579000Y-178393000D01*
X103579000Y-183607000D02*
X103579000Y-182040000D01*
X103619000Y-179960000D02*
X103619000Y-178364000D01*
X103619000Y-183636000D02*
X103619000Y-182040000D01*
X103659000Y-179960000D02*
X103659000Y-178336000D01*
X103659000Y-183664000D02*
X103659000Y-182040000D01*
X103699000Y-179960000D02*
X103699000Y-178310000D01*
X103699000Y-183690000D02*
X103699000Y-182040000D01*
X103739000Y-179960000D02*
X103739000Y-178284000D01*
X103739000Y-183716000D02*
X103739000Y-182040000D01*
X103779000Y-179960000D02*
X103779000Y-178258000D01*
X103779000Y-183742000D02*
X103779000Y-182040000D01*
X103819000Y-179960000D02*
X103819000Y-178234000D01*
X103819000Y-183766000D02*
X103819000Y-182040000D01*
X103859000Y-179960000D02*
X103859000Y-178210000D01*
X103859000Y-183790000D02*
X103859000Y-182040000D01*
X103899000Y-179960000D02*
X103899000Y-178188000D01*
X103899000Y-183812000D02*
X103899000Y-182040000D01*
X103939000Y-179960000D02*
X103939000Y-178166000D01*
X103939000Y-183834000D02*
X103939000Y-182040000D01*
X103979000Y-179960000D02*
X103979000Y-178144000D01*
X103979000Y-183856000D02*
X103979000Y-182040000D01*
X104019000Y-179960000D02*
X104019000Y-178124000D01*
X104019000Y-183876000D02*
X104019000Y-182040000D01*
X104059000Y-179960000D02*
X104059000Y-178104000D01*
X104059000Y-183896000D02*
X104059000Y-182040000D01*
X104099000Y-179960000D02*
X104099000Y-178084000D01*
X104099000Y-183916000D02*
X104099000Y-182040000D01*
X104139000Y-179960000D02*
X104139000Y-178066000D01*
X104139000Y-183934000D02*
X104139000Y-182040000D01*
X104179000Y-179960000D02*
X104179000Y-178048000D01*
X104179000Y-183952000D02*
X104179000Y-182040000D01*
X104219000Y-179960000D02*
X104219000Y-178030000D01*
X104219000Y-183970000D02*
X104219000Y-182040000D01*
X104259000Y-179960000D02*
X104259000Y-178014000D01*
X104259000Y-183986000D02*
X104259000Y-182040000D01*
X104299000Y-179960000D02*
X104299000Y-177998000D01*
X104299000Y-184002000D02*
X104299000Y-182040000D01*
X104339000Y-179960000D02*
X104339000Y-177982000D01*
X104339000Y-184018000D02*
X104339000Y-182040000D01*
X104379000Y-179960000D02*
X104379000Y-177967000D01*
X104379000Y-184033000D02*
X104379000Y-182040000D01*
X104419000Y-179960000D02*
X104419000Y-177953000D01*
X104419000Y-184047000D02*
X104419000Y-182040000D01*
X104459000Y-179960000D02*
X104459000Y-177939000D01*
X104459000Y-184061000D02*
X104459000Y-182040000D01*
X104499000Y-179960000D02*
X104499000Y-177926000D01*
X104499000Y-184074000D02*
X104499000Y-182040000D01*
X104539000Y-179960000D02*
X104539000Y-177914000D01*
X104539000Y-184086000D02*
X104539000Y-182040000D01*
X104579000Y-179960000D02*
X104579000Y-177902000D01*
X104579000Y-184098000D02*
X104579000Y-182040000D01*
X104619000Y-179960000D02*
X104619000Y-177890000D01*
X104619000Y-184110000D02*
X104619000Y-182040000D01*
X104659000Y-179960000D02*
X104659000Y-177879000D01*
X104659000Y-184121000D02*
X104659000Y-182040000D01*
X104699000Y-179960000D02*
X104699000Y-177869000D01*
X104699000Y-184131000D02*
X104699000Y-182040000D01*
X104739000Y-179960000D02*
X104739000Y-177859000D01*
X104739000Y-184141000D02*
X104739000Y-182040000D01*
X104779000Y-179960000D02*
X104779000Y-177850000D01*
X104779000Y-184150000D02*
X104779000Y-182040000D01*
X104820000Y-179960000D02*
X104820000Y-177841000D01*
X104820000Y-184159000D02*
X104820000Y-182040000D01*
X104860000Y-179960000D02*
X104860000Y-177833000D01*
X104860000Y-184167000D02*
X104860000Y-182040000D01*
X104900000Y-179960000D02*
X104900000Y-177825000D01*
X104900000Y-184175000D02*
X104900000Y-182040000D01*
X104940000Y-179960000D02*
X104940000Y-177818000D01*
X104940000Y-184182000D02*
X104940000Y-182040000D01*
X104980000Y-179960000D02*
X104980000Y-177811000D01*
X104980000Y-184189000D02*
X104980000Y-182040000D01*
X105020000Y-179960000D02*
X105020000Y-177805000D01*
X105020000Y-184195000D02*
X105020000Y-182040000D01*
X105060000Y-179960000D02*
X105060000Y-177799000D01*
X105060000Y-184201000D02*
X105060000Y-182040000D01*
X105100000Y-179960000D02*
X105100000Y-177794000D01*
X105100000Y-184206000D02*
X105100000Y-182040000D01*
X105140000Y-179960000D02*
X105140000Y-177789000D01*
X105140000Y-184211000D02*
X105140000Y-182040000D01*
X105180000Y-179960000D02*
X105180000Y-177785000D01*
X105180000Y-184215000D02*
X105180000Y-182040000D01*
X105220000Y-179960000D02*
X105220000Y-177782000D01*
X105220000Y-184218000D02*
X105220000Y-182040000D01*
X105260000Y-179960000D02*
X105260000Y-177778000D01*
X105260000Y-184222000D02*
X105260000Y-182040000D01*
X105300000Y-184224000D02*
X105300000Y-177776000D01*
X105340000Y-184227000D02*
X105340000Y-177773000D01*
X105380000Y-184228000D02*
X105380000Y-177772000D01*
X105420000Y-184230000D02*
X105420000Y-177770000D01*
X105460000Y-184230000D02*
X105460000Y-177770000D01*
X105500000Y-184230000D02*
X105500000Y-177770000D01*
X108770000Y-181000000D02*
G75*
G03X108770000Y-181000000I-3270000J0D01*
G01*
X113250000Y-184200000D02*
X113250000Y-182500000D01*
X113250000Y-182500000D02*
X110100000Y-182500000D01*
X113250000Y-184200000D02*
X110100000Y-184200000D01*
X113250000Y-186350000D02*
X110100000Y-186350000D01*
X113250000Y-184650000D02*
X110100000Y-184650000D01*
X113250000Y-186350000D02*
X113250000Y-184650000D01*
X111486252Y-181710000D02*
X110963748Y-181710000D01*
X111486252Y-180290000D02*
X110963748Y-180290000D01*
D11*
X99666666Y-185202380D02*
X99666666Y-185916666D01*
X99619047Y-186059523D01*
X99523809Y-186154761D01*
X99380952Y-186202380D01*
X99285714Y-186202380D01*
X100571428Y-185202380D02*
X100380952Y-185202380D01*
X100285714Y-185250000D01*
X100238095Y-185297619D01*
X100142857Y-185440476D01*
X100095238Y-185630952D01*
X100095238Y-186011904D01*
X100142857Y-186107142D01*
X100190476Y-186154761D01*
X100285714Y-186202380D01*
X100476190Y-186202380D01*
X100571428Y-186154761D01*
X100619047Y-186107142D01*
X100666666Y-186011904D01*
X100666666Y-185773809D01*
X100619047Y-185678571D01*
X100571428Y-185630952D01*
X100476190Y-185583333D01*
X100285714Y-185583333D01*
X100190476Y-185630952D01*
X100142857Y-185678571D01*
X100095238Y-185773809D01*
X68097333Y-164880142D02*
X68049714Y-164927761D01*
X67906857Y-164975380D01*
X67811619Y-164975380D01*
X67668761Y-164927761D01*
X67573523Y-164832523D01*
X67525904Y-164737285D01*
X67478285Y-164546809D01*
X67478285Y-164403952D01*
X67525904Y-164213476D01*
X67573523Y-164118238D01*
X67668761Y-164023000D01*
X67811619Y-163975380D01*
X67906857Y-163975380D01*
X68049714Y-164023000D01*
X68097333Y-164070619D01*
X68430666Y-163975380D02*
X69049714Y-163975380D01*
X68716380Y-164356333D01*
X68859238Y-164356333D01*
X68954476Y-164403952D01*
X69002095Y-164451571D01*
X69049714Y-164546809D01*
X69049714Y-164784904D01*
X69002095Y-164880142D01*
X68954476Y-164927761D01*
X68859238Y-164975380D01*
X68573523Y-164975380D01*
X68478285Y-164927761D01*
X68430666Y-164880142D01*
X66772380Y-167133333D02*
X67486666Y-167133333D01*
X67629523Y-167180952D01*
X67724761Y-167276190D01*
X67772380Y-167419047D01*
X67772380Y-167514285D01*
X66772380Y-166180952D02*
X66772380Y-166657142D01*
X67248571Y-166704761D01*
X67200952Y-166657142D01*
X67153333Y-166561904D01*
X67153333Y-166323809D01*
X67200952Y-166228571D01*
X67248571Y-166180952D01*
X67343809Y-166133333D01*
X67581904Y-166133333D01*
X67677142Y-166180952D01*
X67724761Y-166228571D01*
X67772380Y-166323809D01*
X67772380Y-166561904D01*
X67724761Y-166657142D01*
X67677142Y-166704761D01*
X111434571Y-131143333D02*
X111434571Y-131476666D01*
X111958380Y-131476666D02*
X110958380Y-131476666D01*
X110958380Y-131000476D01*
X111958380Y-130095714D02*
X111958380Y-130667142D01*
X111958380Y-130381428D02*
X110958380Y-130381428D01*
X111101238Y-130476666D01*
X111196476Y-130571904D01*
X111244095Y-130667142D01*
X113015792Y-161160367D02*
X112014572Y-161160367D01*
X112014572Y-160778950D01*
X112062250Y-160683595D01*
X112109927Y-160635918D01*
X112205281Y-160588241D01*
X112348312Y-160588241D01*
X112443667Y-160635918D01*
X112491344Y-160683595D01*
X112539021Y-160778950D01*
X112539021Y-161160367D01*
X112968115Y-160206824D02*
X113015792Y-160063792D01*
X113015792Y-159825407D01*
X112968115Y-159730052D01*
X112920438Y-159682375D01*
X112825084Y-159634698D01*
X112729730Y-159634698D01*
X112634375Y-159682375D01*
X112586698Y-159730052D01*
X112539021Y-159825407D01*
X112491344Y-160016115D01*
X112443667Y-160111470D01*
X112395990Y-160159147D01*
X112300635Y-160206824D01*
X112205281Y-160206824D01*
X112109927Y-160159147D01*
X112062250Y-160111470D01*
X112014572Y-160016115D01*
X112014572Y-159777730D01*
X112062250Y-159634698D01*
X113015792Y-158681155D02*
X113015792Y-159253281D01*
X113015792Y-158967218D02*
X112014572Y-158967218D01*
X112157604Y-159062572D01*
X112252958Y-159157927D01*
X112300635Y-159253281D01*
X74983333Y-143557142D02*
X74935714Y-143604761D01*
X74792857Y-143652380D01*
X74697619Y-143652380D01*
X74554761Y-143604761D01*
X74459523Y-143509523D01*
X74411904Y-143414285D01*
X74364285Y-143223809D01*
X74364285Y-143080952D01*
X74411904Y-142890476D01*
X74459523Y-142795238D01*
X74554761Y-142700000D01*
X74697619Y-142652380D01*
X74792857Y-142652380D01*
X74935714Y-142700000D01*
X74983333Y-142747619D01*
X75935714Y-143652380D02*
X75364285Y-143652380D01*
X75650000Y-143652380D02*
X75650000Y-142652380D01*
X75554761Y-142795238D01*
X75459523Y-142890476D01*
X75364285Y-142938095D01*
X77978095Y-186396380D02*
X77978095Y-187205904D01*
X78025714Y-187301142D01*
X78073333Y-187348761D01*
X78168571Y-187396380D01*
X78359047Y-187396380D01*
X78454285Y-187348761D01*
X78501904Y-187301142D01*
X78549523Y-187205904D01*
X78549523Y-186396380D01*
X78930476Y-186396380D02*
X79549523Y-186396380D01*
X79216190Y-186777333D01*
X79359047Y-186777333D01*
X79454285Y-186824952D01*
X79501904Y-186872571D01*
X79549523Y-186967809D01*
X79549523Y-187205904D01*
X79501904Y-187301142D01*
X79454285Y-187348761D01*
X79359047Y-187396380D01*
X79073333Y-187396380D01*
X78978095Y-187348761D01*
X78930476Y-187301142D01*
X85816666Y-170496666D02*
X85816666Y-169796666D01*
X86050000Y-170296666D01*
X86283333Y-169796666D01*
X86283333Y-170496666D01*
X86616666Y-170496666D02*
X86616666Y-169796666D01*
X86950000Y-170496666D02*
X86950000Y-169796666D01*
X87183333Y-170296666D01*
X87416666Y-169796666D01*
X87416666Y-170496666D01*
X87683333Y-169796666D02*
X88150000Y-170496666D01*
X88150000Y-169796666D02*
X87683333Y-170496666D01*
X88816666Y-170496666D02*
X88583333Y-170163333D01*
X88416666Y-170496666D02*
X88416666Y-169796666D01*
X88683333Y-169796666D01*
X88750000Y-169830000D01*
X88783333Y-169863333D01*
X88816666Y-169930000D01*
X88816666Y-170030000D01*
X88783333Y-170096666D01*
X88750000Y-170130000D01*
X88683333Y-170163333D01*
X88416666Y-170163333D01*
X89016666Y-169796666D02*
X89416666Y-169796666D01*
X89216666Y-170496666D02*
X89216666Y-169796666D01*
X90016666Y-170496666D02*
X89616666Y-170496666D01*
X89816666Y-170496666D02*
X89816666Y-169796666D01*
X89750000Y-169896666D01*
X89683333Y-169963333D01*
X89616666Y-169996666D01*
X90450000Y-169796666D02*
X90516666Y-169796666D01*
X90583333Y-169830000D01*
X90616666Y-169863333D01*
X90650000Y-169930000D01*
X90683333Y-170063333D01*
X90683333Y-170230000D01*
X90650000Y-170363333D01*
X90616666Y-170430000D01*
X90583333Y-170463333D01*
X90516666Y-170496666D01*
X90450000Y-170496666D01*
X90383333Y-170463333D01*
X90350000Y-170430000D01*
X90316666Y-170363333D01*
X90283333Y-170230000D01*
X90283333Y-170063333D01*
X90316666Y-169930000D01*
X90350000Y-169863333D01*
X90383333Y-169830000D01*
X90450000Y-169796666D01*
X91283333Y-169796666D02*
X91150000Y-169796666D01*
X91083333Y-169830000D01*
X91050000Y-169863333D01*
X90983333Y-169963333D01*
X90950000Y-170096666D01*
X90950000Y-170363333D01*
X90983333Y-170430000D01*
X91016666Y-170463333D01*
X91083333Y-170496666D01*
X91216666Y-170496666D01*
X91283333Y-170463333D01*
X91316666Y-170430000D01*
X91350000Y-170363333D01*
X91350000Y-170196666D01*
X91316666Y-170130000D01*
X91283333Y-170096666D01*
X91216666Y-170063333D01*
X91083333Y-170063333D01*
X91016666Y-170096666D01*
X90983333Y-170130000D01*
X90950000Y-170196666D01*
X91616666Y-169863333D02*
X91650000Y-169830000D01*
X91716666Y-169796666D01*
X91883333Y-169796666D01*
X91950000Y-169830000D01*
X91983333Y-169863333D01*
X92016666Y-169930000D01*
X92016666Y-169996666D01*
X91983333Y-170096666D01*
X91583333Y-170496666D01*
X92016666Y-170496666D01*
X87500000Y-168972666D02*
X87500000Y-168272666D01*
X87666666Y-168272666D01*
X87766666Y-168306000D01*
X87833333Y-168372666D01*
X87866666Y-168439333D01*
X87900000Y-168572666D01*
X87900000Y-168672666D01*
X87866666Y-168806000D01*
X87833333Y-168872666D01*
X87766666Y-168939333D01*
X87666666Y-168972666D01*
X87500000Y-168972666D01*
X88100000Y-168272666D02*
X88333333Y-168972666D01*
X88566666Y-168272666D01*
X89133333Y-168972666D02*
X88800000Y-168972666D01*
X88800000Y-168272666D01*
X89666666Y-168272666D02*
X89533333Y-168272666D01*
X89466666Y-168306000D01*
X89433333Y-168339333D01*
X89366666Y-168439333D01*
X89333333Y-168572666D01*
X89333333Y-168839333D01*
X89366666Y-168906000D01*
X89400000Y-168939333D01*
X89466666Y-168972666D01*
X89600000Y-168972666D01*
X89666666Y-168939333D01*
X89700000Y-168906000D01*
X89733333Y-168839333D01*
X89733333Y-168672666D01*
X89700000Y-168606000D01*
X89666666Y-168572666D01*
X89600000Y-168539333D01*
X89466666Y-168539333D01*
X89400000Y-168572666D01*
X89366666Y-168606000D01*
X89333333Y-168672666D01*
X90000000Y-168772666D02*
X90333333Y-168772666D01*
X89933333Y-168972666D02*
X90166666Y-168272666D01*
X90400000Y-168972666D01*
X94033333Y-144652380D02*
X93700000Y-144176190D01*
X93461904Y-144652380D02*
X93461904Y-143652380D01*
X93842857Y-143652380D01*
X93938095Y-143700000D01*
X93985714Y-143747619D01*
X94033333Y-143842857D01*
X94033333Y-143985714D01*
X93985714Y-144080952D01*
X93938095Y-144128571D01*
X93842857Y-144176190D01*
X93461904Y-144176190D01*
X94938095Y-143652380D02*
X94461904Y-143652380D01*
X94414285Y-144128571D01*
X94461904Y-144080952D01*
X94557142Y-144033333D01*
X94795238Y-144033333D01*
X94890476Y-144080952D01*
X94938095Y-144128571D01*
X94985714Y-144223809D01*
X94985714Y-144461904D01*
X94938095Y-144557142D01*
X94890476Y-144604761D01*
X94795238Y-144652380D01*
X94557142Y-144652380D01*
X94461904Y-144604761D01*
X94414285Y-144557142D01*
X78503333Y-157677142D02*
X78455714Y-157724761D01*
X78312857Y-157772380D01*
X78217619Y-157772380D01*
X78074761Y-157724761D01*
X77979523Y-157629523D01*
X77931904Y-157534285D01*
X77884285Y-157343809D01*
X77884285Y-157200952D01*
X77931904Y-157010476D01*
X77979523Y-156915238D01*
X78074761Y-156820000D01*
X78217619Y-156772380D01*
X78312857Y-156772380D01*
X78455714Y-156820000D01*
X78503333Y-156867619D01*
X79360476Y-157105714D02*
X79360476Y-157772380D01*
X79122380Y-156724761D02*
X78884285Y-157439047D01*
X79503333Y-157439047D01*
X88718095Y-147842380D02*
X88718095Y-148651904D01*
X88765714Y-148747142D01*
X88813333Y-148794761D01*
X88908571Y-148842380D01*
X89099047Y-148842380D01*
X89194285Y-148794761D01*
X89241904Y-148747142D01*
X89289523Y-148651904D01*
X89289523Y-147842380D01*
X90194285Y-148175714D02*
X90194285Y-148842380D01*
X89956190Y-147794761D02*
X89718095Y-148509047D01*
X90337142Y-148509047D01*
X115871666Y-121372380D02*
X115871666Y-122086666D01*
X115824047Y-122229523D01*
X115728809Y-122324761D01*
X115585952Y-122372380D01*
X115490714Y-122372380D01*
X116776428Y-121705714D02*
X116776428Y-122372380D01*
X116538333Y-121324761D02*
X116300238Y-122039047D01*
X116919285Y-122039047D01*
X113424673Y-140523742D02*
X113377054Y-140571361D01*
X113234197Y-140618980D01*
X113138959Y-140618980D01*
X112996101Y-140571361D01*
X112900863Y-140476123D01*
X112853244Y-140380885D01*
X112805625Y-140190409D01*
X112805625Y-140047552D01*
X112853244Y-139857076D01*
X112900863Y-139761838D01*
X112996101Y-139666600D01*
X113138959Y-139618980D01*
X113234197Y-139618980D01*
X113377054Y-139666600D01*
X113424673Y-139714219D01*
X114329435Y-139618980D02*
X113853244Y-139618980D01*
X113805625Y-140095171D01*
X113853244Y-140047552D01*
X113948482Y-139999933D01*
X114186578Y-139999933D01*
X114281816Y-140047552D01*
X114329435Y-140095171D01*
X114377054Y-140190409D01*
X114377054Y-140428504D01*
X114329435Y-140523742D01*
X114281816Y-140571361D01*
X114186578Y-140618980D01*
X113948482Y-140618980D01*
X113853244Y-140571361D01*
X113805625Y-140523742D01*
X71208095Y-147312380D02*
X71208095Y-148121904D01*
X71255714Y-148217142D01*
X71303333Y-148264761D01*
X71398571Y-148312380D01*
X71589047Y-148312380D01*
X71684285Y-148264761D01*
X71731904Y-148217142D01*
X71779523Y-148121904D01*
X71779523Y-147312380D01*
X72779523Y-148312380D02*
X72208095Y-148312380D01*
X72493809Y-148312380D02*
X72493809Y-147312380D01*
X72398571Y-147455238D01*
X72303333Y-147550476D01*
X72208095Y-147598095D01*
X94916666Y-122007380D02*
X94916666Y-122721666D01*
X94869047Y-122864523D01*
X94773809Y-122959761D01*
X94630952Y-123007380D01*
X94535714Y-123007380D01*
X95345238Y-122102619D02*
X95392857Y-122055000D01*
X95488095Y-122007380D01*
X95726190Y-122007380D01*
X95821428Y-122055000D01*
X95869047Y-122102619D01*
X95916666Y-122197857D01*
X95916666Y-122293095D01*
X95869047Y-122435952D01*
X95297619Y-123007380D01*
X95916666Y-123007380D01*
X90596126Y-122096280D02*
X90596126Y-122810566D01*
X90548507Y-122953423D01*
X90453269Y-123048661D01*
X90310412Y-123096280D01*
X90215174Y-123096280D01*
X90977079Y-122096280D02*
X91596126Y-122096280D01*
X91262793Y-122477233D01*
X91405650Y-122477233D01*
X91500888Y-122524852D01*
X91548507Y-122572471D01*
X91596126Y-122667709D01*
X91596126Y-122905804D01*
X91548507Y-123001042D01*
X91500888Y-123048661D01*
X91405650Y-123096280D01*
X91119936Y-123096280D01*
X91024698Y-123048661D01*
X90977079Y-123001042D01*
X76374666Y-122007380D02*
X76374666Y-122721666D01*
X76327047Y-122864523D01*
X76231809Y-122959761D01*
X76088952Y-123007380D01*
X75993714Y-123007380D01*
X77374666Y-123007380D02*
X76803238Y-123007380D01*
X77088952Y-123007380D02*
X77088952Y-122007380D01*
X76993714Y-122150238D01*
X76898476Y-122245476D01*
X76803238Y-122293095D01*
X97357142Y-144357142D02*
X97309523Y-144404761D01*
X97166666Y-144452380D01*
X97071428Y-144452380D01*
X96928571Y-144404761D01*
X96833333Y-144309523D01*
X96785714Y-144214285D01*
X96738095Y-144023809D01*
X96738095Y-143880952D01*
X96785714Y-143690476D01*
X96833333Y-143595238D01*
X96928571Y-143500000D01*
X97071428Y-143452380D01*
X97166666Y-143452380D01*
X97309523Y-143500000D01*
X97357142Y-143547619D01*
X98309523Y-144452380D02*
X97738095Y-144452380D01*
X98023809Y-144452380D02*
X98023809Y-143452380D01*
X97928571Y-143595238D01*
X97833333Y-143690476D01*
X97738095Y-143738095D01*
X98928571Y-143452380D02*
X99023809Y-143452380D01*
X99119047Y-143500000D01*
X99166666Y-143547619D01*
X99214285Y-143642857D01*
X99261904Y-143833333D01*
X99261904Y-144071428D01*
X99214285Y-144261904D01*
X99166666Y-144357142D01*
X99119047Y-144404761D01*
X99023809Y-144452380D01*
X98928571Y-144452380D01*
X98833333Y-144404761D01*
X98785714Y-144357142D01*
X98738095Y-144261904D01*
X98690476Y-144071428D01*
X98690476Y-143833333D01*
X98738095Y-143642857D01*
X98785714Y-143547619D01*
X98833333Y-143500000D01*
X98928571Y-143452380D01*
X89408095Y-134072380D02*
X89408095Y-134881904D01*
X89455714Y-134977142D01*
X89503333Y-135024761D01*
X89598571Y-135072380D01*
X89789047Y-135072380D01*
X89884285Y-135024761D01*
X89931904Y-134977142D01*
X89979523Y-134881904D01*
X89979523Y-134072380D01*
X90408095Y-134167619D02*
X90455714Y-134120000D01*
X90550952Y-134072380D01*
X90789047Y-134072380D01*
X90884285Y-134120000D01*
X90931904Y-134167619D01*
X90979523Y-134262857D01*
X90979523Y-134358095D01*
X90931904Y-134500952D01*
X90360476Y-135072380D01*
X90979523Y-135072380D01*
X67368333Y-145122142D02*
X67320714Y-145169761D01*
X67177857Y-145217380D01*
X67082619Y-145217380D01*
X66939761Y-145169761D01*
X66844523Y-145074523D01*
X66796904Y-144979285D01*
X66749285Y-144788809D01*
X66749285Y-144645952D01*
X66796904Y-144455476D01*
X66844523Y-144360238D01*
X66939761Y-144265000D01*
X67082619Y-144217380D01*
X67177857Y-144217380D01*
X67320714Y-144265000D01*
X67368333Y-144312619D01*
X67749285Y-144312619D02*
X67796904Y-144265000D01*
X67892142Y-144217380D01*
X68130238Y-144217380D01*
X68225476Y-144265000D01*
X68273095Y-144312619D01*
X68320714Y-144407857D01*
X68320714Y-144503095D01*
X68273095Y-144645952D01*
X67701666Y-145217380D01*
X68320714Y-145217380D01*
X100233333Y-148157142D02*
X100185714Y-148204761D01*
X100042857Y-148252380D01*
X99947619Y-148252380D01*
X99804761Y-148204761D01*
X99709523Y-148109523D01*
X99661904Y-148014285D01*
X99614285Y-147823809D01*
X99614285Y-147680952D01*
X99661904Y-147490476D01*
X99709523Y-147395238D01*
X99804761Y-147300000D01*
X99947619Y-147252380D01*
X100042857Y-147252380D01*
X100185714Y-147300000D01*
X100233333Y-147347619D01*
X100709523Y-148252380D02*
X100900000Y-148252380D01*
X100995238Y-148204761D01*
X101042857Y-148157142D01*
X101138095Y-148014285D01*
X101185714Y-147823809D01*
X101185714Y-147442857D01*
X101138095Y-147347619D01*
X101090476Y-147300000D01*
X100995238Y-147252380D01*
X100804761Y-147252380D01*
X100709523Y-147300000D01*
X100661904Y-147347619D01*
X100614285Y-147442857D01*
X100614285Y-147680952D01*
X100661904Y-147776190D01*
X100709523Y-147823809D01*
X100804761Y-147871428D01*
X100995238Y-147871428D01*
X101090476Y-147823809D01*
X101138095Y-147776190D01*
X101185714Y-147680952D01*
X111837380Y-151166666D02*
X111361190Y-151500000D01*
X111837380Y-151738095D02*
X110837380Y-151738095D01*
X110837380Y-151357142D01*
X110885000Y-151261904D01*
X110932619Y-151214285D01*
X111027857Y-151166666D01*
X111170714Y-151166666D01*
X111265952Y-151214285D01*
X111313571Y-151261904D01*
X111361190Y-151357142D01*
X111361190Y-151738095D01*
X111837380Y-150214285D02*
X111837380Y-150785714D01*
X111837380Y-150500000D02*
X110837380Y-150500000D01*
X110980238Y-150595238D01*
X111075476Y-150690476D01*
X111123095Y-150785714D01*
X106452380Y-151166666D02*
X105976190Y-151500000D01*
X106452380Y-151738095D02*
X105452380Y-151738095D01*
X105452380Y-151357142D01*
X105500000Y-151261904D01*
X105547619Y-151214285D01*
X105642857Y-151166666D01*
X105785714Y-151166666D01*
X105880952Y-151214285D01*
X105928571Y-151261904D01*
X105976190Y-151357142D01*
X105976190Y-151738095D01*
X105547619Y-150785714D02*
X105500000Y-150738095D01*
X105452380Y-150642857D01*
X105452380Y-150404761D01*
X105500000Y-150309523D01*
X105547619Y-150261904D01*
X105642857Y-150214285D01*
X105738095Y-150214285D01*
X105880952Y-150261904D01*
X106452380Y-150833333D01*
X106452380Y-150214285D01*
X111837380Y-165143666D02*
X111361190Y-165477000D01*
X111837380Y-165715095D02*
X110837380Y-165715095D01*
X110837380Y-165334142D01*
X110885000Y-165238904D01*
X110932619Y-165191285D01*
X111027857Y-165143666D01*
X111170714Y-165143666D01*
X111265952Y-165191285D01*
X111313571Y-165238904D01*
X111361190Y-165334142D01*
X111361190Y-165715095D01*
X110837380Y-164810333D02*
X110837380Y-164191285D01*
X111218333Y-164524619D01*
X111218333Y-164381761D01*
X111265952Y-164286523D01*
X111313571Y-164238904D01*
X111408809Y-164191285D01*
X111646904Y-164191285D01*
X111742142Y-164238904D01*
X111789761Y-164286523D01*
X111837380Y-164381761D01*
X111837380Y-164667476D01*
X111789761Y-164762714D01*
X111742142Y-164810333D01*
X106497380Y-165166666D02*
X106021190Y-165500000D01*
X106497380Y-165738095D02*
X105497380Y-165738095D01*
X105497380Y-165357142D01*
X105545000Y-165261904D01*
X105592619Y-165214285D01*
X105687857Y-165166666D01*
X105830714Y-165166666D01*
X105925952Y-165214285D01*
X105973571Y-165261904D01*
X106021190Y-165357142D01*
X106021190Y-165738095D01*
X105830714Y-164309523D02*
X106497380Y-164309523D01*
X105449761Y-164547619D02*
X106164047Y-164785714D01*
X106164047Y-164166666D01*
X95757142Y-150652380D02*
X95423809Y-150176190D01*
X95185714Y-150652380D02*
X95185714Y-149652380D01*
X95566666Y-149652380D01*
X95661904Y-149700000D01*
X95709523Y-149747619D01*
X95757142Y-149842857D01*
X95757142Y-149985714D01*
X95709523Y-150080952D01*
X95661904Y-150128571D01*
X95566666Y-150176190D01*
X95185714Y-150176190D01*
X96138095Y-150604761D02*
X96280952Y-150652380D01*
X96519047Y-150652380D01*
X96614285Y-150604761D01*
X96661904Y-150557142D01*
X96709523Y-150461904D01*
X96709523Y-150366666D01*
X96661904Y-150271428D01*
X96614285Y-150223809D01*
X96519047Y-150176190D01*
X96328571Y-150128571D01*
X96233333Y-150080952D01*
X96185714Y-150033333D01*
X96138095Y-149938095D01*
X96138095Y-149842857D01*
X96185714Y-149747619D01*
X96233333Y-149700000D01*
X96328571Y-149652380D01*
X96566666Y-149652380D01*
X96709523Y-149700000D01*
X97661904Y-150652380D02*
X97090476Y-150652380D01*
X97376190Y-150652380D02*
X97376190Y-149652380D01*
X97280952Y-149795238D01*
X97185714Y-149890476D01*
X97090476Y-149938095D01*
X117370241Y-141526080D02*
X117036908Y-141049890D01*
X116798813Y-141526080D02*
X116798813Y-140526080D01*
X117179765Y-140526080D01*
X117275003Y-140573700D01*
X117322622Y-140621319D01*
X117370241Y-140716557D01*
X117370241Y-140859414D01*
X117322622Y-140954652D01*
X117275003Y-141002271D01*
X117179765Y-141049890D01*
X116798813Y-141049890D01*
X117655956Y-140526080D02*
X117989289Y-141526080D01*
X118322622Y-140526080D01*
X119179765Y-141526080D02*
X118608337Y-141526080D01*
X118894051Y-141526080D02*
X118894051Y-140526080D01*
X118798813Y-140668938D01*
X118703575Y-140764176D01*
X118608337Y-140811795D01*
X113728333Y-173432142D02*
X113680714Y-173479761D01*
X113537857Y-173527380D01*
X113442619Y-173527380D01*
X113299761Y-173479761D01*
X113204523Y-173384523D01*
X113156904Y-173289285D01*
X113109285Y-173098809D01*
X113109285Y-172955952D01*
X113156904Y-172765476D01*
X113204523Y-172670238D01*
X113299761Y-172575000D01*
X113442619Y-172527380D01*
X113537857Y-172527380D01*
X113680714Y-172575000D01*
X113728333Y-172622619D01*
X114585476Y-172527380D02*
X114395000Y-172527380D01*
X114299761Y-172575000D01*
X114252142Y-172622619D01*
X114156904Y-172765476D01*
X114109285Y-172955952D01*
X114109285Y-173336904D01*
X114156904Y-173432142D01*
X114204523Y-173479761D01*
X114299761Y-173527380D01*
X114490238Y-173527380D01*
X114585476Y-173479761D01*
X114633095Y-173432142D01*
X114680714Y-173336904D01*
X114680714Y-173098809D01*
X114633095Y-173003571D01*
X114585476Y-172955952D01*
X114490238Y-172908333D01*
X114299761Y-172908333D01*
X114204523Y-172955952D01*
X114156904Y-173003571D01*
X114109285Y-173098809D01*
X103438333Y-185408442D02*
X103390714Y-185456061D01*
X103247857Y-185503680D01*
X103152619Y-185503680D01*
X103009761Y-185456061D01*
X102914523Y-185360823D01*
X102866904Y-185265585D01*
X102819285Y-185075109D01*
X102819285Y-184932252D01*
X102866904Y-184741776D01*
X102914523Y-184646538D01*
X103009761Y-184551300D01*
X103152619Y-184503680D01*
X103247857Y-184503680D01*
X103390714Y-184551300D01*
X103438333Y-184598919D01*
X103771666Y-184503680D02*
X104438333Y-184503680D01*
X104009761Y-185503680D01*
X114702380Y-183988095D02*
X113702380Y-183988095D01*
X113702380Y-183750000D01*
X113750000Y-183607142D01*
X113845238Y-183511904D01*
X113940476Y-183464285D01*
X114130952Y-183416666D01*
X114273809Y-183416666D01*
X114464285Y-183464285D01*
X114559523Y-183511904D01*
X114654761Y-183607142D01*
X114702380Y-183750000D01*
X114702380Y-183988095D01*
X114702380Y-182464285D02*
X114702380Y-183035714D01*
X114702380Y-182750000D02*
X113702380Y-182750000D01*
X113845238Y-182845238D01*
X113940476Y-182940476D01*
X113988095Y-183035714D01*
X114702380Y-186238095D02*
X113702380Y-186238095D01*
X113702380Y-186000000D01*
X113750000Y-185857142D01*
X113845238Y-185761904D01*
X113940476Y-185714285D01*
X114130952Y-185666666D01*
X114273809Y-185666666D01*
X114464285Y-185714285D01*
X114559523Y-185761904D01*
X114654761Y-185857142D01*
X114702380Y-186000000D01*
X114702380Y-186238095D01*
X113797619Y-185285714D02*
X113750000Y-185238095D01*
X113702380Y-185142857D01*
X113702380Y-184904761D01*
X113750000Y-184809523D01*
X113797619Y-184761904D01*
X113892857Y-184714285D01*
X113988095Y-184714285D01*
X114130952Y-184761904D01*
X114702380Y-185333333D01*
X114702380Y-184714285D01*
X109137380Y-181166666D02*
X109137380Y-181642857D01*
X108137380Y-181642857D01*
X109137380Y-180309523D02*
X109137380Y-180880952D01*
X109137380Y-180595238D02*
X108137380Y-180595238D01*
X108280238Y-180690476D01*
X108375476Y-180785714D01*
X108423095Y-180880952D01*
M02*
