G04 #@! TF.GenerationSoftware,KiCad,Pcbnew,(5.1.10-1-10_14)*
G04 #@! TF.CreationDate,2021-07-31T12:24:41+02:00*
G04 #@! TF.ProjectId,PowerAnalyzer_ACS71020,506f7765-7241-46e6-916c-797a65725f41,2.1*
G04 #@! TF.SameCoordinates,Original*
G04 #@! TF.FileFunction,Legend,Bot*
G04 #@! TF.FilePolarity,Positive*
%FSLAX46Y46*%
G04 Gerber Fmt 4.6, Leading zero omitted, Abs format (unit mm)*
G04 Created by KiCad (PCBNEW (5.1.10-1-10_14)) date 2021-07-31 12:24:41*
%MOMM*%
%LPD*%
G01*
G04 APERTURE LIST*
%ADD10O,1.802000X1.802000*%
%ADD11C,1.702000*%
%ADD12C,2.102000*%
%ADD13C,2.702000*%
%ADD14C,1.610000*%
%ADD15C,2.602000*%
%ADD16O,1.702000X1.702000*%
G04 APERTURE END LIST*
%LPC*%
D10*
X100000000Y-168380000D03*
X100000000Y-170920000D03*
X100000000Y-173460000D03*
X100000000Y-176000000D03*
X100000000Y-178540000D03*
G36*
G01*
X100901000Y-180230000D02*
X100901000Y-181930000D01*
G75*
G02*
X100850000Y-181981000I-51000J0D01*
G01*
X99150000Y-181981000D01*
G75*
G02*
X99099000Y-181930000I0J51000D01*
G01*
X99099000Y-180230000D01*
G75*
G02*
X99150000Y-180179000I51000J0D01*
G01*
X100850000Y-180179000D01*
G75*
G02*
X100901000Y-180230000I0J-51000D01*
G01*
G37*
D11*
X93980000Y-161544000D03*
X93980000Y-159004000D03*
X91440000Y-161544000D03*
X91440000Y-159004000D03*
X88900000Y-161544000D03*
X88900000Y-159004000D03*
X86360000Y-161544000D03*
X86360000Y-159004000D03*
X83820000Y-161544000D03*
X83820000Y-159004000D03*
X96520000Y-186944000D03*
X96520000Y-184404000D03*
X96520000Y-181864000D03*
X96520000Y-179324000D03*
X96520000Y-176784000D03*
X96520000Y-174244000D03*
X96520000Y-171704000D03*
X96520000Y-169164000D03*
X96520000Y-166624000D03*
X96520000Y-164084000D03*
X96520000Y-161544000D03*
X96520000Y-159004000D03*
X96520000Y-156464000D03*
X83820000Y-184404000D03*
X81280000Y-186944000D03*
X81280000Y-184404000D03*
X81280000Y-181864000D03*
X81280000Y-179324000D03*
X81280000Y-176784000D03*
X81280000Y-174244000D03*
X81280000Y-171704000D03*
X81280000Y-169164000D03*
X81280000Y-166624000D03*
X81280000Y-164084000D03*
X81280000Y-161544000D03*
X81280000Y-159004000D03*
X81280000Y-156464000D03*
X96520000Y-153924000D03*
X93980000Y-153924000D03*
X91440000Y-153924000D03*
X81280000Y-153924000D03*
X83820000Y-153924000D03*
X86360000Y-153924000D03*
X88900000Y-153924000D03*
D10*
X77270000Y-165530000D03*
X77270000Y-168070000D03*
X74730000Y-165530000D03*
X74730000Y-168070000D03*
X72190000Y-165530000D03*
X72190000Y-168070000D03*
X69650000Y-165530000D03*
G36*
G01*
X70500000Y-168971000D02*
X68800000Y-168971000D01*
G75*
G02*
X68749000Y-168920000I0J51000D01*
G01*
X68749000Y-167220000D01*
G75*
G02*
X68800000Y-167169000I51000J0D01*
G01*
X70500000Y-167169000D01*
G75*
G02*
X70551000Y-167220000I0J-51000D01*
G01*
X70551000Y-168920000D01*
G75*
G02*
X70500000Y-168971000I-51000J0D01*
G01*
G37*
D12*
X106045000Y-125088000D03*
X106045000Y-140088000D03*
D13*
X106045000Y-132588000D03*
G36*
G01*
X121946000Y-145195000D02*
X123454000Y-145195000D01*
G75*
G02*
X123505000Y-145246000I0J-51000D01*
G01*
X123505000Y-146754000D01*
G75*
G02*
X123454000Y-146805000I-51000J0D01*
G01*
X121946000Y-146805000D01*
G75*
G02*
X121895000Y-146754000I0J51000D01*
G01*
X121895000Y-145246000D01*
G75*
G02*
X121946000Y-145195000I51000J0D01*
G01*
G37*
D14*
X122700000Y-151080000D03*
X122700000Y-156160000D03*
X122700000Y-161240000D03*
X122700000Y-168860000D03*
X122700000Y-173940000D03*
D15*
X113730000Y-124265000D03*
X118680000Y-124265000D03*
X74300000Y-131000000D03*
D12*
X116205000Y-143193000D03*
G36*
G01*
X117205000Y-149244000D02*
X115205000Y-149244000D01*
G75*
G02*
X115154000Y-149193000I0J51000D01*
G01*
X115154000Y-147193000D01*
G75*
G02*
X115205000Y-147142000I51000J0D01*
G01*
X117205000Y-147142000D01*
G75*
G02*
X117256000Y-147193000I0J-51000D01*
G01*
X117256000Y-149193000D01*
G75*
G02*
X117205000Y-149244000I-51000J0D01*
G01*
G37*
D15*
X97790000Y-128140000D03*
X97790000Y-123190000D03*
X87668100Y-127936800D03*
X87668100Y-122986800D03*
X80010000Y-122999500D03*
X80010000Y-127949500D03*
X117300000Y-131000000D03*
X117300000Y-174000000D03*
X74300000Y-174000000D03*
D16*
X109000000Y-146389000D03*
D11*
X109000000Y-156549000D03*
X103660000Y-156549000D03*
D16*
X103660000Y-146389000D03*
D11*
X109000000Y-170750000D03*
D16*
X109000000Y-160590000D03*
X103660000Y-160613000D03*
D11*
X103660000Y-170773000D03*
X117300000Y-135600000D03*
X122300000Y-138600000D03*
G36*
G01*
X108899000Y-177050000D02*
X108899000Y-175450000D01*
G75*
G02*
X108950000Y-175399000I51000J0D01*
G01*
X110550000Y-175399000D01*
G75*
G02*
X110601000Y-175450000I0J-51000D01*
G01*
X110601000Y-177050000D01*
G75*
G02*
X110550000Y-177101000I-51000J0D01*
G01*
X108950000Y-177101000D01*
G75*
G02*
X108899000Y-177050000I0J51000D01*
G01*
G37*
X112250000Y-176250000D03*
X104250000Y-182750000D03*
G36*
G01*
X107601000Y-181950000D02*
X107601000Y-183550000D01*
G75*
G02*
X107550000Y-183601000I-51000J0D01*
G01*
X105950000Y-183601000D01*
G75*
G02*
X105899000Y-183550000I0J51000D01*
G01*
X105899000Y-181950000D01*
G75*
G02*
X105950000Y-181899000I51000J0D01*
G01*
X107550000Y-181899000D01*
G75*
G02*
X107601000Y-181950000I0J-51000D01*
G01*
G37*
M02*
