G04 #@! TF.GenerationSoftware,KiCad,Pcbnew,(5.1.10-1-10_14)*
G04 #@! TF.CreationDate,2021-07-31T12:24:41+02:00*
G04 #@! TF.ProjectId,PowerAnalyzer_ACS71020,506f7765-7241-46e6-916c-797a65725f41,2.1*
G04 #@! TF.SameCoordinates,Original*
G04 #@! TF.FileFunction,Paste,Top*
G04 #@! TF.FilePolarity,Positive*
%FSLAX46Y46*%
G04 Gerber Fmt 4.6, Leading zero omitted, Abs format (unit mm)*
G04 Created by KiCad (PCBNEW (5.1.10-1-10_14)) date 2021-07-31 12:24:41*
%MOMM*%
%LPD*%
G01*
G04 APERTURE LIST*
%ADD10R,1.000000X1.000000*%
G04 APERTURE END LIST*
G36*
G01*
X69095000Y-162560001D02*
X69095000Y-161659999D01*
G75*
G02*
X69344999Y-161410000I249999J0D01*
G01*
X69995001Y-161410000D01*
G75*
G02*
X70245000Y-161659999I0J-249999D01*
G01*
X70245000Y-162560001D01*
G75*
G02*
X69995001Y-162810000I-249999J0D01*
G01*
X69344999Y-162810000D01*
G75*
G02*
X69095000Y-162560001I0J249999D01*
G01*
G37*
G36*
G01*
X67045000Y-162560001D02*
X67045000Y-161659999D01*
G75*
G02*
X67294999Y-161410000I249999J0D01*
G01*
X67945001Y-161410000D01*
G75*
G02*
X68195000Y-161659999I0J-249999D01*
G01*
X68195000Y-162560001D01*
G75*
G02*
X67945001Y-162810000I-249999J0D01*
G01*
X67294999Y-162810000D01*
G75*
G02*
X67045000Y-162560001I0J249999D01*
G01*
G37*
G36*
G01*
X76850000Y-144549999D02*
X76850000Y-145450001D01*
G75*
G02*
X76600001Y-145700000I-249999J0D01*
G01*
X75949999Y-145700000D01*
G75*
G02*
X75700000Y-145450001I0J249999D01*
G01*
X75700000Y-144549999D01*
G75*
G02*
X75949999Y-144300000I249999J0D01*
G01*
X76600001Y-144300000D01*
G75*
G02*
X76850000Y-144549999I0J-249999D01*
G01*
G37*
G36*
G01*
X74800000Y-144549999D02*
X74800000Y-145450001D01*
G75*
G02*
X74550001Y-145700000I-249999J0D01*
G01*
X73899999Y-145700000D01*
G75*
G02*
X73650000Y-145450001I0J249999D01*
G01*
X73650000Y-144549999D01*
G75*
G02*
X73899999Y-144300000I249999J0D01*
G01*
X74550001Y-144300000D01*
G75*
G02*
X74800000Y-144549999I0J-249999D01*
G01*
G37*
G36*
G01*
X93749999Y-147250000D02*
X94650001Y-147250000D01*
G75*
G02*
X94900000Y-147499999I0J-249999D01*
G01*
X94900000Y-148150001D01*
G75*
G02*
X94650001Y-148400000I-249999J0D01*
G01*
X93749999Y-148400000D01*
G75*
G02*
X93500000Y-148150001I0J249999D01*
G01*
X93500000Y-147499999D01*
G75*
G02*
X93749999Y-147250000I249999J0D01*
G01*
G37*
G36*
G01*
X93749999Y-145200000D02*
X94650001Y-145200000D01*
G75*
G02*
X94900000Y-145449999I0J-249999D01*
G01*
X94900000Y-146100001D01*
G75*
G02*
X94650001Y-146350000I-249999J0D01*
G01*
X93749999Y-146350000D01*
G75*
G02*
X93500000Y-146100001I0J249999D01*
G01*
X93500000Y-145449999D01*
G75*
G02*
X93749999Y-145200000I249999J0D01*
G01*
G37*
G36*
G01*
X79350001Y-154030000D02*
X78449999Y-154030000D01*
G75*
G02*
X78200000Y-153780001I0J249999D01*
G01*
X78200000Y-153129999D01*
G75*
G02*
X78449999Y-152880000I249999J0D01*
G01*
X79350001Y-152880000D01*
G75*
G02*
X79600000Y-153129999I0J-249999D01*
G01*
X79600000Y-153780001D01*
G75*
G02*
X79350001Y-154030000I-249999J0D01*
G01*
G37*
G36*
G01*
X79350001Y-156080000D02*
X78449999Y-156080000D01*
G75*
G02*
X78200000Y-155830001I0J249999D01*
G01*
X78200000Y-155179999D01*
G75*
G02*
X78449999Y-154930000I249999J0D01*
G01*
X79350001Y-154930000D01*
G75*
G02*
X79600000Y-155179999I0J-249999D01*
G01*
X79600000Y-155830001D01*
G75*
G02*
X79350001Y-156080000I-249999J0D01*
G01*
G37*
G36*
G01*
X79085000Y-151140000D02*
X78785000Y-151140000D01*
G75*
G02*
X78635000Y-150990000I0J150000D01*
G01*
X78635000Y-149340000D01*
G75*
G02*
X78785000Y-149190000I150000J0D01*
G01*
X79085000Y-149190000D01*
G75*
G02*
X79235000Y-149340000I0J-150000D01*
G01*
X79235000Y-150990000D01*
G75*
G02*
X79085000Y-151140000I-150000J0D01*
G01*
G37*
G36*
G01*
X80355000Y-151140000D02*
X80055000Y-151140000D01*
G75*
G02*
X79905000Y-150990000I0J150000D01*
G01*
X79905000Y-149340000D01*
G75*
G02*
X80055000Y-149190000I150000J0D01*
G01*
X80355000Y-149190000D01*
G75*
G02*
X80505000Y-149340000I0J-150000D01*
G01*
X80505000Y-150990000D01*
G75*
G02*
X80355000Y-151140000I-150000J0D01*
G01*
G37*
G36*
G01*
X81625000Y-151140000D02*
X81325000Y-151140000D01*
G75*
G02*
X81175000Y-150990000I0J150000D01*
G01*
X81175000Y-149340000D01*
G75*
G02*
X81325000Y-149190000I150000J0D01*
G01*
X81625000Y-149190000D01*
G75*
G02*
X81775000Y-149340000I0J-150000D01*
G01*
X81775000Y-150990000D01*
G75*
G02*
X81625000Y-151140000I-150000J0D01*
G01*
G37*
G36*
G01*
X82895000Y-151140000D02*
X82595000Y-151140000D01*
G75*
G02*
X82445000Y-150990000I0J150000D01*
G01*
X82445000Y-149340000D01*
G75*
G02*
X82595000Y-149190000I150000J0D01*
G01*
X82895000Y-149190000D01*
G75*
G02*
X83045000Y-149340000I0J-150000D01*
G01*
X83045000Y-150990000D01*
G75*
G02*
X82895000Y-151140000I-150000J0D01*
G01*
G37*
G36*
G01*
X84165000Y-151140000D02*
X83865000Y-151140000D01*
G75*
G02*
X83715000Y-150990000I0J150000D01*
G01*
X83715000Y-149340000D01*
G75*
G02*
X83865000Y-149190000I150000J0D01*
G01*
X84165000Y-149190000D01*
G75*
G02*
X84315000Y-149340000I0J-150000D01*
G01*
X84315000Y-150990000D01*
G75*
G02*
X84165000Y-151140000I-150000J0D01*
G01*
G37*
G36*
G01*
X85435000Y-151140000D02*
X85135000Y-151140000D01*
G75*
G02*
X84985000Y-150990000I0J150000D01*
G01*
X84985000Y-149340000D01*
G75*
G02*
X85135000Y-149190000I150000J0D01*
G01*
X85435000Y-149190000D01*
G75*
G02*
X85585000Y-149340000I0J-150000D01*
G01*
X85585000Y-150990000D01*
G75*
G02*
X85435000Y-151140000I-150000J0D01*
G01*
G37*
G36*
G01*
X86705000Y-151140000D02*
X86405000Y-151140000D01*
G75*
G02*
X86255000Y-150990000I0J150000D01*
G01*
X86255000Y-149340000D01*
G75*
G02*
X86405000Y-149190000I150000J0D01*
G01*
X86705000Y-149190000D01*
G75*
G02*
X86855000Y-149340000I0J-150000D01*
G01*
X86855000Y-150990000D01*
G75*
G02*
X86705000Y-151140000I-150000J0D01*
G01*
G37*
G36*
G01*
X87975000Y-151140000D02*
X87675000Y-151140000D01*
G75*
G02*
X87525000Y-150990000I0J150000D01*
G01*
X87525000Y-149340000D01*
G75*
G02*
X87675000Y-149190000I150000J0D01*
G01*
X87975000Y-149190000D01*
G75*
G02*
X88125000Y-149340000I0J-150000D01*
G01*
X88125000Y-150990000D01*
G75*
G02*
X87975000Y-151140000I-150000J0D01*
G01*
G37*
G36*
G01*
X87975000Y-146190000D02*
X87675000Y-146190000D01*
G75*
G02*
X87525000Y-146040000I0J150000D01*
G01*
X87525000Y-144390000D01*
G75*
G02*
X87675000Y-144240000I150000J0D01*
G01*
X87975000Y-144240000D01*
G75*
G02*
X88125000Y-144390000I0J-150000D01*
G01*
X88125000Y-146040000D01*
G75*
G02*
X87975000Y-146190000I-150000J0D01*
G01*
G37*
G36*
G01*
X86705000Y-146190000D02*
X86405000Y-146190000D01*
G75*
G02*
X86255000Y-146040000I0J150000D01*
G01*
X86255000Y-144390000D01*
G75*
G02*
X86405000Y-144240000I150000J0D01*
G01*
X86705000Y-144240000D01*
G75*
G02*
X86855000Y-144390000I0J-150000D01*
G01*
X86855000Y-146040000D01*
G75*
G02*
X86705000Y-146190000I-150000J0D01*
G01*
G37*
G36*
G01*
X85435000Y-146190000D02*
X85135000Y-146190000D01*
G75*
G02*
X84985000Y-146040000I0J150000D01*
G01*
X84985000Y-144390000D01*
G75*
G02*
X85135000Y-144240000I150000J0D01*
G01*
X85435000Y-144240000D01*
G75*
G02*
X85585000Y-144390000I0J-150000D01*
G01*
X85585000Y-146040000D01*
G75*
G02*
X85435000Y-146190000I-150000J0D01*
G01*
G37*
G36*
G01*
X84165000Y-146190000D02*
X83865000Y-146190000D01*
G75*
G02*
X83715000Y-146040000I0J150000D01*
G01*
X83715000Y-144390000D01*
G75*
G02*
X83865000Y-144240000I150000J0D01*
G01*
X84165000Y-144240000D01*
G75*
G02*
X84315000Y-144390000I0J-150000D01*
G01*
X84315000Y-146040000D01*
G75*
G02*
X84165000Y-146190000I-150000J0D01*
G01*
G37*
G36*
G01*
X82895000Y-146190000D02*
X82595000Y-146190000D01*
G75*
G02*
X82445000Y-146040000I0J150000D01*
G01*
X82445000Y-144390000D01*
G75*
G02*
X82595000Y-144240000I150000J0D01*
G01*
X82895000Y-144240000D01*
G75*
G02*
X83045000Y-144390000I0J-150000D01*
G01*
X83045000Y-146040000D01*
G75*
G02*
X82895000Y-146190000I-150000J0D01*
G01*
G37*
G36*
G01*
X81625000Y-146190000D02*
X81325000Y-146190000D01*
G75*
G02*
X81175000Y-146040000I0J150000D01*
G01*
X81175000Y-144390000D01*
G75*
G02*
X81325000Y-144240000I150000J0D01*
G01*
X81625000Y-144240000D01*
G75*
G02*
X81775000Y-144390000I0J-150000D01*
G01*
X81775000Y-146040000D01*
G75*
G02*
X81625000Y-146190000I-150000J0D01*
G01*
G37*
G36*
G01*
X80355000Y-146190000D02*
X80055000Y-146190000D01*
G75*
G02*
X79905000Y-146040000I0J150000D01*
G01*
X79905000Y-144390000D01*
G75*
G02*
X80055000Y-144240000I150000J0D01*
G01*
X80355000Y-144240000D01*
G75*
G02*
X80505000Y-144390000I0J-150000D01*
G01*
X80505000Y-146040000D01*
G75*
G02*
X80355000Y-146190000I-150000J0D01*
G01*
G37*
G36*
G01*
X79085000Y-146190000D02*
X78785000Y-146190000D01*
G75*
G02*
X78635000Y-146040000I0J150000D01*
G01*
X78635000Y-144390000D01*
G75*
G02*
X78785000Y-144240000I150000J0D01*
G01*
X79085000Y-144240000D01*
G75*
G02*
X79235000Y-144390000I0J-150000D01*
G01*
X79235000Y-146040000D01*
G75*
G02*
X79085000Y-146190000I-150000J0D01*
G01*
G37*
G36*
G01*
X68205000Y-160203000D02*
X67905000Y-160203000D01*
G75*
G02*
X67755000Y-160053000I0J150000D01*
G01*
X67755000Y-158303000D01*
G75*
G02*
X67905000Y-158153000I150000J0D01*
G01*
X68205000Y-158153000D01*
G75*
G02*
X68355000Y-158303000I0J-150000D01*
G01*
X68355000Y-160053000D01*
G75*
G02*
X68205000Y-160203000I-150000J0D01*
G01*
G37*
G36*
G01*
X69475000Y-160203000D02*
X69175000Y-160203000D01*
G75*
G02*
X69025000Y-160053000I0J150000D01*
G01*
X69025000Y-158303000D01*
G75*
G02*
X69175000Y-158153000I150000J0D01*
G01*
X69475000Y-158153000D01*
G75*
G02*
X69625000Y-158303000I0J-150000D01*
G01*
X69625000Y-160053000D01*
G75*
G02*
X69475000Y-160203000I-150000J0D01*
G01*
G37*
G36*
G01*
X70745000Y-160203000D02*
X70445000Y-160203000D01*
G75*
G02*
X70295000Y-160053000I0J150000D01*
G01*
X70295000Y-158303000D01*
G75*
G02*
X70445000Y-158153000I150000J0D01*
G01*
X70745000Y-158153000D01*
G75*
G02*
X70895000Y-158303000I0J-150000D01*
G01*
X70895000Y-160053000D01*
G75*
G02*
X70745000Y-160203000I-150000J0D01*
G01*
G37*
G36*
G01*
X72015000Y-160203000D02*
X71715000Y-160203000D01*
G75*
G02*
X71565000Y-160053000I0J150000D01*
G01*
X71565000Y-158303000D01*
G75*
G02*
X71715000Y-158153000I150000J0D01*
G01*
X72015000Y-158153000D01*
G75*
G02*
X72165000Y-158303000I0J-150000D01*
G01*
X72165000Y-160053000D01*
G75*
G02*
X72015000Y-160203000I-150000J0D01*
G01*
G37*
G36*
G01*
X73285000Y-160203000D02*
X72985000Y-160203000D01*
G75*
G02*
X72835000Y-160053000I0J150000D01*
G01*
X72835000Y-158303000D01*
G75*
G02*
X72985000Y-158153000I150000J0D01*
G01*
X73285000Y-158153000D01*
G75*
G02*
X73435000Y-158303000I0J-150000D01*
G01*
X73435000Y-160053000D01*
G75*
G02*
X73285000Y-160203000I-150000J0D01*
G01*
G37*
G36*
G01*
X74555000Y-160203000D02*
X74255000Y-160203000D01*
G75*
G02*
X74105000Y-160053000I0J150000D01*
G01*
X74105000Y-158303000D01*
G75*
G02*
X74255000Y-158153000I150000J0D01*
G01*
X74555000Y-158153000D01*
G75*
G02*
X74705000Y-158303000I0J-150000D01*
G01*
X74705000Y-160053000D01*
G75*
G02*
X74555000Y-160203000I-150000J0D01*
G01*
G37*
G36*
G01*
X75825000Y-160203000D02*
X75525000Y-160203000D01*
G75*
G02*
X75375000Y-160053000I0J150000D01*
G01*
X75375000Y-158303000D01*
G75*
G02*
X75525000Y-158153000I150000J0D01*
G01*
X75825000Y-158153000D01*
G75*
G02*
X75975000Y-158303000I0J-150000D01*
G01*
X75975000Y-160053000D01*
G75*
G02*
X75825000Y-160203000I-150000J0D01*
G01*
G37*
G36*
G01*
X77095000Y-160203000D02*
X76795000Y-160203000D01*
G75*
G02*
X76645000Y-160053000I0J150000D01*
G01*
X76645000Y-158303000D01*
G75*
G02*
X76795000Y-158153000I150000J0D01*
G01*
X77095000Y-158153000D01*
G75*
G02*
X77245000Y-158303000I0J-150000D01*
G01*
X77245000Y-160053000D01*
G75*
G02*
X77095000Y-160203000I-150000J0D01*
G01*
G37*
G36*
G01*
X77095000Y-150903000D02*
X76795000Y-150903000D01*
G75*
G02*
X76645000Y-150753000I0J150000D01*
G01*
X76645000Y-149003000D01*
G75*
G02*
X76795000Y-148853000I150000J0D01*
G01*
X77095000Y-148853000D01*
G75*
G02*
X77245000Y-149003000I0J-150000D01*
G01*
X77245000Y-150753000D01*
G75*
G02*
X77095000Y-150903000I-150000J0D01*
G01*
G37*
G36*
G01*
X75825000Y-150903000D02*
X75525000Y-150903000D01*
G75*
G02*
X75375000Y-150753000I0J150000D01*
G01*
X75375000Y-149003000D01*
G75*
G02*
X75525000Y-148853000I150000J0D01*
G01*
X75825000Y-148853000D01*
G75*
G02*
X75975000Y-149003000I0J-150000D01*
G01*
X75975000Y-150753000D01*
G75*
G02*
X75825000Y-150903000I-150000J0D01*
G01*
G37*
G36*
G01*
X74555000Y-150903000D02*
X74255000Y-150903000D01*
G75*
G02*
X74105000Y-150753000I0J150000D01*
G01*
X74105000Y-149003000D01*
G75*
G02*
X74255000Y-148853000I150000J0D01*
G01*
X74555000Y-148853000D01*
G75*
G02*
X74705000Y-149003000I0J-150000D01*
G01*
X74705000Y-150753000D01*
G75*
G02*
X74555000Y-150903000I-150000J0D01*
G01*
G37*
G36*
G01*
X73285000Y-150903000D02*
X72985000Y-150903000D01*
G75*
G02*
X72835000Y-150753000I0J150000D01*
G01*
X72835000Y-149003000D01*
G75*
G02*
X72985000Y-148853000I150000J0D01*
G01*
X73285000Y-148853000D01*
G75*
G02*
X73435000Y-149003000I0J-150000D01*
G01*
X73435000Y-150753000D01*
G75*
G02*
X73285000Y-150903000I-150000J0D01*
G01*
G37*
G36*
G01*
X72015000Y-150903000D02*
X71715000Y-150903000D01*
G75*
G02*
X71565000Y-150753000I0J150000D01*
G01*
X71565000Y-149003000D01*
G75*
G02*
X71715000Y-148853000I150000J0D01*
G01*
X72015000Y-148853000D01*
G75*
G02*
X72165000Y-149003000I0J-150000D01*
G01*
X72165000Y-150753000D01*
G75*
G02*
X72015000Y-150903000I-150000J0D01*
G01*
G37*
G36*
G01*
X70745000Y-150903000D02*
X70445000Y-150903000D01*
G75*
G02*
X70295000Y-150753000I0J150000D01*
G01*
X70295000Y-149003000D01*
G75*
G02*
X70445000Y-148853000I150000J0D01*
G01*
X70745000Y-148853000D01*
G75*
G02*
X70895000Y-149003000I0J-150000D01*
G01*
X70895000Y-150753000D01*
G75*
G02*
X70745000Y-150903000I-150000J0D01*
G01*
G37*
G36*
G01*
X69475000Y-150903000D02*
X69175000Y-150903000D01*
G75*
G02*
X69025000Y-150753000I0J150000D01*
G01*
X69025000Y-149003000D01*
G75*
G02*
X69175000Y-148853000I150000J0D01*
G01*
X69475000Y-148853000D01*
G75*
G02*
X69625000Y-149003000I0J-150000D01*
G01*
X69625000Y-150753000D01*
G75*
G02*
X69475000Y-150903000I-150000J0D01*
G01*
G37*
G36*
G01*
X68205000Y-150903000D02*
X67905000Y-150903000D01*
G75*
G02*
X67755000Y-150753000I0J150000D01*
G01*
X67755000Y-149003000D01*
G75*
G02*
X67905000Y-148853000I150000J0D01*
G01*
X68205000Y-148853000D01*
G75*
G02*
X68355000Y-149003000I0J-150000D01*
G01*
X68355000Y-150753000D01*
G75*
G02*
X68205000Y-150903000I-150000J0D01*
G01*
G37*
G36*
G01*
X99075000Y-145349999D02*
X99075000Y-146250001D01*
G75*
G02*
X98825001Y-146500000I-249999J0D01*
G01*
X98174999Y-146500000D01*
G75*
G02*
X97925000Y-146250001I0J249999D01*
G01*
X97925000Y-145349999D01*
G75*
G02*
X98174999Y-145100000I249999J0D01*
G01*
X98825001Y-145100000D01*
G75*
G02*
X99075000Y-145349999I0J-249999D01*
G01*
G37*
G36*
G01*
X97025000Y-145349999D02*
X97025000Y-146250001D01*
G75*
G02*
X96775001Y-146500000I-249999J0D01*
G01*
X96124999Y-146500000D01*
G75*
G02*
X95875000Y-146250001I0J249999D01*
G01*
X95875000Y-145349999D01*
G75*
G02*
X96124999Y-145100000I249999J0D01*
G01*
X96775001Y-145100000D01*
G75*
G02*
X97025000Y-145349999I0J-249999D01*
G01*
G37*
G36*
G01*
X88153000Y-139968000D02*
X88453000Y-139968000D01*
G75*
G02*
X88603000Y-140118000I0J-150000D01*
G01*
X88603000Y-141868000D01*
G75*
G02*
X88453000Y-142018000I-150000J0D01*
G01*
X88153000Y-142018000D01*
G75*
G02*
X88003000Y-141868000I0J150000D01*
G01*
X88003000Y-140118000D01*
G75*
G02*
X88153000Y-139968000I150000J0D01*
G01*
G37*
G36*
G01*
X86883000Y-139968000D02*
X87183000Y-139968000D01*
G75*
G02*
X87333000Y-140118000I0J-150000D01*
G01*
X87333000Y-141868000D01*
G75*
G02*
X87183000Y-142018000I-150000J0D01*
G01*
X86883000Y-142018000D01*
G75*
G02*
X86733000Y-141868000I0J150000D01*
G01*
X86733000Y-140118000D01*
G75*
G02*
X86883000Y-139968000I150000J0D01*
G01*
G37*
G36*
G01*
X85613000Y-139968000D02*
X85913000Y-139968000D01*
G75*
G02*
X86063000Y-140118000I0J-150000D01*
G01*
X86063000Y-141868000D01*
G75*
G02*
X85913000Y-142018000I-150000J0D01*
G01*
X85613000Y-142018000D01*
G75*
G02*
X85463000Y-141868000I0J150000D01*
G01*
X85463000Y-140118000D01*
G75*
G02*
X85613000Y-139968000I150000J0D01*
G01*
G37*
G36*
G01*
X84343000Y-139968000D02*
X84643000Y-139968000D01*
G75*
G02*
X84793000Y-140118000I0J-150000D01*
G01*
X84793000Y-141868000D01*
G75*
G02*
X84643000Y-142018000I-150000J0D01*
G01*
X84343000Y-142018000D01*
G75*
G02*
X84193000Y-141868000I0J150000D01*
G01*
X84193000Y-140118000D01*
G75*
G02*
X84343000Y-139968000I150000J0D01*
G01*
G37*
G36*
G01*
X83073000Y-139968000D02*
X83373000Y-139968000D01*
G75*
G02*
X83523000Y-140118000I0J-150000D01*
G01*
X83523000Y-141868000D01*
G75*
G02*
X83373000Y-142018000I-150000J0D01*
G01*
X83073000Y-142018000D01*
G75*
G02*
X82923000Y-141868000I0J150000D01*
G01*
X82923000Y-140118000D01*
G75*
G02*
X83073000Y-139968000I150000J0D01*
G01*
G37*
G36*
G01*
X81803000Y-139968000D02*
X82103000Y-139968000D01*
G75*
G02*
X82253000Y-140118000I0J-150000D01*
G01*
X82253000Y-141868000D01*
G75*
G02*
X82103000Y-142018000I-150000J0D01*
G01*
X81803000Y-142018000D01*
G75*
G02*
X81653000Y-141868000I0J150000D01*
G01*
X81653000Y-140118000D01*
G75*
G02*
X81803000Y-139968000I150000J0D01*
G01*
G37*
G36*
G01*
X80533000Y-139968000D02*
X80833000Y-139968000D01*
G75*
G02*
X80983000Y-140118000I0J-150000D01*
G01*
X80983000Y-141868000D01*
G75*
G02*
X80833000Y-142018000I-150000J0D01*
G01*
X80533000Y-142018000D01*
G75*
G02*
X80383000Y-141868000I0J150000D01*
G01*
X80383000Y-140118000D01*
G75*
G02*
X80533000Y-139968000I150000J0D01*
G01*
G37*
G36*
G01*
X79263000Y-139968000D02*
X79563000Y-139968000D01*
G75*
G02*
X79713000Y-140118000I0J-150000D01*
G01*
X79713000Y-141868000D01*
G75*
G02*
X79563000Y-142018000I-150000J0D01*
G01*
X79263000Y-142018000D01*
G75*
G02*
X79113000Y-141868000I0J150000D01*
G01*
X79113000Y-140118000D01*
G75*
G02*
X79263000Y-139968000I150000J0D01*
G01*
G37*
G36*
G01*
X79263000Y-130668000D02*
X79563000Y-130668000D01*
G75*
G02*
X79713000Y-130818000I0J-150000D01*
G01*
X79713000Y-132568000D01*
G75*
G02*
X79563000Y-132718000I-150000J0D01*
G01*
X79263000Y-132718000D01*
G75*
G02*
X79113000Y-132568000I0J150000D01*
G01*
X79113000Y-130818000D01*
G75*
G02*
X79263000Y-130668000I150000J0D01*
G01*
G37*
G36*
G01*
X80533000Y-130668000D02*
X80833000Y-130668000D01*
G75*
G02*
X80983000Y-130818000I0J-150000D01*
G01*
X80983000Y-132568000D01*
G75*
G02*
X80833000Y-132718000I-150000J0D01*
G01*
X80533000Y-132718000D01*
G75*
G02*
X80383000Y-132568000I0J150000D01*
G01*
X80383000Y-130818000D01*
G75*
G02*
X80533000Y-130668000I150000J0D01*
G01*
G37*
G36*
G01*
X81803000Y-130668000D02*
X82103000Y-130668000D01*
G75*
G02*
X82253000Y-130818000I0J-150000D01*
G01*
X82253000Y-132568000D01*
G75*
G02*
X82103000Y-132718000I-150000J0D01*
G01*
X81803000Y-132718000D01*
G75*
G02*
X81653000Y-132568000I0J150000D01*
G01*
X81653000Y-130818000D01*
G75*
G02*
X81803000Y-130668000I150000J0D01*
G01*
G37*
G36*
G01*
X83073000Y-130668000D02*
X83373000Y-130668000D01*
G75*
G02*
X83523000Y-130818000I0J-150000D01*
G01*
X83523000Y-132568000D01*
G75*
G02*
X83373000Y-132718000I-150000J0D01*
G01*
X83073000Y-132718000D01*
G75*
G02*
X82923000Y-132568000I0J150000D01*
G01*
X82923000Y-130818000D01*
G75*
G02*
X83073000Y-130668000I150000J0D01*
G01*
G37*
G36*
G01*
X84343000Y-130668000D02*
X84643000Y-130668000D01*
G75*
G02*
X84793000Y-130818000I0J-150000D01*
G01*
X84793000Y-132568000D01*
G75*
G02*
X84643000Y-132718000I-150000J0D01*
G01*
X84343000Y-132718000D01*
G75*
G02*
X84193000Y-132568000I0J150000D01*
G01*
X84193000Y-130818000D01*
G75*
G02*
X84343000Y-130668000I150000J0D01*
G01*
G37*
G36*
G01*
X85613000Y-130668000D02*
X85913000Y-130668000D01*
G75*
G02*
X86063000Y-130818000I0J-150000D01*
G01*
X86063000Y-132568000D01*
G75*
G02*
X85913000Y-132718000I-150000J0D01*
G01*
X85613000Y-132718000D01*
G75*
G02*
X85463000Y-132568000I0J150000D01*
G01*
X85463000Y-130818000D01*
G75*
G02*
X85613000Y-130668000I150000J0D01*
G01*
G37*
G36*
G01*
X86883000Y-130668000D02*
X87183000Y-130668000D01*
G75*
G02*
X87333000Y-130818000I0J-150000D01*
G01*
X87333000Y-132568000D01*
G75*
G02*
X87183000Y-132718000I-150000J0D01*
G01*
X86883000Y-132718000D01*
G75*
G02*
X86733000Y-132568000I0J150000D01*
G01*
X86733000Y-130818000D01*
G75*
G02*
X86883000Y-130668000I150000J0D01*
G01*
G37*
G36*
G01*
X88153000Y-130668000D02*
X88453000Y-130668000D01*
G75*
G02*
X88603000Y-130818000I0J-150000D01*
G01*
X88603000Y-132568000D01*
G75*
G02*
X88453000Y-132718000I-150000J0D01*
G01*
X88153000Y-132718000D01*
G75*
G02*
X88003000Y-132568000I0J150000D01*
G01*
X88003000Y-130818000D01*
G75*
G02*
X88153000Y-130668000I150000J0D01*
G01*
G37*
G36*
G01*
X67650000Y-147120001D02*
X67650000Y-146219999D01*
G75*
G02*
X67899999Y-145970000I249999J0D01*
G01*
X68550001Y-145970000D01*
G75*
G02*
X68800000Y-146219999I0J-249999D01*
G01*
X68800000Y-147120001D01*
G75*
G02*
X68550001Y-147370000I-249999J0D01*
G01*
X67899999Y-147370000D01*
G75*
G02*
X67650000Y-147120001I0J249999D01*
G01*
G37*
G36*
G01*
X69700000Y-147120001D02*
X69700000Y-146219999D01*
G75*
G02*
X69949999Y-145970000I249999J0D01*
G01*
X70600001Y-145970000D01*
G75*
G02*
X70850000Y-146219999I0J-249999D01*
G01*
X70850000Y-147120001D01*
G75*
G02*
X70600001Y-147370000I-249999J0D01*
G01*
X69949999Y-147370000D01*
G75*
G02*
X69700000Y-147120001I0J249999D01*
G01*
G37*
G36*
G01*
X97025000Y-147349999D02*
X97025000Y-148250001D01*
G75*
G02*
X96775001Y-148500000I-249999J0D01*
G01*
X96124999Y-148500000D01*
G75*
G02*
X95875000Y-148250001I0J249999D01*
G01*
X95875000Y-147349999D01*
G75*
G02*
X96124999Y-147100000I249999J0D01*
G01*
X96775001Y-147100000D01*
G75*
G02*
X97025000Y-147349999I0J-249999D01*
G01*
G37*
G36*
G01*
X99075000Y-147349999D02*
X99075000Y-148250001D01*
G75*
G02*
X98825001Y-148500000I-249999J0D01*
G01*
X98174999Y-148500000D01*
G75*
G02*
X97925000Y-148250001I0J249999D01*
G01*
X97925000Y-147349999D01*
G75*
G02*
X98174999Y-147100000I249999J0D01*
G01*
X98825001Y-147100000D01*
G75*
G02*
X99075000Y-147349999I0J-249999D01*
G01*
G37*
G36*
G01*
X101200000Y-149749999D02*
X101200000Y-150650001D01*
G75*
G02*
X100950001Y-150900000I-249999J0D01*
G01*
X100299999Y-150900000D01*
G75*
G02*
X100050000Y-150650001I0J249999D01*
G01*
X100050000Y-149749999D01*
G75*
G02*
X100299999Y-149500000I249999J0D01*
G01*
X100950001Y-149500000D01*
G75*
G02*
X101200000Y-149749999I0J-249999D01*
G01*
G37*
G36*
G01*
X99150000Y-149749999D02*
X99150000Y-150650001D01*
G75*
G02*
X98900001Y-150900000I-249999J0D01*
G01*
X98249999Y-150900000D01*
G75*
G02*
X98000000Y-150650001I0J249999D01*
G01*
X98000000Y-149749999D01*
G75*
G02*
X98249999Y-149500000I249999J0D01*
G01*
X98900001Y-149500000D01*
G75*
G02*
X99150000Y-149749999I0J-249999D01*
G01*
G37*
D10*
X112600000Y-183350000D03*
X110100000Y-183350000D03*
X110100000Y-185500000D03*
X112600000Y-185500000D03*
G36*
G01*
X112825000Y-180549999D02*
X112825000Y-181450001D01*
G75*
G02*
X112575001Y-181700000I-249999J0D01*
G01*
X111924999Y-181700000D01*
G75*
G02*
X111675000Y-181450001I0J249999D01*
G01*
X111675000Y-180549999D01*
G75*
G02*
X111924999Y-180300000I249999J0D01*
G01*
X112575001Y-180300000D01*
G75*
G02*
X112825000Y-180549999I0J-249999D01*
G01*
G37*
G36*
G01*
X110775000Y-180549999D02*
X110775000Y-181450001D01*
G75*
G02*
X110525001Y-181700000I-249999J0D01*
G01*
X109874999Y-181700000D01*
G75*
G02*
X109625000Y-181450001I0J249999D01*
G01*
X109625000Y-180549999D01*
G75*
G02*
X109874999Y-180300000I249999J0D01*
G01*
X110525001Y-180300000D01*
G75*
G02*
X110775000Y-180549999I0J-249999D01*
G01*
G37*
M02*
