M48
; DRILL file {KiCad (5.1.10-1-10_14)} date Saturday, July 31, 2021 at 12:24:44 PM
; FORMAT={-:-/ absolute / metric / decimal}
; #@! TF.CreationDate,2021-07-31T12:24:44+02:00
; #@! TF.GenerationSoftware,Kicad,Pcbnew,(5.1.10-1-10_14)
; #@! TF.FileFunction,Plated,1,2,PTH
FMAT,2
METRIC
T1C0.400
T2C0.600
T3C0.800
T4C1.000
T5C1.100
T6C1.300
%
G90
G05
T1
X71.75Y-161.25
X74.25Y-143.25
X77.75Y-143.25
X78.232Y-125.73
X79.0Y-152.0
X79.25Y-172.25
X80.25Y-152.0
X82.804Y-121.92
X82.804Y-123.444
X82.804Y-124.968
X82.804Y-126.492
X82.804Y-128.016
X83.25Y-156.25
X84.5Y-152.0
X84.9Y-121.9
X84.9Y-123.4
X84.9Y-125.0
X84.9Y-126.5
X84.9Y-128.0
X85.25Y-143.0
X87.0Y-152.0
X88.25Y-152.0
X92.75Y-157.5
X100.625Y-162.875
T2
X117.3Y-135.6
X122.3Y-138.6
T3
X103.66Y-146.389
X103.66Y-156.549
X103.66Y-160.613
X103.66Y-170.773
X104.25Y-182.75
X106.75Y-182.75
X109.0Y-146.389
X109.0Y-156.549
X109.0Y-160.59
X109.0Y-170.75
X109.75Y-176.25
X112.25Y-176.25
T4
X69.65Y-165.53
X69.65Y-168.07
X72.19Y-165.53
X72.19Y-168.07
X74.73Y-165.53
X74.73Y-168.07
X77.27Y-165.53
X77.27Y-168.07
X100.0Y-168.38
X100.0Y-170.92
X100.0Y-173.46
X100.0Y-176.0
X100.0Y-178.54
X100.0Y-181.08
X116.205Y-143.193
X116.205Y-148.193
X122.7Y-146.0
X122.7Y-151.08
X122.7Y-156.16
X122.7Y-161.24
X122.7Y-168.86
X122.7Y-173.94
T5
X81.28Y-153.924
X81.28Y-156.464
X81.28Y-159.004
X81.28Y-161.544
X81.28Y-164.084
X81.28Y-166.624
X81.28Y-169.164
X81.28Y-171.704
X81.28Y-174.244
X81.28Y-176.784
X81.28Y-179.324
X81.28Y-181.864
X81.28Y-184.404
X81.28Y-186.944
X83.82Y-153.924
X83.82Y-159.004
X83.82Y-161.544
X83.82Y-184.404
X86.36Y-153.924
X86.36Y-159.004
X86.36Y-161.544
X88.9Y-153.924
X88.9Y-159.004
X88.9Y-161.544
X91.44Y-153.924
X91.44Y-159.004
X91.44Y-161.544
X93.98Y-153.924
X93.98Y-159.004
X93.98Y-161.544
X96.52Y-153.924
X96.52Y-156.464
X96.52Y-159.004
X96.52Y-161.544
X96.52Y-164.084
X96.52Y-166.624
X96.52Y-169.164
X96.52Y-171.704
X96.52Y-174.244
X96.52Y-176.784
X96.52Y-179.324
X96.52Y-181.864
X96.52Y-184.404
X96.52Y-186.944
T6
X106.045Y-125.088
X106.045Y-140.088
T4
X80.01Y-123.499G85X80.01Y-122.499
G05
X80.01Y-128.45G85X80.01Y-127.45
G05
X87.668Y-122.487G85X87.668Y-123.487
G05
X87.668Y-127.437G85X87.668Y-128.437
G05
X97.79Y-122.69G85X97.79Y-123.69
G05
X97.79Y-127.64G85X97.79Y-128.64
G05
X114.23Y-124.265G85X113.23Y-124.265
G05
X119.18Y-124.265G85X118.18Y-124.265
G05
T0
M30
