M48
; DRILL file {KiCad (5.1.5)-3} date 20.03.2021 13:22:58
; FORMAT={-:-/ absolute / inch / decimal}
; #@! TF.CreationDate,2021-03-20T13:22:58+01:00
; #@! TF.GenerationSoftware,Kicad,Pcbnew,(5.1.5)-3
FMAT,2
INCH
T1C0.0157
T2C0.0236
T3C0.0315
T4C0.0394
T5C0.0433
T6C0.0512
T7C0.0984
T8C0.1024
%
G90
G05
T1
X2.8171Y-6.3307
X2.9232Y-5.6398
X3.061Y-5.6398
X3.08Y-4.95
X3.1102Y-5.9843
X3.1201Y-6.7815
X3.1594Y-5.9843
X3.26Y-4.8
X3.26Y-4.86
X3.26Y-4.92
X3.26Y-4.98
X3.26Y-5.04
X3.2776Y-6.1516
X3.3268Y-5.9843
X3.3425Y-4.7992
X3.3425Y-4.8583
X3.3425Y-4.9213
X3.3425Y-4.9803
X3.3425Y-5.0394
X3.3563Y-5.6299
X3.4252Y-5.9843
X3.4744Y-5.9843
X3.6516Y-6.2008
T2
X4.6181Y-5.3386
X4.815Y-5.4567
T3
X4.0811Y-5.7633
X4.0811Y-6.1633
X3.937Y-6.8209
X3.937Y-6.8996
X3.937Y-6.9783
X3.937Y-7.0571
X3.937Y-7.1358
X3.937Y-7.2146
X4.2913Y-6.3224
X4.2913Y-6.7224
X4.2913Y-5.7633
X4.2913Y-6.1633
X4.1043Y-7.126
X4.2028Y-7.126
X4.3209Y-6.939
X4.4193Y-6.939
X4.0811Y-6.3233
X4.0811Y-6.7233
T4
X4.575Y-5.6375
X4.575Y-5.8344
X4.8307Y-5.748
X4.8307Y-5.948
X4.8307Y-6.148
X4.8307Y-6.348
X4.8307Y-6.648
X4.8307Y-6.848
X2.7421Y-6.5169
X2.7421Y-6.6169
X2.8421Y-6.5169
X2.8421Y-6.6169
X2.9421Y-6.5169
X2.9421Y-6.6169
X3.0421Y-6.5169
X3.0421Y-6.6169
T5
X3.2Y-6.06
X3.2Y-6.16
X3.2Y-6.26
X3.2Y-6.36
X3.2Y-6.46
X3.2Y-6.56
X3.2Y-6.66
X3.2Y-6.76
X3.2Y-6.86
X3.2Y-6.96
X3.2Y-7.06
X3.2Y-7.16
X3.2Y-7.26
X3.2Y-7.36
X3.3Y-6.06
X3.3Y-6.26
X3.3Y-6.36
X3.3Y-7.26
X3.4Y-6.06
X3.4Y-6.26
X3.4Y-6.36
X3.5Y-6.06
X3.5Y-6.26
X3.5Y-6.36
X3.6Y-6.06
X3.6Y-6.26
X3.6Y-6.36
X3.7Y-6.06
X3.7Y-6.26
X3.7Y-6.36
X3.8Y-6.06
X3.8Y-6.16
X3.8Y-6.26
X3.8Y-6.36
X3.8Y-6.46
X3.8Y-6.56
X3.8Y-6.66
X3.8Y-6.76
X3.8Y-6.86
X3.8Y-6.96
X3.8Y-7.06
X3.8Y-7.16
X3.8Y-7.26
X3.8Y-7.36
T6
X4.175Y-4.9247
X4.175Y-5.5153
T7
X4.6181Y-6.8504
X2.9252Y-6.8504
X4.6181Y-5.1575
X2.9252Y-5.1575
T8
X4.175Y-5.22
T4
G00X4.4972Y-4.8923
M15
G01X4.4579Y-4.8923
M16
G05
G00X4.6921Y-4.8923
M15
G01X4.6528Y-4.8923
M16
G05
G00X3.15Y-4.8622
M15
G01X3.15Y-4.8228
M16
G05
G00X3.15Y-5.0571
M15
G01X3.15Y-5.0177
M16
G05
G00X3.4515Y-4.8223
M15
G01X3.4515Y-4.8617
M16
G05
G00X3.4515Y-5.0172
M15
G01X3.4515Y-5.0566
M16
G05
G00X3.85Y-4.8303
M15
G01X3.85Y-4.8697
M16
G05
G00X3.85Y-5.0252
M15
G01X3.85Y-5.0646
M16
G05
T0
M30
